<svg id="Layer_1" data-name="Layer 1" xmlns="http://www.w3.org/2000/svg" viewBox="0 0 512 64"><defs><style>.cls-1{fill:#3ad1ca;}.cls-2{fill:none;stroke:#fff;stroke-miterlimit:10;}.cls-3{fill:#fff;}</style></defs><title>data-service</title><rect class="cls-1" width="512" height="64"/><line class="cls-2" x1="253.38" y1="32" x2="214.9" y2="32"/><line class="cls-2" x1="410.42" y1="32.49" x2="365.14" y2="32"/><polygon class="cls-3" points="407.15 28.36 406.46 29.09 410.03 32.48 406.38 35.8 407.06 36.54 411.5 32.5 407.15 28.36"/><circle class="cls-2" cx="198.85" cy="31.85" r="16.05"/><path class="cls-3" d="M194.48,33.71a2.92,2.92,0,0,1-1,1,2.14,2.14,0,0,1-1.07.34,1.64,1.64,0,0,1-1.23-.59,2.57,2.57,0,0,1-.54-1.79A3.82,3.82,0,0,1,191,31a3,3,0,0,1,1-1.18,2.52,2.52,0,0,1,1.5-.43q.26,0,.78.05l.23,0h.91v3.85a5.08,5.08,0,0,0,.21,1.6h-.95A8.23,8.23,0,0,1,194.48,33.71Zm0-1.09V30.28a3.57,3.57,0,0,0-.9-.13,1.77,1.77,0,0,0-1.4.65,2.62,2.62,0,0,0-.56,1.77,2,2,0,0,0,.31,1.23.87.87,0,0,0,.7.41,1.52,1.52,0,0,0,.94-.43A4.07,4.07,0,0,0,194.48,32.62Z"/><path class="cls-3" d="M197.93,30.7a3,3,0,0,1,1-1,2.12,2.12,0,0,1,1.07-.35,1.64,1.64,0,0,1,1.23.59,2.56,2.56,0,0,1,.55,1.79,3.8,3.8,0,0,1-.36,1.69,3.06,3.06,0,0,1-1,1.18,2.51,2.51,0,0,1-1.5.43q-.25,0-.78-.05l-.23,0V37H197V29.47h.91Zm0,1.08v2.34a3.65,3.65,0,0,0,.91.13,1.77,1.77,0,0,0,1.39-.65,2.61,2.61,0,0,0,.56-1.77,2,2,0,0,0-.31-1.23.87.87,0,0,0-.7-.41,1.51,1.51,0,0,0-.93.43A4.17,4.17,0,0,0,197.93,31.78Z"/><path class="cls-3" d="M204.82,34.93v-4.7h-1.51v-.76h2.42v4.7h1.52v.76Zm-.15-7.42a.53.53,0,0,1,.21-.46.6.6,0,0,1,.79,0,.53.53,0,0,1,.21.46.52.52,0,0,1-.21.45.6.6,0,0,1-.79,0A.52.52,0,0,1,204.68,27.5Z"/><rect class="cls-2" x="253.38" y="21.96" width="111.76" height="19.78"/><path class="cls-3" d="M288.7,34.89v-1a3.63,3.63,0,0,0,1.16.5,4.66,4.66,0,0,0,1,.14,1.71,1.71,0,0,0,1-.22.67.67,0,0,0,.3-.55.54.54,0,0,0-.14-.37,2.21,2.21,0,0,0-.7-.39L291,32.9l-.63-.25a3.23,3.23,0,0,1-1.28-.73,1.25,1.25,0,0,1-.27-.81,1.38,1.38,0,0,1,.52-1.11,2.63,2.63,0,0,1,1.69-.43,5.33,5.33,0,0,1,1.66.25v.83a5,5,0,0,0-1.69-.32,1.7,1.7,0,0,0-.9.2.59.59,0,0,0-.33.51.53.53,0,0,0,.28.47,5.08,5.08,0,0,0,.91.41l.62.22a3.11,3.11,0,0,1,1.19.67,1.26,1.26,0,0,1,.34.9,1.45,1.45,0,0,1-.54,1.17,2.69,2.69,0,0,1-1.74.46A5.79,5.79,0,0,1,288.7,34.89Z"/><path class="cls-3" d="M299.38,34.81a4.84,4.84,0,0,1-2.06.51A2.42,2.42,0,0,1,296,35a2.6,2.6,0,0,1-.93-1,3.14,3.14,0,0,1-.35-1.46,3.26,3.26,0,0,1,.33-1.43A2.56,2.56,0,0,1,296,30a2.41,2.41,0,0,1,1.33-.38,2,2,0,0,1,1.56.69,3.25,3.25,0,0,1,.59,2.14v.19H295.7a2.28,2.28,0,0,0,.24,1,1.69,1.69,0,0,0,.62.71,1.65,1.65,0,0,0,.88.24,4.09,4.09,0,0,0,1.94-.59Zm-3.63-2.9h2.72v-.13a1.61,1.61,0,0,0-.33-1.06,1.08,1.08,0,0,0-.87-.39,1.31,1.31,0,0,0-1,.4A2.29,2.29,0,0,0,295.75,31.91Z"/><path class="cls-3" d="M301.51,35.18V29.72h.91v1.19a3,3,0,0,1,1-1,2.3,2.3,0,0,1,1.22-.33,3.34,3.34,0,0,1,1,.15v2h-.87V30.44l-.36,0a1.56,1.56,0,0,0-1,.4,4.4,4.4,0,0,0-1,1.2v3.17Z"/><path class="cls-3" d="M309,35.18l-2.37-5.45h1L309.52,34l1.9-4.32h.91l-2.39,5.45Z"/><path class="cls-3" d="M315,35.18v-4.7h-1.51v-.76h2.42v4.7h1.52v.76Zm-.15-7.42a.53.53,0,0,1,.21-.46.6.6,0,0,1,.79,0,.53.53,0,0,1,.21.46.52.52,0,0,1-.21.45.6.6,0,0,1-.79,0A.52.52,0,0,1,314.83,27.75Z"/><path class="cls-3" d="M324.24,35a5.44,5.44,0,0,1-1.74.31,2.8,2.8,0,0,1-1.46-.38,2.68,2.68,0,0,1-1-1,3,3,0,0,1-.36-1.47,2.82,2.82,0,0,1,.81-2.06,2.64,2.64,0,0,1,2-.82,5.6,5.6,0,0,1,1.79.32v.87a4.18,4.18,0,0,0-1.7-.43,1.88,1.88,0,0,0-.94.25,1.62,1.62,0,0,0-.68.77,2.56,2.56,0,0,0-.24,1.07,2.44,2.44,0,0,0,.46,1.41,1.64,1.64,0,0,0,1.45.67,4,4,0,0,0,.59,0,7.43,7.43,0,0,0,1.06-.31Z"/><path class="cls-3" d="M330.38,34.81a4.84,4.84,0,0,1-2.06.51A2.42,2.42,0,0,1,327,35a2.6,2.6,0,0,1-.93-1,3.14,3.14,0,0,1-.35-1.46,3.26,3.26,0,0,1,.33-1.43A2.56,2.56,0,0,1,327,30a2.41,2.41,0,0,1,1.33-.38,2,2,0,0,1,1.56.69,3.25,3.25,0,0,1,.59,2.14v.19H326.7a2.28,2.28,0,0,0,.24,1,1.69,1.69,0,0,0,.62.71,1.65,1.65,0,0,0,.88.24,4.09,4.09,0,0,0,1.94-.59Zm-3.63-2.9h2.72v-.13a1.61,1.61,0,0,0-.33-1.06,1.08,1.08,0,0,0-.87-.39,1.31,1.31,0,0,0-1,.4A2.29,2.29,0,0,0,326.75,31.91Z"/><path class="cls-2" d="M128.25,15.79a16,16,0,0,0-11.51,4.88,16,16,0,0,0-23,0,16.05,16.05,0,1,0,0,22.35,16,16,0,0,0,23,0,16,16,0,1,0,11.51-27.23Z"/><path class="cls-3" d="M92,34.87a5.45,5.45,0,0,1-1.74.31,2.8,2.8,0,0,1-1.46-.38,2.67,2.67,0,0,1-1-1,3,3,0,0,1-.36-1.47,2.82,2.82,0,0,1,.81-2.06,2.64,2.64,0,0,1,2-.82,5.6,5.6,0,0,1,1.79.32v.87a4.18,4.18,0,0,0-1.7-.43,1.88,1.88,0,0,0-.94.25,1.62,1.62,0,0,0-.68.77,2.56,2.56,0,0,0-.24,1.07,2.44,2.44,0,0,0,.46,1.41,1.64,1.64,0,0,0,1.45.67,4,4,0,0,0,.59,0A7.25,7.25,0,0,0,92,34Z"/><path class="cls-3" d="M97.18,33.8a2.93,2.93,0,0,1-1,1,2.14,2.14,0,0,1-1.07.35,1.64,1.64,0,0,1-1.23-.59,2.57,2.57,0,0,1-.54-1.79,3.82,3.82,0,0,1,.36-1.69,3,3,0,0,1,1-1.18,2.52,2.52,0,0,1,1.5-.43q.26,0,.78.05l.23,0h.91v3.85A5.08,5.08,0,0,0,98.3,35h-.95A8.21,8.21,0,0,1,97.18,33.8Zm0-1.09V30.37a3.57,3.57,0,0,0-.9-.13,1.77,1.77,0,0,0-1.4.65,2.62,2.62,0,0,0-.56,1.77,2,2,0,0,0,.31,1.22.87.87,0,0,0,.7.41,1.53,1.53,0,0,0,.94-.43A4.08,4.08,0,0,0,97.18,32.72Z"/><path class="cls-3" d="M101.26,35V27.9H99.63v-.76h2.54v7.12h1.7V35Z"/><path class="cls-3" d="M107.46,35V27.9h-1.63v-.76h2.54v7.12h1.7V35Z"/><path class="cls-3" d="M116.73,34.66a4.85,4.85,0,0,1-2.06.51,2.43,2.43,0,0,1-1.32-.37,2.61,2.61,0,0,1-.93-1,3.14,3.14,0,0,1-.35-1.46,3.26,3.26,0,0,1,.33-1.43,2.56,2.56,0,0,1,.93-1.07,2.41,2.41,0,0,1,1.33-.38,2,2,0,0,1,1.56.69,3.25,3.25,0,0,1,.59,2.14v.19H113a2.28,2.28,0,0,0,.24,1,1.68,1.68,0,0,0,.62.71,1.65,1.65,0,0,0,.88.24,4.1,4.1,0,0,0,1.94-.59Zm-3.63-2.9h2.72v-.13a1.61,1.61,0,0,0-.33-1.06,1.08,1.08,0,0,0-.87-.39,1.31,1.31,0,0,0-1,.4A2.29,2.29,0,0,0,113.1,31.76Z"/><path class="cls-3" d="M118.86,35V29.57h.91v1.19a3,3,0,0,1,1-1,2.3,2.3,0,0,1,1.22-.33,3.34,3.34,0,0,1,1,.15v2h-.87V30.29l-.36,0a1.56,1.56,0,0,0-1,.4,4.4,4.4,0,0,0-1,1.2V35Z"/><line class="cls-2" x1="181.21" y1="32" x2="144.53" y2="32"/><polygon class="cls-3" points="177.9 27.91 177.22 28.64 180.83 32 177.22 35.36 177.9 36.09 182.3 32 177.9 27.91"/><ellipse class="cls-2" cx="427.66" cy="23.06" rx="15.96" ry="5.95"/><path class="cls-2" d="M411.71,23.06V42.71h0c.11,3.25,7.2,5.87,15.95,5.87S443.5,46,443.61,42.71h0V23.06"/></svg>