<?xml version="1.0" encoding="utf-8"?>
<!-- Generator: Adobe Illustrator 16.0.4, SVG Export Plug-In . SVG Version: 6.00 Build 0)  -->
<!DOCTYPE svg PUBLIC "-//W3C//DTD SVG 1.1//EN" "http://www.w3.org/Graphics/SVG/1.1/DTD/svg11.dtd">
<svg version="1.1" id="Layer_1" xmlns="http://www.w3.org/2000/svg" xmlns:xlink="http://www.w3.org/1999/xlink" x="0px" y="0px"
	 width="452.664px" height="497px" viewBox="0 0 452.664 497" enable-background="new 0 0 452.664 497" xml:space="preserve">
<rect x="-6.168" y="-5" fill="#F5F6F6" width="464" height="506"/>
<g>
	<polygon fill="#696C71" points="228.429,231.568 225.332,236.928 222.235,231.568 	"/>
	
		<line fill="none" stroke="#696C71" stroke-width="0.6735" stroke-miterlimit="10" x1="225.332" y1="233.045" x2="225.332" y2="155.471"/>
</g>
<g>
	<g>
		<path fill="#696C71" d="M236.734,205.999v-1.196h6.656v1.196h-2.652v6.786h-1.352v-6.786H236.734z"/>
		<path fill="#696C71" d="M247.759,204.802h1.3l3.068,7.982h-1.379l-0.818-2.21h-3.055l-0.819,2.21h-1.365L247.759,204.802z
			 M248.396,206.454l-1.092,2.951h2.185L248.396,206.454z"/>
		<path fill="#696C71" d="M255.272,204.802v7.982h-1.353v-7.982H255.272z"/>
		<path fill="#696C71" d="M264.113,204.802v7.982h-1.041l-4.082-5.811v5.811h-1.3v-7.982h1.274l3.848,5.538v-5.538H264.113z"/>
		<path fill="#696C71" d="M266.037,205.999v-1.196h6.655v1.196h-2.651v6.786h-1.353v-6.786H266.037z"/>
		<path fill="#696C71" d="M274.616,204.802h5.214v1.196h-3.888v2.106h3.522v1.183h-3.522v2.288h3.888v1.209h-5.214V204.802z"/>
		<path fill="#696C71" d="M281.947,212.785v-7.982h2.691c1.179,0,2.119,0.362,2.821,1.086s1.054,1.692,1.054,2.905
			c0,1.214-0.352,2.183-1.054,2.905c-0.702,0.725-1.643,1.086-2.821,1.086H281.947z M283.3,211.576h1.287
			c0.823,0,1.458-0.247,1.905-0.741c0.445-0.494,0.669-1.174,0.669-2.041c0-0.866-0.224-1.549-0.669-2.047
			c-0.447-0.499-1.082-0.748-1.905-0.748H283.3V211.576z"/>
		<path fill="#696C71" d="M294.024,212.785v-7.982h2.691c1.179,0,2.118,0.362,2.821,1.086c0.701,0.724,1.053,1.692,1.053,2.905
			c0,1.214-0.352,2.183-1.053,2.905c-0.703,0.725-1.643,1.086-2.821,1.086H294.024z M295.377,211.576h1.287
			c0.822,0,1.457-0.247,1.904-0.741c0.445-0.494,0.67-1.174,0.67-2.041c0-0.866-0.225-1.549-0.67-2.047
			c-0.447-0.499-1.082-0.748-1.904-0.748h-1.287V211.576z"/>
		<path fill="#696C71" d="M305.023,204.802h1.299l3.068,7.982h-1.378l-0.819-2.21h-3.055l-0.818,2.21h-1.365L305.023,204.802z
			 M305.66,206.454l-1.092,2.951h2.184L305.66,206.454z"/>
		<path fill="#696C71" d="M310.691,205.999v-1.196h6.655v1.196h-2.651v6.786h-1.353v-6.786H310.691z"/>
		<path fill="#696C71" d="M321.715,204.802h1.3l3.067,7.982h-1.377l-0.819-2.21h-3.056l-0.818,2.21h-1.365L321.715,204.802z
			 M322.352,206.454l-1.092,2.951h2.184L322.352,206.454z"/>
	</g>
</g>
<rect x="109.832" y="43" fill="#FFFFFF" width="230" height="131"/>
<g>
	<rect x="126.832" y="74" fill="#F5F6F6" width="196" height="87"/>
	<rect x="126.832" y="57" fill="#F5F6F6" width="70" height="20"/>
	<g>
		<g>
			<g>
				<g>
					<path fill="#696C71" d="M151.987,89.353v7.982h-1.04l-4.082-5.811v5.811h-1.3v-7.982h1.274l3.848,5.538v-5.538H151.987z"/>
					<path fill="#696C71" d="M156.849,89.353h1.3l3.068,7.982h-1.378l-0.819-2.21h-3.055l-0.819,2.21h-1.365L156.849,89.353z
						 M157.486,91.004l-1.092,2.951h2.184L157.486,91.004z"/>
					<path fill="#696C71" d="M167.457,97.335h-0.962l-2.197-5.551v5.551h-1.287v-7.982h1.547l2.431,6.137l2.405-6.137h1.508v7.982
						h-1.3v-5.551L167.457,97.335z"/>
					<path fill="#696C71" d="M173.32,89.353h5.213v1.196h-3.887v2.106h3.523v1.183h-3.523v2.288h3.887v1.209h-5.213V89.353z"/>
				</g>
			</g>
			<g>
				<g>
					<path fill="#696C71" d="M148.321,113.353h1.3l3.068,7.982h-1.378l-0.819-2.21h-3.055l-0.819,2.21h-1.365L148.321,113.353z
						 M148.958,115.004l-1.092,2.951h2.184L148.958,115.004z"/>
					<path fill="#696C71" d="M159.917,118.371h-1.742v-1.157h3.029v0.624c0,1.092-0.318,1.97-0.956,2.633
						c-0.637,0.663-1.449,0.994-2.438,0.994c-1.083,0-1.98-0.384-2.691-1.15c-0.711-0.767-1.066-1.757-1.066-2.971
						c0-1.213,0.353-2.203,1.06-2.971c0.706-0.767,1.588-1.15,2.646-1.15c0.893,0,1.623,0.234,2.19,0.702
						c0.567,0.468,0.929,1.109,1.085,1.924h-1.352c-0.173-0.459-0.41-0.808-0.708-1.046s-0.704-0.357-1.215-0.357
						c-0.702,0-1.268,0.271-1.697,0.812c-0.429,0.541-0.644,1.237-0.644,2.086c0,0.858,0.217,1.561,0.65,2.106
						c0.433,0.546,1.014,0.818,1.742,0.818c0.589,0,1.066-0.171,1.43-0.513C159.604,119.413,159.83,118.952,159.917,118.371z"/>
					<path fill="#696C71" d="M163.192,113.353h5.213v1.196h-3.887v2.106h3.523v1.183h-3.523v2.288h3.887v1.209h-5.213V113.353z"/>
				</g>
			</g>
			<rect x="187.5" y="86.5" fill="none" stroke="#696C71" stroke-width="0.5" stroke-miterlimit="10" width="117" height="15"/>
			<rect x="187.5" y="110.5" fill="none" stroke="#696C71" stroke-width="0.5" stroke-miterlimit="10" width="117" height="15"/>
			<g>
				<rect x="187.332" y="133.5" fill="#696C71" stroke="#696C71" stroke-miterlimit="10" width="74" height="18"/>
				<g>
					<g>
						<path fill="#FFFFFF" d="M201.752,144.125h1.378c0.251,0.798,0.854,1.196,1.807,1.196c0.468,0,0.843-0.106,1.125-0.318
							c0.282-0.213,0.423-0.501,0.423-0.865c0-0.286-0.089-0.514-0.267-0.683c-0.178-0.169-0.475-0.301-0.891-0.396l-1.352-0.324
							c-1.326-0.312-1.989-1.027-1.989-2.146c0-0.685,0.253-1.25,0.76-1.696c0.507-0.446,1.159-0.67,1.957-0.67
							c0.841,0,1.519,0.197,2.035,0.592s0.847,0.934,0.995,1.618h-1.352c-0.251-0.71-0.806-1.065-1.664-1.065
							c-0.434,0-0.782,0.102-1.046,0.306c-0.265,0.203-0.397,0.47-0.397,0.799c0,0.529,0.351,0.876,1.053,1.04l1.391,0.325
							c0.65,0.147,1.157,0.407,1.521,0.78c0.364,0.372,0.546,0.85,0.546,1.43c0,0.737-0.265,1.324-0.793,1.762
							c-0.529,0.438-1.213,0.656-2.054,0.656c-0.849,0-1.558-0.206-2.125-0.617C202.245,145.436,201.891,144.861,201.752,144.125z"
							/>
						<path fill="#FFFFFF" d="M215.175,145.613c-0.577,0.568-1.354,0.852-2.333,0.852c-0.979,0-1.757-0.283-2.333-0.852
							c-0.577-0.567-0.865-1.389-0.865-2.463v-4.798h1.352v4.654c0,1.5,0.615,2.249,1.846,2.249c1.23,0,1.846-0.749,1.846-2.249
							v-4.654h1.352v4.811C216.04,144.229,215.751,145.046,215.175,145.613z"/>
						<path fill="#FFFFFF" d="M222.786,142.214c0.381,0.121,0.693,0.354,0.936,0.695c0.243,0.343,0.364,0.722,0.364,1.138
							c0,0.737-0.241,1.303-0.722,1.696c-0.481,0.395-1.142,0.592-1.982,0.592h-3.055v-7.982h2.795c0.849,0,1.512,0.187,1.989,0.56
							s0.715,0.91,0.715,1.612c0,0.416-0.097,0.775-0.292,1.078C223.339,141.906,223.09,142.11,222.786,142.214z M219.64,141.707
							h1.469c0.944,0,1.417-0.368,1.417-1.105c0-0.719-0.473-1.078-1.417-1.078h-1.469V141.707z M219.64,142.825v2.34h1.716
							c0.451,0,0.797-0.104,1.04-0.312c0.242-0.208,0.364-0.493,0.364-0.857s-0.122-0.65-0.364-0.858
							c-0.243-0.208-0.589-0.312-1.04-0.312H219.64z"/>
						<path fill="#FFFFFF" d="M230.586,146.335h-0.961l-2.197-5.551v5.551h-1.288v-7.982h1.547l2.431,6.137l2.405-6.137h1.508v7.982
							h-1.3v-5.551L230.586,146.335z"/>
						<path fill="#FFFFFF" d="M237.801,138.353v7.982h-1.352v-7.982H237.801z"/>
						<path fill="#FFFFFF" d="M239.726,139.549v-1.196h6.655v1.196h-2.651v6.786h-1.353v-6.786H239.726z"/>
					</g>
				</g>
			</g>
		</g>
		<g>
			<path fill="#696C71" d="M146.657,73.492h-1.026V65.51h4.875v0.91h-3.849v2.691h3.614v0.91h-3.614V73.492z"/>
			<path fill="#696C71" d="M158.318,66.544c0.677,0.767,1.015,1.753,1.015,2.957c0,1.205-0.338,2.19-1.015,2.958
				c-0.676,0.767-1.542,1.15-2.6,1.15c-1.049,0-1.911-0.384-2.587-1.15c-0.676-0.768-1.014-1.753-1.014-2.958
				c0-1.204,0.338-2.19,1.014-2.957c0.676-0.768,1.538-1.15,2.587-1.15C156.776,65.394,157.642,65.776,158.318,66.544z
				 M157.59,71.796c0.477-0.594,0.715-1.358,0.715-2.295c0-0.936-0.238-1.7-0.715-2.294s-1.101-0.891-1.872-0.891
				c-0.763,0-1.383,0.297-1.859,0.891s-0.715,1.358-0.715,2.294c0,0.937,0.238,1.701,0.715,2.295s1.097,0.891,1.859,0.891
				C156.49,72.687,157.114,72.39,157.59,71.796z"/>
			<path fill="#696C71" d="M163.856,70.112h-1.417v3.38h-1.026V65.51h2.964c0.814,0,1.454,0.2,1.917,0.599
				c0.464,0.398,0.696,0.971,0.696,1.716c0,0.65-0.178,1.166-0.533,1.547c-0.355,0.382-0.854,0.615-1.495,0.702l2.353,3.419h-1.17
				L163.856,70.112z M162.439,66.407v2.834h1.911c0.521,0,0.921-0.126,1.203-0.377c0.281-0.251,0.422-0.598,0.422-1.04
				s-0.141-0.788-0.422-1.04c-0.282-0.251-0.683-0.377-1.203-0.377H162.439z"/>
			<path fill="#696C71" d="M173.437,73.492h-0.702l-2.522-6.084v6.084h-0.975V65.51h1.157l2.703,6.553l2.691-6.553h1.118v7.982
				h-0.976v-6.084L173.437,73.492z"/>
		</g>
	</g>
</g>
<rect x="131.832" y="397" fill="#FFFFFF" width="186" height="44"/>
<g>
	<polygon fill="#696C71" points="229.429,382.568 226.332,387.928 223.235,382.568 	"/>
	
		<line fill="none" stroke="#696C71" stroke-width="0.6735" stroke-miterlimit="10" x1="226.332" y1="384.045" x2="226.332" y2="306.471"/>
</g>
<g>
	<g>
		<path fill="#696C71" d="M240.31,360.809h-1.729v2.977h-1.352v-7.982h3.081c0.841,0,1.506,0.217,1.995,0.65
			c0.49,0.434,0.734,1.053,0.734,1.859c0,0.797-0.244,1.412-0.734,1.846C241.815,360.592,241.15,360.809,240.31,360.809z
			 M241.701,358.312c0-0.407-0.122-0.732-0.364-0.976c-0.243-0.242-0.594-0.363-1.054-0.363h-1.703v2.664h1.703
			c0.451,0,0.8-0.121,1.047-0.363C241.577,359.031,241.701,358.711,241.701,358.312z"/>
		<path fill="#696C71" d="M250.865,356.837c0.693,0.775,1.041,1.762,1.041,2.957c0,1.196-0.348,2.183-1.041,2.958
			s-1.577,1.163-2.652,1.163c-1.074,0-1.955-0.388-2.645-1.163s-1.033-1.762-1.033-2.958c0-1.195,0.344-2.182,1.033-2.957
			s1.57-1.164,2.645-1.164C249.288,355.673,250.172,356.062,250.865,356.837z M249.896,361.887c0.43-0.546,0.645-1.243,0.645-2.093
			c0-0.849-0.215-1.547-0.645-2.093c-0.428-0.546-0.99-0.819-1.684-0.819s-1.252,0.271-1.676,0.812
			c-0.426,0.542-0.638,1.242-0.638,2.1c0,0.858,0.212,1.559,0.638,2.1c0.424,0.542,0.982,0.812,1.676,0.812
			S249.469,362.434,249.896,361.887z"/>
		<path fill="#696C71" d="M253.271,361.575h1.378c0.252,0.798,0.854,1.196,1.807,1.196c0.469,0,0.844-0.106,1.125-0.318
			c0.281-0.213,0.423-0.501,0.423-0.865c0-0.286-0.089-0.514-0.267-0.683s-0.475-0.301-0.891-0.396l-1.352-0.324
			c-1.326-0.312-1.989-1.027-1.989-2.146c0-0.685,0.253-1.25,0.761-1.696c0.507-0.446,1.158-0.67,1.956-0.67
			c0.841,0,1.519,0.197,2.034,0.592s0.848,0.934,0.995,1.618h-1.353c-0.251-0.71-0.806-1.065-1.664-1.065
			c-0.434,0-0.781,0.102-1.046,0.306c-0.265,0.203-0.397,0.47-0.397,0.799c0,0.529,0.352,0.876,1.054,1.04l1.392,0.325
			c0.649,0.147,1.156,0.407,1.521,0.78c0.364,0.372,0.546,0.85,0.546,1.43c0,0.737-0.265,1.324-0.793,1.762
			c-0.529,0.438-1.213,0.656-2.055,0.656c-0.849,0-1.557-0.206-2.125-0.617C253.763,362.886,253.409,362.312,253.271,361.575z"/>
		<path fill="#696C71" d="M260.798,356.999v-1.196h6.655v1.196h-2.651v6.786h-1.353v-6.786H260.798z"/>
		<path fill="#696C71" d="M273.35,363.174c-0.629-0.857-0.943-1.88-0.943-3.067s0.314-2.21,0.943-3.068
			c0.628-0.858,1.475-1.426,2.541-1.703v1.404c-0.65,0.156-1.179,0.537-1.586,1.144c-0.408,0.607-0.611,1.348-0.611,2.224
			c0,0.875,0.203,1.616,0.611,2.223c0.407,0.606,0.936,0.988,1.586,1.145v1.403C274.824,364.6,273.978,364.032,273.35,363.174z"/>
		<path fill="#696C71" d="M282.131,363.785h-0.963l-2.197-5.551v5.551h-1.287v-7.982h1.548l2.431,6.137l2.405-6.137h1.508v7.982
			h-1.3v-5.551L282.131,363.785z"/>
		<path fill="#696C71" d="M287.993,355.803h5.214v1.196h-3.888v2.106h3.522v1.183h-3.522v2.288h3.888v1.209h-5.214V355.803z"/>
		<path fill="#696C71" d="M294.701,361.575h1.378c0.251,0.798,0.854,1.196,1.807,1.196c0.468,0,0.843-0.106,1.124-0.318
			c0.282-0.213,0.424-0.501,0.424-0.865c0-0.286-0.09-0.514-0.268-0.683s-0.475-0.301-0.891-0.396l-1.352-0.324
			c-1.326-0.312-1.988-1.027-1.988-2.146c0-0.685,0.253-1.25,0.76-1.696c0.508-0.446,1.159-0.67,1.957-0.67
			c0.84,0,1.519,0.197,2.034,0.592s0.847,0.934,0.995,1.618h-1.353c-0.251-0.71-0.806-1.065-1.664-1.065
			c-0.434,0-0.782,0.102-1.046,0.306c-0.266,0.203-0.397,0.47-0.397,0.799c0,0.529,0.351,0.876,1.054,1.04l1.391,0.325
			c0.65,0.147,1.156,0.407,1.521,0.78c0.363,0.372,0.545,0.85,0.545,1.43c0,0.737-0.264,1.324-0.793,1.762
			c-0.528,0.438-1.213,0.656-2.054,0.656c-0.849,0-1.558-0.206-2.126-0.617C295.193,362.886,294.84,362.312,294.701,361.575z"/>
		<path fill="#696C71" d="M302.098,361.575h1.379c0.25,0.798,0.854,1.196,1.807,1.196c0.468,0,0.842-0.106,1.124-0.318
			c0.282-0.213,0.423-0.501,0.423-0.865c0-0.286-0.09-0.514-0.267-0.683c-0.178-0.169-0.475-0.301-0.891-0.396l-1.353-0.324
			c-1.325-0.312-1.988-1.027-1.988-2.146c0-0.685,0.254-1.25,0.76-1.696c0.508-0.446,1.16-0.67,1.957-0.67
			c0.841,0,1.52,0.197,2.035,0.592s0.847,0.934,0.994,1.618h-1.352c-0.252-0.71-0.807-1.065-1.664-1.065
			c-0.434,0-0.783,0.102-1.047,0.306c-0.265,0.203-0.396,0.47-0.396,0.799c0,0.529,0.351,0.876,1.053,1.04l1.391,0.325
			c0.65,0.147,1.157,0.407,1.521,0.78c0.363,0.372,0.546,0.85,0.546,1.43c0,0.737-0.265,1.324-0.793,1.762s-1.214,0.656-2.054,0.656
			c-0.85,0-1.559-0.206-2.126-0.617C302.59,362.886,302.236,362.312,302.098,361.575z"/>
		<path fill="#696C71" d="M312.562,355.803h1.301l3.067,7.982h-1.378l-0.818-2.21h-3.056l-0.819,2.21h-1.365L312.562,355.803z
			 M313.199,357.454l-1.092,2.951h2.185L313.199,357.454z"/>
		<path fill="#696C71" d="M324.158,360.821h-1.741v-1.157h3.028v0.624c0,1.092-0.318,1.97-0.955,2.633s-1.449,0.994-2.438,0.994
			c-1.084,0-1.98-0.384-2.691-1.15s-1.065-1.757-1.065-2.971c0-1.213,0.353-2.203,1.06-2.971c0.706-0.767,1.588-1.15,2.646-1.15
			c0.893,0,1.622,0.234,2.19,0.702c0.567,0.468,0.93,1.109,1.086,1.924h-1.353c-0.173-0.459-0.409-0.808-0.708-1.046
			s-0.705-0.357-1.216-0.357c-0.702,0-1.268,0.271-1.696,0.812c-0.43,0.541-0.645,1.237-0.645,2.086c0,0.858,0.217,1.561,0.65,2.106
			s1.014,0.818,1.742,0.818c0.59,0,1.066-0.171,1.43-0.513C323.847,361.863,324.072,361.402,324.158,360.821z"/>
		<path fill="#696C71" d="M327.435,355.803h5.214v1.196h-3.888v2.106h3.522v1.183h-3.522v2.288h3.888v1.209h-5.214V355.803z"/>
		<path fill="#696C71" d="M336.684,357.038c0.629,0.858,0.943,1.881,0.943,3.068s-0.314,2.21-0.943,3.067
			c-0.628,0.858-1.475,1.426-2.541,1.703v-1.403c0.65-0.156,1.179-0.538,1.586-1.145c0.408-0.606,0.611-1.348,0.611-2.223
			c0-0.876-0.203-1.616-0.611-2.224c-0.407-0.606-0.936-0.987-1.586-1.144v-1.404C335.209,355.612,336.056,356.18,336.684,357.038z"
			/>
	</g>
</g>
<rect x="5.832" y="246" fill="#FFFFFF" width="438" height="78"/>
<g>
	<path fill="#0071BC" d="M16.817,273.967v-0.846c0.508,0.15,0.936,0.225,1.284,0.225c0.303,0,0.56-0.053,0.771-0.158
		s0.377-0.283,0.496-0.535c0.119-0.25,0.178-0.686,0.178-1.309v-4.209h-2.314v-0.756h3.223v4.791c0,0.924-0.109,1.566-0.327,1.926
		s-0.482,0.617-0.791,0.773s-0.732,0.234-1.27,0.234C17.68,274.104,17.263,274.059,16.817,273.967z M19.4,264.408
		c0-0.205,0.069-0.357,0.208-0.457c0.138-0.102,0.271-0.15,0.398-0.15s0.26,0.049,0.398,0.15c0.138,0.1,0.208,0.252,0.208,0.457
		c0,0.201-0.069,0.352-0.208,0.453c-0.138,0.1-0.271,0.15-0.398,0.15s-0.26-0.051-0.398-0.15
		C19.469,264.76,19.4,264.609,19.4,264.408z"/>
	<path fill="#0071BC" d="M23.298,271.545v-0.963c0.365,0.238,0.75,0.404,1.157,0.5c0.407,0.098,0.752,0.145,1.035,0.145
		c0.459,0,0.79-0.074,0.991-0.223c0.202-0.146,0.303-0.332,0.303-0.553c0-0.146-0.047-0.271-0.142-0.377
		c-0.094-0.104-0.329-0.232-0.703-0.385l-0.312-0.127l-0.63-0.25c-0.677-0.264-1.104-0.508-1.279-0.732
		c-0.179-0.221-0.269-0.49-0.269-0.811c0-0.449,0.173-0.818,0.521-1.107c0.347-0.291,0.91-0.436,1.689-0.436
		c0.583,0,1.136,0.086,1.657,0.254v0.826c-0.6-0.215-1.164-0.322-1.692-0.322c-0.385,0-0.686,0.066-0.902,0.201
		c-0.217,0.137-0.325,0.305-0.325,0.506c0,0.195,0.094,0.352,0.283,0.469c0.186,0.117,0.488,0.252,0.909,0.406l0.616,0.225
		c0.564,0.205,0.959,0.428,1.186,0.668c0.228,0.242,0.341,0.543,0.341,0.904c0,0.471-0.182,0.859-0.544,1.164
		s-0.943,0.457-1.741,0.457C24.75,271.984,24.034,271.838,23.298,271.545z"/>
	<path fill="#0071BC" d="M31.979,271.984c-0.78,0-1.405-0.273-1.873-0.818s-0.703-1.232-0.703-2.062s0.234-1.518,0.703-2.061
		c0.468-0.545,1.093-0.816,1.873-0.816c0.777,0,1.4,0.271,1.868,0.816c0.468,0.543,0.703,1.23,0.703,2.061s-0.234,1.518-0.703,2.062
		S32.757,271.984,31.979,271.984z M31.979,271.227c0.484,0,0.869-0.188,1.155-0.566c0.286-0.377,0.429-0.896,0.429-1.557
		c0-0.658-0.143-1.176-0.429-1.553c-0.286-0.379-0.671-0.566-1.155-0.566c-0.487,0-0.875,0.188-1.16,0.566
		c-0.286,0.377-0.429,0.895-0.429,1.553c0,0.66,0.143,1.18,0.429,1.557C31.105,271.039,31.492,271.227,31.979,271.227z"/>
	<path fill="#0071BC" d="M36.237,271.832v-5.453h0.908v1.191c0.26-0.42,0.575-0.75,0.942-0.986c0.368-0.238,0.736-0.357,1.104-0.357
		c0.322,0,0.615,0.086,0.879,0.256c0.264,0.172,0.448,0.396,0.554,0.672c0.106,0.277,0.159,0.82,0.159,1.631v3.047h-0.908v-3.158
		c0-0.525-0.025-0.871-0.076-1.039c-0.05-0.166-0.143-0.305-0.278-0.412s-0.282-0.16-0.442-0.16c-0.319,0-0.662,0.15-1.028,0.453
		s-0.668,0.682-0.906,1.139v3.178H36.237z"/>
	<path fill="#666666" d="M48.829,271.832v-5.453h0.796v1.25c0.25-0.531,0.484-0.896,0.701-1.1c0.216-0.201,0.436-0.303,0.657-0.303
		c0.264,0,0.476,0.104,0.637,0.311s0.242,0.5,0.242,0.881v0.293c0.107-0.332,0.237-0.602,0.388-0.809
		c0.151-0.205,0.309-0.371,0.471-0.492c0.163-0.123,0.35-0.184,0.562-0.184c0.234,0,0.435,0.1,0.601,0.299
		c0.166,0.197,0.249,0.594,0.249,1.186v4.121h-0.796v-3.725c0-0.307-0.01-0.516-0.029-0.629c-0.02-0.111-0.059-0.197-0.117-0.256
		s-0.122-0.088-0.19-0.088c-0.169,0-0.351,0.129-0.544,0.389c-0.194,0.258-0.392,0.688-0.593,1.287v3.021h-0.757v-3.721
		c0-0.48-0.047-0.764-0.142-0.85c-0.095-0.084-0.18-0.127-0.255-0.127c-0.167,0-0.345,0.145-0.536,0.436
		c-0.191,0.289-0.374,0.66-0.546,1.113v3.148H48.829z"/>
	<path fill="#666666" d="M60.276,271.469c-0.726,0.344-1.413,0.516-2.061,0.516c-0.492,0-0.931-0.123-1.318-0.367
		c-0.387-0.242-0.697-0.592-0.93-1.045c-0.233-0.455-0.349-0.939-0.349-1.457c0-0.498,0.111-0.977,0.332-1.434
		c0.221-0.459,0.531-0.816,0.928-1.072c0.397-0.254,0.84-0.383,1.328-0.383c0.648,0,1.168,0.23,1.56,0.693
		c0.392,0.461,0.588,1.172,0.588,2.135v0.195h-3.76c0,0.379,0.079,0.725,0.237,1.037s0.365,0.549,0.623,0.705
		s0.55,0.234,0.879,0.234c0.586,0,1.234-0.195,1.943-0.586V271.469z M56.648,268.57h2.72v-0.131c0-0.445-0.109-0.799-0.327-1.061
		c-0.218-0.264-0.509-0.395-0.874-0.395c-0.368,0-0.686,0.133-0.955,0.4S56.755,268.049,56.648,268.57z"/>
	<path fill="#666666" d="M62.304,271.545v-0.963c0.365,0.238,0.75,0.404,1.157,0.5c0.407,0.098,0.752,0.145,1.035,0.145
		c0.459,0,0.79-0.074,0.991-0.223c0.202-0.146,0.303-0.332,0.303-0.553c0-0.146-0.047-0.271-0.142-0.377
		c-0.094-0.104-0.329-0.232-0.703-0.385l-0.312-0.127l-0.63-0.25c-0.677-0.264-1.104-0.508-1.279-0.732
		c-0.179-0.221-0.269-0.49-0.269-0.811c0-0.449,0.173-0.818,0.521-1.107c0.347-0.291,0.91-0.436,1.689-0.436
		c0.583,0,1.136,0.086,1.657,0.254v0.826c-0.6-0.215-1.164-0.322-1.692-0.322c-0.385,0-0.686,0.066-0.902,0.201
		c-0.217,0.137-0.325,0.305-0.325,0.506c0,0.195,0.094,0.352,0.283,0.469c0.186,0.117,0.488,0.252,0.909,0.406l0.616,0.225
		c0.564,0.205,0.959,0.428,1.186,0.668c0.228,0.242,0.341,0.543,0.341,0.904c0,0.471-0.182,0.859-0.544,1.164
		s-0.943,0.457-1.741,0.457C63.756,271.984,63.04,271.838,62.304,271.545z"/>
	<path fill="#666666" d="M68.805,271.545v-0.963c0.365,0.238,0.75,0.404,1.157,0.5c0.407,0.098,0.752,0.145,1.035,0.145
		c0.459,0,0.79-0.074,0.991-0.223c0.202-0.146,0.303-0.332,0.303-0.553c0-0.146-0.047-0.271-0.142-0.377
		c-0.094-0.104-0.329-0.232-0.703-0.385l-0.312-0.127l-0.63-0.25c-0.677-0.264-1.104-0.508-1.279-0.732
		c-0.179-0.221-0.269-0.49-0.269-0.811c0-0.449,0.173-0.818,0.521-1.107c0.347-0.291,0.91-0.436,1.689-0.436
		c0.583,0,1.136,0.086,1.657,0.254v0.826c-0.6-0.215-1.164-0.322-1.692-0.322c-0.385,0-0.686,0.066-0.902,0.201
		c-0.217,0.137-0.325,0.305-0.325,0.506c0,0.195,0.094,0.352,0.283,0.469c0.186,0.117,0.488,0.252,0.909,0.406l0.616,0.225
		c0.564,0.205,0.959,0.428,1.186,0.668c0.228,0.242,0.341,0.543,0.341,0.904c0,0.471-0.182,0.859-0.544,1.164
		s-0.943,0.457-1.741,0.457C70.257,271.984,69.541,271.838,68.805,271.545z"/>
	<path fill="#666666" d="M78.828,270.613c-0.276,0.453-0.609,0.795-0.999,1.025s-0.747,0.346-1.072,0.346
		c-0.456,0-0.865-0.197-1.229-0.592c-0.363-0.393-0.544-0.99-0.544-1.791c0-0.633,0.121-1.195,0.362-1.693
		c0.241-0.496,0.563-0.889,0.968-1.176c0.404-0.289,0.904-0.432,1.501-0.432c0.172,0,0.433,0.018,0.78,0.053
		c0.052,0.008,0.13,0.016,0.234,0.025h0.911v3.852c0,0.658,0.07,1.191,0.21,1.602h-0.947
		C78.929,271.535,78.871,271.127,78.828,270.613z M78.832,269.525v-2.342c-0.323-0.084-0.623-0.127-0.9-0.127
		c-0.561,0-1.028,0.217-1.401,0.65s-0.56,1.023-0.56,1.77c0,0.541,0.102,0.949,0.306,1.225s0.436,0.414,0.697,0.414
		c0.284,0,0.597-0.145,0.939-0.432C78.254,270.398,78.561,270.012,78.832,269.525z"/>
	<path fill="#666666" d="M85.391,270.605c-0.277,0.457-0.61,0.801-1,1.031c-0.389,0.232-0.747,0.348-1.073,0.348
		c-0.457,0-0.866-0.197-1.23-0.592c-0.363-0.393-0.545-0.99-0.545-1.791c0-0.633,0.121-1.195,0.362-1.693
		c0.241-0.496,0.563-0.889,0.968-1.176c0.404-0.289,0.904-0.432,1.501-0.432c0.172,0,0.433,0.018,0.78,0.053
		c0.052,0.008,0.13,0.016,0.234,0.025h0.911v3.857c0,0.918-0.012,1.479-0.036,1.682c-0.023,0.203-0.062,0.41-0.116,0.617
		c-0.13,0.486-0.427,0.867-0.892,1.148c-0.464,0.279-1.026,0.42-1.684,0.42c-0.661,0-1.331-0.17-2.009-0.508v-0.918
		c0.257,0.176,0.574,0.33,0.951,0.465c0.376,0.137,0.741,0.203,1.093,0.203c0.277,0,0.54-0.043,0.787-0.131
		c0.248-0.088,0.448-0.215,0.602-0.381s0.257-0.359,0.313-0.58c0.055-0.219,0.083-0.512,0.083-0.875V270.605z M85.391,269.525
		v-2.342c-0.323-0.084-0.623-0.127-0.9-0.127c-0.561,0-1.028,0.217-1.401,0.65s-0.56,1.023-0.56,1.77
		c0,0.541,0.102,0.949,0.306,1.225s0.436,0.414,0.697,0.414c0.284,0,0.597-0.145,0.939-0.432
		C84.814,270.398,85.121,270.012,85.391,269.525z"/>
	<path fill="#666666" d="M92.781,271.469c-0.726,0.344-1.413,0.516-2.061,0.516c-0.492,0-0.931-0.123-1.318-0.367
		c-0.387-0.242-0.697-0.592-0.93-1.045c-0.233-0.455-0.349-0.939-0.349-1.457c0-0.498,0.111-0.977,0.332-1.434
		c0.221-0.459,0.531-0.816,0.928-1.072c0.397-0.254,0.84-0.383,1.328-0.383c0.648,0,1.168,0.23,1.56,0.693
		c0.392,0.461,0.588,1.172,0.588,2.135v0.195h-3.76c0,0.379,0.079,0.725,0.237,1.037s0.365,0.549,0.623,0.705
		s0.55,0.234,0.879,0.234c0.586,0,1.234-0.195,1.943-0.586V271.469z M89.153,268.57h2.72v-0.131c0-0.445-0.109-0.799-0.327-1.061
		c-0.218-0.264-0.509-0.395-0.874-0.395c-0.368,0-0.686,0.133-0.955,0.4S89.26,268.049,89.153,268.57z"/>
	<path fill="#666666" d="M112.64,267.971v0.756h-5.303v-0.756H112.64z M112.64,269.674v0.758h-5.303v-0.758H112.64z"/>
	<path fill="#0071BC" d="M125.339,271.676c-0.609,0.205-1.188,0.309-1.738,0.309c-0.547,0-1.033-0.127-1.458-0.379
		s-0.756-0.594-0.994-1.025s-0.356-0.922-0.356-1.473c0-0.826,0.27-1.514,0.808-2.061s1.189-0.82,1.951-0.82
		c0.563,0,1.159,0.105,1.787,0.318v0.873c-0.635-0.289-1.203-0.434-1.704-0.434c-0.332,0-0.645,0.082-0.938,0.246
		s-0.519,0.42-0.679,0.77c-0.16,0.348-0.239,0.705-0.239,1.074c0,0.49,0.154,0.959,0.461,1.406c0.308,0.445,0.79,0.668,1.448,0.668
		c0.199,0,0.394-0.014,0.586-0.041s0.547-0.129,1.064-0.305V271.676z"/>
	<path fill="#0071BC" d="M127.25,271.832v-7.881h0.908v3.619c0.26-0.42,0.575-0.75,0.942-0.986c0.368-0.238,0.736-0.357,1.104-0.357
		c0.309,0,0.592,0.08,0.847,0.236c0.255,0.158,0.434,0.35,0.535,0.574c0.082,0.174,0.137,0.355,0.166,0.549
		c0.029,0.195,0.044,0.594,0.044,1.199v3.047h-0.908v-3.158c0-0.525-0.025-0.871-0.076-1.039c-0.05-0.166-0.143-0.305-0.278-0.412
		s-0.282-0.16-0.442-0.16c-0.319,0-0.662,0.15-1.028,0.453s-0.668,0.682-0.906,1.139v3.178H127.25z"/>
	<path fill="#0071BC" d="M138.288,271.469c-0.726,0.344-1.413,0.516-2.061,0.516c-0.492,0-0.931-0.123-1.318-0.367
		c-0.387-0.242-0.697-0.592-0.93-1.045c-0.233-0.455-0.349-0.939-0.349-1.457c0-0.498,0.111-0.977,0.332-1.434
		c0.221-0.459,0.531-0.816,0.928-1.072c0.397-0.254,0.84-0.383,1.328-0.383c0.648,0,1.168,0.23,1.56,0.693
		c0.392,0.461,0.588,1.172,0.588,2.135v0.195h-3.76c0,0.379,0.079,0.725,0.237,1.037s0.365,0.549,0.623,0.705
		s0.55,0.234,0.879,0.234c0.586,0,1.234-0.195,1.943-0.586V271.469z M134.66,268.57h2.72v-0.131c0-0.445-0.109-0.799-0.327-1.061
		c-0.218-0.264-0.509-0.395-0.874-0.395c-0.368,0-0.686,0.133-0.955,0.4S134.767,268.049,134.66,268.57z"/>
	<path fill="#0071BC" d="M144.842,271.676c-0.609,0.205-1.188,0.309-1.738,0.309c-0.547,0-1.033-0.127-1.458-0.379
		s-0.756-0.594-0.994-1.025s-0.356-0.922-0.356-1.473c0-0.826,0.27-1.514,0.808-2.061s1.189-0.82,1.951-0.82
		c0.563,0,1.159,0.105,1.787,0.318v0.873c-0.635-0.289-1.203-0.434-1.704-0.434c-0.332,0-0.645,0.082-0.938,0.246
		s-0.519,0.42-0.679,0.77c-0.16,0.348-0.239,0.705-0.239,1.074c0,0.49,0.154,0.959,0.461,1.406c0.308,0.445,0.79,0.668,1.448,0.668
		c0.199,0,0.394-0.014,0.586-0.041s0.547-0.129,1.064-0.305V271.676z"/>
	<path fill="#0071BC" d="M146.998,271.832v-7.881h0.908v4.951l2.622-2.523h1.202l-2.597,2.5l2.674,2.953h-1.25l-2.651-2.93v2.93
		H146.998z"/>
	<path fill="#666666" d="M160.219,271.832v-5.453h0.908v1.191c0.283-0.449,0.608-0.785,0.974-1.01
		c0.366-0.223,0.774-0.334,1.223-0.334c0.329,0,0.658,0.051,0.986,0.152v1.967h-0.874v-1.244c-0.153-0.027-0.273-0.039-0.361-0.039
		c-0.338,0-0.67,0.133-0.996,0.4c-0.326,0.266-0.643,0.666-0.952,1.201v3.168H160.219z"/>
	<path fill="#666666" d="M170.792,271.469c-0.726,0.344-1.413,0.516-2.061,0.516c-0.492,0-0.931-0.123-1.318-0.367
		c-0.387-0.242-0.697-0.592-0.93-1.045c-0.233-0.455-0.349-0.939-0.349-1.457c0-0.498,0.111-0.977,0.332-1.434
		c0.221-0.459,0.531-0.816,0.928-1.072c0.397-0.254,0.84-0.383,1.328-0.383c0.648,0,1.168,0.23,1.56,0.693
		c0.392,0.461,0.588,1.172,0.588,2.135v0.195h-3.76c0,0.379,0.079,0.725,0.237,1.037s0.365,0.549,0.623,0.705
		s0.55,0.234,0.879,0.234c0.586,0,1.234-0.195,1.943-0.586V271.469z M167.165,268.57h2.72v-0.131c0-0.445-0.109-0.799-0.327-1.061
		c-0.218-0.264-0.509-0.395-0.874-0.395c-0.368,0-0.686,0.133-0.955,0.4S167.272,268.049,167.165,268.57z"/>
	<path fill="#666666" d="M176.405,270.605c-0.277,0.457-0.61,0.801-1,1.031c-0.389,0.232-0.747,0.348-1.073,0.348
		c-0.457,0-0.866-0.197-1.23-0.592c-0.363-0.393-0.545-0.99-0.545-1.791c0-0.633,0.121-1.195,0.362-1.693
		c0.241-0.496,0.563-0.889,0.968-1.176c0.404-0.289,0.904-0.432,1.501-0.432c0.172,0,0.433,0.018,0.78,0.053
		c0.052,0.008,0.13,0.016,0.234,0.025h0.911v7.572h-0.908V270.605z M176.405,269.525v-2.342c-0.323-0.084-0.623-0.127-0.9-0.127
		c-0.561,0-1.028,0.217-1.401,0.65s-0.56,1.023-0.56,1.77c0,0.541,0.102,0.949,0.306,1.225s0.436,0.414,0.697,0.414
		c0.284,0,0.597-0.145,0.939-0.432C175.828,270.398,176.134,270.012,176.405,269.525z"/>
	<path fill="#666666" d="M181.5,272.062c-0.218,0-0.405-0.078-0.562-0.234s-0.234-0.344-0.234-0.562
		c0-0.221,0.079-0.408,0.237-0.564c0.158-0.154,0.344-0.23,0.559-0.23s0.401,0.076,0.559,0.23c0.158,0.156,0.237,0.344,0.237,0.564
		c0,0.219-0.078,0.406-0.234,0.562S181.718,272.062,181.5,272.062z"/>
	<path fill="#666666" d="M189.407,270.605c-0.277,0.457-0.61,0.801-1,1.031c-0.389,0.232-0.747,0.348-1.073,0.348
		c-0.457,0-0.866-0.197-1.23-0.592c-0.363-0.393-0.545-0.99-0.545-1.791c0-0.633,0.121-1.195,0.362-1.693
		c0.241-0.496,0.563-0.889,0.968-1.176c0.404-0.289,0.904-0.432,1.501-0.432c0.172,0,0.433,0.018,0.78,0.053
		c0.052,0.008,0.13,0.016,0.234,0.025h0.911v3.857c0,0.918-0.012,1.479-0.036,1.682c-0.023,0.203-0.062,0.41-0.116,0.617
		c-0.13,0.486-0.427,0.867-0.892,1.148c-0.464,0.279-1.026,0.42-1.684,0.42c-0.661,0-1.331-0.17-2.009-0.508v-0.918
		c0.257,0.176,0.574,0.33,0.951,0.465c0.376,0.137,0.741,0.203,1.093,0.203c0.277,0,0.54-0.043,0.787-0.131
		c0.248-0.088,0.448-0.215,0.602-0.381s0.257-0.359,0.313-0.58c0.055-0.219,0.083-0.512,0.083-0.875V270.605z M189.407,269.525
		v-2.342c-0.323-0.084-0.623-0.127-0.9-0.127c-0.561,0-1.028,0.217-1.401,0.65s-0.56,1.023-0.56,1.77
		c0,0.541,0.102,0.949,0.306,1.225s0.436,0.414,0.697,0.414c0.284,0,0.597-0.145,0.939-0.432
		C188.83,270.398,189.136,270.012,189.407,269.525z"/>
	<path fill="#666666" d="M196.796,271.469c-0.726,0.344-1.413,0.516-2.061,0.516c-0.492,0-0.931-0.123-1.318-0.367
		c-0.387-0.242-0.697-0.592-0.93-1.045c-0.233-0.455-0.349-0.939-0.349-1.457c0-0.498,0.111-0.977,0.332-1.434
		c0.221-0.459,0.531-0.816,0.928-1.072c0.397-0.254,0.84-0.383,1.328-0.383c0.648,0,1.168,0.23,1.56,0.693
		c0.392,0.461,0.588,1.172,0.588,2.135v0.195h-3.76c0,0.379,0.079,0.725,0.237,1.037s0.365,0.549,0.623,0.705
		s0.55,0.234,0.879,0.234c0.586,0,1.234-0.195,1.943-0.586V271.469z M193.168,268.57h2.72v-0.131c0-0.445-0.109-0.799-0.327-1.061
		c-0.218-0.264-0.509-0.395-0.874-0.395c-0.368,0-0.686,0.133-0.955,0.4S193.276,268.049,193.168,268.57z"/>
	<path fill="#666666" d="M203.322,271.613c-0.426,0.178-0.736,0.285-0.928,0.318c-0.192,0.035-0.377,0.053-0.557,0.053
		c-0.381,0-0.729-0.074-1.045-0.221s-0.554-0.363-0.715-0.648c-0.161-0.287-0.242-0.73-0.242-1.328v-2.197h-1.362v-0.758h1.362
		v-2.197h0.908v2.197h2.427v0.758h-2.427v2.182c0,0.439,0.052,0.75,0.156,0.93c0.104,0.182,0.243,0.314,0.417,0.398
		c0.174,0.086,0.38,0.127,0.618,0.127c0.439,0,0.902-0.139,1.387-0.414V271.613z"/>
	<path fill="#666666" d="M205.042,271.67v-0.928c0.709,0.375,1.304,0.562,1.782,0.562c0.25,0,0.479-0.049,0.686-0.146
		s0.371-0.262,0.493-0.492c0.122-0.229,0.183-0.721,0.183-1.473v-4.182h-1.704v-0.758h2.69v4.961c0,0.809-0.092,1.389-0.276,1.744
		c-0.184,0.354-0.442,0.627-0.774,0.816c-0.332,0.191-0.757,0.287-1.274,0.287C206.27,272.062,205.667,271.932,205.042,271.67z"/>
	<path fill="#666666" d="M211.827,271.545v-0.963c0.365,0.238,0.75,0.404,1.157,0.5c0.407,0.098,0.752,0.145,1.035,0.145
		c0.459,0,0.79-0.074,0.991-0.223c0.202-0.146,0.303-0.332,0.303-0.553c0-0.146-0.047-0.271-0.142-0.377
		c-0.094-0.104-0.329-0.232-0.703-0.385l-0.312-0.127l-0.63-0.25c-0.677-0.264-1.104-0.508-1.279-0.732
		c-0.179-0.221-0.269-0.49-0.269-0.811c0-0.449,0.173-0.818,0.521-1.107c0.347-0.291,0.91-0.436,1.689-0.436
		c0.583,0,1.136,0.086,1.657,0.254v0.826c-0.6-0.215-1.164-0.322-1.692-0.322c-0.385,0-0.686,0.066-0.902,0.201
		c-0.217,0.137-0.325,0.305-0.325,0.506c0,0.195,0.094,0.352,0.283,0.469c0.186,0.117,0.488,0.252,0.909,0.406l0.616,0.225
		c0.564,0.205,0.959,0.428,1.186,0.668c0.228,0.242,0.341,0.543,0.341,0.904c0,0.471-0.182,0.859-0.544,1.164
		s-0.943,0.457-1.741,0.457C213.278,271.984,212.562,271.838,211.827,271.545z"/>
	<path fill="#666666" d="M220.508,271.984c-0.78,0-1.405-0.273-1.873-0.818s-0.703-1.232-0.703-2.062s0.234-1.518,0.703-2.061
		c0.468-0.545,1.093-0.816,1.873-0.816c0.777,0,1.4,0.271,1.868,0.816c0.468,0.543,0.703,1.23,0.703,2.061s-0.234,1.518-0.703,2.062
		S221.285,271.984,220.508,271.984z M220.508,271.227c0.484,0,0.869-0.188,1.155-0.566c0.286-0.377,0.429-0.896,0.429-1.557
		c0-0.658-0.143-1.176-0.429-1.553c-0.286-0.379-0.671-0.566-1.155-0.566c-0.487,0-0.875,0.188-1.16,0.566
		c-0.286,0.377-0.429,0.895-0.429,1.553c0,0.66,0.143,1.18,0.429,1.557C219.633,271.039,220.021,271.227,220.508,271.227z"/>
	<path fill="#666666" d="M224.765,271.832v-5.453h0.908v1.191c0.26-0.42,0.575-0.75,0.942-0.986
		c0.368-0.238,0.736-0.357,1.103-0.357c0.322,0,0.615,0.086,0.879,0.256c0.264,0.172,0.449,0.396,0.555,0.672
		c0.105,0.277,0.158,0.82,0.158,1.631v3.047h-0.908v-3.158c0-0.525-0.025-0.871-0.075-1.039c-0.05-0.166-0.144-0.305-0.278-0.412
		s-0.282-0.16-0.441-0.16c-0.319,0-0.662,0.15-1.028,0.453s-0.668,0.682-0.906,1.139v3.178H224.765z"/>
	<path fill="#666666" d="M232.355,269.068v2.764h-0.986v-7.578h1.885c0.774,0,1.339,0.088,1.693,0.262
		c0.355,0.174,0.627,0.43,0.816,0.764c0.188,0.336,0.283,0.711,0.283,1.123c0,0.486-0.127,0.938-0.381,1.357
		s-0.608,0.744-1.062,0.969c-0.454,0.227-1.07,0.34-1.848,0.34H232.355z M232.355,268.312h0.424c0.609,0,1.062-0.08,1.357-0.238
		c0.297-0.158,0.524-0.385,0.684-0.682c0.16-0.297,0.24-0.617,0.24-0.963c0-0.438-0.143-0.783-0.428-1.037s-0.848-0.381-1.688-0.381
		h-0.59V268.312z"/>
	<path fill="#666666" d="M241.352,270.613c-0.275,0.453-0.609,0.795-0.998,1.025s-0.746,0.346-1.072,0.346
		c-0.455,0-0.865-0.197-1.229-0.592c-0.363-0.393-0.545-0.99-0.545-1.791c0-0.633,0.121-1.195,0.362-1.693
		c0.241-0.496,0.563-0.889,0.968-1.176c0.404-0.289,0.904-0.432,1.501-0.432c0.173,0,0.433,0.018,0.78,0.053
		c0.052,0.008,0.13,0.016,0.234,0.025h0.91v3.852c0,0.658,0.07,1.191,0.211,1.602h-0.947
		C241.453,271.535,241.396,271.127,241.352,270.613z M241.355,269.525v-2.342c-0.322-0.084-0.623-0.127-0.899-0.127
		c-0.562,0-1.028,0.217-1.401,0.65s-0.561,1.023-0.561,1.77c0,0.541,0.103,0.949,0.307,1.225c0.203,0.275,0.436,0.414,0.696,0.414
		c0.284,0,0.597-0.145,0.939-0.432C240.779,270.398,241.086,270.012,241.355,269.525z"/>
	<path fill="#666666" d="M246.277,271.617l-2.52-5.238h1l2.008,4.096l1.675-4.096h0.913l-2.109,5.068
		c-0.446,1.068-0.871,1.779-1.272,2.129c-0.401,0.352-0.923,0.527-1.561,0.527c-0.276,0-0.524-0.025-0.742-0.074v-0.801
		c0.251,0.078,0.489,0.117,0.718,0.117c0.293,0,0.553-0.057,0.781-0.17c0.227-0.113,0.436-0.314,0.624-0.604s0.322-0.539,0.4-0.75
		L246.277,271.617z"/>
	<path fill="#666666" d="M252.234,271.832v-7.123h-1.631v-0.758h2.539v7.125h1.703v0.756H252.234z"/>
	<path fill="#666666" d="M259.514,271.984c-0.78,0-1.404-0.273-1.873-0.818s-0.703-1.232-0.703-2.062s0.234-1.518,0.703-2.061
		c0.469-0.545,1.093-0.816,1.873-0.816c0.777,0,1.4,0.271,1.868,0.816c0.468,0.543,0.702,1.23,0.702,2.061s-0.234,1.518-0.702,2.062
		S260.291,271.984,259.514,271.984z M259.514,271.227c0.484,0,0.869-0.188,1.155-0.566c0.286-0.377,0.429-0.896,0.429-1.557
		c0-0.658-0.143-1.176-0.429-1.553c-0.286-0.379-0.671-0.566-1.155-0.566c-0.487,0-0.875,0.188-1.16,0.566
		c-0.286,0.377-0.43,0.895-0.43,1.553c0,0.66,0.144,1.18,0.43,1.557C258.639,271.039,259.026,271.227,259.514,271.227z"/>
	<path fill="#666666" d="M267.355,270.613c-0.275,0.453-0.609,0.795-0.998,1.025s-0.746,0.346-1.072,0.346
		c-0.455,0-0.865-0.197-1.229-0.592c-0.363-0.393-0.545-0.99-0.545-1.791c0-0.633,0.121-1.195,0.362-1.693
		c0.241-0.496,0.563-0.889,0.968-1.176c0.404-0.289,0.904-0.432,1.501-0.432c0.173,0,0.433,0.018,0.78,0.053
		c0.052,0.008,0.13,0.016,0.234,0.025h0.91v3.852c0,0.658,0.07,1.191,0.211,1.602h-0.947
		C267.457,271.535,267.399,271.127,267.355,270.613z M267.359,269.525v-2.342c-0.322-0.084-0.623-0.127-0.899-0.127
		c-0.562,0-1.028,0.217-1.401,0.65s-0.561,1.023-0.561,1.77c0,0.541,0.103,0.949,0.307,1.225c0.203,0.275,0.436,0.414,0.696,0.414
		c0.284,0,0.597-0.145,0.939-0.432C266.783,270.398,267.09,270.012,267.359,269.525z"/>
	<path fill="#666666" d="M273.92,270.605c-0.277,0.457-0.611,0.801-1,1.031c-0.39,0.232-0.748,0.348-1.073,0.348
		c-0.456,0-0.866-0.197-1.229-0.592c-0.363-0.393-0.545-0.99-0.545-1.791c0-0.633,0.12-1.195,0.361-1.693
		c0.241-0.496,0.564-0.889,0.968-1.176c0.404-0.289,0.905-0.432,1.501-0.432c0.173,0,0.434,0.018,0.782,0.053
		c0.052,0.008,0.13,0.016,0.235,0.025v-2.428h0.908v7.881h-0.908V270.605z M273.92,269.525v-2.342
		c-0.323-0.084-0.623-0.127-0.9-0.127c-0.561,0-1.027,0.217-1.401,0.65s-0.56,1.023-0.56,1.77c0,0.541,0.102,0.949,0.305,1.225
		c0.204,0.275,0.437,0.414,0.697,0.414c0.283,0,0.597-0.145,0.939-0.432C273.342,270.398,273.648,270.012,273.92,269.525z"/>
	<path fill="#666666" d="M281.25,273.648c-0.901-0.055-1.661-0.311-2.279-0.764c-0.619-0.455-1.113-1.066-1.482-1.838
		s-0.555-1.545-0.555-2.32c0-0.773,0.186-1.547,0.555-2.318s0.863-1.385,1.482-1.84c0.618-0.453,1.378-0.709,2.279-0.768v0.756
		c-0.681,0.062-1.268,0.291-1.758,0.688c-0.49,0.395-0.876,0.898-1.156,1.512c-0.28,0.611-0.42,1.268-0.42,1.969
		s0.14,1.357,0.42,1.969c0.28,0.613,0.666,1.115,1.156,1.51s1.077,0.623,1.758,0.689V273.648z"/>
	<path fill="#666666" d="M283.283,263.801c0.902,0.059,1.662,0.314,2.281,0.768c0.618,0.455,1.111,1.068,1.481,1.84
		s0.554,1.545,0.554,2.318c0,0.775-0.184,1.549-0.554,2.32s-0.863,1.383-1.481,1.838c-0.619,0.453-1.379,0.709-2.281,0.764v-0.756
		c0.681-0.066,1.266-0.295,1.756-0.689s0.875-0.896,1.157-1.51c0.282-0.611,0.423-1.268,0.423-1.969s-0.141-1.357-0.423-1.969
		c-0.282-0.613-0.667-1.117-1.157-1.512c-0.49-0.396-1.075-0.625-1.756-0.688V263.801z"/>
	<path fill="#666666" d="M291.088,273.951v-0.605c0.234-0.061,0.413-0.15,0.535-0.266s0.22-0.262,0.293-0.439
		s0.109-0.391,0.109-0.643c-0.303,0-0.525-0.086-0.668-0.256c-0.144-0.172-0.215-0.354-0.215-0.549c0-0.225,0.079-0.414,0.238-0.57
		c0.16-0.154,0.346-0.23,0.557-0.23c0.273,0,0.51,0.117,0.709,0.354c0.198,0.236,0.297,0.559,0.297,0.969
		c0,0.359-0.078,0.695-0.234,1.014c-0.156,0.316-0.368,0.588-0.637,0.812S291.476,273.902,291.088,273.951z M291.938,267.818
		c-0.218,0-0.404-0.078-0.561-0.234s-0.234-0.344-0.234-0.561c0-0.223,0.078-0.41,0.236-0.564s0.344-0.232,0.559-0.232
		s0.402,0.078,0.56,0.232s0.237,0.342,0.237,0.564c0,0.217-0.078,0.404-0.234,0.561S292.156,267.818,291.938,267.818z"/>
	<path fill="#666666" d="M16.797,286.545v-0.963c0.365,0.238,0.75,0.404,1.157,0.5c0.407,0.098,0.752,0.145,1.035,0.145
		c0.459,0,0.79-0.074,0.991-0.223c0.202-0.146,0.303-0.332,0.303-0.553c0-0.146-0.047-0.271-0.142-0.377
		c-0.094-0.104-0.329-0.232-0.703-0.385l-0.312-0.127l-0.63-0.25c-0.677-0.264-1.104-0.508-1.279-0.732
		c-0.179-0.221-0.269-0.49-0.269-0.811c0-0.449,0.173-0.818,0.521-1.107c0.347-0.291,0.91-0.436,1.689-0.436
		c0.583,0,1.136,0.086,1.657,0.254v0.826c-0.6-0.215-1.164-0.322-1.692-0.322c-0.385,0-0.686,0.066-0.902,0.201
		c-0.217,0.137-0.325,0.305-0.325,0.506c0,0.195,0.094,0.352,0.283,0.469c0.186,0.117,0.488,0.252,0.909,0.406l0.616,0.225
		c0.564,0.205,0.959,0.428,1.186,0.668c0.228,0.242,0.341,0.543,0.341,0.904c0,0.471-0.182,0.859-0.544,1.164
		s-0.943,0.457-1.741,0.457C18.249,286.984,17.533,286.838,16.797,286.545z"/>
	<path fill="#666666" d="M26.82,285.613c-0.276,0.453-0.609,0.795-0.999,1.025s-0.747,0.346-1.072,0.346
		c-0.456,0-0.865-0.197-1.229-0.592c-0.363-0.393-0.544-0.99-0.544-1.791c0-0.633,0.121-1.195,0.362-1.693
		c0.241-0.496,0.563-0.889,0.968-1.176c0.404-0.289,0.904-0.432,1.501-0.432c0.172,0,0.433,0.018,0.78,0.053
		c0.052,0.008,0.13,0.016,0.234,0.025h0.911v3.852c0,0.658,0.07,1.191,0.21,1.602h-0.947
		C26.921,286.535,26.863,286.127,26.82,285.613z M26.824,284.525v-2.342c-0.323-0.084-0.623-0.127-0.9-0.127
		c-0.561,0-1.028,0.217-1.401,0.65s-0.56,1.023-0.56,1.77c0,0.541,0.102,0.949,0.306,1.225s0.436,0.414,0.697,0.414
		c0.284,0,0.597-0.145,0.939-0.432C26.247,285.398,26.553,285.012,26.824,284.525z"/>
	<path fill="#666666" d="M29.736,286.832v-5.453h0.908v1.191c0.26-0.42,0.575-0.75,0.942-0.986c0.368-0.238,0.736-0.357,1.104-0.357
		c0.322,0,0.615,0.086,0.879,0.256c0.264,0.172,0.448,0.396,0.554,0.672c0.106,0.277,0.159,0.82,0.159,1.631v3.047h-0.908v-3.158
		c0-0.525-0.025-0.871-0.076-1.039c-0.05-0.166-0.143-0.305-0.278-0.412s-0.282-0.16-0.442-0.16c-0.319,0-0.662,0.15-1.028,0.453
		s-0.668,0.682-0.906,1.139v3.178H29.736z"/>
	<path fill="#666666" d="M37.765,286.832v-4.697h-1.514v-0.756h2.422v4.697h1.519v0.756H37.765z M37.619,279.408
		c0-0.205,0.07-0.357,0.209-0.457c0.14-0.102,0.271-0.15,0.394-0.15c0.126,0,0.259,0.049,0.399,0.15
		c0.139,0.1,0.209,0.252,0.209,0.457c0,0.201-0.07,0.352-0.209,0.453c-0.14,0.1-0.272,0.15-0.399,0.15
		c-0.123,0-0.254-0.051-0.394-0.15C37.688,279.76,37.619,279.609,37.619,279.408z"/>
	<path fill="#666666" d="M47.298,286.613c-0.426,0.178-0.736,0.285-0.928,0.318c-0.192,0.035-0.377,0.053-0.557,0.053
		c-0.381,0-0.729-0.074-1.045-0.221s-0.554-0.363-0.715-0.648c-0.161-0.287-0.242-0.73-0.242-1.328v-2.197H42.45v-0.758h1.362
		v-2.197h0.908v2.197h2.427v0.758H44.72v2.182c0,0.439,0.052,0.75,0.156,0.93c0.104,0.182,0.243,0.314,0.417,0.398
		c0.174,0.086,0.38,0.127,0.618,0.127c0.439,0,0.902-0.139,1.387-0.414V286.613z"/>
	<path fill="#666666" d="M50.767,286.832v-4.697h-1.514v-0.756h2.422v4.697h1.519v0.756H50.767z M50.621,279.408
		c0-0.205,0.07-0.357,0.209-0.457c0.14-0.102,0.271-0.15,0.394-0.15c0.126,0,0.259,0.049,0.399,0.15
		c0.139,0.1,0.209,0.252,0.209,0.457c0,0.201-0.07,0.352-0.209,0.453c-0.14,0.1-0.272,0.15-0.399,0.15
		c-0.123,0-0.254-0.051-0.394-0.15C50.69,279.76,50.621,279.609,50.621,279.408z"/>
	<path fill="#666666" d="M55.632,286.832v-0.834l3.343-3.863H55.71v-0.756h4.468v0.756l-3.369,3.863h3.481v0.834H55.632z"/>
	<path fill="#666666" d="M66.777,286.469c-0.726,0.344-1.413,0.516-2.061,0.516c-0.492,0-0.931-0.123-1.318-0.367
		c-0.387-0.242-0.697-0.592-0.93-1.045c-0.233-0.455-0.349-0.939-0.349-1.457c0-0.498,0.111-0.977,0.332-1.434
		c0.221-0.459,0.531-0.816,0.928-1.072c0.397-0.254,0.84-0.383,1.328-0.383c0.648,0,1.168,0.23,1.56,0.693
		c0.392,0.461,0.588,1.172,0.588,2.135v0.195h-3.76c0,0.379,0.079,0.725,0.237,1.037s0.365,0.549,0.623,0.705
		s0.55,0.234,0.879,0.234c0.586,0,1.234-0.195,1.943-0.586V286.469z M63.149,283.57h2.72v-0.131c0-0.445-0.109-0.799-0.327-1.061
		c-0.218-0.264-0.509-0.395-0.874-0.395c-0.368,0-0.686,0.133-0.955,0.4S63.256,283.049,63.149,283.57z"/>
	<path fill="#666666" d="M68.742,286.832v-7.578h1.797c0.827,0,1.441,0.145,1.843,0.432c0.402,0.289,0.704,0.725,0.906,1.307
		c0.202,0.584,0.303,1.273,0.303,2.07c0,0.756-0.106,1.418-0.32,1.99c-0.213,0.57-0.515,1.01-0.906,1.318
		c-0.391,0.307-1,0.461-1.826,0.461H68.742z M69.728,285.998h0.658c0.666,0,1.141-0.119,1.426-0.357
		c0.284-0.238,0.487-0.568,0.609-0.99c0.122-0.422,0.183-1.004,0.183-1.746c0-0.727-0.071-1.285-0.214-1.676
		s-0.348-0.691-0.614-0.902c-0.267-0.209-0.704-0.314-1.311-0.314h-0.736V285.998z"/>
	<path fill="#666666" d="M78.828,285.613c-0.276,0.453-0.609,0.795-0.999,1.025s-0.747,0.346-1.072,0.346
		c-0.456,0-0.865-0.197-1.229-0.592c-0.363-0.393-0.544-0.99-0.544-1.791c0-0.633,0.121-1.195,0.362-1.693
		c0.241-0.496,0.563-0.889,0.968-1.176c0.404-0.289,0.904-0.432,1.501-0.432c0.172,0,0.433,0.018,0.78,0.053
		c0.052,0.008,0.13,0.016,0.234,0.025h0.911v3.852c0,0.658,0.07,1.191,0.21,1.602h-0.947
		C78.929,286.535,78.871,286.127,78.828,285.613z M78.832,284.525v-2.342c-0.323-0.084-0.623-0.127-0.9-0.127
		c-0.561,0-1.028,0.217-1.401,0.65s-0.56,1.023-0.56,1.77c0,0.541,0.102,0.949,0.306,1.225s0.436,0.414,0.697,0.414
		c0.284,0,0.597-0.145,0.939-0.432C78.254,285.398,78.561,285.012,78.832,284.525z"/>
	<path fill="#666666" d="M86.304,286.613c-0.426,0.178-0.736,0.285-0.928,0.318c-0.192,0.035-0.377,0.053-0.557,0.053
		c-0.381,0-0.729-0.074-1.045-0.221s-0.554-0.363-0.715-0.648c-0.161-0.287-0.242-0.73-0.242-1.328v-2.197h-1.362v-0.758h1.362
		v-2.197h0.908v2.197h2.427v0.758h-2.427v2.182c0,0.439,0.052,0.75,0.156,0.93c0.104,0.182,0.243,0.314,0.417,0.398
		c0.174,0.086,0.38,0.127,0.618,0.127c0.439,0,0.902-0.139,1.387-0.414V286.613z"/>
	<path fill="#666666" d="M91.83,285.613c-0.276,0.453-0.609,0.795-0.999,1.025s-0.747,0.346-1.072,0.346
		c-0.456,0-0.865-0.197-1.229-0.592c-0.363-0.393-0.544-0.99-0.544-1.791c0-0.633,0.121-1.195,0.362-1.693
		c0.241-0.496,0.563-0.889,0.968-1.176c0.404-0.289,0.904-0.432,1.501-0.432c0.172,0,0.433,0.018,0.78,0.053
		c0.052,0.008,0.13,0.016,0.234,0.025h0.911v3.852c0,0.658,0.07,1.191,0.21,1.602h-0.947
		C91.931,286.535,91.873,286.127,91.83,285.613z M91.833,284.525v-2.342c-0.323-0.084-0.623-0.127-0.9-0.127
		c-0.561,0-1.028,0.217-1.401,0.65s-0.56,1.023-0.56,1.77c0,0.541,0.102,0.949,0.306,1.225s0.436,0.414,0.697,0.414
		c0.284,0,0.597-0.145,0.939-0.432C91.256,285.398,91.563,285.012,91.833,284.525z"/>
	<path fill="#666666" d="M99.223,288.648c-0.902-0.055-1.662-0.311-2.28-0.764c-0.619-0.455-1.112-1.066-1.482-1.838
		s-0.554-1.545-0.554-2.32c0-0.773,0.185-1.547,0.554-2.318s0.863-1.385,1.482-1.84c0.619-0.453,1.378-0.709,2.28-0.768v0.756
		c-0.681,0.062-1.268,0.291-1.758,0.688c-0.491,0.395-0.876,0.898-1.157,1.512c-0.28,0.611-0.42,1.268-0.42,1.969
		s0.14,1.357,0.42,1.969c0.28,0.613,0.666,1.115,1.157,1.51c0.49,0.395,1.077,0.623,1.758,0.689V288.648z"/>
	<path fill="#666666" d="M100.836,286.832v-5.453h0.796v1.25c0.25-0.531,0.484-0.896,0.701-1.1c0.216-0.201,0.436-0.303,0.657-0.303
		c0.264,0,0.476,0.104,0.637,0.311s0.242,0.5,0.242,0.881v0.293c0.107-0.332,0.237-0.602,0.388-0.809
		c0.151-0.205,0.309-0.371,0.471-0.492c0.163-0.123,0.35-0.184,0.562-0.184c0.234,0,0.435,0.1,0.601,0.299
		c0.166,0.197,0.249,0.594,0.249,1.186v4.121h-0.796v-3.725c0-0.307-0.01-0.516-0.029-0.629c-0.02-0.111-0.059-0.197-0.117-0.256
		s-0.122-0.088-0.19-0.088c-0.169,0-0.351,0.129-0.544,0.389c-0.194,0.258-0.392,0.688-0.593,1.287v3.021h-0.757v-3.721
		c0-0.48-0.047-0.764-0.142-0.85c-0.095-0.084-0.18-0.127-0.255-0.127c-0.167,0-0.345,0.145-0.536,0.436
		c-0.191,0.289-0.374,0.66-0.546,1.113v3.148H100.836z"/>
	<path fill="#666666" d="M112.284,286.469c-0.726,0.344-1.413,0.516-2.061,0.516c-0.492,0-0.931-0.123-1.318-0.367
		c-0.387-0.242-0.697-0.592-0.93-1.045c-0.233-0.455-0.349-0.939-0.349-1.457c0-0.498,0.111-0.977,0.332-1.434
		c0.221-0.459,0.531-0.816,0.928-1.072c0.397-0.254,0.84-0.383,1.328-0.383c0.648,0,1.168,0.23,1.56,0.693
		c0.392,0.461,0.588,1.172,0.588,2.135v0.195h-3.76c0,0.379,0.079,0.725,0.237,1.037s0.365,0.549,0.623,0.705
		s0.55,0.234,0.879,0.234c0.586,0,1.234-0.195,1.943-0.586V286.469z M108.656,283.57h2.72v-0.131c0-0.445-0.109-0.799-0.327-1.061
		c-0.218-0.264-0.509-0.395-0.874-0.395c-0.368,0-0.686,0.133-0.955,0.4S108.763,283.049,108.656,283.57z"/>
	<path fill="#666666" d="M114.312,286.545v-0.963c0.365,0.238,0.75,0.404,1.157,0.5c0.407,0.098,0.752,0.145,1.035,0.145
		c0.459,0,0.79-0.074,0.991-0.223c0.202-0.146,0.303-0.332,0.303-0.553c0-0.146-0.047-0.271-0.142-0.377
		c-0.094-0.104-0.329-0.232-0.703-0.385l-0.312-0.127l-0.63-0.25c-0.677-0.264-1.104-0.508-1.279-0.732
		c-0.179-0.221-0.269-0.49-0.269-0.811c0-0.449,0.173-0.818,0.521-1.107c0.347-0.291,0.91-0.436,1.689-0.436
		c0.583,0,1.136,0.086,1.657,0.254v0.826c-0.6-0.215-1.164-0.322-1.692-0.322c-0.385,0-0.686,0.066-0.902,0.201
		c-0.217,0.137-0.325,0.305-0.325,0.506c0,0.195,0.094,0.352,0.283,0.469c0.186,0.117,0.488,0.252,0.909,0.406l0.616,0.225
		c0.564,0.205,0.959,0.428,1.186,0.668c0.228,0.242,0.341,0.543,0.341,0.904c0,0.471-0.182,0.859-0.544,1.164
		s-0.943,0.457-1.741,0.457C115.764,286.984,115.048,286.838,114.312,286.545z"/>
	<path fill="#666666" d="M120.813,286.545v-0.963c0.365,0.238,0.75,0.404,1.157,0.5c0.407,0.098,0.752,0.145,1.035,0.145
		c0.459,0,0.79-0.074,0.991-0.223c0.202-0.146,0.303-0.332,0.303-0.553c0-0.146-0.047-0.271-0.142-0.377
		c-0.094-0.104-0.329-0.232-0.703-0.385l-0.312-0.127l-0.63-0.25c-0.677-0.264-1.104-0.508-1.279-0.732
		c-0.179-0.221-0.269-0.49-0.269-0.811c0-0.449,0.173-0.818,0.521-1.107c0.347-0.291,0.91-0.436,1.689-0.436
		c0.583,0,1.136,0.086,1.657,0.254v0.826c-0.6-0.215-1.164-0.322-1.692-0.322c-0.385,0-0.686,0.066-0.902,0.201
		c-0.217,0.137-0.325,0.305-0.325,0.506c0,0.195,0.094,0.352,0.283,0.469c0.186,0.117,0.488,0.252,0.909,0.406l0.616,0.225
		c0.564,0.205,0.959,0.428,1.186,0.668c0.228,0.242,0.341,0.543,0.341,0.904c0,0.471-0.182,0.859-0.544,1.164
		s-0.943,0.457-1.741,0.457C122.265,286.984,121.549,286.838,120.813,286.545z"/>
	<path fill="#666666" d="M130.835,285.613c-0.276,0.453-0.609,0.795-0.999,1.025s-0.747,0.346-1.072,0.346
		c-0.456,0-0.865-0.197-1.229-0.592c-0.363-0.393-0.544-0.99-0.544-1.791c0-0.633,0.121-1.195,0.362-1.693
		c0.241-0.496,0.563-0.889,0.968-1.176c0.404-0.289,0.904-0.432,1.501-0.432c0.172,0,0.433,0.018,0.78,0.053
		c0.052,0.008,0.13,0.016,0.234,0.025h0.911v3.852c0,0.658,0.07,1.191,0.21,1.602h-0.947
		C130.937,286.535,130.879,286.127,130.835,285.613z M130.839,284.525v-2.342c-0.323-0.084-0.623-0.127-0.9-0.127
		c-0.561,0-1.028,0.217-1.401,0.65s-0.56,1.023-0.56,1.77c0,0.541,0.102,0.949,0.306,1.225s0.436,0.414,0.697,0.414
		c0.284,0,0.597-0.145,0.939-0.432C130.262,285.398,130.569,285.012,130.839,284.525z"/>
	<path fill="#666666" d="M137.399,285.605c-0.277,0.457-0.61,0.801-1,1.031c-0.389,0.232-0.747,0.348-1.073,0.348
		c-0.457,0-0.866-0.197-1.23-0.592c-0.363-0.393-0.545-0.99-0.545-1.791c0-0.633,0.121-1.195,0.362-1.693
		c0.241-0.496,0.563-0.889,0.968-1.176c0.404-0.289,0.904-0.432,1.501-0.432c0.172,0,0.433,0.018,0.78,0.053
		c0.052,0.008,0.13,0.016,0.234,0.025h0.911v3.857c0,0.918-0.012,1.479-0.036,1.682c-0.023,0.203-0.062,0.41-0.116,0.617
		c-0.13,0.486-0.427,0.867-0.892,1.148c-0.464,0.279-1.026,0.42-1.684,0.42c-0.661,0-1.331-0.17-2.009-0.508v-0.918
		c0.257,0.176,0.574,0.33,0.951,0.465c0.376,0.137,0.741,0.203,1.093,0.203c0.277,0,0.54-0.043,0.787-0.131
		c0.248-0.088,0.448-0.215,0.602-0.381s0.257-0.359,0.313-0.58c0.055-0.219,0.083-0.512,0.083-0.875V285.605z M137.399,284.525
		v-2.342c-0.323-0.084-0.623-0.127-0.9-0.127c-0.561,0-1.028,0.217-1.401,0.65s-0.56,1.023-0.56,1.77
		c0,0.541,0.102,0.949,0.306,1.225s0.436,0.414,0.697,0.414c0.284,0,0.597-0.145,0.939-0.432
		C136.822,285.398,137.128,285.012,137.399,284.525z"/>
	<path fill="#666666" d="M144.789,286.469c-0.726,0.344-1.413,0.516-2.061,0.516c-0.492,0-0.931-0.123-1.318-0.367
		c-0.387-0.242-0.697-0.592-0.93-1.045c-0.233-0.455-0.349-0.939-0.349-1.457c0-0.498,0.111-0.977,0.332-1.434
		c0.221-0.459,0.531-0.816,0.928-1.072c0.397-0.254,0.84-0.383,1.328-0.383c0.648,0,1.168,0.23,1.56,0.693
		c0.392,0.461,0.588,1.172,0.588,2.135v0.195h-3.76c0,0.379,0.079,0.725,0.237,1.037s0.365,0.549,0.623,0.705
		s0.55,0.234,0.879,0.234c0.586,0,1.234-0.195,1.943-0.586V286.469z M141.161,283.57h2.72v-0.131c0-0.445-0.109-0.799-0.327-1.061
		c-0.218-0.264-0.509-0.395-0.874-0.395c-0.368,0-0.686,0.133-0.955,0.4S141.268,283.049,141.161,283.57z"/>
	<path fill="#666666" d="M146.763,278.801c0.902,0.059,1.662,0.314,2.28,0.768c0.619,0.455,1.112,1.068,1.482,1.84
		s0.554,1.545,0.554,2.318c0,0.775-0.185,1.549-0.554,2.32s-0.863,1.383-1.482,1.838c-0.619,0.453-1.378,0.709-2.28,0.764v-0.756
		c0.68-0.066,1.266-0.295,1.755-0.689s0.875-0.896,1.157-1.51c0.282-0.611,0.422-1.268,0.422-1.969s-0.141-1.357-0.422-1.969
		c-0.282-0.613-0.667-1.117-1.157-1.512c-0.49-0.396-1.075-0.625-1.755-0.688V278.801z"/>
	<path fill="#666666" d="M154.568,288.951v-0.605c0.234-0.061,0.413-0.15,0.535-0.266s0.22-0.262,0.293-0.439s0.11-0.391,0.11-0.643
		c-0.303,0-0.526-0.086-0.669-0.256c-0.143-0.172-0.215-0.354-0.215-0.549c0-0.225,0.08-0.414,0.239-0.57
		c0.16-0.154,0.345-0.23,0.557-0.23c0.273,0,0.509,0.117,0.708,0.354s0.298,0.559,0.298,0.969c0,0.359-0.078,0.695-0.234,1.014
		c-0.156,0.316-0.369,0.588-0.637,0.812S154.955,288.902,154.568,288.951z M155.417,282.818c-0.218,0-0.405-0.078-0.562-0.234
		s-0.234-0.344-0.234-0.561c0-0.223,0.079-0.41,0.237-0.564s0.344-0.232,0.559-0.232s0.401,0.078,0.559,0.232
		s0.237,0.342,0.237,0.564c0,0.217-0.078,0.404-0.234,0.561S155.636,282.818,155.417,282.818z"/>
	<path fill="#666666" d="M16.734,301.832v-7.881h0.908v3.619c0.26-0.42,0.575-0.75,0.942-0.986c0.368-0.238,0.736-0.357,1.104-0.357
		c0.309,0,0.592,0.08,0.847,0.236c0.255,0.158,0.434,0.35,0.535,0.574c0.082,0.174,0.137,0.355,0.166,0.549
		c0.029,0.195,0.044,0.594,0.044,1.199v3.047h-0.908v-3.158c0-0.525-0.025-0.871-0.076-1.039c-0.05-0.166-0.143-0.305-0.278-0.412
		s-0.282-0.16-0.442-0.16c-0.319,0-0.662,0.15-1.028,0.453s-0.668,0.682-0.906,1.139v3.178H16.734z"/>
	<path fill="#666666" d="M27.795,301.613c-0.426,0.178-0.736,0.285-0.928,0.318c-0.192,0.035-0.377,0.053-0.557,0.053
		c-0.381,0-0.729-0.074-1.045-0.221s-0.554-0.363-0.715-0.648c-0.161-0.287-0.242-0.73-0.242-1.328v-2.197h-1.362v-0.758h1.362
		v-2.197h0.908v2.197h2.427v0.758h-2.427v2.182c0,0.439,0.052,0.75,0.156,0.93c0.104,0.182,0.243,0.314,0.417,0.398
		c0.174,0.086,0.38,0.127,0.618,0.127c0.439,0,0.902-0.139,1.387-0.414V301.613z"/>
	<path fill="#666666" d="M34.296,301.613c-0.426,0.178-0.736,0.285-0.928,0.318c-0.192,0.035-0.377,0.053-0.557,0.053
		c-0.381,0-0.729-0.074-1.045-0.221s-0.554-0.363-0.715-0.648c-0.161-0.287-0.242-0.73-0.242-1.328v-2.197h-1.362v-0.758h1.362
		v-2.197h0.908v2.197h2.427v0.758h-2.427v2.182c0,0.439,0.052,0.75,0.156,0.93c0.104,0.182,0.243,0.314,0.417,0.398
		c0.174,0.086,0.38,0.127,0.618,0.127c0.439,0,0.902-0.139,1.387-0.414V301.613z"/>
	<path fill="#666666" d="M37.077,297.605c0.28-0.457,0.614-0.801,1.001-1.031c0.387-0.232,0.744-0.348,1.069-0.348
		c0.456,0,0.866,0.197,1.23,0.592c0.365,0.393,0.547,0.99,0.547,1.791c0,0.633-0.121,1.195-0.364,1.691
		c-0.243,0.498-0.565,0.889-0.969,1.178c-0.404,0.287-0.903,0.432-1.499,0.432c-0.169,0-0.43-0.018-0.781-0.053
		c-0.052-0.008-0.13-0.016-0.234-0.025v2.119h-0.908v-7.572h0.908V297.605z M37.077,298.686v2.342
		c0.329,0.084,0.631,0.127,0.908,0.127c0.55,0,1.013-0.217,1.389-0.648s0.564-1.021,0.564-1.771c0-0.545-0.103-0.953-0.308-1.227
		c-0.205-0.275-0.438-0.412-0.698-0.412c-0.283,0-0.595,0.145-0.935,0.432C37.657,297.812,37.35,298.199,37.077,298.686z"/>
	<path fill="#666666" d="M44.979,297.818c-0.218,0-0.405-0.078-0.562-0.234s-0.234-0.344-0.234-0.561
		c0-0.223,0.079-0.41,0.237-0.564s0.344-0.232,0.559-0.232s0.401,0.078,0.559,0.232s0.237,0.342,0.237,0.564
		c0,0.217-0.078,0.404-0.234,0.561S45.197,297.818,44.979,297.818z M44.979,302.062c-0.218,0-0.405-0.078-0.562-0.234
		s-0.234-0.344-0.234-0.562c0-0.221,0.079-0.408,0.237-0.564c0.158-0.154,0.344-0.23,0.559-0.23s0.401,0.076,0.559,0.23
		c0.158,0.156,0.237,0.344,0.237,0.564c0,0.219-0.078,0.406-0.234,0.562S45.197,302.062,44.979,302.062z"/>
	<path fill="#666666" d="M50.196,298.609v3.223h-0.986v-7.578h2.024c0.66,0,1.146,0.068,1.458,0.203s0.554,0.338,0.724,0.611
		c0.171,0.273,0.256,0.568,0.256,0.883c0,0.293-0.057,0.588-0.17,0.883c-0.114,0.297-0.271,0.561-0.47,0.793
		s-0.488,0.453-0.865,0.662l2.191,3.543h-1.175l-2.006-3.223H50.196z M50.196,297.854h1.377c0.31-0.17,0.54-0.344,0.691-0.52
		c0.151-0.176,0.266-0.363,0.344-0.562s0.117-0.396,0.117-0.596c0-0.355-0.129-0.639-0.387-0.85
		c-0.258-0.209-0.727-0.314-1.406-0.314h-0.736V297.854z"/>
	<path fill="#666666" d="M60.276,301.469c-0.726,0.344-1.413,0.516-2.061,0.516c-0.492,0-0.931-0.123-1.318-0.367
		c-0.387-0.242-0.697-0.592-0.93-1.045c-0.233-0.455-0.349-0.939-0.349-1.457c0-0.498,0.111-0.977,0.332-1.434
		c0.221-0.459,0.531-0.816,0.928-1.072c0.397-0.254,0.84-0.383,1.328-0.383c0.648,0,1.168,0.23,1.56,0.693
		c0.392,0.461,0.588,1.172,0.588,2.135v0.195h-3.76c0,0.379,0.079,0.725,0.237,1.037s0.365,0.549,0.623,0.705
		s0.55,0.234,0.879,0.234c0.586,0,1.234-0.195,1.943-0.586V301.469z M56.648,298.57h2.72v-0.131c0-0.445-0.109-0.799-0.327-1.061
		c-0.218-0.264-0.509-0.395-0.874-0.395c-0.368,0-0.686,0.133-0.955,0.4S56.755,298.049,56.648,298.57z"/>
	<path fill="#666666" d="M62.304,301.545v-0.963c0.365,0.238,0.75,0.404,1.157,0.5c0.407,0.098,0.752,0.145,1.035,0.145
		c0.459,0,0.79-0.074,0.991-0.223c0.202-0.146,0.303-0.332,0.303-0.553c0-0.146-0.047-0.271-0.142-0.377
		c-0.094-0.104-0.329-0.232-0.703-0.385l-0.312-0.127l-0.63-0.25c-0.677-0.264-1.104-0.508-1.279-0.732
		c-0.179-0.221-0.269-0.49-0.269-0.811c0-0.449,0.173-0.818,0.521-1.107c0.347-0.291,0.91-0.436,1.689-0.436
		c0.583,0,1.136,0.086,1.657,0.254v0.826c-0.6-0.215-1.164-0.322-1.692-0.322c-0.385,0-0.686,0.066-0.902,0.201
		c-0.217,0.137-0.325,0.305-0.325,0.506c0,0.195,0.094,0.352,0.283,0.469c0.186,0.117,0.488,0.252,0.909,0.406l0.616,0.225
		c0.564,0.205,0.959,0.428,1.186,0.668c0.228,0.242,0.341,0.543,0.341,0.904c0,0.471-0.182,0.859-0.544,1.164
		s-0.943,0.457-1.741,0.457C63.756,301.984,63.04,301.838,62.304,301.545z"/>
	<path fill="#666666" d="M69.582,297.605c0.28-0.457,0.614-0.801,1.001-1.031c0.387-0.232,0.744-0.348,1.069-0.348
		c0.456,0,0.866,0.197,1.23,0.592c0.365,0.393,0.547,0.99,0.547,1.791c0,0.633-0.121,1.195-0.364,1.691
		c-0.243,0.498-0.565,0.889-0.969,1.178c-0.404,0.287-0.903,0.432-1.499,0.432c-0.169,0-0.43-0.018-0.781-0.053
		c-0.052-0.008-0.13-0.016-0.234-0.025v2.119h-0.908v-7.572h0.908V297.605z M69.582,298.686v2.342
		c0.329,0.084,0.631,0.127,0.908,0.127c0.55,0,1.013-0.217,1.389-0.648s0.564-1.021,0.564-1.771c0-0.545-0.103-0.953-0.308-1.227
		c-0.205-0.275-0.438-0.412-0.698-0.412c-0.283,0-0.595,0.145-0.935,0.432C70.162,297.812,69.855,298.199,69.582,298.686z"/>
	<path fill="#666666" d="M77.486,301.984c-0.78,0-1.405-0.273-1.873-0.818s-0.703-1.232-0.703-2.062s0.234-1.518,0.703-2.061
		c0.468-0.545,1.093-0.816,1.873-0.816c0.777,0,1.4,0.271,1.868,0.816c0.468,0.543,0.703,1.23,0.703,2.061s-0.234,1.518-0.703,2.062
		S78.264,301.984,77.486,301.984z M77.486,301.227c0.484,0,0.869-0.188,1.155-0.566c0.286-0.377,0.429-0.896,0.429-1.557
		c0-0.658-0.143-1.176-0.429-1.553c-0.286-0.379-0.671-0.566-1.155-0.566c-0.487,0-0.875,0.188-1.16,0.566
		c-0.286,0.377-0.429,0.895-0.429,1.553c0,0.66,0.143,1.18,0.429,1.557C76.612,301.039,76.999,301.227,77.486,301.227z"/>
	<path fill="#666666" d="M81.744,301.832v-5.453h0.908v1.191c0.26-0.42,0.575-0.75,0.942-0.986c0.368-0.238,0.736-0.357,1.104-0.357
		c0.322,0,0.615,0.086,0.879,0.256c0.264,0.172,0.448,0.396,0.554,0.672c0.106,0.277,0.159,0.82,0.159,1.631v3.047h-0.908v-3.158
		c0-0.525-0.025-0.871-0.076-1.039c-0.05-0.166-0.143-0.305-0.278-0.412s-0.282-0.16-0.442-0.16c-0.319,0-0.662,0.15-1.028,0.453
		s-0.668,0.682-0.906,1.139v3.178H81.744z"/>
	<path fill="#666666" d="M88.308,301.545v-0.963c0.365,0.238,0.75,0.404,1.157,0.5c0.407,0.098,0.752,0.145,1.035,0.145
		c0.459,0,0.79-0.074,0.991-0.223c0.202-0.146,0.303-0.332,0.303-0.553c0-0.146-0.047-0.271-0.142-0.377
		c-0.094-0.104-0.329-0.232-0.703-0.385l-0.312-0.127l-0.63-0.25c-0.677-0.264-1.104-0.508-1.279-0.732
		c-0.179-0.221-0.269-0.49-0.269-0.811c0-0.449,0.173-0.818,0.521-1.107c0.347-0.291,0.91-0.436,1.689-0.436
		c0.583,0,1.136,0.086,1.657,0.254v0.826c-0.6-0.215-1.164-0.322-1.692-0.322c-0.385,0-0.686,0.066-0.902,0.201
		c-0.217,0.137-0.325,0.305-0.325,0.506c0,0.195,0.094,0.352,0.283,0.469c0.186,0.117,0.488,0.252,0.909,0.406l0.616,0.225
		c0.564,0.205,0.959,0.428,1.186,0.668c0.228,0.242,0.341,0.543,0.341,0.904c0,0.471-0.182,0.859-0.544,1.164
		s-0.943,0.457-1.741,0.457C89.76,301.984,89.044,301.838,88.308,301.545z"/>
	<path fill="#666666" d="M99.282,301.469c-0.726,0.344-1.413,0.516-2.061,0.516c-0.492,0-0.931-0.123-1.318-0.367
		c-0.387-0.242-0.697-0.592-0.93-1.045c-0.233-0.455-0.349-0.939-0.349-1.457c0-0.498,0.111-0.977,0.332-1.434
		c0.221-0.459,0.531-0.816,0.928-1.072c0.397-0.254,0.84-0.383,1.328-0.383c0.648,0,1.168,0.23,1.56,0.693
		c0.392,0.461,0.588,1.172,0.588,2.135v0.195H95.6c0,0.379,0.079,0.725,0.237,1.037s0.365,0.549,0.623,0.705s0.55,0.234,0.879,0.234
		c0.586,0,1.234-0.195,1.943-0.586V301.469z M95.654,298.57h2.72v-0.131c0-0.445-0.109-0.799-0.327-1.061
		c-0.218-0.264-0.509-0.395-0.874-0.395c-0.368,0-0.686,0.133-0.955,0.4S95.761,298.049,95.654,298.57z"/>
	<path fill="#666666" d="M103.092,302.062v-8.033h0.796v8.033H103.092z"/>
	<path fill="#0071BC" d="M112.284,301.469c-0.726,0.344-1.413,0.516-2.061,0.516c-0.492,0-0.931-0.123-1.318-0.367
		c-0.387-0.242-0.697-0.592-0.93-1.045c-0.233-0.455-0.349-0.939-0.349-1.457c0-0.498,0.111-0.977,0.332-1.434
		c0.221-0.459,0.531-0.816,0.928-1.072c0.397-0.254,0.84-0.383,1.328-0.383c0.648,0,1.168,0.23,1.56,0.693
		c0.392,0.461,0.588,1.172,0.588,2.135v0.195h-3.76c0,0.379,0.079,0.725,0.237,1.037s0.365,0.549,0.623,0.705
		s0.55,0.234,0.879,0.234c0.586,0,1.234-0.195,1.943-0.586V301.469z M108.656,298.57h2.72v-0.131c0-0.445-0.109-0.799-0.327-1.061
		c-0.218-0.264-0.509-0.395-0.874-0.395c-0.368,0-0.686,0.133-0.955,0.4S108.763,298.049,108.656,298.57z"/>
	<path fill="#0071BC" d="M114.712,301.832v-5.453h0.908v1.191c0.283-0.449,0.608-0.785,0.974-1.01
		c0.366-0.223,0.774-0.334,1.223-0.334c0.329,0,0.658,0.051,0.986,0.152v1.967h-0.874v-1.244c-0.153-0.027-0.273-0.039-0.361-0.039
		c-0.338,0-0.67,0.133-0.996,0.4c-0.326,0.266-0.643,0.666-0.952,1.201v3.168H114.712z"/>
	<path fill="#0071BC" d="M121.213,301.832v-5.453h0.908v1.191c0.283-0.449,0.608-0.785,0.974-1.01
		c0.366-0.223,0.774-0.334,1.223-0.334c0.329,0,0.658,0.051,0.986,0.152v1.967h-0.874v-1.244c-0.153-0.027-0.273-0.039-0.361-0.039
		c-0.338,0-0.67,0.133-0.996,0.4c-0.326,0.266-0.643,0.666-0.952,1.201v3.168H121.213z"/>
	<path fill="#0071BC" d="M129.494,301.984c-0.78,0-1.405-0.273-1.873-0.818s-0.703-1.232-0.703-2.062s0.234-1.518,0.703-2.061
		c0.468-0.545,1.093-0.816,1.873-0.816c0.777,0,1.4,0.271,1.868,0.816c0.468,0.543,0.703,1.23,0.703,2.061s-0.234,1.518-0.703,2.062
		S130.271,301.984,129.494,301.984z M129.494,301.227c0.484,0,0.869-0.188,1.155-0.566c0.286-0.377,0.429-0.896,0.429-1.557
		c0-0.658-0.143-1.176-0.429-1.553c-0.286-0.379-0.671-0.566-1.155-0.566c-0.487,0-0.875,0.188-1.16,0.566
		c-0.286,0.377-0.429,0.895-0.429,1.553c0,0.66,0.143,1.18,0.429,1.557C128.62,301.039,129.007,301.227,129.494,301.227z"/>
	<path fill="#0071BC" d="M134.215,301.832v-5.453h0.908v1.191c0.283-0.449,0.608-0.785,0.974-1.01
		c0.366-0.223,0.774-0.334,1.223-0.334c0.329,0,0.658,0.051,0.986,0.152v1.967h-0.874v-1.244c-0.153-0.027-0.273-0.039-0.361-0.039
		c-0.338,0-0.67,0.133-0.996,0.4c-0.326,0.266-0.643,0.666-0.952,1.201v3.168H134.215z"/>
	<path fill="#666666" d="M147.217,301.832v-5.453h0.908v1.191c0.283-0.449,0.608-0.785,0.974-1.01
		c0.366-0.223,0.774-0.334,1.223-0.334c0.329,0,0.658,0.051,0.986,0.152v1.967h-0.874v-1.244c-0.153-0.027-0.273-0.039-0.361-0.039
		c-0.338,0-0.67,0.133-0.996,0.4c-0.326,0.266-0.643,0.666-0.952,1.201v3.168H147.217z"/>
	<path fill="#666666" d="M157.791,301.469c-0.726,0.344-1.413,0.516-2.061,0.516c-0.492,0-0.931-0.123-1.318-0.367
		c-0.387-0.242-0.697-0.592-0.93-1.045c-0.233-0.455-0.349-0.939-0.349-1.457c0-0.498,0.111-0.977,0.332-1.434
		c0.221-0.459,0.531-0.816,0.928-1.072c0.397-0.254,0.84-0.383,1.328-0.383c0.648,0,1.168,0.23,1.56,0.693
		c0.392,0.461,0.588,1.172,0.588,2.135v0.195h-3.76c0,0.379,0.079,0.725,0.237,1.037s0.365,0.549,0.623,0.705
		s0.55,0.234,0.879,0.234c0.586,0,1.234-0.195,1.943-0.586V301.469z M154.163,298.57h2.72v-0.131c0-0.445-0.109-0.799-0.327-1.061
		c-0.218-0.264-0.509-0.395-0.874-0.395c-0.368,0-0.686,0.133-0.955,0.4S154.27,298.049,154.163,298.57z"/>
	<path fill="#666666" d="M159.819,301.545v-0.963c0.365,0.238,0.75,0.404,1.157,0.5c0.407,0.098,0.752,0.145,1.035,0.145
		c0.459,0,0.79-0.074,0.991-0.223c0.202-0.146,0.303-0.332,0.303-0.553c0-0.146-0.047-0.271-0.142-0.377
		c-0.094-0.104-0.329-0.232-0.703-0.385l-0.312-0.127l-0.63-0.25c-0.677-0.264-1.104-0.508-1.279-0.732
		c-0.179-0.221-0.269-0.49-0.269-0.811c0-0.449,0.173-0.818,0.521-1.107c0.347-0.291,0.91-0.436,1.689-0.436
		c0.583,0,1.136,0.086,1.657,0.254v0.826c-0.6-0.215-1.164-0.322-1.692-0.322c-0.385,0-0.686,0.066-0.902,0.201
		c-0.217,0.137-0.325,0.305-0.325,0.506c0,0.195,0.094,0.352,0.283,0.469c0.186,0.117,0.488,0.252,0.909,0.406l0.616,0.225
		c0.564,0.205,0.959,0.428,1.186,0.668c0.228,0.242,0.341,0.543,0.341,0.904c0,0.471-0.182,0.859-0.544,1.164
		s-0.943,0.457-1.741,0.457C161.271,301.984,160.555,301.838,159.819,301.545z"/>
	<path fill="#666666" d="M177.65,297.971v0.756h-5.303v-0.756H177.65z M177.65,299.674v0.758h-5.303v-0.758H177.65z"/>
	<path fill="#666666" d="M186.599,297.605c0.28-0.457,0.614-0.801,1.001-1.031c0.387-0.232,0.744-0.348,1.069-0.348
		c0.456,0,0.866,0.197,1.23,0.592c0.365,0.393,0.547,0.99,0.547,1.791c0,0.633-0.121,1.195-0.364,1.691
		c-0.243,0.498-0.565,0.889-0.969,1.178c-0.404,0.287-0.903,0.432-1.499,0.432c-0.169,0-0.43-0.018-0.781-0.053
		c-0.052-0.008-0.13-0.016-0.234-0.025h-0.908v-7.881h0.908V297.605z M186.599,298.686v2.342c0.329,0.084,0.631,0.127,0.908,0.127
		c0.55,0,1.013-0.217,1.389-0.648s0.564-1.021,0.564-1.771c0-0.545-0.103-0.953-0.308-1.227c-0.205-0.275-0.438-0.412-0.698-0.412
		c-0.283,0-0.595,0.145-0.935,0.432C187.179,297.812,186.873,298.199,186.599,298.686z"/>
	<path fill="#666666" d="M196.796,301.469c-0.726,0.344-1.413,0.516-2.061,0.516c-0.492,0-0.931-0.123-1.318-0.367
		c-0.387-0.242-0.697-0.592-0.93-1.045c-0.233-0.455-0.349-0.939-0.349-1.457c0-0.498,0.111-0.977,0.332-1.434
		c0.221-0.459,0.531-0.816,0.928-1.072c0.397-0.254,0.84-0.383,1.328-0.383c0.648,0,1.168,0.23,1.56,0.693
		c0.392,0.461,0.588,1.172,0.588,2.135v0.195h-3.76c0,0.379,0.079,0.725,0.237,1.037s0.365,0.549,0.623,0.705
		s0.55,0.234,0.879,0.234c0.586,0,1.234-0.195,1.943-0.586V301.469z M193.168,298.57h2.72v-0.131c0-0.445-0.109-0.799-0.327-1.061
		c-0.218-0.264-0.509-0.395-0.874-0.395c-0.368,0-0.686,0.133-0.955,0.4S193.276,298.049,193.168,298.57z"/>
	<path fill="#666666" d="M203.351,301.676c-0.609,0.205-1.188,0.309-1.738,0.309c-0.547,0-1.033-0.127-1.458-0.379
		s-0.756-0.594-0.994-1.025s-0.356-0.922-0.356-1.473c0-0.826,0.27-1.514,0.808-2.061s1.189-0.82,1.951-0.82
		c0.563,0,1.159,0.105,1.787,0.318v0.873c-0.635-0.289-1.203-0.434-1.704-0.434c-0.332,0-0.645,0.082-0.938,0.246
		s-0.519,0.42-0.679,0.77c-0.16,0.348-0.239,0.705-0.239,1.074c0,0.49,0.154,0.959,0.461,1.406c0.308,0.445,0.79,0.668,1.448,0.668
		c0.199,0,0.394-0.014,0.586-0.041s0.547-0.129,1.064-0.305V301.676z"/>
	<path fill="#666666" d="M205.506,301.832v-7.881h0.908v4.951l2.622-2.523h1.202l-2.597,2.5l2.674,2.953h-1.25l-2.651-2.93v2.93
		H205.506z"/>
	<path fill="#666666" d="M216.299,301.469c-0.726,0.344-1.413,0.516-2.061,0.516c-0.492,0-0.931-0.123-1.318-0.367
		c-0.387-0.242-0.697-0.592-0.93-1.045c-0.233-0.455-0.349-0.939-0.349-1.457c0-0.498,0.111-0.977,0.332-1.434
		c0.221-0.459,0.531-0.816,0.928-1.072c0.397-0.254,0.84-0.383,1.328-0.383c0.648,0,1.168,0.23,1.56,0.693
		c0.392,0.461,0.588,1.172,0.588,2.135v0.195h-3.76c0,0.379,0.079,0.725,0.237,1.037s0.365,0.549,0.623,0.705
		s0.55,0.234,0.879,0.234c0.586,0,1.234-0.195,1.943-0.586V301.469z M212.671,298.57h2.72v-0.131c0-0.445-0.109-0.799-0.327-1.061
		c-0.218-0.264-0.509-0.395-0.874-0.395c-0.368,0-0.686,0.133-0.955,0.4S212.779,298.049,212.671,298.57z"/>
	<path fill="#666666" d="M218.264,301.832v-5.453h0.908v1.191c0.26-0.42,0.575-0.75,0.942-0.986
		c0.368-0.238,0.736-0.357,1.104-0.357c0.322,0,0.615,0.086,0.879,0.256c0.264,0.172,0.448,0.396,0.554,0.672
		c0.106,0.277,0.159,0.82,0.159,1.631v3.047h-0.908v-3.158c0-0.525-0.025-0.871-0.076-1.039c-0.05-0.166-0.143-0.305-0.278-0.412
		s-0.282-0.16-0.442-0.16c-0.319,0-0.662,0.15-1.028,0.453s-0.668,0.682-0.906,1.139v3.178H218.264z"/>
	<path fill="#666666" d="M228.412,300.605c-0.277,0.457-0.609,0.801-1,1.031c-0.389,0.232-0.747,0.348-1.072,0.348
		c-0.457,0-0.866-0.197-1.23-0.592c-0.363-0.393-0.545-0.99-0.545-1.791c0-0.633,0.121-1.195,0.362-1.693
		c0.241-0.496,0.564-0.889,0.968-1.176c0.404-0.289,0.905-0.432,1.501-0.432c0.173,0,0.434,0.018,0.782,0.053
		c0.053,0.008,0.131,0.016,0.234,0.025v-2.428h0.908v7.881h-0.908V300.605z M228.412,299.525v-2.342
		c-0.322-0.084-0.623-0.127-0.899-0.127c-0.562,0-1.028,0.217-1.401,0.65s-0.56,1.023-0.56,1.77c0,0.541,0.102,0.949,0.306,1.225
		s0.436,0.414,0.697,0.414c0.284,0,0.597-0.145,0.939-0.432C227.836,300.398,228.143,300.012,228.412,299.525z"/>
	<path fill="#666666" d="M235.592,300.998v0.834H231.5v-7.578h4.02v0.762h-3.033v2.574h2.73v0.756h-2.73v2.652H235.592z"/>
	<path fill="#666666" d="M238.855,299.068v2.764h-0.986v-7.578h1.885c0.775,0,1.34,0.088,1.695,0.262
		c0.354,0.174,0.626,0.43,0.814,0.764c0.189,0.336,0.283,0.711,0.283,1.123c0,0.486-0.127,0.938-0.381,1.357
		s-0.607,0.744-1.062,0.969c-0.454,0.227-1.07,0.34-1.849,0.34H238.855z M238.855,298.312h0.426c0.608,0,1.061-0.08,1.357-0.238
		c0.296-0.158,0.523-0.385,0.684-0.682c0.159-0.297,0.238-0.617,0.238-0.963c0-0.438-0.143-0.783-0.427-1.037
		s-0.847-0.381-1.687-0.381h-0.592V298.312z"/>
	<path fill="#666666" d="M244.619,299.143v-0.758h3.789v0.758H244.619z"/>
	<path fill="#666666" d="M255.662,299.178l-5.303,2.654v-0.844l3.624-1.805l-3.624-1.824v-0.834L255.662,299.178z"/>
	<path fill="#666666" d="M258.109,297.605c0.28-0.457,0.614-0.801,1.002-1.031c0.387-0.232,0.743-0.348,1.068-0.348
		c0.456,0,0.866,0.197,1.23,0.592c0.365,0.393,0.547,0.99,0.547,1.791c0,0.633-0.121,1.195-0.363,1.691
		c-0.242,0.498-0.565,0.889-0.969,1.178c-0.404,0.287-0.904,0.432-1.5,0.432c-0.169,0-0.43-0.018-0.781-0.053
		c-0.052-0.008-0.13-0.016-0.234-0.025v2.119h-0.908v-7.572h0.908V297.605z M258.109,298.686v2.342
		c0.329,0.084,0.632,0.127,0.908,0.127c0.551,0,1.014-0.217,1.39-0.648s0.563-1.021,0.563-1.771c0-0.545-0.102-0.953-0.307-1.227
		c-0.205-0.275-0.438-0.412-0.699-0.412c-0.283,0-0.594,0.145-0.935,0.432C258.689,297.812,258.383,298.199,258.109,298.686z"/>
	<path fill="#666666" d="M266.015,301.984c-0.78,0-1.405-0.273-1.873-0.818s-0.702-1.232-0.702-2.062s0.234-1.518,0.702-2.061
		c0.468-0.545,1.093-0.816,1.873-0.816c0.777,0,1.399,0.271,1.868,0.816c0.469,0.543,0.703,1.23,0.703,2.061
		s-0.234,1.518-0.703,2.062S266.792,301.984,266.015,301.984z M266.015,301.227c0.484,0,0.869-0.188,1.155-0.566
		c0.286-0.377,0.43-0.896,0.43-1.557c0-0.658-0.144-1.176-0.43-1.553c-0.286-0.379-0.671-0.566-1.155-0.566
		c-0.487,0-0.874,0.188-1.16,0.566c-0.286,0.377-0.429,0.895-0.429,1.553c0,0.66,0.143,1.18,0.429,1.557
		C265.141,301.039,265.527,301.227,266.015,301.227z"/>
	<path fill="#666666" d="M270.336,301.545v-0.963c0.364,0.238,0.75,0.404,1.156,0.5c0.407,0.098,0.752,0.145,1.035,0.145
		c0.459,0,0.79-0.074,0.992-0.223c0.201-0.146,0.303-0.332,0.303-0.553c0-0.146-0.048-0.271-0.143-0.377
		c-0.094-0.104-0.328-0.232-0.703-0.385l-0.312-0.127l-0.629-0.25c-0.678-0.264-1.104-0.508-1.279-0.732
		c-0.18-0.221-0.27-0.49-0.27-0.811c0-0.449,0.174-0.818,0.521-1.107c0.347-0.291,0.91-0.436,1.689-0.436
		c0.582,0,1.135,0.086,1.656,0.254v0.826c-0.6-0.215-1.164-0.322-1.691-0.322c-0.385,0-0.686,0.066-0.902,0.201
		c-0.217,0.137-0.326,0.305-0.326,0.506c0,0.195,0.095,0.352,0.283,0.469c0.186,0.117,0.488,0.252,0.91,0.406l0.615,0.225
		c0.564,0.205,0.959,0.428,1.186,0.668c0.229,0.242,0.342,0.543,0.342,0.904c0,0.471-0.182,0.859-0.545,1.164
		s-0.943,0.457-1.74,0.457C271.787,301.984,271.071,301.838,270.336,301.545z"/>
	<path fill="#666666" d="M281.334,301.613c-0.427,0.178-0.736,0.285-0.928,0.318c-0.192,0.035-0.378,0.053-0.557,0.053
		c-0.381,0-0.729-0.074-1.045-0.221c-0.316-0.146-0.555-0.363-0.716-0.648c-0.161-0.287-0.241-0.73-0.241-1.328v-2.197h-1.363
		v-0.758h1.363v-2.197h0.908v2.197h2.426v0.758h-2.426v2.182c0,0.439,0.052,0.75,0.156,0.93c0.104,0.182,0.242,0.314,0.417,0.398
		c0.175,0.086,0.38,0.127,0.618,0.127c0.439,0,0.901-0.139,1.387-0.414V301.613z"/>
	<path fill="#666666" d="M287.752,303.648c-0.902-0.055-1.662-0.311-2.281-0.764c-0.618-0.455-1.111-1.066-1.481-1.838
		s-0.554-1.545-0.554-2.32c0-0.773,0.184-1.547,0.554-2.318s0.863-1.385,1.481-1.84c0.619-0.453,1.379-0.709,2.281-0.768v0.756
		c-0.682,0.062-1.268,0.291-1.758,0.688c-0.491,0.395-0.877,0.898-1.157,1.512c-0.28,0.611-0.421,1.268-0.421,1.969
		s0.141,1.357,0.421,1.969c0.28,0.613,0.666,1.115,1.157,1.51c0.49,0.395,1.076,0.623,1.758,0.689V303.648z"/>
	<path fill="#666666" d="M291.293,296.682h-0.629l-0.312-2.73h1.221L291.293,296.682z M293.398,296.682h-0.621l-0.277-2.73h1.191
		L293.398,296.682z"/>
	<path fill="#666666" d="M296.574,302.062h-0.894l4.815-8.033h0.865L296.574,302.062z"/>
	<path fill="#666666" d="M304.295,296.682h-0.629l-0.312-2.73h1.221L304.295,296.682z M306.4,296.682h-0.621l-0.277-2.73h1.191
		L306.4,296.682z"/>
	<path fill="#666666" d="M310.592,303.951v-0.605c0.234-0.061,0.412-0.15,0.534-0.266s0.22-0.262,0.293-0.439s0.11-0.391,0.11-0.643
		c-0.303,0-0.526-0.086-0.67-0.256c-0.143-0.172-0.215-0.354-0.215-0.549c0-0.225,0.08-0.414,0.24-0.57
		c0.159-0.154,0.345-0.23,0.557-0.23c0.273,0,0.509,0.117,0.707,0.354c0.199,0.236,0.299,0.559,0.299,0.969
		c0,0.359-0.078,0.695-0.234,1.014c-0.156,0.316-0.369,0.588-0.638,0.812S310.979,303.902,310.592,303.951z"/>
	<path fill="#0071BC" d="M326.768,296.379v5.453h-0.908v-1.195c-0.293,0.449-0.619,0.785-0.977,1.01
		c-0.358,0.225-0.717,0.338-1.074,0.338c-0.319,0-0.611-0.086-0.877-0.258c-0.266-0.17-0.45-0.395-0.555-0.674
		c-0.104-0.277-0.156-0.82-0.156-1.627v-3.047h0.908v3.158c0,0.525,0.025,0.871,0.076,1.037c0.051,0.168,0.143,0.307,0.278,0.414
		s0.28,0.16,0.437,0.16c0.319,0,0.662-0.15,1.028-0.451s0.67-0.682,0.911-1.141v-3.178H326.768z"/>
	<path fill="#0071BC" d="M328.781,301.832v-5.453h0.908v1.191c0.26-0.42,0.574-0.75,0.941-0.986
		c0.369-0.238,0.736-0.357,1.104-0.357c0.322,0,0.615,0.086,0.879,0.256c0.264,0.172,0.449,0.396,0.555,0.672
		c0.105,0.277,0.158,0.82,0.158,1.631v3.047h-0.908v-3.158c0-0.525-0.025-0.871-0.076-1.039c-0.049-0.166-0.143-0.305-0.277-0.412
		s-0.283-0.16-0.441-0.16c-0.32,0-0.662,0.15-1.029,0.453c-0.365,0.303-0.668,0.682-0.904,1.139v3.178H328.781z"/>
	<path fill="#0071BC" d="M339.842,301.613c-0.426,0.178-0.734,0.285-0.928,0.318c-0.191,0.035-0.377,0.053-0.557,0.053
		c-0.381,0-0.729-0.074-1.045-0.221c-0.314-0.146-0.553-0.363-0.715-0.648c-0.16-0.287-0.242-0.73-0.242-1.328v-2.197h-1.361v-0.758
		h1.361v-2.197h0.908v2.197h2.428v0.758h-2.428v2.182c0,0.439,0.053,0.75,0.156,0.93c0.105,0.182,0.244,0.314,0.418,0.398
		c0.174,0.086,0.381,0.127,0.617,0.127c0.439,0,0.902-0.139,1.387-0.414V301.613z"/>
	<path fill="#0071BC" d="M345.367,300.613c-0.275,0.453-0.609,0.795-0.998,1.025s-0.746,0.346-1.072,0.346
		c-0.455,0-0.865-0.197-1.229-0.592c-0.363-0.393-0.545-0.99-0.545-1.791c0-0.633,0.121-1.195,0.361-1.693
		c0.242-0.496,0.564-0.889,0.969-1.176c0.404-0.289,0.904-0.432,1.5-0.432c0.174,0,0.434,0.018,0.781,0.053
		c0.053,0.008,0.131,0.016,0.234,0.025h0.91v3.852c0,0.658,0.07,1.191,0.211,1.602h-0.947
		C345.469,301.535,345.41,301.127,345.367,300.613z M345.371,299.525v-2.342c-0.322-0.084-0.623-0.127-0.9-0.127
		c-0.561,0-1.027,0.217-1.4,0.65s-0.561,1.023-0.561,1.77c0,0.541,0.102,0.949,0.307,1.225c0.203,0.275,0.436,0.414,0.697,0.414
		c0.283,0,0.596-0.145,0.938-0.432C344.795,300.398,345.102,300.012,345.371,299.525z"/>
	<path fill="#0071BC" d="M349.812,301.832v-4.697h-1.514v-0.756h2.422v4.697h1.518v0.756H349.812z M349.666,294.408
		c0-0.205,0.068-0.357,0.209-0.457c0.139-0.102,0.27-0.15,0.395-0.15s0.258,0.049,0.398,0.15c0.139,0.1,0.209,0.252,0.209,0.457
		c0,0.201-0.07,0.352-0.209,0.453c-0.141,0.1-0.273,0.15-0.398,0.15s-0.256-0.051-0.395-0.15
		C349.734,294.76,349.666,294.609,349.666,294.408z"/>
	<path fill="#0071BC" d="M354.785,301.832v-5.453h0.908v1.191c0.26-0.42,0.574-0.75,0.941-0.986
		c0.369-0.238,0.736-0.357,1.104-0.357c0.322,0,0.615,0.086,0.879,0.256c0.264,0.172,0.449,0.396,0.555,0.672
		c0.105,0.277,0.158,0.82,0.158,1.631v3.047h-0.908v-3.158c0-0.525-0.025-0.871-0.076-1.039c-0.049-0.166-0.143-0.305-0.277-0.412
		s-0.283-0.16-0.441-0.16c-0.32,0-0.662,0.15-1.029,0.453c-0.365,0.303-0.668,0.682-0.904,1.139v3.178H354.785z"/>
	<path fill="#0071BC" d="M365.846,301.613c-0.426,0.178-0.734,0.285-0.928,0.318c-0.191,0.035-0.377,0.053-0.557,0.053
		c-0.381,0-0.729-0.074-1.045-0.221c-0.314-0.146-0.553-0.363-0.715-0.648c-0.16-0.287-0.242-0.73-0.242-1.328v-2.197h-1.361v-0.758
		h1.361v-2.197h0.908v2.197h2.428v0.758h-2.428v2.182c0,0.439,0.053,0.75,0.156,0.93c0.105,0.182,0.244,0.314,0.418,0.398
		c0.174,0.086,0.381,0.127,0.617,0.127c0.439,0,0.902-0.139,1.387-0.414V301.613z"/>
	<path fill="#666666" d="M373.877,301.832v-5.453h0.797v1.25c0.25-0.531,0.484-0.896,0.701-1.1c0.215-0.201,0.434-0.303,0.656-0.303
		c0.264,0,0.477,0.104,0.637,0.311c0.162,0.207,0.242,0.5,0.242,0.881v0.293c0.107-0.332,0.236-0.602,0.389-0.809
		c0.15-0.205,0.307-0.371,0.471-0.492c0.162-0.123,0.35-0.184,0.561-0.184c0.234,0,0.436,0.1,0.602,0.299
		c0.166,0.197,0.248,0.594,0.248,1.186v4.121h-0.795v-3.725c0-0.307-0.01-0.516-0.029-0.629c-0.02-0.111-0.059-0.197-0.117-0.256
		s-0.123-0.088-0.191-0.088c-0.168,0-0.35,0.129-0.543,0.389c-0.195,0.258-0.393,0.688-0.594,1.287v3.021h-0.758v-3.721
		c0-0.48-0.047-0.764-0.141-0.85c-0.096-0.084-0.18-0.127-0.256-0.127c-0.166,0-0.346,0.145-0.537,0.436
		c-0.189,0.289-0.373,0.66-0.545,1.113v3.148H373.877z"/>
	<path fill="#666666" d="M385.324,301.469c-0.725,0.344-1.412,0.516-2.061,0.516c-0.49,0-0.93-0.123-1.318-0.367
		c-0.387-0.242-0.697-0.592-0.93-1.045c-0.232-0.455-0.35-0.939-0.35-1.457c0-0.498,0.111-0.977,0.332-1.434
		c0.223-0.459,0.531-0.816,0.928-1.072c0.398-0.254,0.84-0.383,1.328-0.383c0.648,0,1.168,0.23,1.561,0.693
		c0.393,0.461,0.588,1.172,0.588,2.135v0.195h-3.76c0,0.379,0.08,0.725,0.236,1.037c0.158,0.312,0.367,0.549,0.623,0.705
		c0.258,0.156,0.551,0.234,0.879,0.234c0.586,0,1.234-0.195,1.943-0.586V301.469z M381.697,298.57h2.719v-0.131
		c0-0.445-0.109-0.799-0.326-1.061c-0.219-0.264-0.51-0.395-0.875-0.395c-0.367,0-0.686,0.133-0.955,0.4
		C381.992,297.652,381.805,298.049,381.697,298.57z"/>
	<path fill="#666666" d="M387.354,301.545v-0.963c0.363,0.238,0.75,0.404,1.156,0.5c0.408,0.098,0.752,0.145,1.035,0.145
		c0.459,0,0.789-0.074,0.992-0.223c0.201-0.146,0.303-0.332,0.303-0.553c0-0.146-0.047-0.271-0.143-0.377
		c-0.094-0.104-0.328-0.232-0.703-0.385l-0.312-0.127l-0.629-0.25c-0.678-0.264-1.104-0.508-1.279-0.732
		c-0.18-0.221-0.27-0.49-0.27-0.811c0-0.449,0.174-0.818,0.521-1.107c0.348-0.291,0.91-0.436,1.689-0.436
		c0.582,0,1.135,0.086,1.656,0.254v0.826c-0.6-0.215-1.164-0.322-1.691-0.322c-0.385,0-0.686,0.066-0.902,0.201
		c-0.217,0.137-0.326,0.305-0.326,0.506c0,0.195,0.096,0.352,0.283,0.469c0.186,0.117,0.488,0.252,0.91,0.406l0.615,0.225
		c0.564,0.205,0.959,0.428,1.186,0.668c0.229,0.242,0.342,0.543,0.342,0.904c0,0.471-0.182,0.859-0.545,1.164
		s-0.943,0.457-1.74,0.457C388.805,301.984,388.088,301.838,387.354,301.545z"/>
	<path fill="#666666" d="M393.854,301.545v-0.963c0.365,0.238,0.75,0.404,1.158,0.5c0.406,0.098,0.752,0.145,1.035,0.145
		c0.459,0,0.789-0.074,0.99-0.223c0.203-0.146,0.303-0.332,0.303-0.553c0-0.146-0.047-0.271-0.141-0.377
		c-0.096-0.104-0.33-0.232-0.703-0.385l-0.312-0.127l-0.631-0.25c-0.676-0.264-1.104-0.508-1.279-0.732
		c-0.178-0.221-0.268-0.49-0.268-0.811c0-0.449,0.174-0.818,0.52-1.107c0.348-0.291,0.91-0.436,1.689-0.436
		c0.584,0,1.137,0.086,1.658,0.254v0.826c-0.6-0.215-1.164-0.322-1.693-0.322c-0.385,0-0.686,0.066-0.902,0.201
		c-0.217,0.137-0.324,0.305-0.324,0.506c0,0.195,0.094,0.352,0.283,0.469c0.186,0.117,0.488,0.252,0.908,0.406l0.615,0.225
		c0.564,0.205,0.961,0.428,1.188,0.668c0.227,0.242,0.34,0.543,0.34,0.904c0,0.471-0.182,0.859-0.545,1.164
		c-0.361,0.305-0.941,0.457-1.74,0.457C395.307,301.984,394.59,301.838,393.854,301.545z"/>
	<path fill="#666666" d="M403.877,300.613c-0.277,0.453-0.609,0.795-1,1.025c-0.389,0.23-0.746,0.346-1.07,0.346
		c-0.457,0-0.867-0.197-1.229-0.592c-0.363-0.393-0.545-0.99-0.545-1.791c0-0.633,0.119-1.195,0.361-1.693
		c0.24-0.496,0.564-0.889,0.969-1.176c0.402-0.289,0.904-0.432,1.5-0.432c0.172,0,0.434,0.018,0.781,0.053
		c0.051,0.008,0.129,0.016,0.232,0.025h0.912v3.852c0,0.658,0.07,1.191,0.209,1.602h-0.947
		C403.979,301.535,403.92,301.127,403.877,300.613z M403.881,299.525v-2.342c-0.324-0.084-0.623-0.127-0.9-0.127
		c-0.561,0-1.027,0.217-1.402,0.65c-0.373,0.434-0.559,1.023-0.559,1.77c0,0.541,0.102,0.949,0.305,1.225
		c0.205,0.275,0.438,0.414,0.697,0.414c0.283,0,0.598-0.145,0.939-0.432C403.303,300.398,403.609,300.012,403.881,299.525z"/>
	<path fill="#666666" d="M410.439,300.605c-0.277,0.457-0.609,0.801-1,1.031c-0.389,0.232-0.746,0.348-1.072,0.348
		c-0.457,0-0.867-0.197-1.23-0.592c-0.363-0.393-0.545-0.99-0.545-1.791c0-0.633,0.121-1.195,0.361-1.693
		c0.242-0.496,0.564-0.889,0.969-1.176c0.404-0.289,0.904-0.432,1.5-0.432c0.174,0,0.434,0.018,0.781,0.053
		c0.053,0.008,0.131,0.016,0.234,0.025h0.91v3.857c0,0.918-0.012,1.479-0.035,1.682s-0.062,0.41-0.115,0.617
		c-0.131,0.486-0.428,0.867-0.893,1.148c-0.465,0.279-1.025,0.42-1.684,0.42c-0.662,0-1.332-0.17-2.01-0.508v-0.918
		c0.258,0.176,0.574,0.33,0.951,0.465c0.377,0.137,0.74,0.203,1.094,0.203c0.275,0,0.539-0.043,0.787-0.131
		c0.246-0.088,0.447-0.215,0.6-0.381c0.154-0.166,0.258-0.359,0.314-0.58c0.055-0.219,0.082-0.512,0.082-0.875V300.605z
		 M410.439,299.525v-2.342c-0.322-0.084-0.623-0.127-0.9-0.127c-0.561,0-1.027,0.217-1.4,0.65s-0.561,1.023-0.561,1.77
		c0,0.541,0.102,0.949,0.307,1.225c0.203,0.275,0.436,0.414,0.697,0.414c0.283,0,0.596-0.145,0.938-0.432
		C409.863,300.398,410.17,300.012,410.439,299.525z"/>
	<path fill="#666666" d="M417.83,301.469c-0.727,0.344-1.414,0.516-2.061,0.516c-0.492,0-0.932-0.123-1.318-0.367
		c-0.389-0.242-0.697-0.592-0.93-1.045c-0.234-0.455-0.35-0.939-0.35-1.457c0-0.498,0.109-0.977,0.332-1.434
		c0.221-0.459,0.529-0.816,0.928-1.072c0.396-0.254,0.84-0.383,1.328-0.383c0.646,0,1.168,0.23,1.561,0.693
		c0.391,0.461,0.588,1.172,0.588,2.135v0.195h-3.76c0,0.379,0.078,0.725,0.236,1.037s0.365,0.549,0.623,0.705
		c0.256,0.156,0.549,0.234,0.879,0.234c0.586,0,1.232-0.195,1.943-0.586V301.469z M414.201,298.57h2.721v-0.131
		c0-0.445-0.109-0.799-0.328-1.061c-0.217-0.264-0.51-0.395-0.873-0.395c-0.369,0-0.686,0.133-0.955,0.4
		C414.498,297.652,414.309,298.049,414.201,298.57z"/>
	<path fill="#666666" d="M419.805,293.801c0.9,0.059,1.662,0.314,2.279,0.768c0.619,0.455,1.113,1.068,1.482,1.84
		s0.555,1.545,0.555,2.318c0,0.775-0.186,1.549-0.555,2.32s-0.863,1.383-1.482,1.838c-0.617,0.453-1.379,0.709-2.279,0.764v-0.756
		c0.68-0.066,1.266-0.295,1.754-0.689c0.49-0.395,0.877-0.896,1.158-1.51c0.281-0.611,0.422-1.268,0.422-1.969
		s-0.141-1.357-0.422-1.969c-0.281-0.613-0.668-1.117-1.158-1.512c-0.488-0.396-1.074-0.625-1.754-0.688V293.801z"/>
	<path fill="#666666" d="M427.609,303.951v-0.605c0.234-0.061,0.412-0.15,0.535-0.266c0.121-0.115,0.219-0.262,0.293-0.439
		c0.072-0.178,0.109-0.391,0.109-0.643c-0.303,0-0.525-0.086-0.67-0.256c-0.143-0.172-0.215-0.354-0.215-0.549
		c0-0.225,0.08-0.414,0.24-0.57c0.158-0.154,0.344-0.23,0.557-0.23c0.273,0,0.51,0.117,0.707,0.354
		c0.199,0.236,0.299,0.559,0.299,0.969c0,0.359-0.078,0.695-0.234,1.014c-0.156,0.316-0.369,0.588-0.637,0.812
		C428.324,303.766,427.996,303.902,427.609,303.951z M428.459,297.818c-0.219,0-0.406-0.078-0.562-0.234s-0.234-0.344-0.234-0.561
		c0-0.223,0.08-0.41,0.238-0.564c0.156-0.154,0.344-0.232,0.559-0.232s0.4,0.078,0.559,0.232s0.236,0.342,0.236,0.564
		c0,0.217-0.078,0.404-0.234,0.561S428.676,297.818,428.459,297.818z"/>
</g>
<g>
	<g>
		<path fill="#696C71" d="M174.729,420.119c0.382,0.121,0.693,0.354,0.937,0.695c0.242,0.343,0.363,0.722,0.363,1.138
			c0,0.737-0.24,1.303-0.721,1.696c-0.481,0.395-1.143,0.592-1.982,0.592h-3.056v-7.982h2.795c0.85,0,1.513,0.187,1.989,0.56
			s0.715,0.91,0.715,1.612c0,0.416-0.098,0.775-0.292,1.078C175.282,419.812,175.033,420.016,174.729,420.119z M171.584,419.612
			h1.469c0.944,0,1.417-0.368,1.417-1.105c0-0.719-0.473-1.078-1.417-1.078h-1.469V419.612z M171.584,420.73v2.34h1.716
			c0.45,0,0.797-0.104,1.04-0.312c0.242-0.208,0.364-0.493,0.364-0.857s-0.122-0.65-0.364-0.858c-0.243-0.208-0.59-0.312-1.04-0.312
			H171.584z"/>
		<path fill="#696C71" d="M180.527,416.258h1.3l3.068,7.982h-1.378l-0.819-2.21h-3.055l-0.819,2.21h-1.365L180.527,416.258z
			 M181.164,417.909l-1.092,2.951h2.184L181.164,417.909z"/>
		<path fill="#696C71" d="M187.294,423.22c-0.688-0.767-1.033-1.757-1.033-2.971c0-1.213,0.345-2.203,1.033-2.971
			c0.689-0.767,1.554-1.15,2.594-1.15c0.884,0,1.607,0.236,2.171,0.709s0.923,1.116,1.079,1.931h-1.326
			c-0.347-0.945-0.988-1.417-1.924-1.417c-0.693,0-1.244,0.271-1.651,0.812c-0.407,0.541-0.61,1.237-0.61,2.086
			c0,0.85,0.203,1.545,0.61,2.087s0.958,0.812,1.651,0.812c0.936,0,1.577-0.477,1.924-1.431h1.326
			c-0.156,0.824-0.516,1.472-1.079,1.944c-0.563,0.472-1.287,0.708-2.171,0.708C188.848,424.37,187.983,423.986,187.294,423.22z"/>
		<path fill="#696C71" d="M196.453,416.258v3.822l3.314-3.822h1.703l-3.224,3.627l3.341,4.355h-1.69l-2.626-3.419l-0.818,0.936
			v2.483h-1.353v-7.982H196.453z"/>
		<path fill="#696C71" d="M203.316,416.258h5.213v1.196h-3.887v2.106h3.523v1.183h-3.523v2.288h3.887v1.209h-5.213V416.258z"/>
		<path fill="#696C71" d="M217.069,416.258v7.982h-1.04l-4.082-5.811v5.811h-1.3v-7.982h1.274l3.848,5.538v-5.538H217.069z"/>
		<path fill="#696C71" d="M219.488,424.24v-7.982h2.691c1.179,0,2.119,0.362,2.821,1.086c0.701,0.724,1.053,1.692,1.053,2.905
			c0,1.214-0.352,2.183-1.053,2.905c-0.702,0.725-1.643,1.086-2.821,1.086H219.488z M220.841,423.031h1.287
			c0.823,0,1.458-0.247,1.904-0.741s0.669-1.174,0.669-2.041c0-0.866-0.223-1.549-0.669-2.047c-0.446-0.499-1.081-0.748-1.904-0.748
			h-1.287V423.031z"/>
		<path fill="#696C71" d="M230.94,422.03h1.378c0.252,0.798,0.854,1.196,1.808,1.196c0.468,0,0.843-0.106,1.124-0.318
			c0.281-0.213,0.423-0.501,0.423-0.865c0-0.286-0.089-0.514-0.267-0.683s-0.475-0.301-0.891-0.396l-1.352-0.324
			c-1.326-0.312-1.989-1.027-1.989-2.146c0-0.685,0.253-1.25,0.761-1.696c0.507-0.446,1.158-0.67,1.956-0.67
			c0.841,0,1.519,0.197,2.034,0.592s0.848,0.934,0.995,1.618h-1.353c-0.251-0.71-0.806-1.065-1.664-1.065
			c-0.433,0-0.782,0.102-1.046,0.306c-0.265,0.203-0.396,0.47-0.396,0.799c0,0.529,0.351,0.876,1.053,1.04l1.391,0.325
			c0.65,0.147,1.157,0.407,1.521,0.78c0.364,0.372,0.546,0.85,0.546,1.43c0,0.737-0.265,1.324-0.793,1.762s-1.214,0.656-2.054,0.656
			c-0.85,0-1.559-0.206-2.126-0.617C231.433,423.341,231.079,422.767,230.94,422.03z"/>
		<path fill="#696C71" d="M238.962,416.258h5.213v1.196h-3.887v2.106h3.523v1.183h-3.523v2.288h3.887v1.209h-5.213V416.258z"/>
		<path fill="#696C71" d="M248.607,421.003h-0.962v3.237h-1.353v-7.982h3.081c0.841,0,1.504,0.206,1.989,0.618
			c0.485,0.411,0.728,1.003,0.728,1.774c0,0.658-0.18,1.181-0.539,1.566s-0.86,0.631-1.502,0.734l2.314,3.289h-1.534
			L248.607,421.003z M247.646,417.429v2.443h1.703c0.441,0,0.786-0.11,1.033-0.331c0.247-0.222,0.37-0.518,0.37-0.891
			s-0.123-0.67-0.37-0.891s-0.592-0.331-1.033-0.331H247.646z"/>
		<path fill="#696C71" d="M257.838,424.24h-1.287l-3.017-7.982h1.417l2.263,6.228l2.262-6.228h1.378L257.838,424.24z"/>
		<path fill="#696C71" d="M264,416.258v7.982h-1.353v-7.982H264z"/>
		<path fill="#696C71" d="M267.021,423.22c-0.688-0.767-1.033-1.757-1.033-2.971c0-1.213,0.345-2.203,1.033-2.971
			c0.689-0.767,1.554-1.15,2.594-1.15c0.884,0,1.607,0.236,2.171,0.709s0.923,1.116,1.079,1.931h-1.326
			c-0.347-0.945-0.988-1.417-1.924-1.417c-0.693,0-1.244,0.271-1.651,0.812c-0.407,0.541-0.61,1.237-0.61,2.086
			c0,0.85,0.203,1.545,0.61,2.087s0.958,0.812,1.651,0.812c0.936,0,1.577-0.477,1.924-1.431h1.326
			c-0.156,0.824-0.516,1.472-1.079,1.944c-0.563,0.472-1.287,0.708-2.171,0.708C268.575,424.37,267.711,423.986,267.021,423.22z"/>
		<path fill="#696C71" d="M274.828,416.258h5.213v1.196h-3.887v2.106h3.523v1.183h-3.523v2.288h3.887v1.209h-5.213V416.258z"/>
	</g>
</g>
</svg>
