<?xml version="1.0" encoding="utf-8"?>
<!-- Generator: Adobe Illustrator 16.0.4, SVG Export Plug-In . SVG Version: 6.00 Build 0)  -->
<!DOCTYPE svg PUBLIC "-//W3C//DTD SVG 1.0//EN" "http://www.w3.org/TR/2001/REC-SVG-20010904/DTD/svg10.dtd">
<svg version="1.0" id="Layer_1" xmlns="http://www.w3.org/2000/svg" xmlns:xlink="http://www.w3.org/1999/xlink" x="0px" y="0px"
	 width="452.664px" height="497px" viewBox="0 0 452.664 497" enable-background="new 0 0 452.664 497" xml:space="preserve">
<rect x="-6" y="-6" fill="#F5F6F6" width="464" height="509"/>
<g>
	<g>
		<g>
			<g>
				<g>
					<g>
						<path fill="#585A5E" d="M144.686,200.592v-0.984h4.926v0.984H144.686z"/>
						<path fill="#585A5E" d="M158.389,200.639l-6.893,3.451v-1.098l4.711-2.346l-4.711-2.371v-1.086L158.389,200.639z"/>
						<path fill="#585A5E" d="M161.481,204.09v-5.523h-1.574v-0.982h1.574v-0.33c0-0.934,0.105-1.625,0.316-2.072
							c0.212-0.449,0.539-0.816,0.981-1.104s1.027-0.43,1.755-0.43c0.55,0,1.108,0.057,1.676,0.17v1.117
							c-0.613-0.203-1.157-0.305-1.631-0.305c-0.377,0-0.709,0.07-0.997,0.211c-0.288,0.139-0.513,0.365-0.676,0.682
							c-0.163,0.314-0.245,0.85-0.245,1.604v0.457h2.812v0.982h-2.812v5.523H161.481z"/>
						<path fill="#585A5E" d="M170.549,204.287c-1.015,0-1.826-0.355-2.435-1.064c-0.609-0.709-0.913-1.602-0.913-2.682
							c0-1.078,0.304-1.973,0.913-2.678c0.608-0.707,1.42-1.061,2.435-1.061c1.011,0,1.82,0.354,2.429,1.061
							c0.609,0.705,0.913,1.6,0.913,2.678c0,1.08-0.304,1.973-0.913,2.682C172.369,203.932,171.56,204.287,170.549,204.287z
							 M170.549,203.303c0.63,0,1.131-0.246,1.502-0.736c0.372-0.492,0.559-1.166,0.559-2.025c0-0.855-0.187-1.527-0.559-2.018
							c-0.371-0.492-0.872-0.736-1.502-0.736c-0.634,0-1.137,0.244-1.508,0.736c-0.372,0.49-0.559,1.162-0.559,2.018
							c0,0.859,0.187,1.533,0.559,2.025C169.412,203.057,169.915,203.303,170.549,203.303z"/>
						<path fill="#585A5E" d="M176.036,204.09V197h1.181v1.549c0.368-0.584,0.79-1.021,1.267-1.312
							c0.476-0.289,1.006-0.434,1.59-0.434c0.428,0,0.854,0.064,1.282,0.197v2.557h-1.137v-1.617
							c-0.198-0.035-0.355-0.051-0.469-0.051c-0.44,0-0.872,0.172-1.295,0.52c-0.424,0.348-0.836,0.867-1.238,1.562v4.119H176.036z"
							/>
						<path fill="#585A5E" d="M183.551,204.09v-10.246h1.182v6.438l3.408-3.281h1.562l-3.375,3.248l3.476,3.842h-1.625l-3.446-3.809
							v3.809H183.551z"/>
					</g>
				</g>
			</g>
		</g>
		<g>
			<g>
				<g>
					<g>
						<g>
							<path fill="#696C71" d="M71.405,323.762h1.403c0.096,0.814,0.521,1.223,1.274,1.223c0.901,0,1.352-0.551,1.352-1.65v-5.227
								h1.353v5.227c0,0.936-0.238,1.65-0.715,2.145s-1.131,0.74-1.963,0.74c-0.824,0-1.465-0.223-1.925-0.668
								C71.726,325.104,71.466,324.508,71.405,323.762z"/>
							<path fill="#696C71" d="M84.951,319.141c0.693,0.775,1.04,1.762,1.04,2.957c0,1.197-0.347,2.184-1.04,2.959
								s-1.577,1.162-2.652,1.162c-1.074,0-1.956-0.387-2.646-1.162c-0.688-0.775-1.033-1.762-1.033-2.959
								c0-1.195,0.345-2.182,1.033-2.957c0.689-0.775,1.571-1.164,2.646-1.164C83.374,317.977,84.258,318.365,84.951,319.141z
								 M83.982,324.191c0.429-0.547,0.644-1.244,0.644-2.094c0-0.848-0.215-1.547-0.644-2.092c-0.429-0.547-0.99-0.82-1.684-0.82
								s-1.252,0.271-1.677,0.812c-0.425,0.543-0.637,1.242-0.637,2.1c0,0.859,0.212,1.559,0.637,2.1
								c0.425,0.543,0.983,0.812,1.677,0.812S83.554,324.738,83.982,324.191z"/>
							<path fill="#696C71" d="M89.332,318.107v7.982h-1.353v-7.982H89.332z"/>
							<path fill="#696C71" d="M98.171,318.107v7.982h-1.04l-4.082-5.811v5.811h-1.3v-7.982h1.274l3.848,5.537v-5.537H98.171z"/>
						</g>
					</g>
				</g>
			</g>
		</g>
		<g>
			<g>
				<path fill="#20B6AF" d="M134.519,257.322h1.092l1.509,5.875l1.442-5.875h1.3l-2.054,7.982h-1.248l-1.508-5.707l-1.534,5.707
					h-1.234l-2.055-7.982h1.326l1.443,5.875L134.519,257.322z"/>
				<path fill="#20B6AF" d="M144.164,257.322v7.982h-1.312v-6.357l-1.872,0.949v-1.365l2.392-1.209H144.164z"/>
			</g>
		</g>
		<g>
			<g>
				<path fill="#20B6AF" d="M134.519,95.509h1.092l1.509,5.876l1.442-5.876h1.3l-2.054,7.981h-1.248l-1.508-5.707l-1.534,5.707
					h-1.234l-2.055-7.981h1.326l1.443,5.876L134.519,95.509z"/>
				<path fill="#20B6AF" d="M144.164,95.509v7.981h-1.312v-6.356l-1.872,0.948v-1.364l2.392-1.209H144.164z"/>
			</g>
		</g>
		<line fill="none" stroke="#20B6AF" stroke-miterlimit="10" x1="209.868" y1="118.096" x2="62.657" y2="118.096"/>
		<line fill="none" stroke="#20B6AF" stroke-miterlimit="10" x1="390.494" y1="118.096" x2="243.283" y2="118.096"/>
		<line fill="none" stroke="#20B6AF" stroke-miterlimit="10" x1="62.657" y1="241.76" x2="209.868" y2="241.76"/>
		<g>
			<g>
				<polyline fill="none" stroke="#A5A5A5" stroke-miterlimit="10" points="62.657,435.113 62.657,436.764 64.308,436.764 				"/>
				
					<line fill="none" stroke="#A5A5A5" stroke-miterlimit="10" stroke-dasharray="3.3468,3.3468" x1="67.654" y1="436.764" x2="206.545" y2="436.764"/>
				<polyline fill="none" stroke="#A5A5A5" stroke-miterlimit="10" points="208.218,436.764 209.868,436.764 209.868,435.113 				
					"/>
				
					<line fill="none" stroke="#A5A5A5" stroke-miterlimit="10" stroke-dasharray="3.3544,3.3544" x1="209.868" y1="431.76" x2="209.868" y2="312.677"/>
				<polyline fill="none" stroke="#A5A5A5" stroke-miterlimit="10" points="209.868,311 209.868,309.35 208.218,309.35 				"/>
				
					<line fill="none" stroke="#A5A5A5" stroke-miterlimit="10" stroke-dasharray="3.3468,3.3468" x1="204.871" y1="309.35" x2="65.98" y2="309.35"/>
				<polyline fill="none" stroke="#A5A5A5" stroke-miterlimit="10" points="64.308,309.35 62.657,309.35 62.657,311 				"/>
				
					<line fill="none" stroke="#A5A5A5" stroke-miterlimit="10" stroke-dasharray="3.3544,3.3544" x1="62.657" y1="314.354" x2="62.657" y2="433.437"/>
			</g>
		</g>
		<line fill="none" stroke="#20B6AF" stroke-miterlimit="10" x1="136.263" y1="118.438" x2="136.263" y2="242.281"/>
		<line fill="none" stroke="#20B6AF" stroke-miterlimit="10" x1="136.263" y1="286.49" x2="136.263" y2="456.49"/>
		<g>
			<path fill="#FFFFFF" stroke="#585A5E" stroke-miterlimit="10" d="M154.581,155.5c0,2.215-1.796,4.01-4.01,4.01h-28.588
				c-2.215,0-4.01-1.795-4.01-4.01v-8.76c0-2.213,1.795-4.01,4.01-4.01h28.588c2.214,0,4.01,1.797,4.01,4.01V155.5z"/>
			<g>
				<circle fill="#585A5E" cx="128.077" cy="151.572" r="2.05"/>
				<circle fill="#585A5E" cx="136.276" cy="151.572" r="2.05"/>
				<circle fill="#585A5E" cx="144.476" cy="151.572" r="2.05"/>
			</g>
		</g>
		<g id="cXyJnD_2_">
			<g>
				<g>
					<path fill-rule="evenodd" clip-rule="evenodd" fill="#20B5AE" d="M130.816,66.971c-0.193,0.473-0.056,0.843,0.303,1.195
						c1.283,1.262,2.552,2.541,3.823,3.815c0.24,0.24,0.51,0.353,0.848,0.253c0.402-0.119,0.594-0.36,0.597-0.781
						c0.004-0.752,0.002-1.504,0.002-2.255c0-0.073,0.004-0.146,0.006-0.229c1.305,0.054,2.491,0.428,3.541,1.199
						c1.361,1,2.257,2.318,2.601,3.976c0.423,2.046-0.026,3.916-1.364,5.518c-2.207,2.64-5.919,3.158-8.74,1.19
						c-2.015-1.404-2.943-3.398-2.771-5.86c0.049-0.679-0.142-0.801-0.726-0.783c-0.685,0.021-1.369,0.008-2.054,0.012
						c-0.33,0.003-0.473,0.134-0.498,0.466c-0.19,2.51,0.452,4.787,2.002,6.767c2.068,2.645,4.831,3.916,8.176,3.826
						c2.068-0.056,3.938-0.771,5.585-2.035c0.158-0.122,0.318-0.241,0.478-0.361c0.306-0.304,0.611-0.609,0.915-0.915
						c0.163-0.209,0.333-0.415,0.487-0.631c1.398-1.966,2.07-4.146,1.889-6.563c-0.135-1.768-0.698-3.396-1.71-4.859
						c-0.211-0.305-0.442-0.595-0.666-0.891c-0.293-0.295-0.589-0.59-0.884-0.884c-0.17-0.131-0.34-0.261-0.511-0.392
						c-1.231-0.938-2.604-1.57-4.125-1.858c-0.531-0.102-1.069-0.147-1.646-0.224c0.006-0.09,0.021-0.193,0.021-0.296
						c0-0.67,0-1.34-0.011-2.009c-0.006-0.464-0.286-0.776-0.749-0.807c-0.161-0.012-0.329,0.059-0.494,0.092
						C133.699,64.087,132.258,65.528,130.816,66.971z"/>
				</g>
			</g>
		</g>
		<polygon fill="#585A5E" points="122.616,158.695 122.616,167.533 131.452,158.695 		"/>
		<g>
			<g>
				<g>
					<g>
						<path fill="#585A5E" d="M325.322,200.592v-0.984h4.926v0.984H325.322z"/>
						<path fill="#585A5E" d="M339.025,200.639l-6.893,3.451v-1.098l4.711-2.346l-4.711-2.371v-1.086L339.025,200.639z"/>
						<path fill="#585A5E" d="M342.118,204.09v-5.523h-1.574v-0.982h1.574v-0.33c0-0.934,0.105-1.625,0.316-2.072
							c0.212-0.449,0.539-0.816,0.981-1.104s1.027-0.43,1.755-0.43c0.55,0,1.108,0.057,1.676,0.17v1.117
							c-0.613-0.203-1.157-0.305-1.631-0.305c-0.377,0-0.709,0.07-0.997,0.211c-0.288,0.139-0.513,0.365-0.676,0.682
							c-0.163,0.314-0.245,0.85-0.245,1.604v0.457h2.812v0.982h-2.812v5.523H342.118z"/>
						<path fill="#585A5E" d="M351.186,204.287c-1.015,0-1.826-0.355-2.435-1.064c-0.609-0.709-0.913-1.602-0.913-2.682
							c0-1.078,0.304-1.973,0.913-2.678c0.608-0.707,1.42-1.061,2.435-1.061c1.011,0,1.82,0.354,2.429,1.061
							c0.609,0.705,0.913,1.6,0.913,2.678c0,1.08-0.304,1.973-0.913,2.682C353.006,203.932,352.196,204.287,351.186,204.287z
							 M351.186,203.303c0.63,0,1.131-0.246,1.502-0.736c0.372-0.492,0.559-1.166,0.559-2.025c0-0.855-0.187-1.527-0.559-2.018
							c-0.371-0.492-0.872-0.736-1.502-0.736c-0.634,0-1.137,0.244-1.508,0.736c-0.372,0.49-0.559,1.162-0.559,2.018
							c0,0.859,0.187,1.533,0.559,2.025C350.049,203.057,350.552,203.303,351.186,203.303z"/>
						<path fill="#585A5E" d="M356.673,204.09V197h1.181v1.549c0.368-0.584,0.79-1.021,1.267-1.312
							c0.476-0.289,1.006-0.434,1.59-0.434c0.428,0,0.854,0.064,1.282,0.197v2.557h-1.137v-1.617
							c-0.198-0.035-0.355-0.051-0.469-0.051c-0.44,0-0.872,0.172-1.295,0.52c-0.424,0.348-0.836,0.867-1.238,1.562v4.119H356.673z"
							/>
						<path fill="#585A5E" d="M364.188,204.09v-10.246h1.182v6.438l3.408-3.281h1.562l-3.375,3.248l3.476,3.842h-1.625l-3.446-3.809
							v3.809H364.188z"/>
					</g>
				</g>
			</g>
		</g>
		<g>
			<g>
				<path fill="#20B6AF" d="M315.155,257.322h1.092l1.509,5.875l1.442-5.875h1.3l-2.054,7.982h-1.248l-1.508-5.707l-1.534,5.707
					h-1.234l-2.055-7.982h1.326l1.443,5.875L315.155,257.322z"/>
				<path fill="#20B6AF" d="M324.801,257.322v7.982h-1.312v-6.357l-1.872,0.949v-1.365l2.392-1.209H324.801z"/>
			</g>
		</g>
		<g>
			<g>
				<path fill="#20B6AF" d="M315.155,95.509h1.092l1.509,5.876l1.442-5.876h1.3l-2.054,7.981h-1.248l-1.508-5.707l-1.534,5.707
					h-1.234l-2.055-7.981h1.326l1.443,5.876L315.155,95.509z"/>
				<path fill="#20B6AF" d="M324.801,95.509v7.981h-1.312v-6.356l-1.872,0.948v-1.364l2.392-1.209H324.801z"/>
			</g>
		</g>
		<line fill="none" stroke="#20B6AF" stroke-miterlimit="10" x1="243.283" y1="241.76" x2="390.494" y2="241.76"/>
		<line fill="none" stroke="#20B6AF" stroke-miterlimit="10" x1="316.889" y1="118.438" x2="316.889" y2="242.281"/>
		<g>
			<path fill="#FFFFFF" stroke="#585A5E" stroke-miterlimit="10" d="M335.207,155.5c0,2.215-1.797,4.01-4.01,4.01h-28.588
				c-2.215,0-4.01-1.795-4.01-4.01v-8.76c0-2.213,1.795-4.01,4.01-4.01h28.588c2.213,0,4.01,1.797,4.01,4.01V155.5z"/>
			<g>
				<circle fill="#585A5E" cx="308.702" cy="151.572" r="2.05"/>
				<circle fill="#585A5E" cx="316.901" cy="151.572" r="2.05"/>
				<circle fill="#585A5E" cx="325.101" cy="151.572" r="2.05"/>
			</g>
		</g>
		<g id="cXyJnD_4_">
			<g>
				<g>
					<path fill-rule="evenodd" clip-rule="evenodd" fill="#20B5AE" d="M311.442,66.97c-0.194,0.474-0.057,0.844,0.302,1.196
						c1.284,1.262,2.553,2.541,3.824,3.815c0.24,0.24,0.509,0.353,0.848,0.253c0.401-0.119,0.593-0.36,0.596-0.781
						c0.004-0.753,0.002-1.504,0.002-2.255c0-0.073,0.005-0.146,0.006-0.229c1.305,0.054,2.491,0.428,3.541,1.199
						c1.361,1,2.257,2.318,2.602,3.976c0.422,2.046-0.027,3.916-1.365,5.517c-2.207,2.641-5.919,3.159-8.74,1.191
						c-2.015-1.404-2.942-3.398-2.771-5.86c0.05-0.679-0.142-0.801-0.726-0.783c-0.685,0.021-1.368,0.008-2.054,0.012
						c-0.331,0.003-0.472,0.134-0.498,0.466c-0.19,2.51,0.452,4.787,2.002,6.767c2.069,2.645,4.831,3.916,8.177,3.825
						c2.068-0.055,3.938-0.77,5.584-2.035c0.158-0.121,0.319-0.24,0.478-0.36c0.306-0.305,0.612-0.609,0.916-0.916
						c0.162-0.208,0.333-0.414,0.486-0.631c1.398-1.965,2.07-4.146,1.889-6.562c-0.135-1.768-0.697-3.396-1.71-4.859
						c-0.21-0.305-0.442-0.595-0.665-0.891c-0.293-0.295-0.589-0.59-0.885-0.884c-0.169-0.131-0.34-0.261-0.511-0.392
						c-1.231-0.939-2.603-1.57-4.125-1.858c-0.53-0.102-1.069-0.147-1.646-0.224c0.006-0.09,0.021-0.193,0.021-0.296
						c0-0.67,0-1.34-0.011-2.009c-0.005-0.464-0.286-0.776-0.749-0.807c-0.16-0.012-0.329,0.059-0.494,0.092
						C314.325,64.087,312.883,65.528,311.442,66.97z"/>
				</g>
			</g>
		</g>
		<polygon fill="#585A5E" points="303.24,158.695 303.24,167.533 312.078,158.695 		"/>
	</g>
	<line fill="none" stroke="#A5A5A5" stroke-width="2" stroke-miterlimit="10" x1="415.438" y1="41.51" x2="37.227" y2="41.51"/>
	<line fill="none" stroke="#A5A5A5" stroke-width="2" stroke-miterlimit="10" x1="415.438" y1="286.49" x2="37.227" y2="286.49"/>
</g>
</svg>
