<svg id="Layer_1" data-name="Layer 1" xmlns="http://www.w3.org/2000/svg" viewBox="0 0 30 100"><defs><style>.cls-1{fill:#585556;}</style></defs><title>btn-binary</title><path class="cls-1" d="M18.95,71.48H11.58V68.65a2.9,2.9,0,0,1,.52-1.83,1.78,1.78,0,0,1,1.49-.66,1.75,1.75,0,0,1,1,.28,1.4,1.4,0,0,1,.57.7,1.69,1.69,0,0,1,.65-.86A1.81,1.81,0,0,1,16.86,66a1.9,1.9,0,0,1,1.54.65,2.77,2.77,0,0,1,.54,1.82ZM14.61,70V68.74q0-1.11-.88-1.11t-.85,1.11V70Zm3,0V68.54a1.2,1.2,0,0,0-.25-.82,1,1,0,0,0-1.36,0,1.21,1.21,0,0,0-.25.82V70Z"/><path class="cls-1" d="M18.95,63H11.58V61.51h7.37Z"/><path class="cls-1" d="M18.95,58.31H11.58V56.85l4.65-3.25H11.58V52.12h7.37v1.22L14,56.82h4.91Z"/><path class="cls-1" d="M18.95,49.45l-7.37-2.82V45.11l7.37-2.82v1.56l-1.78.66v2.76l1.78.64Zm-3.07-2.66V45l-2.45.9Z"/><path class="cls-1" d="M18.95,39.6H11.58v-3a2.75,2.75,0,0,1,.61-1.88,2.17,2.17,0,0,1,1.72-.7,2.23,2.23,0,0,1,1.43.44,2.18,2.18,0,0,1,.75,1.23l2.85-1.94v1.73L16.2,37.29v.8h2.75Zm-4-1.51V36.67a1.22,1.22,0,0,0-.28-.86,1,1,0,0,0-.75-.3,1,1,0,0,0-.76.3,1.22,1.22,0,0,0-.28.86v1.42Z"/><path class="cls-1" d="M11.58,31.85V30.18L14.7,28.4l-3.12-1.77V25l4.57,2.68h2.79V29.2H16.15Z"/></svg>