<svg id="Layer_1" data-name="Layer 1" xmlns="http://www.w3.org/2000/svg" viewBox="0 0 512 64"><defs><style>.cls-1{fill:#3ad1ca;}.cls-2{fill:none;stroke:#fff;stroke-miterlimit:10;}.cls-3,.cls-4{fill:#fff;}.cls-4{font-size:10px;font-family:Monaco, Monaco;letter-spacing:0.02em;}</style></defs><title>Artboard 1</title><rect class="cls-1" width="512" height="64"/><circle class="cls-2" cx="102.7" cy="32" r="16.05"/><path class="cls-2" d="M409.3,15.95a16,16,0,0,0-11.51,4.88,16,16,0,0,0-23,0,16.05,16.05,0,1,0,0,22.35,16,16,0,0,0,23,0A16,16,0,1,0,409.3,15.95Z"/><rect class="cls-2" x="177.59" y="21.96" width="111.76" height="19.78"/><line class="cls-2" x1="177.12" y1="32" x2="119.27" y2="32"/><line class="cls-2" x1="346.12" y1="32" x2="289.35" y2="32"/><polygon class="cls-3" points="342.81 27.91 342.13 28.64 345.74 32 342.13 35.36 342.81 36.09 347.21 32 342.81 27.91"/><text class="cls-4" transform="translate(93.99 35.08)">api</text><text class="cls-4" transform="translate(212.09 35.18)">service</text><text class="cls-4" transform="translate(357.6 35.18)">endpoints</text></svg>