<?xml version="1.0" encoding="utf-8"?>
<!-- Generator: Adobe Illustrator 16.0.4, SVG Export Plug-In . SVG Version: 6.00 Build 0)  -->
<!DOCTYPE svg PUBLIC "-//W3C//DTD SVG 1.0//EN" "http://www.w3.org/TR/2001/REC-SVG-20010904/DTD/svg10.dtd">
<svg version="1.0" id="Layer_1" xmlns="http://www.w3.org/2000/svg" xmlns:xlink="http://www.w3.org/1999/xlink" x="0px" y="0px"
	 width="512px" height="64px" viewBox="0 0 512 64" enable-background="new 0 0 512 64" xml:space="preserve">
<rect fill="#3AD1CA" width="512" height="64"/>
<g>
	<line fill="none" stroke="#FFFFFF" stroke-miterlimit="10" x1="235.416" y1="32.153" x2="196.929" y2="32.153"/>
	<g>
		<g>
			<line fill="none" stroke="#FFFFFF" stroke-miterlimit="10" x1="383.857" y1="28.003" x2="347.176" y2="28.003"/>
			<g>
				<polygon fill="#FFFFFF" points="380.545,23.914 379.861,24.646 383.475,28.002 379.861,31.36 380.545,32.092 384.941,28.002 
									"/>
			</g>
		</g>
	</g>
	<g>
		<circle fill="none" stroke="#FFFFFF" stroke-miterlimit="10" cx="180.876" cy="32" r="16.052"/>
		<g>
			<g>
				<path fill="#FFFFFF" d="M176.508,33.857c-0.276,0.455-0.609,0.797-0.999,1.026c-0.389,0.229-0.746,0.345-1.071,0.345
					c-0.456,0-0.866-0.195-1.229-0.59c-0.363-0.396-0.545-0.992-0.545-1.793c0-0.631,0.12-1.195,0.361-1.692
					c0.241-0.497,0.564-0.889,0.969-1.177c0.403-0.288,0.904-0.432,1.5-0.432c0.173,0,0.434,0.018,0.781,0.054
					c0.052,0.006,0.13,0.015,0.233,0.024h0.911v3.852c0,0.657,0.07,1.192,0.21,1.604h-0.947
					C176.609,34.779,176.551,34.373,176.508,33.857z M176.512,32.771V30.43c-0.323-0.084-0.623-0.127-0.9-0.127
					c-0.561,0-1.027,0.217-1.401,0.65c-0.373,0.434-0.56,1.023-0.56,1.77c0,0.541,0.102,0.949,0.306,1.226s0.437,0.413,0.697,0.413
					c0.283,0,0.597-0.145,0.938-0.432C175.935,33.645,176.241,33.258,176.512,32.771z"/>
				<path fill="#FFFFFF" d="M179.964,30.85c0.28-0.456,0.613-0.799,1.001-1.031c0.388-0.231,0.744-0.347,1.069-0.347
					c0.456,0,0.866,0.197,1.23,0.591c0.364,0.394,0.547,0.991,0.547,1.792c0,0.631-0.121,1.195-0.364,1.691
					c-0.242,0.497-0.565,0.89-0.969,1.179c-0.403,0.286-0.903,0.432-1.499,0.432c-0.169,0-0.43-0.018-0.781-0.055
					c-0.052-0.006-0.13-0.015-0.234-0.023v2.119h-0.908v-7.573h0.908V30.85L179.964,30.85z M179.964,31.931v2.342
					c0.329,0.084,0.632,0.127,0.908,0.127c0.55,0,1.013-0.217,1.39-0.647c0.375-0.433,0.563-1.022,0.563-1.772
					c0-0.544-0.103-0.953-0.308-1.227s-0.438-0.411-0.698-0.411c-0.283,0-0.595,0.144-0.935,0.43
					C180.544,31.059,180.237,31.445,179.964,31.931z"/>
				<path fill="#FFFFFF" d="M186.854,35.078v-4.697h-1.514v-0.757h2.422v4.696h1.519v0.758H186.854z M186.707,27.654
					c0-0.204,0.069-0.356,0.209-0.457c0.14-0.101,0.271-0.151,0.395-0.151c0.126,0,0.259,0.05,0.398,0.151
					c0.139,0.101,0.209,0.253,0.209,0.457c0,0.201-0.069,0.352-0.209,0.452s-0.272,0.151-0.398,0.151
					c-0.124,0-0.255-0.05-0.395-0.151S186.707,27.855,186.707,27.654z"/>
			</g>
		</g>
	</g>
	<g>
		<rect x="235.416" y="22.11" fill="none" stroke="#FFFFFF" stroke-miterlimit="10" width="111.76" height="19.779"/>
		<g>
			<g>
				<path fill="#FFFFFF" d="M270.734,35.04v-0.962c0.365,0.238,0.75,0.404,1.158,0.5c0.406,0.097,0.752,0.145,1.034,0.145
					c0.46,0,0.789-0.074,0.991-0.223c0.202-0.146,0.303-0.332,0.303-0.555c0-0.146-0.047-0.271-0.142-0.375
					c-0.095-0.104-0.329-0.232-0.703-0.387l-0.312-0.127l-0.631-0.248c-0.677-0.265-1.104-0.509-1.279-0.732
					c-0.178-0.221-0.269-0.492-0.269-0.811c0-0.449,0.175-0.819,0.521-1.108c0.348-0.29,0.909-0.435,1.688-0.435
					c0.584,0,1.137,0.084,1.657,0.254v0.825c-0.601-0.215-1.164-0.322-1.692-0.322c-0.385,0-0.686,0.067-0.901,0.203
					c-0.216,0.136-0.325,0.304-0.325,0.505c0,0.195,0.096,0.352,0.283,0.469c0.186,0.117,0.488,0.252,0.908,0.405l0.615,0.225
					c0.564,0.205,0.961,0.428,1.188,0.669c0.229,0.24,0.341,0.542,0.341,0.902c0,0.473-0.183,0.86-0.545,1.166
					c-0.362,0.304-0.942,0.455-1.74,0.455C272.188,35.479,271.471,35.333,270.734,35.04z"/>
				<path fill="#FFFFFF" d="M281.409,34.965c-0.726,0.344-1.413,0.516-2.062,0.516c-0.49,0-0.931-0.123-1.318-0.366
					c-0.387-0.244-0.696-0.593-0.93-1.046c-0.232-0.454-0.35-0.939-0.35-1.457c0-0.499,0.109-0.977,0.332-1.435
					c0.223-0.459,0.529-0.816,0.928-1.071c0.397-0.255,0.84-0.383,1.328-0.383c0.646,0,1.168,0.231,1.561,0.692
					s0.588,1.173,0.588,2.135v0.195h-3.76c0,0.378,0.08,0.726,0.236,1.038c0.158,0.312,0.366,0.548,0.623,0.705
					c0.257,0.156,0.55,0.234,0.879,0.234c0.586,0,1.233-0.195,1.943-0.589L281.409,34.965L281.409,34.965z M277.781,32.066h2.72
					v-0.131c0-0.445-0.108-0.798-0.327-1.061c-0.218-0.263-0.51-0.395-0.874-0.395c-0.368,0-0.686,0.134-0.954,0.401
					C278.077,31.149,277.889,31.544,277.781,32.066z"/>
				<path fill="#FFFFFF" d="M283.538,35.328v-5.454h0.907v1.191c0.283-0.449,0.607-0.785,0.976-1.008
					c0.365-0.223,0.772-0.334,1.224-0.334c0.328,0,0.656,0.05,0.985,0.151v1.968h-0.874v-1.245
					c-0.152-0.026-0.273-0.039-0.361-0.039c-0.338,0-0.67,0.133-0.996,0.4c-0.324,0.267-0.643,0.667-0.951,1.201v3.169H283.538z"/>
				<path fill="#FFFFFF" d="M291.051,35.328l-2.369-5.454h0.996l1.872,4.321l1.903-4.321h0.912l-2.389,5.454H291.051z"/>
				<path fill="#FFFFFF" d="M297.004,35.328v-4.697h-1.514v-0.757h2.422v4.696h1.52v0.758H297.004z M296.857,27.904
					c0-0.204,0.068-0.356,0.209-0.457c0.14-0.101,0.271-0.151,0.395-0.151c0.126,0,0.26,0.05,0.398,0.151
					c0.139,0.101,0.209,0.253,0.209,0.457c0,0.201-0.069,0.352-0.209,0.452c-0.141,0.1-0.272,0.151-0.398,0.151
					c-0.124,0-0.255-0.05-0.395-0.151C296.926,28.255,296.857,28.105,296.857,27.904z"/>
				<path fill="#FFFFFF" d="M306.268,35.172c-0.608,0.205-1.188,0.309-1.738,0.309c-0.547,0-1.032-0.127-1.459-0.379
					c-0.424-0.252-0.756-0.595-0.992-1.024c-0.237-0.433-0.355-0.923-0.355-1.474c0-0.827,0.27-1.514,0.809-2.061
					c0.537-0.547,1.188-0.82,1.949-0.82c0.563,0,1.16,0.106,1.787,0.317v0.874c-0.635-0.29-1.203-0.435-1.703-0.435
					c-0.332,0-0.646,0.082-0.938,0.247s-0.521,0.421-0.679,0.769c-0.159,0.348-0.239,0.707-0.239,1.073
					c0,0.492,0.153,0.961,0.461,1.406c0.31,0.446,0.791,0.67,1.448,0.67c0.197,0,0.394-0.015,0.586-0.041
					c0.191-0.028,0.547-0.131,1.064-0.307V35.172L306.268,35.172z"/>
				<path fill="#FFFFFF" d="M312.414,34.965c-0.727,0.344-1.413,0.516-2.061,0.516c-0.492,0-0.932-0.123-1.318-0.366
					c-0.387-0.244-0.697-0.593-0.93-1.046c-0.233-0.454-0.351-0.939-0.351-1.457c0-0.499,0.11-0.977,0.332-1.435
					c0.222-0.459,0.53-0.816,0.929-1.071c0.396-0.255,0.84-0.383,1.327-0.383c0.647,0,1.169,0.231,1.562,0.692
					c0.392,0.461,0.588,1.173,0.588,2.135v0.195h-3.76c0,0.378,0.078,0.726,0.235,1.038c0.158,0.312,0.366,0.548,0.623,0.705
					c0.257,0.156,0.55,0.234,0.88,0.234c0.586,0,1.232-0.195,1.942-0.589L312.414,34.965L312.414,34.965z M308.786,32.066h2.72
					v-0.131c0-0.445-0.109-0.798-0.326-1.061c-0.219-0.263-0.511-0.395-0.875-0.395c-0.367,0-0.686,0.134-0.955,0.401
					C309.082,31.149,308.895,31.544,308.786,32.066z"/>
			</g>
		</g>
	</g>
	<g>
		<path fill="none" stroke="#FFFFFF" stroke-miterlimit="10" d="M447.749,15.947c-4.518,0-8.592,1.873-11.509,4.875
			c-2.917-3.003-6.992-4.875-11.509-4.875c-4.519,0-8.593,1.873-11.511,4.875c-2.917-3.003-6.99-4.875-11.509-4.875
			c-8.866,0-16.053,7.188-16.053,16.053s7.187,16.053,16.053,16.053c4.519,0,8.592-1.873,11.509-4.875
			c2.918,3.002,6.992,4.875,11.511,4.875c4.517,0,8.592-1.873,11.509-4.875c2.917,3.002,6.991,4.875,11.509,4.875
			c8.865,0,16.053-7.188,16.053-16.053S456.614,15.947,447.749,15.947z"/>
		<g>
			<g>
				<path fill="#FFFFFF" d="M405.221,34.812c-0.727,0.342-1.414,0.514-2.061,0.514c-0.492,0-0.933-0.121-1.318-0.365
					c-0.389-0.244-0.697-0.593-0.93-1.047c-0.234-0.453-0.35-0.939-0.35-1.456c0-0.498,0.108-0.976,0.331-1.434
					c0.222-0.459,0.529-0.816,0.929-1.071c0.396-0.255,0.84-0.383,1.328-0.383c0.646,0,1.168,0.231,1.561,0.692
					c0.391,0.461,0.588,1.173,0.588,2.135v0.195h-3.76c0,0.379,0.078,0.725,0.236,1.038c0.157,0.313,0.364,0.548,0.623,0.705
					c0.256,0.157,0.549,0.235,0.879,0.235c0.586,0,1.231-0.196,1.942-0.588L405.221,34.812L405.221,34.812z M401.592,31.914h2.722
					v-0.131c0-0.445-0.109-0.798-0.328-1.061c-0.218-0.263-0.511-0.395-0.873-0.395c-0.369,0-0.687,0.134-0.955,0.401
					C401.889,30.996,401.699,31.391,401.592,31.914z"/>
				<path fill="#FFFFFF" d="M406.885,35.176v-5.455h0.908v1.191c0.262-0.42,0.574-0.749,0.943-0.986
					c0.366-0.238,0.733-0.356,1.104-0.356c0.322,0,0.615,0.085,0.879,0.256c0.265,0.171,0.447,0.395,0.556,0.671
					c0.104,0.277,0.157,0.82,0.157,1.631v3.047h-0.907v-3.16c0-0.524-0.025-0.87-0.076-1.038s-0.144-0.305-0.277-0.413
					c-0.137-0.107-0.283-0.161-0.443-0.161c-0.317,0-0.659,0.151-1.026,0.454c-0.365,0.303-0.668,0.682-0.906,1.138v3.179h-0.91
					V35.176z"/>
				<path fill="#FFFFFF" d="M416.734,33.949c-0.277,0.455-0.611,0.799-1,1.031c-0.392,0.229-0.748,0.346-1.074,0.346
					c-0.455,0-0.865-0.196-1.229-0.59c-0.362-0.396-0.545-0.992-0.545-1.793c0-0.63,0.119-1.194,0.361-1.691
					c0.24-0.497,0.563-0.889,0.969-1.177c0.405-0.288,0.904-0.432,1.5-0.432c0.174,0,0.435,0.018,0.783,0.054
					c0.051,0.006,0.129,0.015,0.234,0.024v-2.427h0.907v7.881h-0.907L416.734,33.949L416.734,33.949z M416.734,32.869v-2.342
					c-0.324-0.084-0.623-0.127-0.9-0.127c-0.561,0-1.027,0.217-1.402,0.65c-0.373,0.434-0.559,1.023-0.559,1.771
					c0,0.541,0.102,0.949,0.305,1.225c0.205,0.275,0.438,0.412,0.697,0.412c0.283,0,0.598-0.143,0.939-0.43
					C416.155,33.74,416.463,33.354,416.734,32.869z"/>
				<path fill="#FFFFFF" d="M420.127,30.947c0.279-0.456,0.613-0.799,1-1.031c0.389-0.231,0.744-0.347,1.07-0.347
					c0.455,0,0.865,0.197,1.229,0.591c0.363,0.394,0.547,0.991,0.547,1.792c0,0.631-0.12,1.196-0.364,1.692
					c-0.242,0.496-0.564,0.889-0.97,1.176c-0.401,0.289-0.901,0.434-1.498,0.434c-0.17,0-0.43-0.02-0.78-0.055
					c-0.054-0.006-0.131-0.014-0.234-0.023v2.119h-0.908v-7.574h0.908V30.947L420.127,30.947z M420.127,32.028v2.341
					c0.328,0.085,0.631,0.127,0.908,0.127c0.549,0,1.012-0.215,1.389-0.646c0.375-0.433,0.564-1.022,0.564-1.772
					c0-0.544-0.104-0.953-0.31-1.227s-0.438-0.411-0.696-0.411c-0.283,0-0.597,0.144-0.937,0.43
					C420.707,31.156,420.4,31.542,420.127,32.028z"/>
				<path fill="#FFFFFF" d="M427.73,35.326c-0.779,0-1.404-0.271-1.873-0.817c-0.468-0.546-0.701-1.233-0.701-2.063
					s0.233-1.517,0.701-2.061c0.469-0.543,1.094-0.815,1.873-0.815c0.776,0,1.399,0.272,1.868,0.815
					c0.47,0.543,0.703,1.23,0.703,2.061c0,0.83-0.233,1.517-0.703,2.063C429.13,35.055,428.508,35.326,427.73,35.326z M427.73,34.57
					c0.483,0,0.87-0.189,1.155-0.566c0.287-0.378,0.431-0.896,0.431-1.558c0-0.658-0.144-1.175-0.431-1.553
					c-0.285-0.377-0.672-0.566-1.155-0.566c-0.486,0-0.873,0.189-1.16,0.566c-0.285,0.377-0.429,0.895-0.429,1.553
					c0,0.662,0.144,1.18,0.429,1.558C426.857,34.381,427.244,34.57,427.73,34.57z"/>
				<path fill="#FFFFFF" d="M433.217,35.176v-4.698h-1.514v-0.757h2.422v4.697h1.52v0.758H433.217z M433.07,27.751
					c0-0.204,0.069-0.356,0.209-0.457c0.141-0.101,0.271-0.151,0.395-0.151c0.127,0,0.26,0.05,0.398,0.151
					c0.141,0.101,0.209,0.253,0.209,0.457c0,0.201-0.068,0.352-0.209,0.452c-0.14,0.101-0.271,0.151-0.398,0.151
					c-0.123,0-0.254-0.05-0.395-0.151C433.141,28.103,433.07,27.952,433.07,27.751z"/>
				<path fill="#FFFFFF" d="M437.891,35.176v-5.455h0.908v1.191c0.26-0.42,0.574-0.749,0.941-0.986
					c0.369-0.238,0.735-0.356,1.104-0.356c0.322,0,0.615,0.085,0.879,0.256c0.265,0.171,0.449,0.395,0.556,0.671
					c0.105,0.276,0.157,0.82,0.157,1.631v3.047h-0.907v-3.16c0-0.524-0.025-0.87-0.076-1.038c-0.049-0.167-0.144-0.305-0.277-0.413
					s-0.283-0.161-0.44-0.161c-0.32,0-0.662,0.151-1.029,0.454c-0.365,0.303-0.668,0.682-0.904,1.138v3.179h-0.91V35.176z"/>
				<path fill="#FFFFFF" d="M448.652,34.955c-0.429,0.18-0.736,0.286-0.929,0.32c-0.192,0.033-0.379,0.051-0.557,0.051
					c-0.381,0-0.73-0.072-1.045-0.219c-0.316-0.146-0.555-0.363-0.717-0.65c-0.16-0.286-0.24-0.729-0.24-1.328v-2.197h-1.363v-0.757
					h1.363v-2.197h0.908v2.197h2.426v0.757h-2.426v2.183c0,0.439,0.051,0.749,0.155,0.93c0.104,0.182,0.242,0.312,0.416,0.398
					c0.177,0.084,0.382,0.127,0.619,0.127c0.439,0,0.9-0.139,1.388-0.416L448.652,34.955L448.652,34.955z"/>
			</g>
		</g>
	</g>
	<g>
		<path fill="none" stroke="#FFFFFF" stroke-miterlimit="10" d="M110.286,15.947c-4.518,0-8.592,1.873-11.508,4.875
			c-2.918-3.003-6.992-4.875-11.51-4.875s-8.592,1.873-11.51,4.875c-2.916-3.003-6.99-4.875-11.508-4.875
			c-8.867,0-16.053,7.188-16.053,16.053s7.186,16.053,16.053,16.053c4.518,0,8.592-1.873,11.508-4.875
			c2.918,3.002,6.992,4.875,11.51,4.875s8.592-1.873,11.51-4.875c2.916,3.002,6.99,4.875,11.508,4.875
			c8.865,0,16.053-7.188,16.053-16.053S119.151,15.947,110.286,15.947z"/>
		<g>
			<g>
				<path fill="#FFFFFF" d="M74.012,35.02c-0.608,0.205-1.188,0.308-1.738,0.308c-0.547,0-1.032-0.125-1.458-0.378
					c-0.424-0.254-0.756-0.596-0.993-1.025c-0.237-0.43-0.356-0.922-0.356-1.472c0-0.827,0.27-1.514,0.809-2.061
					c0.538-0.547,1.188-0.82,1.95-0.82c0.563,0,1.159,0.106,1.787,0.317v0.874c-0.635-0.29-1.203-0.435-1.704-0.435
					c-0.332,0-0.645,0.082-0.938,0.247s-0.52,0.421-0.679,0.769c-0.159,0.348-0.239,0.707-0.239,1.074
					c0,0.492,0.154,0.96,0.461,1.406c0.309,0.446,0.791,0.67,1.448,0.67c0.198,0,0.394-0.015,0.586-0.042
					c0.192-0.028,0.547-0.131,1.064-0.307V35.02z"/>
				<path fill="#FFFFFF" d="M79.208,33.955c-0.276,0.454-0.609,0.796-0.999,1.025c-0.389,0.229-0.746,0.346-1.071,0.346
					c-0.456,0-0.866-0.196-1.229-0.59c-0.363-0.396-0.545-0.992-0.545-1.793c0-0.63,0.12-1.194,0.361-1.691
					c0.241-0.497,0.564-0.889,0.969-1.177c0.403-0.288,0.904-0.432,1.5-0.432c0.173,0,0.434,0.018,0.781,0.054
					c0.052,0.006,0.13,0.015,0.233,0.024h0.911v3.851c0,0.658,0.07,1.193,0.21,1.604h-0.947
					C79.31,34.877,79.251,34.471,79.208,33.955z M79.212,32.869v-2.342c-0.323-0.084-0.623-0.127-0.9-0.127
					c-0.561,0-1.027,0.217-1.401,0.65c-0.373,0.434-0.56,1.023-0.56,1.771c0,0.541,0.102,0.949,0.306,1.225
					c0.204,0.275,0.437,0.412,0.697,0.412c0.283,0,0.597-0.143,0.938-0.43C78.635,33.74,78.942,33.354,79.212,32.869z"/>
				<path fill="#FFFFFF" d="M83.29,35.176v-7.125h-1.631v-0.757h2.539v7.124h1.704v0.758H83.29z"/>
				<path fill="#FFFFFF" d="M89.49,35.176v-7.125h-1.631v-0.757h2.539v7.124h1.704v0.758H89.49z"/>
				<path fill="#FFFFFF" d="M98.762,34.812c-0.726,0.342-1.413,0.514-2.061,0.514c-0.491,0-0.931-0.121-1.318-0.365
					c-0.387-0.244-0.697-0.593-0.93-1.047c-0.233-0.453-0.35-0.939-0.35-1.456c0-0.498,0.11-0.976,0.332-1.434
					c0.222-0.459,0.53-0.816,0.928-1.071c0.397-0.255,0.84-0.383,1.328-0.383c0.647,0,1.168,0.231,1.561,0.692
					c0.392,0.461,0.588,1.173,0.588,2.135v0.195h-3.76c0,0.379,0.079,0.725,0.236,1.038c0.158,0.313,0.366,0.548,0.623,0.705
					s0.55,0.235,0.879,0.235c0.586,0,1.233-0.196,1.943-0.588L98.762,34.812L98.762,34.812z M95.134,31.914h2.72v-0.131
					c0-0.445-0.109-0.798-0.327-1.061c-0.218-0.263-0.51-0.395-0.874-0.395c-0.368,0-0.686,0.134-0.955,0.401
					C95.43,30.996,95.242,31.391,95.134,31.914z"/>
				<path fill="#FFFFFF" d="M100.891,35.176v-5.455h0.908v1.191c0.283-0.449,0.607-0.785,0.975-1.008
					c0.365-0.223,0.773-0.334,1.223-0.334c0.329,0,0.657,0.05,0.986,0.151v1.968h-0.874v-1.245
					c-0.153-0.026-0.273-0.039-0.361-0.039c-0.339,0-0.671,0.133-0.996,0.4c-0.325,0.267-0.643,0.667-0.952,1.201v3.169
					L100.891,35.176L100.891,35.176z"/>
			</g>
		</g>
	</g>
	<g>
		<g>
			<line fill="none" stroke="#FFFFFF" stroke-miterlimit="10" x1="163.243" y1="32.153" x2="126.561" y2="32.153"/>
			<g>
				<polygon fill="#FFFFFF" points="159.929,28.063 159.247,28.796 162.859,32.152 159.247,35.51 159.929,36.242 164.327,32.152 
									"/>
			</g>
		</g>
	</g>
	<g>
		<g>
			<line fill="none" stroke="#FFFFFF" stroke-miterlimit="10" x1="348.594" y1="35.328" x2="351.594" y2="35.328"/>
			
				<line fill="none" stroke="#FFFFFF" stroke-miterlimit="10" stroke-dasharray="5.4145,3.6097" x1="355.203" y1="35.328" x2="380.471" y2="35.328"/>
			<line fill="none" stroke="#FFFFFF" stroke-miterlimit="10" x1="382.275" y1="35.328" x2="385.275" y2="35.328"/>
			<g>
				<polygon fill="#FFFFFF" points="351.906,39.418 352.589,38.686 348.977,35.329 352.589,31.972 351.906,31.239 347.509,35.329 
									"/>
			</g>
		</g>
	</g>
</g>
</svg>
