<?xml version="1.0" encoding="utf-8"?>
<!-- Generator: Adobe Illustrator 16.0.4, SVG Export Plug-In . SVG Version: 6.00 Build 0)  -->
<!DOCTYPE svg PUBLIC "-//W3C//DTD SVG 1.0//EN" "http://www.w3.org/TR/2001/REC-SVG-20010904/DTD/svg10.dtd">
<svg version="1.0" id="Layer_1" xmlns="http://www.w3.org/2000/svg" xmlns:xlink="http://www.w3.org/1999/xlink" x="0px" y="0px"
	 width="512px" height="64px" viewBox="0 0 512 64" enable-background="new 0 0 512 64" xml:space="preserve">
<rect fill="#3AD1CA" width="512" height="64"/>
<g>
	<line fill="none" stroke="#FFFFFF" stroke-miterlimit="10" x1="235.416" y1="32.152" x2="196.929" y2="32.152"/>
	<g>
		<g>
			<line fill="none" stroke="#FFFFFF" stroke-miterlimit="10" x1="383.857" y1="32.152" x2="353.823" y2="32.152"/>
			<g>
				<polygon fill="#FFFFFF" points="380.545,28.062 379.862,28.795 383.475,32.151 379.862,35.509 380.545,36.241 384.942,32.151 
									"/>
			</g>
		</g>
	</g>
	<g>
		<circle fill="none" stroke="#FFFFFF" stroke-miterlimit="10" cx="180.876" cy="32" r="16.052"/>
		<g>
			<text transform="matrix(1 0 0 1 172.166 35.0781)" fill="#FFFFFF" font-family="'Monaco'" font-size="10">api</text>
		</g>
	</g>
	<g>
		<rect x="235.416" y="22.11" fill="none" stroke="#FFFFFF" stroke-miterlimit="10" width="111.76" height="19.778"/>
		<g>
			<text transform="matrix(1 0 0 1 269.915 35.3281)" fill="#FFFFFF" font-family="'Monaco'" font-size="10">service</text>
		</g>
	</g>
	<g>
		<path fill="none" stroke="#FFFFFF" stroke-miterlimit="10" d="M447.749,15.947c-4.518,0-8.592,1.872-11.509,4.875
			c-2.917-3.003-6.992-4.875-11.509-4.875c-4.518,0-8.592,1.872-11.51,4.875c-2.917-3.003-6.991-4.875-11.509-4.875
			c-8.866,0-16.053,7.188-16.053,16.053s7.187,16.053,16.053,16.053c4.518,0,8.592-1.873,11.509-4.876
			c2.918,3.003,6.992,4.876,11.51,4.876c4.517,0,8.592-1.873,11.509-4.876c2.917,3.003,6.991,4.876,11.509,4.876
			c8.865,0,16.053-7.188,16.053-16.053S456.614,15.947,447.749,15.947z"/>
		<g>
			<text transform="matrix(1 0 0 1 399.9277 35.1748)" fill="#FFFFFF" font-family="'Monaco'" font-size="10">endpoint</text>
		</g>
	</g>
	<g>
		<path fill="none" stroke="#FFFFFF" stroke-miterlimit="10" d="M110.286,15.947c-4.518,0-8.592,1.872-11.508,4.875
			c-2.918-3.003-6.992-4.875-11.51-4.875s-8.592,1.872-11.51,4.875c-2.916-3.003-6.99-4.875-11.508-4.875
			c-8.867,0-16.053,7.188-16.053,16.053s7.186,16.053,16.053,16.053c4.518,0,8.592-1.873,11.508-4.876
			c2.918,3.003,6.992,4.876,11.51,4.876s8.592-1.873,11.51-4.876c2.916,3.003,6.99,4.876,11.508,4.876
			c8.865,0,16.053-7.188,16.053-16.053S119.151,15.947,110.286,15.947z"/>
		<g>
			<text transform="matrix(1 0 0 1 68.6655 35.1748)" fill="#FFFFFF" font-family="'Monaco'" font-size="10">caller</text>
		</g>
	</g>
	<g>
		<g>
			<line fill="none" stroke="#FFFFFF" stroke-miterlimit="10" x1="163.243" y1="32.152" x2="126.561" y2="32.152"/>
			<g>
				<polygon fill="#FFFFFF" points="159.929,28.062 159.247,28.795 162.859,32.151 159.247,35.509 159.929,36.241 164.327,32.151 
									"/>
			</g>
		</g>
	</g>
	<rect x="347.176" y="26.265" fill="none" stroke="#FFFFFF" stroke-miterlimit="10" width="6.647" height="11.47"/>
</g>
</svg>
