<?xml version="1.0" encoding="utf-8"?>
<!-- Generator: Adobe Illustrator 16.0.4, SVG Export Plug-In . SVG Version: 6.00 Build 0)  -->
<!DOCTYPE svg PUBLIC "-//W3C//DTD SVG 1.0//EN" "http://www.w3.org/TR/2001/REC-SVG-20010904/DTD/svg10.dtd">
<svg version="1.0" id="Layer_1" xmlns="http://www.w3.org/2000/svg" xmlns:xlink="http://www.w3.org/1999/xlink" x="0px" y="0px"
	 width="792px" height="612px" viewBox="0 0 792 612" enable-background="new 0 0 792 612" xml:space="preserve">
<g>
	<defs>
		<rect id="SVGID_1_" width="792" height="612"/>
	</defs>
	<clipPath id="SVGID_2_">
		<use xlink:href="#SVGID_1_"  overflow="visible"/>
	</clipPath>
	<g clip-path="url(#SVGID_2_)">
		<defs>
			<rect id="SVGID_3_" width="792" height="612"/>
		</defs>
		<clipPath id="SVGID_4_">
			<use xlink:href="#SVGID_3_"  overflow="visible"/>
		</clipPath>
		<g clip-path="url(#SVGID_4_)">
			<g>
				<defs>
					<rect id="SVGID_5_" x="314.582" y="337.166" width="157.602" height="16.542"/>
				</defs>
				<clipPath id="SVGID_6_">
					<use xlink:href="#SVGID_5_"  overflow="visible"/>
				</clipPath>
				<path clip-path="url(#SVGID_6_)" fill="#606060" d="M322.966,337.613c2.123,0,3.889,0.133,5.252,1.408
					c1.207,1.117,1.454,2.524,1.454,3.731c0,1.252-0.224,2.572-1.275,3.711c-1.431,1.543-3.442,1.633-5.7,1.633h-4.002v5.163h-4.112
					v-15.646H322.966z M318.695,345.057h3.711c0.782,0,1.878-0.111,2.436-0.648c0.336-0.312,0.582-0.894,0.582-1.61
					c0-0.781-0.313-1.296-0.76-1.608c-0.157-0.112-0.715-0.447-2.012-0.447h-3.957V345.057z"/>
				<polygon clip-path="url(#SVGID_6_)" fill="#606060" points="347.181,353.261 334.506,353.261 334.506,337.613 338.619,337.613 
					338.619,350.086 347.181,350.086 				"/>
				<path clip-path="url(#SVGID_6_)" fill="#606060" d="M355.111,353.26h-4.292l7.018-15.646h4.047l7.019,15.646h-4.292
					l-1.364-3.173h-6.773L355.111,353.26z M362.264,347.404l-2.414-5.857l-2.37,5.857H362.264z"/>
				<polygon clip-path="url(#SVGID_6_)" fill="#606060" points="369.733,340.742 369.733,337.613 384.754,337.613 384.754,340.742 
					379.3,340.742 379.3,353.261 375.187,353.261 375.187,340.742 				"/>
				<polygon clip-path="url(#SVGID_6_)" fill="#606060" points="401.238,344.141 401.238,347.09 393.414,347.09 393.414,353.26 
					389.302,353.26 389.302,337.613 402.938,337.613 402.938,340.742 393.414,340.742 393.414,344.141 				"/>
				<path clip-path="url(#SVGID_6_)" fill="#606060" d="M422.706,351.428c-1.186,1.051-3.264,2.279-6.841,2.279
					c-3.576,0-5.655-1.229-6.84-2.279c-2.102-1.878-2.459-4.158-2.459-5.991s0.357-4.114,2.459-5.991
					c1.185-1.05,3.264-2.279,6.84-2.279c3.577,0,5.655,1.229,6.841,2.279c2.101,1.877,2.459,4.158,2.459,5.991
					S424.807,349.55,422.706,351.428 M412.468,341.503c-1.297,1.272-1.431,3.04-1.431,3.934s0.134,2.66,1.431,3.934
					c1.073,1.052,2.347,1.207,3.397,1.207s2.325-0.155,3.398-1.207c1.296-1.273,1.431-3.04,1.431-3.934s-0.135-2.661-1.431-3.934
					c-1.073-1.052-2.348-1.208-3.398-1.208S413.541,340.451,412.468,341.503"/>
				<path clip-path="url(#SVGID_6_)" fill="#606060" d="M430.511,337.613h9.255c1.542,0,3.777,0.11,5.074,1.408
					c0.916,0.916,1.073,2.122,1.073,2.973c0,1.05-0.246,2.011-1.028,2.771c-0.537,0.536-1.297,0.916-2.012,1.096v0.09
					c0.646,0.111,1.363,0.425,1.833,0.938c0.737,0.761,0.737,1.566,0.782,2.37l0.111,1.767c0.045,0.76,0.156,1.407,0.648,2.234
					h-4.359c-0.492-0.692-0.559-1.229-0.604-1.988l-0.066-1.298c-0.045-0.961-0.358-1.587-0.738-1.899
					c-0.447-0.38-1.296-0.56-2.012-0.56h-3.845v5.745h-4.113V337.613z M434.624,344.565h4.359c0.692,0,1.587-0.046,2.168-0.626
					c0.245-0.246,0.514-0.693,0.514-1.343c0-0.804-0.402-1.296-0.76-1.519c-0.491-0.314-1.52-0.336-1.968-0.336h-4.313V344.565z"/>
				<polygon clip-path="url(#SVGID_6_)" fill="#606060" points="455.708,341.614 455.552,341.614 455.708,342.933 455.708,353.26 
					451.596,353.26 451.596,337.613 457.407,337.613 461.833,348.968 461.945,348.968 466.371,337.613 472.184,337.613 
					472.184,353.26 468.07,353.26 468.07,342.933 468.227,341.614 468.07,341.614 463.376,353.26 460.402,353.26 				"/>
			</g>
		</g>
		<path clip-path="url(#SVGID_4_)" fill="#464646" d="M252.779,319.89h-27.822v-59.217h26.319c14.945,0,21.337,6.391,21.337,16.073
			c0,6.673-4.512,11.373-10.904,12.407c7.144,1.316,12.69,6.015,12.69,14.476C274.399,313.875,266.597,319.89,252.779,319.89
			 M236.425,285.299h14.099c7.049,0,10.057-3.101,10.057-7.519s-3.008-7.613-10.057-7.613h-14.099V285.299z M236.425,294.229v16.168
			h15.039c7.331,0,10.903-3.103,10.903-7.99c0-4.983-3.572-8.178-10.903-8.178H236.425z"/>
		<path clip-path="url(#SVGID_4_)" fill="#464646" d="M316.528,309.833c0,2.162,1.128,3.196,2.914,3.196
			c1.127,0,2.256-0.282,3.478-0.848v6.017c-1.786,1.409-4.042,2.633-7.802,2.633c-4.699,0-8.272-3.008-9.117-7.991
			c-2.35,4.888-7.614,8.084-14.476,8.084c-7.896,0-13.16-4.229-13.16-11.373c0-7.896,6.205-11.186,15.792-12.972l11.373-2.162
			v-1.222c0-4.606-2.443-7.426-7.237-7.426c-4.7,0-7.238,2.82-8.177,6.862l-10.247-0.94c1.411-8.459,7.896-14.381,18.893-14.381
			c10.716,0,17.766,5.075,17.766,15.979V309.833z M305.53,300.527l-7.801,1.599c-5.17,1.033-8.365,2.349-8.365,6.203
			c0,2.914,2.067,5.076,5.733,5.076c5.921,0,10.433-4.418,10.433-11.468V300.527z"/>
		<path clip-path="url(#SVGID_4_)" fill="#464646" d="M408.928,306.073c-2.067,9.399-9.398,14.945-20.021,14.945
			c-12.784,0-21.995-8.179-21.995-21.243c0-13.066,9.306-22.465,21.713-22.465c13.535,0,20.491,9.399,20.491,20.679v3.572h-31.113
			c0.376,6.767,5.171,10.903,11.28,10.903c5.546,0,8.93-2.442,10.527-7.331L408.928,306.073z M398.119,295.638
			c-0.188-5.357-3.29-10.057-9.588-10.057c-6.204,0-9.682,4.512-10.339,10.057H398.119z"/>
		<path clip-path="url(#SVGID_4_)" fill="#464646" d="M444.292,289.529c-2.162-1.222-4.042-1.785-6.768-1.785
			c-5.828,0-9.775,4.135-9.775,11.654v20.492H416.47v-41.452h11.279v7.896c1.504-4.701,5.827-9.024,11.562-9.024
			c2.537,0,4.605,0.658,5.827,1.692L444.292,289.529z"/>
		<path clip-path="url(#SVGID_4_)" fill="#464646" d="M449.886,260.673h11.563v10.997h-11.563V260.673z M461.354,319.89h-11.279
			v-41.452h11.279V319.89z"/>
		<path clip-path="url(#SVGID_4_)" fill="#464646" d="M481.921,319.891h-11.279v-41.453h11.279v6.767
			c2.067-4.7,7.331-7.895,13.535-7.895c11.091,0,15.133,7.519,15.133,16.73v25.851H499.31v-23.594
			c0-6.391-2.538-10.056-8.084-10.056c-5.733,0-9.305,4.511-9.305,11.466V319.891z"/>
		<path clip-path="url(#SVGID_4_)" fill="#464646" d="M555.418,309.833c0,2.162,1.128,3.196,2.914,3.196
			c1.128,0,2.256-0.282,3.478-0.848v6.017c-1.786,1.409-4.042,2.633-7.802,2.633c-4.7,0-8.273-3.008-9.118-7.991
			c-2.35,4.888-7.614,8.084-14.475,8.084c-7.896,0-13.159-4.229-13.159-11.373c0-7.896,6.203-11.186,15.791-12.972l11.373-2.162
			v-1.222c0-4.606-2.444-7.426-7.237-7.426c-4.701,0-7.238,2.82-8.178,6.862l-10.245-0.94c1.409-8.459,7.896-14.381,18.893-14.381
			c10.716,0,17.766,5.075,17.766,15.979V309.833z M544.42,300.527l-7.802,1.599c-5.17,1.033-8.365,2.349-8.365,6.203
			c0,2.914,2.068,5.076,5.733,5.076c5.922,0,10.434-4.418,10.434-11.468V300.527z"/>
		<polygon clip-path="url(#SVGID_4_)" fill="#464646" points="327.832,276.07 327.832,258.971 342.147,258.971 342.147,281.545 		
			"/>
		<polygon clip-path="url(#SVGID_4_)" fill="#464646" points="327.832,281.422 337.63,285.169 327.832,288.917 		"/>
		<polygon clip-path="url(#SVGID_4_)" fill="#464646" points="342.148,288.794 342.148,297.076 335.188,319.891 327.832,319.891 
			327.832,294.271 		"/>
		<polygon clip-path="url(#SVGID_4_)" fill="#464646" points="361.426,276.07 361.426,258.971 347.109,258.971 347.109,281.545 		
			"/>
		<polygon clip-path="url(#SVGID_4_)" fill="#464646" points="361.426,281.422 351.627,285.169 361.426,288.917 		"/>
		<polygon clip-path="url(#SVGID_4_)" fill="#464646" points="347.109,288.794 347.109,297.076 354.069,319.891 361.426,319.891 
			361.426,294.271 		"/>
	</g>
</g>
</svg>
