<?xml version="1.0" encoding="utf-8"?>
<!-- Generator: Adobe Illustrator 16.0.4, SVG Export Plug-In . SVG Version: 6.00 Build 0)  -->
<!DOCTYPE svg PUBLIC "-//W3C//DTD SVG 1.1//EN" "http://www.w3.org/Graphics/SVG/1.1/DTD/svg11.dtd">
<svg version="1.1" id="Layer_1" xmlns="http://www.w3.org/2000/svg" xmlns:xlink="http://www.w3.org/1999/xlink" x="0px" y="0px"
	 width="452.664px" height="497px" viewBox="0 0 452.664 497" enable-background="new 0 0 452.664 497" xml:space="preserve">
<g>
	<rect x="-0.578" y="-0.312" fill="#F5F6F6" width="453.82" height="497.625"/>
	<rect x="-0.075" y="96.938" fill="#FFFFFF" width="452.814" height="303.123"/>
	<g>
		<path fill="#696C71" d="M434.574,297.414c0,1.015-0.354,1.826-1.062,2.435c-0.709,0.609-1.604,0.913-2.683,0.913
			s-1.972-0.304-2.679-0.913c-0.707-0.608-1.061-1.42-1.061-2.435c0-1.011,0.354-1.82,1.061-2.429
			c0.707-0.609,1.6-0.913,2.679-0.913s1.974,0.304,2.683,0.913C434.22,295.594,434.574,296.403,434.574,297.414z M433.59,297.414
			c0-0.63-0.245-1.131-0.736-1.502c-0.49-0.372-1.166-0.559-2.024-0.559c-0.854,0-1.528,0.187-2.019,0.559
			c-0.49,0.371-0.736,0.872-0.736,1.502c0,0.634,0.246,1.137,0.736,1.508c0.49,0.372,1.164,0.559,2.019,0.559
			c0.858,0,1.534-0.187,2.024-0.559C433.345,298.551,433.59,298.048,433.59,297.414z"/>
		<path fill="#696C71" d="M428.881,291.19c-0.592-0.363-1.039-0.797-1.34-1.301s-0.451-0.967-0.451-1.391
			c0-0.592,0.256-1.125,0.769-1.6c0.513-0.474,1.288-0.711,2.329-0.711c0.821,0,1.555,0.158,2.199,0.474
			c0.646,0.315,1.156,0.735,1.531,1.26c0.373,0.524,0.561,1.175,0.561,1.948c0,0.221-0.023,0.559-0.069,1.016
			c-0.009,0.068-0.019,0.17-0.032,0.305v1.182h-10.244v-1.182H428.881z M430.285,291.19h3.045c0.109-0.427,0.165-0.82,0.165-1.18
			c0-0.716-0.28-1.317-0.843-1.807c-0.561-0.488-1.328-0.732-2.303-0.732c-0.708,0-1.24,0.133-1.596,0.399s-0.533,0.569-0.533,0.907
			c0,0.369,0.186,0.773,0.559,1.216S429.654,290.835,430.285,291.19z"/>
		<path fill="#696C71" d="M434.003,284.151h-1.251c0.31-0.474,0.526-0.976,0.65-1.504c0.125-0.529,0.188-0.979,0.188-1.346
			c0-0.598-0.096-1.026-0.289-1.289c-0.191-0.263-0.432-0.394-0.72-0.394c-0.19,0-0.354,0.062-0.489,0.185
			c-0.135,0.122-0.303,0.427-0.501,0.914l-0.165,0.406l-0.324,0.818c-0.342,0.88-0.66,1.435-0.951,1.663
			c-0.288,0.232-0.64,0.349-1.055,0.349c-0.584,0-1.064-0.225-1.44-0.677c-0.376-0.451-0.565-1.183-0.565-2.195
			c0-0.759,0.11-1.477,0.33-2.155h1.073c-0.279,0.78-0.419,1.514-0.419,2.2c0,0.501,0.088,0.892,0.264,1.174
			c0.176,0.281,0.395,0.423,0.656,0.423c0.254,0,0.457-0.123,0.609-0.369c0.152-0.24,0.328-0.635,0.527-1.182l0.292-0.8
			c0.267-0.733,0.557-1.247,0.87-1.543c0.312-0.295,0.704-0.442,1.174-0.442c0.613,0,1.118,0.236,1.514,0.708
			c0.396,0.472,0.594,1.226,0.594,2.263C434.574,282.264,434.384,283.195,434.003,284.151z"/>
		<path fill="#696C71" d="M433.906,270.289c0.445,0.943,0.668,1.837,0.668,2.679c0,0.639-0.158,1.21-0.476,1.714
			s-0.771,0.906-1.36,1.209s-1.221,0.454-1.893,0.454c-0.647,0-1.27-0.144-1.865-0.432s-1.061-0.689-1.393-1.206
			s-0.498-1.092-0.498-1.727c0-0.842,0.301-1.519,0.9-2.028s1.525-0.765,2.775-0.765h0.254v4.888c0.492,0,0.941-0.103,1.35-0.308
			c0.406-0.205,0.713-0.476,0.916-0.81s0.305-0.715,0.305-1.143c0-0.762-0.254-1.604-0.764-2.526H433.906z M430.137,275.006v-3.536
			h-0.17c-0.578,0-1.038,0.142-1.38,0.425c-0.342,0.284-0.513,0.663-0.513,1.137c0,0.479,0.174,0.892,0.521,1.241
			C428.944,274.621,429.458,274.865,430.137,275.006z"/>
		<path fill="#696C71" d="M434.377,267.534h-7.09v-1.181h1.549c-0.584-0.368-1.021-0.79-1.311-1.267
			c-0.29-0.476-0.436-1.006-0.436-1.59c0-0.428,0.066-0.854,0.197-1.282h2.559v1.137h-1.619c-0.033,0.198-0.051,0.355-0.051,0.469
			c0,0.44,0.174,0.872,0.521,1.295c0.347,0.424,0.868,0.836,1.562,1.238h4.119V267.534z"/>
		<path fill="#696C71" d="M434.377,257.78l-7.09,3.08v-1.295l5.618-2.434l-5.618-2.475v-1.186l7.09,3.104V257.78z"/>
		<path fill="#696C71" d="M432.791,247.38c0.59,0.359,1.035,0.793,1.334,1.299s0.449,0.97,0.449,1.394
			c0,0.593-0.256,1.125-0.768,1.597c-0.513,0.472-1.289,0.708-2.33,0.708c-0.82,0-1.555-0.156-2.199-0.471
			c-0.646-0.313-1.156-0.732-1.529-1.258c-0.375-0.525-0.562-1.176-0.562-1.951c0-0.225,0.023-0.562,0.07-1.015
			c0.008-0.067,0.019-0.169,0.031-0.304v-1.185h5.007c0.855,0,1.55-0.091,2.083-0.273v1.232
			C433.99,247.248,433.461,247.323,432.791,247.38z M431.379,247.375h-3.045c-0.109,0.42-0.164,0.81-0.164,1.17
			c0,0.729,0.281,1.336,0.845,1.822c0.563,0.485,1.331,0.728,2.301,0.728c0.703,0,1.233-0.133,1.592-0.397s0.537-0.566,0.537-0.906
			c0-0.368-0.187-0.775-0.56-1.221S432.01,247.727,431.379,247.375z"/>
		<path fill="#696C71" d="M428.881,242.9c-0.592-0.363-1.039-0.797-1.34-1.301s-0.451-0.967-0.451-1.391
			c0-0.592,0.256-1.125,0.769-1.6c0.513-0.474,1.288-0.711,2.329-0.711c0.821,0,1.555,0.158,2.199,0.474
			c0.646,0.315,1.156,0.735,1.531,1.26c0.373,0.524,0.561,1.175,0.561,1.948c0,0.221-0.023,0.559-0.069,1.016
			c-0.009,0.068-0.019,0.17-0.032,0.305v1.182h-10.244V242.9H428.881z M430.285,242.9h3.045c0.109-0.427,0.165-0.82,0.165-1.18
			c0-0.716-0.28-1.317-0.843-1.807c-0.561-0.488-1.328-0.732-2.303-0.732c-0.708,0-1.24,0.133-1.596,0.399s-0.533,0.569-0.533,0.907
			c0,0.369,0.186,0.773,0.559,1.216S429.654,242.545,430.285,242.9z"/>
		<path fill="#696C71" d="M424.727,234.148c-0.266,0-0.465-0.091-0.596-0.271c-0.13-0.182-0.195-0.353-0.195-0.513
			c0-0.164,0.065-0.337,0.195-0.519c0.131-0.181,0.33-0.271,0.596-0.271c0.261,0,0.457,0.091,0.588,0.271
			c0.13,0.182,0.195,0.354,0.195,0.519c0,0.16-0.065,0.331-0.195,0.513C425.184,234.058,424.987,234.148,424.727,234.148z
			 M434.377,233.958h-6.105v1.968h-0.984v-3.148h6.106v-1.974h0.983V233.958z"/>
		<path fill="#696C71" d="M434.377,225.991h-9.261v2.121h-0.983v-3.301h9.261v-2.216h0.983V225.991z"/>
		<path fill="#696C71" d="M424.727,218.052c-0.266,0-0.465-0.091-0.596-0.271c-0.13-0.182-0.195-0.353-0.195-0.513
			c0-0.164,0.065-0.337,0.195-0.519c0.131-0.181,0.33-0.271,0.596-0.271c0.261,0,0.457,0.091,0.588,0.271
			c0.13,0.182,0.195,0.354,0.195,0.519c0,0.16-0.065,0.331-0.195,0.513C425.184,217.961,424.987,218.052,424.727,218.052z
			 M434.377,217.861h-6.105v1.968h-0.984v-3.148h6.106v-1.974h0.983V217.861z"/>
		<path fill="#696C71" d="M434.092,205.871c0.232,0.554,0.371,0.956,0.416,1.205c0.045,0.25,0.066,0.491,0.066,0.725
			c0,0.494-0.096,0.947-0.285,1.357c-0.191,0.411-0.473,0.721-0.845,0.931c-0.372,0.209-0.948,0.313-1.727,0.313h-2.856v1.771
			h-0.984v-1.771h-2.855v-1.18h2.855v-3.155h0.984v3.155h2.838c0.57,0,0.975-0.068,1.209-0.203c0.234-0.136,0.407-0.316,0.518-0.543
			c0.109-0.227,0.164-0.494,0.164-0.803c0-0.572-0.18-1.173-0.539-1.803H434.092z"/>
		<path fill="#696C71" d="M434.098,201.14l-6.811,3.275v-1.301l5.324-2.608l-5.324-2.179v-1.187l6.59,2.742
			c1.39,0.58,2.312,1.131,2.768,1.654c0.457,0.522,0.685,1.198,0.685,2.028c0,0.359-0.032,0.682-0.095,0.965h-1.041
			c0.102-0.326,0.152-0.637,0.152-0.933c0-0.381-0.074-0.719-0.223-1.016c-0.146-0.296-0.408-0.566-0.783-0.812
			c-0.376-0.245-0.701-0.419-0.975-0.521L434.098,201.14z"/>
	</g>
	<g>
		<path fill="#696C71" d="M22.811,280.126h-1.25c0.309-0.474,0.526-0.976,0.65-1.504c0.125-0.529,0.188-0.979,0.188-1.346
			c0-0.598-0.096-1.026-0.289-1.289c-0.192-0.263-0.433-0.394-0.72-0.394c-0.19,0-0.354,0.062-0.489,0.185
			c-0.135,0.122-0.303,0.427-0.501,0.914l-0.165,0.406l-0.324,0.818c-0.343,0.88-0.66,1.435-0.952,1.663
			c-0.288,0.232-0.639,0.349-1.054,0.349c-0.584,0-1.064-0.225-1.441-0.677c-0.376-0.451-0.565-1.183-0.565-2.195
			c0-0.759,0.11-1.477,0.33-2.155h1.073c-0.279,0.78-0.419,1.514-0.419,2.2c0,0.501,0.088,0.892,0.263,1.174
			c0.176,0.281,0.395,0.423,0.657,0.423c0.254,0,0.457-0.123,0.609-0.369c0.152-0.24,0.328-0.635,0.527-1.182l0.292-0.8
			c0.267-0.733,0.557-1.247,0.87-1.543c0.313-0.295,0.705-0.442,1.174-0.442c0.614,0,1.118,0.236,1.514,0.708
			c0.396,0.472,0.593,1.226,0.593,2.263C23.382,278.238,23.191,279.17,22.811,280.126z"/>
		<path fill="#696C71" d="M22.713,266.264c0.446,0.943,0.668,1.837,0.668,2.679c0,0.639-0.159,1.21-0.476,1.714
			c-0.317,0.504-0.771,0.906-1.36,1.209s-1.221,0.454-1.893,0.454c-0.647,0-1.269-0.144-1.865-0.432s-1.061-0.689-1.392-1.206
			c-0.332-0.517-0.498-1.092-0.498-1.727c0-0.842,0.3-1.519,0.9-2.028s1.525-0.765,2.776-0.765h0.253v4.888
			c0.492,0,0.942-0.103,1.349-0.308s0.713-0.476,0.917-0.81s0.305-0.715,0.305-1.143c0-0.762-0.254-1.604-0.764-2.526H22.713z
			 M18.945,270.98v-3.536h-0.171c-0.578,0-1.038,0.142-1.379,0.425c-0.342,0.284-0.513,0.663-0.513,1.137
			c0,0.479,0.174,0.892,0.522,1.241C17.752,270.596,18.266,270.84,18.945,270.98z"/>
		<path fill="#696C71" d="M22.982,258.145c0.267,0.792,0.4,1.545,0.4,2.26c0,0.711-0.164,1.343-0.492,1.896
			c-0.328,0.552-0.772,0.982-1.333,1.292c-0.561,0.309-1.199,0.463-1.914,0.463c-1.075,0-1.968-0.351-2.679-1.051
			s-1.066-1.545-1.066-2.535c0-0.732,0.138-1.507,0.413-2.324h1.136c-0.376,0.826-0.565,1.564-0.565,2.216
			c0,0.432,0.107,0.838,0.321,1.219c0.213,0.381,0.547,0.675,1,0.882c0.453,0.208,0.918,0.312,1.396,0.312
			c0.639,0,1.249-0.2,1.828-0.6c0.58-0.4,0.87-1.027,0.87-1.882c0-0.259-0.018-0.513-0.054-0.762
			c-0.036-0.25-0.168-0.711-0.397-1.385H22.982z"/>
		<path fill="#696C71" d="M16.095,250.23h7.09v1.181H21.63c0.584,0.381,1.022,0.804,1.314,1.27s0.438,0.931,0.438,1.396
			c0,0.415-0.111,0.795-0.333,1.14c-0.222,0.345-0.514,0.585-0.876,0.72c-0.361,0.136-1.067,0.203-2.117,0.203h-3.961v-1.18h4.107
			c0.681,0,1.131-0.033,1.349-0.099c0.218-0.065,0.397-0.187,0.537-0.362s0.209-0.365,0.209-0.568c0-0.414-0.196-0.859-0.587-1.336
			c-0.392-0.476-0.886-0.87-1.482-1.184h-4.132V250.23z"/>
		<path fill="#696C71" d="M23.185,247.412h-7.09v-1.181h1.549c-0.584-0.368-1.021-0.79-1.311-1.267
			c-0.29-0.476-0.435-1.006-0.435-1.59c0-0.428,0.065-0.854,0.197-1.282h2.558v1.137h-1.619c-0.034,0.198-0.051,0.355-0.051,0.469
			c0,0.44,0.173,0.872,0.521,1.295c0.347,0.424,0.868,0.836,1.562,1.238h4.12V247.412z"/>
		<path fill="#696C71" d="M13.534,238.171c-0.266,0-0.464-0.091-0.595-0.271c-0.13-0.182-0.196-0.353-0.196-0.513
			c0-0.164,0.065-0.337,0.196-0.519c0.131-0.181,0.329-0.271,0.595-0.271c0.261,0,0.457,0.091,0.588,0.271
			c0.13,0.182,0.196,0.354,0.196,0.519c0,0.16-0.065,0.331-0.196,0.513C13.991,238.08,13.795,238.171,13.534,238.171z
			 M23.185,237.98h-6.106v1.968h-0.984V236.8h6.106v-1.974h0.984V237.98z"/>
		<path fill="#696C71" d="M22.899,225.99c0.233,0.554,0.372,0.956,0.416,1.205c0.045,0.25,0.067,0.491,0.067,0.725
			c0,0.494-0.095,0.947-0.286,1.357c-0.19,0.411-0.472,0.721-0.844,0.931c-0.373,0.209-0.948,0.313-1.727,0.313h-2.856v1.771h-0.984
			v-1.771h-2.856v-1.18h2.856v-3.155h0.984v3.155h2.837c0.571,0,0.975-0.068,1.209-0.203c0.235-0.136,0.408-0.316,0.518-0.543
			s0.165-0.494,0.165-0.803c0-0.572-0.18-1.173-0.54-1.803H22.899z"/>
		<path fill="#696C71" d="M22.906,221.259l-6.811,3.275v-1.301l5.324-2.608l-5.324-2.179v-1.187l6.59,2.742
			c1.389,0.58,2.312,1.131,2.768,1.654c0.456,0.522,0.684,1.198,0.684,2.028c0,0.359-0.032,0.682-0.095,0.965h-1.041
			c0.101-0.326,0.152-0.637,0.152-0.933c0-0.381-0.074-0.719-0.222-1.016c-0.147-0.296-0.409-0.566-0.784-0.812
			c-0.375-0.245-0.701-0.419-0.975-0.521L22.906,221.259z"/>
	</g>
	<polygon fill="#696C71" points="229.429,420.454 226.332,425.813 223.235,420.454 	"/>
	
		<line fill="none" stroke="#696C71" stroke-width="0.6735" stroke-miterlimit="10" x1="226.332" y1="421.931" x2="226.332" y2="344.356"/>
	<g>
		<path fill="#F5F6F6" d="M264.397,434.72c-4.938,0-9.389,2.045-12.574,5.325c-3.188-3.28-7.639-5.325-12.57-5.325
			c-0.119,0-0.229,0.015-0.344,0.02c-0.121-0.005-0.232-0.02-0.348-0.02c-4.77,0-9.07,1.917-12.232,5.001
			c-3.158-3.084-7.459-5.001-12.225-5.001c-0.119,0-0.234,0.015-0.354,0.02c-0.113-0.005-0.223-0.02-0.34-0.02
			c-4.932,0-9.385,2.045-12.572,5.325c-3.188-3.28-7.639-5.325-12.572-5.325c-9.689,0-17.539,7.851-17.539,17.536
			c0,9.688,7.85,17.535,17.539,17.535c4.934,0,9.385-2.045,12.572-5.326c3.188,3.281,7.641,5.326,12.572,5.326
			c0.117,0,0.227-0.012,0.34-0.012c0.119,0,0.234,0.012,0.354,0.012c4.766,0,9.066-1.917,12.225-5.003
			c3.162,3.086,7.463,5.003,12.232,5.003c0.115,0,0.227-0.012,0.348-0.012c0.115,0,0.225,0.012,0.344,0.012
			c4.932,0,9.383-2.045,12.57-5.326c3.186,3.281,7.637,5.326,12.574,5.326c9.684,0,17.537-7.848,17.537-17.535
			C281.935,442.57,274.081,434.72,264.397,434.72"/>
		<g>
			<path fill="none" stroke="#696C71" stroke-width="1.2124" stroke-miterlimit="10" d="M264.396,434.72
				c-4.936,0-9.383,2.045-12.572,5.325c-3.188-3.28-7.639-5.325-12.57-5.325c-0.115,0-0.229,0.015-0.344,0.02
				c-0.117-0.005-0.23-0.02-0.352-0.02c-4.764,0-9.064,1.917-12.229,5.006c-3.158-3.089-7.459-5.006-12.229-5.006
				c-0.115,0-0.23,0.015-0.35,0.02c-0.113-0.005-0.223-0.02-0.336-0.02c-4.936,0-9.389,2.045-12.576,5.325
				c-3.188-3.28-7.639-5.325-12.572-5.325c-9.689,0-17.537,7.851-17.537,17.536c0,9.688,7.848,17.535,17.537,17.535
				c4.934,0,9.385-2.04,12.572-5.326c3.188,3.286,7.641,5.326,12.576,5.326c0.113,0,0.223-0.012,0.336-0.012
				c0.119,0,0.234,0.012,0.35,0.012c4.77,0,9.07-1.917,12.229-5.003c3.164,3.086,7.465,5.003,12.229,5.003
				c0.121,0,0.234-0.012,0.352-0.012c0.115,0,0.229,0.012,0.344,0.012c4.932,0,9.383-2.04,12.57-5.326
				c3.189,3.286,7.637,5.326,12.572,5.326c9.686,0,17.539-7.848,17.539-17.535C281.935,442.57,274.081,434.72,264.396,434.72z"/>
			<g>
				<path fill="#696C71" d="M191.263,448.097h5.228v1.199h-3.898v2.111h3.533v1.187h-3.533v2.295h3.898v1.212h-5.228V448.097z"/>
				<path fill="#696C71" d="M205.316,448.097v8.004h-1.043l-4.093-5.827v5.827h-1.304v-8.004h1.277l3.858,5.553v-5.553H205.316z"/>
				<path fill="#696C71" d="M208.001,456.101v-8.004h2.698c1.182,0,2.125,0.362,2.829,1.088s1.056,1.697,1.056,2.914
					s-0.352,2.188-1.056,2.913c-0.704,0.727-1.647,1.089-2.829,1.089H208.001z M209.357,454.889h1.291
					c0.825,0,1.462-0.248,1.909-0.743c0.448-0.496,0.672-1.178,0.672-2.047s-0.224-1.554-0.672-2.054
					c-0.447-0.499-1.084-0.749-1.909-0.749h-1.291V454.889z"/>
				<path fill="#696C71" d="M219.929,453.115h-1.733v2.985h-1.355v-8.004h3.089c0.844,0,1.511,0.217,2.002,0.651
					c0.49,0.435,0.736,1.056,0.736,1.864c0,0.8-0.246,1.417-0.736,1.852C221.44,452.898,220.773,453.115,219.929,453.115z
					 M221.325,450.612c0-0.408-0.122-0.734-0.365-0.978s-0.596-0.365-1.056-0.365h-1.708v2.673h1.708
					c0.451,0,0.802-0.122,1.049-0.365C221.201,451.334,221.325,451.012,221.325,450.612z"/>
				<path fill="#696C71" d="M230.775,449.133c0.695,0.777,1.043,1.767,1.043,2.966s-0.348,2.188-1.043,2.966
					c-0.695,0.777-1.582,1.166-2.66,1.166s-1.961-0.389-2.653-1.166c-0.69-0.778-1.036-1.767-1.036-2.966s0.346-2.188,1.036-2.966
					c0.691-0.777,1.575-1.167,2.653-1.167S230.08,448.355,230.775,449.133z M229.805,454.197c0.43-0.548,0.645-1.247,0.645-2.099
					s-0.215-1.552-0.645-2.099c-0.432-0.548-0.994-0.821-1.689-0.821s-1.256,0.271-1.681,0.814
					c-0.426,0.543-0.639,1.245-0.639,2.105s0.213,1.562,0.639,2.105c0.425,0.543,0.986,0.814,1.681,0.814
					S229.373,454.745,229.805,454.197z"/>
				<path fill="#696C71" d="M235.43,448.097v8.004h-1.355v-8.004H235.43z"/>
				<path fill="#696C71" d="M244.541,448.097v8.004h-1.043l-4.092-5.827v5.827h-1.305v-8.004h1.277l3.859,5.553v-5.553H244.541z"/>
				<path fill="#696C71" d="M246.73,449.296v-1.199h6.676v1.199h-2.66v6.805h-1.355v-6.805H246.73z"/>
				<path fill="#696C71" d="M254.918,453.885h1.383c0.252,0.8,0.855,1.199,1.812,1.199c0.469,0,0.844-0.106,1.127-0.319
					c0.281-0.213,0.424-0.502,0.424-0.867c0-0.287-0.09-0.515-0.268-0.685c-0.178-0.169-0.477-0.302-0.893-0.397l-1.355-0.326
					c-1.33-0.312-1.996-1.029-1.996-2.15c0-0.687,0.256-1.254,0.764-1.701c0.508-0.448,1.162-0.672,1.961-0.672
					c0.844,0,1.523,0.198,2.041,0.594s0.85,0.937,0.998,1.622h-1.357c-0.252-0.712-0.807-1.068-1.668-1.068
					c-0.436,0-0.785,0.103-1.049,0.307c-0.266,0.204-0.398,0.471-0.398,0.802c0,0.529,0.352,0.878,1.057,1.042l1.395,0.326
					c0.652,0.148,1.16,0.409,1.525,0.782c0.365,0.374,0.547,0.852,0.547,1.435c0,0.738-0.266,1.327-0.795,1.766
					c-0.529,0.439-1.217,0.658-2.059,0.658c-0.854,0-1.562-0.206-2.133-0.619C255.412,455.199,255.057,454.623,254.918,453.885z"/>
			</g>
		</g>
	</g>
	<g>
		<polygon fill="#595B5F" points="136.743,131.24 139.321,135.705 141.901,131.24 		"/>
		
			<line fill="none" stroke="#696C71" stroke-width="0.6735" stroke-miterlimit="10" x1="139.322" y1="74.401" x2="139.322" y2="132.083"/>
	</g>
	<rect x="40.832" y="145" fill="#F5F6F6" width="370" height="208"/>
	<rect x="62.537" y="251.5" fill="#FFFFFF" width="327.291" height="30.492"/>
	<rect x="62.537" y="165.5" fill="#FFFFFF" width="153.57" height="66.051"/>
	<g>
		<g>
			<g>
				<path fill="#696C71" d="M81.793,190.737c0.382,0.121,0.693,0.354,0.937,0.695c0.242,0.343,0.363,0.722,0.363,1.138
					c0,0.737-0.24,1.303-0.721,1.696c-0.481,0.395-1.143,0.592-1.982,0.592h-3.056v-7.982h2.795c0.85,0,1.513,0.187,1.989,0.559
					s0.715,0.91,0.715,1.612c0,0.416-0.098,0.776-0.292,1.08C82.346,190.429,82.097,190.632,81.793,190.737z M78.647,190.23h1.469
					c0.944,0,1.417-0.368,1.417-1.105c0-0.719-0.473-1.079-1.417-1.079h-1.469V190.23z M78.647,191.348v2.34h1.716
					c0.45,0,0.797-0.104,1.04-0.312c0.242-0.208,0.364-0.493,0.364-0.857s-0.122-0.65-0.364-0.858
					c-0.243-0.208-0.59-0.312-1.04-0.312H78.647z"/>
				<path fill="#696C71" d="M87.591,186.876h1.3l3.068,7.982h-1.378l-0.819-2.21h-3.055l-0.819,2.21h-1.365L87.591,186.876z
					 M88.228,188.527l-1.092,2.951h2.184L88.228,188.527z"/>
				<path fill="#696C71" d="M93.753,194.858v-7.982h1.353v6.773h3.835v1.209H93.753z"/>
				<path fill="#696C71" d="M100.968,194.858v-7.982h1.353v6.773h3.835v1.209H100.968z"/>
				<path fill="#696C71" d="M108.183,186.876h5.213v1.196h-3.887v2.105h3.523v1.184h-3.523v2.288h3.887v1.209h-5.213V186.876z"/>
				<path fill="#696C71" d="M117.829,191.621h-0.962v3.237h-1.353v-7.982h3.081c0.841,0,1.504,0.206,1.989,0.618
					s0.728,1.003,0.728,1.774c0,0.659-0.18,1.181-0.539,1.566s-0.86,0.631-1.502,0.734l2.314,3.289h-1.534L117.829,191.621z
					 M116.867,188.046v2.444h1.703c0.441,0,0.786-0.11,1.033-0.332c0.247-0.22,0.37-0.517,0.37-0.89s-0.123-0.669-0.37-0.891
					s-0.592-0.332-1.033-0.332H116.867z"/>
				<path fill="#696C71" d="M124.732,186.876v7.982h-1.353v-7.982H124.732z"/>
				<path fill="#696C71" d="M133.571,186.876v7.982h-1.04l-4.082-5.811v5.811h-1.3v-7.982h1.274l3.848,5.538v-5.538H133.571z"/>
				<path fill="#696C71" d="M138.434,186.876h1.3l3.068,7.982h-1.378l-0.819-2.21h-3.055l-0.819,2.21h-1.365L138.434,186.876z
					 M139.07,188.527l-1.092,2.951h2.184L139.07,188.527z"/>
				<path fill="#696C71" d="M76.71,207.648h1.378c0.252,0.798,0.854,1.196,1.808,1.196c0.468,0,0.843-0.106,1.124-0.318
					c0.281-0.213,0.423-0.501,0.423-0.865c0-0.286-0.089-0.514-0.267-0.683s-0.475-0.301-0.891-0.396l-1.352-0.324
					c-1.326-0.312-1.989-1.027-1.989-2.146c0-0.685,0.253-1.25,0.761-1.696c0.507-0.446,1.158-0.67,1.956-0.67
					c0.841,0,1.519,0.197,2.034,0.592s0.848,0.934,0.995,1.618h-1.353c-0.251-0.71-0.806-1.065-1.664-1.065
					c-0.433,0-0.782,0.102-1.046,0.306c-0.265,0.203-0.396,0.47-0.396,0.799c0,0.529,0.351,0.876,1.053,1.04l1.391,0.325
					c0.65,0.147,1.157,0.407,1.521,0.78c0.364,0.372,0.546,0.85,0.546,1.43c0,0.737-0.265,1.324-0.793,1.762
					s-1.214,0.656-2.054,0.656c-0.85,0-1.559-0.206-2.126-0.617C77.202,208.958,76.849,208.384,76.71,207.648z"/>
				<path fill="#696C71" d="M84.73,201.875h5.213v1.196h-3.887v2.106h3.523v1.183h-3.523v2.288h3.887v1.209H84.73V201.875z"/>
				<path fill="#696C71" d="M94.377,206.621h-0.962v3.237h-1.353v-7.982h3.081c0.841,0,1.504,0.206,1.989,0.618
					c0.485,0.411,0.728,1.003,0.728,1.774c0,0.658-0.18,1.181-0.539,1.566s-0.86,0.631-1.502,0.734l2.314,3.289H96.6L94.377,206.621
					z M93.415,203.046v2.443h1.703c0.441,0,0.786-0.11,1.033-0.331c0.247-0.222,0.37-0.518,0.37-0.891s-0.123-0.67-0.37-0.891
					s-0.592-0.331-1.033-0.331H93.415z"/>
				<path fill="#696C71" d="M103.607,209.858h-1.287l-3.017-7.982h1.417l2.263,6.228l2.262-6.228h1.378L103.607,209.858z"/>
				<path fill="#696C71" d="M109.77,201.875v7.982h-1.353v-7.982H109.77z"/>
				<path fill="#696C71" d="M112.791,208.837c-0.688-0.767-1.033-1.757-1.033-2.971c0-1.213,0.345-2.203,1.033-2.971
					c0.689-0.767,1.554-1.15,2.594-1.15c0.884,0,1.607,0.236,2.171,0.709s0.923,1.116,1.079,1.931h-1.326
					c-0.347-0.945-0.988-1.417-1.924-1.417c-0.693,0-1.244,0.271-1.651,0.812c-0.407,0.541-0.61,1.237-0.61,2.086
					c0,0.85,0.203,1.545,0.61,2.087s0.958,0.812,1.651,0.812c0.936,0,1.577-0.477,1.924-1.431h1.326
					c-0.156,0.824-0.516,1.472-1.079,1.944c-0.563,0.472-1.287,0.708-2.171,0.708C114.345,209.988,113.48,209.604,112.791,208.837z"
					/>
				<path fill="#696C71" d="M120.598,201.875h5.213v1.196h-3.887v2.106h3.523v1.183h-3.523v2.288h3.887v1.209h-5.213V201.875z"/>
			</g>
		</g>
		<g>
			<polyline fill="none" stroke="#595B5F" stroke-width="0.9621" stroke-miterlimit="10" points="175.113,178.325 166.646,178.325 
				154.984,198.525 166.646,218.727 189.971,218.727 201.635,198.525 189.971,178.325 181.506,178.325 			"/>
			<circle fill="none" stroke="#595B5F" stroke-width="1.0345" stroke-miterlimit="10" cx="178.309" cy="198.525" r="9.064"/>
		</g>
	</g>
	<rect x="236.561" y="165.5" fill="#FFFFFF" width="153.57" height="66.051"/>
	<g>
		<g>
			<g>
				<path fill="#696C71" d="M302.914,194.861h-0.963l-2.197-5.551v5.551h-1.287v-7.982h1.547l2.432,6.137l2.404-6.137h1.51v7.982
					h-1.301v-5.551L302.914,194.861z"/>
				<path fill="#696C71" d="M311.221,186.878h1.299l3.068,7.982h-1.377l-0.82-2.21h-3.055l-0.818,2.21h-1.365L311.221,186.878z
					 M311.857,188.53l-1.092,2.951h2.184L311.857,188.53z"/>
				<path fill="#696C71" d="M318.734,186.878v7.982h-1.352v-7.982H318.734z"/>
				<path fill="#696C71" d="M327.574,186.878v7.982h-1.041l-4.082-5.811v5.811h-1.299v-7.982h1.273l3.848,5.538v-5.538H327.574z"/>
				<path fill="#696C71" d="M284.324,209.861h-1.352v-7.982h5.096v1.196h-3.744v2.366h3.498v1.183h-3.498V209.861z"/>
				<path fill="#696C71" d="M295.459,209.139c-0.576,0.568-1.354,0.852-2.334,0.852c-0.979,0-1.758-0.283-2.334-0.852
					c-0.576-0.567-0.863-1.389-0.863-2.463v-4.798h1.352v4.654c0,1.5,0.615,2.249,1.846,2.249s1.846-0.749,1.846-2.249v-4.654h1.354
					v4.811C296.324,207.754,296.035,208.572,295.459,209.139z"/>
				<path fill="#696C71" d="M305.033,201.878v7.982h-1.041l-4.082-5.811v5.811h-1.299v-7.982h1.273l3.848,5.538v-5.538H305.033z"/>
				<path fill="#696C71" d="M308.055,208.84c-0.688-0.767-1.033-1.757-1.033-2.971c0-1.213,0.346-2.203,1.033-2.971
					c0.689-0.767,1.555-1.15,2.594-1.15c0.885,0,1.607,0.236,2.172,0.709c0.562,0.473,0.922,1.116,1.078,1.931h-1.326
					c-0.346-0.945-0.988-1.417-1.924-1.417c-0.693,0-1.244,0.271-1.65,0.812c-0.408,0.541-0.611,1.237-0.611,2.086
					c0,0.85,0.203,1.545,0.611,2.087c0.406,0.542,0.957,0.812,1.65,0.812c0.936,0,1.578-0.477,1.924-1.431h1.326
					c-0.156,0.824-0.516,1.472-1.078,1.944c-0.564,0.472-1.287,0.708-2.172,0.708C309.609,209.991,308.744,209.607,308.055,208.84z"
					/>
				<path fill="#696C71" d="M315.367,203.075v-1.196h6.656v1.196h-2.652v6.786h-1.352v-6.786H315.367z"/>
				<path fill="#696C71" d="M325.301,201.878v7.982h-1.354v-7.982H325.301z"/>
				<path fill="#696C71" d="M333.619,202.913c0.693,0.775,1.041,1.762,1.041,2.957c0,1.196-0.348,2.183-1.041,2.958
					s-1.576,1.163-2.652,1.163c-1.074,0-1.955-0.388-2.645-1.163s-1.033-1.762-1.033-2.958c0-1.195,0.344-2.182,1.033-2.957
					s1.57-1.164,2.645-1.164C332.043,201.749,332.926,202.137,333.619,202.913z M332.65,207.962c0.43-0.546,0.645-1.243,0.645-2.093
					c0-0.849-0.215-1.547-0.645-2.093c-0.428-0.546-0.99-0.819-1.684-0.819s-1.252,0.271-1.676,0.812
					c-0.426,0.542-0.637,1.242-0.637,2.1c0,0.858,0.211,1.559,0.637,2.1c0.424,0.542,0.982,0.812,1.676,0.812
					S332.223,208.509,332.65,207.962z"/>
				<path fill="#696C71" d="M343.07,201.878v7.982h-1.041l-4.082-5.811v5.811h-1.299v-7.982h1.273l3.848,5.538v-5.538H343.07z"/>
			</g>
		</g>
	</g>
	<rect x="62.537" y="301.5" fill="#FFFFFF" width="327.291" height="30.492"/>
	<g>
		<circle fill="#F5F6F6" stroke="#696C71" stroke-width="1.1259" stroke-miterlimit="10" cx="139.322" cy="52.926" r="26.93"/>
		<g>
			<path fill="#696C71" d="M130.176,48h1.453l3.429,8.92h-1.54l-0.915-2.47h-3.414l-0.915,2.47h-1.525L130.176,48z M130.888,49.845
				l-1.22,3.298h2.44L130.888,49.845z"/>
			<path fill="#696C71" d="M141.943,53.593h-1.932v3.327h-1.511V48h3.442c0.939,0,1.684,0.242,2.23,0.727s0.821,1.177,0.821,2.078
				c0,0.891-0.274,1.579-0.821,2.063S142.883,53.593,141.943,53.593z M143.498,50.804c0-0.455-0.136-0.818-0.406-1.09
				c-0.271-0.271-0.664-0.407-1.177-0.407h-1.903v2.979h1.903c0.503,0,0.894-0.136,1.169-0.407
				C143.36,51.608,143.498,51.25,143.498,50.804z"/>
			<path fill="#696C71" d="M150.108,48v8.92h-1.511V48H150.108z"/>
		</g>
	</g>
	<g>
		<polygon fill="#595B5F" points="310.767,131.24 313.345,135.705 315.925,131.24 		"/>
		
			<line fill="none" stroke="#696C71" stroke-width="0.6735" stroke-miterlimit="10" x1="313.346" y1="74.401" x2="313.346" y2="132.084"/>
	</g>
	<g>
		<circle fill="#F5F6F6" stroke="#696C71" stroke-width="1.1259" stroke-miterlimit="10" cx="313.346" cy="52.926" r="26.93"/>
		<circle fill="#696C71" cx="313.346" cy="52.926" r="4.121"/>
	</g>
	<g>
		<g>
			<polyline fill="none" stroke="#B3B3B3" stroke-width="0.4982" stroke-miterlimit="10" points="223.332,338.507 223.332,340.5 
				221.339,340.5 			"/>
			
				<line fill="none" stroke="#B3B3B3" stroke-miterlimit="10" stroke-dasharray="4,4" x1="216.832" y1="340.5" x2="57.832" y2="340.5"/>
			<polyline fill="none" stroke="#B3B3B3" stroke-width="0.4982" stroke-miterlimit="10" points="55.549,340.5 53.557,340.5 
				53.557,338.507 			"/>
			<line fill="none" stroke="#B3B3B3" stroke-miterlimit="10" stroke-dasharray="4,4" x1="53.332" y1="335" x2="53.332" y2="162"/>
			<polyline fill="none" stroke="#B3B3B3" stroke-width="0.4982" stroke-miterlimit="10" points="53.557,160.493 53.557,158.5 
				55.549,158.5 			"/>
			
				<line fill="none" stroke="#B3B3B3" stroke-miterlimit="10" stroke-dasharray="4,4" x1="59.832" y1="158.5" x2="218.832" y2="158.5"/>
			<polyline fill="none" stroke="#B3B3B3" stroke-width="0.4982" stroke-miterlimit="10" points="221.339,158.5 223.332,158.5 
				223.332,160.493 			"/>
			
				<line fill="none" stroke="#B3B3B3" stroke-miterlimit="10" stroke-dasharray="4,4" x1="223.332" y1="164" x2="223.332" y2="337"/>
		</g>
	</g>
	<g>
		<g>
			<polyline fill="none" stroke="#B3B3B3" stroke-width="0.4977" stroke-miterlimit="10" points="397.565,338.509 397.565,340.5 
				395.574,340.5 			"/>
			
				<line fill="none" stroke="#B3B3B3" stroke-miterlimit="10" stroke-dasharray="4,4" x1="391.832" y1="340.5" x2="231.832" y2="340.5"/>
			<polyline fill="none" stroke="#B3B3B3" stroke-width="0.4977" stroke-miterlimit="10" points="230.13,340.5 228.139,340.5 
				228.139,338.509 			"/>
			
				<line fill="none" stroke="#B3B3B3" stroke-miterlimit="10" stroke-dasharray="4,4" x1="228.332" y1="335" x2="228.332" y2="162"/>
			<polyline fill="none" stroke="#B3B3B3" stroke-width="0.4977" stroke-miterlimit="10" points="228.139,160.491 228.139,158.5 
				230.13,158.5 			"/>
			
				<line fill="none" stroke="#B3B3B3" stroke-miterlimit="10" stroke-dasharray="4,4" x1="233.832" y1="158.5" x2="393.832" y2="158.5"/>
			<polyline fill="none" stroke="#B3B3B3" stroke-width="0.4977" stroke-miterlimit="10" points="395.574,158.5 397.565,158.5 
				397.565,160.491 			"/>
			
				<line fill="none" stroke="#B3B3B3" stroke-miterlimit="10" stroke-dasharray="4,4" x1="397.332" y1="164" x2="397.332" y2="337"/>
		</g>
	</g>
	<rect x="151.832" y="259" fill="#FFFFFF" width="136" height="16"/>
	<g>
		<g>
			<path fill="#696C71" d="M192.803,267.344h-0.962v3.236h-1.353v-7.982h3.081c0.841,0,1.504,0.207,1.989,0.619
				c0.485,0.41,0.728,1.002,0.728,1.773c0,0.658-0.18,1.182-0.539,1.566c-0.359,0.387-0.86,0.631-1.502,0.734l2.314,3.289h-1.534
				L192.803,267.344z M191.841,263.77v2.443h1.703c0.441,0,0.786-0.111,1.033-0.332s0.37-0.518,0.37-0.891s-0.123-0.67-0.37-0.891
				s-0.592-0.33-1.033-0.33H191.841z"/>
			<path fill="#696C71" d="M198.354,262.598h5.213v1.197h-3.887v2.105h3.523v1.184h-3.523v2.287h3.887v1.209h-5.213V262.598z"/>
			<path fill="#696C71" d="M205.062,268.371h1.378c0.252,0.797,0.854,1.195,1.808,1.195c0.468,0,0.843-0.105,1.124-0.318
				s0.423-0.5,0.423-0.865c0-0.285-0.089-0.514-0.267-0.682c-0.178-0.17-0.475-0.301-0.891-0.396l-1.352-0.324
				c-1.326-0.312-1.989-1.027-1.989-2.146c0-0.684,0.253-1.25,0.761-1.695c0.507-0.447,1.158-0.67,1.956-0.67
				c0.841,0,1.519,0.197,2.034,0.592s0.848,0.934,0.995,1.617h-1.353c-0.251-0.709-0.806-1.064-1.664-1.064
				c-0.433,0-0.782,0.102-1.046,0.305c-0.265,0.203-0.396,0.471-0.396,0.799c0,0.529,0.351,0.877,1.053,1.041l1.391,0.324
				c0.65,0.148,1.157,0.408,1.521,0.781c0.364,0.371,0.546,0.85,0.546,1.43c0,0.736-0.265,1.324-0.793,1.762
				s-1.214,0.656-2.054,0.656c-0.85,0-1.559-0.207-2.126-0.617C205.554,269.682,205.201,269.107,205.062,268.371z"/>
			<path fill="#696C71" d="M214.435,262.598v7.982h-1.353v-7.982H214.435z"/>
			<path fill="#696C71" d="M216.852,270.58v-7.982h1.353v6.773h3.835v1.209H216.852z"/>
			<path fill="#696C71" d="M225.419,262.598v7.982h-1.353v-7.982H225.419z"/>
			<path fill="#696C71" d="M227.838,262.598h5.213v1.197h-3.887v2.105h3.523v1.184h-3.523v2.287h3.887v1.209h-5.213V262.598z"/>
			<path fill="#696C71" d="M241.592,262.598v7.982h-1.041l-4.082-5.811v5.811h-1.299v-7.982h1.273l3.848,5.539v-5.539H241.592z"/>
			<path fill="#696C71" d="M244.613,269.561c-0.688-0.768-1.033-1.758-1.033-2.971s0.346-2.203,1.033-2.971
				c0.689-0.768,1.555-1.15,2.594-1.15c0.885,0,1.607,0.236,2.172,0.709c0.562,0.473,0.922,1.115,1.078,1.93h-1.326
				c-0.346-0.945-0.988-1.416-1.924-1.416c-0.693,0-1.244,0.27-1.65,0.812c-0.408,0.541-0.611,1.236-0.611,2.086
				s0.203,1.545,0.611,2.086c0.406,0.543,0.957,0.812,1.65,0.812c0.936,0,1.578-0.477,1.924-1.43h1.326
				c-0.156,0.824-0.516,1.471-1.078,1.943c-0.564,0.473-1.287,0.709-2.172,0.709C246.168,270.711,245.303,270.326,244.613,269.561z"
				/>
			<path fill="#696C71" d="M255.318,266.174l2.105-3.576h1.432l-2.9,4.799v3.184h-1.338v-3.184l-2.887-4.799h1.469L255.318,266.174z
				"/>
		</g>
	</g>
	<rect x="151.832" y="309" fill="#FFFFFF" width="136" height="16"/>
	<g>
		<path fill="#696C71" d="M176.767,313.795V312.6h6.656v1.195h-2.652v6.787h-1.352v-6.787H176.767z"/>
		<path fill="#696C71" d="M187.662,317.344H186.7v3.238h-1.353V312.6h3.081c0.841,0,1.504,0.205,1.989,0.617
			s0.728,1.004,0.728,1.775c0,0.658-0.18,1.18-0.539,1.566c-0.359,0.385-0.86,0.631-1.502,0.734l2.314,3.289h-1.534L187.662,317.344
			z M186.7,313.77v2.443h1.703c0.441,0,0.786-0.109,1.033-0.33c0.247-0.223,0.37-0.518,0.37-0.891s-0.123-0.67-0.37-0.891
			s-0.592-0.332-1.033-0.332H186.7z"/>
		<path fill="#696C71" d="M195.657,312.6h1.3l3.068,7.982h-1.378l-0.819-2.211h-3.055l-0.819,2.211h-1.365L195.657,312.6z
			 M196.293,314.25l-1.092,2.951h2.184L196.293,314.25z"/>
		<path fill="#696C71" d="M208.24,312.6v7.982h-1.04l-4.082-5.811v5.811h-1.3V312.6h1.274l3.848,5.537V312.6H208.24z"/>
		<path fill="#696C71" d="M210.034,318.371h1.378c0.252,0.799,0.854,1.197,1.808,1.197c0.468,0,0.843-0.107,1.124-0.318
			c0.281-0.213,0.423-0.502,0.423-0.865c0-0.287-0.089-0.514-0.267-0.684c-0.178-0.168-0.475-0.301-0.891-0.396l-1.352-0.324
			c-1.326-0.312-1.989-1.027-1.989-2.145c0-0.686,0.253-1.25,0.761-1.697c0.507-0.445,1.158-0.67,1.956-0.67
			c0.841,0,1.519,0.197,2.034,0.592s0.848,0.934,0.995,1.619h-1.353c-0.251-0.711-0.806-1.066-1.664-1.066
			c-0.433,0-0.782,0.102-1.046,0.307c-0.265,0.203-0.396,0.469-0.396,0.799c0,0.529,0.351,0.875,1.053,1.039l1.391,0.326
			c0.65,0.146,1.157,0.406,1.521,0.779s0.546,0.85,0.546,1.43c0,0.738-0.265,1.324-0.793,1.762s-1.214,0.656-2.054,0.656
			c-0.85,0-1.559-0.205-2.126-0.617S210.172,319.107,210.034,318.371z"/>
		<path fill="#696C71" d="M220.5,312.6h1.3l3.068,7.982h-1.378l-0.819-2.211h-3.055l-0.819,2.211h-1.365L220.5,312.6z
			 M221.136,314.25l-1.092,2.951h2.184L221.136,314.25z"/>
		<path fill="#696C71" d="M227.266,319.561c-0.689-0.766-1.034-1.756-1.034-2.971c0-1.213,0.345-2.203,1.034-2.971
			c0.689-0.766,1.553-1.15,2.594-1.15c0.883,0,1.607,0.236,2.17,0.709c0.564,0.473,0.924,1.117,1.08,1.932h-1.326
			c-0.348-0.945-0.988-1.418-1.924-1.418c-0.693,0-1.244,0.271-1.652,0.812c-0.406,0.541-0.609,1.238-0.609,2.086
			c0,0.85,0.203,1.545,0.609,2.088c0.408,0.541,0.959,0.812,1.652,0.812c0.936,0,1.576-0.477,1.924-1.432h1.326
			c-0.156,0.824-0.516,1.473-1.08,1.945c-0.562,0.471-1.287,0.707-2.17,0.707C228.818,320.711,227.955,320.328,227.266,319.561z"/>
		<path fill="#696C71" d="M234.578,313.795V312.6h6.656v1.195h-2.652v6.787h-1.352v-6.787H234.578z"/>
		<path fill="#696C71" d="M244.51,312.6v7.982h-1.352V312.6H244.51z"/>
		<path fill="#696C71" d="M252.83,313.633c0.693,0.775,1.039,1.762,1.039,2.957c0,1.197-0.346,2.184-1.039,2.959
			s-1.578,1.162-2.652,1.162s-1.957-0.387-2.646-1.162c-0.688-0.775-1.033-1.762-1.033-2.959c0-1.195,0.346-2.182,1.033-2.957
			c0.689-0.775,1.572-1.164,2.646-1.164S252.137,312.857,252.83,313.633z M251.861,318.684c0.428-0.547,0.643-1.244,0.643-2.094
			c0-0.848-0.215-1.547-0.643-2.092c-0.43-0.547-0.99-0.82-1.684-0.82s-1.252,0.271-1.678,0.812c-0.424,0.543-0.637,1.242-0.637,2.1
			c0,0.859,0.213,1.559,0.637,2.1c0.426,0.543,0.984,0.812,1.678,0.812S251.432,319.23,251.861,318.684z"/>
		<path fill="#696C71" d="M262.279,312.6v7.982h-1.039l-4.082-5.811v5.811h-1.301V312.6h1.275l3.848,5.537V312.6H262.279z"/>
	</g>
</g>
</svg>
