<?xml version="1.0" encoding="utf-8"?>
<!-- Generator: Adobe Illustrator 16.0.4, SVG Export Plug-In . SVG Version: 6.00 Build 0)  -->
<!DOCTYPE svg PUBLIC "-//W3C//DTD SVG 1.1//EN" "http://www.w3.org/Graphics/SVG/1.1/DTD/svg11.dtd">
<svg version="1.1" id="Layer_1" xmlns="http://www.w3.org/2000/svg" xmlns:xlink="http://www.w3.org/1999/xlink" x="0px" y="0px"
	 width="452.664px" height="497px" viewBox="0 0 452.664 497" enable-background="new 0 0 452.664 497" xml:space="preserve">
<g opacity="0.1">
	<g>
		<defs>
			<rect id="SVGID_1_" x="-21.908" y="-28.691" width="513.966" height="533.758"/>
		</defs>
		<clipPath id="SVGID_2_">
			<use xlink:href="#SVGID_1_"  overflow="visible"/>
		</clipPath>
		<g clip-path="url(#SVGID_2_)">
			<defs>
				<rect id="SVGID_3_" x="-21.908" y="-28.692" width="513.965" height="533.759"/>
			</defs>
			<clipPath id="SVGID_4_">
				<use xlink:href="#SVGID_3_"  overflow="visible"/>
			</clipPath>
			<g transform="matrix(1 0 0 1 1.907349e-06 1.907349e-06)" clip-path="url(#SVGID_4_)">
				
					<image overflow="visible" width="2251" height="2224" xlink:href="D5CD8305D5BF206.png"  transform="matrix(0.2283 0 0 0.24 -21.9077 -28.6924)">
				</image>
			</g>
		</g>
	</g>
</g>
<rect x="-28.993" y="-20.115" fill="#F5F6F6" width="512.669" height="530.346"/>
<rect x="0.38" y="102.318" fill="#FFFFFF" width="452.821" height="306.928"/>
<rect x="0.211" y="68.232" fill="#FFFFFF" width="154.806" height="35.579"/>
<g>
	<path fill="#696C71" d="M31.384,94.277c-1.015,0-1.826-0.354-2.435-1.063c-0.609-0.709-0.913-1.603-0.913-2.682
		s0.304-1.972,0.913-2.679c0.608-0.707,1.42-1.06,2.435-1.06c1.011,0,1.82,0.354,2.429,1.06c0.609,0.707,0.913,1.6,0.913,2.679
		s-0.304,1.973-0.913,2.682C33.205,93.922,32.395,94.277,31.384,94.277z M31.384,93.293c0.63,0,1.131-0.246,1.502-0.736
		c0.372-0.491,0.559-1.166,0.559-2.025c0-0.855-0.187-1.528-0.559-2.019c-0.371-0.491-0.872-0.736-1.502-0.736
		c-0.634,0-1.137,0.246-1.508,0.736c-0.372,0.491-0.559,1.164-0.559,2.019c0,0.859,0.187,1.534,0.559,2.025
		C30.248,93.047,30.75,93.293,31.384,93.293z"/>
	<path fill="#696C71" d="M37.608,88.584c0.363-0.593,0.797-1.04,1.301-1.34c0.504-0.3,0.967-0.451,1.391-0.451
		c0.592,0,1.125,0.256,1.6,0.768c0.474,0.512,0.711,1.289,0.711,2.33c0,0.821-0.158,1.554-0.474,2.199
		c-0.315,0.646-0.735,1.155-1.26,1.53c-0.524,0.374-1.175,0.562-1.948,0.562c-0.221,0-0.559-0.023-1.016-0.07
		c-0.068-0.008-0.17-0.019-0.305-0.032h-1.182V83.835h1.182V88.584z M37.608,89.988v3.044c0.427,0.11,0.82,0.165,1.18,0.165
		c0.716,0,1.317-0.281,1.807-0.842c0.488-0.561,0.732-1.329,0.732-2.304c0-0.708-0.133-1.239-0.399-1.595
		c-0.267-0.355-0.569-0.534-0.907-0.534c-0.369,0-0.773,0.187-1.216,0.559C38.362,88.855,37.963,89.357,37.608,89.988z"/>
	<path fill="#696C71" d="M44.647,93.706v-1.25c0.474,0.309,0.976,0.526,1.504,0.65c0.529,0.125,0.979,0.188,1.346,0.188
		c0.598,0,1.026-0.096,1.289-0.289c0.263-0.192,0.394-0.433,0.394-0.72c0-0.19-0.062-0.354-0.185-0.489
		c-0.122-0.135-0.427-0.303-0.914-0.501l-0.406-0.165l-0.818-0.324c-0.88-0.343-1.435-0.66-1.663-0.952
		c-0.232-0.288-0.349-0.639-0.349-1.054c0-0.584,0.225-1.064,0.677-1.441c0.451-0.376,1.183-0.565,2.195-0.565
		c0.759,0,1.477,0.11,2.155,0.33v1.073c-0.78-0.279-1.514-0.419-2.2-0.419c-0.501,0-0.892,0.088-1.174,0.263
		c-0.281,0.176-0.423,0.395-0.423,0.657c0,0.254,0.123,0.457,0.369,0.609c0.24,0.152,0.635,0.328,1.182,0.527l0.8,0.292
		c0.733,0.267,1.247,0.557,1.543,0.87c0.295,0.313,0.442,0.705,0.442,1.174c0,0.614-0.236,1.118-0.708,1.514
		c-0.472,0.396-1.226,0.593-2.263,0.593C46.535,94.277,45.603,94.086,44.647,93.706z"/>
	<path fill="#696C71" d="M58.509,93.608c-0.943,0.446-1.837,0.668-2.679,0.668c-0.639,0-1.21-0.159-1.714-0.476
		c-0.504-0.317-0.906-0.771-1.209-1.36s-0.454-1.221-0.454-1.893c0-0.647,0.144-1.269,0.432-1.865s0.689-1.061,1.206-1.392
		c0.517-0.332,1.092-0.498,1.727-0.498c0.842,0,1.519,0.3,2.028,0.9s0.765,1.525,0.765,2.776v0.253h-4.888
		c0,0.492,0.103,0.942,0.308,1.349s0.476,0.713,0.81,0.917s0.715,0.305,1.143,0.305c0.762,0,1.604-0.254,2.526-0.764V93.608z
		 M53.792,89.84h3.536v-0.171c0-0.578-0.142-1.038-0.425-1.379c-0.284-0.342-0.663-0.513-1.137-0.513
		c-0.479,0-0.892,0.174-1.241,0.522C54.177,88.647,53.933,89.161,53.792,89.84z"/>
	<path fill="#696C71" d="M61.264,94.08v-7.09h1.181v1.549c0.368-0.584,0.79-1.021,1.267-1.311c0.476-0.29,1.006-0.435,1.59-0.435
		c0.428,0,0.854,0.065,1.282,0.197v2.558h-1.137v-1.619c-0.198-0.034-0.355-0.051-0.469-0.051c-0.44,0-0.872,0.173-1.295,0.521
		c-0.424,0.347-0.836,0.868-1.238,1.562v4.12H61.264z"/>
	<path fill="#696C71" d="M71.018,94.08l-3.08-7.09h1.295l2.434,5.618l2.475-5.618h1.186l-3.104,7.09H71.018z"/>
	<path fill="#696C71" d="M81.418,92.494c-0.359,0.59-0.793,1.035-1.299,1.334c-0.506,0.299-0.97,0.449-1.394,0.449
		c-0.593,0-1.125-0.256-1.597-0.768s-0.708-1.289-0.708-2.33c0-0.821,0.156-1.554,0.471-2.2c0.313-0.645,0.732-1.155,1.258-1.529
		c0.525-0.375,1.176-0.562,1.951-0.562c0.225,0,0.562,0.023,1.015,0.07c0.067,0.008,0.169,0.019,0.304,0.032h1.185v5.007
		c0,0.855,0.091,1.55,0.273,2.083h-1.232C81.55,93.692,81.475,93.164,81.418,92.494z M81.423,91.082v-3.044
		c-0.42-0.11-0.81-0.165-1.17-0.165c-0.729,0-1.336,0.282-1.822,0.845c-0.485,0.563-0.728,1.331-0.728,2.301
		c0,0.703,0.133,1.234,0.397,1.592c0.265,0.358,0.566,0.537,0.906,0.537c0.368,0,0.775-0.187,1.221-0.559
		C80.673,92.215,81.072,91.713,81.423,91.082z"/>
	<path fill="#696C71" d="M85.898,88.584c0.363-0.593,0.797-1.04,1.301-1.34c0.504-0.3,0.967-0.451,1.391-0.451
		c0.592,0,1.125,0.256,1.6,0.768c0.474,0.512,0.711,1.289,0.711,2.33c0,0.821-0.158,1.554-0.474,2.199
		c-0.315,0.646-0.735,1.155-1.26,1.53c-0.524,0.374-1.175,0.562-1.948,0.562c-0.221,0-0.559-0.023-1.016-0.07
		c-0.068-0.008-0.17-0.019-0.305-0.032h-1.182V83.835h1.182V88.584z M85.898,89.988v3.044c0.427,0.11,0.82,0.165,1.18,0.165
		c0.716,0,1.317-0.281,1.807-0.842c0.488-0.561,0.732-1.329,0.732-2.304c0-0.708-0.133-1.239-0.399-1.595
		c-0.267-0.355-0.569-0.534-0.907-0.534c-0.369,0-0.773,0.187-1.216,0.559C86.652,88.855,86.253,89.357,85.898,89.988z"/>
	<path fill="#696C71" d="M94.84,94.08v-6.106h-1.968V86.99h3.148v6.106h1.974v0.984H94.84z M94.65,84.429
		c0-0.266,0.091-0.464,0.271-0.595c0.182-0.13,0.353-0.196,0.513-0.196c0.164,0,0.337,0.065,0.519,0.196
		c0.181,0.131,0.271,0.329,0.271,0.595c0,0.261-0.091,0.457-0.271,0.588c-0.182,0.13-0.354,0.196-0.519,0.196
		c-0.16,0-0.331-0.065-0.513-0.196C94.741,84.886,94.65,84.69,94.65,84.429z"/>
	<path fill="#696C71" d="M102.807,94.08v-9.261h-2.121v-0.984h3.301v9.261h2.216v0.984H102.807z"/>
	<path fill="#696C71" d="M110.937,94.08v-6.106h-1.968V86.99h3.148v6.106h1.974v0.984H110.937z M110.747,84.429
		c0-0.266,0.091-0.464,0.271-0.595c0.182-0.13,0.353-0.196,0.513-0.196c0.164,0,0.337,0.065,0.519,0.196
		c0.181,0.131,0.271,0.329,0.271,0.595c0,0.261-0.091,0.457-0.271,0.588c-0.182,0.13-0.354,0.196-0.519,0.196
		c-0.16,0-0.331-0.065-0.513-0.196C110.837,84.886,110.747,84.69,110.747,84.429z"/>
	<path fill="#696C71" d="M122.927,93.794c-0.554,0.233-0.956,0.372-1.205,0.416c-0.25,0.045-0.491,0.067-0.725,0.067
		c-0.494,0-0.947-0.095-1.357-0.286c-0.411-0.19-0.721-0.472-0.931-0.844c-0.209-0.373-0.313-0.948-0.313-1.727v-2.856h-1.771V87.58
		h1.771v-2.856h1.18v2.856h3.155v0.984h-3.155v2.837c0,0.571,0.068,0.975,0.203,1.209c0.136,0.235,0.316,0.408,0.543,0.518
		s0.494,0.165,0.803,0.165c0.572,0,1.173-0.18,1.803-0.54V93.794z"/>
	<path fill="#696C71" d="M127.659,93.801l-3.275-6.811h1.301l2.608,5.324l2.179-5.324h1.187l-2.742,6.59
		c-0.58,1.389-1.131,2.312-1.654,2.768c-0.522,0.456-1.198,0.684-2.028,0.684c-0.359,0-0.682-0.032-0.965-0.095v-1.041
		c0.326,0.101,0.637,0.152,0.933,0.152c0.381,0,0.719-0.074,1.016-0.222c0.296-0.147,0.566-0.409,0.812-0.784
		c0.245-0.375,0.419-0.701,0.521-0.975L127.659,93.801z"/>
</g>
<rect x="298.227" y="68.232" fill="#FFFFFF" width="154.806" height="36.877"/>
<g>
	<path fill="#696C71" d="M345.719,93.706v-1.25c0.474,0.309,0.976,0.526,1.504,0.65c0.529,0.125,0.979,0.188,1.346,0.188
		c0.598,0,1.026-0.096,1.289-0.289c0.263-0.192,0.394-0.433,0.394-0.72c0-0.19-0.062-0.354-0.185-0.489
		c-0.122-0.135-0.427-0.303-0.914-0.501l-0.406-0.165l-0.818-0.324c-0.88-0.343-1.435-0.66-1.663-0.952
		c-0.232-0.288-0.349-0.639-0.349-1.054c0-0.584,0.225-1.064,0.677-1.441c0.451-0.376,1.183-0.565,2.195-0.565
		c0.759,0,1.477,0.11,2.155,0.33v1.073c-0.78-0.279-1.514-0.419-2.2-0.419c-0.501,0-0.892,0.088-1.174,0.263
		c-0.281,0.176-0.423,0.395-0.423,0.657c0,0.254,0.123,0.457,0.369,0.609c0.24,0.152,0.635,0.328,1.182,0.527l0.8,0.292
		c0.733,0.267,1.247,0.557,1.543,0.87c0.295,0.313,0.442,0.705,0.442,1.174c0,0.614-0.236,1.118-0.708,1.514
		c-0.472,0.396-1.226,0.593-2.263,0.593C347.606,94.277,346.675,94.086,345.719,93.706z"/>
	<path fill="#696C71" d="M359.581,93.608c-0.943,0.446-1.837,0.668-2.679,0.668c-0.639,0-1.21-0.159-1.714-0.476
		c-0.504-0.317-0.906-0.771-1.209-1.36s-0.454-1.221-0.454-1.893c0-0.647,0.144-1.269,0.432-1.865s0.689-1.061,1.206-1.392
		c0.517-0.332,1.092-0.498,1.727-0.498c0.842,0,1.519,0.3,2.028,0.9s0.765,1.525,0.765,2.776v0.253h-4.888
		c0,0.492,0.103,0.942,0.308,1.349s0.476,0.713,0.81,0.917s0.715,0.305,1.143,0.305c0.762,0,1.604-0.254,2.526-0.764V93.608z
		 M354.864,89.84h3.536v-0.171c0-0.578-0.142-1.038-0.425-1.379c-0.284-0.342-0.663-0.513-1.137-0.513
		c-0.479,0-0.892,0.174-1.241,0.522C355.249,88.647,355.005,89.161,354.864,89.84z"/>
	<path fill="#696C71" d="M367.7,93.877c-0.792,0.267-1.545,0.4-2.26,0.4c-0.711,0-1.343-0.164-1.896-0.492
		c-0.552-0.328-0.982-0.772-1.292-1.333c-0.309-0.561-0.463-1.199-0.463-1.914c0-1.075,0.351-1.968,1.051-2.679
		s1.545-1.066,2.535-1.066c0.732,0,1.507,0.138,2.324,0.413v1.136c-0.826-0.376-1.564-0.565-2.216-0.565
		c-0.432,0-0.838,0.107-1.219,0.321c-0.381,0.213-0.675,0.547-0.882,1c-0.208,0.453-0.312,0.918-0.312,1.396
		c0,0.639,0.2,1.249,0.6,1.828c0.4,0.58,1.027,0.87,1.882,0.87c0.259,0,0.513-0.018,0.762-0.054c0.25-0.036,0.711-0.168,1.385-0.397
		V93.877z"/>
	<path fill="#696C71" d="M375.614,86.99v7.09h-1.181v-1.555c-0.381,0.584-0.804,1.022-1.27,1.314s-0.931,0.438-1.396,0.438
		c-0.415,0-0.795-0.111-1.14-0.333c-0.345-0.222-0.585-0.514-0.72-0.876c-0.136-0.361-0.203-1.067-0.203-2.117V86.99h1.18v4.107
		c0,0.681,0.033,1.131,0.099,1.349c0.065,0.218,0.187,0.397,0.362,0.537s0.365,0.209,0.568,0.209c0.414,0,0.859-0.196,1.336-0.587
		c0.476-0.392,0.87-0.886,1.184-1.482V86.99H375.614z"/>
	<path fill="#696C71" d="M378.433,94.08v-7.09h1.181v1.549c0.368-0.584,0.79-1.021,1.267-1.311c0.476-0.29,1.006-0.435,1.59-0.435
		c0.428,0,0.854,0.065,1.282,0.197v2.558h-1.137v-1.619c-0.198-0.034-0.355-0.051-0.469-0.051c-0.44,0-0.872,0.173-1.295,0.521
		c-0.424,0.347-0.836,0.868-1.238,1.562v4.12H378.433z"/>
	<path fill="#696C71" d="M387.864,94.08v-6.106h-1.968V86.99h3.148v6.106h1.974v0.984H387.864z M387.674,84.429
		c0-0.266,0.091-0.464,0.271-0.595c0.182-0.13,0.353-0.196,0.513-0.196c0.164,0,0.337,0.065,0.519,0.196
		c0.181,0.131,0.271,0.329,0.271,0.595c0,0.261-0.091,0.457-0.271,0.588c-0.182,0.13-0.354,0.196-0.519,0.196
		c-0.16,0-0.331-0.065-0.513-0.196C387.765,84.886,387.674,84.69,387.674,84.429z"/>
	<path fill="#696C71" d="M399.854,93.794c-0.554,0.233-0.956,0.372-1.205,0.416c-0.25,0.045-0.491,0.067-0.725,0.067
		c-0.494,0-0.947-0.095-1.357-0.286c-0.411-0.19-0.721-0.472-0.931-0.844c-0.209-0.373-0.313-0.948-0.313-1.727v-2.856h-1.771V87.58
		h1.771v-2.856h1.18v2.856h3.155v0.984h-3.155v2.837c0,0.571,0.068,0.975,0.203,1.209c0.136,0.235,0.316,0.408,0.543,0.518
		s0.494,0.165,0.803,0.165c0.572,0,1.173-0.18,1.803-0.54V93.794z"/>
	<path fill="#696C71" d="M404.586,93.801l-3.275-6.811h1.301l2.608,5.324l2.179-5.324h1.187l-2.742,6.59
		c-0.58,1.389-1.131,2.312-1.654,2.768c-0.522,0.456-1.198,0.684-2.028,0.684c-0.359,0-0.682-0.032-0.965-0.095v-1.041
		c0.326,0.101,0.637,0.152,0.933,0.152c0.381,0,0.719-0.074,1.016-0.222c0.296-0.147,0.566-0.409,0.812-0.784
		c0.245-0.375,0.419-0.701,0.521-0.975L404.586,93.801z"/>
</g>
<g>
	<path fill="#F5F6F6" stroke="#696C71" stroke-width="1.1259" stroke-miterlimit="10" d="M253.724,55.158
		c0,14.87-12.058,26.927-26.937,26.927c-14.872,0-26.929-12.057-26.929-26.927s12.057-26.926,26.929-26.926
		C241.666,28.232,253.724,40.288,253.724,55.158z"/>
	<g>
		<path fill="#696C71" d="M217.644,50.231h1.453l3.429,8.92h-1.54l-0.915-2.47h-3.414l-0.915,2.47h-1.525L217.644,50.231z
			 M218.356,52.077l-1.22,3.298h2.44L218.356,52.077z"/>
		<path fill="#696C71" d="M229.411,55.825h-1.932v3.327h-1.51v-8.92h3.442c0.939,0,1.684,0.242,2.23,0.727s0.821,1.177,0.821,2.078
			c0,0.891-0.274,1.579-0.821,2.063S230.351,55.825,229.411,55.825z M230.966,53.036c0-0.455-0.136-0.818-0.406-1.09
			c-0.271-0.271-0.664-0.407-1.177-0.407h-1.903v2.979h1.903c0.503,0,0.894-0.136,1.169-0.407
			C230.828,53.839,230.966,53.481,230.966,53.036z"/>
		<path fill="#696C71" d="M237.576,50.231v8.92h-1.511v-8.92H237.576z"/>
	</g>
</g>
<rect x="156.134" y="253.146" fill="#FFFFFF" width="5.272" height="5.271"/>
<polygon fill="#696C71" points="230.981,422.685 227.882,428.044 224.784,422.685 "/>
<line fill="none" stroke="#696C71" stroke-width="0.6735" stroke-miterlimit="10" x1="227.882" y1="424.161" x2="227.882" y2="346.587"/>
<rect x="28.125" y="282.23" fill="#F5F6F6" width="397.333" height="80"/>
<g>
	<path fill="#696C71" d="M84.19,319.28v-1.196h6.656v1.196h-2.652v6.786h-1.352v-6.786H84.19z"/>
	<path fill="#696C71" d="M95.085,322.829h-0.962v3.237h-1.353v-7.982h3.081c0.841,0,1.504,0.206,1.989,0.618
		c0.485,0.411,0.728,1.003,0.728,1.774c0,0.658-0.18,1.181-0.539,1.566s-0.86,0.631-1.502,0.734l2.314,3.289h-1.534L95.085,322.829z
		 M94.123,319.255v2.443h1.703c0.441,0,0.786-0.11,1.033-0.331c0.247-0.222,0.37-0.518,0.37-0.891s-0.123-0.67-0.37-0.891
		s-0.592-0.331-1.033-0.331H94.123z"/>
	<path fill="#696C71" d="M103.08,318.084h1.3l3.068,7.982h-1.378l-0.819-2.21h-3.055l-0.819,2.21h-1.365L103.08,318.084z
		 M103.717,319.735l-1.092,2.951h2.184L103.717,319.735z"/>
	<path fill="#696C71" d="M115.663,318.084v7.982h-1.04l-4.082-5.811v5.811h-1.3v-7.982h1.274l3.848,5.538v-5.538H115.663z"/>
	<path fill="#696C71" d="M117.457,323.856h1.378c0.252,0.798,0.854,1.196,1.808,1.196c0.468,0,0.843-0.106,1.124-0.318
		c0.281-0.213,0.423-0.501,0.423-0.865c0-0.286-0.089-0.514-0.267-0.683s-0.475-0.301-0.891-0.396l-1.352-0.324
		c-1.326-0.312-1.989-1.027-1.989-2.146c0-0.685,0.253-1.25,0.761-1.696c0.507-0.446,1.158-0.67,1.956-0.67
		c0.841,0,1.519,0.197,2.034,0.592s0.848,0.934,0.995,1.618h-1.353c-0.251-0.71-0.806-1.065-1.664-1.065
		c-0.433,0-0.782,0.102-1.046,0.306c-0.265,0.203-0.396,0.47-0.396,0.799c0,0.529,0.351,0.876,1.053,1.04l1.391,0.325
		c0.65,0.147,1.157,0.407,1.521,0.78c0.364,0.372,0.546,0.85,0.546,1.43c0,0.737-0.265,1.324-0.793,1.762s-1.214,0.656-2.054,0.656
		c-0.85,0-1.559-0.206-2.126-0.617C117.949,325.167,117.596,324.593,117.457,323.856z"/>
	<path fill="#696C71" d="M127.923,318.084h1.3l3.068,7.982h-1.378l-0.819-2.21h-3.055l-0.819,2.21h-1.365L127.923,318.084z
		 M128.56,319.735l-1.092,2.951h2.184L128.56,319.735z"/>
	<path fill="#696C71" d="M134.688,325.046c-0.688-0.767-1.033-1.757-1.033-2.971c0-1.213,0.345-2.203,1.033-2.971
		c0.689-0.767,1.554-1.15,2.594-1.15c0.884,0,1.607,0.236,2.171,0.709s0.923,1.116,1.079,1.931h-1.326
		c-0.347-0.945-0.988-1.417-1.924-1.417c-0.693,0-1.244,0.271-1.651,0.812c-0.407,0.541-0.61,1.237-0.61,2.086
		c0,0.85,0.203,1.545,0.61,2.087s0.958,0.812,1.651,0.812c0.936,0,1.577-0.477,1.924-1.431h1.326
		c-0.156,0.824-0.516,1.472-1.079,1.944c-0.563,0.472-1.287,0.708-2.171,0.708C136.242,326.196,135.378,325.812,134.688,325.046z"/>
	<path fill="#696C71" d="M142.001,319.28v-1.196h6.656v1.196h-2.652v6.786h-1.352v-6.786H142.001z"/>
	<path fill="#696C71" d="M151.934,318.084v7.982h-1.353v-7.982H151.934z"/>
	<path fill="#696C71" d="M160.253,319.118c0.693,0.775,1.04,1.762,1.04,2.957c0,1.196-0.347,2.183-1.04,2.958
		s-1.577,1.163-2.652,1.163c-1.074,0-1.956-0.388-2.646-1.163c-0.688-0.775-1.033-1.762-1.033-2.958
		c0-1.195,0.345-2.182,1.033-2.957c0.689-0.775,1.571-1.164,2.646-1.164C158.676,317.954,159.56,318.343,160.253,319.118z
		 M159.284,324.168c0.429-0.546,0.644-1.243,0.644-2.093c0-0.849-0.215-1.547-0.644-2.093s-0.99-0.819-1.684-0.819
		s-1.252,0.271-1.677,0.812c-0.425,0.542-0.637,1.242-0.637,2.1c0,0.858,0.212,1.559,0.637,2.1c0.425,0.542,0.983,0.812,1.677,0.812
		S158.855,324.715,159.284,324.168z"/>
	<path fill="#696C71" d="M169.703,318.084v7.982h-1.04l-4.082-5.811v5.811h-1.3v-7.982h1.274l3.848,5.538v-5.538H169.703z"/>
</g>
<g>
	<g>
		<path fill="#696C71" d="M294.67,322.829h-0.962v3.237h-1.353v-7.982h3.081c0.841,0,1.504,0.206,1.989,0.618
			c0.485,0.411,0.728,1.003,0.728,1.774c0,0.658-0.18,1.181-0.539,1.566s-0.86,0.631-1.502,0.734l2.314,3.289h-1.534L294.67,322.829
			z M293.708,319.255v2.443h1.703c0.441,0,0.786-0.11,1.033-0.331c0.247-0.222,0.37-0.518,0.37-0.891s-0.123-0.67-0.37-0.891
			s-0.592-0.331-1.033-0.331H293.708z"/>
		<path fill="#696C71" d="M300.221,318.084h5.213v1.196h-3.887v2.106h3.523v1.183h-3.523v2.288h3.887v1.209h-5.213V318.084z"/>
		<path fill="#696C71" d="M306.929,323.856h1.378c0.252,0.798,0.854,1.196,1.808,1.196c0.468,0,0.843-0.106,1.124-0.318
			c0.281-0.213,0.423-0.501,0.423-0.865c0-0.286-0.089-0.514-0.267-0.683s-0.475-0.301-0.891-0.396l-1.352-0.324
			c-1.326-0.312-1.989-1.027-1.989-2.146c0-0.685,0.253-1.25,0.761-1.696c0.507-0.446,1.158-0.67,1.956-0.67
			c0.841,0,1.519,0.197,2.034,0.592s0.848,0.934,0.995,1.618h-1.353c-0.251-0.71-0.806-1.065-1.664-1.065
			c-0.433,0-0.782,0.102-1.046,0.306c-0.265,0.203-0.396,0.47-0.396,0.799c0,0.529,0.351,0.876,1.053,1.04l1.391,0.325
			c0.65,0.147,1.157,0.407,1.521,0.78c0.364,0.372,0.546,0.85,0.546,1.43c0,0.737-0.265,1.324-0.793,1.762s-1.214,0.656-2.054,0.656
			c-0.85,0-1.559-0.206-2.126-0.617C307.421,325.167,307.067,324.593,306.929,323.856z"/>
		<path fill="#696C71" d="M316.302,318.084v7.982h-1.353v-7.982H316.302z"/>
		<path fill="#696C71" d="M318.719,326.066v-7.982h1.353v6.773h3.835v1.209H318.719z"/>
		<path fill="#696C71" d="M327.286,318.084v7.982h-1.353v-7.982H327.286z"/>
		<path fill="#696C71" d="M329.704,318.084h5.213v1.196h-3.887v2.106h3.523v1.183h-3.523v2.288h3.887v1.209h-5.213V318.084z"/>
		<path fill="#696C71" d="M343.458,318.084v7.982h-1.04l-4.082-5.811v5.811h-1.3v-7.982h1.274l3.848,5.538v-5.538H343.458z"/>
		<path fill="#696C71" d="M346.48,325.046c-0.688-0.767-1.033-1.757-1.033-2.971c0-1.213,0.345-2.203,1.033-2.971
			c0.689-0.767,1.554-1.15,2.594-1.15c0.884,0,1.607,0.236,2.171,0.709s0.923,1.116,1.079,1.931h-1.326
			c-0.347-0.945-0.988-1.417-1.924-1.417c-0.693,0-1.244,0.271-1.651,0.812c-0.407,0.541-0.61,1.237-0.61,2.086
			c0,0.85,0.203,1.545,0.61,2.087s0.958,0.812,1.651,0.812c0.936,0,1.577-0.477,1.924-1.431h1.326
			c-0.156,0.824-0.516,1.472-1.079,1.944c-0.563,0.472-1.287,0.708-2.171,0.708C348.034,326.196,347.17,325.812,346.48,325.046z"/>
		<path fill="#696C71" d="M357.186,321.659l2.105-3.575h1.431l-2.899,4.798v3.185h-1.339v-3.185l-2.886-4.798h1.469L357.186,321.659
			z"/>
	</g>
</g>
<g>
	<path fill="#F5F6F6" d="M264.859,436.95c-4.938,0-9.389,2.045-12.574,5.325c-3.188-3.28-7.639-5.325-12.57-5.325
		c-0.119,0-0.229,0.015-0.344,0.02c-0.121-0.005-0.232-0.02-0.348-0.02c-4.77,0-9.073,1.917-12.239,5.001
		c-3.158-3.084-7.459-5.001-12.225-5.001c-0.119,0-0.234,0.015-0.354,0.02c-0.113-0.005-0.223-0.02-0.34-0.02
		c-4.932,0-9.385,2.045-12.572,5.325c-3.188-3.28-7.639-5.325-12.572-5.325c-9.689,0-17.539,7.851-17.539,17.536
		c0,9.688,7.85,17.535,17.539,17.535c4.934,0,9.385-2.045,12.572-5.326c3.188,3.281,7.641,5.326,12.572,5.326
		c0.117,0,0.227-0.012,0.34-0.012c0.119,0,0.234,0.012,0.354,0.012c4.766,0,9.066-1.917,12.225-5.003
		c3.166,3.086,7.469,5.003,12.239,5.003c0.115,0,0.227-0.012,0.348-0.012c0.115,0,0.225,0.012,0.344,0.012
		c4.932,0,9.383-2.045,12.57-5.326c3.186,3.281,7.637,5.326,12.574,5.326c9.684,0,17.537-7.848,17.537-17.535
		C282.396,444.801,274.543,436.95,264.859,436.95"/>
	<g>
		<path fill="none" stroke="#696C71" stroke-width="1.2124" stroke-miterlimit="10" d="M264.857,436.95
			c-4.936,0-9.383,2.045-12.572,5.325c-3.188-3.28-7.639-5.325-12.57-5.325c-0.115,0-0.229,0.015-0.344,0.02
			c-0.117-0.005-0.23-0.02-0.352-0.02c-4.764,0-9.067,1.917-12.235,5.006c-3.158-3.089-7.459-5.006-12.229-5.006
			c-0.115,0-0.23,0.015-0.35,0.02c-0.113-0.005-0.223-0.02-0.336-0.02c-4.936,0-9.389,2.045-12.576,5.325
			c-3.188-3.28-7.639-5.325-12.572-5.325c-9.689,0-17.537,7.851-17.537,17.536c0,9.688,7.848,17.535,17.537,17.535
			c4.934,0,9.385-2.04,12.572-5.326c3.188,3.286,7.641,5.326,12.576,5.326c0.113,0,0.223-0.012,0.336-0.012
			c0.119,0,0.234,0.012,0.35,0.012c4.77,0,9.07-1.917,12.229-5.003c3.167,3.086,7.471,5.003,12.235,5.003
			c0.121,0,0.234-0.012,0.352-0.012c0.115,0,0.229,0.012,0.344,0.012c4.932,0,9.383-2.04,12.57-5.326
			c3.189,3.286,7.637,5.326,12.572,5.326c9.686,0,17.539-7.848,17.539-17.535C282.396,444.801,274.543,436.95,264.857,436.95z"/>
		<g>
			<path fill="#696C71" d="M191.722,450.328h5.228v1.199h-3.898v2.111h3.533v1.187h-3.533v2.295h3.898v1.212h-5.228V450.328z"/>
			<path fill="#696C71" d="M205.774,450.328v8.004h-1.043l-4.093-5.827v5.827h-1.304v-8.004h1.277l3.858,5.553v-5.553H205.774z"/>
			<path fill="#696C71" d="M208.46,458.332v-8.004h2.698c1.182,0,2.125,0.362,2.829,1.088s1.056,1.697,1.056,2.914
				s-0.352,2.188-1.056,2.913c-0.704,0.727-1.647,1.089-2.829,1.089H208.46z M209.815,457.12h1.291c0.825,0,1.462-0.248,1.909-0.743
				c0.448-0.496,0.672-1.178,0.672-2.047s-0.224-1.554-0.672-2.054c-0.447-0.499-1.084-0.749-1.909-0.749h-1.291V457.12z"/>
			<path fill="#696C71" d="M220.388,455.347h-1.733v2.985h-1.355v-8.004h3.089c0.844,0,1.511,0.217,2.002,0.651
				c0.49,0.435,0.736,1.056,0.736,1.864c0,0.8-0.246,1.417-0.736,1.852C221.898,455.13,221.231,455.347,220.388,455.347z
				 M221.783,452.844c0-0.408-0.122-0.734-0.365-0.978s-0.596-0.365-1.056-0.365h-1.708v2.673h1.708
				c0.451,0,0.802-0.122,1.049-0.365C221.659,453.565,221.783,453.243,221.783,452.844z"/>
			<path fill="#696C71" d="M231.233,451.364c0.695,0.777,1.043,1.767,1.043,2.966s-0.348,2.188-1.043,2.966
				c-0.695,0.777-1.582,1.166-2.659,1.166c-1.078,0-1.962-0.389-2.653-1.166c-0.69-0.778-1.036-1.767-1.036-2.966
				s0.346-2.188,1.036-2.966c0.691-0.777,1.575-1.167,2.653-1.167C229.651,450.197,230.538,450.587,231.233,451.364z
				 M230.263,456.429c0.43-0.548,0.646-1.247,0.646-2.099s-0.216-1.552-0.646-2.099c-0.431-0.548-0.993-0.821-1.688-0.821
				s-1.256,0.271-1.682,0.814s-0.639,1.245-0.639,2.105s0.213,1.562,0.639,2.105s0.986,0.814,1.682,0.814
				S229.832,456.977,230.263,456.429z"/>
			<path fill="#696C71" d="M235.888,450.328v8.004h-1.355v-8.004H235.888z"/>
			<path fill="#696C71" d="M245,450.328v8.004h-1.043l-4.093-5.827v5.827h-1.304v-8.004h1.277l3.858,5.553v-5.553H245z"/>
			<path fill="#696C71" d="M247.189,451.527v-1.199h6.675v1.199h-2.659v6.805h-1.355v-6.805H247.189z"/>
			<path fill="#696C71" d="M255.377,456.116h1.382c0.252,0.8,0.855,1.199,1.812,1.199c0.469,0,0.845-0.106,1.127-0.319
				s0.424-0.502,0.424-0.867c0-0.287-0.089-0.515-0.268-0.685c-0.178-0.169-0.476-0.302-0.893-0.397l-1.355-0.326
				c-1.33-0.312-1.995-1.029-1.995-2.15c0-0.687,0.255-1.254,0.763-1.701c0.509-0.448,1.162-0.672,1.962-0.672
				c0.843,0,1.523,0.198,2.04,0.594c0.518,0.396,0.85,0.937,0.998,1.622h-1.356c-0.252-0.712-0.808-1.068-1.668-1.068
				c-0.436,0-0.785,0.103-1.05,0.307c-0.266,0.204-0.397,0.471-0.397,0.802c0,0.529,0.352,0.878,1.056,1.042l1.395,0.326
				c0.652,0.148,1.161,0.409,1.525,0.782c0.365,0.374,0.548,0.852,0.548,1.435c0,0.738-0.266,1.327-0.795,1.766
				c-0.53,0.439-1.217,0.658-2.06,0.658c-0.853,0-1.562-0.206-2.132-0.619C255.87,457.431,255.516,456.854,255.377,456.116z"/>
		</g>
	</g>
</g>
<rect x="28.125" y="153.232" fill="#F5F6F6" width="397.333" height="80"/>
<g>
	
		<line fill="none" stroke="#696C71" stroke-width="0.6735" stroke-miterlimit="10" x1="226.788" y1="233.039" x2="226.788" y2="282.23"/>
</g>
<g>
	<g>
		<g>
			<path fill="#696C71" d="M69.993,185.445c0.382,0.121,0.693,0.354,0.937,0.695c0.242,0.343,0.363,0.722,0.363,1.138
				c0,0.737-0.24,1.303-0.721,1.696c-0.481,0.395-1.143,0.592-1.982,0.592h-3.056v-7.982h2.795c0.85,0,1.513,0.187,1.989,0.559
				s0.715,0.91,0.715,1.612c0,0.416-0.098,0.776-0.292,1.08C70.546,185.138,70.297,185.341,69.993,185.445z M66.848,184.938h1.469
				c0.944,0,1.417-0.368,1.417-1.105c0-0.719-0.473-1.079-1.417-1.079h-1.469V184.938z M66.848,186.057v2.34h1.716
				c0.45,0,0.797-0.104,1.04-0.312c0.242-0.208,0.364-0.493,0.364-0.857s-0.122-0.65-0.364-0.858
				c-0.243-0.208-0.59-0.312-1.04-0.312H66.848z"/>
			<path fill="#696C71" d="M75.791,181.584h1.3l3.068,7.982h-1.378l-0.819-2.21h-3.055l-0.819,2.21h-1.365L75.791,181.584z
				 M76.428,183.235l-1.092,2.951h2.184L76.428,183.235z"/>
			<path fill="#696C71" d="M81.953,189.566v-7.982h1.353v6.773h3.835v1.209H81.953z"/>
			<path fill="#696C71" d="M89.168,189.566v-7.982h1.353v6.773h3.835v1.209H89.168z"/>
			<path fill="#696C71" d="M96.383,181.584h5.213v1.196h-3.887v2.105h3.523v1.184h-3.523v2.288h3.887v1.209h-5.213V181.584z"/>
			<path fill="#696C71" d="M106.029,186.329h-0.962v3.237h-1.353v-7.982h3.081c0.841,0,1.504,0.206,1.989,0.618
				s0.728,1.003,0.728,1.774c0,0.659-0.18,1.181-0.539,1.566s-0.86,0.631-1.502,0.734l2.314,3.289h-1.534L106.029,186.329z
				 M105.067,182.754v2.444h1.703c0.441,0,0.786-0.11,1.033-0.332c0.247-0.22,0.37-0.517,0.37-0.89s-0.123-0.669-0.37-0.891
				s-0.592-0.332-1.033-0.332H105.067z"/>
			<path fill="#696C71" d="M112.933,181.584v7.982h-1.353v-7.982H112.933z"/>
			<path fill="#696C71" d="M121.771,181.584v7.982h-1.04l-4.082-5.811v5.811h-1.3v-7.982h1.274l3.848,5.538v-5.538H121.771z"/>
			<path fill="#696C71" d="M126.634,181.584h1.3l3.068,7.982h-1.378l-0.819-2.21h-3.055l-0.819,2.21h-1.365L126.634,181.584z
				 M127.271,183.235l-1.092,2.951h2.184L127.271,183.235z"/>
			<path fill="#696C71" d="M64.91,202.356h1.378c0.252,0.798,0.854,1.196,1.808,1.196c0.468,0,0.843-0.106,1.124-0.318
				c0.281-0.213,0.423-0.501,0.423-0.865c0-0.286-0.089-0.514-0.267-0.683s-0.475-0.301-0.891-0.396l-1.352-0.324
				c-1.326-0.312-1.989-1.027-1.989-2.146c0-0.685,0.253-1.25,0.761-1.696c0.507-0.446,1.158-0.67,1.956-0.67
				c0.841,0,1.519,0.197,2.034,0.592s0.848,0.934,0.995,1.618h-1.353c-0.251-0.71-0.806-1.065-1.664-1.065
				c-0.433,0-0.782,0.102-1.046,0.306c-0.265,0.203-0.396,0.47-0.396,0.799c0,0.529,0.351,0.876,1.053,1.04l1.391,0.325
				c0.65,0.147,1.157,0.407,1.521,0.78c0.364,0.372,0.546,0.85,0.546,1.43c0,0.737-0.265,1.324-0.793,1.762
				s-1.214,0.656-2.054,0.656c-0.85,0-1.559-0.206-2.126-0.617C65.402,203.667,65.049,203.093,64.91,202.356z"/>
			<path fill="#696C71" d="M72.931,196.584h5.213v1.196h-3.887v2.106h3.523v1.183h-3.523v2.288h3.887v1.209h-5.213V196.584z"/>
			<path fill="#696C71" d="M82.577,201.329h-0.962v3.237h-1.353v-7.982h3.081c0.841,0,1.504,0.206,1.989,0.618
				c0.485,0.411,0.728,1.003,0.728,1.774c0,0.658-0.18,1.181-0.539,1.566s-0.86,0.631-1.502,0.734l2.314,3.289H84.8L82.577,201.329z
				 M81.615,197.755v2.443h1.703c0.441,0,0.786-0.11,1.033-0.331c0.247-0.222,0.37-0.518,0.37-0.891s-0.123-0.67-0.37-0.891
				s-0.592-0.331-1.033-0.331H81.615z"/>
			<path fill="#696C71" d="M91.808,204.566h-1.287l-3.017-7.982h1.417l2.263,6.228l2.262-6.228h1.378L91.808,204.566z"/>
			<path fill="#696C71" d="M97.97,196.584v7.982h-1.353v-7.982H97.97z"/>
			<path fill="#696C71" d="M100.991,203.546c-0.688-0.767-1.033-1.757-1.033-2.971c0-1.213,0.345-2.203,1.033-2.971
				c0.689-0.767,1.554-1.15,2.594-1.15c0.884,0,1.607,0.236,2.171,0.709s0.923,1.116,1.079,1.931h-1.326
				c-0.347-0.945-0.988-1.417-1.924-1.417c-0.693,0-1.244,0.271-1.651,0.812c-0.407,0.541-0.61,1.237-0.61,2.086
				c0,0.85,0.203,1.545,0.61,2.087s0.958,0.812,1.651,0.812c0.936,0,1.577-0.477,1.924-1.431h1.326
				c-0.156,0.824-0.516,1.472-1.079,1.944c-0.563,0.472-1.287,0.708-2.171,0.708C102.545,204.696,101.681,204.312,100.991,203.546z"
				/>
			<path fill="#696C71" d="M108.798,196.584h5.213v1.196h-3.887v2.106h3.523v1.183h-3.523v2.288h3.887v1.209h-5.213V196.584z"/>
		</g>
	</g>
	<g>
		<polyline fill="none" stroke="#595B5F" stroke-width="0.9621" stroke-miterlimit="10" points="163.307,173.032 154.84,173.032 
			143.178,193.232 154.84,213.433 178.165,213.433 189.829,193.232 178.165,173.032 169.7,173.032 		"/>
		<circle fill="none" stroke="#595B5F" stroke-width="1.0345" stroke-miterlimit="10" cx="166.502" cy="193.232" r="9.064"/>
	</g>
</g>
<g>
	<g>
		<g>
			<path fill="#696C71" d="M316.087,189.566h-0.962l-2.197-5.551v5.551h-1.287v-7.982h1.547l2.432,6.137l2.404-6.137h1.509v7.982
				h-1.301v-5.551L316.087,189.566z"/>
			<path fill="#696C71" d="M324.394,181.583h1.3l3.068,7.982h-1.378l-0.819-2.21h-3.055l-0.819,2.21h-1.365L324.394,181.583z
				 M325.03,183.235l-1.092,2.951h2.184L325.03,183.235z"/>
			<path fill="#696C71" d="M331.908,181.583v7.982h-1.353v-7.982H331.908z"/>
			<path fill="#696C71" d="M340.747,181.583v7.982h-1.04l-4.082-5.811v5.811h-1.3v-7.982h1.274l3.848,5.538v-5.538H340.747z"/>
			<path fill="#696C71" d="M297.498,204.566h-1.353v-7.982h5.097v1.196h-3.744v2.366h3.497v1.183h-3.497V204.566z"/>
			<path fill="#696C71" d="M308.632,203.844c-0.576,0.568-1.354,0.852-2.333,0.852s-1.758-0.283-2.334-0.852
				c-0.576-0.567-0.864-1.389-0.864-2.463v-4.798h1.353v4.654c0,1.5,0.615,2.249,1.846,2.249s1.846-0.749,1.846-2.249v-4.654h1.353
				v4.811C309.497,202.459,309.208,203.277,308.632,203.844z"/>
			<path fill="#696C71" d="M318.206,196.583v7.982h-1.04l-4.082-5.811v5.811h-1.3v-7.982h1.274l3.848,5.538v-5.538H318.206z"/>
			<path fill="#696C71" d="M321.229,203.545c-0.688-0.767-1.033-1.757-1.033-2.971c0-1.213,0.345-2.203,1.033-2.971
				c0.689-0.767,1.554-1.15,2.594-1.15c0.884,0,1.607,0.236,2.171,0.709s0.923,1.116,1.079,1.931h-1.326
				c-0.347-0.945-0.988-1.417-1.924-1.417c-0.693,0-1.244,0.271-1.651,0.812c-0.407,0.541-0.61,1.237-0.61,2.086
				c0,0.85,0.203,1.545,0.61,2.087s0.958,0.812,1.651,0.812c0.936,0,1.577-0.477,1.924-1.431h1.326
				c-0.156,0.824-0.516,1.472-1.079,1.944c-0.563,0.472-1.287,0.708-2.171,0.708C322.782,204.696,321.918,204.312,321.229,203.545z"
				/>
			<path fill="#696C71" d="M328.541,197.78v-1.196h6.656v1.196h-2.652v6.786h-1.352v-6.786H328.541z"/>
			<path fill="#696C71" d="M338.474,196.583v7.982h-1.353v-7.982H338.474z"/>
			<path fill="#696C71" d="M346.793,197.618c0.693,0.775,1.04,1.762,1.04,2.957c0,1.196-0.347,2.183-1.04,2.958
				s-1.577,1.163-2.652,1.163c-1.074,0-1.956-0.388-2.646-1.163c-0.688-0.775-1.033-1.762-1.033-2.958
				c0-1.195,0.345-2.182,1.033-2.957c0.689-0.775,1.571-1.164,2.646-1.164C345.216,196.454,346.1,196.842,346.793,197.618z
				 M345.824,202.667c0.429-0.546,0.644-1.243,0.644-2.093c0-0.849-0.215-1.547-0.644-2.093s-0.99-0.819-1.684-0.819
				s-1.252,0.271-1.677,0.812c-0.425,0.542-0.637,1.242-0.637,2.1c0,0.858,0.212,1.559,0.637,2.1
				c0.425,0.542,0.983,0.812,1.677,0.812S345.396,203.214,345.824,202.667z"/>
			<path fill="#696C71" d="M356.243,196.583v7.982h-1.04l-4.082-5.811v5.811h-1.3v-7.982h1.274l3.848,5.538v-5.538H356.243z"/>
		</g>
	</g>
</g>
<g>
	<polygon fill="#595B5F" points="224.208,139.528 226.787,143.993 229.369,139.528 	"/>
	
		<line fill="none" stroke="#696C71" stroke-width="0.6735" stroke-miterlimit="10" x1="226.787" y1="82.689" x2="226.787" y2="140.372"/>
</g>
</svg>
