<?xml version="1.0" encoding="utf-8"?>
<!-- Generator: Adobe Illustrator 16.0.4, SVG Export Plug-In . SVG Version: 6.00 Build 0)  -->
<!DOCTYPE svg PUBLIC "-//W3C//DTD SVG 1.0//EN" "http://www.w3.org/TR/2001/REC-SVG-20010904/DTD/svg10.dtd">
<svg version="1.0" id="Layer_1" xmlns="http://www.w3.org/2000/svg" xmlns:xlink="http://www.w3.org/1999/xlink" x="0px" y="0px"
	 width="452.664px" height="456px" viewBox="0 0 452.664 456" enable-background="new 0 0 452.664 456" xml:space="preserve">
<g>
	<g opacity="0.1">
		<g>
			<defs>
				<rect id="SVGID_31_" x="-48.507" y="-30.723" width="540.24" height="533.76"/>
			</defs>
			<clipPath id="SVGID_2_">
				<use xlink:href="#SVGID_31_"  overflow="visible"/>
			</clipPath>
			<g clip-path="url(#SVGID_2_)">
				<defs>
					<rect id="SVGID_33_" x="-48.507" y="-30.724" width="540.239" height="533.761"/>
				</defs>
				<clipPath id="SVGID_4_">
					<use xlink:href="#SVGID_33_"  overflow="visible"/>
				</clipPath>
				<g transform="matrix(1 0 0 1 -3.814697e-06 -1.907349e-06)" clip-path="url(#SVGID_4_)">
					
						<image overflow="visible" width="2251" height="2224" xlink:href="B9BE7F49A6A807F.png"  transform="matrix(0.24 0 0 0.24 -48.5068 -30.7241)">
					</image>
				</g>
			</g>
		</g>
	</g>
	<rect x="-29.312" y="-22.147" fill="#FFFFFF" width="512.663" height="506.151"/>
	<rect x="0.533" y="54.146" fill="#F5F6F6" width="452.664" height="345.234"/>
	<line fill="none" stroke="#585A5E" stroke-miterlimit="10" x1="227.278" y1="418.439" x2="227.278" y2="362.633"/>
	<polygon fill="#585A5E" points="230.271,415.85 227.278,421.031 224.286,415.85 	"/>
	<rect x="0.532" y="38.065" fill="#F5F6F6" width="110" height="18.366"/>
	<g>
		<path fill="#585A5E" d="M18.291,53.207c-0.78,0-1.404-0.272-1.873-0.817c-0.468-0.546-0.702-1.233-0.702-2.063
			s0.234-1.517,0.702-2.061c0.469-0.544,1.093-0.815,1.873-0.815c0.777,0,1.4,0.271,1.868,0.815c0.469,0.544,0.703,1.23,0.703,2.061
			s-0.234,1.518-0.703,2.063C19.691,52.934,19.068,53.207,18.291,53.207z M18.291,52.45c0.484,0,0.869-0.188,1.155-0.566
			s0.43-0.896,0.43-1.558c0-0.657-0.144-1.175-0.43-1.553s-0.671-0.566-1.155-0.566c-0.487,0-0.874,0.188-1.16,0.566
			s-0.429,0.896-0.429,1.553c0,0.661,0.143,1.18,0.429,1.558S17.804,52.45,18.291,52.45z"/>
		<path fill="#585A5E" d="M23.078,48.828c0.28-0.456,0.614-0.8,1.001-1.031c0.388-0.231,0.744-0.347,1.069-0.347
			c0.456,0,0.866,0.197,1.23,0.591c0.365,0.394,0.547,0.991,0.547,1.792c0,0.632-0.121,1.195-0.363,1.691
			c-0.243,0.497-0.565,0.889-0.97,1.178c-0.403,0.287-0.903,0.432-1.499,0.432c-0.169,0-0.43-0.018-0.781-0.054
			c-0.052-0.007-0.13-0.015-0.234-0.024H22.17v-7.881h0.908V48.828z M23.078,49.908v2.342c0.329,0.085,0.632,0.127,0.908,0.127
			c0.551,0,1.014-0.216,1.39-0.647s0.563-1.022,0.563-1.772c0-0.544-0.103-0.953-0.308-1.227c-0.205-0.274-0.438-0.411-0.698-0.411
			c-0.283,0-0.595,0.144-0.935,0.431C23.658,49.036,23.352,49.422,23.078,49.908z"/>
		<path fill="#585A5E" d="M28.493,52.767v-0.962c0.364,0.237,0.75,0.404,1.157,0.5c0.406,0.097,0.752,0.145,1.035,0.145
			c0.459,0,0.789-0.074,0.991-0.223c0.201-0.147,0.303-0.332,0.303-0.554c0-0.146-0.048-0.271-0.142-0.376
			c-0.095-0.104-0.329-0.232-0.703-0.386l-0.312-0.127l-0.63-0.249c-0.678-0.264-1.104-0.508-1.279-0.732
			c-0.18-0.222-0.269-0.491-0.269-0.811c0-0.449,0.173-0.818,0.521-1.108c0.347-0.29,0.91-0.435,1.689-0.435
			c0.583,0,1.136,0.085,1.657,0.254v0.825c-0.601-0.215-1.164-0.322-1.692-0.322c-0.385,0-0.686,0.067-0.902,0.202
			c-0.217,0.136-0.325,0.304-0.325,0.506c0,0.195,0.094,0.352,0.283,0.469c0.186,0.117,0.488,0.252,0.909,0.405l0.615,0.225
			c0.564,0.205,0.96,0.428,1.187,0.669c0.228,0.241,0.341,0.542,0.341,0.903c0,0.472-0.182,0.86-0.545,1.165
			c-0.362,0.304-0.943,0.456-1.74,0.456C29.944,53.207,29.229,53.06,28.493,52.767z"/>
		<path fill="#585A5E" d="M39.156,52.692c-0.726,0.343-1.412,0.515-2.061,0.515c-0.491,0-0.931-0.122-1.318-0.366
			c-0.387-0.243-0.697-0.593-0.93-1.046c-0.233-0.454-0.35-0.939-0.35-1.456c0-0.498,0.111-0.977,0.332-1.435
			c0.222-0.459,0.531-0.815,0.928-1.071c0.397-0.255,0.84-0.383,1.328-0.383c0.648,0,1.168,0.23,1.561,0.692
			c0.392,0.461,0.588,1.173,0.588,2.135v0.195h-3.76c0,0.379,0.079,0.725,0.237,1.038c0.157,0.312,0.365,0.548,0.622,0.704
			c0.258,0.157,0.551,0.235,0.879,0.235c0.586,0,1.234-0.195,1.943-0.587V52.692z M35.528,49.793h2.72v-0.132
			c0-0.444-0.108-0.798-0.327-1.061c-0.218-0.263-0.509-0.395-0.874-0.395c-0.367,0-0.686,0.134-0.954,0.401
			S35.636,49.271,35.528,49.793z"/>
		<path fill="#585A5E" d="M41.275,53.055v-5.454h0.908v1.191c0.283-0.449,0.607-0.785,0.974-1.009
			c0.366-0.223,0.774-0.334,1.224-0.334c0.328,0,0.657,0.051,0.986,0.151v1.968h-0.874v-1.245c-0.153-0.026-0.273-0.039-0.361-0.039
			c-0.339,0-0.671,0.134-0.996,0.4c-0.326,0.267-0.644,0.667-0.952,1.201v3.169H41.275z"/>
		<path fill="#585A5E" d="M48.779,53.055l-2.37-5.454h0.996l1.873,4.321l1.903-4.321h0.911l-2.388,5.454H48.779z"/>
		<path fill="#585A5E" d="M56.778,51.835c-0.276,0.453-0.609,0.796-0.998,1.025c-0.39,0.23-0.747,0.346-1.072,0.346
			c-0.456,0-0.865-0.197-1.229-0.591s-0.545-0.991-0.545-1.792c0-0.632,0.121-1.195,0.362-1.692
			c0.241-0.496,0.563-0.889,0.968-1.176c0.404-0.289,0.904-0.433,1.501-0.433c0.172,0,0.433,0.018,0.78,0.054
			c0.052,0.007,0.13,0.015,0.233,0.024h0.911v3.852c0,0.658,0.07,1.192,0.21,1.603h-0.947C56.88,52.757,56.822,52.35,56.778,51.835z
			 M56.782,50.749v-2.342c-0.322-0.085-0.623-0.127-0.899-0.127c-0.562,0-1.028,0.217-1.401,0.65
			c-0.374,0.434-0.561,1.023-0.561,1.77c0,0.541,0.103,0.949,0.306,1.225c0.204,0.275,0.437,0.413,0.697,0.413
			c0.283,0,0.597-0.144,0.939-0.431C56.205,51.621,56.512,51.234,56.782,50.749z"/>
		<path fill="#585A5E" d="M60.225,48.828c0.279-0.456,0.613-0.8,1.001-1.031c0.387-0.231,0.743-0.347,1.069-0.347
			c0.455,0,0.865,0.197,1.23,0.591c0.364,0.394,0.547,0.991,0.547,1.792c0,0.632-0.121,1.195-0.364,1.691
			c-0.242,0.497-0.565,0.889-0.969,1.178c-0.404,0.287-0.903,0.432-1.499,0.432c-0.17,0-0.43-0.018-0.781-0.054
			c-0.053-0.007-0.131-0.015-0.234-0.024h-0.908v-7.881h0.908V48.828z M60.225,49.908v2.342c0.328,0.085,0.631,0.127,0.908,0.127
			c0.55,0,1.013-0.216,1.389-0.647s0.564-1.022,0.564-1.772c0-0.544-0.103-0.953-0.308-1.227c-0.205-0.274-0.438-0.411-0.698-0.411
			c-0.283,0-0.595,0.144-0.936,0.431C60.805,49.036,60.498,49.422,60.225,49.908z"/>
		<path fill="#585A5E" d="M67.104,53.055v-4.697H65.59v-0.757h2.422v4.697h1.519v0.757H67.104z M66.957,45.631
			c0-0.205,0.07-0.357,0.209-0.458c0.14-0.101,0.271-0.15,0.395-0.15c0.126,0,0.259,0.05,0.398,0.15s0.209,0.253,0.209,0.458
			c0,0.2-0.069,0.352-0.209,0.452s-0.272,0.15-0.398,0.15c-0.123,0-0.255-0.05-0.395-0.15
			C67.027,45.983,66.957,45.832,66.957,45.631z"/>
		<path fill="#585A5E" d="M73.231,53.055v-7.124h-1.631v-0.757h2.539v7.124h1.704v0.757H73.231z"/>
		<path fill="#585A5E" d="M79.485,53.055v-4.697h-1.514v-0.757h2.422v4.697h1.519v0.757H79.485z M79.339,45.631
			c0-0.205,0.07-0.357,0.209-0.458c0.14-0.101,0.271-0.15,0.395-0.15c0.126,0,0.259,0.05,0.398,0.15s0.209,0.253,0.209,0.458
			c0,0.2-0.069,0.352-0.209,0.452s-0.272,0.15-0.398,0.15c-0.123,0-0.255-0.05-0.395-0.15
			C79.409,45.983,79.339,45.832,79.339,45.631z"/>
		<path fill="#585A5E" d="M88.709,52.835c-0.427,0.179-0.736,0.286-0.928,0.319c-0.192,0.035-0.378,0.052-0.557,0.052
			c-0.381,0-0.729-0.073-1.045-0.22c-0.316-0.146-0.555-0.363-0.716-0.649s-0.241-0.729-0.241-1.328v-2.197H83.86v-0.757h1.362
			v-2.197h0.908v2.197h2.427v0.757h-2.427v2.183c0,0.439,0.052,0.75,0.156,0.93c0.104,0.182,0.243,0.313,0.417,0.398
			c0.175,0.085,0.38,0.127,0.618,0.127c0.439,0,0.901-0.139,1.387-0.415V52.835z"/>
		<path fill="#585A5E" d="M92.348,52.84l-2.519-5.239h1l2.007,4.096l1.676-4.096h0.913l-2.109,5.069
			c-0.446,1.068-0.871,1.778-1.272,2.129c-0.402,0.351-0.923,0.526-1.561,0.526c-0.276,0-0.524-0.024-0.742-0.073v-0.801
			c0.25,0.078,0.489,0.117,0.717,0.117c0.293,0,0.554-0.057,0.781-0.17c0.228-0.114,0.436-0.315,0.625-0.604
			c0.188-0.289,0.322-0.539,0.4-0.75L92.348,52.84z"/>
	</g>
	<rect x="343.2" y="38.065" fill="#F5F6F6" width="110" height="18.366"/>
	<g>
		<path fill="#585A5E" d="M374.257,52.767v-0.962c0.364,0.237,0.75,0.404,1.157,0.5c0.406,0.097,0.752,0.145,1.035,0.145
			c0.459,0,0.789-0.074,0.991-0.223c0.201-0.147,0.303-0.332,0.303-0.554c0-0.146-0.048-0.271-0.142-0.376
			c-0.095-0.104-0.329-0.232-0.703-0.386l-0.312-0.127l-0.63-0.249c-0.678-0.264-1.104-0.508-1.279-0.732
			c-0.18-0.222-0.269-0.491-0.269-0.811c0-0.449,0.173-0.818,0.521-1.108c0.347-0.29,0.91-0.435,1.689-0.435
			c0.583,0,1.136,0.085,1.657,0.254v0.825c-0.601-0.215-1.164-0.322-1.692-0.322c-0.385,0-0.686,0.067-0.902,0.202
			c-0.217,0.136-0.325,0.304-0.325,0.506c0,0.195,0.094,0.352,0.283,0.469c0.186,0.117,0.488,0.252,0.909,0.405l0.615,0.225
			c0.564,0.205,0.96,0.428,1.187,0.669c0.228,0.241,0.341,0.542,0.341,0.903c0,0.472-0.182,0.86-0.545,1.165
			c-0.362,0.304-0.943,0.456-1.74,0.456C375.708,53.207,374.992,53.06,374.257,52.767z"/>
		<path fill="#585A5E" d="M384.92,52.692c-0.726,0.343-1.412,0.515-2.061,0.515c-0.491,0-0.931-0.122-1.318-0.366
			c-0.387-0.243-0.697-0.593-0.93-1.046c-0.233-0.454-0.35-0.939-0.35-1.456c0-0.498,0.111-0.977,0.332-1.435
			c0.222-0.459,0.531-0.815,0.928-1.071c0.397-0.255,0.84-0.383,1.328-0.383c0.648,0,1.168,0.23,1.561,0.692
			c0.392,0.461,0.588,1.173,0.588,2.135v0.195h-3.76c0,0.379,0.079,0.725,0.237,1.038c0.157,0.312,0.365,0.548,0.622,0.704
			c0.258,0.157,0.551,0.235,0.879,0.235c0.586,0,1.234-0.195,1.943-0.587V52.692z M381.292,49.793h2.72v-0.132
			c0-0.444-0.108-0.798-0.327-1.061c-0.218-0.263-0.509-0.395-0.874-0.395c-0.367,0-0.686,0.134-0.954,0.401
			S381.399,49.271,381.292,49.793z"/>
		<path fill="#585A5E" d="M391.165,52.899c-0.609,0.205-1.188,0.308-1.738,0.308c-0.547,0-1.033-0.126-1.458-0.378
			c-0.425-0.253-0.756-0.595-0.993-1.025c-0.238-0.432-0.356-0.923-0.356-1.473c0-0.827,0.27-1.514,0.808-2.061
			c0.539-0.547,1.189-0.82,1.951-0.82c0.562,0,1.158,0.105,1.787,0.317v0.874c-0.635-0.29-1.203-0.435-1.704-0.435
			c-0.332,0-0.645,0.082-0.938,0.247c-0.293,0.164-0.52,0.42-0.679,0.769c-0.16,0.349-0.239,0.706-0.239,1.074
			c0,0.491,0.153,0.96,0.461,1.406s0.79,0.669,1.448,0.669c0.198,0,0.394-0.014,0.586-0.041c0.191-0.028,0.547-0.13,1.064-0.306
			V52.899z"/>
		<path fill="#585A5E" d="M397.253,47.601v5.454h-0.908v-1.196c-0.293,0.449-0.618,0.786-0.977,1.011
			c-0.357,0.225-0.716,0.337-1.074,0.337c-0.318,0-0.611-0.085-0.876-0.257c-0.266-0.17-0.45-0.395-0.555-0.674
			c-0.104-0.277-0.156-0.82-0.156-1.628v-3.047h0.908v3.159c0,0.524,0.025,0.87,0.076,1.037c0.05,0.168,0.143,0.306,0.278,0.413
			c0.135,0.107,0.28,0.161,0.437,0.161c0.319,0,0.662-0.15,1.028-0.451c0.366-0.302,0.67-0.682,0.91-1.141v-3.179H397.253z"/>
		<path fill="#585A5E" d="M399.421,53.055v-5.454h0.908v1.191c0.283-0.449,0.607-0.785,0.974-1.009
			c0.366-0.223,0.774-0.334,1.224-0.334c0.328,0,0.657,0.051,0.986,0.151v1.968h-0.874v-1.245c-0.153-0.026-0.273-0.039-0.361-0.039
			c-0.339,0-0.671,0.134-0.996,0.4c-0.326,0.267-0.644,0.667-0.952,1.201v3.169H399.421z"/>
		<path fill="#585A5E" d="M406.677,53.055v-4.697h-1.514v-0.757h2.422v4.697h1.519v0.757H406.677z M406.53,45.631
			c0-0.205,0.069-0.357,0.209-0.458s0.271-0.15,0.394-0.15c0.127,0,0.26,0.05,0.399,0.15c0.139,0.101,0.209,0.253,0.209,0.458
			c0,0.2-0.07,0.352-0.209,0.452c-0.14,0.101-0.272,0.15-0.399,0.15c-0.123,0-0.254-0.05-0.394-0.15S406.53,45.832,406.53,45.631z"
			/>
		<path fill="#585A5E" d="M415.899,52.835c-0.426,0.179-0.735,0.286-0.928,0.319c-0.191,0.035-0.377,0.052-0.557,0.052
			c-0.381,0-0.729-0.073-1.045-0.22c-0.315-0.146-0.554-0.363-0.715-0.649s-0.242-0.729-0.242-1.328v-2.197h-1.362v-0.757h1.362
			v-2.197h0.908v2.197h2.427v0.757h-2.427v2.183c0,0.439,0.053,0.75,0.156,0.93c0.104,0.182,0.243,0.313,0.418,0.398
			c0.174,0.085,0.38,0.127,0.617,0.127c0.439,0,0.902-0.139,1.387-0.415V52.835z"/>
		<path fill="#585A5E" d="M419.539,52.84l-2.52-5.239h1l2.008,4.096l1.675-4.096h0.913l-2.109,5.069
			c-0.446,1.068-0.87,1.778-1.272,2.129c-0.401,0.351-0.922,0.526-1.561,0.526c-0.276,0-0.523-0.024-0.742-0.073v-0.801
			c0.251,0.078,0.49,0.117,0.718,0.117c0.293,0,0.553-0.057,0.781-0.17c0.228-0.114,0.436-0.315,0.624-0.604
			c0.189-0.289,0.322-0.539,0.4-0.75L419.539,52.84z"/>
	</g>
	<rect x="35.963" y="88.678" fill="#FFFFFF" width="382.631" height="80"/>
	<g>
		<path fill="#585556" d="M55.124,105.856c0.353,0.112,0.64,0.326,0.864,0.642c0.224,0.316,0.336,0.666,0.336,1.05
			c0,0.681-0.222,1.202-0.666,1.566s-1.054,0.546-1.83,0.546h-2.82v-7.368h2.58c0.784,0,1.396,0.172,1.836,0.517
			c0.44,0.344,0.66,0.84,0.66,1.487c0,0.384-0.09,0.717-0.27,0.996C55.634,105.572,55.404,105.759,55.124,105.856z M52.22,105.387
			h1.356c0.872,0,1.308-0.34,1.308-1.02c0-0.664-0.436-0.996-1.308-0.996H52.22V105.387z M52.22,106.419v2.16h1.584
			c0.416,0,0.736-0.096,0.96-0.288c0.225-0.191,0.337-0.456,0.337-0.792s-0.112-0.6-0.337-0.792
			c-0.224-0.191-0.544-0.288-0.96-0.288H52.22z"/>
		<path fill="#585556" d="M61.483,102.292h1.2l2.832,7.368h-1.271l-0.756-2.04h-2.82l-0.756,2.04h-1.26L61.483,102.292z
			 M62.072,103.816l-1.009,2.724h2.017L62.072,103.816z"/>
		<path fill="#585556" d="M68.372,109.66v-7.368h1.248v6.252h3.54v1.116H68.372z"/>
		<path fill="#585556" d="M76.231,109.66v-7.368h1.248v6.252h3.54v1.116H76.231z"/>
		<path fill="#585556" d="M84.092,102.292h4.812v1.104h-3.588v1.943h3.252v1.093h-3.252v2.111h3.588v1.116h-4.812V102.292z"/>
		<path fill="#585556" d="M94.196,106.671h-0.889v2.988H92.06v-7.368h2.845c0.775,0,1.388,0.19,1.836,0.57
			c0.447,0.38,0.672,0.926,0.672,1.638c0,0.608-0.166,1.09-0.498,1.446c-0.332,0.355-0.794,0.582-1.386,0.678l2.136,3.036h-1.416
			L94.196,106.671z M93.308,103.372v2.256h1.572c0.408,0,0.726-0.102,0.954-0.306c0.228-0.204,0.342-0.479,0.342-0.822
			s-0.114-0.618-0.342-0.822c-0.229-0.203-0.546-0.306-0.954-0.306H93.308z"/>
		<path fill="#585556" d="M101.768,102.292v7.368h-1.248v-7.368H101.768z"/>
		<path fill="#585556" d="M111.128,102.292v7.368h-0.96l-3.769-5.364v5.364h-1.2v-7.368h1.177l3.552,5.112v-5.112H111.128z"/>
		<path fill="#585556" d="M116.815,102.292h1.2l2.832,7.368h-1.272l-0.756-2.04h-2.82l-0.756,2.04h-1.26L116.815,102.292z
			 M117.403,103.816l-1.008,2.724h2.016L117.403,103.816z"/>
		<path fill="#585556" d="M130.399,102.292h1.2l2.832,7.368h-1.272l-0.756-2.04h-2.82l-0.756,2.04h-1.26L130.399,102.292z
			 M130.987,103.816l-1.008,2.724h2.016L130.987,103.816z"/>
		<path fill="#585556" d="M140.132,106.912h-1.597v2.748h-1.248v-7.368h2.845c0.775,0,1.39,0.2,1.842,0.601
			c0.452,0.399,0.678,0.972,0.678,1.716c0,0.736-0.226,1.304-0.678,1.704C141.521,106.711,140.907,106.912,140.132,106.912z
			 M141.415,104.608c0-0.376-0.111-0.676-0.336-0.9c-0.224-0.224-0.548-0.336-0.972-0.336h-1.572v2.46h1.572
			c0.416,0,0.738-0.111,0.966-0.336C141.302,105.272,141.415,104.976,141.415,104.608z"/>
		<path fill="#585556" d="M146.875,102.292v7.368h-1.248v-7.368H146.875z"/>
	</g>
	<g>
		<path fill="#585556" d="M56.024,121.324h-1.608v-1.067h2.796v0.576c0,1.008-0.294,1.817-0.882,2.43s-1.338,0.918-2.25,0.918
			c-1,0-1.828-0.354-2.484-1.062c-0.655-0.708-0.983-1.621-0.983-2.741s0.326-2.034,0.978-2.742
			c0.652-0.708,1.466-1.062,2.442-1.062c0.824,0,1.498,0.216,2.021,0.648c0.524,0.432,0.858,1.024,1.002,1.775h-1.247
			c-0.16-0.424-0.379-0.745-0.654-0.966c-0.276-0.22-0.65-0.33-1.122-0.33c-0.648,0-1.17,0.25-1.566,0.75
			c-0.396,0.5-0.594,1.143-0.594,1.927c0,0.792,0.2,1.439,0.6,1.943c0.4,0.504,0.937,0.756,1.608,0.756
			c0.544,0,0.984-0.157,1.32-0.474S55.944,121.86,56.024,121.324z"/>
		<path fill="#585556" d="M62.228,116.692h1.2l2.832,7.368h-1.271l-0.756-2.04h-2.82l-0.756,2.04h-1.26L62.228,116.692z
			 M62.816,118.216l-1.009,2.724h2.017L62.816,118.216z"/>
		<path fill="#585556" d="M67.892,117.796v-1.104h6.145v1.104h-2.448v6.264H70.34v-6.264H67.892z"/>
		<path fill="#585556" d="M77.012,116.692h4.812v1.104h-3.588v1.943h3.252v1.093h-3.252v2.111h3.588v1.116h-4.812V116.692z"/>
		<path fill="#585556" d="M88.328,116.692h1.008l1.392,5.424l1.332-5.424h1.2l-1.896,7.368h-1.152l-1.393-5.268l-1.415,5.268h-1.141
			l-1.896-7.368h1.224l1.332,5.424L88.328,116.692z"/>
		<path fill="#585556" d="M97.892,116.692h1.2l2.832,7.368h-1.272l-0.756-2.04h-2.82l-0.756,2.04h-1.26L97.892,116.692z
			 M98.479,118.216l-1.008,2.724h2.016L98.479,118.216z"/>
		<path fill="#585556" d="M106.604,119.992l1.944-3.3h1.319l-2.676,4.428v2.94h-1.235v-2.94l-2.664-4.428h1.355L106.604,119.992z"/>
	</g>
	<line fill="none" stroke="#585A5E" stroke-miterlimit="10" x1="227.278" y1="28.568" x2="227.278" y2="115.702"/>
	<g>
		<circle fill="#FFFFFF" stroke="#585A5E" stroke-miterlimit="10" cx="226.865" cy="23.32" r="22.242"/>
		<g>
			<path fill="#585556" d="M219.313,19.249h1.2l2.832,7.368h-1.272l-0.756-2.04h-2.82l-0.756,2.04h-1.26L219.313,19.249z
				 M219.901,20.773l-1.008,2.724h2.016L219.901,20.773z"/>
			<path fill="#585556" d="M229.033,23.869h-1.596v2.748h-1.248v-7.368h2.844c0.776,0,1.39,0.2,1.842,0.601
				c0.452,0.399,0.679,0.972,0.679,1.716c0,0.736-0.227,1.304-0.679,1.704C230.423,23.668,229.81,23.869,229.033,23.869z
				 M230.317,21.565c0-0.376-0.112-0.676-0.336-0.9c-0.225-0.224-0.548-0.336-0.972-0.336h-1.572v2.46h1.572
				c0.415,0,0.737-0.111,0.966-0.336C230.203,22.229,230.317,21.933,230.317,21.565z"/>
			<path fill="#585556" d="M235.777,19.249v7.368h-1.248v-7.368H235.777z"/>
		</g>
	</g>
	<line fill="none" stroke="#585A5E" stroke-miterlimit="10" x1="227.278" y1="138.353" x2="227.278" y2="184.197"/>
	<rect x="154.936" y="236.492" fill="#FFFFFF" width="5.095" height="5.096"/>
	<g>
		<rect x="35.963" y="309.867" fill="#FFFFFF" width="382.631" height="54.045"/>
		<g>
			<path fill="#585A5E" d="M94.739,326.061c0.264,0.084,0.479,0.244,0.648,0.48c0.168,0.236,0.252,0.5,0.252,0.787
				c0,0.51-0.167,0.902-0.5,1.176c-0.333,0.271-0.79,0.408-1.372,0.408h-2.115v-5.525h1.935c0.588,0,1.047,0.129,1.377,0.387
				s0.495,0.631,0.495,1.115c0,0.289-0.067,0.537-0.202,0.748S94.949,325.988,94.739,326.061z M92.562,325.709h1.017
				c0.654,0,0.981-0.256,0.981-0.766c0-0.498-0.327-0.746-0.981-0.746h-1.017V325.709z M92.562,326.482v1.621h1.188
				c0.312,0,0.552-0.072,0.721-0.217c0.167-0.145,0.252-0.342,0.252-0.594s-0.085-0.451-0.252-0.594
				c-0.169-0.145-0.408-0.217-0.721-0.217H92.562z"/>
			<path fill="#585A5E" d="M98.789,323.387h0.9l2.124,5.525h-0.954l-0.567-1.529h-2.115l-0.566,1.529h-0.945L98.789,323.387z
				 M99.23,324.529l-0.757,2.043h1.513L99.23,324.529z"/>
			<path fill="#585A5E" d="M103.235,328.912v-5.525h0.936v4.689h2.655v0.836H103.235z"/>
			<path fill="#585A5E" d="M108.41,328.912v-5.525h0.936v4.689h2.655v0.836H108.41z"/>
			<path fill="#585A5E" d="M113.585,323.387h3.609v0.828h-2.691v1.457h2.439v0.82h-2.439v1.584h2.691v0.836h-3.609V323.387z"/>
			<path fill="#585A5E" d="M120.442,326.672h-0.666v2.24h-0.936v-5.525h2.133c0.582,0,1.041,0.143,1.377,0.428
				s0.504,0.693,0.504,1.229c0,0.455-0.124,0.816-0.373,1.084s-0.596,0.438-1.04,0.508l1.603,2.277h-1.062L120.442,326.672z
				 M119.776,324.197v1.691h1.18c0.306,0,0.544-0.076,0.715-0.23c0.171-0.152,0.257-0.357,0.257-0.615s-0.086-0.465-0.257-0.617
				s-0.409-0.229-0.715-0.229H119.776z"/>
			<path fill="#585A5E" d="M125.401,323.387v5.525h-0.936v-5.525H125.401z"/>
			<path fill="#585A5E" d="M131.693,323.387v5.525h-0.721l-2.825-4.023v4.023h-0.9v-5.525h0.882l2.664,3.834v-3.834H131.693z"/>
			<path fill="#585A5E" d="M135.239,323.387h0.899l2.124,5.525h-0.954l-0.566-1.529h-2.115l-0.567,1.529h-0.944L135.239,323.387z
				 M135.68,324.529l-0.756,2.043h1.512L135.68,324.529z"/>
		</g>
		<g>
			<path fill="#585A5E" d="M98.191,339.713h-0.666l-1.521-3.842v3.842h-0.891v-5.525h1.071l1.683,4.248l1.665-4.248h1.044v5.525
				h-0.9v-3.842L98.191,339.713z"/>
			<path fill="#585A5E" d="M102.43,334.188h3.609v0.828h-2.691v1.457h2.439v0.82h-2.439v1.584h2.691v0.836h-3.609V334.188z"/>
			<path fill="#585A5E" d="M107.254,338.184h0.954c0.174,0.553,0.591,0.828,1.251,0.828c0.324,0,0.583-0.074,0.778-0.221
				s0.293-0.346,0.293-0.6c0-0.197-0.062-0.355-0.185-0.471c-0.123-0.117-0.329-0.209-0.617-0.275l-0.936-0.225
				c-0.918-0.217-1.377-0.711-1.377-1.484c0-0.475,0.176-0.867,0.526-1.176c0.352-0.309,0.803-0.463,1.354-0.463
				c0.582,0,1.052,0.137,1.408,0.41c0.357,0.271,0.587,0.646,0.688,1.119h-0.936c-0.174-0.492-0.558-0.738-1.152-0.738
				c-0.3,0-0.541,0.072-0.725,0.213c-0.183,0.141-0.274,0.324-0.274,0.553c0,0.365,0.243,0.605,0.729,0.721l0.963,0.225
				c0.45,0.102,0.801,0.281,1.053,0.539s0.378,0.588,0.378,0.99c0,0.51-0.183,0.918-0.549,1.221s-0.84,0.453-1.422,0.453
				c-0.588,0-1.078-0.143-1.472-0.428C107.595,339.092,107.35,338.693,107.254,338.184z"/>
			<path fill="#585A5E" d="M112.556,338.184h0.953c0.175,0.553,0.592,0.828,1.251,0.828c0.324,0,0.584-0.074,0.779-0.221
				c0.194-0.146,0.292-0.346,0.292-0.6c0-0.197-0.062-0.355-0.185-0.471c-0.123-0.117-0.328-0.209-0.616-0.275l-0.936-0.225
				c-0.919-0.217-1.378-0.711-1.378-1.484c0-0.475,0.176-0.867,0.527-1.176c0.351-0.309,0.802-0.463,1.354-0.463
				c0.581,0,1.051,0.137,1.408,0.41c0.356,0.271,0.586,0.646,0.688,1.119h-0.937c-0.174-0.492-0.558-0.738-1.151-0.738
				c-0.3,0-0.542,0.072-0.725,0.213c-0.184,0.141-0.274,0.324-0.274,0.553c0,0.365,0.243,0.605,0.729,0.721l0.963,0.225
				c0.45,0.102,0.802,0.281,1.054,0.539s0.378,0.588,0.378,0.99c0,0.51-0.184,0.918-0.549,1.221
				c-0.366,0.303-0.841,0.453-1.423,0.453c-0.588,0-1.078-0.143-1.471-0.428C112.896,339.092,112.651,338.693,112.556,338.184z"/>
			<path fill="#585A5E" d="M119.881,334.188h0.9l2.124,5.525h-0.954l-0.567-1.529h-2.115l-0.566,1.529h-0.945L119.881,334.188z
				 M120.322,335.33l-0.757,2.043h1.513L120.322,335.33z"/>
			<path fill="#585A5E" d="M127.819,337.662h-1.206v-0.801h2.097v0.432c0,0.756-0.221,1.363-0.661,1.822
				c-0.441,0.459-1.004,0.688-1.688,0.688c-0.75,0-1.371-0.266-1.863-0.795c-0.492-0.531-0.738-1.217-0.738-2.057
				s0.245-1.525,0.733-2.057c0.489-0.531,1.1-0.797,1.832-0.797c0.618,0,1.123,0.162,1.517,0.486
				c0.393,0.324,0.644,0.768,0.751,1.332h-0.936c-0.12-0.318-0.283-0.561-0.49-0.725c-0.207-0.166-0.488-0.248-0.842-0.248
				c-0.486,0-0.878,0.188-1.175,0.562s-0.445,0.857-0.445,1.445c0,0.594,0.149,1.08,0.45,1.457c0.3,0.379,0.702,0.566,1.206,0.566
				c0.407,0,0.737-0.117,0.989-0.355C127.604,338.383,127.759,338.062,127.819,337.662z"/>
			<path fill="#585A5E" d="M130.267,334.188h3.609v0.828h-2.691v1.457h2.439v0.82h-2.439v1.584h2.691v0.836h-3.609V334.188z"/>
		</g>
		<g>
			<path fill="#585A5E" d="M101.44,347.66c0.264,0.084,0.479,0.244,0.648,0.482c0.168,0.236,0.252,0.498,0.252,0.787
				c0,0.51-0.167,0.9-0.5,1.174s-0.79,0.41-1.372,0.41h-2.115v-5.527h1.935c0.588,0,1.047,0.131,1.377,0.389
				s0.495,0.629,0.495,1.115c0,0.287-0.067,0.537-0.202,0.746C101.823,347.447,101.65,347.588,101.44,347.66z M99.263,347.309h1.017
				c0.654,0,0.981-0.254,0.981-0.764c0-0.498-0.327-0.748-0.981-0.748h-1.017V347.309z M99.263,348.084v1.619h1.188
				c0.312,0,0.552-0.072,0.721-0.217c0.167-0.143,0.252-0.342,0.252-0.594s-0.085-0.449-0.252-0.594
				c-0.169-0.145-0.408-0.215-0.721-0.215H99.263z"/>
			<path fill="#585A5E" d="M105.544,348.271h-0.666v2.242h-0.936v-5.527h2.133c0.582,0,1.041,0.143,1.377,0.428
				s0.504,0.695,0.504,1.229c0,0.457-0.124,0.818-0.373,1.086c-0.249,0.266-0.596,0.436-1.04,0.508l1.603,2.277h-1.062
				L105.544,348.271z M104.878,345.797v1.691h1.18c0.306,0,0.544-0.076,0.715-0.229s0.257-0.359,0.257-0.617
				s-0.086-0.463-0.257-0.615c-0.171-0.154-0.409-0.23-0.715-0.23H104.878z"/>
			<path fill="#585A5E" d="M113.653,345.703c0.479,0.537,0.72,1.219,0.72,2.047s-0.24,1.512-0.72,2.047
				c-0.48,0.537-1.092,0.807-1.836,0.807s-1.354-0.27-1.832-0.807c-0.477-0.535-0.715-1.219-0.715-2.047s0.238-1.51,0.715-2.047
				c0.478-0.537,1.088-0.807,1.832-0.807S113.173,345.166,113.653,345.703z M112.982,349.199c0.298-0.379,0.446-0.861,0.446-1.449
				s-0.148-1.07-0.446-1.449c-0.297-0.377-0.686-0.566-1.165-0.566c-0.48,0-0.867,0.188-1.161,0.562s-0.441,0.859-0.441,1.453
				s0.147,1.078,0.441,1.453s0.681,0.562,1.161,0.562C112.297,349.766,112.686,349.578,112.982,349.199z"/>
			<path fill="#585A5E" d="M116.866,344.986v2.646l2.295-2.646h1.179l-2.231,2.512l2.312,3.016h-1.17l-1.817-2.367l-0.567,0.648
				v1.719h-0.937v-5.527H116.866z"/>
			<path fill="#585A5E" d="M121.798,344.986h3.609v0.828h-2.691v1.459h2.439v0.818h-2.439v1.584h2.691v0.838h-3.609V344.986z"/>
			<path fill="#585A5E" d="M128.656,348.271h-0.666v2.242h-0.937v-5.527h2.134c0.582,0,1.041,0.143,1.377,0.428
				s0.504,0.695,0.504,1.229c0,0.457-0.125,0.818-0.374,1.086c-0.249,0.266-0.596,0.436-1.039,0.508l1.602,2.277h-1.062
				L128.656,348.271z M127.99,345.797v1.691h1.179c0.307,0,0.545-0.076,0.716-0.229s0.257-0.359,0.257-0.617
				s-0.086-0.463-0.257-0.615c-0.171-0.154-0.409-0.23-0.716-0.23H127.99z"/>
		</g>
		<g>
			<path fill="#585A5E" d="M207.101,326.061c0.264,0.084,0.479,0.244,0.648,0.48c0.168,0.236,0.252,0.5,0.252,0.787
				c0,0.51-0.167,0.902-0.5,1.176c-0.333,0.271-0.79,0.408-1.372,0.408h-2.115v-5.525h1.935c0.588,0,1.047,0.129,1.377,0.387
				s0.495,0.631,0.495,1.115c0,0.289-0.067,0.537-0.202,0.748S207.311,325.988,207.101,326.061z M204.923,325.709h1.017
				c0.654,0,0.981-0.256,0.981-0.766c0-0.498-0.327-0.746-0.981-0.746h-1.017V325.709z M204.923,326.482v1.621h1.188
				c0.312,0,0.552-0.072,0.721-0.217c0.167-0.145,0.252-0.342,0.252-0.594s-0.085-0.451-0.252-0.594
				c-0.169-0.145-0.408-0.217-0.721-0.217H204.923z"/>
			<path fill="#585A5E" d="M211.16,323.387h0.899l2.124,5.525h-0.954l-0.566-1.529h-2.115l-0.567,1.529h-0.944L211.16,323.387z
				 M211.601,324.529l-0.756,2.043h1.512L211.601,324.529z"/>
			<path fill="#585A5E" d="M215.597,328.912v-5.525h0.936v4.689h2.655v0.836H215.597z"/>
			<path fill="#585A5E" d="M220.771,328.912v-5.525h0.936v4.689h2.655v0.836H220.771z"/>
			<path fill="#585A5E" d="M225.946,323.387h3.609v0.828h-2.691v1.457h2.439v0.82h-2.439v1.584h2.691v0.836h-3.609V323.387z"/>
			<path fill="#585A5E" d="M232.804,326.672h-0.666v2.24h-0.936v-5.525h2.133c0.582,0,1.041,0.143,1.377,0.428
				s0.504,0.693,0.504,1.229c0,0.455-0.124,0.816-0.373,1.084s-0.596,0.438-1.04,0.508l1.603,2.277h-1.062L232.804,326.672z
				 M232.138,324.197v1.691h1.18c0.306,0,0.544-0.076,0.715-0.23c0.171-0.152,0.257-0.357,0.257-0.615s-0.086-0.465-0.257-0.617
				s-0.409-0.229-0.715-0.229H232.138z"/>
			<path fill="#585A5E" d="M237.763,323.387v5.525h-0.936v-5.525H237.763z"/>
			<path fill="#585A5E" d="M244.063,323.387v5.525h-0.721l-2.825-4.023v4.023h-0.9v-5.525h0.882l2.664,3.834v-3.834H244.063z"/>
			<path fill="#585A5E" d="M247.609,323.387h0.899l2.124,5.525h-0.954l-0.566-1.529h-2.115l-0.567,1.529h-0.944L247.609,323.387z
				 M248.05,324.529l-0.756,2.043h1.512L248.05,324.529z"/>
		</g>
		<g>
			<path fill="#585A5E" d="M196.692,335.016v-0.828h4.607v0.828h-1.836v4.697h-0.936v-4.697H196.692z"/>
			<path fill="#585A5E" d="M204.414,337.473h-0.666v2.24h-0.937v-5.525h2.134c0.582,0,1.041,0.143,1.377,0.428
				s0.504,0.693,0.504,1.229c0,0.455-0.125,0.816-0.374,1.084s-0.596,0.438-1.039,0.508l1.602,2.277h-1.062L204.414,337.473z
				 M203.748,334.998v1.691h1.179c0.307,0,0.545-0.076,0.716-0.23c0.171-0.152,0.257-0.357,0.257-0.615s-0.086-0.465-0.257-0.617
				s-0.409-0.229-0.716-0.229H203.748z"/>
			<path fill="#585A5E" d="M210.129,334.188h0.9l2.124,5.525h-0.954l-0.567-1.529h-2.115l-0.566,1.529h-0.945L210.129,334.188z
				 M210.57,335.33l-0.757,2.043h1.513L210.57,335.33z"/>
			<path fill="#585A5E" d="M219.012,334.188v5.525h-0.72l-2.826-4.023v4.023h-0.9v-5.525h0.883l2.664,3.834v-3.834H219.012z"/>
			<path fill="#585A5E" d="M220.434,338.184h0.954c0.174,0.553,0.591,0.828,1.251,0.828c0.324,0,0.583-0.074,0.778-0.221
				s0.293-0.346,0.293-0.6c0-0.197-0.062-0.355-0.185-0.471c-0.123-0.117-0.329-0.209-0.617-0.275l-0.936-0.225
				c-0.918-0.217-1.377-0.711-1.377-1.484c0-0.475,0.176-0.867,0.526-1.176c0.352-0.309,0.803-0.463,1.354-0.463
				c0.582,0,1.052,0.137,1.408,0.41c0.357,0.271,0.587,0.646,0.688,1.119h-0.936c-0.174-0.492-0.558-0.738-1.152-0.738
				c-0.3,0-0.541,0.072-0.725,0.213c-0.183,0.141-0.274,0.324-0.274,0.553c0,0.365,0.243,0.605,0.729,0.721l0.963,0.225
				c0.45,0.102,0.801,0.281,1.053,0.539s0.378,0.588,0.378,0.99c0,0.51-0.183,0.918-0.549,1.221s-0.84,0.453-1.422,0.453
				c-0.588,0-1.078-0.143-1.472-0.428C220.774,339.092,220.529,338.693,220.434,338.184z"/>
			<path fill="#585A5E" d="M227.76,334.188h0.9l2.124,5.525h-0.954l-0.567-1.529h-2.115l-0.566,1.529h-0.945L227.76,334.188z
				 M228.201,335.33l-0.757,2.043h1.513L228.201,335.33z"/>
			<path fill="#585A5E" d="M232.363,339.008c-0.477-0.531-0.716-1.217-0.716-2.057s0.239-1.525,0.716-2.057s1.075-0.797,1.796-0.797
				c0.611,0,1.112,0.164,1.503,0.49c0.39,0.326,0.639,0.773,0.747,1.336h-0.918c-0.24-0.654-0.685-0.98-1.332-0.98
				c-0.48,0-0.861,0.188-1.144,0.562s-0.423,0.857-0.423,1.445s0.141,1.068,0.423,1.443s0.663,0.562,1.144,0.562
				c0.647,0,1.092-0.33,1.332-0.99h0.918c-0.108,0.57-0.357,1.02-0.747,1.346c-0.391,0.328-0.892,0.49-1.503,0.49
				C233.438,339.803,232.84,339.537,232.363,339.008z"/>
			<path fill="#585A5E" d="M237.462,335.016v-0.828h4.607v0.828h-1.836v4.697h-0.936v-4.697H237.462z"/>
			<path fill="#585A5E" d="M244.518,334.188v5.525h-0.937v-5.525H244.518z"/>
			<path fill="#585A5E" d="M250.458,334.902c0.479,0.537,0.72,1.221,0.72,2.049s-0.24,1.51-0.72,2.047
				c-0.48,0.537-1.093,0.805-1.837,0.805c-0.743,0-1.354-0.268-1.831-0.805s-0.716-1.219-0.716-2.047s0.239-1.512,0.716-2.049
				s1.088-0.805,1.831-0.805C249.365,334.098,249.978,334.365,250.458,334.902z M249.787,338.398
				c0.297-0.377,0.445-0.859,0.445-1.447s-0.148-1.072-0.445-1.449c-0.297-0.379-0.686-0.568-1.166-0.568
				c-0.479,0-0.866,0.188-1.16,0.562c-0.295,0.375-0.441,0.859-0.441,1.455c0,0.594,0.146,1.078,0.441,1.453
				c0.294,0.375,0.681,0.562,1.16,0.562C249.102,338.967,249.49,338.777,249.787,338.398z"/>
			<path fill="#585A5E" d="M257.181,334.188v5.525h-0.721l-2.825-4.023v4.023h-0.9v-5.525h0.882l2.664,3.834v-3.834H257.181z"/>
		</g>
		<g>
			<path fill="#585A5E" d="M197.142,349.807c-0.477-0.531-0.715-1.217-0.715-2.057s0.238-1.525,0.715-2.057
				c0.478-0.531,1.076-0.797,1.796-0.797c0.612,0,1.113,0.164,1.503,0.49c0.39,0.328,0.639,0.773,0.747,1.338h-0.918
				c-0.24-0.654-0.684-0.98-1.332-0.98c-0.48,0-0.861,0.188-1.143,0.562c-0.282,0.375-0.424,0.855-0.424,1.443
				s0.142,1.07,0.424,1.445c0.281,0.375,0.662,0.562,1.143,0.562c0.648,0,1.092-0.33,1.332-0.99h0.918
				c-0.108,0.57-0.357,1.018-0.747,1.346c-0.39,0.326-0.891,0.49-1.503,0.49C198.218,350.604,197.619,350.338,197.142,349.807z"/>
			<path fill="#585A5E" d="M206.812,345.703c0.479,0.537,0.72,1.219,0.72,2.047s-0.24,1.512-0.72,2.047
				c-0.48,0.537-1.092,0.807-1.836,0.807s-1.354-0.27-1.832-0.807c-0.477-0.535-0.715-1.219-0.715-2.047s0.238-1.51,0.715-2.047
				c0.478-0.537,1.088-0.807,1.832-0.807S206.332,345.166,206.812,345.703z M206.142,349.199c0.298-0.379,0.446-0.861,0.446-1.449
				s-0.148-1.07-0.446-1.449c-0.297-0.377-0.686-0.566-1.165-0.566c-0.48,0-0.867,0.188-1.161,0.562s-0.441,0.859-0.441,1.453
				s0.147,1.078,0.441,1.453s0.681,0.562,1.161,0.562C205.456,349.766,205.845,349.578,206.142,349.199z"/>
			<path fill="#585A5E" d="M213.221,345.703c0.479,0.537,0.72,1.219,0.72,2.047s-0.24,1.512-0.72,2.047
				c-0.48,0.537-1.093,0.807-1.837,0.807c-0.743,0-1.354-0.27-1.831-0.807c-0.477-0.535-0.716-1.219-0.716-2.047
				s0.239-1.51,0.716-2.047s1.088-0.807,1.831-0.807C212.128,344.896,212.74,345.166,213.221,345.703z M212.55,349.199
				c0.297-0.379,0.445-0.861,0.445-1.449s-0.148-1.07-0.445-1.449c-0.297-0.377-0.686-0.566-1.166-0.566
				c-0.479,0-0.866,0.188-1.16,0.562c-0.295,0.375-0.441,0.859-0.441,1.453s0.146,1.078,0.441,1.453
				c0.294,0.375,0.681,0.562,1.16,0.562C211.864,349.766,212.253,349.578,212.55,349.199z"/>
			<path fill="#585A5E" d="M217.1,348.271h-0.666v2.242h-0.937v-5.527h2.134c0.582,0,1.041,0.143,1.377,0.428
				s0.504,0.695,0.504,1.229c0,0.457-0.125,0.818-0.374,1.086c-0.249,0.266-0.596,0.436-1.039,0.508l1.602,2.277h-1.062
				L217.1,348.271z M216.434,345.797v1.691h1.179c0.307,0,0.545-0.076,0.716-0.229s0.257-0.359,0.257-0.617
				s-0.086-0.463-0.257-0.615c-0.171-0.154-0.409-0.23-0.716-0.23H216.434z"/>
			<path fill="#585A5E" d="M221.122,350.514v-5.527h1.863c0.815,0,1.467,0.252,1.953,0.752c0.485,0.502,0.729,1.172,0.729,2.012
				s-0.243,1.512-0.729,2.012c-0.486,0.502-1.138,0.752-1.953,0.752H221.122z M222.058,349.676h0.892
				c0.569,0,1.009-0.17,1.318-0.512c0.309-0.344,0.464-0.814,0.464-1.414s-0.155-1.072-0.464-1.418
				c-0.31-0.344-0.749-0.518-1.318-0.518h-0.892V349.676z"/>
			<path fill="#585A5E" d="M228.151,344.986v5.527h-0.937v-5.527H228.151z"/>
			<path fill="#585A5E" d="M234.451,344.986v5.527h-0.721l-2.825-4.023v4.023h-0.9v-5.527h0.882l2.664,3.834v-3.834H234.451z"/>
			<path fill="#585A5E" d="M237.997,344.986h0.9l2.124,5.527h-0.954l-0.567-1.531h-2.115l-0.566,1.531h-0.945L237.997,344.986z
				 M238.438,346.131l-0.757,2.043h1.513L238.438,346.131z"/>
			<path fill="#585A5E" d="M241.525,345.814v-0.828h4.607v0.828h-1.836v4.699h-0.936v-4.699H241.525z"/>
			<path fill="#585A5E" d="M251.443,345.703c0.479,0.537,0.72,1.219,0.72,2.047s-0.24,1.512-0.72,2.047
				c-0.48,0.537-1.093,0.807-1.837,0.807c-0.743,0-1.354-0.27-1.831-0.807c-0.477-0.535-0.716-1.219-0.716-2.047
				s0.239-1.51,0.716-2.047s1.088-0.807,1.831-0.807C250.351,344.896,250.963,345.166,251.443,345.703z M250.772,349.199
				c0.297-0.379,0.445-0.861,0.445-1.449s-0.148-1.07-0.445-1.449c-0.297-0.377-0.686-0.566-1.166-0.566
				c-0.479,0-0.866,0.188-1.16,0.562c-0.295,0.375-0.441,0.859-0.441,1.453s0.146,1.078,0.441,1.453
				c0.294,0.375,0.681,0.562,1.16,0.562C250.087,349.766,250.476,349.578,250.772,349.199z"/>
			<path fill="#585A5E" d="M255.321,348.271h-0.666v2.242h-0.936v-5.527h2.133c0.582,0,1.041,0.143,1.377,0.428
				s0.504,0.695,0.504,1.229c0,0.457-0.124,0.818-0.373,1.086c-0.249,0.266-0.596,0.436-1.04,0.508l1.603,2.277h-1.062
				L255.321,348.271z M254.655,345.797v1.691h1.18c0.306,0,0.544-0.076,0.715-0.229s0.257-0.359,0.257-0.617
				s-0.086-0.463-0.257-0.615c-0.171-0.154-0.409-0.23-0.715-0.23H254.655z"/>
		</g>
		<g>
			<path fill="#585A5E" d="M318.865,326.061c0.264,0.084,0.479,0.244,0.648,0.48c0.168,0.236,0.252,0.5,0.252,0.787
				c0,0.51-0.167,0.902-0.5,1.176c-0.333,0.271-0.79,0.408-1.372,0.408h-2.115v-5.525h1.935c0.588,0,1.047,0.129,1.377,0.387
				s0.495,0.631,0.495,1.115c0,0.289-0.067,0.537-0.202,0.748S319.075,325.988,318.865,326.061z M316.688,325.709h1.017
				c0.654,0,0.981-0.256,0.981-0.766c0-0.498-0.327-0.746-0.981-0.746h-1.017V325.709z M316.688,326.482v1.621h1.188
				c0.312,0,0.552-0.072,0.721-0.217c0.167-0.145,0.252-0.342,0.252-0.594s-0.085-0.451-0.252-0.594
				c-0.169-0.145-0.408-0.217-0.721-0.217H316.688z"/>
			<path fill="#585A5E" d="M322.915,323.387h0.9l2.124,5.525h-0.954l-0.567-1.529h-2.115l-0.566,1.529h-0.945L322.915,323.387z
				 M323.356,324.529l-0.757,2.043h1.513L323.356,324.529z"/>
			<path fill="#585A5E" d="M327.361,328.912v-5.525h0.936v4.689h2.655v0.836H327.361z"/>
			<path fill="#585A5E" d="M332.536,328.912v-5.525h0.936v4.689h2.655v0.836H332.536z"/>
			<path fill="#585A5E" d="M337.711,323.387h3.609v0.828h-2.691v1.457h2.439v0.82h-2.439v1.584h2.691v0.836h-3.609V323.387z"/>
			<path fill="#585A5E" d="M344.568,326.672h-0.666v2.24h-0.936v-5.525h2.133c0.582,0,1.041,0.143,1.377,0.428
				s0.504,0.693,0.504,1.229c0,0.455-0.124,0.816-0.373,1.084s-0.596,0.438-1.04,0.508l1.603,2.277h-1.062L344.568,326.672z
				 M343.902,324.197v1.691h1.18c0.306,0,0.544-0.076,0.715-0.23c0.171-0.152,0.257-0.357,0.257-0.615s-0.086-0.465-0.257-0.617
				s-0.409-0.229-0.715-0.229H343.902z"/>
			<path fill="#585A5E" d="M349.527,323.387v5.525h-0.936v-5.525H349.527z"/>
			<path fill="#585A5E" d="M355.828,323.387v5.525h-0.721l-2.825-4.023v4.023h-0.9v-5.525h0.882l2.664,3.834v-3.834H355.828z"/>
			<path fill="#585A5E" d="M359.374,323.387h0.899l2.124,5.525h-0.954l-0.566-1.529h-2.115l-0.567,1.529h-0.944L359.374,323.387z
				 M359.814,324.529l-0.756,2.043h1.512L359.814,324.529z"/>
		</g>
		<g>
			<path fill="#585A5E" d="M320.099,334.188v5.525h-0.936v-5.525H320.099z"/>
			<path fill="#585A5E" d="M321.953,339.713v-5.525h1.863c0.815,0,1.467,0.25,1.953,0.752c0.485,0.5,0.729,1.172,0.729,2.012
				s-0.243,1.51-0.729,2.01c-0.486,0.502-1.138,0.752-1.953,0.752H321.953z M322.889,338.877h0.892c0.569,0,1.009-0.172,1.318-0.514
				c0.309-0.342,0.464-0.812,0.464-1.412c0-0.602-0.155-1.072-0.464-1.418c-0.31-0.346-0.749-0.518-1.318-0.518h-0.892V338.877z"/>
			<path fill="#585A5E" d="M328.055,334.188h3.609v0.828h-2.691v1.457h2.439v0.82h-2.439v1.584h2.691v0.836h-3.609V334.188z"/>
			<path fill="#585A5E" d="M337.757,334.188v5.525h-0.72l-2.826-4.023v4.023h-0.9v-5.525h0.883l2.664,3.834v-3.834H337.757z"/>
			<path fill="#585A5E" d="M339.269,335.016v-0.828h4.608v0.828h-1.836v4.697h-0.937v-4.697H339.269z"/>
			<path fill="#585A5E" d="M346.324,334.188v5.525h-0.936v-5.525H346.324z"/>
			<path fill="#585A5E" d="M347.837,335.016v-0.828h4.607v0.828h-1.836v4.697h-0.936v-4.697H347.837z"/>
			<path fill="#585A5E" d="M355.981,336.662l1.458-2.475h0.99l-2.007,3.32v2.205h-0.928v-2.205l-1.998-3.32h1.018L355.981,336.662z"
				/>
		</g>
		<g>
			<path fill="#585A5E" d="M325.729,347.66c0.264,0.084,0.479,0.244,0.647,0.482c0.168,0.236,0.252,0.498,0.252,0.787
				c0,0.51-0.166,0.9-0.499,1.174s-0.791,0.41-1.373,0.41h-2.115v-5.527h1.936c0.588,0,1.047,0.131,1.377,0.389
				s0.495,0.629,0.495,1.115c0,0.287-0.067,0.537-0.203,0.746C326.11,347.447,325.938,347.588,325.729,347.66z M323.55,347.309
				h1.018c0.653,0,0.98-0.254,0.98-0.764c0-0.498-0.327-0.748-0.98-0.748h-1.018V347.309z M323.55,348.084v1.619h1.188
				c0.312,0,0.552-0.072,0.72-0.217c0.168-0.143,0.252-0.342,0.252-0.594s-0.084-0.449-0.252-0.594s-0.408-0.215-0.72-0.215H323.55z
				"/>
			<path fill="#585A5E" d="M329.823,348.271h-0.666v2.242h-0.937v-5.527h2.134c0.582,0,1.041,0.143,1.377,0.428
				s0.504,0.695,0.504,1.229c0,0.457-0.125,0.818-0.374,1.086c-0.249,0.266-0.596,0.436-1.039,0.508l1.602,2.277h-1.062
				L329.823,348.271z M329.157,345.797v1.691h1.179c0.307,0,0.545-0.076,0.716-0.229s0.257-0.359,0.257-0.617
				s-0.086-0.463-0.257-0.615c-0.171-0.154-0.409-0.23-0.716-0.23H329.157z"/>
			<path fill="#585A5E" d="M337.933,345.703c0.479,0.537,0.72,1.219,0.72,2.047s-0.24,1.512-0.72,2.047
				c-0.48,0.537-1.093,0.807-1.837,0.807c-0.743,0-1.354-0.27-1.831-0.807c-0.477-0.535-0.716-1.219-0.716-2.047
				s0.239-1.51,0.716-2.047s1.088-0.807,1.831-0.807C336.84,344.896,337.452,345.166,337.933,345.703z M337.262,349.199
				c0.297-0.379,0.445-0.861,0.445-1.449s-0.148-1.07-0.445-1.449c-0.297-0.377-0.686-0.566-1.166-0.566
				c-0.479,0-0.866,0.188-1.16,0.562c-0.295,0.375-0.441,0.859-0.441,1.453s0.146,1.078,0.441,1.453
				c0.294,0.375,0.681,0.562,1.16,0.562C336.576,349.766,336.965,349.578,337.262,349.199z"/>
			<path fill="#585A5E" d="M341.145,344.986v2.646l2.295-2.646h1.18l-2.232,2.512l2.313,3.016h-1.17l-1.818-2.367l-0.567,0.648
				v1.719h-0.936v-5.527H341.145z"/>
			<path fill="#585A5E" d="M346.076,344.986h3.609v0.828h-2.691v1.459h2.439v0.818h-2.439v1.584h2.691v0.838h-3.609V344.986z"/>
			<path fill="#585A5E" d="M352.935,348.271h-0.666v2.242h-0.937v-5.527h2.134c0.582,0,1.041,0.143,1.377,0.428
				s0.504,0.695,0.504,1.229c0,0.457-0.125,0.818-0.374,1.086c-0.249,0.266-0.596,0.436-1.039,0.508l1.602,2.277h-1.062
				L352.935,348.271z M352.269,345.797v1.691h1.179c0.307,0,0.545-0.076,0.716-0.229s0.257-0.359,0.257-0.617
				s-0.086-0.463-0.257-0.615c-0.171-0.154-0.409-0.23-0.716-0.23H352.269z"/>
		</g>
	</g>
	<g>
		<path fill="#FFFFFF" d="M256.479,428.029c-3.786,0-7.201,1.57-9.646,4.086c-2.443-2.516-5.858-4.086-9.644-4.086
			c-0.089,0-0.174,0.014-0.263,0.016c-0.09-0.002-0.178-0.016-0.268-0.016c-3.656,0-6.956,1.473-9.38,3.838
			c-2.425-2.365-5.725-3.838-9.38-3.838c-0.091,0-0.178,0.014-0.269,0.016c-0.089-0.002-0.173-0.016-0.262-0.016
			c-3.786,0-7.2,1.57-9.646,4.086c-2.444-2.516-5.858-4.086-9.645-4.086c-7.43,0-13.453,6.023-13.453,13.453
			s6.023,13.453,13.453,13.453c3.786,0,7.2-1.57,9.645-4.086c2.445,2.516,5.859,4.086,9.646,4.086c0.089,0,0.173-0.012,0.262-0.014
			c0.091,0.002,0.178,0.014,0.269,0.014c3.655,0,6.955-1.473,9.38-3.838c2.424,2.365,5.724,3.838,9.38,3.838
			c0.09,0,0.178-0.012,0.268-0.014c0.089,0.002,0.174,0.014,0.263,0.014c3.785,0,7.2-1.57,9.644-4.086
			c2.445,2.516,5.86,4.086,9.646,4.086c7.429,0,13.452-6.023,13.452-13.453S263.907,428.029,256.479,428.029"/>
		<g>
			<path fill="none" stroke="#585A5E" stroke-miterlimit="10" d="M256.478,428.031c-3.785,0-7.199,1.568-9.645,4.086
				c-2.445-2.518-5.859-4.086-9.645-4.086c-0.088,0-0.174,0.012-0.262,0.014c-0.09-0.002-0.178-0.014-0.27-0.014
				c-3.654,0-6.953,1.471-9.379,3.838c-2.424-2.367-5.725-3.838-9.381-3.838c-0.09,0-0.178,0.012-0.268,0.014
				c-0.088-0.002-0.172-0.014-0.26-0.014c-3.787,0-7.203,1.568-9.646,4.086c-2.445-2.518-5.859-4.086-9.645-4.086
				c-7.432,0-13.453,6.021-13.453,13.451s6.021,13.453,13.453,13.453c3.785,0,7.199-1.568,9.645-4.086
				c2.443,2.518,5.859,4.086,9.646,4.086c0.088,0,0.172-0.012,0.26-0.014c0.09,0.002,0.178,0.014,0.268,0.014
				c3.656,0,6.957-1.473,9.381-3.838c2.426,2.365,5.725,3.838,9.379,3.838c0.092,0,0.18-0.012,0.27-0.014
				c0.088,0.002,0.174,0.014,0.262,0.014c3.785,0,7.199-1.568,9.645-4.086c2.445,2.518,5.859,4.086,9.645,4.086
				c7.43,0,13.453-6.023,13.453-13.453S263.907,428.031,256.478,428.031z"/>
			<g>
				<path fill="#585A5E" d="M200.379,438.293h4.01v0.92h-2.989v1.619h2.71v0.91h-2.71v1.76h2.989v0.93h-4.01V438.293z"/>
				<path fill="#585A5E" d="M211.159,438.293v6.139h-0.801l-3.14-4.469v4.469h-1v-6.139h0.98l2.96,4.26v-4.26H211.159z"/>
				<path fill="#585A5E" d="M213.219,444.432v-6.139h2.07c0.906,0,1.63,0.277,2.17,0.834s0.81,1.303,0.81,2.234
					c0,0.934-0.27,1.68-0.81,2.236s-1.264,0.834-2.17,0.834H213.219z M214.259,443.502h0.99c0.633,0,1.121-0.189,1.465-0.57
					c0.343-0.379,0.515-0.902,0.515-1.57c0-0.666-0.172-1.191-0.515-1.574c-0.344-0.383-0.832-0.574-1.465-0.574h-0.99V443.502z"/>
				<path fill="#585A5E" d="M222.368,442.143h-1.329v2.289h-1.04v-6.139h2.369c0.647,0,1.159,0.166,1.535,0.5
					c0.377,0.332,0.565,0.809,0.565,1.43c0,0.613-0.188,1.086-0.565,1.42C223.527,441.975,223.016,442.143,222.368,442.143z
					 M223.438,440.223c0-0.314-0.094-0.564-0.28-0.75c-0.187-0.188-0.456-0.281-0.81-0.281h-1.31v2.051h1.31
					c0.347,0,0.615-0.094,0.805-0.279C223.344,440.775,223.438,440.529,223.438,440.223z"/>
				<path fill="#585A5E" d="M230.688,439.088c0.533,0.596,0.8,1.354,0.8,2.273s-0.267,1.68-0.8,2.275
					c-0.533,0.598-1.214,0.895-2.04,0.895s-1.505-0.297-2.035-0.895c-0.529-0.596-0.795-1.355-0.795-2.275s0.266-1.678,0.795-2.273
					c0.53-0.598,1.209-0.896,2.035-0.896S230.155,438.49,230.688,439.088z M229.943,442.973c0.33-0.42,0.495-0.957,0.495-1.611
					c0-0.652-0.165-1.189-0.495-1.609s-0.762-0.629-1.295-0.629s-0.963,0.207-1.29,0.625c-0.326,0.416-0.49,0.953-0.49,1.613
					s0.164,1.199,0.49,1.615c0.327,0.418,0.757,0.625,1.29,0.625S229.613,443.393,229.943,442.973z"/>
				<path fill="#585A5E" d="M234.259,438.293v6.139h-1.04v-6.139H234.259z"/>
				<path fill="#585A5E" d="M241.249,438.293v6.139h-0.801l-3.14-4.469v4.469h-1v-6.139h0.98l2.96,4.26v-4.26H241.249z"/>
				<path fill="#585A5E" d="M242.928,439.213v-0.92h5.12v0.92h-2.04v5.219h-1.04v-5.219H242.928z"/>
				<path fill="#585A5E" d="M249.208,442.732h1.06c0.193,0.613,0.657,0.92,1.391,0.92c0.359,0,0.648-0.082,0.865-0.246
					c0.216-0.162,0.324-0.385,0.324-0.664c0-0.221-0.068-0.395-0.205-0.525c-0.137-0.129-0.364-0.23-0.685-0.305l-1.04-0.25
					c-1.02-0.24-1.53-0.789-1.53-1.65c0-0.525,0.195-0.961,0.585-1.305c0.391-0.344,0.892-0.516,1.506-0.516
					c0.646,0,1.168,0.152,1.564,0.455c0.396,0.305,0.651,0.719,0.765,1.246h-1.04c-0.193-0.547-0.619-0.82-1.279-0.82
					c-0.334,0-0.602,0.078-0.806,0.234c-0.203,0.156-0.305,0.361-0.305,0.615c0,0.406,0.271,0.674,0.811,0.801l1.069,0.25
					c0.5,0.113,0.891,0.312,1.17,0.6c0.28,0.287,0.42,0.652,0.42,1.1c0,0.566-0.203,1.02-0.609,1.355
					c-0.407,0.336-0.934,0.504-1.58,0.504c-0.653,0-1.198-0.158-1.635-0.475C249.586,443.74,249.314,443.299,249.208,442.732z"/>
			</g>
		</g>
	</g>
	<g>
		<line fill="none" stroke="#585A5E" stroke-miterlimit="10" x1="227.342" y1="122.369" x2="227.342" y2="134.986"/>
		<line fill="none" stroke="#585A5E" stroke-miterlimit="10" x1="216.992" y1="110.611" x2="216.992" y2="146.244"/>
		<line fill="none" stroke="#585A5E" stroke-miterlimit="10" x1="206.707" y1="110.611" x2="206.707" y2="146.244"/>
		<line fill="none" stroke="#585A5E" stroke-miterlimit="10" x1="247.85" y1="110.611" x2="247.85" y2="146.244"/>
		<line fill="none" stroke="#585A5E" stroke-miterlimit="10" x1="237.564" y1="110.611" x2="237.564" y2="146.244"/>
		<circle fill="#FFFFFF" stroke="#585A5E" stroke-miterlimit="10" cx="227.342" cy="116.741" r="5.628"/>
		<circle fill="#FFFFFF" stroke="#585A5E" stroke-miterlimit="10" cx="227.342" cy="140.615" r="5.628"/>
	</g>
	<rect x="35.963" y="206.503" fill="#FFFFFF" width="175" height="80"/>
	<g>
		<path fill="#585556" d="M55.123,223.557c0.353,0.112,0.64,0.326,0.864,0.642c0.224,0.316,0.336,0.666,0.336,1.05
			c0,0.681-0.222,1.202-0.666,1.566s-1.054,0.546-1.83,0.546h-2.82v-7.368h2.58c0.784,0,1.396,0.172,1.836,0.517
			c0.44,0.344,0.66,0.84,0.66,1.487c0,0.384-0.09,0.717-0.27,0.996C55.633,223.273,55.403,223.46,55.123,223.557z M52.219,223.088
			h1.356c0.872,0,1.308-0.34,1.308-1.02c0-0.664-0.436-0.996-1.308-0.996h-1.356V223.088z M52.219,224.121v2.16h1.584
			c0.416,0,0.736-0.096,0.96-0.288c0.225-0.191,0.337-0.456,0.337-0.792s-0.112-0.6-0.337-0.792
			c-0.224-0.191-0.544-0.288-0.96-0.288H52.219z"/>
		<path fill="#585556" d="M61.482,219.993h1.2l2.832,7.368h-1.271l-0.756-2.04h-2.82l-0.756,2.04h-1.26L61.482,219.993z
			 M62.071,221.517l-1.009,2.724h2.017L62.071,221.517z"/>
		<path fill="#585556" d="M68.371,227.361v-7.368h1.248v6.252h3.54v1.116H68.371z"/>
		<path fill="#585556" d="M76.23,227.361v-7.368h1.248v6.252h3.54v1.116H76.23z"/>
		<path fill="#585556" d="M84.091,219.993h4.812v1.104h-3.588v1.943h3.252v1.093h-3.252v2.111h3.588v1.116h-4.812V219.993z"/>
		<path fill="#585556" d="M94.195,224.373h-0.889v2.988h-1.248v-7.368h2.845c0.775,0,1.388,0.19,1.836,0.57
			c0.447,0.38,0.672,0.926,0.672,1.638c0,0.608-0.166,1.09-0.498,1.446c-0.332,0.355-0.794,0.582-1.386,0.678l2.136,3.036h-1.416
			L94.195,224.373z M93.307,221.073v2.256h1.572c0.408,0,0.726-0.102,0.954-0.306c0.228-0.204,0.342-0.479,0.342-0.822
			s-0.114-0.618-0.342-0.822c-0.229-0.203-0.546-0.306-0.954-0.306H93.307z"/>
		<path fill="#585556" d="M101.767,219.993v7.368h-1.248v-7.368H101.767z"/>
		<path fill="#585556" d="M111.127,219.993v7.368h-0.96l-3.769-5.364v5.364h-1.2v-7.368h1.177l3.552,5.112v-5.112H111.127z"/>
		<path fill="#585556" d="M116.814,219.993h1.2l2.832,7.368h-1.272l-0.756-2.04h-2.82l-0.756,2.04h-1.26L116.814,219.993z
			 M117.402,221.517l-1.008,2.724h2.016L117.402,221.517z"/>
	</g>
	<g>
		<path fill="#585556" d="M50.432,239.721h1.271c0.232,0.736,0.788,1.104,1.668,1.104c0.432,0,0.778-0.099,1.038-0.295
			c0.26-0.195,0.39-0.462,0.39-0.798c0-0.264-0.082-0.474-0.246-0.63s-0.438-0.277-0.821-0.366l-1.248-0.3
			c-1.225-0.288-1.836-0.948-1.836-1.979c0-0.632,0.233-1.154,0.702-1.566c0.468-0.412,1.069-0.618,1.806-0.618
			c0.775,0,1.401,0.183,1.878,0.546c0.476,0.364,0.782,0.862,0.918,1.494h-1.248c-0.232-0.655-0.744-0.983-1.536-0.983
			c-0.4,0-0.722,0.094-0.966,0.281c-0.244,0.188-0.366,0.435-0.366,0.738c0,0.488,0.324,0.809,0.973,0.96l1.283,0.3
			c0.601,0.137,1.068,0.377,1.404,0.721s0.504,0.784,0.504,1.319c0,0.681-0.244,1.223-0.731,1.626
			c-0.488,0.404-1.12,0.606-1.896,0.606c-0.784,0-1.438-0.19-1.962-0.57C50.885,240.931,50.559,240.401,50.432,239.721z"/>
		<path fill="#585556" d="M59.035,234.393h4.812v1.104h-3.588v1.943h3.252v1.093h-3.252v2.111h3.588v1.116h-4.812V234.393z"/>
		<path fill="#585556" d="M69.14,238.773h-0.889v2.988h-1.248v-7.368h2.845c0.775,0,1.388,0.19,1.836,0.57
			c0.447,0.38,0.672,0.926,0.672,1.638c0,0.608-0.166,1.09-0.498,1.446c-0.332,0.355-0.794,0.582-1.386,0.678l2.136,3.036h-1.416
			L69.14,238.773z M68.251,235.473v2.256h1.572c0.408,0,0.726-0.102,0.954-0.306c0.228-0.204,0.342-0.479,0.342-0.822
			s-0.114-0.618-0.342-0.822c-0.229-0.203-0.546-0.306-0.954-0.306H68.251z"/>
		<path fill="#585556" d="M78.739,241.761h-1.188l-2.783-7.368h1.308l2.088,5.748l2.088-5.748h1.272L78.739,241.761z"/>
		<path fill="#585556" d="M85.627,234.393v7.368h-1.248v-7.368H85.627z"/>
		<path fill="#585556" d="M89.617,240.819c-0.637-0.708-0.954-1.621-0.954-2.741s0.317-2.034,0.954-2.742
			c0.636-0.708,1.434-1.062,2.394-1.062c0.816,0,1.484,0.219,2.004,0.654c0.521,0.437,0.853,1.03,0.996,1.782h-1.224
			c-0.32-0.872-0.912-1.309-1.776-1.309c-0.64,0-1.147,0.25-1.523,0.75c-0.377,0.5-0.564,1.143-0.564,1.927s0.188,1.426,0.564,1.926
			c0.376,0.5,0.884,0.75,1.523,0.75c0.864,0,1.456-0.44,1.776-1.32h1.224c-0.144,0.76-0.476,1.358-0.996,1.794
			c-0.52,0.437-1.188,0.654-2.004,0.654C91.051,241.881,90.253,241.527,89.617,240.819z"/>
		<path fill="#585556" d="M98.022,234.393h4.812v1.104h-3.588v1.943h3.252v1.093h-3.252v2.111h3.588v1.116h-4.812V234.393z"/>
	</g>
	
		<rect x="231.478" y="231.616" fill="none" stroke="#A7A8AB" stroke-width="0.5743" stroke-miterlimit="10" stroke-dasharray="2.7133,2.7133" width="199.033" height="54.609"/>
	<g>
		<path fill="#585556" d="M283.84,271.199c0.293,0.094,0.533,0.271,0.72,0.535s0.28,0.555,0.28,0.875
			c0,0.566-0.186,1.002-0.555,1.305c-0.37,0.305-0.879,0.455-1.525,0.455h-2.35v-6.139h2.149c0.653,0,1.163,0.143,1.53,0.43
			c0.366,0.287,0.55,0.699,0.55,1.24c0,0.318-0.075,0.596-0.225,0.83C284.265,270.963,284.073,271.119,283.84,271.199z
			 M281.42,270.811h1.13c0.727,0,1.09-0.285,1.09-0.852c0-0.553-0.363-0.83-1.09-0.83h-1.13V270.811z M281.42,271.67v1.799h1.319
			c0.347,0,0.613-0.08,0.801-0.238c0.187-0.16,0.279-0.381,0.279-0.66c0-0.281-0.093-0.5-0.279-0.66
			c-0.188-0.16-0.454-0.24-0.801-0.24H281.42z"/>
		<path fill="#585556" d="M289.149,268.23h1l2.36,6.139h-1.061l-0.63-1.699h-2.35l-0.63,1.699h-1.05L289.149,268.23z M289.64,269.5
			l-0.84,2.27h1.68L289.64,269.5z"/>
		<path fill="#585556" d="M294.89,274.369v-6.139h1.04v5.209h2.95v0.93H294.89z"/>
		<path fill="#585556" d="M301.439,274.369v-6.139h1.04v5.209h2.95v0.93H301.439z"/>
		<path fill="#585556" d="M307.989,268.23h4.01v0.92h-2.989v1.619h2.71v0.91h-2.71v1.76h2.989v0.93h-4.01V268.23z"/>
		<path fill="#585556" d="M316.409,271.879h-0.739v2.49h-1.04v-6.139h2.369c0.647,0,1.157,0.158,1.53,0.475s0.561,0.771,0.561,1.365
			c0,0.506-0.139,0.908-0.415,1.205c-0.277,0.297-0.662,0.484-1.155,0.564l1.78,2.529h-1.181L316.409,271.879z M315.67,269.129
			v1.881h1.31c0.34,0,0.604-0.086,0.795-0.256s0.285-0.398,0.285-0.684c0-0.287-0.095-0.516-0.285-0.686s-0.455-0.256-0.795-0.256
			H315.67z"/>
		<path fill="#585556" d="M322.72,268.23v6.139h-1.04v-6.139H322.72z"/>
		<path fill="#585556" d="M330.52,268.23v6.139h-0.801l-3.14-4.469v4.469h-1v-6.139h0.98l2.96,4.26v-4.26H330.52z"/>
		<path fill="#585556" d="M335.259,268.23h1l2.36,6.139h-1.061l-0.63-1.699h-2.35l-0.63,1.699h-1.05L335.259,268.23z M335.749,269.5
			l-0.84,2.27h1.68L335.749,269.5z"/>
		<path fill="#585556" d="M348.139,271.199c0.294,0.094,0.533,0.271,0.721,0.535c0.187,0.264,0.279,0.555,0.279,0.875
			c0,0.566-0.185,1.002-0.555,1.305c-0.37,0.305-0.878,0.455-1.525,0.455h-2.35v-6.139h2.15c0.653,0,1.163,0.143,1.529,0.43
			c0.367,0.287,0.551,0.699,0.551,1.24c0,0.318-0.075,0.596-0.226,0.83C348.564,270.963,348.372,271.119,348.139,271.199z
			 M345.719,270.811h1.13c0.727,0,1.091-0.285,1.091-0.852c0-0.553-0.364-0.83-1.091-0.83h-1.13V270.811z M345.719,271.67v1.799
			h1.32c0.347,0,0.613-0.08,0.8-0.238c0.187-0.16,0.28-0.381,0.28-0.66c0-0.281-0.094-0.5-0.28-0.66s-0.453-0.24-0.8-0.24H345.719z"
			/>
		<path fill="#585556" d="M353.499,271.879h-0.74v2.49h-1.04v-6.139h2.37c0.646,0,1.156,0.158,1.53,0.475
			c0.373,0.316,0.56,0.771,0.56,1.365c0,0.506-0.139,0.908-0.415,1.205s-0.661,0.484-1.155,0.564l1.78,2.529h-1.18L353.499,271.879z
			 M352.759,269.129v1.881h1.31c0.341,0,0.605-0.086,0.796-0.256c0.189-0.17,0.284-0.398,0.284-0.684
			c0-0.287-0.095-0.516-0.284-0.686c-0.19-0.17-0.455-0.256-0.796-0.256H352.759z"/>
		<path fill="#585556" d="M359.81,268.23v6.139h-1.04v-6.139H359.81z"/>
		<path fill="#585556" d="M362.669,274.369v-6.139h2.07c0.906,0,1.63,0.277,2.17,0.834s0.81,1.303,0.81,2.234
			c0,0.934-0.27,1.68-0.81,2.236s-1.264,0.834-2.17,0.834H362.669z M363.709,273.439h0.99c0.633,0,1.121-0.189,1.465-0.57
			c0.343-0.379,0.515-0.902,0.515-1.57c0-0.666-0.172-1.191-0.515-1.574c-0.344-0.383-0.832-0.574-1.465-0.574h-0.99V273.439z"/>
		<path fill="#585556" d="M374.479,272.09h-1.34v-0.891h2.33v0.48c0,0.84-0.245,1.516-0.734,2.025
			c-0.49,0.51-1.115,0.764-1.875,0.764c-0.834,0-1.523-0.295-2.07-0.885s-0.82-1.352-0.82-2.285c0-0.932,0.271-1.693,0.815-2.285
			c0.543-0.59,1.222-0.885,2.035-0.885c0.687,0,1.248,0.182,1.685,0.541s0.715,0.854,0.835,1.48h-1.04
			c-0.134-0.354-0.314-0.623-0.545-0.807c-0.23-0.182-0.542-0.273-0.935-0.273c-0.54,0-0.976,0.207-1.306,0.625
			c-0.33,0.416-0.495,0.951-0.495,1.604c0,0.66,0.167,1.201,0.5,1.621c0.334,0.42,0.78,0.629,1.341,0.629
			c0.453,0,0.819-0.131,1.1-0.395S374.412,272.537,374.479,272.09z"/>
		<path fill="#585556" d="M377.999,268.23h4.01v0.92h-2.99v1.619h2.71v0.91h-2.71v1.76h2.99v0.93h-4.01V268.23z"/>
	</g>
	<rect x="243.594" y="206.503" fill="#FFFFFF" width="175" height="50"/>
	<g>
		<path fill="#585556" d="M287.408,235.043v-7.368h1.248v6.252h3.54v1.116H287.408z"/>
		<path fill="#585556" d="M295.269,227.675h4.812v1.104h-3.588v1.943h3.252v1.093h-3.252v2.111h3.588v1.116h-4.812V227.675z"/>
		<path fill="#585556" d="M308.252,232.307h-1.607v-1.067h2.796v0.576c0,1.008-0.294,1.817-0.882,2.43
			c-0.589,0.612-1.339,0.918-2.25,0.918c-1.001,0-1.828-0.354-2.484-1.062s-0.984-1.621-0.984-2.741s0.326-2.034,0.979-2.742
			c0.651-0.708,1.466-1.062,2.441-1.062c0.824,0,1.498,0.216,2.022,0.648c0.523,0.432,0.858,1.024,1.002,1.775h-1.248
			c-0.16-0.424-0.378-0.745-0.654-0.966c-0.275-0.22-0.649-0.33-1.122-0.33c-0.647,0-1.17,0.25-1.565,0.75
			c-0.396,0.5-0.594,1.143-0.594,1.927c0,0.792,0.199,1.439,0.6,1.943s0.936,0.756,1.608,0.756c0.544,0,0.983-0.157,1.319-0.474
			S308.172,232.843,308.252,232.307z"/>
		<path fill="#585556" d="M314.456,227.675h1.2l2.832,7.368h-1.272l-0.756-2.04h-2.82l-0.756,2.04h-1.26L314.456,227.675z
			 M315.044,229.2l-1.008,2.724h2.016L315.044,229.2z"/>
		<path fill="#585556" d="M321.542,234.101c-0.636-0.708-0.954-1.621-0.954-2.741s0.318-2.034,0.954-2.742s1.435-1.062,2.395-1.062
			c0.815,0,1.483,0.219,2.004,0.654c0.52,0.437,0.852,1.03,0.996,1.782h-1.225c-0.319-0.872-0.912-1.309-1.775-1.309
			c-0.641,0-1.148,0.25-1.524,0.75s-0.563,1.143-0.563,1.927s0.188,1.426,0.563,1.926s0.884,0.75,1.524,0.75
			c0.863,0,1.456-0.44,1.775-1.32h1.225c-0.145,0.76-0.477,1.358-0.996,1.794c-0.521,0.437-1.188,0.654-2.004,0.654
			C322.977,235.164,322.178,234.809,321.542,234.101z"/>
		<path fill="#585556" d="M332.265,230.975l1.943-3.3h1.32l-2.676,4.428v2.94h-1.236v-2.94l-2.664-4.428h1.356L332.265,230.975z"/>
		<path fill="#585556" d="M343.334,234.101c-0.637-0.708-0.954-1.621-0.954-2.741s0.317-2.034,0.954-2.742
			c0.636-0.708,1.434-1.062,2.394-1.062c0.816,0,1.484,0.219,2.004,0.654c0.521,0.437,0.853,1.03,0.996,1.782h-1.224
			c-0.32-0.872-0.912-1.309-1.776-1.309c-0.64,0-1.147,0.25-1.523,0.75c-0.377,0.5-0.564,1.143-0.564,1.927s0.188,1.426,0.564,1.926
			c0.376,0.5,0.884,0.75,1.523,0.75c0.864,0,1.456-0.44,1.776-1.32h1.224c-0.144,0.76-0.476,1.358-0.996,1.794
			c-0.52,0.437-1.188,0.654-2.004,0.654C344.768,235.164,343.97,234.809,343.334,234.101z"/>
		<path fill="#585556" d="M357.176,228.629c0.64,0.716,0.96,1.626,0.96,2.73c0,1.104-0.32,2.014-0.96,2.729
			s-1.456,1.074-2.448,1.074s-1.806-0.358-2.441-1.074c-0.637-0.716-0.954-1.626-0.954-2.729c0-1.104,0.317-2.015,0.954-2.73
			c0.636-0.716,1.449-1.074,2.441-1.074S356.536,227.914,357.176,228.629z M356.282,233.292c0.396-0.504,0.594-1.147,0.594-1.932
			s-0.198-1.429-0.594-1.933c-0.396-0.504-0.914-0.756-1.555-0.756c-0.64,0-1.156,0.25-1.548,0.75s-0.588,1.146-0.588,1.938
			s0.196,1.438,0.588,1.938s0.908,0.75,1.548,0.75C355.368,234.047,355.886,233.795,356.282,233.292z"/>
		<path fill="#585556" d="M361.159,235.043v-7.368h2.484c1.088,0,1.956,0.334,2.604,1.002c0.648,0.668,0.973,1.562,0.973,2.683
			s-0.324,2.014-0.973,2.682c-0.647,0.668-1.516,1.002-2.604,1.002H361.159z M362.407,233.927h1.188c0.76,0,1.346-0.228,1.758-0.684
			s0.618-1.084,0.618-1.884s-0.206-1.431-0.618-1.891s-0.998-0.689-1.758-0.689h-1.188V233.927z"/>
		<path fill="#585556" d="M370.243,227.675h4.812v1.104h-3.588v1.943h3.252v1.093h-3.252v2.111h3.588v1.116h-4.812V227.675z"/>
	</g>
	<polyline fill="none" stroke="#585A5E" stroke-miterlimit="10" points="166.901,195.914 166.901,184.352 331.094,184.352 
		331.094,196.27 	"/>
	<polygon fill="#585A5E" points="169.395,195.186 166.901,199.503 164.408,195.186 	"/>
	<polygon fill="#585A5E" points="328.601,195.186 331.094,199.503 333.587,195.186 	"/>
	<line fill="none" stroke="#585A5E" stroke-miterlimit="10" x1="166.901" y1="265.781" x2="166.901" y2="299.557"/>
	<polygon fill="#585A5E" points="164.408,298.551 166.9,302.867 169.395,298.551 	"/>
	<line fill="none" stroke="#585A5E" stroke-miterlimit="10" x1="331.094" y1="285.74" x2="331.094" y2="300.746"/>
	<polygon fill="#585A5E" points="328.601,298.551 331.094,302.867 333.587,298.551 	"/>
	<g>
		<polyline fill="none" stroke="#585A5E" stroke-miterlimit="10" points="163.811,226.978 155.627,226.978 144.354,246.503 
			155.627,266.029 178.174,266.029 189.447,246.503 178.174,226.978 169.99,226.978 		"/>
		<circle fill="none" stroke="#585A5E" stroke-miterlimit="10" cx="166.9" cy="246.503" r="8.761"/>
	</g>
</g>
</svg>
