<?xml version="1.0" encoding="utf-8"?>
<!-- Generator: Adobe Illustrator 16.0.4, SVG Export Plug-In . SVG Version: 6.00 Build 0)  -->
<!DOCTYPE svg PUBLIC "-//W3C//DTD SVG 1.0//EN" "http://www.w3.org/TR/2001/REC-SVG-20010904/DTD/svg10.dtd">
<svg version="1.0" id="Layer_1" xmlns="http://www.w3.org/2000/svg" xmlns:xlink="http://www.w3.org/1999/xlink" x="0px" y="0px"
	 width="452.664px" height="456px" viewBox="0 0 452.664 456" enable-background="new 0 0 452.664 456" xml:space="preserve">
<rect x="-0.001" y="54.14" fill="#F5F6F6" width="452.664" height="345.235"/>
<line fill="none" stroke="#585A5E" stroke-miterlimit="10" x1="226.744" y1="418.434" x2="226.744" y2="362.627"/>
<polygon fill="#585A5E" points="229.736,415.844 226.744,421.023 223.752,415.844 "/>
<rect x="-0.002" y="38.058" fill="#F5F6F6" width="110" height="18.366"/>
<g>
	<path fill="#585A5E" d="M17.757,53.199c-0.78,0-1.405-0.272-1.873-0.817c-0.468-0.546-0.702-1.233-0.702-2.063
		s0.234-1.517,0.702-2.061s1.093-0.815,1.873-0.815c0.777,0,1.399,0.271,1.868,0.815s0.703,1.23,0.703,2.061
		s-0.234,1.518-0.703,2.063C19.156,52.927,18.534,53.199,17.757,53.199z M17.757,52.442c0.484,0,0.869-0.188,1.155-0.566
		s0.43-0.896,0.43-1.558c0-0.657-0.144-1.175-0.43-1.553s-0.671-0.566-1.155-0.566c-0.487,0-0.874,0.188-1.16,0.566
		s-0.429,0.896-0.429,1.553c0,0.661,0.143,1.18,0.429,1.558S17.27,52.442,17.757,52.442z"/>
	<path fill="#585A5E" d="M22.544,48.82c0.28-0.456,0.614-0.8,1.001-1.031s0.744-0.347,1.069-0.347c0.456,0,0.866,0.197,1.23,0.591
		s0.547,0.991,0.547,1.792c0,0.632-0.121,1.195-0.364,1.691c-0.242,0.497-0.564,0.889-0.969,1.178
		c-0.404,0.287-0.903,0.432-1.499,0.432c-0.169,0-0.43-0.018-0.781-0.054c-0.052-0.007-0.13-0.015-0.234-0.024h-0.908v-7.881h0.908
		V48.82z M22.544,49.9v2.342c0.329,0.085,0.632,0.127,0.908,0.127c0.55,0,1.013-0.216,1.39-0.647
		c0.375-0.432,0.563-1.022,0.563-1.772c0-0.544-0.103-0.953-0.308-1.227c-0.205-0.274-0.438-0.411-0.698-0.411
		c-0.283,0-0.595,0.144-0.935,0.431C23.124,49.028,22.817,49.415,22.544,49.9z"/>
	<path fill="#585A5E" d="M27.959,52.76v-0.962c0.364,0.237,0.75,0.404,1.156,0.5c0.407,0.097,0.752,0.145,1.035,0.145
		c0.459,0,0.79-0.074,0.992-0.223c0.201-0.147,0.303-0.332,0.303-0.554c0-0.146-0.048-0.271-0.143-0.376
		c-0.094-0.104-0.328-0.232-0.703-0.386l-0.312-0.127l-0.629-0.249c-0.678-0.264-1.104-0.508-1.279-0.732
		c-0.18-0.222-0.27-0.491-0.27-0.811c0-0.449,0.174-0.818,0.521-1.108c0.347-0.29,0.91-0.435,1.689-0.435
		c0.582,0,1.135,0.085,1.656,0.254v0.825c-0.6-0.215-1.164-0.322-1.691-0.322c-0.385,0-0.686,0.067-0.902,0.202
		c-0.217,0.136-0.326,0.304-0.326,0.506c0,0.195,0.095,0.352,0.283,0.469c0.186,0.117,0.488,0.252,0.91,0.405l0.615,0.225
		c0.564,0.205,0.959,0.428,1.186,0.669c0.229,0.241,0.342,0.542,0.342,0.903c0,0.472-0.182,0.86-0.545,1.165
		c-0.363,0.304-0.943,0.456-1.74,0.456C29.41,53.199,28.694,53.053,27.959,52.76z"/>
	<path fill="#585A5E" d="M38.622,52.685c-0.726,0.343-1.413,0.515-2.061,0.515c-0.491,0-0.931-0.122-1.318-0.366
		c-0.388-0.243-0.697-0.593-0.931-1.046c-0.232-0.454-0.349-0.939-0.349-1.456c0-0.498,0.11-0.977,0.332-1.435
		c0.222-0.459,0.53-0.815,0.928-1.071c0.397-0.255,0.84-0.383,1.328-0.383c0.647,0,1.168,0.23,1.56,0.692
		c0.393,0.461,0.589,1.173,0.589,2.135v0.195h-3.76c0,0.379,0.079,0.725,0.237,1.038c0.157,0.312,0.365,0.548,0.622,0.704
		c0.257,0.157,0.55,0.235,0.879,0.235c0.586,0,1.233-0.195,1.943-0.587V52.685z M34.994,49.786h2.72v-0.132
		c0-0.444-0.108-0.798-0.327-1.061s-0.51-0.395-0.874-0.395c-0.368,0-0.687,0.134-0.954,0.401
		C35.289,48.868,35.102,49.264,34.994,49.786z"/>
	<path fill="#585A5E" d="M40.74,53.048v-5.454h0.908v1.191c0.283-0.449,0.608-0.785,0.975-1.009
		c0.366-0.223,0.773-0.334,1.223-0.334c0.329,0,0.658,0.051,0.986,0.151v1.968h-0.873v-1.245c-0.153-0.026-0.273-0.039-0.361-0.039
		c-0.339,0-0.671,0.134-0.996,0.4c-0.326,0.267-0.644,0.667-0.953,1.201v3.169H40.74z"/>
	<path fill="#585A5E" d="M48.244,53.048l-2.369-5.454h0.996l1.873,4.321l1.902-4.321h0.912l-2.388,5.454H48.244z"/>
	<path fill="#585A5E" d="M56.244,51.828c-0.276,0.453-0.609,0.796-0.998,1.025c-0.39,0.23-0.747,0.346-1.072,0.346
		c-0.456,0-0.865-0.197-1.229-0.591S52.4,51.617,52.4,50.816c0-0.632,0.121-1.195,0.361-1.692c0.242-0.496,0.564-0.889,0.969-1.176
		c0.404-0.289,0.904-0.433,1.5-0.433c0.173,0,0.434,0.018,0.781,0.054c0.051,0.007,0.129,0.015,0.233,0.024h0.911v3.852
		c0,0.658,0.07,1.192,0.21,1.603h-0.947C56.346,52.75,56.287,52.343,56.244,51.828z M56.248,50.741v-2.342
		c-0.322-0.085-0.623-0.127-0.9-0.127c-0.561,0-1.027,0.217-1.4,0.65c-0.374,0.434-0.561,1.023-0.561,1.77
		c0,0.541,0.102,0.949,0.306,1.225s0.437,0.413,0.696,0.413c0.284,0,0.598-0.144,0.939-0.431
		C55.671,51.613,55.978,51.227,56.248,50.741z"/>
	<path fill="#585A5E" d="M59.689,48.82c0.28-0.456,0.614-0.8,1.002-1.031c0.387-0.231,0.743-0.347,1.068-0.347
		c0.456,0,0.866,0.197,1.23,0.591c0.365,0.394,0.547,0.991,0.547,1.792c0,0.632-0.121,1.195-0.363,1.691
		c-0.242,0.497-0.565,0.889-0.969,1.178c-0.404,0.287-0.904,0.432-1.5,0.432c-0.169,0-0.43-0.018-0.781-0.054
		c-0.052-0.007-0.13-0.015-0.234-0.024h-0.908v-7.881h0.908V48.82z M59.689,49.9v2.342c0.329,0.085,0.632,0.127,0.908,0.127
		c0.551,0,1.014-0.216,1.39-0.647s0.563-1.022,0.563-1.772c0-0.544-0.102-0.953-0.307-1.227c-0.205-0.274-0.438-0.411-0.699-0.411
		c-0.283,0-0.594,0.144-0.935,0.431C60.27,49.028,59.963,49.415,59.689,49.9z"/>
	<path fill="#585A5E" d="M66.569,53.048v-4.697h-1.514v-0.757h2.422v4.697h1.519v0.757H66.569z M66.423,45.624
		c0-0.205,0.069-0.357,0.209-0.458s0.271-0.15,0.394-0.15c0.127,0,0.26,0.05,0.399,0.15s0.209,0.253,0.209,0.458
		c0,0.2-0.069,0.352-0.209,0.452s-0.272,0.15-0.399,0.15c-0.123,0-0.254-0.05-0.394-0.15S66.423,45.824,66.423,45.624z"/>
	<path fill="#585A5E" d="M72.697,53.048v-7.124h-1.631v-0.757h2.539v7.124h1.703v0.757H72.697z"/>
	<path fill="#585A5E" d="M78.951,53.048v-4.697h-1.514v-0.757h2.422v4.697h1.519v0.757H78.951z M78.805,45.624
		c0-0.205,0.07-0.357,0.209-0.458c0.14-0.101,0.271-0.15,0.395-0.15c0.126,0,0.259,0.05,0.398,0.15
		c0.139,0.101,0.209,0.253,0.209,0.458c0,0.2-0.07,0.352-0.209,0.452c-0.14,0.101-0.272,0.15-0.398,0.15
		c-0.123,0-0.255-0.05-0.395-0.15C78.875,45.976,78.805,45.824,78.805,45.624z"/>
	<path fill="#585A5E" d="M88.174,52.828c-0.426,0.179-0.735,0.286-0.928,0.319c-0.191,0.035-0.377,0.052-0.557,0.052
		c-0.381,0-0.729-0.073-1.045-0.22c-0.315-0.146-0.554-0.363-0.715-0.649s-0.242-0.729-0.242-1.328v-2.197h-1.361v-0.757h1.361
		v-2.197h0.908v2.197h2.428v0.757h-2.428v2.183c0,0.439,0.053,0.75,0.156,0.93c0.104,0.182,0.244,0.313,0.418,0.398
		s0.38,0.127,0.617,0.127c0.439,0,0.902-0.139,1.387-0.415V52.828z"/>
	<path fill="#585A5E" d="M91.813,52.833l-2.519-5.239h1l2.007,4.096l1.675-4.096h0.914l-2.109,5.069
		c-0.447,1.068-0.871,1.778-1.273,2.129c-0.401,0.351-0.922,0.526-1.561,0.526c-0.275,0-0.523-0.024-0.742-0.073v-0.801
		c0.251,0.078,0.49,0.117,0.718,0.117c0.293,0,0.554-0.057,0.781-0.17c0.228-0.114,0.436-0.315,0.624-0.604
		c0.189-0.289,0.322-0.539,0.4-0.75L91.813,52.833z"/>
</g>
<rect x="342.666" y="38.058" fill="#F5F6F6" width="110" height="18.366"/>
<g>
	<path fill="#585A5E" d="M373.723,52.76v-0.962c0.364,0.237,0.75,0.404,1.156,0.5c0.407,0.097,0.752,0.145,1.035,0.145
		c0.459,0,0.79-0.074,0.992-0.223c0.201-0.147,0.303-0.332,0.303-0.554c0-0.146-0.048-0.271-0.143-0.376
		c-0.094-0.104-0.328-0.232-0.703-0.386l-0.312-0.127l-0.629-0.249c-0.678-0.264-1.104-0.508-1.279-0.732
		c-0.18-0.222-0.27-0.491-0.27-0.811c0-0.449,0.174-0.818,0.521-1.108c0.347-0.29,0.91-0.435,1.689-0.435
		c0.582,0,1.135,0.085,1.656,0.254v0.825c-0.6-0.215-1.164-0.322-1.691-0.322c-0.385,0-0.686,0.067-0.902,0.202
		c-0.217,0.136-0.326,0.304-0.326,0.506c0,0.195,0.095,0.352,0.283,0.469c0.186,0.117,0.488,0.252,0.91,0.405l0.615,0.225
		c0.564,0.205,0.959,0.428,1.186,0.669c0.229,0.241,0.342,0.542,0.342,0.903c0,0.472-0.182,0.86-0.545,1.165
		c-0.363,0.304-0.943,0.456-1.74,0.456C375.174,53.199,374.458,53.053,373.723,52.76z"/>
	<path fill="#585A5E" d="M384.386,52.685c-0.726,0.343-1.413,0.515-2.061,0.515c-0.491,0-0.931-0.122-1.318-0.366
		c-0.388-0.243-0.697-0.593-0.931-1.046c-0.232-0.454-0.349-0.939-0.349-1.456c0-0.498,0.11-0.977,0.332-1.435
		c0.222-0.459,0.53-0.815,0.928-1.071c0.397-0.255,0.84-0.383,1.328-0.383c0.647,0,1.168,0.23,1.56,0.692
		c0.393,0.461,0.589,1.173,0.589,2.135v0.195h-3.76c0,0.379,0.079,0.725,0.237,1.038c0.157,0.312,0.365,0.548,0.622,0.704
		c0.257,0.157,0.55,0.235,0.879,0.235c0.586,0,1.233-0.195,1.943-0.587V52.685z M380.758,49.786h2.72v-0.132
		c0-0.444-0.108-0.798-0.327-1.061s-0.51-0.395-0.874-0.395c-0.368,0-0.687,0.134-0.954,0.401
		C381.053,48.868,380.865,49.264,380.758,49.786z"/>
	<path fill="#585A5E" d="M390.631,52.892c-0.609,0.205-1.188,0.308-1.738,0.308c-0.547,0-1.033-0.126-1.458-0.378
		c-0.425-0.253-0.756-0.595-0.993-1.025c-0.238-0.432-0.357-0.923-0.357-1.473c0-0.827,0.27-1.514,0.809-2.061
		s1.189-0.82,1.951-0.82c0.562,0,1.158,0.105,1.787,0.317v0.874c-0.635-0.29-1.203-0.435-1.705-0.435
		c-0.332,0-0.645,0.082-0.938,0.247c-0.293,0.164-0.519,0.42-0.678,0.769c-0.16,0.349-0.24,0.706-0.24,1.074
		c0,0.491,0.154,0.96,0.462,1.406s0.79,0.669,1.448,0.669c0.198,0,0.394-0.014,0.586-0.041c0.191-0.028,0.547-0.13,1.064-0.306
		V52.892z"/>
	<path fill="#585A5E" d="M396.719,47.594v5.454h-0.908v-1.196c-0.293,0.449-0.619,0.786-0.977,1.011s-0.717,0.337-1.074,0.337
		c-0.318,0-0.611-0.085-0.877-0.257c-0.265-0.17-0.449-0.395-0.554-0.674c-0.104-0.277-0.156-0.82-0.156-1.628v-3.047h0.908v3.159
		c0,0.524,0.025,0.87,0.075,1.037c0.051,0.168,0.144,0.306,0.279,0.413c0.135,0.107,0.28,0.161,0.437,0.161
		c0.319,0,0.661-0.15,1.028-0.451c0.365-0.302,0.67-0.682,0.91-1.141v-3.179H396.719z"/>
	<path fill="#585A5E" d="M398.887,53.048v-5.454h0.908v1.191c0.283-0.449,0.607-0.785,0.974-1.009
		c0.366-0.223,0.774-0.334,1.224-0.334c0.328,0,0.657,0.051,0.986,0.151v1.968h-0.875v-1.245c-0.152-0.026-0.273-0.039-0.361-0.039
		c-0.338,0-0.67,0.134-0.996,0.4c-0.325,0.267-0.643,0.667-0.951,1.201v3.169H398.887z"/>
	<path fill="#585A5E" d="M406.143,53.048v-4.697h-1.514v-0.757h2.422v4.697h1.518v0.757H406.143z M405.996,45.624
		c0-0.205,0.069-0.357,0.209-0.458c0.139-0.101,0.271-0.15,0.394-0.15c0.126,0,0.259,0.05,0.399,0.15
		c0.139,0.101,0.209,0.253,0.209,0.458c0,0.2-0.07,0.352-0.209,0.452c-0.141,0.101-0.273,0.15-0.399,0.15
		c-0.123,0-0.255-0.05-0.394-0.15C406.065,45.976,405.996,45.824,405.996,45.624z"/>
	<path fill="#585A5E" d="M415.365,52.828c-0.426,0.179-0.736,0.286-0.928,0.319c-0.191,0.035-0.377,0.052-0.557,0.052
		c-0.381,0-0.729-0.073-1.045-0.22s-0.555-0.363-0.715-0.649c-0.162-0.286-0.242-0.729-0.242-1.328v-2.197h-1.362v-0.757h1.362
		v-2.197h0.908v2.197h2.427v0.757h-2.427v2.183c0,0.439,0.053,0.75,0.156,0.93c0.104,0.182,0.243,0.313,0.418,0.398
		c0.174,0.085,0.379,0.127,0.617,0.127c0.439,0,0.902-0.139,1.387-0.415V52.828z"/>
	<path fill="#585A5E" d="M419.004,52.833l-2.519-5.239h1l2.007,4.096l1.676-4.096h0.913l-2.109,5.069
		c-0.446,1.068-0.87,1.778-1.272,2.129s-0.922,0.526-1.561,0.526c-0.276,0-0.523-0.024-0.742-0.073v-0.801
		c0.25,0.078,0.49,0.117,0.717,0.117c0.293,0,0.554-0.057,0.781-0.17c0.229-0.114,0.436-0.315,0.625-0.604
		c0.189-0.289,0.322-0.539,0.4-0.75L419.004,52.833z"/>
</g>
<rect x="35.429" y="88.671" fill="#FFFFFF" width="382.631" height="80"/>
<g>
	<path fill="#585556" d="M54.59,105.849c0.352,0.112,0.64,0.326,0.863,0.642c0.225,0.316,0.336,0.666,0.336,1.05
		c0,0.681-0.221,1.202-0.666,1.566c-0.443,0.364-1.053,0.546-1.829,0.546h-2.82v-7.368h2.58c0.784,0,1.396,0.172,1.836,0.517
		c0.44,0.344,0.66,0.84,0.66,1.487c0,0.384-0.091,0.717-0.271,0.996C55.1,105.564,54.869,105.752,54.59,105.849z M51.686,105.38
		h1.355c0.873,0,1.309-0.34,1.309-1.02c0-0.664-0.436-0.996-1.309-0.996h-1.355V105.38z M51.686,106.412v2.16h1.584
		c0.416,0,0.736-0.096,0.96-0.288c0.224-0.191,0.337-0.456,0.337-0.792s-0.113-0.6-0.337-0.792c-0.224-0.191-0.544-0.288-0.96-0.288
		H51.686z"/>
	<path fill="#585556" d="M60.949,102.284h1.2l2.832,7.368h-1.272l-0.756-2.04h-2.82l-0.756,2.04h-1.26L60.949,102.284z
		 M61.537,103.809l-1.008,2.724h2.016L61.537,103.809z"/>
	<path fill="#585556" d="M67.838,109.652v-7.368h1.248v6.252h3.539v1.116H67.838z"/>
	<path fill="#585556" d="M75.697,109.652v-7.368h1.248v6.252h3.54v1.116H75.697z"/>
	<path fill="#585556" d="M83.557,102.284h4.812v1.104h-3.588v1.943h3.252v1.093h-3.252v2.111h3.588v1.116h-4.812V102.284z"/>
	<path fill="#585556" d="M93.662,106.664h-0.889v2.988h-1.248v-7.368h2.844c0.776,0,1.389,0.19,1.836,0.57
		c0.448,0.38,0.672,0.926,0.672,1.638c0,0.608-0.166,1.09-0.498,1.446c-0.332,0.355-0.793,0.582-1.385,0.678l2.135,3.036h-1.416
		L93.662,106.664z M92.773,103.364v2.256h1.572c0.408,0,0.726-0.102,0.953-0.306c0.229-0.204,0.343-0.479,0.343-0.822
		s-0.114-0.618-0.343-0.822c-0.228-0.203-0.545-0.306-0.953-0.306H92.773z"/>
	<path fill="#585556" d="M101.233,102.284v7.368h-1.248v-7.368H101.233z"/>
	<path fill="#585556" d="M110.594,102.284v7.368h-0.961l-3.768-5.364v5.364h-1.2v-7.368h1.177l3.551,5.112v-5.112H110.594z"/>
	<path fill="#585556" d="M116.281,102.284h1.199l2.832,7.368h-1.271l-0.756-2.04h-2.82l-0.756,2.04h-1.26L116.281,102.284z
		 M116.869,103.809l-1.008,2.724h2.016L116.869,103.809z"/>
	<path fill="#585556" d="M129.865,102.284h1.199l2.832,7.368h-1.271l-0.756-2.04h-2.82l-0.756,2.04h-1.26L129.865,102.284z
		 M130.453,103.809l-1.008,2.724h2.016L130.453,103.809z"/>
	<path fill="#585556" d="M139.598,106.904h-1.597v2.748h-1.248v-7.368h2.845c0.775,0,1.389,0.2,1.842,0.601
		c0.451,0.399,0.678,0.972,0.678,1.716c0,0.736-0.227,1.304-0.678,1.704C140.986,106.704,140.373,106.904,139.598,106.904z
		 M140.881,104.601c0-0.376-0.111-0.676-0.336-0.9c-0.225-0.224-0.548-0.336-0.972-0.336h-1.572v2.46h1.572
		c0.415,0,0.737-0.111,0.966-0.336C140.768,105.265,140.881,104.969,140.881,104.601z"/>
	<path fill="#585556" d="M146.341,102.284v7.368h-1.248v-7.368H146.341z"/>
</g>
<g>
	<path fill="#585556" d="M55.49,121.316h-1.608v-1.067h2.796v0.576c0,1.008-0.294,1.817-0.882,2.43
		c-0.589,0.612-1.339,0.918-2.25,0.918c-1.001,0-1.828-0.354-2.484-1.062c-0.655-0.708-0.983-1.621-0.983-2.741
		s0.326-2.034,0.978-2.742s1.466-1.062,2.442-1.062c0.824,0,1.498,0.216,2.021,0.648c0.523,0.432,0.858,1.024,1.002,1.775h-1.248
		c-0.16-0.424-0.378-0.745-0.654-0.966c-0.275-0.22-0.649-0.33-1.121-0.33c-0.648,0-1.17,0.25-1.566,0.75s-0.594,1.143-0.594,1.927
		c0,0.792,0.199,1.439,0.6,1.943s0.936,0.756,1.608,0.756c0.544,0,0.983-0.157,1.319-0.474S55.41,121.853,55.49,121.316z"/>
	<path fill="#585556" d="M61.693,116.685h1.2l2.832,7.368h-1.272l-0.756-2.04h-2.82l-0.756,2.04h-1.26L61.693,116.685z
		 M62.281,118.209l-1.008,2.724h2.016L62.281,118.209z"/>
	<path fill="#585556" d="M67.357,117.789v-1.104h6.145v1.104h-2.448v6.264h-1.248v-6.264H67.357z"/>
	<path fill="#585556" d="M76.478,116.685h4.812v1.104h-3.588v1.943h3.252v1.093h-3.252v2.111h3.588v1.116h-4.812V116.685z"/>
	<path fill="#585556" d="M87.793,116.685h1.008l1.393,5.424l1.332-5.424h1.2l-1.896,7.368h-1.152l-1.393-5.268l-1.416,5.268h-1.14
		l-1.896-7.368h1.224l1.331,5.424L87.793,116.685z"/>
	<path fill="#585556" d="M97.357,116.685h1.199l2.832,7.368h-1.271l-0.756-2.04h-2.82l-0.756,2.04h-1.26L97.357,116.685z
		 M97.945,118.209l-1.008,2.724h2.016L97.945,118.209z"/>
	<path fill="#585556" d="M106.069,119.984l1.944-3.3h1.319l-2.676,4.428v2.94h-1.235v-2.94l-2.664-4.428h1.355L106.069,119.984z"/>
</g>
<line fill="none" stroke="#585A5E" stroke-miterlimit="10" x1="226.744" y1="28.561" x2="226.744" y2="111.106"/>
<g>
	<circle fill="#FFFFFF" stroke="#585A5E" stroke-miterlimit="10" cx="226.331" cy="23.313" r="22.242"/>
	<g>
		<path fill="#585556" d="M218.779,19.241h1.199l2.832,7.368h-1.271l-0.756-2.04h-2.82l-0.756,2.04h-1.26L218.779,19.241z
			 M219.367,20.766l-1.008,2.724h2.016L219.367,20.766z"/>
		<path fill="#585556" d="M228.499,23.861h-1.597v2.748h-1.248v-7.368h2.845c0.776,0,1.39,0.2,1.842,0.601
			c0.452,0.399,0.679,0.972,0.679,1.716c0,0.736-0.227,1.304-0.679,1.704C229.889,23.661,229.275,23.861,228.499,23.861z
			 M229.783,21.558c0-0.376-0.112-0.676-0.336-0.9c-0.225-0.224-0.549-0.336-0.973-0.336h-1.572v2.46h1.572
			c0.416,0,0.738-0.111,0.967-0.336C229.669,22.222,229.783,21.926,229.783,21.558z"/>
		<path fill="#585556" d="M235.243,19.241v7.368h-1.248v-7.368H235.243z"/>
	</g>
</g>
<line fill="none" stroke="#585A5E" stroke-miterlimit="10" x1="226.744" y1="146.215" x2="226.744" y2="184.189"/>
<rect x="154.401" y="236.484" fill="#FFFFFF" width="5.095" height="5.096"/>
<g>
	<rect x="35.429" y="309.861" fill="#FFFFFF" width="382.631" height="54.045"/>
	<g>
		<path fill="#585A5E" d="M94.205,326.053c0.264,0.084,0.479,0.244,0.648,0.481c0.168,0.236,0.252,0.499,0.252,0.787
			c0,0.51-0.167,0.901-0.5,1.175c-0.333,0.272-0.791,0.409-1.373,0.409h-2.115v-5.526h1.936c0.588,0,1.047,0.13,1.377,0.388
			s0.495,0.63,0.495,1.115c0,0.288-0.067,0.537-0.202,0.747C94.588,325.84,94.415,325.98,94.205,326.053z M92.027,325.701h1.017
			c0.653,0,0.981-0.255,0.981-0.765c0-0.498-0.328-0.747-0.981-0.747h-1.017V325.701z M92.027,326.476v1.62h1.188
			c0.312,0,0.552-0.072,0.721-0.217c0.167-0.144,0.252-0.342,0.252-0.594s-0.085-0.45-0.252-0.594
			c-0.169-0.145-0.408-0.216-0.721-0.216H92.027z"/>
		<path fill="#585A5E" d="M98.255,323.379h0.899l2.125,5.526h-0.955l-0.566-1.53h-2.115l-0.566,1.53h-0.945L98.255,323.379z
			 M98.695,324.522l-0.756,2.043h1.512L98.695,324.522z"/>
		<path fill="#585A5E" d="M102.701,328.905v-5.526h0.936v4.689h2.655v0.837H102.701z"/>
		<path fill="#585A5E" d="M107.875,328.905v-5.526h0.937v4.689h2.655v0.837H107.875z"/>
		<path fill="#585A5E" d="M113.051,323.379h3.609v0.828h-2.691v1.458h2.439v0.819h-2.439v1.584h2.691v0.837h-3.609V323.379z"/>
		<path fill="#585A5E" d="M119.908,326.664h-0.666v2.241h-0.936v-5.526h2.133c0.582,0,1.041,0.143,1.377,0.428
			s0.504,0.694,0.504,1.229c0,0.456-0.125,0.817-0.373,1.085c-0.25,0.267-0.596,0.437-1.04,0.508l1.603,2.277h-1.062
			L119.908,326.664z M119.242,324.189v1.691h1.18c0.306,0,0.544-0.076,0.715-0.229c0.171-0.152,0.257-0.358,0.257-0.616
			s-0.086-0.464-0.257-0.616c-0.171-0.153-0.409-0.229-0.715-0.229H119.242z"/>
		<path fill="#585A5E" d="M124.867,323.379v5.526h-0.936v-5.526H124.867z"/>
		<path fill="#585A5E" d="M131.158,323.379v5.526h-0.72l-2.825-4.023v4.023h-0.9v-5.526h0.882l2.664,3.834v-3.834H131.158z"/>
		<path fill="#585A5E" d="M134.705,323.379h0.899l2.124,5.526h-0.954l-0.567-1.53h-2.115l-0.566,1.53h-0.945L134.705,323.379z
			 M135.146,324.522l-0.757,2.043h1.513L135.146,324.522z"/>
	</g>
	<g>
		<path fill="#585A5E" d="M97.656,339.706H96.99l-1.521-3.843v3.843h-0.892v-5.526h1.072l1.683,4.248l1.665-4.248h1.044v5.526h-0.9
			v-3.843L97.656,339.706z"/>
		<path fill="#585A5E" d="M101.896,334.18h3.609v0.828h-2.691v1.458h2.439v0.819h-2.439v1.584h2.691v0.837h-3.609V334.18z"/>
		<path fill="#585A5E" d="M106.72,338.176h0.954c0.174,0.553,0.591,0.828,1.25,0.828c0.324,0,0.584-0.073,0.779-0.221
			c0.195-0.146,0.293-0.346,0.293-0.599c0-0.197-0.062-0.355-0.186-0.472c-0.123-0.117-0.328-0.209-0.616-0.274l-0.936-0.226
			c-0.919-0.216-1.378-0.711-1.378-1.484c0-0.475,0.176-0.866,0.527-1.175c0.352-0.31,0.803-0.464,1.354-0.464
			c0.581,0,1.052,0.137,1.408,0.41c0.356,0.272,0.587,0.646,0.688,1.12h-0.936c-0.174-0.492-0.559-0.738-1.152-0.738
			c-0.3,0-0.541,0.071-0.725,0.212s-0.274,0.325-0.274,0.554c0,0.365,0.243,0.605,0.729,0.72l0.963,0.225
			c0.449,0.103,0.801,0.282,1.053,0.54s0.378,0.588,0.378,0.99c0,0.51-0.183,0.917-0.549,1.22s-0.841,0.454-1.423,0.454
			c-0.588,0-1.078-0.143-1.471-0.428C107.061,339.084,106.815,338.687,106.72,338.176z"/>
		<path fill="#585A5E" d="M112.021,338.176h0.953c0.174,0.553,0.592,0.828,1.251,0.828c0.324,0,0.583-0.073,0.778-0.221
			c0.195-0.146,0.293-0.346,0.293-0.599c0-0.197-0.062-0.355-0.185-0.472c-0.123-0.117-0.329-0.209-0.616-0.274l-0.936-0.226
			c-0.919-0.216-1.378-0.711-1.378-1.484c0-0.475,0.176-0.866,0.526-1.175c0.352-0.31,0.803-0.464,1.355-0.464
			c0.581,0,1.051,0.137,1.408,0.41c0.356,0.272,0.586,0.646,0.688,1.12h-0.936c-0.174-0.492-0.558-0.738-1.152-0.738
			c-0.299,0-0.541,0.071-0.725,0.212c-0.183,0.141-0.273,0.325-0.273,0.554c0,0.365,0.242,0.605,0.729,0.72l0.963,0.225
			c0.45,0.103,0.801,0.282,1.053,0.54s0.379,0.588,0.379,0.99c0,0.51-0.184,0.917-0.549,1.22c-0.367,0.303-0.841,0.454-1.423,0.454
			c-0.588,0-1.078-0.143-1.472-0.428C112.361,339.084,112.117,338.687,112.021,338.176z"/>
		<path fill="#585A5E" d="M119.347,334.18h0.899l2.125,5.526h-0.955l-0.566-1.53h-2.115l-0.566,1.53h-0.945L119.347,334.18z
			 M119.787,335.323l-0.756,2.043h1.512L119.787,335.323z"/>
		<path fill="#585A5E" d="M127.285,337.654h-1.207v-0.801h2.098v0.432c0,0.756-0.221,1.363-0.662,1.822
			c-0.44,0.459-1.003,0.688-1.688,0.688c-0.75,0-1.371-0.266-1.862-0.796c-0.492-0.531-0.738-1.217-0.738-2.057
			s0.245-1.525,0.733-2.057c0.489-0.531,1.1-0.797,1.832-0.797c0.617,0,1.123,0.162,1.516,0.486
			c0.394,0.324,0.645,0.768,0.752,1.332h-0.936c-0.121-0.318-0.283-0.56-0.49-0.725s-0.488-0.247-0.842-0.247
			c-0.486,0-0.878,0.188-1.175,0.562s-0.446,0.856-0.446,1.444c0,0.594,0.15,1.08,0.451,1.458c0.299,0.378,0.701,0.566,1.205,0.566
			c0.408,0,0.738-0.118,0.99-0.355C127.068,338.376,127.225,338.056,127.285,337.654z"/>
		<path fill="#585A5E" d="M129.732,334.18h3.609v0.828h-2.691v1.458h2.439v0.819h-2.439v1.584h2.691v0.837h-3.609V334.18z"/>
	</g>
	<g>
		<path fill="#585A5E" d="M100.906,347.653c0.264,0.084,0.479,0.244,0.648,0.481c0.168,0.236,0.252,0.499,0.252,0.787
			c0,0.51-0.167,0.901-0.5,1.175c-0.333,0.272-0.791,0.409-1.373,0.409h-2.115v-5.526h1.936c0.588,0,1.047,0.13,1.377,0.388
			s0.495,0.63,0.495,1.115c0,0.288-0.067,0.537-0.202,0.747C101.289,347.44,101.116,347.581,100.906,347.653z M98.729,347.302h1.017
			c0.653,0,0.981-0.255,0.981-0.765c0-0.498-0.328-0.747-0.981-0.747h-1.017V347.302z M98.729,348.076v1.62h1.188
			c0.312,0,0.552-0.072,0.721-0.217c0.167-0.144,0.252-0.342,0.252-0.594s-0.085-0.45-0.252-0.594
			c-0.169-0.145-0.408-0.216-0.721-0.216H98.729z"/>
		<path fill="#585A5E" d="M105.01,348.265h-0.666v2.241h-0.936v-5.526h2.133c0.582,0,1.041,0.143,1.377,0.428
			s0.504,0.694,0.504,1.229c0,0.456-0.125,0.817-0.373,1.085c-0.25,0.267-0.596,0.437-1.04,0.508l1.603,2.277h-1.062L105.01,348.265
			z M104.344,345.79v1.691h1.18c0.306,0,0.544-0.076,0.715-0.229c0.171-0.152,0.257-0.358,0.257-0.616s-0.086-0.464-0.257-0.616
			c-0.171-0.153-0.409-0.229-0.715-0.229H104.344z"/>
		<path fill="#585A5E" d="M113.119,345.695c0.479,0.537,0.72,1.22,0.72,2.048s-0.24,1.511-0.72,2.047
			c-0.48,0.537-1.092,0.806-1.836,0.806s-1.355-0.269-1.832-0.806c-0.477-0.536-0.715-1.219-0.715-2.047s0.238-1.511,0.715-2.048
			s1.088-0.806,1.832-0.806S112.639,345.158,113.119,345.695z M112.448,349.191c0.298-0.378,0.446-0.86,0.446-1.448
			s-0.148-1.071-0.446-1.449c-0.297-0.378-0.686-0.567-1.165-0.567c-0.48,0-0.867,0.188-1.161,0.562s-0.441,0.859-0.441,1.454
			c0,0.594,0.147,1.078,0.441,1.453s0.681,0.562,1.161,0.562C111.763,349.759,112.151,349.57,112.448,349.191z"/>
		<path fill="#585A5E" d="M116.332,344.979v2.646l2.295-2.646h1.179l-2.231,2.512l2.312,3.015h-1.17l-1.818-2.367l-0.566,0.648
			v1.719h-0.937v-5.526H116.332z"/>
		<path fill="#585A5E" d="M121.264,344.979h3.609v0.828h-2.691v1.458h2.439v0.819h-2.439v1.584h2.691v0.837h-3.609V344.979z"/>
		<path fill="#585A5E" d="M128.121,348.265h-0.666v2.241h-0.936v-5.526h2.133c0.582,0,1.041,0.143,1.377,0.428
			s0.504,0.694,0.504,1.229c0,0.456-0.124,0.817-0.373,1.085c-0.249,0.267-0.596,0.437-1.039,0.508l1.602,2.277h-1.062
			L128.121,348.265z M127.455,345.79v1.691h1.18c0.307,0,0.545-0.076,0.715-0.229c0.172-0.152,0.258-0.358,0.258-0.616
			s-0.086-0.464-0.258-0.616c-0.17-0.153-0.408-0.229-0.715-0.229H127.455z"/>
	</g>
	<g>
		<path fill="#585A5E" d="M206.566,326.053c0.264,0.084,0.479,0.244,0.648,0.481c0.168,0.236,0.252,0.499,0.252,0.787
			c0,0.51-0.167,0.901-0.5,1.175c-0.333,0.272-0.791,0.409-1.373,0.409h-2.115v-5.526h1.936c0.588,0,1.047,0.13,1.377,0.388
			s0.495,0.63,0.495,1.115c0,0.288-0.067,0.537-0.202,0.747C206.949,325.84,206.776,325.98,206.566,326.053z M204.389,325.701h1.017
			c0.653,0,0.981-0.255,0.981-0.765c0-0.498-0.328-0.747-0.981-0.747h-1.017V325.701z M204.389,326.476v1.62h1.188
			c0.312,0,0.552-0.072,0.721-0.217c0.167-0.144,0.252-0.342,0.252-0.594s-0.085-0.45-0.252-0.594
			c-0.169-0.145-0.408-0.216-0.721-0.216H204.389z"/>
		<path fill="#585A5E" d="M210.625,323.379h0.9l2.124,5.526h-0.954l-0.566-1.53h-2.115l-0.567,1.53h-0.944L210.625,323.379z
			 M211.066,324.522l-0.756,2.043h1.512L211.066,324.522z"/>
		<path fill="#585A5E" d="M215.062,328.905v-5.526h0.936v4.689h2.655v0.837H215.062z"/>
		<path fill="#585A5E" d="M220.236,328.905v-5.526h0.937v4.689h2.655v0.837H220.236z"/>
		<path fill="#585A5E" d="M225.412,323.379h3.609v0.828h-2.691v1.458h2.439v0.819h-2.439v1.584h2.691v0.837h-3.609V323.379z"/>
		<path fill="#585A5E" d="M232.27,326.664h-0.666v2.241h-0.936v-5.526h2.133c0.582,0,1.041,0.143,1.377,0.428
			s0.504,0.694,0.504,1.229c0,0.456-0.125,0.817-0.373,1.085c-0.25,0.267-0.596,0.437-1.04,0.508l1.603,2.277h-1.062L232.27,326.664
			z M231.604,324.189v1.691h1.18c0.306,0,0.544-0.076,0.715-0.229c0.171-0.152,0.257-0.358,0.257-0.616s-0.086-0.464-0.257-0.616
			c-0.171-0.153-0.409-0.229-0.715-0.229H231.604z"/>
		<path fill="#585A5E" d="M237.229,323.379v5.526h-0.936v-5.526H237.229z"/>
		<path fill="#585A5E" d="M243.529,323.379v5.526h-0.721l-2.826-4.023v4.023h-0.9v-5.526h0.883l2.664,3.834v-3.834H243.529z"/>
		<path fill="#585A5E" d="M247.074,323.379h0.9l2.124,5.526h-0.954l-0.566-1.53h-2.115l-0.567,1.53h-0.944L247.074,323.379z
			 M247.516,324.522l-0.756,2.043h1.512L247.516,324.522z"/>
	</g>
	<g>
		<path fill="#585A5E" d="M196.158,335.008v-0.828h4.607v0.828h-1.836v4.698h-0.936v-4.698H196.158z"/>
		<path fill="#585A5E" d="M203.879,337.465h-0.666v2.241h-0.936v-5.526h2.133c0.582,0,1.041,0.143,1.377,0.428
			s0.504,0.694,0.504,1.229c0,0.456-0.124,0.817-0.373,1.085c-0.249,0.267-0.596,0.437-1.039,0.508l1.602,2.277h-1.062
			L203.879,337.465z M203.213,334.99v1.691h1.18c0.307,0,0.545-0.076,0.715-0.229c0.172-0.152,0.258-0.358,0.258-0.616
			s-0.086-0.464-0.258-0.616c-0.17-0.153-0.408-0.229-0.715-0.229H203.213z"/>
		<path fill="#585A5E" d="M209.595,334.18h0.899l2.125,5.526h-0.955l-0.566-1.53h-2.115l-0.566,1.53h-0.945L209.595,334.18z
			 M210.035,335.323l-0.756,2.043h1.512L210.035,335.323z"/>
		<path fill="#585A5E" d="M218.478,334.18v5.526h-0.72l-2.826-4.023v4.023h-0.9v-5.526h0.883l2.664,3.834v-3.834H218.478z"/>
		<path fill="#585A5E" d="M219.899,338.176h0.954c0.174,0.553,0.591,0.828,1.25,0.828c0.324,0,0.584-0.073,0.779-0.221
			c0.195-0.146,0.293-0.346,0.293-0.599c0-0.197-0.062-0.355-0.186-0.472c-0.123-0.117-0.328-0.209-0.616-0.274l-0.936-0.226
			c-0.919-0.216-1.378-0.711-1.378-1.484c0-0.475,0.176-0.866,0.527-1.175c0.352-0.31,0.803-0.464,1.354-0.464
			c0.581,0,1.052,0.137,1.408,0.41c0.356,0.272,0.587,0.646,0.688,1.12h-0.936c-0.174-0.492-0.559-0.738-1.152-0.738
			c-0.3,0-0.541,0.071-0.725,0.212s-0.274,0.325-0.274,0.554c0,0.365,0.243,0.605,0.729,0.72l0.963,0.225
			c0.449,0.103,0.801,0.282,1.053,0.54s0.378,0.588,0.378,0.99c0,0.51-0.183,0.917-0.549,1.22s-0.841,0.454-1.423,0.454
			c-0.588,0-1.078-0.143-1.471-0.428C220.24,339.084,219.995,338.687,219.899,338.176z"/>
		<path fill="#585A5E" d="M227.226,334.18h0.899l2.125,5.526h-0.955l-0.566-1.53h-2.115l-0.566,1.53h-0.945L227.226,334.18z
			 M227.666,335.323l-0.756,2.043h1.512L227.666,335.323z"/>
		<path fill="#585A5E" d="M231.828,339c-0.477-0.531-0.715-1.217-0.715-2.057s0.238-1.525,0.715-2.057
			c0.478-0.531,1.076-0.797,1.797-0.797c0.611,0,1.112,0.164,1.502,0.49c0.391,0.327,0.639,0.773,0.748,1.337h-0.918
			c-0.24-0.654-0.685-0.98-1.332-0.98c-0.48,0-0.861,0.188-1.144,0.562s-0.423,0.856-0.423,1.444s0.141,1.069,0.423,1.444
			s0.663,0.562,1.144,0.562c0.647,0,1.092-0.33,1.332-0.99h0.918c-0.109,0.57-0.357,1.019-0.748,1.346
			c-0.39,0.327-0.891,0.49-1.502,0.49C232.904,339.796,232.306,339.53,231.828,339z"/>
		<path fill="#585A5E" d="M236.928,335.008v-0.828h4.607v0.828h-1.836v4.698h-0.936v-4.698H236.928z"/>
		<path fill="#585A5E" d="M243.982,334.18v5.526h-0.936v-5.526H243.982z"/>
		<path fill="#585A5E" d="M249.924,334.896c0.479,0.537,0.719,1.22,0.719,2.048s-0.24,1.511-0.719,2.047
			c-0.48,0.537-1.093,0.806-1.837,0.806c-0.743,0-1.354-0.269-1.831-0.806c-0.477-0.536-0.716-1.219-0.716-2.047
			s0.239-1.511,0.716-2.048s1.088-0.806,1.831-0.806C248.831,334.09,249.443,334.358,249.924,334.896z M249.252,338.392
			c0.298-0.378,0.446-0.86,0.446-1.448s-0.148-1.071-0.446-1.449c-0.297-0.378-0.686-0.567-1.165-0.567s-0.866,0.188-1.161,0.562
			c-0.294,0.375-0.441,0.859-0.441,1.454c0,0.594,0.147,1.078,0.441,1.453c0.295,0.375,0.682,0.562,1.161,0.562
			S248.955,338.771,249.252,338.392z"/>
		<path fill="#585A5E" d="M256.646,334.18v5.526h-0.721l-2.826-4.023v4.023h-0.9v-5.526h0.883l2.664,3.834v-3.834H256.646z"/>
	</g>
	<g>
		<path fill="#585A5E" d="M196.607,349.8c-0.477-0.531-0.715-1.217-0.715-2.057s0.238-1.525,0.715-2.057s1.076-0.797,1.796-0.797
			c0.612,0,1.112,0.164,1.503,0.49c0.39,0.327,0.639,0.773,0.747,1.337h-0.918c-0.24-0.654-0.685-0.98-1.332-0.98
			c-0.48,0-0.861,0.188-1.144,0.562c-0.281,0.375-0.423,0.856-0.423,1.444s0.142,1.069,0.423,1.444
			c0.282,0.375,0.663,0.562,1.144,0.562c0.647,0,1.092-0.33,1.332-0.99h0.918c-0.108,0.57-0.357,1.019-0.747,1.346
			c-0.391,0.327-0.891,0.49-1.503,0.49C197.684,350.596,197.084,350.33,196.607,349.8z"/>
		<path fill="#585A5E" d="M206.278,345.695c0.479,0.537,0.72,1.22,0.72,2.048s-0.24,1.511-0.72,2.047
			c-0.48,0.537-1.093,0.806-1.837,0.806c-0.743,0-1.354-0.269-1.831-0.806c-0.477-0.536-0.716-1.219-0.716-2.047
			s0.239-1.511,0.716-2.048c0.478-0.537,1.088-0.806,1.831-0.806C205.186,344.89,205.798,345.158,206.278,345.695z M205.607,349.191
			c0.297-0.378,0.445-0.86,0.445-1.448s-0.148-1.071-0.445-1.449s-0.686-0.567-1.166-0.567c-0.479,0-0.866,0.188-1.16,0.562
			c-0.295,0.375-0.441,0.859-0.441,1.454c0,0.594,0.146,1.078,0.441,1.453c0.294,0.375,0.681,0.562,1.16,0.562
			C204.922,349.759,205.311,349.57,205.607,349.191z"/>
		<path fill="#585A5E" d="M212.686,345.695c0.48,0.537,0.721,1.22,0.721,2.048s-0.24,1.511-0.721,2.047
			c-0.48,0.537-1.092,0.806-1.836,0.806s-1.354-0.269-1.832-0.806c-0.477-0.536-0.715-1.219-0.715-2.047s0.238-1.511,0.715-2.048
			c0.478-0.537,1.088-0.806,1.832-0.806S212.205,345.158,212.686,345.695z M212.016,349.191c0.297-0.378,0.445-0.86,0.445-1.448
			s-0.148-1.071-0.445-1.449s-0.686-0.567-1.166-0.567s-0.867,0.188-1.16,0.562c-0.295,0.375-0.441,0.859-0.441,1.454
			c0,0.594,0.146,1.078,0.441,1.453c0.293,0.375,0.68,0.562,1.16,0.562S211.719,349.57,212.016,349.191z"/>
		<path fill="#585A5E" d="M216.564,348.265h-0.666v2.241h-0.936v-5.526h2.133c0.582,0,1.041,0.143,1.377,0.428
			s0.504,0.694,0.504,1.229c0,0.456-0.124,0.817-0.373,1.085c-0.249,0.267-0.596,0.437-1.039,0.508l1.602,2.277h-1.062
			L216.564,348.265z M215.898,345.79v1.691h1.18c0.307,0,0.545-0.076,0.715-0.229c0.172-0.152,0.258-0.358,0.258-0.616
			s-0.086-0.464-0.258-0.616c-0.17-0.153-0.408-0.229-0.715-0.229H215.898z"/>
		<path fill="#585A5E" d="M220.588,350.506v-5.526h1.863c0.815,0,1.467,0.251,1.953,0.752c0.485,0.501,0.729,1.172,0.729,2.012
			s-0.243,1.511-0.729,2.011c-0.486,0.502-1.138,0.752-1.953,0.752H220.588z M221.523,349.669h0.891c0.57,0,1.01-0.171,1.318-0.513
			c0.31-0.343,0.465-0.813,0.465-1.413c0-0.601-0.155-1.072-0.465-1.418c-0.309-0.345-0.748-0.518-1.318-0.518h-0.891V349.669z"/>
		<path fill="#585A5E" d="M227.617,344.979v5.526h-0.937v-5.526H227.617z"/>
		<path fill="#585A5E" d="M233.916,344.979v5.526h-0.72l-2.825-4.023v4.023h-0.9v-5.526h0.882l2.664,3.834v-3.834H233.916z"/>
		<path fill="#585A5E" d="M237.463,344.979h0.9l2.123,5.526h-0.953l-0.567-1.53h-2.115l-0.567,1.53h-0.944L237.463,344.979z
			 M237.904,346.123l-0.757,2.043h1.513L237.904,346.123z"/>
		<path fill="#585A5E" d="M240.99,345.808v-0.828h4.608v0.828h-1.836v4.698h-0.937v-4.698H240.99z"/>
		<path fill="#585A5E" d="M250.908,345.695c0.48,0.537,0.721,1.22,0.721,2.048s-0.24,1.511-0.721,2.047
			c-0.48,0.537-1.092,0.806-1.836,0.806s-1.354-0.269-1.832-0.806c-0.477-0.536-0.715-1.219-0.715-2.047s0.238-1.511,0.715-2.048
			c0.478-0.537,1.088-0.806,1.832-0.806S250.428,345.158,250.908,345.695z M250.238,349.191c0.297-0.378,0.445-0.86,0.445-1.448
			s-0.148-1.071-0.445-1.449s-0.686-0.567-1.166-0.567s-0.867,0.188-1.16,0.562c-0.295,0.375-0.441,0.859-0.441,1.454
			c0,0.594,0.146,1.078,0.441,1.453c0.293,0.375,0.68,0.562,1.16,0.562S249.941,349.57,250.238,349.191z"/>
		<path fill="#585A5E" d="M254.787,348.265h-0.666v2.241h-0.936v-5.526h2.133c0.582,0,1.041,0.143,1.377,0.428
			s0.504,0.694,0.504,1.229c0,0.456-0.125,0.817-0.373,1.085c-0.25,0.267-0.596,0.437-1.04,0.508l1.603,2.277h-1.062
			L254.787,348.265z M254.121,345.79v1.691h1.18c0.306,0,0.544-0.076,0.715-0.229c0.171-0.152,0.257-0.358,0.257-0.616
			s-0.086-0.464-0.257-0.616c-0.171-0.153-0.409-0.229-0.715-0.229H254.121z"/>
	</g>
	<g>
		<path fill="#585A5E" d="M318.331,326.053c0.264,0.084,0.479,0.244,0.647,0.481c0.168,0.236,0.252,0.499,0.252,0.787
			c0,0.51-0.166,0.901-0.499,1.175c-0.333,0.272-0.79,0.409-1.372,0.409h-2.115v-5.526h1.935c0.588,0,1.047,0.13,1.377,0.388
			s0.495,0.63,0.495,1.115c0,0.288-0.067,0.537-0.203,0.747C318.713,325.84,318.541,325.98,318.331,326.053z M316.152,325.701h1.018
			c0.654,0,0.98-0.255,0.98-0.765c0-0.498-0.326-0.747-0.98-0.747h-1.018V325.701z M316.152,326.476v1.62h1.188
			c0.312,0,0.552-0.072,0.72-0.217c0.168-0.144,0.252-0.342,0.252-0.594s-0.084-0.45-0.252-0.594
			c-0.168-0.145-0.408-0.216-0.72-0.216H316.152z"/>
		<path fill="#585A5E" d="M322.381,323.379h0.9l2.123,5.526h-0.953l-0.567-1.53h-2.115l-0.567,1.53h-0.944L322.381,323.379z
			 M322.822,324.522l-0.757,2.043h1.513L322.822,324.522z"/>
		<path fill="#585A5E" d="M326.826,328.905v-5.526h0.937v4.689h2.655v0.837H326.826z"/>
		<path fill="#585A5E" d="M332.002,328.905v-5.526h0.936v4.689h2.655v0.837H332.002z"/>
		<path fill="#585A5E" d="M337.176,323.379h3.609v0.828h-2.691v1.458h2.439v0.819h-2.439v1.584h2.691v0.837h-3.609V323.379z"/>
		<path fill="#585A5E" d="M344.034,326.664h-0.666v2.241h-0.937v-5.526h2.134c0.582,0,1.041,0.143,1.377,0.428
			s0.504,0.694,0.504,1.229c0,0.456-0.124,0.817-0.374,1.085c-0.248,0.267-0.596,0.437-1.039,0.508l1.602,2.277h-1.062
			L344.034,326.664z M343.368,324.189v1.691h1.179c0.307,0,0.545-0.076,0.716-0.229c0.171-0.152,0.257-0.358,0.257-0.616
			s-0.086-0.464-0.257-0.616c-0.171-0.153-0.409-0.229-0.716-0.229H343.368z"/>
		<path fill="#585A5E" d="M348.993,323.379v5.526h-0.937v-5.526H348.993z"/>
		<path fill="#585A5E" d="M355.293,323.379v5.526h-0.72l-2.825-4.023v4.023h-0.9v-5.526h0.882l2.664,3.834v-3.834H355.293z"/>
		<path fill="#585A5E" d="M358.84,323.379h0.899l2.124,5.526h-0.954l-0.567-1.53h-2.115l-0.566,1.53h-0.945L358.84,323.379z
			 M359.28,324.522l-0.757,2.043h1.513L359.28,324.522z"/>
	</g>
	<g>
		<path fill="#585A5E" d="M319.564,334.18v5.526h-0.936v-5.526H319.564z"/>
		<path fill="#585A5E" d="M321.418,339.706v-5.526h1.863c0.816,0,1.467,0.251,1.953,0.752s0.729,1.172,0.729,2.012
			s-0.243,1.511-0.729,2.011c-0.486,0.502-1.137,0.752-1.953,0.752H321.418z M322.354,338.869h0.892
			c0.569,0,1.009-0.171,1.318-0.513c0.309-0.343,0.463-0.813,0.463-1.413c0-0.601-0.154-1.072-0.463-1.418
			c-0.31-0.345-0.749-0.518-1.318-0.518h-0.892V338.869z"/>
		<path fill="#585A5E" d="M327.52,334.18h3.609v0.828h-2.691v1.458h2.439v0.819h-2.439v1.584h2.691v0.837h-3.609V334.18z"/>
		<path fill="#585A5E" d="M337.223,334.18v5.526h-0.721l-2.825-4.023v4.023h-0.9v-5.526h0.882l2.664,3.834v-3.834H337.223z"/>
		<path fill="#585A5E" d="M338.734,335.008v-0.828h4.607v0.828h-1.836v4.698h-0.936v-4.698H338.734z"/>
		<path fill="#585A5E" d="M345.79,334.18v5.526h-0.937v-5.526H345.79z"/>
		<path fill="#585A5E" d="M347.303,335.008v-0.828h4.607v0.828h-1.836v4.698h-0.936v-4.698H347.303z"/>
		<path fill="#585A5E" d="M355.447,336.655l1.458-2.476h0.989l-2.006,3.321v2.205h-0.928v-2.205l-1.998-3.321h1.018L355.447,336.655
			z"/>
	</g>
	<g>
		<path fill="#585A5E" d="M325.193,347.653c0.264,0.084,0.48,0.244,0.648,0.481c0.168,0.236,0.252,0.499,0.252,0.787
			c0,0.51-0.166,0.901-0.5,1.175c-0.332,0.272-0.79,0.409-1.372,0.409h-2.115v-5.526h1.935c0.588,0,1.047,0.13,1.377,0.388
			s0.496,0.63,0.496,1.115c0,0.288-0.068,0.537-0.203,0.747C325.576,347.44,325.404,347.581,325.193,347.653z M323.016,347.302
			h1.018c0.653,0,0.98-0.255,0.98-0.765c0-0.498-0.327-0.747-0.98-0.747h-1.018V347.302z M323.016,348.076v1.62h1.188
			c0.312,0,0.553-0.072,0.721-0.217c0.168-0.144,0.252-0.342,0.252-0.594s-0.084-0.45-0.252-0.594
			c-0.168-0.145-0.408-0.216-0.721-0.216H323.016z"/>
		<path fill="#585A5E" d="M329.289,348.265h-0.666v2.241h-0.937v-5.526h2.134c0.582,0,1.041,0.143,1.377,0.428
			s0.504,0.694,0.504,1.229c0,0.456-0.125,0.817-0.374,1.085c-0.249,0.267-0.596,0.437-1.04,0.508l1.603,2.277h-1.062
			L329.289,348.265z M328.623,345.79v1.691h1.179c0.306,0,0.544-0.076,0.716-0.229c0.17-0.152,0.256-0.358,0.256-0.616
			s-0.086-0.464-0.256-0.616c-0.172-0.153-0.41-0.229-0.716-0.229H328.623z"/>
		<path fill="#585A5E" d="M337.398,345.695c0.479,0.537,0.719,1.22,0.719,2.048s-0.24,1.511-0.719,2.047
			c-0.48,0.537-1.093,0.806-1.837,0.806c-0.743,0-1.354-0.269-1.831-0.806c-0.477-0.536-0.716-1.219-0.716-2.047
			s0.239-1.511,0.716-2.048s1.088-0.806,1.831-0.806C336.306,344.89,336.918,345.158,337.398,345.695z M336.727,349.191
			c0.298-0.378,0.446-0.86,0.446-1.448s-0.148-1.071-0.446-1.449c-0.297-0.378-0.686-0.567-1.165-0.567s-0.866,0.188-1.161,0.562
			c-0.294,0.375-0.441,0.859-0.441,1.454c0,0.594,0.147,1.078,0.441,1.453c0.295,0.375,0.682,0.562,1.161,0.562
			S336.43,349.57,336.727,349.191z"/>
		<path fill="#585A5E" d="M340.61,344.979v2.646l2.295-2.646h1.179l-2.231,2.512l2.313,3.015h-1.17l-1.818-2.367l-0.567,0.648v1.719
			h-0.937v-5.526H340.61z"/>
		<path fill="#585A5E" d="M345.542,344.979h3.609v0.828h-2.691v1.458h2.439v0.819h-2.439v1.584h2.691v0.837h-3.609V344.979z"/>
		<path fill="#585A5E" d="M352.4,348.265h-0.666v2.241h-0.937v-5.526h2.134c0.582,0,1.041,0.143,1.377,0.428
			s0.504,0.694,0.504,1.229c0,0.456-0.125,0.817-0.374,1.085c-0.249,0.267-0.596,0.437-1.04,0.508l1.603,2.277h-1.062L352.4,348.265
			z M351.734,345.79v1.691h1.179c0.306,0,0.544-0.076,0.716-0.229c0.17-0.152,0.256-0.358,0.256-0.616s-0.086-0.464-0.256-0.616
			c-0.172-0.153-0.41-0.229-0.716-0.229H351.734z"/>
	</g>
</g>
<g>
	<path fill="#FFFFFF" d="M255.944,428.023c-3.786,0-7.201,1.568-9.646,4.086c-2.443-2.518-5.858-4.086-9.644-4.086
		c-0.089,0-0.174,0.012-0.263,0.014c-0.09-0.002-0.178-0.014-0.268-0.014c-3.656,0-6.956,1.473-9.38,3.838
		c-2.425-2.365-5.725-3.838-9.38-3.838c-0.091,0-0.178,0.012-0.269,0.014c-0.089-0.002-0.173-0.014-0.262-0.014
		c-3.786,0-7.2,1.568-9.646,4.086c-2.444-2.518-5.858-4.086-9.645-4.086c-7.43,0-13.453,6.021-13.453,13.453
		c0,7.43,6.023,13.451,13.453,13.451c3.786,0,7.2-1.568,9.645-4.086c2.445,2.518,5.859,4.086,9.646,4.086
		c0.089,0,0.173-0.012,0.262-0.012c0.091,0.002,0.178,0.012,0.269,0.012c3.655,0,6.955-1.471,9.38-3.838
		c2.424,2.367,5.724,3.838,9.38,3.838c0.09,0,0.178-0.01,0.268-0.012c0.089,0,0.174,0.012,0.263,0.012
		c3.785,0,7.2-1.568,9.644-4.086c2.445,2.518,5.86,4.086,9.646,4.086c7.429,0,13.452-6.021,13.452-13.451
		C269.396,434.045,263.373,428.023,255.944,428.023"/>
	<g>
		<path fill="none" stroke="#585A5E" stroke-miterlimit="10" d="M255.943,428.023c-3.785,0-7.199,1.568-9.645,4.086
			c-2.445-2.518-5.859-4.086-9.645-4.086c-0.088,0-0.174,0.012-0.262,0.014c-0.09-0.002-0.178-0.014-0.27-0.014
			c-3.654,0-6.953,1.471-9.379,3.838c-2.424-2.367-5.725-3.838-9.381-3.838c-0.09,0-0.178,0.012-0.268,0.014
			c-0.088-0.002-0.172-0.014-0.26-0.014c-3.787,0-7.203,1.568-9.646,4.086c-2.445-2.518-5.859-4.086-9.645-4.086
			c-7.432,0-13.453,6.021-13.453,13.451s6.021,13.453,13.453,13.453c3.785,0,7.199-1.568,9.645-4.086
			c2.443,2.518,5.859,4.086,9.646,4.086c0.088,0,0.172-0.012,0.26-0.014c0.09,0.002,0.178,0.014,0.268,0.014
			c3.656,0,6.957-1.473,9.381-3.838c2.426,2.365,5.725,3.838,9.379,3.838c0.092,0,0.18-0.012,0.27-0.014
			c0.088,0.002,0.174,0.014,0.262,0.014c3.785,0,7.199-1.568,9.645-4.086c2.445,2.518,5.859,4.086,9.645,4.086
			c7.43,0,13.453-6.023,13.453-13.453S263.373,428.023,255.943,428.023z"/>
		<g>
			<path fill="#585A5E" d="M199.845,438.285h4.01v0.92h-2.989v1.62h2.709v0.909h-2.709v1.761h2.989v0.93h-4.01V438.285z"/>
			<path fill="#585A5E" d="M210.625,438.285v6.14h-0.801l-3.14-4.47v4.47h-1v-6.14h0.979l2.961,4.26v-4.26H210.625z"/>
			<path fill="#585A5E" d="M212.685,444.425v-6.14h2.069c0.907,0,1.631,0.278,2.17,0.835c0.541,0.557,0.811,1.302,0.811,2.234
				c0,0.934-0.27,1.679-0.811,2.235c-0.539,0.557-1.263,0.835-2.17,0.835H212.685z M213.725,443.495h0.99
				c0.633,0,1.121-0.19,1.465-0.57c0.343-0.38,0.515-0.903,0.515-1.57c0-0.666-0.172-1.191-0.515-1.574
				c-0.344-0.384-0.832-0.575-1.465-0.575h-0.99V443.495z"/>
			<path fill="#585A5E" d="M221.834,442.135h-1.33v2.29h-1.039v-6.14h2.369c0.646,0,1.158,0.166,1.535,0.5
				c0.377,0.333,0.564,0.81,0.564,1.43c0,0.613-0.188,1.087-0.564,1.42S222.48,442.135,221.834,442.135z M222.904,440.215
				c0-0.313-0.094-0.563-0.28-0.75s-0.456-0.28-0.81-0.28h-1.311v2.05h1.311c0.346,0,0.615-0.093,0.805-0.279
				S222.904,440.521,222.904,440.215z"/>
			<path fill="#585A5E" d="M230.154,439.08c0.533,0.597,0.8,1.354,0.8,2.274s-0.267,1.679-0.8,2.275s-1.214,0.895-2.04,0.895
				c-0.827,0-1.505-0.298-2.035-0.895s-0.795-1.355-0.795-2.275s0.265-1.678,0.795-2.274s1.208-0.896,2.035-0.896
				C228.94,438.185,229.621,438.483,230.154,439.08z M229.409,442.965c0.33-0.42,0.495-0.957,0.495-1.61s-0.165-1.189-0.495-1.609
				s-0.762-0.63-1.295-0.63c-0.534,0-0.964,0.208-1.29,0.625c-0.326,0.416-0.49,0.954-0.49,1.614s0.164,1.199,0.49,1.615
				c0.326,0.417,0.756,0.625,1.29,0.625C228.647,443.595,229.079,443.385,229.409,442.965z"/>
			<path fill="#585A5E" d="M233.725,438.285v6.14h-1.04v-6.14H233.725z"/>
			<path fill="#585A5E" d="M240.715,438.285v6.14h-0.801l-3.14-4.47v4.47h-1v-6.14h0.979l2.961,4.26v-4.26H240.715z"/>
			<path fill="#585A5E" d="M242.394,439.205v-0.92h5.12v0.92h-2.04v5.22h-1.04v-5.22H242.394z"/>
			<path fill="#585A5E" d="M248.674,442.725h1.06c0.193,0.613,0.657,0.92,1.39,0.92c0.36,0,0.648-0.081,0.865-0.245
				c0.217-0.163,0.325-0.385,0.325-0.665c0-0.22-0.068-0.395-0.205-0.524s-0.364-0.231-0.685-0.305l-1.04-0.25
				c-1.021-0.24-1.53-0.79-1.53-1.65c0-0.526,0.195-0.962,0.585-1.305c0.39-0.344,0.892-0.516,1.505-0.516
				c0.646,0,1.168,0.152,1.565,0.455c0.396,0.304,0.651,0.719,0.765,1.245h-1.04c-0.193-0.547-0.62-0.82-1.28-0.82
				c-0.333,0-0.602,0.079-0.805,0.235s-0.305,0.361-0.305,0.615c0,0.406,0.27,0.673,0.811,0.8l1.069,0.25
				c0.5,0.113,0.89,0.313,1.17,0.6c0.28,0.287,0.42,0.653,0.42,1.101c0,0.566-0.203,1.019-0.61,1.354
				c-0.406,0.337-0.934,0.505-1.58,0.505c-0.652,0-1.197-0.158-1.635-0.475C249.052,443.733,248.78,443.292,248.674,442.725z"/>
		</g>
	</g>
</g>
<g>
	<line fill="none" stroke="#585A5E" stroke-miterlimit="10" x1="226.808" y1="122.362" x2="226.808" y2="134.979"/>
	<line fill="none" stroke="#585A5E" stroke-miterlimit="10" x1="216.458" y1="110.604" x2="216.458" y2="146.237"/>
	<line fill="none" stroke="#585A5E" stroke-miterlimit="10" x1="206.173" y1="110.604" x2="206.173" y2="146.237"/>
	<line fill="none" stroke="#585A5E" stroke-miterlimit="10" x1="247.315" y1="110.604" x2="247.315" y2="146.237"/>
	<line fill="none" stroke="#585A5E" stroke-miterlimit="10" x1="237.03" y1="110.604" x2="237.03" y2="146.237"/>
	<circle fill="none" stroke="#585A5E" stroke-miterlimit="10" cx="226.808" cy="116.734" r="5.628"/>
	<circle fill="none" stroke="#585A5E" stroke-miterlimit="10" cx="226.808" cy="140.608" r="5.628"/>
</g>
<rect x="35.429" y="206.496" fill="#FFFFFF" width="175" height="80"/>
<g>
	<path fill="#585556" d="M54.589,223.55c0.353,0.112,0.64,0.326,0.864,0.642c0.224,0.316,0.336,0.666,0.336,1.05
		c0,0.681-0.223,1.202-0.666,1.566c-0.444,0.364-1.055,0.546-1.83,0.546h-2.82v-7.368h2.58c0.784,0,1.396,0.172,1.836,0.517
		c0.439,0.344,0.66,0.84,0.66,1.487c0,0.384-0.09,0.717-0.27,0.996C55.099,223.266,54.869,223.453,54.589,223.55z M51.685,223.081
		h1.356c0.871,0,1.308-0.34,1.308-1.02c0-0.664-0.437-0.996-1.308-0.996h-1.356V223.081z M51.685,224.113v2.16h1.584
		c0.416,0,0.736-0.096,0.96-0.288c0.225-0.191,0.336-0.456,0.336-0.792s-0.111-0.6-0.336-0.792c-0.224-0.191-0.544-0.288-0.96-0.288
		H51.685z"/>
	<path fill="#585556" d="M60.948,219.985h1.2l2.832,7.368h-1.271l-0.756-2.04h-2.82l-0.756,2.04h-1.26L60.948,219.985z
		 M61.537,221.51l-1.009,2.724h2.017L61.537,221.51z"/>
	<path fill="#585556" d="M67.836,227.354v-7.368h1.248v6.252h3.541v1.116H67.836z"/>
	<path fill="#585556" d="M75.696,227.354v-7.368h1.248v6.252h3.54v1.116H75.696z"/>
	<path fill="#585556" d="M83.557,219.985h4.812v1.104H84.78v1.943h3.252v1.093H84.78v2.111h3.588v1.116h-4.812V219.985z"/>
	<path fill="#585556" d="M93.66,224.365h-0.888v2.988h-1.248v-7.368h2.845c0.775,0,1.387,0.19,1.836,0.57
		c0.447,0.38,0.672,0.926,0.672,1.638c0,0.608-0.166,1.09-0.498,1.446c-0.332,0.355-0.795,0.582-1.387,0.678l2.137,3.036h-1.416
		L93.66,224.365z M92.772,221.065v2.256h1.572c0.407,0,0.726-0.102,0.954-0.306c0.228-0.204,0.342-0.479,0.342-0.822
		s-0.114-0.618-0.342-0.822c-0.229-0.203-0.547-0.306-0.954-0.306H92.772z"/>
	<path fill="#585556" d="M101.232,219.985v7.368h-1.248v-7.368H101.232z"/>
	<path fill="#585556" d="M110.592,219.985v7.368h-0.959l-3.769-5.364v5.364h-1.2v-7.368h1.176l3.553,5.112v-5.112H110.592z"/>
	<path fill="#585556" d="M116.279,219.985h1.201l2.832,7.368h-1.272l-0.756-2.04h-2.82l-0.756,2.04h-1.26L116.279,219.985z
		 M116.868,221.51l-1.009,2.724h2.017L116.868,221.51z"/>
</g>
<g>
	<path fill="#585556" d="M49.896,239.714h1.272c0.231,0.736,0.788,1.104,1.668,1.104c0.432,0,0.778-0.099,1.038-0.295
		c0.26-0.195,0.39-0.462,0.39-0.798c0-0.264-0.082-0.474-0.246-0.63s-0.438-0.277-0.821-0.366l-1.248-0.3
		c-1.225-0.288-1.836-0.948-1.836-1.979c0-0.632,0.233-1.154,0.701-1.566c0.469-0.412,1.07-0.618,1.807-0.618
		c0.775,0,1.401,0.183,1.877,0.546c0.477,0.364,0.783,0.862,0.918,1.494h-1.247c-0.232-0.655-0.744-0.983-1.536-0.983
		c-0.4,0-0.723,0.094-0.967,0.281c-0.243,0.188-0.365,0.435-0.365,0.738c0,0.488,0.324,0.809,0.973,0.96l1.283,0.3
		c0.6,0.137,1.068,0.377,1.404,0.721s0.504,0.784,0.504,1.319c0,0.681-0.244,1.223-0.732,1.626
		c-0.488,0.404-1.119,0.606-1.896,0.606c-0.784,0-1.438-0.19-1.962-0.57C50.351,240.924,50.024,240.394,49.896,239.714z"/>
	<path fill="#585556" d="M58.5,234.386h4.812v1.104h-3.588v1.943h3.252v1.093h-3.252v2.111h3.588v1.116H58.5V234.386z"/>
	<path fill="#585556" d="M68.605,238.766h-0.889v2.988h-1.248v-7.368h2.844c0.776,0,1.389,0.19,1.836,0.57
		c0.448,0.38,0.672,0.926,0.672,1.638c0,0.608-0.166,1.09-0.498,1.446c-0.332,0.355-0.793,0.582-1.385,0.678l2.135,3.036h-1.416
		L68.605,238.766z M67.717,235.466v2.256h1.572c0.408,0,0.726-0.102,0.953-0.306c0.229-0.204,0.343-0.479,0.343-0.822
		s-0.114-0.618-0.343-0.822c-0.228-0.203-0.545-0.306-0.953-0.306H67.717z"/>
	<path fill="#585556" d="M78.205,241.754h-1.188l-2.784-7.368h1.309l2.088,5.748l2.088-5.748h1.271L78.205,241.754z"/>
	<path fill="#585556" d="M85.092,234.386v7.368h-1.248v-7.368H85.092z"/>
	<path fill="#585556" d="M89.082,240.812c-0.636-0.708-0.953-1.621-0.953-2.741s0.317-2.034,0.953-2.742
		c0.637-0.708,1.435-1.062,2.395-1.062c0.816,0,1.484,0.219,2.004,0.654c0.52,0.437,0.852,1.03,0.996,1.782h-1.225
		c-0.319-0.872-0.912-1.309-1.775-1.309c-0.641,0-1.148,0.25-1.523,0.75c-0.377,0.5-0.564,1.143-0.564,1.927
		s0.188,1.426,0.564,1.926c0.375,0.5,0.883,0.75,1.523,0.75c0.863,0,1.456-0.44,1.775-1.32h1.225
		c-0.145,0.76-0.477,1.358-0.996,1.794c-0.52,0.437-1.188,0.654-2.004,0.654C90.517,241.874,89.719,241.52,89.082,240.812z"/>
	<path fill="#585556" d="M97.488,234.386h4.812v1.104h-3.588v1.943h3.252v1.093h-3.252v2.111h3.588v1.116h-4.812V234.386z"/>
</g>
<rect x="230.943" y="231.608" fill="none" stroke="#A7A8AB" stroke-width="0.5743" stroke-miterlimit="10" stroke-dasharray="2.7133,2.7133" width="199.033" height="54.608"/>
<g>
	<path fill="#585556" d="M283.305,271.192c0.294,0.094,0.533,0.271,0.721,0.535c0.187,0.264,0.279,0.555,0.279,0.875
		c0,0.566-0.185,1.002-0.555,1.305c-0.369,0.304-0.878,0.455-1.525,0.455h-2.35v-6.14h2.15c0.653,0,1.163,0.144,1.529,0.43
		c0.367,0.287,0.551,0.7,0.551,1.24c0,0.319-0.075,0.597-0.225,0.83C283.73,270.956,283.539,271.112,283.305,271.192z
		 M280.885,270.803h1.131c0.727,0,1.09-0.284,1.09-0.851c0-0.553-0.363-0.83-1.09-0.83h-1.131V270.803z M280.885,271.662v1.8h1.32
		c0.347,0,0.613-0.08,0.801-0.239c0.186-0.16,0.279-0.38,0.279-0.66s-0.094-0.5-0.279-0.66c-0.188-0.16-0.454-0.24-0.801-0.24
		H280.885z"/>
	<path fill="#585556" d="M288.615,268.223h1l2.359,6.14h-1.06l-0.63-1.7h-2.35l-0.631,1.7h-1.049L288.615,268.223z M289.105,269.492
		l-0.84,2.271h1.68L289.105,269.492z"/>
	<path fill="#585556" d="M294.355,274.362v-6.14h1.04v5.21h2.95v0.93H294.355z"/>
	<path fill="#585556" d="M300.905,274.362v-6.14h1.04v5.21h2.949v0.93H300.905z"/>
	<path fill="#585556" d="M307.455,268.223h4.01v0.92h-2.99v1.62h2.711v0.909h-2.711v1.761h2.99v0.93h-4.01V268.223z"/>
	<path fill="#585556" d="M315.875,271.872h-0.74v2.49h-1.039v-6.14h2.369c0.646,0,1.156,0.158,1.53,0.475
		c0.373,0.316,0.56,0.771,0.56,1.365c0,0.507-0.139,0.908-0.414,1.205c-0.277,0.297-0.662,0.484-1.156,0.564l1.781,2.53h-1.181
		L315.875,271.872z M315.135,269.122v1.88h1.311c0.34,0,0.604-0.085,0.795-0.255c0.189-0.17,0.285-0.398,0.285-0.685
		c0-0.287-0.096-0.516-0.285-0.686c-0.19-0.17-0.455-0.255-0.795-0.255H315.135z"/>
	<path fill="#585556" d="M322.186,268.223v6.14h-1.041v-6.14H322.186z"/>
	<path fill="#585556" d="M329.984,268.223v6.14h-0.8l-3.14-4.47v4.47h-1v-6.14h0.98l2.959,4.26v-4.26H329.984z"/>
	<path fill="#585556" d="M334.725,268.223h1l2.359,6.14h-1.06l-0.63-1.7h-2.35l-0.631,1.7h-1.049L334.725,268.223z M335.215,269.492
		l-0.84,2.271h1.68L335.215,269.492z"/>
	<path fill="#585556" d="M347.604,271.192c0.294,0.094,0.533,0.271,0.72,0.535c0.188,0.264,0.28,0.555,0.28,0.875
		c0,0.566-0.185,1.002-0.555,1.305c-0.37,0.304-0.878,0.455-1.525,0.455h-2.35v-6.14h2.149c0.654,0,1.164,0.144,1.53,0.43
		c0.366,0.287,0.55,0.7,0.55,1.24c0,0.319-0.074,0.597-0.225,0.83S347.838,271.112,347.604,271.192z M345.185,270.803h1.13
		c0.727,0,1.09-0.284,1.09-0.851c0-0.553-0.363-0.83-1.09-0.83h-1.13V270.803z M345.185,271.662v1.8h1.319
		c0.348,0,0.613-0.08,0.801-0.239c0.187-0.16,0.279-0.38,0.279-0.66s-0.093-0.5-0.279-0.66c-0.188-0.16-0.453-0.24-0.801-0.24
		H345.185z"/>
	<path fill="#585556" d="M352.965,271.872h-0.74v2.49h-1.04v-6.14h2.37c0.646,0,1.156,0.158,1.529,0.475s0.561,0.771,0.561,1.365
		c0,0.507-0.139,0.908-0.415,1.205s-0.661,0.484-1.155,0.564l1.78,2.53h-1.181L352.965,271.872z M352.225,269.122v1.88h1.31
		c0.341,0,0.604-0.085,0.796-0.255c0.189-0.17,0.284-0.398,0.284-0.685c0-0.287-0.095-0.516-0.284-0.686
		c-0.191-0.17-0.455-0.255-0.796-0.255H352.225z"/>
	<path fill="#585556" d="M359.275,268.223v6.14h-1.041v-6.14H359.275z"/>
	<path fill="#585556" d="M362.135,274.362v-6.14h2.07c0.906,0,1.629,0.278,2.17,0.835c0.539,0.557,0.81,1.302,0.81,2.234
		c0,0.934-0.271,1.679-0.81,2.235c-0.541,0.557-1.264,0.835-2.17,0.835H362.135z M363.175,273.433h0.989
		c0.634,0,1.122-0.19,1.465-0.57c0.344-0.38,0.516-0.903,0.516-1.57c0-0.666-0.172-1.191-0.516-1.574
		c-0.343-0.384-0.831-0.575-1.465-0.575h-0.989V273.433z"/>
	<path fill="#585556" d="M373.944,272.082h-1.34v-0.89h2.33v0.479c0,0.841-0.245,1.516-0.735,2.025s-1.115,0.765-1.875,0.765
		c-0.833,0-1.523-0.295-2.07-0.885s-0.819-1.352-0.819-2.285c0-0.933,0.271-1.694,0.815-2.285c0.543-0.59,1.221-0.885,2.035-0.885
		c0.686,0,1.248,0.181,1.684,0.54c0.438,0.36,0.716,0.854,0.836,1.48h-1.04c-0.134-0.354-0.315-0.622-0.546-0.806
		c-0.229-0.183-0.541-0.274-0.934-0.274c-0.541,0-0.976,0.208-1.306,0.625s-0.495,0.951-0.495,1.604c0,0.66,0.166,1.2,0.5,1.62
		s0.78,0.63,1.34,0.63c0.453,0,0.82-0.131,1.1-0.395C373.705,272.884,373.878,272.529,373.944,272.082z"/>
	<path fill="#585556" d="M377.465,268.223h4.01v0.92h-2.99v1.62h2.71v0.909h-2.71v1.761h2.99v0.93h-4.01V268.223z"/>
</g>
<rect x="243.06" y="206.496" fill="#FFFFFF" width="175" height="50"/>
<g>
	<path fill="#585556" d="M286.874,235.036v-7.368h1.248v6.252h3.54v1.116H286.874z"/>
	<path fill="#585556" d="M294.734,227.668h4.812v1.104h-3.588v1.943h3.252v1.093h-3.252v2.111h3.588v1.116h-4.812V227.668z"/>
	<path fill="#585556" d="M307.718,232.3h-1.608v-1.067h2.797v0.576c0,1.008-0.295,1.817-0.883,2.43s-1.338,0.918-2.25,0.918
		c-1,0-1.828-0.354-2.484-1.062c-0.655-0.708-0.983-1.621-0.983-2.741s0.326-2.034,0.978-2.742c0.652-0.708,1.467-1.062,2.442-1.062
		c0.824,0,1.498,0.216,2.022,0.648c0.523,0.432,0.857,1.024,1.002,1.775h-1.248c-0.16-0.424-0.379-0.745-0.654-0.966
		c-0.275-0.22-0.65-0.33-1.122-0.33c-0.647,0-1.17,0.25-1.565,0.75c-0.396,0.5-0.594,1.143-0.594,1.927
		c0,0.792,0.199,1.439,0.6,1.943s0.936,0.756,1.607,0.756c0.545,0,0.984-0.157,1.32-0.474S307.638,232.836,307.718,232.3z"/>
	<path fill="#585556" d="M313.922,227.668h1.199l2.832,7.368h-1.271l-0.756-2.04h-2.82l-0.756,2.04h-1.26L313.922,227.668z
		 M314.51,229.192l-1.008,2.724h2.016L314.51,229.192z"/>
	<path fill="#585556" d="M321.008,234.094c-0.637-0.708-0.954-1.621-0.954-2.741s0.317-2.034,0.954-2.742
		c0.636-0.708,1.434-1.062,2.395-1.062c0.815,0,1.483,0.219,2.004,0.654c0.52,0.437,0.852,1.03,0.996,1.782h-1.225
		c-0.32-0.872-0.912-1.309-1.775-1.309c-0.641,0-1.148,0.25-1.524,0.75s-0.563,1.143-0.563,1.927s0.188,1.426,0.563,1.926
		s0.884,0.75,1.524,0.75c0.863,0,1.455-0.44,1.775-1.32h1.225c-0.145,0.76-0.477,1.358-0.996,1.794
		c-0.521,0.437-1.188,0.654-2.004,0.654C322.441,235.156,321.644,234.802,321.008,234.094z"/>
	<path fill="#585556" d="M331.73,230.968l1.943-3.3h1.32l-2.676,4.428v2.94h-1.236v-2.94l-2.664-4.428h1.355L331.73,230.968z"/>
	<path fill="#585556" d="M342.799,234.094c-0.636-0.708-0.953-1.621-0.953-2.741s0.317-2.034,0.953-2.742
		c0.637-0.708,1.435-1.062,2.395-1.062c0.816,0,1.484,0.219,2.004,0.654c0.52,0.437,0.852,1.03,0.996,1.782h-1.225
		c-0.319-0.872-0.912-1.309-1.775-1.309c-0.641,0-1.148,0.25-1.523,0.75c-0.377,0.5-0.564,1.143-0.564,1.927
		s0.188,1.426,0.564,1.926c0.375,0.5,0.883,0.75,1.523,0.75c0.863,0,1.456-0.44,1.775-1.32h1.225
		c-0.145,0.76-0.477,1.358-0.996,1.794c-0.52,0.437-1.188,0.654-2.004,0.654C344.233,235.156,343.436,234.802,342.799,234.094z"/>
	<path fill="#585556" d="M356.642,228.622c0.64,0.716,0.96,1.626,0.96,2.73c0,1.104-0.32,2.014-0.96,2.729s-1.456,1.074-2.448,1.074
		s-1.807-0.358-2.441-1.074c-0.637-0.716-0.955-1.626-0.955-2.729c0-1.104,0.318-2.015,0.955-2.73
		c0.635-0.716,1.449-1.074,2.441-1.074S356.002,227.906,356.642,228.622z M355.748,233.284c0.396-0.504,0.594-1.147,0.594-1.932
		s-0.198-1.429-0.594-1.933c-0.396-0.504-0.914-0.756-1.555-0.756s-1.156,0.25-1.548,0.75s-0.588,1.146-0.588,1.938
		s0.196,1.438,0.588,1.938s0.907,0.75,1.548,0.75S355.352,233.788,355.748,233.284z"/>
	<path fill="#585556" d="M360.625,235.036v-7.368h2.484c1.088,0,1.955,0.334,2.604,1.002s0.973,1.562,0.973,2.683
		s-0.324,2.014-0.973,2.682s-1.516,1.002-2.604,1.002H360.625z M361.873,233.92h1.188c0.76,0,1.346-0.228,1.758-0.684
		s0.619-1.084,0.619-1.884s-0.207-1.431-0.619-1.891s-0.998-0.689-1.758-0.689h-1.188V233.92z"/>
	<path fill="#585556" d="M369.709,227.668h4.812v1.104h-3.588v1.943h3.252v1.093h-3.252v2.111h3.588v1.116h-4.812V227.668z"/>
</g>
<polyline fill="none" stroke="#585A5E" stroke-miterlimit="10" points="166.367,195.906 166.367,184.344 330.56,184.344 
	330.56,196.263 "/>
<polygon fill="#585A5E" points="168.86,195.178 166.367,199.496 163.874,195.178 "/>
<polygon fill="#585A5E" points="328.066,195.178 330.56,199.496 333.053,195.178 "/>
<line fill="none" stroke="#585A5E" stroke-miterlimit="10" x1="166.367" y1="265.773" x2="166.367" y2="299.549"/>
<polygon fill="#585A5E" points="163.874,298.545 166.366,302.861 168.86,298.545 "/>
<line fill="none" stroke="#585A5E" stroke-miterlimit="10" x1="330.56" y1="285.734" x2="330.56" y2="300.738"/>
<polygon fill="#585A5E" points="328.066,298.545 330.56,302.861 333.053,298.545 "/>
<g>
	<polyline fill="none" stroke="#585A5E" stroke-miterlimit="10" points="163.276,226.971 155.093,226.971 143.819,246.496 
		155.093,266.021 177.64,266.021 188.913,246.496 177.64,226.971 169.456,226.971 	"/>
	<circle fill="none" stroke="#585A5E" stroke-miterlimit="10" cx="166.366" cy="246.496" r="8.761"/>
</g>
</svg>
