<?xml version="1.0" encoding="utf-8"?>
<!-- Generator: Adobe Illustrator 16.0.4, SVG Export Plug-In . SVG Version: 6.00 Build 0)  -->
<!DOCTYPE svg PUBLIC "-//W3C//DTD SVG 1.1//EN" "http://www.w3.org/Graphics/SVG/1.1/DTD/svg11.dtd">
<svg version="1.1" id="Layer_1" xmlns="http://www.w3.org/2000/svg" xmlns:xlink="http://www.w3.org/1999/xlink" x="0px" y="0px"
	 width="474px" height="497px" viewBox="-11.168 0 474 497" enable-background="new -11.168 0 474 497" xml:space="preserve">
<rect x="-11.168" y="-0.312" fill="#F5F6F6" width="474" height="497.625"/>
<rect x="-29.492" y="-12" fill="#F5F6F6" width="511" height="521"/>
<g>
	<rect x="-5.668" y="25" fill="#FFFFFF" width="463" height="35"/>
	<g>
		<g>
			<path fill="#55595E" d="M181.276,43.282h1.378c0.251,0.797,0.854,1.196,1.807,1.196c0.468,0,0.843-0.106,1.125-0.318
				s0.423-0.5,0.423-0.864c0-0.286-0.089-0.514-0.267-0.683c-0.178-0.169-0.475-0.301-0.891-0.396l-1.352-0.325
				c-1.326-0.312-1.989-1.027-1.989-2.145c0-0.685,0.253-1.25,0.76-1.696c0.507-0.446,1.159-0.669,1.957-0.669
				c0.841,0,1.519,0.197,2.035,0.591c0.516,0.395,0.847,0.934,0.995,1.619h-1.352c-0.251-0.71-0.806-1.066-1.664-1.066
				c-0.434,0-0.782,0.102-1.046,0.305c-0.265,0.204-0.397,0.47-0.397,0.8c0,0.528,0.351,0.875,1.053,1.04l1.391,0.325
				c0.65,0.147,1.157,0.408,1.521,0.78c0.364,0.373,0.546,0.849,0.546,1.43c0,0.737-0.265,1.324-0.793,1.762
				c-0.529,0.438-1.213,0.656-2.054,0.656c-0.849,0-1.558-0.206-2.125-0.617C181.769,44.593,181.415,44.019,181.276,43.282z"/>
			<path fill="#55595E" d="M189.297,37.51h5.213v1.196h-3.887v2.106h3.523v1.183h-3.523v2.288h3.887v1.209h-5.213V37.51z"/>
			<path fill="#55595E" d="M198.944,42.255h-0.962v3.237h-1.352V37.51h3.081c0.841,0,1.504,0.206,1.989,0.618
				s0.728,1.003,0.728,1.774c0,0.659-0.18,1.181-0.54,1.566c-0.36,0.386-0.86,0.63-1.501,0.734l2.314,3.289h-1.534L198.944,42.255z
				 M197.981,38.68v2.444h1.703c0.442,0,0.787-0.11,1.034-0.332c0.247-0.221,0.37-0.518,0.37-0.89s-0.123-0.669-0.37-0.891
				s-0.592-0.332-1.034-0.332H197.981z"/>
			<path fill="#55595E" d="M208.173,45.492h-1.287l-3.016-7.982h1.417l2.262,6.227l2.262-6.227h1.378L208.173,45.492z"/>
			<path fill="#55595E" d="M214.335,37.51v7.982h-1.352V37.51H214.335z"/>
			<path fill="#55595E" d="M217.357,44.471c-0.689-0.767-1.033-1.757-1.033-2.971c0-1.213,0.344-2.203,1.033-2.97
				c0.689-0.767,1.554-1.15,2.594-1.15c0.884,0,1.607,0.236,2.171,0.708c0.563,0.472,0.923,1.116,1.079,1.93h-1.326
				c-0.347-0.944-0.988-1.417-1.924-1.417c-0.693,0-1.244,0.271-1.651,0.812c-0.408,0.542-0.611,1.237-0.611,2.086
				c0,0.85,0.204,1.545,0.611,2.087c0.407,0.542,0.958,0.812,1.651,0.812c0.936,0,1.577-0.477,1.924-1.43h1.326
				c-0.156,0.823-0.516,1.471-1.079,1.943c-0.563,0.473-1.287,0.708-2.171,0.708C218.911,45.622,218.047,45.238,217.357,44.471z"/>
			<path fill="#55595E" d="M225.164,37.51h5.213v1.196h-3.887v2.106h3.523v1.183h-3.523v2.288h3.887v1.209h-5.213V37.51z"/>
			<path fill="#55595E" d="M236.019,45.492V37.51h1.353v6.773h3.834v1.209H236.019z"/>
			<path fill="#55595E" d="M249.136,38.543c0.693,0.776,1.04,1.762,1.04,2.958c0,1.196-0.347,2.182-1.04,2.958
				c-0.693,0.776-1.577,1.164-2.652,1.164s-1.956-0.388-2.646-1.164c-0.689-0.775-1.033-1.761-1.033-2.958
				c0-1.196,0.344-2.182,1.033-2.958c0.689-0.775,1.57-1.163,2.646-1.163S248.442,37.768,249.136,38.543z M248.167,43.594
				c0.429-0.546,0.644-1.244,0.644-2.093c0-0.849-0.215-1.547-0.644-2.093s-0.99-0.819-1.684-0.819s-1.253,0.271-1.677,0.812
				c-0.425,0.542-0.637,1.241-0.637,2.099c0,0.858,0.212,1.558,0.637,2.1c0.424,0.542,0.983,0.812,1.677,0.812
				S247.738,44.14,248.167,43.594z"/>
			<path fill="#55595E" d="M257.599,42.528h-1.741v-1.157h3.028v0.624c0,1.092-0.318,1.97-0.956,2.633
				c-0.637,0.663-1.449,0.994-2.438,0.994c-1.083,0-1.98-0.383-2.69-1.15c-0.711-0.767-1.065-1.757-1.065-2.971
				c0-1.213,0.353-2.203,1.059-2.97c0.707-0.767,1.588-1.15,2.646-1.15c0.893,0,1.622,0.234,2.189,0.702
				c0.568,0.468,0.93,1.11,1.086,1.924h-1.352c-0.174-0.459-0.41-0.808-0.709-1.047c-0.299-0.238-0.704-0.357-1.215-0.357
				c-0.703,0-1.268,0.271-1.697,0.812c-0.429,0.542-0.644,1.237-0.644,2.086c0,0.858,0.217,1.56,0.65,2.106
				c0.433,0.546,1.014,0.819,1.741,0.819c0.59,0,1.066-0.171,1.431-0.514C257.287,43.57,257.512,43.108,257.599,42.528z"/>
			<path fill="#55595E" d="M262.227,37.51v7.982h-1.352V37.51H262.227z"/>
			<path fill="#55595E" d="M265.248,44.471c-0.688-0.767-1.033-1.757-1.033-2.971c0-1.213,0.345-2.203,1.033-2.97
				c0.689-0.767,1.555-1.15,2.594-1.15c0.885,0,1.607,0.236,2.172,0.708c0.562,0.472,0.922,1.116,1.078,1.93h-1.326
				c-0.346-0.944-0.987-1.417-1.924-1.417c-0.693,0-1.243,0.271-1.65,0.812c-0.408,0.542-0.611,1.237-0.611,2.086
				c0,0.85,0.203,1.545,0.611,2.087c0.407,0.542,0.957,0.812,1.65,0.812c0.937,0,1.578-0.477,1.924-1.43h1.326
				c-0.156,0.823-0.516,1.471-1.078,1.943c-0.564,0.473-1.287,0.708-2.172,0.708C266.803,45.622,265.938,45.238,265.248,44.471z"/>
		</g>
	</g>
	<rect x="-5.668" y="70" fill="#41C4BF" width="463" height="358"/>
	<g>
		<g>
			<path fill="#F5F6F6" d="M166.644,85.403c0.381,0.122,0.693,0.354,0.936,0.696s0.364,0.721,0.364,1.137
				c0,0.737-0.241,1.302-0.722,1.697c-0.481,0.394-1.142,0.591-1.982,0.591h-3.055v-7.982h2.795c0.849,0,1.512,0.187,1.989,0.559
				s0.715,0.91,0.715,1.612c0,0.416-0.097,0.776-0.292,1.079C167.196,85.096,166.947,85.299,166.644,85.403z M163.498,84.896h1.469
				c0.944,0,1.417-0.368,1.417-1.105c0-0.719-0.473-1.079-1.417-1.079h-1.469V84.896z M163.498,86.015v2.34h1.716
				c0.451,0,0.797-0.104,1.04-0.312c0.242-0.208,0.364-0.494,0.364-0.858c0-0.364-0.122-0.65-0.364-0.858
				c-0.243-0.208-0.589-0.312-1.04-0.312H163.498z"/>
			<path fill="#F5F6F6" d="M172.442,81.542h1.3l3.068,7.982h-1.378l-0.819-2.21h-3.055l-0.819,2.21h-1.365L172.442,81.542z
				 M173.079,83.193l-1.092,2.951h2.184L173.079,83.193z"/>
			<path fill="#F5F6F6" d="M178.604,89.524v-7.982h1.352v6.773h3.835v1.209H178.604z"/>
			<path fill="#F5F6F6" d="M185.818,89.524v-7.982h1.352v6.773h3.835v1.209H185.818z"/>
			<path fill="#F5F6F6" d="M193.033,81.542h5.213v1.196h-3.887v2.106h3.523v1.183h-3.523v2.288h3.887v1.209h-5.213V81.542z"/>
			<path fill="#F5F6F6" d="M202.68,86.288h-0.962v3.237h-1.352v-7.982h3.081c0.841,0,1.504,0.206,1.989,0.618
				s0.728,1.003,0.728,1.774c0,0.659-0.18,1.181-0.54,1.566c-0.36,0.386-0.86,0.63-1.501,0.734l2.314,3.289h-1.534L202.68,86.288z
				 M201.717,82.712v2.444h1.703c0.442,0,0.787-0.11,1.034-0.332c0.247-0.221,0.37-0.518,0.37-0.89s-0.123-0.669-0.37-0.891
				s-0.592-0.332-1.034-0.332H201.717z"/>
			<path fill="#F5F6F6" d="M209.582,81.542v7.982h-1.352v-7.982H209.582z"/>
			<path fill="#F5F6F6" d="M218.422,81.542v7.982h-1.04l-4.082-5.811v5.811H212v-7.982h1.274l3.848,5.538v-5.538H218.422z"/>
			<path fill="#F5F6F6" d="M223.284,81.542h1.3l3.068,7.982h-1.378l-0.819-2.21H222.4l-0.819,2.21h-1.365L223.284,81.542z
				 M223.921,83.193l-1.092,2.951h2.184L223.921,83.193z"/>
			<path fill="#F5F6F6" d="M235.283,86.288h-0.963v3.237h-1.352v-7.982h3.081c0.841,0,1.504,0.206,1.989,0.618
				s0.729,1.003,0.729,1.774c0,0.659-0.181,1.181-0.54,1.566c-0.36,0.386-0.86,0.63-1.501,0.734l2.313,3.289h-1.534L235.283,86.288z
				 M234.32,82.712v2.444h1.703c0.442,0,0.787-0.11,1.034-0.332c0.247-0.221,0.37-0.518,0.37-0.89s-0.123-0.669-0.37-0.891
				s-0.592-0.332-1.034-0.332H234.32z"/>
			<path fill="#F5F6F6" d="M246.235,88.803c-0.577,0.568-1.354,0.852-2.333,0.852c-0.98,0-1.758-0.284-2.334-0.852
				c-0.576-0.567-0.865-1.389-0.865-2.463v-4.797h1.353v4.654c0,1.5,0.615,2.249,1.847,2.249c1.23,0,1.846-0.75,1.846-2.249v-4.654
				h1.352v4.81C247.1,87.418,246.812,88.235,246.235,88.803z"/>
			<path fill="#F5F6F6" d="M255.81,81.542v7.982h-1.04l-4.082-5.811v5.811h-1.301v-7.982h1.275l3.848,5.538v-5.538H255.81z"/>
			<path fill="#F5F6F6" d="M261.256,82.738v-1.196h6.656v1.196h-2.652v6.786h-1.352v-6.786H261.256z"/>
			<path fill="#F5F6F6" d="M271.188,81.542v7.982h-1.352v-7.982H271.188z"/>
			<path fill="#F5F6F6" d="M278.053,89.524h-0.963l-2.197-5.551v5.551h-1.287v-7.982h1.548l2.431,6.136l2.405-6.136h1.508v7.982
				h-1.3v-5.551L278.053,89.524z"/>
			<path fill="#F5F6F6" d="M283.915,81.542h5.214v1.196h-3.888v2.106h3.522v1.183h-3.522v2.288h3.888v1.209h-5.214V81.542z"/>
		</g>
	</g>
	<rect x="4.332" y="180" fill="#FFFFFF" width="442" height="75"/>
	<g>
		<g>
			<path fill="#55595E" d="M191.35,198.311c0.381,0.122,0.693,0.354,0.936,0.696s0.364,0.721,0.364,1.137
				c0,0.737-0.241,1.302-0.722,1.697c-0.481,0.394-1.142,0.591-1.982,0.591h-3.055v-7.982h2.795c0.849,0,1.512,0.187,1.989,0.559
				s0.715,0.91,0.715,1.612c0,0.416-0.097,0.776-0.292,1.079C191.903,198.003,191.654,198.207,191.35,198.311z M188.204,197.804
				h1.469c0.944,0,1.417-0.368,1.417-1.105c0-0.719-0.473-1.079-1.417-1.079h-1.469V197.804z M188.204,198.922v2.34h1.716
				c0.451,0,0.797-0.104,1.04-0.312c0.242-0.208,0.364-0.494,0.364-0.858c0-0.364-0.122-0.65-0.364-0.858
				c-0.243-0.208-0.589-0.312-1.04-0.312H188.204z"/>
			<path fill="#55595E" d="M200.106,201.71c-0.577,0.568-1.354,0.852-2.333,0.852c-0.979,0-1.757-0.284-2.333-0.852
				c-0.577-0.567-0.865-1.389-0.865-2.463v-4.797h1.352v4.654c0,1.5,0.615,2.249,1.846,2.249c1.23,0,1.846-0.75,1.846-2.249v-4.654
				h1.352v4.81C200.97,200.326,200.682,201.143,200.106,201.71z"/>
			<path fill="#55595E" d="M204.61,194.45v7.982h-1.352v-7.982H204.61z"/>
			<path fill="#55595E" d="M207.028,202.432v-7.982h1.352v6.773h3.835v1.209H207.028z"/>
			<path fill="#55595E" d="M213.749,195.646v-1.196h6.656v1.196h-2.652v6.786h-1.352v-6.786H213.749z"/>
			<path fill="#55595E" d="M221.965,199.611v-1.183h3.133v1.183H221.965z"/>
			<path fill="#55595E" d="M228.504,194.45v7.982h-1.353v-7.982H228.504z"/>
			<path fill="#55595E" d="M237.344,194.45v7.982h-1.04l-4.082-5.811v5.811h-1.3v-7.982h1.273l3.848,5.538v-5.538H237.344z"/>
			<path fill="#55595E" d="M248.861,202.965l-0.65-0.806c-0.512,0.269-1.07,0.403-1.677,0.403c-1.075,0-1.956-0.388-2.646-1.164
				c-0.689-0.775-1.033-1.761-1.033-2.958c0-1.196,0.344-2.182,1.033-2.958c0.689-0.775,1.57-1.163,2.646-1.163
				s1.959,0.388,2.652,1.163c0.693,0.776,1.04,1.762,1.04,2.958c0,1.222-0.369,2.223-1.105,3.003l0.663,0.819L248.861,202.965z
				 M248.861,198.44c0-0.849-0.215-1.547-0.644-2.093s-0.99-0.819-1.684-0.819s-1.253,0.271-1.677,0.812
				c-0.425,0.542-0.637,1.241-0.637,2.099c0,0.858,0.212,1.558,0.637,2.1c0.424,0.542,0.983,0.812,1.677,0.812
				c0.329,0,0.633-0.052,0.91-0.156l-0.663-0.819l0.936-0.689l0.638,0.793C248.692,199.979,248.861,199.299,248.861,198.44z"/>
			<path fill="#55595E" d="M256.447,197.375c0.507,0.563,0.76,1.287,0.76,2.171c0,0.884-0.253,1.608-0.76,2.171
				c-0.508,0.563-1.168,0.845-1.982,0.845c-0.815,0-1.477-0.281-1.982-0.845c-0.508-0.563-0.762-1.287-0.762-2.171
				c0-0.884,0.254-1.607,0.762-2.171c0.506-0.563,1.167-0.845,1.982-0.845C255.279,196.53,255.939,196.812,256.447,197.375z
				 M255.53,200.917c0.251-0.351,0.377-0.808,0.377-1.372c0-0.563-0.126-1.021-0.377-1.371c-0.251-0.351-0.606-0.527-1.065-0.527
				c-0.46,0-0.815,0.176-1.066,0.527c-0.252,0.351-0.377,0.808-0.377,1.371c0,0.563,0.125,1.021,0.377,1.372
				c0.251,0.351,0.606,0.527,1.066,0.527C254.924,201.444,255.279,201.268,255.53,200.917z"/>
			<path fill="#55595E" d="M258.52,200.222h1.379c0.251,0.797,0.854,1.196,1.807,1.196c0.469,0,0.843-0.106,1.125-0.318
				c0.281-0.212,0.422-0.5,0.422-0.864c0-0.286-0.089-0.514-0.266-0.683c-0.178-0.169-0.475-0.301-0.891-0.396l-1.353-0.325
				c-1.325-0.312-1.989-1.027-1.989-2.145c0-0.685,0.254-1.25,0.761-1.696s1.159-0.669,1.956-0.669c0.842,0,1.52,0.197,2.035,0.591
				c0.516,0.395,0.848,0.934,0.994,1.619h-1.352c-0.252-0.71-0.807-1.066-1.664-1.066c-0.434,0-0.782,0.102-1.047,0.305
				c-0.264,0.204-0.396,0.47-0.396,0.8c0,0.528,0.352,0.875,1.053,1.04l1.392,0.325c0.649,0.147,1.157,0.408,1.521,0.78
				c0.364,0.373,0.547,0.849,0.547,1.43c0,0.737-0.266,1.324-0.793,1.762c-0.529,0.438-1.214,0.656-2.055,0.656
				c-0.85,0-1.558-0.206-2.125-0.617C259.012,201.533,258.658,200.958,258.52,200.222z"/>
		</g>
	</g>
	<rect x="13.332" y="215" fill="#F5F6F6" width="102" height="30"/>
	<rect x="121.332" y="215" fill="#F5F6F6" width="101" height="30"/>
	<rect x="229.332" y="215" fill="#F5F6F6" width="101" height="30"/>
	<rect x="336.332" y="215" fill="#F5F6F6" width="102" height="30"/>
	<g>
		<g>
			<path fill="#55595E" d="M34.996,231.015h-0.888v2.988h-1.248v-7.368h2.844c0.776,0,1.388,0.19,1.836,0.57
				c0.448,0.38,0.672,0.926,0.672,1.638c0,0.608-0.166,1.09-0.498,1.446s-0.794,0.582-1.386,0.678l2.136,3.036h-1.416
				L34.996,231.015z M34.107,227.715v2.256h1.572c0.408,0,0.726-0.102,0.954-0.306s0.342-0.478,0.342-0.822
				c0-0.344-0.114-0.618-0.342-0.822s-0.546-0.306-0.954-0.306H34.107z"/>
			<path fill="#55595E" d="M40.119,226.635h4.812v1.104h-3.588v1.944h3.252v1.092h-3.252v2.112h3.588v1.116h-4.812V226.635z"/>
			<path fill="#55595E" d="M46.312,231.963h1.272c0.232,0.736,0.788,1.104,1.668,1.104c0.432,0,0.778-0.098,1.038-0.294
				c0.26-0.196,0.39-0.462,0.39-0.798c0-0.264-0.082-0.474-0.246-0.63c-0.164-0.156-0.438-0.278-0.822-0.366l-1.248-0.3
				c-1.224-0.288-1.836-0.948-1.836-1.98c0-0.632,0.234-1.154,0.702-1.566c0.468-0.412,1.07-0.618,1.806-0.618
				c0.776,0,1.402,0.182,1.878,0.546s0.782,0.862,0.918,1.494h-1.248c-0.232-0.656-0.744-0.984-1.536-0.984
				c-0.4,0-0.722,0.094-0.966,0.282c-0.244,0.188-0.366,0.434-0.366,0.738c0,0.488,0.324,0.808,0.972,0.96l1.284,0.3
				c0.6,0.136,1.068,0.376,1.404,0.72c0.336,0.344,0.504,0.784,0.504,1.32c0,0.68-0.244,1.222-0.732,1.626
				c-0.488,0.404-1.12,0.606-1.896,0.606c-0.784,0-1.438-0.19-1.962-0.57C46.765,233.173,46.439,232.643,46.312,231.963z"/>
			<path fill="#55595E" d="M54.963,226.635v7.368h-1.248v-7.368H54.963z"/>
			<path fill="#55595E" d="M57.195,234.003v-7.368h1.248v6.252h3.54v1.116H57.195z"/>
			<path fill="#55595E" d="M65.103,226.635v7.368h-1.248v-7.368H65.103z"/>
			<path fill="#55595E" d="M67.335,226.635h4.812v1.104h-3.588v1.944h3.252v1.092h-3.252v2.112h3.588v1.116h-4.812V226.635z"/>
			<path fill="#55595E" d="M80.031,226.635v7.368h-0.96l-3.768-5.364v5.364h-1.2v-7.368h1.176l3.552,5.112v-5.112H80.031z"/>
			<path fill="#55595E" d="M82.821,233.061c-0.636-0.708-0.954-1.622-0.954-2.742c0-1.12,0.318-2.034,0.954-2.742
				c0.636-0.708,1.434-1.062,2.394-1.062c0.816,0,1.484,0.218,2.004,0.654s0.852,1.03,0.996,1.782h-1.224
				c-0.32-0.872-0.912-1.308-1.776-1.308c-0.64,0-1.148,0.25-1.524,0.75c-0.376,0.5-0.564,1.142-0.564,1.926
				c0,0.784,0.188,1.426,0.564,1.926c0.376,0.5,0.884,0.75,1.524,0.75c0.864,0,1.456-0.44,1.776-1.32h1.224
				c-0.144,0.76-0.476,1.358-0.996,1.794c-0.52,0.437-1.188,0.654-2.004,0.654C84.255,234.123,83.457,233.769,82.821,233.061z"/>
			<path fill="#55595E" d="M92.703,229.935l1.944-3.3h1.32l-2.676,4.428v2.94h-1.236v-2.94l-2.664-4.428h1.356L92.703,229.935z"/>
		</g>
	</g>
	<g>
		<g>
			<path fill="#55595E" d="M128.61,227.739v-1.104h6.144v1.104h-2.448v6.264h-1.248v-6.264H128.61z"/>
			<path fill="#55595E" d="M138.666,231.015h-0.888v2.988h-1.248v-7.368h2.844c0.776,0,1.388,0.19,1.836,0.57
				c0.448,0.38,0.672,0.926,0.672,1.638c0,0.608-0.166,1.09-0.498,1.446s-0.794,0.582-1.386,0.678l2.136,3.036h-1.416
				L138.666,231.015z M137.778,227.715v2.256h1.572c0.408,0,0.726-0.102,0.954-0.306s0.342-0.478,0.342-0.822
				c0-0.344-0.114-0.618-0.342-0.822s-0.546-0.306-0.954-0.306H137.778z"/>
			<path fill="#55595E" d="M146.045,226.635h1.2l2.832,7.368h-1.272l-0.756-2.04h-2.82l-0.756,2.04h-1.26L146.045,226.635z
				 M146.634,228.159l-1.008,2.724h2.016L146.634,228.159z"/>
			<path fill="#55595E" d="M157.662,226.635v7.368h-0.96l-3.768-5.364v5.364h-1.2v-7.368h1.176l3.552,5.112v-5.112H157.662z"/>
			<path fill="#55595E" d="M159.318,231.963h1.272c0.232,0.736,0.788,1.104,1.668,1.104c0.432,0,0.778-0.098,1.038-0.294
				c0.26-0.196,0.39-0.462,0.39-0.798c0-0.264-0.082-0.474-0.246-0.63c-0.164-0.156-0.438-0.278-0.822-0.366l-1.248-0.3
				c-1.224-0.288-1.836-0.948-1.836-1.98c0-0.632,0.234-1.154,0.702-1.566c0.468-0.412,1.07-0.618,1.806-0.618
				c0.776,0,1.402,0.182,1.878,0.546s0.782,0.862,0.918,1.494h-1.248c-0.232-0.656-0.744-0.984-1.536-0.984
				c-0.4,0-0.722,0.094-0.966,0.282c-0.244,0.188-0.366,0.434-0.366,0.738c0,0.488,0.324,0.808,0.972,0.96l1.284,0.3
				c0.6,0.136,1.068,0.376,1.404,0.72c0.336,0.344,0.504,0.784,0.504,1.32c0,0.68-0.244,1.222-0.732,1.626
				c-0.488,0.404-1.12,0.606-1.896,0.606c-0.784,0-1.438-0.19-1.962-0.57C159.771,233.173,159.445,232.643,159.318,231.963z"/>
			<path fill="#55595E" d="M168.978,226.635h1.2l2.832,7.368h-1.272l-0.756-2.04h-2.82l-0.756,2.04h-1.26L168.978,226.635z
				 M169.566,228.159l-1.008,2.724h2.016L169.566,228.159z"/>
			<path fill="#55595E" d="M175.224,233.061c-0.636-0.708-0.954-1.622-0.954-2.742c0-1.12,0.318-2.034,0.954-2.742
				c0.636-0.708,1.434-1.062,2.394-1.062c0.816,0,1.484,0.218,2.004,0.654s0.852,1.03,0.996,1.782h-1.224
				c-0.32-0.872-0.912-1.308-1.776-1.308c-0.64,0-1.148,0.25-1.524,0.75c-0.376,0.5-0.564,1.142-0.564,1.926
				c0,0.784,0.188,1.426,0.564,1.926c0.376,0.5,0.884,0.75,1.524,0.75c0.864,0,1.456-0.44,1.776-1.32h1.224
				c-0.144,0.76-0.476,1.358-0.996,1.794c-0.52,0.437-1.188,0.654-2.004,0.654C176.658,234.123,175.859,233.769,175.224,233.061z"/>
			<path fill="#55595E" d="M181.973,227.739v-1.104h6.144v1.104h-2.448v6.264h-1.248v-6.264H181.973z"/>
			<path fill="#55595E" d="M191.141,226.635v7.368h-1.248v-7.368H191.141z"/>
			<path fill="#55595E" d="M198.821,227.589c0.64,0.716,0.96,1.626,0.96,2.73s-0.32,2.014-0.96,2.73
				c-0.64,0.716-1.456,1.074-2.448,1.074s-1.806-0.358-2.442-1.074c-0.636-0.716-0.954-1.626-0.954-2.73s0.318-2.014,0.954-2.73
				c0.636-0.716,1.45-1.074,2.442-1.074S198.181,226.873,198.821,227.589z M197.927,232.251c0.396-0.504,0.594-1.148,0.594-1.932
				c0-0.784-0.198-1.428-0.594-1.932c-0.396-0.504-0.914-0.756-1.554-0.756s-1.156,0.25-1.548,0.75
				c-0.392,0.5-0.588,1.146-0.588,1.938s0.196,1.438,0.588,1.938c0.392,0.5,0.908,0.75,1.548,0.75S197.531,232.755,197.927,232.251z
				"/>
			<path fill="#55595E" d="M207.545,226.635v7.368h-0.96l-3.768-5.364v5.364h-1.2v-7.368h1.176l3.552,5.112v-5.112H207.545z"/>
			<path fill="#55595E" d="M209.201,231.963h1.272c0.232,0.736,0.788,1.104,1.668,1.104c0.432,0,0.778-0.098,1.038-0.294
				c0.26-0.196,0.39-0.462,0.39-0.798c0-0.264-0.082-0.474-0.246-0.63c-0.164-0.156-0.438-0.278-0.822-0.366l-1.248-0.3
				c-1.224-0.288-1.836-0.948-1.836-1.98c0-0.632,0.234-1.154,0.702-1.566c0.468-0.412,1.07-0.618,1.806-0.618
				c0.776,0,1.402,0.182,1.878,0.546s0.782,0.862,0.918,1.494h-1.248c-0.232-0.656-0.744-0.984-1.536-0.984
				c-0.4,0-0.722,0.094-0.966,0.282c-0.244,0.188-0.366,0.434-0.366,0.738c0,0.488,0.324,0.808,0.972,0.96l1.284,0.3
				c0.6,0.136,1.068,0.376,1.404,0.72c0.336,0.344,0.504,0.784,0.504,1.32c0,0.68-0.244,1.222-0.732,1.626
				c-0.488,0.404-1.12,0.606-1.896,0.606c-0.784,0-1.438-0.19-1.962-0.57C209.655,233.173,209.329,232.643,209.201,231.963z"/>
		</g>
	</g>
	<g>
		<g>
			<path fill="#55595E" d="M252.387,231.963h1.271c0.232,0.736,0.787,1.104,1.668,1.104c0.432,0,0.777-0.098,1.037-0.294
				c0.261-0.196,0.391-0.462,0.391-0.798c0-0.264-0.082-0.474-0.246-0.63c-0.164-0.156-0.438-0.278-0.822-0.366l-1.248-0.3
				c-1.224-0.288-1.836-0.948-1.836-1.98c0-0.632,0.234-1.154,0.703-1.566c0.467-0.412,1.069-0.618,1.805-0.618
				c0.776,0,1.402,0.182,1.879,0.546c0.476,0.364,0.781,0.862,0.918,1.494h-1.248c-0.232-0.656-0.744-0.984-1.536-0.984
				c-0.4,0-0.722,0.094-0.966,0.282s-0.366,0.434-0.366,0.738c0,0.488,0.323,0.808,0.972,0.96l1.284,0.3
				c0.601,0.136,1.067,0.376,1.404,0.72c0.336,0.344,0.504,0.784,0.504,1.32c0,0.68-0.244,1.222-0.731,1.626
				c-0.488,0.404-1.121,0.606-1.896,0.606c-0.784,0-1.438-0.19-1.963-0.57C252.84,233.173,252.514,232.643,252.387,231.963z"/>
			<path fill="#55595E" d="M259.79,226.635h4.812v1.104h-3.588v1.944h3.252v1.092h-3.252v2.112h3.588v1.116h-4.812V226.635z"/>
			<path fill="#55595E" d="M267.115,233.061c-0.636-0.708-0.953-1.622-0.953-2.742c0-1.12,0.317-2.034,0.953-2.742
				c0.637-0.708,1.435-1.062,2.395-1.062c0.816,0,1.484,0.218,2.004,0.654s0.852,1.03,0.996,1.782h-1.225
				c-0.319-0.872-0.912-1.308-1.775-1.308c-0.641,0-1.148,0.25-1.523,0.75c-0.377,0.5-0.564,1.142-0.564,1.926
				c0,0.784,0.188,1.426,0.564,1.926c0.375,0.5,0.883,0.75,1.523,0.75c0.863,0,1.456-0.44,1.775-1.32h1.225
				c-0.145,0.76-0.477,1.358-0.996,1.794c-0.52,0.437-1.188,0.654-2.004,0.654C268.55,234.123,267.752,233.769,267.115,233.061z"/>
			<path fill="#55595E" d="M279.308,233.337c-0.532,0.524-1.25,0.786-2.153,0.786c-0.904,0-1.623-0.262-2.154-0.786
				c-0.532-0.524-0.799-1.282-0.799-2.274v-4.428h1.248v4.296c0,1.384,0.568,2.076,1.705,2.076c1.135,0,1.703-0.692,1.703-2.076
				v-4.296h1.248v4.44C280.105,232.059,279.84,232.813,279.308,233.337z"/>
			<path fill="#55595E" d="M284.354,231.015h-0.889v2.988h-1.248v-7.368h2.845c0.776,0,1.388,0.19,1.836,0.57
				s0.672,0.926,0.672,1.638c0,0.608-0.166,1.09-0.498,1.446s-0.794,0.582-1.386,0.678l2.136,3.036h-1.416L284.354,231.015z
				 M283.465,227.715v2.256h1.572c0.408,0,0.727-0.102,0.954-0.306s0.343-0.478,0.343-0.822c0-0.344-0.115-0.618-0.343-0.822
				s-0.546-0.306-0.954-0.306H283.465z"/>
			<path fill="#55595E" d="M290.726,226.635v7.368h-1.248v-7.368H290.726z"/>
			<path fill="#55595E" d="M292.501,227.739v-1.104h6.144v1.104h-2.447v6.264h-1.248v-6.264H292.501z"/>
			<path fill="#55595E" d="M303.098,229.935l1.943-3.3h1.32l-2.676,4.428v2.94h-1.236v-2.94l-2.664-4.428h1.355L303.098,229.935z"/>
		</g>
	</g>
	<g>
		<g>
			<path fill="#55595E" d="M349.571,227.589c0.641,0.716,0.96,1.626,0.96,2.73s-0.319,2.014-0.96,2.73
				c-0.64,0.716-1.456,1.074-2.447,1.074c-0.992,0-1.807-0.358-2.442-1.074c-0.636-0.716-0.954-1.626-0.954-2.73
				s0.318-2.014,0.954-2.73c0.636-0.716,1.45-1.074,2.442-1.074C348.115,226.515,348.932,226.873,349.571,227.589z M348.678,232.251
				c0.396-0.504,0.594-1.148,0.594-1.932c0-0.784-0.198-1.428-0.594-1.932c-0.396-0.504-0.914-0.756-1.554-0.756
				c-0.641,0-1.156,0.25-1.549,0.75c-0.392,0.5-0.588,1.146-0.588,1.938s0.196,1.438,0.588,1.938c0.393,0.5,0.908,0.75,1.549,0.75
				C347.764,233.007,348.281,232.755,348.678,232.251z"/>
			<path fill="#55595E" d="M356.483,230.199c0.353,0.112,0.641,0.326,0.864,0.642c0.224,0.316,0.336,0.666,0.336,1.05
				c0,0.68-0.222,1.202-0.666,1.566c-0.443,0.364-1.054,0.546-1.83,0.546h-2.819v-7.368h2.58c0.783,0,1.396,0.172,1.836,0.516
				c0.439,0.344,0.659,0.84,0.659,1.488c0,0.384-0.09,0.716-0.27,0.996C356.994,229.915,356.764,230.103,356.483,230.199z
				 M353.58,229.731h1.355c0.872,0,1.309-0.34,1.309-1.02c0-0.664-0.437-0.996-1.309-0.996h-1.355V229.731z M353.58,230.763v2.16
				h1.584c0.416,0,0.735-0.096,0.96-0.288c0.224-0.192,0.336-0.456,0.336-0.792s-0.112-0.6-0.336-0.792
				c-0.225-0.192-0.544-0.288-0.96-0.288H353.58z"/>
			<path fill="#55595E" d="M359.004,231.963h1.271c0.232,0.736,0.788,1.104,1.668,1.104c0.433,0,0.778-0.098,1.038-0.294
				c0.26-0.196,0.391-0.462,0.391-0.798c0-0.264-0.083-0.474-0.246-0.63c-0.164-0.156-0.438-0.278-0.822-0.366l-1.248-0.3
				c-1.224-0.288-1.836-0.948-1.836-1.98c0-0.632,0.234-1.154,0.702-1.566c0.468-0.412,1.069-0.618,1.806-0.618
				c0.776,0,1.402,0.182,1.878,0.546c0.477,0.364,0.782,0.862,0.918,1.494h-1.248c-0.231-0.656-0.744-0.984-1.536-0.984
				c-0.399,0-0.722,0.094-0.966,0.282s-0.366,0.434-0.366,0.738c0,0.488,0.324,0.808,0.973,0.96l1.284,0.3
				c0.6,0.136,1.067,0.376,1.403,0.72c0.336,0.344,0.504,0.784,0.504,1.32c0,0.68-0.244,1.222-0.731,1.626
				c-0.488,0.404-1.12,0.606-1.896,0.606c-0.784,0-1.438-0.19-1.962-0.57C359.458,233.173,359.132,232.643,359.004,231.963z"/>
			<path fill="#55595E" d="M366.408,226.635h4.812v1.104h-3.588v1.944h3.252v1.092h-3.252v2.112h3.588v1.116h-4.812V226.635z"/>
			<path fill="#55595E" d="M375.312,231.015h-0.888v2.988h-1.248v-7.368h2.844c0.775,0,1.388,0.19,1.836,0.57
				s0.672,0.926,0.672,1.638c0,0.608-0.166,1.09-0.498,1.446s-0.794,0.582-1.386,0.678l2.136,3.036h-1.416L375.312,231.015z
				 M374.424,227.715v2.256h1.571c0.408,0,0.727-0.102,0.954-0.306c0.229-0.204,0.342-0.478,0.342-0.822
				c0-0.344-0.113-0.618-0.342-0.822c-0.228-0.204-0.546-0.306-0.954-0.306H374.424z"/>
			<path fill="#55595E" d="M383.831,234.003h-1.188l-2.784-7.368h1.308l2.088,5.748l2.088-5.748h1.272L383.831,234.003z"/>
			<path fill="#55595E" d="M390.527,226.635h1.2l2.831,7.368h-1.271l-0.756-2.04h-2.82l-0.756,2.04h-1.26L390.527,226.635z
				 M391.115,228.159l-1.008,2.724h2.016L391.115,228.159z"/>
			<path fill="#55595E" d="M400.331,230.199c0.353,0.112,0.641,0.326,0.864,0.642c0.224,0.316,0.336,0.666,0.336,1.05
				c0,0.68-0.222,1.202-0.666,1.566c-0.443,0.364-1.054,0.546-1.83,0.546h-2.819v-7.368h2.58c0.783,0,1.396,0.172,1.836,0.516
				c0.439,0.344,0.659,0.84,0.659,1.488c0,0.384-0.09,0.716-0.27,0.996C400.842,229.915,400.611,230.103,400.331,230.199z
				 M397.428,229.731h1.355c0.872,0,1.309-0.34,1.309-1.02c0-0.664-0.437-0.996-1.309-0.996h-1.355V229.731z M397.428,230.763v2.16
				h1.584c0.416,0,0.735-0.096,0.96-0.288c0.224-0.192,0.336-0.456,0.336-0.792s-0.112-0.6-0.336-0.792
				c-0.225-0.192-0.544-0.288-0.96-0.288H397.428z"/>
			<path fill="#55595E" d="M404.676,226.635v7.368h-1.248v-7.368H404.676z"/>
			<path fill="#55595E" d="M406.907,234.003v-7.368h1.248v6.252h3.539v1.116H406.907z"/>
			<path fill="#55595E" d="M414.815,226.635v7.368h-1.248v-7.368H414.815z"/>
			<path fill="#55595E" d="M416.591,227.739v-1.104h6.144v1.104h-2.448v6.264h-1.248v-6.264H416.591z"/>
			<path fill="#55595E" d="M427.187,229.935l1.943-3.3h1.32l-2.676,4.428v2.94h-1.236v-2.94l-2.664-4.428h1.356L427.187,229.935z"/>
		</g>
	</g>
	<rect x="4.332" y="100" fill="#FFFFFF" width="442" height="75"/>
	<rect x="13.332" y="136" fill="#F5F6F6" width="102" height="30"/>
	<rect x="121.332" y="136" fill="#F5F6F6" width="101" height="30"/>
	<rect x="229.332" y="136" fill="#F5F6F6" width="101" height="30"/>
	<rect x="336.332" y="136" fill="#F5F6F6" width="102" height="30"/>
	<g>
		<g>
			<path fill="#55595E" d="M138.857,113.914v7.982h-1.04l-4.082-5.811v5.811h-1.3v-7.982h1.274l3.848,5.538v-5.538H138.857z"/>
			<path fill="#55595E" d="M141.274,113.914h5.213v1.196h-3.887v2.106h3.523v1.183h-3.523v2.288h3.887v1.209h-5.213V113.914z"/>
			<path fill="#55595E" d="M148.113,115.109v-1.196h6.656v1.196h-2.652v6.786h-1.352v-6.786H148.113z"/>
			<path fill="#55595E" d="M160.32,113.914h1.092l1.508,5.876l1.443-5.876h1.3l-2.054,7.982h-1.248l-1.508-5.707l-1.534,5.707
				h-1.235l-2.054-7.982h1.326l1.443,5.876L160.32,113.914z"/>
			<path fill="#55595E" d="M173.319,114.947c0.693,0.776,1.04,1.762,1.04,2.958c0,1.196-0.347,2.182-1.04,2.958
				c-0.693,0.776-1.578,1.164-2.652,1.164s-1.956-0.388-2.646-1.164c-0.689-0.775-1.033-1.761-1.033-2.958
				c0-1.196,0.344-2.182,1.033-2.958c0.689-0.775,1.571-1.163,2.646-1.163S172.626,114.171,173.319,114.947z M172.351,119.998
				c0.429-0.546,0.644-1.244,0.644-2.093c0-0.849-0.214-1.547-0.644-2.093c-0.429-0.546-0.99-0.819-1.684-0.819
				s-1.252,0.271-1.677,0.812c-0.425,0.542-0.637,1.241-0.637,2.099c0,0.858,0.212,1.558,0.637,2.1
				c0.424,0.542,0.983,0.812,1.677,0.812S171.922,120.543,172.351,119.998z"/>
			<path fill="#55595E" d="M178.663,118.659H177.7v3.237h-1.352v-7.982h3.081c0.841,0,1.504,0.206,1.989,0.618
				s0.728,1.003,0.728,1.774c0,0.659-0.18,1.181-0.54,1.566c-0.36,0.386-0.86,0.63-1.501,0.734l2.314,3.289h-1.534L178.663,118.659z
				 M177.7,115.083v2.444h1.703c0.442,0,0.787-0.11,1.034-0.332c0.247-0.221,0.37-0.518,0.37-0.89s-0.123-0.669-0.37-0.891
				s-0.592-0.332-1.034-0.332H177.7z"/>
			<path fill="#55595E" d="M185.565,113.914v3.822l3.315-3.822h1.703l-3.224,3.627l3.341,4.355h-1.69l-2.626-3.419l-0.819,0.936
				v2.483h-1.352v-7.982H185.565z"/>
			<path fill="#55595E" d="M192.065,119.075v-1.183h3.133v1.183H192.065z"/>
			<path fill="#55595E" d="M199.696,113.914h1.3l3.068,7.982h-1.378l-0.819-2.21h-3.055l-0.819,2.21h-1.365L199.696,113.914z
				 M200.333,115.564l-1.092,2.951h2.184L200.333,115.564z"/>
			<path fill="#55595E" d="M209.485,113.914h1.092l1.508,5.876l1.443-5.876h1.3l-2.054,7.982h-1.248l-1.508-5.707l-1.534,5.707
				h-1.235l-2.054-7.982h1.326l1.443,5.876L209.485,113.914z"/>
			<path fill="#55595E" d="M219.027,113.914h1.3l3.068,7.982h-1.378l-0.819-2.21h-3.055l-0.819,2.21h-1.365L219.027,113.914z
				 M219.664,115.564l-1.092,2.951h2.184L219.664,115.564z"/>
			<path fill="#55595E" d="M227.503,118.659h-0.962v3.237h-1.352v-7.982h3.081c0.841,0,1.504,0.206,1.989,0.618
				s0.728,1.003,0.728,1.774c0,0.659-0.18,1.181-0.539,1.566s-0.86,0.63-1.502,0.734l2.314,3.289h-1.534L227.503,118.659z
				 M226.541,115.083v2.444h1.704c0.441,0,0.786-0.11,1.033-0.332c0.247-0.221,0.37-0.518,0.37-0.89s-0.123-0.669-0.37-0.891
				s-0.592-0.332-1.033-0.332H226.541z"/>
			<path fill="#55595E" d="M233.054,113.914h5.214v1.196h-3.888v2.106h3.522v1.183h-3.522v2.288h3.888v1.209h-5.214V113.914z"/>
			<path fill="#55595E" d="M243.908,121.896v-7.982h2.691c1.178,0,2.119,0.362,2.82,1.085c0.703,0.724,1.054,1.692,1.054,2.905
				c0,1.214-0.351,2.182-1.054,2.906c-0.701,0.724-1.643,1.085-2.82,1.085H243.908z M245.26,120.687h1.287
				c0.824,0,1.459-0.247,1.905-0.741c0.446-0.494,0.669-1.174,0.669-2.041c0-0.866-0.223-1.549-0.669-2.047
				c-0.446-0.498-1.081-0.748-1.905-0.748h-1.287V120.687z"/>
			<path fill="#55595E" d="M254.906,113.914h1.301l3.067,7.982h-1.378l-0.818-2.21h-3.056l-0.819,2.21h-1.365L254.906,113.914z
				 M255.543,115.564l-1.092,2.951h2.185L255.543,115.564z"/>
			<path fill="#55595E" d="M260.574,115.109v-1.196h6.656v1.196h-2.652v6.786h-1.352v-6.786H260.574z"/>
			<path fill="#55595E" d="M271.599,113.914h1.3l3.068,7.982h-1.379l-0.818-2.21h-3.055l-0.819,2.21h-1.365L271.599,113.914z
				 M272.235,115.564l-1.092,2.951h2.185L272.235,115.564z"/>
			<path fill="#55595E" d="M280.789,115.109v-1.196h6.656v1.196h-2.652v6.786h-1.352v-6.786H280.789z"/>
			<path fill="#55595E" d="M292.268,117.488l2.106-3.575h1.43l-2.899,4.797v3.185h-1.338v-3.185l-2.887-4.797h1.469L292.268,117.488
				z"/>
			<path fill="#55595E" d="M300.613,118.918h-1.729v2.977h-1.352v-7.982h3.08c0.842,0,1.506,0.217,1.996,0.65
				c0.49,0.434,0.734,1.053,0.734,1.859c0,0.798-0.244,1.413-0.734,1.846C302.119,118.702,301.455,118.918,300.613,118.918z
				 M302.005,116.422c0-0.407-0.122-0.732-0.364-0.975c-0.242-0.242-0.594-0.364-1.053-0.364h-1.703v2.665h1.703
				c0.451,0,0.799-0.121,1.047-0.364C301.881,117.142,302.005,116.821,302.005,116.422z"/>
			<path fill="#55595E" d="M305.268,113.914h5.213v1.196h-3.887v2.106h3.523v1.183h-3.523v2.288h3.887v1.209h-5.213V113.914z"/>
			<path fill="#55595E" d="M311.976,119.686h1.378c0.252,0.797,0.854,1.196,1.807,1.196c0.469,0,0.844-0.106,1.125-0.318
				s0.423-0.5,0.423-0.864c0-0.286-0.089-0.514-0.267-0.683s-0.475-0.301-0.891-0.396l-1.352-0.325
				c-1.326-0.312-1.989-1.027-1.989-2.145c0-0.685,0.253-1.25,0.761-1.696c0.507-0.446,1.158-0.669,1.956-0.669
				c0.841,0,1.519,0.197,2.034,0.591c0.516,0.395,0.848,0.934,0.995,1.619h-1.353c-0.251-0.71-0.806-1.066-1.664-1.066
				c-0.434,0-0.781,0.102-1.046,0.305s-0.397,0.47-0.397,0.8c0,0.528,0.352,0.875,1.054,1.04l1.392,0.325
				c0.649,0.147,1.156,0.408,1.521,0.78s0.546,0.849,0.546,1.43c0,0.737-0.265,1.324-0.793,1.762
				c-0.529,0.438-1.213,0.656-2.055,0.656c-0.849,0-1.557-0.206-2.125-0.617C312.468,120.997,312.114,120.422,311.976,119.686z"/>
		</g>
	</g>
	<g>
		<g>
			<path fill="#55595E" d="M49.724,152.391h1.296c0.088,0.752,0.48,1.128,1.176,1.128c0.832,0,1.248-0.508,1.248-1.524v-4.824h1.248
				v4.824c0,0.864-0.22,1.524-0.66,1.98s-1.044,0.684-1.812,0.684c-0.76,0-1.352-0.206-1.776-0.618S49.78,153.079,49.724,152.391z"
				/>
			<path fill="#55595E" d="M56.204,152.499h1.272c0.232,0.736,0.788,1.104,1.668,1.104c0.432,0,0.778-0.098,1.038-0.294
				c0.26-0.196,0.39-0.462,0.39-0.798c0-0.264-0.082-0.474-0.246-0.63c-0.164-0.156-0.438-0.278-0.822-0.366l-1.248-0.3
				c-1.224-0.288-1.836-0.948-1.836-1.98c0-0.632,0.234-1.154,0.702-1.566c0.468-0.412,1.07-0.618,1.806-0.618
				c0.776,0,1.402,0.182,1.878,0.546s0.782,0.862,0.918,1.494h-1.248c-0.232-0.656-0.744-0.984-1.536-0.984
				c-0.4,0-0.722,0.094-0.966,0.282c-0.244,0.188-0.366,0.434-0.366,0.738c0,0.488,0.324,0.808,0.972,0.96l1.284,0.3
				c0.6,0.136,1.068,0.376,1.404,0.72c0.336,0.344,0.504,0.784,0.504,1.32c0,0.68-0.244,1.222-0.732,1.626
				c-0.488,0.404-1.12,0.606-1.896,0.606c-0.784,0-1.438-0.19-1.962-0.57C56.658,153.709,56.332,153.179,56.204,152.499z"/>
			<path fill="#55595E" d="M69.056,148.125c0.64,0.716,0.96,1.626,0.96,2.73s-0.32,2.014-0.96,2.73
				c-0.64,0.716-1.456,1.074-2.448,1.074s-1.806-0.358-2.442-1.074c-0.636-0.716-0.954-1.626-0.954-2.73s0.318-2.014,0.954-2.73
				c0.636-0.716,1.45-1.074,2.442-1.074S68.416,147.409,69.056,148.125z M68.162,152.787c0.396-0.504,0.594-1.148,0.594-1.932
				c0-0.784-0.198-1.428-0.594-1.932c-0.396-0.504-0.914-0.756-1.554-0.756s-1.156,0.25-1.548,0.75
				c-0.392,0.5-0.588,1.146-0.588,1.938s0.196,1.438,0.588,1.938c0.392,0.5,0.908,0.75,1.548,0.75S67.766,153.291,68.162,152.787z"
				/>
			<path fill="#55595E" d="M77.78,147.171v7.368h-0.96l-3.768-5.364v5.364h-1.2v-7.368h1.176l3.552,5.112v-5.112H77.78z"/>
		</g>
	</g>
	<g>
		<g>
			<path fill="#55595E" d="M166.805,147.171l-2.496,3.588l2.616,3.78h-1.428l-1.908-2.772l-1.908,2.772h-1.392l2.604-3.756
				l-2.484-3.612h1.428l1.776,2.604l1.812-2.604H166.805z"/>
			<path fill="#55595E" d="M172.564,154.539h-0.888l-2.028-5.124v5.124h-1.188v-7.368h1.428l2.244,5.664l2.22-5.664h1.392v7.368
				h-1.2v-5.124L172.564,154.539z"/>
			<path fill="#55595E" d="M177.976,154.539v-7.368h1.248v6.252h3.54v1.116H177.976z"/>
		</g>
	</g>
	<g>
		<g>
			<path fill="#55595E" d="M261.955,148.275v-1.104h6.144v1.104h-2.448v6.264h-1.248v-6.264H261.955z"/>
			<path fill="#55595E" d="M272.131,147.171h1.199l2.832,7.368h-1.271l-0.756-2.04h-2.82l-0.756,2.04h-1.26L272.131,147.171z
				 M272.719,148.695l-1.008,2.724h2.016L272.719,148.695z"/>
			<path fill="#55595E" d="M281.935,150.735c0.353,0.112,0.64,0.326,0.864,0.642c0.224,0.316,0.336,0.666,0.336,1.05
				c0,0.68-0.223,1.202-0.666,1.566c-0.444,0.364-1.055,0.546-1.83,0.546h-2.82v-7.368h2.58c0.784,0,1.396,0.172,1.836,0.516
				c0.439,0.344,0.66,0.84,0.66,1.488c0,0.384-0.09,0.716-0.27,0.996C282.444,150.451,282.215,150.639,281.935,150.735z
				 M279.03,150.267h1.356c0.871,0,1.308-0.34,1.308-1.02c0-0.664-0.437-0.996-1.308-0.996h-1.356V150.267z M279.03,151.299v2.16
				h1.584c0.416,0,0.736-0.096,0.96-0.288c0.225-0.192,0.336-0.456,0.336-0.792s-0.111-0.6-0.336-0.792
				c-0.224-0.192-0.544-0.288-0.96-0.288H279.03z"/>
			<path fill="#55595E" d="M285.03,154.539v-7.368h1.248v6.252h3.54v1.116H285.03z"/>
			<path fill="#55595E" d="M291.69,147.171h4.812v1.104h-3.588v1.944h3.252v1.092h-3.252v2.112h3.588v1.116h-4.812V147.171z"/>
		</g>
	</g>
	<g>
		<g>
			<path fill="#55595E" d="M364.595,152.499h1.271c0.232,0.736,0.788,1.104,1.668,1.104c0.433,0,0.778-0.098,1.038-0.294
				c0.26-0.196,0.391-0.462,0.391-0.798c0-0.264-0.083-0.474-0.246-0.63c-0.164-0.156-0.438-0.278-0.822-0.366l-1.248-0.3
				c-1.224-0.288-1.836-0.948-1.836-1.98c0-0.632,0.234-1.154,0.702-1.566c0.468-0.412,1.069-0.618,1.806-0.618
				c0.776,0,1.402,0.182,1.878,0.546c0.477,0.364,0.782,0.862,0.918,1.494h-1.248c-0.231-0.656-0.744-0.984-1.536-0.984
				c-0.399,0-0.722,0.094-0.966,0.282s-0.366,0.434-0.366,0.738c0,0.488,0.324,0.808,0.973,0.96l1.284,0.3
				c0.6,0.136,1.067,0.376,1.403,0.72c0.336,0.344,0.504,0.784,0.504,1.32c0,0.68-0.244,1.222-0.731,1.626
				c-0.488,0.404-1.12,0.606-1.896,0.606c-0.784,0-1.438-0.19-1.962-0.57C365.049,153.709,364.723,153.179,364.595,152.499z"/>
			<path fill="#55595E" d="M371.543,148.275v-1.104h6.144v1.104h-2.448v6.264h-1.248v-6.264H371.543z"/>
			<path fill="#55595E" d="M381.599,151.551h-0.888v2.988h-1.248v-7.368h2.844c0.775,0,1.388,0.19,1.836,0.57
				s0.672,0.926,0.672,1.638c0,0.608-0.166,1.09-0.498,1.446s-0.794,0.582-1.386,0.678l2.136,3.036h-1.416L381.599,151.551z
				 M380.711,148.251v2.256h1.571c0.408,0,0.727-0.102,0.954-0.306c0.229-0.204,0.342-0.478,0.342-0.822
				c0-0.344-0.113-0.618-0.342-0.822c-0.228-0.204-0.546-0.306-0.954-0.306H380.711z"/>
			<path fill="#55595E" d="M386.723,147.171h4.812v1.104h-3.588v1.944h3.252v1.092h-3.252v2.112h3.588v1.116h-4.812V147.171z"/>
			<path fill="#55595E" d="M395.746,147.171h1.2l2.831,7.368h-1.271l-0.756-2.04h-2.82l-0.756,2.04h-1.26L395.746,147.171z
				 M396.334,148.695l-1.008,2.724h2.016L396.334,148.695z"/>
			<path fill="#55595E" d="M405.538,154.539h-0.888l-2.028-5.124v5.124h-1.188v-7.368h1.428l2.244,5.664l2.22-5.664h1.392v7.368
				h-1.199v-5.124L405.538,154.539z"/>
		</g>
	</g>
	<rect x="4.332" y="300" fill="#FFFFFF" width="442" height="75"/>
	<g>
		<g>
			<path fill="#55595E" d="M185.319,318.202v-1.196h6.656v1.196h-2.652v6.786h-1.352v-6.786H185.319z"/>
			<path fill="#55595E" d="M196.213,321.752h-0.962v3.236h-1.352v-7.982h3.081c0.841,0,1.504,0.207,1.989,0.618
				s0.728,1.003,0.728,1.774c0,0.658-0.18,1.181-0.54,1.566c-0.36,0.386-0.86,0.631-1.501,0.734l2.314,3.289h-1.534L196.213,321.752
				z M195.25,318.176v2.444h1.703c0.442,0,0.787-0.11,1.034-0.331s0.37-0.518,0.37-0.891s-0.123-0.67-0.37-0.891
				s-0.592-0.332-1.034-0.332H195.25z"/>
			<path fill="#55595E" d="M204.208,317.006h1.3l3.068,7.982h-1.378l-0.819-2.21h-3.055l-0.819,2.21h-1.365L204.208,317.006z
				 M204.844,318.657l-1.092,2.951h2.184L204.844,318.657z"/>
			<path fill="#55595E" d="M216.792,317.006v7.982h-1.04l-4.082-5.811v5.811h-1.3v-7.982h1.274l3.848,5.539v-5.539H216.792z"/>
			<path fill="#55595E" d="M218.585,322.778h1.378c0.251,0.798,0.854,1.196,1.807,1.196c0.468,0,0.843-0.106,1.125-0.318
				c0.282-0.213,0.423-0.501,0.423-0.865c0-0.285-0.089-0.514-0.267-0.682c-0.178-0.17-0.475-0.302-0.891-0.396l-1.352-0.326
				c-1.326-0.312-1.989-1.026-1.989-2.145c0-0.685,0.253-1.25,0.76-1.696c0.507-0.446,1.159-0.669,1.957-0.669
				c0.841,0,1.519,0.197,2.035,0.591c0.516,0.395,0.847,0.935,0.995,1.618h-1.352c-0.251-0.71-0.806-1.065-1.664-1.065
				c-0.434,0-0.782,0.102-1.046,0.306c-0.265,0.203-0.397,0.47-0.397,0.799c0,0.529,0.351,0.876,1.053,1.04l1.391,0.325
				c0.65,0.147,1.157,0.408,1.521,0.78c0.364,0.372,0.546,0.849,0.546,1.43c0,0.737-0.265,1.324-0.793,1.762
				c-0.529,0.438-1.213,0.656-2.054,0.656c-0.849,0-1.558-0.206-2.125-0.617C219.077,324.09,218.724,323.516,218.585,322.778z"/>
			<path fill="#55595E" d="M229.688,322.012h-1.729v2.977h-1.352v-7.982h3.082c0.84,0,1.506,0.217,1.995,0.65
				s0.734,1.053,0.734,1.859c0,0.797-0.245,1.412-0.734,1.846S230.527,322.012,229.688,322.012z M231.078,319.516
				c0-0.408-0.121-0.732-0.363-0.976c-0.244-0.242-0.594-0.364-1.054-0.364h-1.703v2.666h1.703c0.45,0,0.8-0.121,1.046-0.365
				C230.955,320.234,231.078,319.914,231.078,319.516z"/>
			<path fill="#55595E" d="M240.244,318.039c0.693,0.776,1.039,1.762,1.039,2.958s-0.346,2.183-1.039,2.958
				s-1.578,1.163-2.652,1.163c-1.075,0-1.957-0.388-2.646-1.163c-0.688-0.775-1.033-1.762-1.033-2.958s0.345-2.182,1.033-2.958
				c0.689-0.775,1.571-1.162,2.646-1.162C238.666,316.877,239.551,317.264,240.244,318.039z M239.275,323.09
				c0.429-0.545,0.643-1.243,0.643-2.093c0-0.849-0.214-1.547-0.643-2.093c-0.43-0.546-0.99-0.818-1.684-0.818
				s-1.253,0.271-1.678,0.812c-0.424,0.541-0.637,1.24-0.637,2.099s0.213,1.558,0.637,2.1c0.425,0.542,0.984,0.812,1.678,0.812
				S238.846,323.637,239.275,323.09z"/>
			<path fill="#55595E" d="M245.586,321.752h-0.962v3.236h-1.353v-7.982h3.082c0.84,0,1.504,0.207,1.988,0.618
				c0.486,0.411,0.729,1.003,0.729,1.774c0,0.658-0.18,1.181-0.539,1.566c-0.36,0.386-0.861,0.631-1.502,0.734l2.314,3.289h-1.535
				L245.586,321.752z M244.624,318.176v2.444h1.703c0.442,0,0.786-0.11,1.034-0.331c0.246-0.221,0.369-0.518,0.369-0.891
				s-0.123-0.67-0.369-0.891c-0.248-0.221-0.592-0.332-1.034-0.332H244.624z"/>
			<path fill="#55595E" d="M250.643,318.202v-1.196h6.656v1.196h-2.652v6.786h-1.352v-6.786H250.643z"/>
			<path fill="#55595E" d="M258.599,322.778h1.378c0.252,0.798,0.854,1.196,1.807,1.196c0.469,0,0.844-0.106,1.125-0.318
				c0.281-0.213,0.423-0.501,0.423-0.865c0-0.285-0.089-0.514-0.267-0.682c-0.178-0.17-0.475-0.302-0.891-0.396l-1.352-0.326
				c-1.326-0.312-1.989-1.026-1.989-2.145c0-0.685,0.253-1.25,0.761-1.696c0.507-0.446,1.158-0.669,1.956-0.669
				c0.841,0,1.519,0.197,2.034,0.591c0.516,0.395,0.848,0.935,0.995,1.618h-1.353c-0.251-0.71-0.806-1.065-1.664-1.065
				c-0.434,0-0.781,0.102-1.046,0.306c-0.265,0.203-0.397,0.47-0.397,0.799c0,0.529,0.352,0.876,1.054,1.04l1.392,0.325
				c0.649,0.147,1.156,0.408,1.521,0.78s0.546,0.849,0.546,1.43c0,0.737-0.265,1.324-0.793,1.762
				c-0.529,0.438-1.213,0.656-2.055,0.656c-0.849,0-1.557-0.206-2.125-0.617C259.091,324.09,258.737,323.516,258.599,322.778z"/>
		</g>
	</g>
	<rect x="13.332" y="336" fill="#F5F6F6" width="102" height="30"/>
	<rect x="121.332" y="336" fill="#F5F6F6" width="101" height="30"/>
	<rect x="229.332" y="336" fill="#F5F6F6" width="101" height="30"/>
	<rect x="336.332" y="336" fill="#F5F6F6" width="102" height="30"/>
	<g>
		<g>
			<path fill="#55595E" d="M54.915,347.604h1.248v7.368h-1.248v-3.228h-3.708v3.228h-1.248v-7.368h1.248v3.036h3.708V347.604z"/>
			<path fill="#55595E" d="M57.939,348.707v-1.104h6.144v1.104h-2.448v6.265h-1.248v-6.265H57.939z"/>
			<path fill="#55595E" d="M65.403,348.707v-1.104h6.144v1.104h-2.448v6.265h-1.248v-6.265H65.403z"/>
			<path fill="#55595E" d="M76.167,352.224h-1.596v2.748h-1.248v-7.368h2.844c0.776,0,1.39,0.2,1.842,0.6
				c0.452,0.4,0.678,0.973,0.678,1.717c0,0.736-0.226,1.304-0.678,1.703C77.557,352.023,76.943,352.224,76.167,352.224z
				 M77.451,349.92c0-0.376-0.112-0.676-0.336-0.9c-0.224-0.224-0.548-0.336-0.972-0.336h-1.572v2.46h1.572
				c0.416,0,0.738-0.112,0.966-0.336S77.451,350.287,77.451,349.92z"/>
		</g>
	</g>
	<g>
		<g>
			<path fill="#55595E" d="M161.766,354.611v-0.24c-0.128,0.152-0.314,0.283-0.558,0.391c-0.244,0.107-0.51,0.162-0.798,0.162
				c-0.752,0-1.353-0.264-1.8-0.792c-0.448-0.528-0.672-1.164-0.672-1.908s0.224-1.38,0.672-1.907
				c0.448-0.529,1.048-0.793,1.8-0.793c0.288,0,0.554,0.055,0.798,0.162c0.244,0.107,0.43,0.238,0.558,0.391v-0.433h1.2v4.884
				c0,0.864-0.23,1.514-0.69,1.95s-1.066,0.654-1.818,0.654c-0.672,0-1.218-0.167-1.638-0.498c-0.42-0.332-0.662-0.79-0.726-1.374
				h1.164c0.12,0.592,0.52,0.888,1.2,0.888C161.33,356.147,161.766,355.636,161.766,354.611z M161.766,353.231v-2.016
				c-0.104-0.185-0.26-0.336-0.468-0.456s-0.436-0.18-0.684-0.18c-0.448,0-0.802,0.152-1.062,0.455
				c-0.26,0.305-0.39,0.701-0.39,1.188c0,0.488,0.13,0.884,0.39,1.188c0.26,0.304,0.614,0.455,1.062,0.455
				c0.248,0,0.476-0.06,0.684-0.18C161.506,353.568,161.662,353.416,161.766,353.231z"/>
			<path fill="#55595E" d="M167.262,351.984h-0.888v2.987h-1.248v-7.368h2.844c0.776,0,1.388,0.19,1.836,0.57
				c0.448,0.38,0.672,0.926,0.672,1.638c0,0.608-0.166,1.091-0.498,1.446s-0.794,0.582-1.386,0.678l2.136,3.036h-1.416
				L167.262,351.984z M166.374,348.684v2.256h1.572c0.408,0,0.726-0.102,0.954-0.306s0.342-0.478,0.342-0.822
				c0-0.344-0.114-0.618-0.342-0.821c-0.228-0.205-0.546-0.307-0.954-0.307H166.374z"/>
			<path fill="#55595E" d="M175.23,352.224h-1.596v2.748h-1.248v-7.368h2.844c0.776,0,1.39,0.2,1.842,0.6
				c0.452,0.4,0.678,0.973,0.678,1.717c0,0.736-0.226,1.304-0.678,1.703C176.62,352.023,176.006,352.224,175.23,352.224z
				 M176.514,349.92c0-0.376-0.112-0.676-0.336-0.9c-0.224-0.224-0.548-0.336-0.972-0.336h-1.572v2.46h1.572
				c0.416,0,0.738-0.112,0.966-0.336S176.514,350.287,176.514,349.92z"/>
			<path fill="#55595E" d="M180.084,354.029c-0.636-0.707-0.954-1.621-0.954-2.742c0-1.119,0.318-2.033,0.954-2.741
				c0.636-0.708,1.434-1.062,2.394-1.062c0.816,0,1.484,0.217,2.004,0.653s0.852,1.03,0.996,1.782h-1.224
				c-0.32-0.872-0.912-1.309-1.776-1.309c-0.64,0-1.148,0.25-1.524,0.75c-0.376,0.5-0.564,1.143-0.564,1.926
				c0,0.785,0.188,1.427,0.564,1.927c0.376,0.5,0.884,0.75,1.524,0.75c0.864,0,1.456-0.44,1.776-1.32h1.224
				c-0.144,0.761-0.476,1.358-0.996,1.794c-0.52,0.437-1.188,0.654-2.004,0.654C181.518,355.092,180.72,354.738,180.084,354.029z"/>
		</g>
	</g>
	<g>
		<g>
			<path fill="#55595E" d="M249.543,347.604h1.008l1.392,5.424l1.332-5.424h1.2l-1.896,7.368h-1.152l-1.392-5.269l-1.415,5.269
				h-1.141l-1.896-7.368h1.225l1.332,5.424L249.543,347.604z"/>
			<path fill="#55595E" d="M256.094,347.604h4.812v1.104h-3.588v1.945h3.252v1.092h-3.252v2.111h3.588v1.116h-4.812V347.604z"/>
			<path fill="#55595E" d="M266.979,351.168c0.352,0.111,0.64,0.326,0.863,0.642c0.225,0.316,0.336,0.666,0.336,1.05
				c0,0.68-0.221,1.202-0.666,1.566c-0.443,0.364-1.053,0.546-1.829,0.546h-2.82v-7.368h2.58c0.784,0,1.396,0.172,1.836,0.516
				c0.44,0.345,0.66,0.84,0.66,1.488c0,0.385-0.091,0.717-0.271,0.996C267.488,350.884,267.258,351.072,266.979,351.168z
				 M264.074,350.699h1.355c0.873,0,1.309-0.34,1.309-1.02c0-0.664-0.436-0.996-1.309-0.996h-1.355V350.699z M264.074,351.731v2.16
				h1.584c0.416,0,0.736-0.096,0.96-0.288c0.224-0.191,0.337-0.456,0.337-0.792s-0.113-0.6-0.337-0.792
				c-0.224-0.191-0.544-0.288-0.96-0.288H264.074z"/>
			<path fill="#55595E" d="M269.498,352.932h1.272c0.231,0.736,0.788,1.104,1.668,1.104c0.432,0,0.778-0.098,1.038-0.293
				c0.26-0.196,0.39-0.463,0.39-0.799c0-0.264-0.082-0.474-0.246-0.63c-0.164-0.155-0.438-0.278-0.821-0.366l-1.248-0.3
				c-1.225-0.288-1.836-0.948-1.836-1.979c0-0.633,0.233-1.154,0.701-1.566c0.469-0.412,1.07-0.617,1.807-0.617
				c0.775,0,1.401,0.182,1.877,0.545c0.477,0.365,0.783,0.862,0.918,1.494h-1.247c-0.232-0.656-0.744-0.984-1.536-0.984
				c-0.4,0-0.723,0.095-0.967,0.283c-0.243,0.188-0.365,0.434-0.365,0.737c0,0.488,0.324,0.808,0.973,0.96l1.283,0.301
				c0.6,0.135,1.068,0.375,1.404,0.719c0.336,0.345,0.504,0.785,0.504,1.32c0,0.68-0.244,1.223-0.732,1.627
				c-0.488,0.403-1.119,0.605-1.896,0.605c-0.784,0-1.438-0.189-1.962-0.57C269.952,354.142,269.626,353.611,269.498,352.932z"/>
			<path fill="#55595E" d="M282.35,348.558c0.641,0.716,0.961,1.626,0.961,2.729c0,1.104-0.32,2.015-0.961,2.73
				c-0.64,0.717-1.455,1.074-2.447,1.074s-1.807-0.357-2.442-1.074c-0.636-0.716-0.954-1.626-0.954-2.73
				c0-1.104,0.318-2.014,0.954-2.729s1.45-1.073,2.442-1.073S281.71,347.842,282.35,348.558z M281.456,353.22
				c0.396-0.504,0.594-1.147,0.594-1.933c0-0.783-0.198-1.428-0.594-1.932s-0.914-0.756-1.554-0.756c-0.641,0-1.156,0.25-1.549,0.75
				c-0.392,0.5-0.588,1.146-0.588,1.938c0,0.793,0.196,1.438,0.588,1.938c0.393,0.5,0.908,0.75,1.549,0.75
				C280.542,353.976,281.061,353.724,281.456,353.22z"/>
			<path fill="#55595E" d="M285.704,354.029c-0.636-0.707-0.954-1.621-0.954-2.742c0-1.119,0.318-2.033,0.954-2.741
				s1.435-1.062,2.394-1.062c0.816,0,1.484,0.217,2.004,0.653c0.521,0.437,0.853,1.03,0.996,1.782h-1.224
				c-0.319-0.872-0.912-1.309-1.776-1.309c-0.64,0-1.147,0.25-1.523,0.75c-0.377,0.5-0.564,1.143-0.564,1.926
				c0,0.785,0.188,1.427,0.564,1.927c0.376,0.5,0.884,0.75,1.523,0.75c0.864,0,1.457-0.44,1.776-1.32h1.224
				c-0.144,0.761-0.476,1.358-0.996,1.794c-0.52,0.437-1.188,0.654-2.004,0.654C287.139,355.092,286.34,354.738,285.704,354.029z"/>
			<path fill="#55595E" d="M294.158,347.604v3.528l3.06-3.528h1.571l-2.975,3.348l3.084,4.021h-1.561l-2.424-3.155l-0.756,0.863
				v2.292h-1.248v-7.368H294.158z"/>
			<path fill="#55595E" d="M300.494,347.604h4.812v1.104h-3.588v1.945h3.252v1.092h-3.252v2.111h3.588v1.116h-4.812V347.604z"/>
			<path fill="#55595E" d="M306.806,348.707v-1.104h6.144v1.104h-2.447v6.265h-1.248v-6.265H306.806z"/>
		</g>
	</g>
	<g>
		<g>
			<path fill="#55595E" d="M359.387,354.971h-0.888l-2.028-5.124v5.124h-1.188v-7.368h1.428l2.244,5.664l2.22-5.664h1.392v7.368
				h-1.199v-5.124L359.387,354.971z"/>
			<path fill="#55595E" d="M364.799,347.603h4.812v1.104h-3.588v1.943h3.252v1.092h-3.252v2.112h3.588v1.116h-4.812V347.603z"/>
			<path fill="#55595E" d="M370.991,352.931h1.271c0.232,0.736,0.788,1.104,1.668,1.104c0.433,0,0.778-0.098,1.038-0.295
				c0.26-0.195,0.391-0.461,0.391-0.797c0-0.265-0.083-0.475-0.246-0.631c-0.164-0.156-0.438-0.277-0.822-0.365l-1.248-0.301
				c-1.224-0.287-1.836-0.947-1.836-1.98c0-0.631,0.234-1.153,0.702-1.565c0.468-0.411,1.069-0.618,1.806-0.618
				c0.776,0,1.402,0.182,1.878,0.547c0.477,0.363,0.782,0.861,0.918,1.493h-1.248c-0.231-0.655-0.744-0.983-1.536-0.983
				c-0.399,0-0.722,0.094-0.966,0.281c-0.244,0.188-0.366,0.435-0.366,0.738c0,0.488,0.324,0.809,0.973,0.96l1.284,0.3
				c0.6,0.137,1.067,0.377,1.403,0.721s0.504,0.783,0.504,1.32c0,0.68-0.244,1.222-0.731,1.625c-0.488,0.404-1.12,0.606-1.896,0.606
				c-0.784,0-1.438-0.19-1.962-0.57C371.445,354.141,371.119,353.611,370.991,352.931z"/>
			<path fill="#55595E" d="M377.819,352.931h1.271c0.232,0.736,0.788,1.104,1.668,1.104c0.433,0,0.778-0.098,1.038-0.295
				c0.26-0.195,0.391-0.461,0.391-0.797c0-0.265-0.083-0.475-0.246-0.631c-0.164-0.156-0.438-0.277-0.822-0.365l-1.248-0.301
				c-1.224-0.287-1.836-0.947-1.836-1.98c0-0.631,0.234-1.153,0.702-1.565c0.468-0.411,1.069-0.618,1.806-0.618
				c0.776,0,1.402,0.182,1.878,0.547c0.477,0.363,0.782,0.861,0.918,1.493h-1.248c-0.231-0.655-0.744-0.983-1.536-0.983
				c-0.399,0-0.722,0.094-0.966,0.281c-0.244,0.188-0.366,0.435-0.366,0.738c0,0.488,0.324,0.809,0.973,0.96l1.284,0.3
				c0.6,0.137,1.067,0.377,1.403,0.721s0.504,0.783,0.504,1.32c0,0.68-0.244,1.222-0.731,1.625c-0.488,0.404-1.12,0.606-1.896,0.606
				c-0.784,0-1.438-0.19-1.962-0.57C378.273,354.141,377.947,353.611,377.819,352.931z"/>
			<path fill="#55595E" d="M387.479,347.603h1.2l2.831,7.368h-1.271l-0.756-2.04h-2.82l-0.756,2.04h-1.26L387.479,347.603z
				 M388.066,349.127l-1.008,2.724h2.016L388.066,349.127z"/>
			<path fill="#55595E" d="M398.183,352.234h-1.608v-1.068h2.796v0.576c0,1.008-0.294,1.818-0.882,2.431s-1.338,0.918-2.25,0.918
				c-1,0-1.828-0.354-2.483-1.062c-0.656-0.709-0.984-1.623-0.984-2.742c0-1.12,0.326-2.034,0.979-2.742
				c0.651-0.708,1.466-1.062,2.441-1.062c0.824,0,1.498,0.217,2.022,0.648c0.523,0.432,0.857,1.023,1.002,1.775h-1.248
				c-0.16-0.424-0.378-0.746-0.654-0.965c-0.276-0.221-0.65-0.33-1.122-0.33c-0.647,0-1.17,0.25-1.565,0.75
				c-0.396,0.5-0.595,1.142-0.595,1.926c0,0.791,0.2,1.439,0.601,1.943c0.399,0.504,0.936,0.756,1.607,0.756
				c0.544,0,0.984-0.158,1.32-0.474S398.103,352.771,398.183,352.234z"/>
			<path fill="#55595E" d="M402.455,347.603v7.368h-1.248v-7.368H402.455z"/>
			<path fill="#55595E" d="M410.614,347.603v7.368h-0.96l-3.769-5.363v5.363h-1.199v-7.368h1.176l3.552,5.112v-5.112H410.614z"/>
			<path fill="#55595E" d="M417.862,352.234h-1.608v-1.068h2.796v0.576c0,1.008-0.294,1.818-0.882,2.431s-1.338,0.918-2.25,0.918
				c-1,0-1.828-0.354-2.483-1.062c-0.656-0.709-0.984-1.623-0.984-2.742c0-1.12,0.326-2.034,0.979-2.742
				c0.651-0.708,1.466-1.062,2.441-1.062c0.824,0,1.498,0.217,2.022,0.648c0.523,0.432,0.857,1.023,1.002,1.775h-1.248
				c-0.16-0.424-0.378-0.746-0.654-0.965c-0.276-0.221-0.65-0.33-1.122-0.33c-0.647,0-1.17,0.25-1.565,0.75
				c-0.396,0.5-0.595,1.142-0.595,1.926c0,0.791,0.2,1.439,0.601,1.943c0.399,0.504,0.936,0.756,1.607,0.756
				c0.544,0,0.984-0.158,1.32-0.474S417.782,352.771,417.862,352.234z"/>
		</g>
	</g>
	<rect x="4.332" y="260" fill="#FFFFFF" width="442" height="35"/>
	<g>
		<g>
			<path fill="#55595E" d="M191.499,273.903h5.213v1.196h-3.887v2.105h3.523v1.184h-3.523v2.287h3.887v1.209h-5.213V273.903z"/>
			<path fill="#55595E" d="M205.253,273.903v7.981h-1.04l-4.082-5.811v5.811h-1.3v-7.981h1.274l3.848,5.538v-5.538H205.253z"/>
			<path fill="#55595E" d="M207.67,281.885v-7.981h2.691c1.178,0,2.119,0.362,2.821,1.085c0.702,0.725,1.053,1.693,1.053,2.906
				s-0.351,2.182-1.053,2.905s-1.643,1.085-2.821,1.085H207.67z M209.022,280.676h1.287c0.823,0,1.458-0.246,1.905-0.74
				c0.446-0.494,0.669-1.174,0.669-2.041s-0.224-1.549-0.669-2.048c-0.447-0.498-1.082-0.747-1.905-0.747h-1.287V280.676z"/>
			<path fill="#55595E" d="M219.305,278.908h-1.729v2.977h-1.352v-7.981h3.081c0.841,0,1.506,0.217,1.996,0.649
				c0.49,0.434,0.734,1.054,0.734,1.859c0,0.798-0.245,1.413-0.734,1.846C220.811,278.691,220.146,278.908,219.305,278.908z
				 M220.696,276.412c0-0.407-0.122-0.732-0.364-0.975c-0.243-0.242-0.594-0.364-1.053-0.364h-1.703v2.665h1.703
				c0.451,0,0.799-0.121,1.046-0.364C220.573,277.132,220.696,276.811,220.696,276.412z"/>
			<path fill="#55595E" d="M229.861,274.937c0.693,0.776,1.04,1.762,1.04,2.958c0,1.195-0.347,2.182-1.04,2.957
				s-1.578,1.164-2.652,1.164c-1.075,0-1.956-0.389-2.646-1.164c-0.689-0.775-1.033-1.762-1.033-2.957
				c0-1.196,0.344-2.182,1.033-2.958c0.689-0.775,1.571-1.163,2.646-1.163C228.283,273.773,229.168,274.161,229.861,274.937z
				 M228.893,279.987c0.43-0.546,0.644-1.243,0.644-2.093s-0.214-1.547-0.644-2.094c-0.429-0.545-0.99-0.818-1.684-0.818
				s-1.252,0.271-1.677,0.812c-0.425,0.541-0.637,1.241-0.637,2.1c0,0.857,0.212,1.558,0.637,2.1
				c0.424,0.541,0.983,0.812,1.677,0.812S228.464,280.533,228.893,279.987z"/>
			<path fill="#55595E" d="M234.242,273.903v7.981h-1.352v-7.981H234.242z"/>
			<path fill="#55595E" d="M243.082,273.903v7.981h-1.04l-4.082-5.811v5.811h-1.3v-7.981h1.273l3.848,5.538v-5.538H243.082z"/>
			<path fill="#55595E" d="M245.006,275.1v-1.196h6.656v1.196h-2.652v6.785h-1.352V275.1H245.006z"/>
			<path fill="#55595E" d="M252.961,279.676h1.379c0.251,0.797,0.854,1.195,1.807,1.195c0.469,0,0.843-0.105,1.125-0.318
				c0.281-0.213,0.422-0.5,0.422-0.864c0-0.286-0.089-0.514-0.266-0.683c-0.178-0.169-0.475-0.301-0.891-0.396l-1.353-0.325
				c-1.325-0.312-1.989-1.026-1.989-2.146c0-0.684,0.254-1.25,0.761-1.695c0.507-0.447,1.159-0.67,1.956-0.67
				c0.842,0,1.52,0.197,2.035,0.592s0.848,0.934,0.994,1.618h-1.352c-0.252-0.71-0.807-1.065-1.664-1.065
				c-0.434,0-0.782,0.102-1.047,0.305c-0.264,0.203-0.396,0.471-0.396,0.8c0,0.528,0.352,0.876,1.053,1.04l1.392,0.324
				c0.649,0.148,1.157,0.408,1.521,0.781c0.364,0.372,0.547,0.849,0.547,1.43c0,0.736-0.266,1.324-0.793,1.762
				c-0.529,0.438-1.214,0.656-2.055,0.656c-0.85,0-1.558-0.206-2.125-0.617C253.453,280.986,253.1,280.412,252.961,279.676z"/>
		</g>
	</g>
	<rect x="4.332" y="380" fill="#FFFFFF" width="442" height="35"/>
	<g>
		<g>
			<path fill="#55595E" d="M162.927,394.545h1.092l1.508,5.877l1.443-5.877h1.3l-2.054,7.982h-1.248l-1.508-5.707l-1.534,5.707
				h-1.235l-2.054-7.982h1.326l1.443,5.877L162.927,394.545z"/>
			<path fill="#55595E" d="M175.927,395.578c0.693,0.776,1.04,1.762,1.04,2.958s-0.347,2.183-1.04,2.958s-1.578,1.163-2.652,1.163
				s-1.956-0.388-2.646-1.163c-0.689-0.775-1.033-1.762-1.033-2.958s0.344-2.182,1.033-2.958c0.689-0.775,1.571-1.162,2.646-1.162
				S175.234,394.803,175.927,395.578z M174.958,400.629c0.429-0.545,0.644-1.243,0.644-2.093c0-0.849-0.214-1.547-0.644-2.093
				c-0.429-0.546-0.99-0.818-1.684-0.818s-1.252,0.271-1.677,0.812c-0.425,0.541-0.637,1.24-0.637,2.099s0.212,1.558,0.637,2.1
				c0.424,0.542,0.983,0.812,1.677,0.812S174.53,401.176,174.958,400.629z"/>
			<path fill="#55595E" d="M181.27,399.291h-0.962v3.236h-1.352v-7.982h3.081c0.841,0,1.504,0.207,1.989,0.618
				s0.728,1.003,0.728,1.774c0,0.658-0.18,1.181-0.54,1.566c-0.36,0.386-0.86,0.631-1.501,0.734l2.314,3.289h-1.534L181.27,399.291z
				 M180.308,395.715v2.444h1.703c0.442,0,0.787-0.11,1.034-0.331s0.37-0.518,0.37-0.891s-0.123-0.67-0.37-0.891
				s-0.592-0.332-1.034-0.332H180.308z"/>
			<path fill="#55595E" d="M188.172,394.545v3.822l3.315-3.822h1.703l-3.224,3.627l3.341,4.355h-1.69l-2.626-3.419l-0.819,0.937
				v2.482h-1.352v-7.982H188.172z"/>
			<path fill="#55595E" d="M195.036,394.545h5.213v1.196h-3.887v2.106h3.523v1.183h-3.523v2.288h3.887v1.209h-5.213V394.545z"/>
			<path fill="#55595E" d="M204.683,399.291h-0.962v3.236h-1.352v-7.982h3.081c0.841,0,1.504,0.207,1.989,0.618
				s0.728,1.003,0.728,1.774c0,0.658-0.18,1.181-0.54,1.566c-0.36,0.386-0.86,0.631-1.501,0.734l2.314,3.289h-1.534L204.683,399.291
				z M203.72,395.715v2.444h1.703c0.442,0,0.787-0.11,1.034-0.331s0.37-0.518,0.37-0.891s-0.123-0.67-0.37-0.891
				s-0.592-0.332-1.034-0.332H203.72z"/>
			<path fill="#55595E" d="M209.609,400.317h1.378c0.251,0.798,0.854,1.196,1.807,1.196c0.468,0,0.843-0.106,1.125-0.318
				c0.282-0.213,0.423-0.501,0.423-0.865c0-0.285-0.089-0.514-0.267-0.682c-0.178-0.17-0.475-0.302-0.891-0.396l-1.352-0.326
				c-1.326-0.312-1.989-1.026-1.989-2.145c0-0.685,0.253-1.25,0.76-1.696c0.507-0.446,1.159-0.669,1.957-0.669
				c0.841,0,1.519,0.197,2.035,0.591c0.516,0.395,0.847,0.935,0.995,1.618h-1.352c-0.251-0.71-0.806-1.065-1.664-1.065
				c-0.434,0-0.782,0.102-1.046,0.306c-0.265,0.203-0.397,0.47-0.397,0.799c0,0.529,0.351,0.876,1.053,1.04l1.391,0.325
				c0.65,0.147,1.157,0.408,1.521,0.78c0.364,0.372,0.546,0.849,0.546,1.43c0,0.737-0.265,1.324-0.793,1.762
				c-0.529,0.438-1.213,0.656-2.054,0.656c-0.849,0-1.558-0.206-2.125-0.617C210.102,401.629,209.748,401.055,209.609,400.317z"/>
			<path fill="#55595E" d="M216.954,403.996l0.936-1.443c-0.217-0.033-0.392-0.125-0.526-0.272c-0.135-0.147-0.202-0.333-0.202-0.56
				c0-0.25,0.084-0.459,0.253-0.623c0.169-0.165,0.379-0.247,0.63-0.247c0.26,0,0.473,0.085,0.637,0.253
				c0.165,0.17,0.247,0.41,0.247,0.722c0,0.321-0.126,0.667-0.377,1.04l-0.754,1.131H216.954z"/>
			<path fill="#55595E" d="M226.848,394.545h1.299l3.068,7.982h-1.378l-0.819-2.21h-3.055l-0.819,2.21h-1.365L226.848,394.545z
				 M227.484,396.196l-1.092,2.951h2.184L227.484,396.196z"/>
			<path fill="#55595E" d="M232.385,400.317h1.379c0.25,0.798,0.854,1.196,1.807,1.196c0.468,0,0.842-0.106,1.124-0.318
				c0.282-0.213,0.423-0.501,0.423-0.865c0-0.285-0.09-0.514-0.267-0.682c-0.178-0.17-0.475-0.302-0.891-0.396l-1.353-0.326
				c-1.325-0.312-1.988-1.026-1.988-2.145c0-0.685,0.254-1.25,0.76-1.696c0.508-0.446,1.16-0.669,1.957-0.669
				c0.841,0,1.52,0.197,2.035,0.591c0.516,0.395,0.847,0.935,0.994,1.618h-1.352c-0.252-0.71-0.807-1.065-1.664-1.065
				c-0.434,0-0.783,0.102-1.047,0.306c-0.265,0.203-0.396,0.47-0.396,0.799c0,0.529,0.351,0.876,1.053,1.04l1.391,0.325
				c0.65,0.147,1.157,0.408,1.521,0.78c0.363,0.372,0.546,0.849,0.546,1.43c0,0.737-0.265,1.324-0.793,1.762
				s-1.214,0.656-2.054,0.656c-0.85,0-1.559-0.206-2.126-0.617S232.523,401.055,232.385,400.317z"/>
			<path fill="#55595E" d="M243.305,398.12l2.106-3.575h1.43l-2.899,4.797v3.186h-1.338v-3.186l-2.887-4.797h1.469L243.305,398.12z"
				/>
			<path fill="#55595E" d="M254.992,394.545v7.982h-1.04l-4.082-5.811v5.811h-1.3v-7.982h1.273l3.848,5.539v-5.539H254.992z"/>
			<path fill="#55595E" d="M258.014,401.507c-0.688-0.767-1.033-1.757-1.033-2.971c0-1.213,0.345-2.203,1.033-2.97
				c0.689-0.768,1.555-1.15,2.594-1.15c0.885,0,1.607,0.235,2.172,0.708c0.562,0.472,0.922,1.116,1.078,1.931h-1.326
				c-0.346-0.945-0.987-1.418-1.924-1.418c-0.693,0-1.243,0.271-1.65,0.812c-0.408,0.543-0.611,1.238-0.611,2.087
				c0,0.85,0.203,1.546,0.611,2.087c0.407,0.541,0.957,0.812,1.65,0.812c0.937,0,1.578-0.477,1.924-1.43h1.326
				c-0.156,0.822-0.516,1.471-1.078,1.943c-0.564,0.473-1.287,0.708-2.172,0.708C259.568,402.657,258.703,402.273,258.014,401.507z"
				/>
			<path fill="#55595E" d="M271.189,394.545h1.352v7.982h-1.352v-3.497h-4.018v3.497h-1.352v-7.982h1.352v3.289h4.018V394.545z"/>
			<path fill="#55595E" d="M277.273,399.291h-0.962v3.236h-1.353v-7.982h3.082c0.84,0,1.504,0.207,1.988,0.618
				c0.486,0.411,0.729,1.003,0.729,1.774c0,0.658-0.18,1.181-0.539,1.566c-0.36,0.386-0.861,0.631-1.502,0.734l2.314,3.289h-1.535
				L277.273,399.291z M276.312,395.715v2.444h1.703c0.442,0,0.786-0.11,1.034-0.331c0.246-0.221,0.369-0.518,0.369-0.891
				s-0.123-0.67-0.369-0.891c-0.248-0.221-0.592-0.332-1.034-0.332H276.312z"/>
			<path fill="#55595E" d="M288.727,395.578c0.693,0.776,1.04,1.762,1.04,2.958s-0.347,2.183-1.04,2.958s-1.578,1.163-2.652,1.163
				s-1.956-0.388-2.646-1.163c-0.688-0.775-1.033-1.762-1.033-2.958s0.345-2.182,1.033-2.958c0.689-0.775,1.571-1.162,2.646-1.162
				S288.033,394.803,288.727,395.578z M287.758,400.629c0.43-0.545,0.644-1.243,0.644-2.093c0-0.849-0.214-1.547-0.644-2.093
				c-0.429-0.546-0.99-0.818-1.684-0.818s-1.252,0.271-1.677,0.812c-0.425,0.541-0.638,1.24-0.638,2.099s0.213,1.558,0.638,2.1
				s0.983,0.812,1.677,0.812S287.329,401.176,287.758,400.629z"/>
			<path fill="#55595E" d="M298.178,394.545v7.982h-1.04l-4.082-5.811v5.811h-1.3v-7.982h1.273l3.848,5.539v-5.539H298.178z"/>
			<path fill="#55595E" d="M303.494,398.12l2.106-3.575h1.43l-2.899,4.797v3.186h-1.338v-3.186l-2.887-4.797h1.469L303.494,398.12z"
				/>
		</g>
	</g>
	<rect x="-5.668" y="439" fill="#FFFFFF" width="463" height="35"/>
	<g>
		<g>
			<path fill="#55595E" d="M171.077,452.543c0.693,0.775,1.04,1.762,1.04,2.957c0,1.197-0.347,2.183-1.04,2.958
				c-0.693,0.776-1.578,1.163-2.652,1.163s-1.956-0.387-2.646-1.163c-0.689-0.775-1.033-1.761-1.033-2.958
				c0-1.195,0.344-2.182,1.033-2.957c0.689-0.775,1.571-1.163,2.646-1.163S170.383,451.768,171.077,452.543z M170.108,457.594
				c0.429-0.546,0.644-1.244,0.644-2.094c0-0.849-0.214-1.547-0.644-2.092c-0.429-0.547-0.99-0.819-1.684-0.819
				s-1.252,0.271-1.677,0.812c-0.425,0.542-0.637,1.241-0.637,2.099c0,0.859,0.212,1.559,0.637,2.1
				c0.424,0.543,0.983,0.812,1.677,0.812S169.679,458.14,170.108,457.594z"/>
			<path fill="#55595E" d="M177.187,456.515h-1.729v2.978h-1.352v-7.982h3.081c0.841,0,1.506,0.217,1.996,0.65
				s0.734,1.053,0.734,1.858c0,0.798-0.245,1.413-0.734,1.847S178.027,456.515,177.187,456.515z M178.578,454.019
				c0-0.407-0.122-0.731-0.364-0.976c-0.243-0.242-0.594-0.363-1.053-0.363h-1.703v2.665h1.703c0.451,0,0.799-0.121,1.046-0.364
				C178.454,454.738,178.578,454.418,178.578,454.019z"/>
			<path fill="#55595E" d="M181.84,451.51h5.213v1.195h-3.887v2.106h3.523v1.183h-3.523v2.289h3.887v1.209h-5.213V451.51z"/>
			<path fill="#55595E" d="M191.486,456.255h-0.962v3.237h-1.352v-7.982h3.081c0.841,0,1.504,0.206,1.989,0.617
				c0.485,0.412,0.728,1.004,0.728,1.775c0,0.658-0.18,1.18-0.54,1.566c-0.36,0.385-0.86,0.63-1.501,0.734l2.314,3.289h-1.534
				L191.486,456.255z M190.524,452.68v2.443h1.703c0.442,0,0.787-0.109,1.034-0.331c0.247-0.221,0.37-0.518,0.37-0.89
				c0-0.373-0.123-0.67-0.37-0.891c-0.247-0.222-0.592-0.332-1.034-0.332H190.524z"/>
			<path fill="#55595E" d="M199.481,451.51h1.3l3.068,7.982h-1.378l-0.819-2.211h-3.055l-0.819,2.211h-1.365L199.481,451.51z
				 M200.118,453.16l-1.092,2.951h2.184L200.118,453.16z"/>
			<path fill="#55595E" d="M205.149,452.705v-1.195h6.656v1.195h-2.652v6.787h-1.352v-6.787H205.149z"/>
			<path fill="#55595E" d="M215.081,451.51v7.982h-1.352v-7.982H215.081z"/>
			<path fill="#55595E" d="M223.921,451.51v7.982h-1.04l-4.082-5.812v5.812h-1.3v-7.982h1.274l3.848,5.538v-5.538H223.921z"/>
			<path fill="#55595E" d="M231.772,456.527h-1.741v-1.156h3.028v0.623c0,1.093-0.318,1.971-0.956,2.633
				c-0.637,0.663-1.449,0.994-2.438,0.994c-1.083,0-1.98-0.383-2.69-1.15c-0.711-0.767-1.066-1.756-1.066-2.971
				c0-1.213,0.353-2.203,1.059-2.97c0.707-0.767,1.588-1.15,2.646-1.15c0.893,0,1.622,0.233,2.189,0.702
				c0.568,0.468,0.93,1.109,1.086,1.924h-1.352c-0.174-0.459-0.41-0.809-0.709-1.047s-0.704-0.357-1.215-0.357
				c-0.703,0-1.268,0.271-1.697,0.812c-0.429,0.542-0.644,1.237-0.644,2.086c0,0.859,0.217,1.561,0.65,2.107
				c0.433,0.545,1.014,0.818,1.741,0.818c0.59,0,1.066-0.171,1.431-0.514C231.461,457.57,231.686,457.108,231.772,456.527z"/>
			<path fill="#55595E" d="M237.947,457.281h1.379c0.25,0.798,0.854,1.196,1.807,1.196c0.468,0,0.842-0.106,1.124-0.318
				s0.423-0.501,0.423-0.864c0-0.286-0.09-0.514-0.267-0.683c-0.178-0.169-0.475-0.302-0.891-0.396l-1.353-0.325
				c-1.325-0.312-1.988-1.027-1.988-2.145c0-0.686,0.254-1.25,0.76-1.697c0.508-0.445,1.16-0.669,1.957-0.669
				c0.841,0,1.52,0.197,2.035,0.591c0.516,0.395,0.847,0.935,0.994,1.619h-1.352c-0.252-0.711-0.807-1.066-1.664-1.066
				c-0.434,0-0.783,0.102-1.047,0.306c-0.265,0.204-0.396,0.47-0.396,0.8c0,0.528,0.351,0.875,1.053,1.039l1.391,0.326
				c0.65,0.146,1.157,0.407,1.521,0.779c0.363,0.373,0.546,0.85,0.546,1.43c0,0.737-0.265,1.324-0.793,1.762
				s-1.214,0.656-2.054,0.656c-0.85,0-1.559-0.205-2.126-0.617C238.439,458.593,238.086,458.019,237.947,457.281z"/>
			<path fill="#55595E" d="M248.867,455.084l2.106-3.574h1.43l-2.899,4.797v3.186h-1.338v-3.186l-2.887-4.797h1.469L248.867,455.084
				z"/>
			<path fill="#55595E" d="M253.508,457.281h1.379c0.251,0.798,0.854,1.196,1.807,1.196c0.469,0,0.843-0.106,1.125-0.318
				c0.281-0.212,0.422-0.501,0.422-0.864c0-0.286-0.089-0.514-0.266-0.683c-0.178-0.169-0.475-0.302-0.891-0.396l-1.353-0.325
				c-1.325-0.312-1.989-1.027-1.989-2.145c0-0.686,0.254-1.25,0.761-1.697c0.507-0.445,1.159-0.669,1.956-0.669
				c0.842,0,1.52,0.197,2.035,0.591c0.516,0.395,0.848,0.935,0.994,1.619h-1.352c-0.252-0.711-0.807-1.066-1.664-1.066
				c-0.434,0-0.782,0.102-1.047,0.306c-0.264,0.204-0.396,0.47-0.396,0.8c0,0.528,0.352,0.875,1.053,1.039l1.392,0.326
				c0.649,0.146,1.157,0.407,1.521,0.779c0.364,0.373,0.547,0.85,0.547,1.43c0,0.737-0.266,1.324-0.793,1.762
				c-0.529,0.438-1.214,0.656-2.055,0.656c-0.85,0-1.558-0.205-2.125-0.617C254,458.593,253.646,458.019,253.508,457.281z"/>
			<path fill="#55595E" d="M261.035,452.705v-1.195h6.656v1.195h-2.652v6.787h-1.352v-6.787H261.035z"/>
			<path fill="#55595E" d="M269.615,451.51h5.213v1.195h-3.887v2.106h3.523v1.183h-3.523v2.289h3.887v1.209h-5.213V451.51z"/>
			<path fill="#55595E" d="M281.393,459.492h-0.961l-2.197-5.551v5.551h-1.287v-7.982h1.547l2.431,6.136l2.405-6.136h1.508v7.982
				h-1.3v-5.551L281.393,459.492z"/>
		</g>
	</g>
</g>
</svg>
