<?xml version="1.0" encoding="utf-8"?>
<!-- Generator: Adobe Illustrator 16.0.4, SVG Export Plug-In . SVG Version: 6.00 Build 0)  -->
<!DOCTYPE svg PUBLIC "-//W3C//DTD SVG 1.0//EN" "http://www.w3.org/TR/2001/REC-SVG-20010904/DTD/svg10.dtd">
<svg version="1.0" id="Layer_1" xmlns="http://www.w3.org/2000/svg" xmlns:xlink="http://www.w3.org/1999/xlink" x="0px" y="0px"
	 width="452.664px" height="456px" viewBox="0 0 452.664 456" enable-background="new 0 0 452.664 456" xml:space="preserve">
<g>
	<rect y="-0.451" fill="#F5F6F6" width="452.664" height="456.902"/>
	<rect x="22.811" y="32.269" fill="#FFFFFF" width="118.068" height="410.701"/>
	<g>
		<path fill="#585A5E" d="M41.09,45.954l1.295-2.2h0.881l-1.784,2.952v1.96h-0.824v-1.96l-1.776-2.952h0.904L41.09,45.954z"/>
		<path fill="#585A5E" d="M47.77,44.39c0.426,0.477,0.64,1.084,0.64,1.82s-0.214,1.343-0.64,1.82
			c-0.428,0.478-0.971,0.716-1.633,0.716c-0.66,0-1.203-0.239-1.627-0.716c-0.424-0.477-0.637-1.084-0.637-1.82
			s0.213-1.343,0.637-1.82c0.424-0.478,0.967-0.716,1.627-0.716C46.799,43.673,47.342,43.912,47.77,44.39z M47.174,47.498
			c0.264-0.336,0.396-0.765,0.396-1.288c0-0.522-0.132-0.952-0.396-1.288c-0.265-0.336-0.609-0.504-1.037-0.504
			c-0.426,0-0.77,0.167-1.031,0.5c-0.262,0.333-0.393,0.764-0.393,1.292s0.131,0.959,0.393,1.292c0.262,0.333,0.605,0.5,1.031,0.5
			C46.564,48.001,46.909,47.833,47.174,47.498z"/>
		<path fill="#585A5E" d="M53.117,48.222c-0.355,0.349-0.834,0.524-1.436,0.524c-0.604,0-1.082-0.175-1.437-0.524
			c-0.354-0.35-0.532-0.855-0.532-1.516v-2.952h0.832v2.864c0,0.922,0.379,1.384,1.137,1.384c0.757,0,1.135-0.461,1.135-1.384
			v-2.864h0.832v2.96C53.648,47.37,53.472,47.872,53.117,48.222z"/>
		<path fill="#585A5E" d="M56.641,46.673h-0.592v1.992h-0.832v-4.912h1.896c0.517,0,0.925,0.127,1.224,0.38
			c0.298,0.253,0.448,0.618,0.448,1.092c0,0.405-0.111,0.727-0.332,0.964c-0.222,0.237-0.529,0.388-0.924,0.452l1.424,2.024h-0.944
			L56.641,46.673z M56.049,44.474v1.504h1.048c0.272,0,0.484-0.068,0.636-0.204c0.152-0.136,0.229-0.318,0.229-0.548
			s-0.076-0.412-0.229-0.548c-0.151-0.136-0.363-0.204-0.636-0.204H56.049z"/>
		<path fill="#585A5E" d="M62.545,43.753h3.208v0.736h-2.392v1.296h2.168v0.728h-2.168v1.408h2.392v0.744h-3.208V43.753z"/>
		<path fill="#585A5E" d="M71.097,43.753l-1.664,2.392l1.744,2.52h-0.952l-1.271-1.848l-1.272,1.848h-0.928l1.735-2.504
			l-1.655-2.408h0.952l1.184,1.736l1.208-1.736H71.097z"/>
		<path fill="#585A5E" d="M73.185,43.753v4.912h-0.832v-4.912H73.185z"/>
		<path fill="#585A5E" d="M74.449,47.306h0.848c0.154,0.491,0.525,0.736,1.111,0.736c0.289,0,0.52-0.065,0.692-0.196
			c0.173-0.131,0.26-0.308,0.26-0.532c0-0.176-0.055-0.316-0.163-0.42c-0.109-0.104-0.293-0.185-0.549-0.244l-0.832-0.2
			c-0.816-0.192-1.224-0.632-1.224-1.32c0-0.421,0.155-0.769,0.468-1.044c0.312-0.274,0.713-0.412,1.204-0.412
			c0.517,0,0.935,0.122,1.252,0.364s0.521,0.575,0.612,0.996h-0.832c-0.155-0.438-0.496-0.656-1.024-0.656
			c-0.267,0-0.481,0.063-0.644,0.188c-0.163,0.125-0.244,0.29-0.244,0.492c0,0.325,0.216,0.539,0.648,0.64l0.855,0.2
			c0.4,0.091,0.712,0.251,0.936,0.48c0.225,0.229,0.336,0.523,0.336,0.88c0,0.454-0.162,0.815-0.488,1.084
			c-0.324,0.27-0.746,0.404-1.264,0.404c-0.522,0-0.959-0.126-1.308-0.38C74.751,48.112,74.533,47.759,74.449,47.306z"/>
		<path fill="#585A5E" d="M79.152,44.49v-0.736h4.096v0.736h-1.631v4.176h-0.832V44.49H79.152z"/>
		<path fill="#585A5E" d="M85.416,43.753v4.912h-0.832v-4.912H85.416z"/>
		<path fill="#585A5E" d="M91.009,43.753v4.912h-0.64l-2.512-3.576v3.576h-0.801v-4.912h0.784l2.368,3.408v-3.408H91.009z"/>
		<path fill="#585A5E" d="M96,46.841h-1.072v-0.712h1.865v0.384c0,0.672-0.197,1.212-0.589,1.62c-0.392,0.408-0.892,0.612-1.5,0.612
			c-0.667,0-1.219-0.236-1.655-0.708c-0.438-0.472-0.656-1.082-0.656-1.828s0.217-1.356,0.652-1.828
			c0.434-0.472,0.977-0.708,1.627-0.708c0.55,0,0.999,0.144,1.349,0.432c0.349,0.288,0.571,0.683,0.668,1.184h-0.832
			c-0.106-0.283-0.252-0.497-0.437-0.644c-0.184-0.146-0.434-0.22-0.748-0.22c-0.432,0-0.779,0.167-1.043,0.5
			c-0.265,0.333-0.396,0.762-0.396,1.284c0,0.528,0.133,0.96,0.4,1.296c0.266,0.336,0.623,0.504,1.071,0.504
			c0.362,0,0.656-0.105,0.88-0.316C95.809,47.483,95.947,47.199,96,46.841z"/>
		<path fill="#585A5E" d="M100.201,44.49v-0.736h4.096v0.736h-1.633v4.176h-0.832V44.49H100.201z"/>
		<path fill="#585A5E" d="M109.016,44.39c0.428,0.477,0.641,1.084,0.641,1.82s-0.213,1.343-0.641,1.82
			c-0.426,0.478-0.971,0.716-1.631,0.716c-0.662,0-1.205-0.239-1.629-0.716c-0.424-0.477-0.636-1.084-0.636-1.82
			s0.212-1.343,0.636-1.82c0.424-0.478,0.967-0.716,1.629-0.716C108.045,43.673,108.59,43.912,109.016,44.39z M108.42,47.498
			c0.265-0.336,0.396-0.765,0.396-1.288c0-0.522-0.132-0.952-0.396-1.288c-0.264-0.336-0.609-0.504-1.035-0.504
			c-0.428,0-0.771,0.167-1.032,0.5c-0.262,0.333-0.392,0.764-0.392,1.292s0.13,0.959,0.392,1.292c0.261,0.333,0.604,0.5,1.032,0.5
			C107.811,48.001,108.156,47.833,108.42,47.498z"/>
		<path fill="#585A5E" d="M114.704,44.39c0.427,0.477,0.64,1.084,0.64,1.82s-0.213,1.343-0.64,1.82
			c-0.427,0.478-0.971,0.716-1.632,0.716s-1.204-0.239-1.628-0.716c-0.424-0.477-0.636-1.084-0.636-1.82s0.212-1.343,0.636-1.82
			c0.424-0.478,0.967-0.716,1.628-0.716S114.277,43.912,114.704,44.39z M114.108,47.498c0.265-0.336,0.396-0.765,0.396-1.288
			c0-0.522-0.131-0.952-0.396-1.288s-0.609-0.504-1.036-0.504s-0.771,0.167-1.031,0.5c-0.262,0.333-0.393,0.764-0.393,1.292
			s0.131,0.959,0.393,1.292c0.261,0.333,0.604,0.5,1.031,0.5S113.844,47.833,114.108,47.498z"/>
		<path fill="#585A5E" d="M116.721,48.666v-4.912h0.832v4.168h2.359v0.744H116.721z"/>
		<path fill="#585A5E" d="M120.936,47.306h0.848c0.155,0.491,0.525,0.736,1.113,0.736c0.287,0,0.518-0.065,0.691-0.196
			c0.174-0.131,0.26-0.308,0.26-0.532c0-0.176-0.055-0.316-0.164-0.42s-0.291-0.185-0.548-0.244l-0.832-0.2
			c-0.815-0.192-1.224-0.632-1.224-1.32c0-0.421,0.156-0.769,0.468-1.044c0.312-0.274,0.714-0.412,1.204-0.412
			c0.518,0,0.935,0.122,1.252,0.364s0.521,0.575,0.611,0.996h-0.832c-0.154-0.438-0.495-0.656-1.023-0.656
			c-0.267,0-0.481,0.063-0.645,0.188c-0.162,0.125-0.243,0.29-0.243,0.492c0,0.325,0.216,0.539,0.647,0.64l0.856,0.2
			c0.399,0.091,0.712,0.251,0.937,0.48c0.223,0.229,0.336,0.523,0.336,0.88c0,0.454-0.163,0.815-0.488,1.084
			c-0.326,0.27-0.747,0.404-1.264,0.404c-0.523,0-0.959-0.126-1.309-0.38S121.021,47.759,120.936,47.306z"/>
	</g>
	<g>
		<path fill="#585A5E" d="M257.963,46.129c0.234,0.075,0.428,0.217,0.576,0.428c0.149,0.21,0.225,0.444,0.225,0.7
			c0,0.454-0.148,0.802-0.444,1.044s-0.702,0.364-1.22,0.364h-1.881v-4.912h1.721c0.522,0,0.931,0.115,1.224,0.344
			c0.294,0.229,0.44,0.56,0.44,0.992c0,0.256-0.061,0.478-0.18,0.664C258.303,45.94,258.15,46.065,257.963,46.129z M256.027,45.817
			h0.904c0.581,0,0.871-0.227,0.871-0.68c0-0.443-0.29-0.664-0.871-0.664h-0.904V45.817z M256.027,46.505v1.44h1.057
			c0.276,0,0.49-0.064,0.639-0.192c0.15-0.128,0.225-0.304,0.225-0.528s-0.074-0.4-0.225-0.528
			c-0.148-0.128-0.362-0.192-0.639-0.192H256.027z"/>
		<path fill="#585A5E" d="M261.571,43.753h0.8l1.889,4.912h-0.848l-0.505-1.36h-1.88l-0.504,1.36h-0.84L261.571,43.753z
			 M261.963,44.77l-0.672,1.816h1.344L261.963,44.77z"/>
		<path fill="#585A5E" d="M265.516,48.666v-4.912h0.832v4.168h2.359v0.744H265.516z"/>
		<path fill="#585A5E" d="M270.115,48.666v-4.912h0.832v4.168h2.359v0.744H270.115z"/>
		<path fill="#585A5E" d="M274.715,43.753h3.208v0.736h-2.392v1.296h2.168v0.728h-2.168v1.408h2.392v0.744h-3.208V43.753z"/>
		<path fill="#585A5E" d="M280.811,46.673h-0.592v1.992h-0.832v-4.912h1.896c0.518,0,0.926,0.127,1.225,0.38
			c0.298,0.253,0.447,0.618,0.447,1.092c0,0.405-0.11,0.727-0.332,0.964c-0.221,0.237-0.529,0.388-0.924,0.452l1.424,2.024h-0.943
			L280.811,46.673z M280.219,44.474v1.504h1.049c0.271,0,0.484-0.068,0.636-0.204c0.151-0.136,0.228-0.318,0.228-0.548
			s-0.076-0.412-0.228-0.548c-0.151-0.136-0.364-0.204-0.636-0.204H280.219z"/>
		<path fill="#585A5E" d="M285.219,43.753v4.912h-0.832v-4.912H285.219z"/>
		<path fill="#585A5E" d="M290.811,43.753v4.912h-0.64l-2.512-3.576v3.576h-0.8v-4.912h0.783l2.368,3.408v-3.408H290.811z"/>
		<path fill="#585A5E" d="M293.963,43.753h0.801l1.887,4.912h-0.848l-0.504-1.36h-1.88l-0.504,1.36h-0.84L293.963,43.753z
			 M294.355,44.77l-0.672,1.816h1.344L294.355,44.77z"/>
		<path fill="#585A5E" d="M299.939,44.49v-0.736h4.096v0.736h-1.633v4.176h-0.832V44.49H299.939z"/>
		<path fill="#585A5E" d="M308.754,44.39c0.428,0.477,0.641,1.084,0.641,1.82s-0.213,1.343-0.641,1.82
			c-0.426,0.478-0.971,0.716-1.631,0.716c-0.662,0-1.205-0.239-1.629-0.716c-0.424-0.477-0.636-1.084-0.636-1.82
			s0.212-1.343,0.636-1.82c0.424-0.478,0.967-0.716,1.629-0.716C307.783,43.673,308.328,43.912,308.754,44.39z M308.158,47.498
			c0.265-0.336,0.396-0.765,0.396-1.288c0-0.522-0.132-0.952-0.396-1.288c-0.264-0.336-0.609-0.504-1.035-0.504
			c-0.428,0-0.771,0.167-1.032,0.5c-0.262,0.333-0.392,0.764-0.392,1.292s0.13,0.959,0.392,1.292c0.261,0.333,0.604,0.5,1.032,0.5
			C307.549,48.001,307.895,47.833,308.158,47.498z"/>
		<path fill="#585A5E" d="M314.442,44.39c0.427,0.477,0.64,1.084,0.64,1.82s-0.213,1.343-0.64,1.82
			c-0.427,0.478-0.971,0.716-1.632,0.716s-1.204-0.239-1.628-0.716c-0.424-0.477-0.636-1.084-0.636-1.82s0.212-1.343,0.636-1.82
			c0.424-0.478,0.967-0.716,1.628-0.716S314.016,43.912,314.442,44.39z M313.847,47.498c0.265-0.336,0.396-0.765,0.396-1.288
			c0-0.522-0.131-0.952-0.396-1.288s-0.609-0.504-1.036-0.504s-0.771,0.167-1.031,0.5c-0.262,0.333-0.393,0.764-0.393,1.292
			s0.131,0.959,0.393,1.292c0.261,0.333,0.604,0.5,1.031,0.5S313.582,47.833,313.847,47.498z"/>
		<path fill="#585A5E" d="M316.459,48.666v-4.912h0.832v4.168h2.359v0.744H316.459z"/>
		<path fill="#585A5E" d="M320.675,47.306h0.848c0.155,0.491,0.525,0.736,1.112,0.736c0.288,0,0.519-0.065,0.691-0.196
			c0.174-0.131,0.26-0.308,0.26-0.532c0-0.176-0.055-0.316-0.163-0.42c-0.109-0.104-0.292-0.185-0.548-0.244l-0.832-0.2
			c-0.816-0.192-1.225-0.632-1.225-1.32c0-0.421,0.156-0.769,0.469-1.044c0.312-0.274,0.713-0.412,1.203-0.412
			c0.518,0,0.936,0.122,1.252,0.364c0.318,0.243,0.521,0.575,0.612,0.996h-0.832c-0.155-0.438-0.495-0.656-1.024-0.656
			c-0.266,0-0.48,0.063-0.644,0.188c-0.163,0.125-0.243,0.29-0.243,0.492c0,0.325,0.215,0.539,0.647,0.64l0.856,0.2
			c0.399,0.091,0.711,0.251,0.936,0.48c0.224,0.229,0.336,0.523,0.336,0.88c0,0.454-0.162,0.815-0.488,1.084
			c-0.325,0.27-0.746,0.404-1.264,0.404c-0.523,0-0.959-0.126-1.309-0.38S320.76,47.759,320.675,47.306z"/>
	</g>
	
		<line fill="none" stroke="#A7A8AB" stroke-width="0.5" stroke-miterlimit="10" stroke-dasharray="0.5,2" x1="429.402" y1="139.89" x2="32.873" y2="139.89"/>
	
		<line fill="none" stroke="#A7A8AB" stroke-width="0.5" stroke-miterlimit="10" stroke-dasharray="0.5,2" x1="429.402" y1="222.89" x2="32.873" y2="222.89"/>
	
		<line fill="none" stroke="#A7A8AB" stroke-width="0.5" stroke-miterlimit="10" stroke-dasharray="0.5,2" x1="429.402" y1="359.434" x2="32.873" y2="359.434"/>
	<g>
		<line fill="none" stroke="#585A5E" stroke-miterlimit="10" x1="289.957" y1="400.087" x2="289.957" y2="390.408"/>
		<polygon fill="#585A5E" points="292.948,399.211 289.956,404.393 286.966,399.211 		"/>
	</g>
	<line fill="none" stroke="#585A5E" stroke-miterlimit="10" x1="100.536" y1="380.168" x2="164.337" y2="380.168"/>
	
		<rect x="150.477" y="369.93" fill="#FFFFFF" stroke="#A7A8AB" stroke-width="0.5026" stroke-miterlimit="10" width="278.387" height="20.738"/>
	<g>
		<g>
			<path fill="#585A5E" d="M256.357,379.972c0.264,0.084,0.479,0.244,0.647,0.48c0.168,0.238,0.252,0.5,0.252,0.788
				c0,0.511-0.167,0.901-0.499,1.175c-0.334,0.273-0.791,0.409-1.373,0.409h-2.115v-5.526h1.936c0.588,0,1.047,0.129,1.377,0.387
				c0.33,0.259,0.494,0.631,0.494,1.117c0,0.287-0.066,0.537-0.202,0.746C256.739,379.759,256.566,379.9,256.357,379.972z
				 M254.179,379.621h1.017c0.654,0,0.981-0.255,0.981-0.766c0-0.497-0.327-0.746-0.981-0.746h-1.017V379.621z M254.179,380.394
				v1.621h1.188c0.312,0,0.551-0.072,0.72-0.217c0.167-0.144,0.252-0.342,0.252-0.594s-0.085-0.449-0.252-0.594
				c-0.169-0.145-0.408-0.217-0.72-0.217H254.179z"/>
			<path fill="#585A5E" d="M260.406,377.298h0.9l2.124,5.526h-0.954l-0.566-1.53h-2.115l-0.567,1.53h-0.944L260.406,377.298z
				 M260.848,378.442l-0.756,2.043h1.512L260.848,378.442z"/>
			<path fill="#585A5E" d="M264.844,382.825v-5.526h0.936v4.689h2.655v0.837H264.844z"/>
			<path fill="#585A5E" d="M270.019,382.825v-5.526h0.937v4.689h2.654v0.837H270.019z"/>
			<path fill="#585A5E" d="M275.193,377.298h3.609v0.828h-2.691v1.458h2.439v0.819h-2.439v1.584h2.691v0.837h-3.609V377.298z"/>
			<path fill="#585A5E" d="M282.051,380.583h-0.666v2.241h-0.936v-5.526h2.133c0.582,0,1.041,0.143,1.377,0.428
				s0.504,0.695,0.504,1.229c0,0.456-0.124,0.818-0.373,1.084c-0.249,0.268-0.596,0.438-1.039,0.51l1.602,2.276h-1.062
				L282.051,380.583z M281.385,378.109v1.691h1.18c0.307,0,0.545-0.076,0.715-0.229c0.172-0.154,0.258-0.359,0.258-0.617
				s-0.086-0.463-0.258-0.616c-0.17-0.153-0.408-0.229-0.715-0.229H281.385z"/>
			<path fill="#585A5E" d="M287.01,377.298v5.526h-0.936v-5.526H287.01z"/>
			<path fill="#585A5E" d="M293.311,377.298v5.526h-0.721l-2.825-4.022v4.022h-0.9v-5.526h0.882l2.664,3.834v-3.834H293.311z"/>
			<path fill="#585A5E" d="M296.856,377.298h0.899l2.125,5.526h-0.955l-0.566-1.53h-2.115l-0.566,1.53h-0.945L296.856,377.298z
				 M297.297,378.442l-0.756,2.043h1.512L297.297,378.442z"/>
			<path fill="#585A5E" d="M306.055,380.763h-1.197v2.062h-0.937v-5.526h2.134c0.582,0,1.042,0.15,1.381,0.45
				s0.508,0.729,0.508,1.287c0,0.552-0.169,0.978-0.508,1.278C307.097,380.614,306.637,380.763,306.055,380.763z M307.018,379.036
				c0-0.282-0.084-0.507-0.252-0.675s-0.412-0.252-0.729-0.252h-1.179v1.845h1.179c0.312,0,0.554-0.084,0.725-0.252
				S307.018,379.312,307.018,379.036z"/>
			<path fill="#585A5E" d="M313.178,382.326c-0.398,0.393-0.938,0.589-1.615,0.589s-1.217-0.196-1.615-0.589
				c-0.4-0.394-0.6-0.962-0.6-1.706v-3.321h0.937v3.223c0,1.037,0.426,1.557,1.278,1.557c0.852,0,1.277-0.52,1.277-1.557v-3.223
				h0.937v3.33C313.776,381.367,313.576,381.932,313.178,382.326z"/>
			<path fill="#585A5E" d="M315.09,381.294h0.954c0.175,0.553,0.591,0.828,1.251,0.828c0.324,0,0.584-0.073,0.779-0.221
				c0.194-0.146,0.292-0.346,0.292-0.598c0-0.199-0.062-0.355-0.185-0.473s-0.328-0.209-0.617-0.275l-0.936-0.225
				c-0.918-0.216-1.377-0.711-1.377-1.484c0-0.475,0.176-0.865,0.527-1.175c0.351-0.31,0.802-0.464,1.354-0.464
				c0.582,0,1.052,0.137,1.408,0.41c0.357,0.272,0.587,0.646,0.689,1.12h-0.937c-0.174-0.492-0.558-0.738-1.151-0.738
				c-0.301,0-0.542,0.071-0.725,0.212c-0.184,0.141-0.275,0.325-0.275,0.553c0,0.367,0.244,0.606,0.729,0.721l0.963,0.225
				c0.45,0.103,0.802,0.282,1.054,0.54c0.252,0.259,0.377,0.589,0.377,0.99c0,0.511-0.183,0.917-0.549,1.22
				c-0.365,0.303-0.84,0.454-1.422,0.454c-0.588,0-1.078-0.142-1.471-0.427C315.431,382.203,315.186,381.804,315.09,381.294z"/>
			<path fill="#585A5E" d="M324.521,377.298h0.937v5.526h-0.937v-2.421h-2.781v2.421h-0.936v-5.526h0.936v2.277h2.781V377.298z"/>
		</g>
	</g>
	<rect x="150.226" y="411.392" fill="#3AD1CA" width="278.891" height="21.238"/>
	<g>
		<path fill="#FFFFFF" d="M213.123,421.896c0.264,0.084,0.479,0.244,0.648,0.48c0.168,0.238,0.252,0.5,0.252,0.788
			c0,0.511-0.167,0.901-0.5,1.175s-0.791,0.409-1.373,0.409h-2.115v-5.526h1.936c0.588,0,1.047,0.129,1.377,0.387
			c0.33,0.259,0.495,0.631,0.495,1.117c0,0.287-0.067,0.537-0.202,0.746C213.506,421.683,213.333,421.824,213.123,421.896z
			 M210.945,421.544h1.017c0.653,0,0.981-0.255,0.981-0.766c0-0.497-0.328-0.746-0.981-0.746h-1.017V421.544z M210.945,422.318
			v1.621h1.188c0.312,0,0.552-0.072,0.721-0.217c0.167-0.144,0.252-0.342,0.252-0.594s-0.085-0.449-0.252-0.594
			c-0.169-0.145-0.408-0.217-0.721-0.217H210.945z"/>
		<path fill="#FFFFFF" d="M219.364,424.25c-0.399,0.393-0.938,0.589-1.616,0.589c-0.678,0-1.216-0.196-1.615-0.589
			c-0.398-0.394-0.598-0.962-0.598-1.706v-3.321h0.936v3.223c0,1.037,0.426,1.557,1.277,1.557c0.853,0,1.279-0.52,1.279-1.557
			v-3.223h0.936v3.33C219.963,423.291,219.764,423.856,219.364,424.25z"/>
		<path fill="#FFFFFF" d="M222.662,419.222v5.526h-0.936v-5.526H222.662z"/>
		<path fill="#FFFFFF" d="M224.517,424.749v-5.526h0.937v4.689h2.654v0.837H224.517z"/>
		<path fill="#FFFFFF" d="M229.691,424.749v-5.526h1.863c0.816,0,1.467,0.251,1.953,0.752s0.729,1.172,0.729,2.012
			s-0.242,1.51-0.729,2.012c-0.486,0.5-1.137,0.751-1.953,0.751H229.691z M230.627,423.912h0.892c0.569,0,1.009-0.171,1.318-0.514
			c0.31-0.342,0.464-0.812,0.464-1.412s-0.154-1.072-0.464-1.418c-0.31-0.345-0.749-0.518-1.318-0.518h-0.892V423.912z"/>
		<path fill="#FFFFFF" d="M238.412,424.749v-5.526h0.936v4.689h2.656v0.837H238.412z"/>
		<path fill="#FFFFFF" d="M247.674,419.938c0.479,0.537,0.719,1.22,0.719,2.048s-0.24,1.51-0.719,2.047
			c-0.48,0.537-1.093,0.806-1.837,0.806c-0.743,0-1.354-0.269-1.831-0.806s-0.716-1.219-0.716-2.047s0.239-1.511,0.716-2.048
			c0.477-0.536,1.088-0.806,1.831-0.806C246.581,419.132,247.193,419.402,247.674,419.938z M247.002,423.435
			c0.298-0.379,0.446-0.861,0.446-1.449s-0.148-1.071-0.446-1.449c-0.297-0.378-0.686-0.566-1.165-0.566s-0.866,0.188-1.161,0.562
			c-0.294,0.375-0.441,0.859-0.441,1.453s0.147,1.078,0.441,1.453c0.295,0.375,0.682,0.562,1.161,0.562
			S246.705,423.812,247.002,423.435z"/>
		<path fill="#FFFFFF" d="M250.369,424.042c-0.477-0.531-0.716-1.217-0.716-2.057s0.239-1.525,0.716-2.057s1.075-0.797,1.795-0.797
			c0.612,0,1.113,0.164,1.504,0.49c0.389,0.328,0.639,0.773,0.746,1.337h-0.918c-0.24-0.653-0.684-0.981-1.332-0.981
			c-0.48,0-0.861,0.188-1.143,0.562c-0.282,0.375-0.424,0.857-0.424,1.445s0.142,1.069,0.424,1.444
			c0.281,0.375,0.662,0.562,1.143,0.562c0.648,0,1.092-0.33,1.332-0.99h0.918c-0.107,0.57-0.357,1.019-0.746,1.346
			c-0.391,0.327-0.892,0.49-1.504,0.49C251.444,424.838,250.846,424.574,250.369,424.042z"/>
		<path fill="#FFFFFF" d="M256.889,419.222v2.646l2.295-2.646h1.18l-2.232,2.512l2.312,3.015h-1.17l-1.817-2.367l-0.567,0.647v1.72
			h-0.936v-5.526H256.889z"/>
		<path fill="#FFFFFF" d="M266.132,419.222h0.899l2.125,5.526h-0.955l-0.566-1.53h-2.115l-0.566,1.53h-0.945L266.132,419.222z
			 M266.572,420.366l-0.756,2.043h1.512L266.572,420.366z"/>
		<path fill="#FFFFFF" d="M275.023,419.222v5.526h-0.72l-2.825-4.022v4.022h-0.9v-5.526h0.882l2.664,3.834v-3.834H275.023z"/>
		<path fill="#FFFFFF" d="M276.877,424.749v-5.526h1.863c0.816,0,1.467,0.251,1.953,0.752s0.729,1.172,0.729,2.012
			s-0.243,1.51-0.729,2.012c-0.486,0.5-1.137,0.751-1.953,0.751H276.877z M277.813,423.912h0.892c0.569,0,1.009-0.171,1.318-0.514
			c0.309-0.342,0.463-0.812,0.463-1.412s-0.154-1.072-0.463-1.418c-0.31-0.345-0.749-0.518-1.318-0.518h-0.892V423.912z"/>
		<path fill="#FFFFFF" d="M288.686,421.896c0.264,0.084,0.479,0.244,0.648,0.48c0.168,0.238,0.252,0.5,0.252,0.788
			c0,0.511-0.167,0.901-0.5,1.175s-0.791,0.409-1.373,0.409h-2.115v-5.526h1.936c0.588,0,1.047,0.129,1.377,0.387
			c0.33,0.259,0.495,0.631,0.495,1.117c0,0.287-0.067,0.537-0.202,0.746C289.068,421.683,288.896,421.824,288.686,421.896z
			 M286.508,421.544h1.017c0.653,0,0.981-0.255,0.981-0.766c0-0.497-0.328-0.746-0.981-0.746h-1.017V421.544z M286.508,422.318
			v1.621h1.188c0.312,0,0.552-0.072,0.721-0.217c0.167-0.144,0.252-0.342,0.252-0.594s-0.085-0.449-0.252-0.594
			c-0.169-0.145-0.408-0.217-0.721-0.217H286.508z"/>
		<path fill="#FFFFFF" d="M292.123,419.222v5.526h-0.936v-5.526H292.123z"/>
		<path fill="#FFFFFF" d="M293.977,424.749v-5.526h0.937v4.689h2.655v0.837H293.977z"/>
		<path fill="#FFFFFF" d="M299.152,424.749v-5.526h0.936v4.689h2.656v0.837H299.152z"/>
		<path fill="#FFFFFF" d="M311.032,419.938c0.479,0.537,0.72,1.22,0.72,2.048s-0.24,1.51-0.72,2.047
			c-0.48,0.537-1.093,0.806-1.837,0.806c-0.743,0-1.354-0.269-1.831-0.806c-0.477-0.537-0.716-1.219-0.716-2.047
			s0.239-1.511,0.716-2.048c0.478-0.536,1.088-0.806,1.831-0.806C309.939,419.132,310.552,419.402,311.032,419.938z
			 M310.361,423.435c0.297-0.379,0.445-0.861,0.445-1.449s-0.148-1.071-0.445-1.449s-0.686-0.566-1.166-0.566
			c-0.479,0-0.866,0.188-1.16,0.562c-0.295,0.375-0.441,0.859-0.441,1.453s0.146,1.078,0.441,1.453
			c0.294,0.375,0.681,0.562,1.16,0.562C309.676,424.001,310.064,423.812,310.361,423.435z"/>
		<path fill="#FFFFFF" d="M314.245,424.749h-0.937v-5.526h3.529v0.828h-2.593v1.639h2.421v0.818h-2.421V424.749z"/>
		<path fill="#FFFFFF" d="M324.091,424.749h-0.666l-1.521-3.843v3.843h-0.892v-5.526h1.071l1.684,4.248l1.664-4.248h1.045v5.526
			h-0.9v-3.843L324.091,424.749z"/>
		<path fill="#FFFFFF" d="M330.021,419.222h0.9l2.124,5.526h-0.954l-0.566-1.53h-2.115l-0.567,1.53h-0.944L330.021,419.222z
			 M330.463,420.366l-0.756,2.043h1.512L330.463,420.366z"/>
		<path fill="#FFFFFF" d="M334.126,420.05v-0.828h4.608v0.828h-1.836v4.698h-0.937v-4.698H334.126z"/>
		<path fill="#FFFFFF" d="M340.246,419.222h3.609v0.828h-2.691v1.458h2.439v0.819h-2.439v1.584h2.691v0.837h-3.609V419.222z"/>
		<path fill="#FFFFFF" d="M347.104,422.507h-0.666v2.241h-0.936v-5.526h2.133c0.582,0,1.041,0.143,1.377,0.428
			s0.504,0.695,0.504,1.229c0,0.456-0.125,0.818-0.373,1.084c-0.25,0.268-0.596,0.438-1.04,0.51l1.603,2.276h-1.062L347.104,422.507
			z M346.438,420.033v1.691h1.18c0.306,0,0.544-0.076,0.715-0.229c0.171-0.154,0.257-0.359,0.257-0.617s-0.086-0.463-0.257-0.616
			s-0.409-0.229-0.715-0.229H346.438z"/>
		<path fill="#FFFFFF" d="M352.062,419.222v5.526h-0.936v-5.526H352.062z"/>
		<path fill="#FFFFFF" d="M355.609,419.222h0.899l2.124,5.526h-0.954l-0.567-1.53h-2.115l-0.566,1.53h-0.945L355.609,419.222z
			 M356.05,420.366l-0.757,2.043h1.513L356.05,420.366z"/>
		<path fill="#FFFFFF" d="M360.055,424.749v-5.526h0.936v4.689h2.656v0.837H360.055z"/>
		<path fill="#FFFFFF" d="M364.798,423.218h0.954c0.174,0.553,0.591,0.828,1.25,0.828c0.324,0,0.584-0.073,0.779-0.221
			c0.195-0.146,0.293-0.346,0.293-0.598c0-0.199-0.062-0.355-0.186-0.473s-0.328-0.209-0.616-0.275l-0.936-0.225
			c-0.919-0.216-1.378-0.711-1.378-1.484c0-0.475,0.176-0.865,0.527-1.175s0.803-0.464,1.354-0.464c0.581,0,1.052,0.137,1.408,0.41
			c0.356,0.272,0.587,0.646,0.688,1.12h-0.936c-0.174-0.492-0.559-0.738-1.152-0.738c-0.3,0-0.541,0.071-0.725,0.212
			s-0.274,0.325-0.274,0.553c0,0.367,0.243,0.606,0.729,0.721l0.963,0.225c0.449,0.103,0.801,0.282,1.053,0.54
			c0.252,0.259,0.378,0.589,0.378,0.99c0,0.511-0.183,0.917-0.549,1.22s-0.841,0.454-1.423,0.454c-0.588,0-1.078-0.142-1.471-0.427
			S364.894,423.728,364.798,423.218z"/>
	</g>
	
		<rect x="32.873" y="370.067" fill="#FFFFFF" stroke="#A7A8AB" stroke-width="0.6836" stroke-miterlimit="10" width="97.943" height="46.992"/>
	<g>
		<path fill="#585A5E" d="M56.883,386.128H56.14v2.499h-1.044v-6.161h2.379c0.648,0,1.16,0.158,1.535,0.477
			c0.375,0.317,0.562,0.773,0.562,1.369c0,0.509-0.14,0.912-0.417,1.209c-0.278,0.299-0.664,0.487-1.159,0.567l1.787,2.539h-1.186
			L56.883,386.128z M56.14,383.369v1.887h1.314c0.341,0,0.607-0.085,0.798-0.256c0.191-0.17,0.286-0.399,0.286-0.688
			c0-0.287-0.095-0.517-0.286-0.688c-0.19-0.17-0.457-0.256-0.798-0.256H56.14z"/>
		<path fill="#585A5E" d="M61.368,382.466h4.024v0.923h-3.001v1.626h2.72v0.912h-2.72v1.768h3.001v0.933h-4.024V382.466z"/>
		<path fill="#585A5E" d="M71.424,386.339h-1.346v-0.893h2.339v0.48c0,0.844-0.245,1.521-0.737,2.033s-1.119,0.768-1.882,0.768
			c-0.837,0-1.528-0.297-2.077-0.889s-0.823-1.355-0.823-2.293c0-0.937,0.272-1.701,0.817-2.293
			c0.546-0.592,1.227-0.889,2.043-0.889c0.689,0,1.252,0.182,1.691,0.543c0.438,0.361,0.717,0.855,0.838,1.484h-1.044
			c-0.134-0.354-0.316-0.623-0.548-0.808c-0.23-0.184-0.543-0.276-0.938-0.276c-0.542,0-0.979,0.21-1.31,0.628
			s-0.497,0.955-0.497,1.61c0,0.662,0.168,1.205,0.502,1.626s0.783,0.632,1.345,0.632c0.455,0,0.823-0.132,1.104-0.396
			C71.183,387.144,71.356,386.788,71.424,386.339z"/>
		<path fill="#585A5E" d="M75.197,382.466v6.161h-1.044v-6.161H75.197z"/>
		<path fill="#585A5E" d="M76.782,386.921h1.063c0.194,0.615,0.659,0.924,1.395,0.924c0.361,0,0.651-0.082,0.869-0.246
			c0.217-0.164,0.326-0.387,0.326-0.668c0-0.221-0.068-0.396-0.206-0.526c-0.138-0.131-0.366-0.232-0.688-0.306l-1.044-0.252
			c-1.023-0.24-1.535-0.793-1.535-1.655c0-0.528,0.195-0.965,0.587-1.31s0.896-0.518,1.511-0.518c0.648,0,1.172,0.152,1.57,0.457
			s0.654,0.721,0.768,1.25h-1.043c-0.195-0.549-0.623-0.823-1.285-0.823c-0.334,0-0.604,0.079-0.808,0.235
			c-0.204,0.158-0.306,0.363-0.306,0.617c0,0.408,0.271,0.676,0.812,0.803l1.074,0.252c0.501,0.113,0.893,0.314,1.174,0.602
			s0.421,0.656,0.421,1.104c0,0.569-0.204,1.022-0.612,1.36s-0.937,0.507-1.586,0.507c-0.655,0-1.202-0.159-1.641-0.477
			C77.162,387.933,76.889,387.49,76.782,386.921z"/>
		<path fill="#585A5E" d="M82.684,383.389v-0.923h5.137v0.923h-2.047v5.238H84.73v-5.238H82.684z"/>
		<path fill="#585A5E" d="M91.293,386.128h-0.742v2.499h-1.043v-6.161h2.378c0.648,0,1.161,0.158,1.535,0.477
			c0.374,0.317,0.562,0.773,0.562,1.369c0,0.509-0.139,0.912-0.416,1.209c-0.277,0.299-0.664,0.487-1.159,0.567l1.786,2.539H93.01
			L91.293,386.128z M90.551,383.369v1.887h1.314c0.342,0,0.607-0.085,0.798-0.256c0.19-0.17,0.286-0.399,0.286-0.688
			c0-0.287-0.096-0.517-0.286-0.688c-0.19-0.17-0.456-0.256-0.798-0.256H90.551z"/>
		<path fill="#585A5E" d="M96.822,382.466v6.161h-1.043v-6.161H96.822z"/>
		<path fill="#585A5E" d="M98.891,382.466h4.023v0.923h-3v1.626h2.719v0.912h-2.719v1.768h3v0.933h-4.023V382.466z"/>
		<path fill="#585A5E" d="M104.269,386.921h1.063c0.194,0.615,0.659,0.924,1.395,0.924c0.361,0,0.651-0.082,0.869-0.246
			c0.217-0.164,0.326-0.387,0.326-0.668c0-0.221-0.068-0.396-0.206-0.526c-0.138-0.131-0.366-0.232-0.688-0.306l-1.044-0.252
			c-1.023-0.24-1.535-0.793-1.535-1.655c0-0.528,0.195-0.965,0.587-1.31s0.896-0.518,1.511-0.518c0.648,0,1.172,0.152,1.57,0.457
			s0.654,0.721,0.768,1.25h-1.043c-0.195-0.549-0.623-0.823-1.285-0.823c-0.334,0-0.604,0.079-0.808,0.235
			c-0.204,0.158-0.306,0.363-0.306,0.617c0,0.408,0.271,0.676,0.812,0.803l1.074,0.252c0.501,0.113,0.893,0.314,1.174,0.602
			s0.421,0.656,0.421,1.104c0,0.569-0.204,1.022-0.612,1.36s-0.937,0.507-1.586,0.507c-0.655,0-1.202-0.159-1.641-0.477
			C104.648,387.933,104.375,387.49,104.269,386.921z"/>
	</g>
	<line fill="none" stroke="#585A5E" stroke-miterlimit="10" x1="100.536" y1="160.412" x2="164.337" y2="160.412"/>
	
		<rect x="150.476" y="150.172" fill="#FFFFFF" stroke="#A7A8AB" stroke-width="0.4995" stroke-miterlimit="10" width="278.391" height="20.478"/>
	<g>
		<path fill="#585A5E" d="M255.49,160.212c0.264,0.084,0.479,0.245,0.647,0.481c0.168,0.237,0.252,0.5,0.252,0.788
			c0,0.51-0.167,0.901-0.499,1.174c-0.334,0.273-0.791,0.41-1.373,0.41h-2.115v-5.526h1.936c0.588,0,1.047,0.129,1.377,0.387
			c0.33,0.258,0.494,0.63,0.494,1.116c0,0.288-0.066,0.537-0.202,0.747C255.872,160,255.699,160.141,255.49,160.212z
			 M253.312,159.861h1.017c0.654,0,0.981-0.255,0.981-0.765c0-0.498-0.327-0.747-0.981-0.747h-1.017V159.861z M253.312,160.635v1.62
			h1.188c0.312,0,0.551-0.072,0.72-0.216c0.167-0.144,0.252-0.342,0.252-0.594s-0.085-0.45-0.252-0.594
			c-0.169-0.144-0.408-0.216-0.72-0.216H253.312z"/>
		<path fill="#585A5E" d="M259.539,157.54h0.9l2.124,5.526h-0.954l-0.566-1.53h-2.115l-0.567,1.53h-0.944L259.539,157.54z
			 M259.98,158.683l-0.756,2.043h1.512L259.98,158.683z"/>
		<path fill="#585A5E" d="M263.977,163.065v-5.526h0.936v4.689h2.655v0.837H263.977z"/>
		<path fill="#585A5E" d="M269.151,163.065v-5.526h0.937v4.689h2.654v0.837H269.151z"/>
		<path fill="#585A5E" d="M274.326,157.54h3.609v0.828h-2.691v1.458h2.439v0.819h-2.439v1.584h2.691v0.837h-3.609V157.54z"/>
		<path fill="#585A5E" d="M281.184,160.824h-0.666v2.241h-0.936v-5.526h2.133c0.582,0,1.041,0.143,1.377,0.427
			c0.336,0.285,0.504,0.695,0.504,1.229c0,0.456-0.124,0.818-0.373,1.084c-0.249,0.267-0.596,0.437-1.039,0.509l1.602,2.277h-1.062
			L281.184,160.824z M280.518,158.35v1.692h1.18c0.307,0,0.545-0.077,0.715-0.229c0.172-0.153,0.258-0.358,0.258-0.617
			c0-0.258-0.086-0.463-0.258-0.616c-0.17-0.153-0.408-0.229-0.715-0.229H280.518z"/>
		<path fill="#585A5E" d="M286.143,157.54v5.526h-0.936v-5.526H286.143z"/>
		<path fill="#585A5E" d="M292.443,157.54v5.526h-0.721l-2.825-4.023v4.023h-0.9v-5.526h0.882l2.664,3.834v-3.834H292.443z"/>
		<path fill="#585A5E" d="M295.989,157.54h0.899l2.125,5.526h-0.955l-0.566-1.53h-2.115l-0.566,1.53h-0.945L295.989,157.54z
			 M296.43,158.683l-0.756,2.043h1.512L296.43,158.683z"/>
		<path fill="#585A5E" d="M306.141,160.212c0.264,0.084,0.48,0.245,0.648,0.481c0.168,0.237,0.252,0.5,0.252,0.788
			c0,0.51-0.166,0.901-0.5,1.174c-0.332,0.273-0.79,0.41-1.372,0.41h-2.115v-5.526h1.935c0.588,0,1.047,0.129,1.377,0.387
			c0.33,0.258,0.496,0.63,0.496,1.116c0,0.288-0.068,0.537-0.203,0.747S306.352,160.141,306.141,160.212z M303.963,159.861h1.018
			c0.653,0,0.98-0.255,0.98-0.765c0-0.498-0.327-0.747-0.98-0.747h-1.018V159.861z M303.963,160.635v1.62h1.188
			c0.312,0,0.553-0.072,0.721-0.216s0.252-0.342,0.252-0.594s-0.084-0.45-0.252-0.594s-0.408-0.216-0.721-0.216H303.963z"/>
		<path fill="#585A5E" d="M312.364,162.566c-0.399,0.393-0.938,0.589-1.616,0.589c-0.678,0-1.216-0.196-1.615-0.589
			c-0.398-0.393-0.598-0.961-0.598-1.706v-3.321h0.936v3.222c0,1.038,0.426,1.557,1.277,1.557c0.853,0,1.279-0.519,1.279-1.557
			v-3.222h0.936v3.33C312.963,161.607,312.764,162.173,312.364,162.566z"/>
		<path fill="#585A5E" d="M315.662,157.54v5.526h-0.936v-5.526H315.662z"/>
		<path fill="#585A5E" d="M317.517,163.065v-5.526h0.937v4.689h2.654v0.837H317.517z"/>
		<path fill="#585A5E" d="M322.691,163.065v-5.526h1.863c0.816,0,1.467,0.25,1.953,0.751s0.729,1.171,0.729,2.011
			c0,0.84-0.242,1.511-0.729,2.012s-1.137,0.751-1.953,0.751H322.691z M323.627,162.229h0.892c0.569,0,1.009-0.171,1.318-0.513
			c0.31-0.342,0.464-0.813,0.464-1.413c0-0.6-0.154-1.072-0.464-1.417c-0.31-0.345-0.749-0.518-1.318-0.518h-0.892V162.229z"/>
	</g>
	<rect x="150.226" y="191.459" fill="#3AD1CA" width="278.891" height="21.239"/>
	<g>
		<path fill="#FFFFFF" d="M206.867,204.696c-0.117-0.12-0.176-0.267-0.176-0.441c0-0.174,0.059-0.321,0.176-0.441
			s0.263-0.18,0.437-0.18s0.319,0.06,0.437,0.18s0.176,0.267,0.176,0.441c0,0.174-0.059,0.321-0.176,0.441
			c-0.117,0.12-0.263,0.18-0.437,0.18S206.984,204.816,206.867,204.696z"/>
		<path fill="#FFFFFF" d="M212.533,201.96c0.264,0.084,0.479,0.245,0.648,0.481c0.168,0.237,0.252,0.5,0.252,0.788
			c0,0.51-0.167,0.901-0.5,1.174c-0.333,0.273-0.791,0.41-1.373,0.41h-2.115v-5.526h1.936c0.588,0,1.047,0.129,1.377,0.387
			c0.33,0.258,0.495,0.63,0.495,1.116c0,0.288-0.067,0.537-0.202,0.747S212.743,201.888,212.533,201.96z M210.355,201.609h1.017
			c0.653,0,0.981-0.255,0.981-0.765c0-0.498-0.328-0.747-0.981-0.747h-1.017V201.609z M210.355,202.383v1.62h1.188
			c0.312,0,0.552-0.072,0.721-0.216c0.167-0.144,0.252-0.342,0.252-0.594s-0.085-0.45-0.252-0.594
			c-0.169-0.144-0.408-0.216-0.721-0.216H210.355z"/>
		<path fill="#FFFFFF" d="M216.592,199.287h0.9l2.123,5.526h-0.953l-0.567-1.53h-2.115l-0.567,1.53h-0.944L216.592,199.287z
			 M217.033,200.43l-0.757,2.043h1.513L217.033,200.43z"/>
		<path fill="#FFFFFF" d="M221.037,204.813v-5.526h0.937v4.689h2.655v0.837H221.037z"/>
		<path fill="#FFFFFF" d="M230.064,200.002c0.48,0.537,0.721,1.22,0.721,2.047c0,0.828-0.24,1.511-0.721,2.048
			s-1.092,0.805-1.836,0.805s-1.354-0.268-1.832-0.805c-0.477-0.537-0.715-1.22-0.715-2.048c0-0.828,0.238-1.51,0.715-2.047
			c0.478-0.537,1.088-0.806,1.832-0.806S229.584,199.466,230.064,200.002z M229.395,203.499c0.297-0.378,0.445-0.861,0.445-1.449
			c0-0.588-0.148-1.071-0.445-1.449s-0.686-0.567-1.166-0.567s-0.867,0.188-1.16,0.562c-0.295,0.375-0.441,0.859-0.441,1.453
			c0,0.594,0.146,1.079,0.441,1.454c0.293,0.375,0.68,0.562,1.16,0.562S229.098,203.877,229.395,203.499z"/>
		<path fill="#FFFFFF" d="M231.595,205.83l0.647-0.999c-0.149-0.024-0.271-0.087-0.363-0.189c-0.094-0.102-0.141-0.231-0.141-0.387
			c0-0.174,0.059-0.318,0.176-0.432c0.117-0.114,0.263-0.171,0.437-0.171c0.181,0,0.327,0.059,0.44,0.176
			c0.115,0.117,0.172,0.283,0.172,0.5c0,0.222-0.088,0.462-0.262,0.72l-0.521,0.783H231.595z"/>
		<path fill="#FFFFFF" d="M236.963,204.696c-0.117-0.12-0.176-0.267-0.176-0.441c0-0.174,0.059-0.321,0.176-0.441
			s0.263-0.18,0.437-0.18s0.319,0.06,0.437,0.18s0.176,0.267,0.176,0.441c0,0.174-0.059,0.321-0.176,0.441
			c-0.117,0.12-0.263,0.18-0.437,0.18S237.08,204.816,236.963,204.696z"/>
		<path fill="#FFFFFF" d="M242.629,201.96c0.264,0.084,0.479,0.245,0.648,0.481c0.168,0.237,0.252,0.5,0.252,0.788
			c0,0.51-0.167,0.901-0.5,1.174c-0.333,0.273-0.791,0.41-1.373,0.41h-2.115v-5.526h1.936c0.588,0,1.047,0.129,1.377,0.387
			c0.33,0.258,0.495,0.63,0.495,1.116c0,0.288-0.067,0.537-0.202,0.747S242.839,201.888,242.629,201.96z M240.451,201.609h1.017
			c0.653,0,0.981-0.255,0.981-0.765c0-0.498-0.328-0.747-0.981-0.747h-1.017V201.609z M240.451,202.383v1.62h1.188
			c0.312,0,0.552-0.072,0.721-0.216c0.167-0.144,0.252-0.342,0.252-0.594s-0.085-0.45-0.252-0.594
			c-0.169-0.144-0.408-0.216-0.721-0.216H240.451z"/>
		<path fill="#FFFFFF" d="M246.688,199.287h0.9l2.123,5.526h-0.953l-0.567-1.53h-2.115l-0.567,1.53h-0.944L246.688,199.287z
			 M247.129,200.43l-0.757,2.043h1.513L247.129,200.43z"/>
		<path fill="#FFFFFF" d="M251.124,204.813v-5.526h0.937v4.689h2.654v0.837H251.124z"/>
		<path fill="#FFFFFF" d="M260.664,199.287l-1.871,2.691l1.961,2.835h-1.07l-1.432-2.079l-1.431,2.079h-1.044l1.953-2.817
			l-1.863-2.709h1.071l1.332,1.953l1.358-1.953H260.664z"/>
		<path fill="#FFFFFF" d="M267.793,201.96c0.264,0.084,0.479,0.245,0.647,0.481c0.168,0.237,0.252,0.5,0.252,0.788
			c0,0.51-0.167,0.901-0.499,1.174c-0.334,0.273-0.791,0.41-1.373,0.41h-2.115v-5.526h1.936c0.588,0,1.047,0.129,1.377,0.387
			c0.33,0.258,0.494,0.63,0.494,1.116c0,0.288-0.066,0.537-0.202,0.747C268.175,201.747,268.002,201.888,267.793,201.96z
			 M265.614,201.609h1.017c0.654,0,0.981-0.255,0.981-0.765c0-0.498-0.327-0.747-0.981-0.747h-1.017V201.609z M265.614,202.383v1.62
			h1.188c0.312,0,0.551-0.072,0.72-0.216c0.167-0.144,0.252-0.342,0.252-0.594s-0.085-0.45-0.252-0.594
			c-0.169-0.144-0.408-0.216-0.72-0.216H265.614z"/>
		<path fill="#FFFFFF" d="M272.067,201.762l1.458-2.475h0.99l-2.008,3.321v2.205h-0.927v-2.205l-1.998-3.321h1.017L272.067,201.762z
			"/>
		<path fill="#FFFFFF" d="M275.568,200.115v-0.828h4.607v0.828h-1.836v4.698h-0.936v-4.698H275.568z"/>
		<path fill="#FFFFFF" d="M281.688,199.287h3.609v0.828h-2.691v1.458h2.439v0.819h-2.439v1.584h2.691v0.837h-3.609V199.287z"/>
		<path fill="#FFFFFF" d="M287.362,204.106c-0.477-0.531-0.716-1.216-0.716-2.057c0-0.84,0.239-1.525,0.716-2.056
			c0.478-0.531,1.075-0.797,1.796-0.797c0.611,0,1.113,0.164,1.503,0.491s0.639,0.772,0.747,1.336h-0.918
			c-0.24-0.654-0.684-0.981-1.332-0.981c-0.48,0-0.861,0.188-1.143,0.562c-0.283,0.375-0.424,0.856-0.424,1.444
			c0,0.588,0.141,1.07,0.424,1.445c0.281,0.375,0.662,0.562,1.143,0.562c0.648,0,1.092-0.33,1.332-0.99h0.918
			c-0.108,0.57-0.357,1.019-0.747,1.346s-0.892,0.49-1.503,0.49C288.438,204.903,287.84,204.638,287.362,204.106z"/>
		<path fill="#FFFFFF" d="M297.023,200.002c0.48,0.537,0.721,1.22,0.721,2.047c0,0.828-0.24,1.511-0.721,2.048
			s-1.092,0.805-1.836,0.805s-1.354-0.268-1.832-0.805c-0.477-0.537-0.715-1.22-0.715-2.048c0-0.828,0.238-1.51,0.715-2.047
			c0.478-0.537,1.088-0.806,1.832-0.806S296.543,199.466,297.023,200.002z M296.354,203.499c0.297-0.378,0.445-0.861,0.445-1.449
			c0-0.588-0.148-1.071-0.445-1.449s-0.686-0.567-1.166-0.567s-0.867,0.188-1.16,0.562c-0.295,0.375-0.441,0.859-0.441,1.453
			c0,0.594,0.146,1.079,0.441,1.454c0.293,0.375,0.68,0.562,1.16,0.562S296.057,203.877,296.354,203.499z"/>
		<path fill="#FFFFFF" d="M299.301,204.813v-5.526h1.863c0.816,0,1.467,0.25,1.953,0.751s0.729,1.171,0.729,2.011
			c0,0.84-0.242,1.511-0.729,2.012s-1.137,0.751-1.953,0.751H299.301z M300.236,203.976h0.892c0.569,0,1.009-0.171,1.318-0.513
			c0.31-0.342,0.464-0.813,0.464-1.413c0-0.6-0.154-1.072-0.464-1.417c-0.31-0.345-0.749-0.518-1.318-0.518h-0.892V203.976z"/>
		<path fill="#FFFFFF" d="M305.394,199.287h3.609v0.828h-2.691v1.458h2.439v0.819h-2.439v1.584h2.691v0.837h-3.609V199.287z"/>
		<path fill="#FFFFFF" d="M314.961,199.287h0.899l2.124,5.526h-0.954l-0.567-1.53h-2.115l-0.566,1.53h-0.945L314.961,199.287z
			 M315.401,200.43l-0.757,2.043h1.513L315.401,200.43z"/>
		<path fill="#FFFFFF" d="M323.844,199.287v5.526h-0.721l-2.825-4.023v4.023h-0.9v-5.526h0.882l2.664,3.834v-3.834H323.844z"/>
		<path fill="#FFFFFF" d="M325.697,204.813v-5.526h1.863c0.816,0,1.467,0.25,1.953,0.751s0.729,1.171,0.729,2.011
			c0,0.84-0.242,1.511-0.729,2.012s-1.137,0.751-1.953,0.751H325.697z M326.633,203.976h0.892c0.569,0,1.009-0.171,1.318-0.513
			c0.31-0.342,0.464-0.813,0.464-1.413c0-0.6-0.154-1.072-0.464-1.417c-0.31-0.345-0.749-0.518-1.318-0.518h-0.892V203.976z"/>
		<path fill="#FFFFFF" d="M337.506,201.96c0.264,0.084,0.479,0.245,0.647,0.481c0.168,0.237,0.252,0.5,0.252,0.788
			c0,0.51-0.167,0.901-0.499,1.174c-0.334,0.273-0.791,0.41-1.373,0.41h-2.115v-5.526h1.936c0.588,0,1.047,0.129,1.377,0.387
			c0.33,0.258,0.494,0.63,0.494,1.116c0,0.288-0.066,0.537-0.202,0.747C337.888,201.747,337.715,201.888,337.506,201.96z
			 M335.327,201.609h1.017c0.654,0,0.981-0.255,0.981-0.765c0-0.498-0.327-0.747-0.981-0.747h-1.017V201.609z M335.327,202.383v1.62
			h1.188c0.312,0,0.551-0.072,0.72-0.216c0.167-0.144,0.252-0.342,0.252-0.594s-0.085-0.45-0.252-0.594
			c-0.169-0.144-0.408-0.216-0.72-0.216H335.327z"/>
		<path fill="#FFFFFF" d="M340.934,199.287v5.526h-0.936v-5.526H340.934z"/>
		<path fill="#FFFFFF" d="M347.234,199.287v5.526h-0.721l-2.825-4.023v4.023h-0.9v-5.526h0.882l2.664,3.834v-3.834H347.234z"/>
		<path fill="#FFFFFF" d="M350.78,199.287h0.899l2.125,5.526h-0.955l-0.566-1.53h-2.115l-0.566,1.53h-0.945L350.78,199.287z
			 M351.221,200.43l-0.756,2.043h1.512L351.221,200.43z"/>
		<path fill="#FFFFFF" d="M356.818,202.572h-0.666v2.241h-0.936v-5.526h2.133c0.582,0,1.041,0.143,1.377,0.427
			c0.336,0.285,0.504,0.695,0.504,1.229c0,0.456-0.124,0.818-0.373,1.084c-0.249,0.267-0.596,0.437-1.039,0.509l1.602,2.277h-1.062
			L356.818,202.572z M356.152,200.097v1.692h1.18c0.307,0,0.545-0.077,0.715-0.229c0.172-0.153,0.258-0.358,0.258-0.617
			c0-0.258-0.086-0.463-0.258-0.616c-0.17-0.153-0.408-0.229-0.715-0.229H356.152z"/>
		<path fill="#FFFFFF" d="M361.777,199.287v5.526h-0.936v-5.526H361.777z"/>
		<path fill="#FFFFFF" d="M363.623,199.287h3.609v0.828h-2.691v1.458h2.439v0.819h-2.439v1.584h2.691v0.837h-3.609V199.287z"/>
		<path fill="#FFFFFF" d="M368.447,203.283h0.953c0.174,0.552,0.592,0.828,1.251,0.828c0.324,0,0.583-0.073,0.778-0.22
			s0.293-0.347,0.293-0.599c0-0.198-0.062-0.355-0.185-0.473c-0.123-0.117-0.329-0.208-0.616-0.274l-0.936-0.225
			c-0.919-0.216-1.378-0.711-1.378-1.485c0-0.474,0.176-0.865,0.526-1.174c0.352-0.309,0.803-0.464,1.355-0.464
			c0.581,0,1.051,0.137,1.408,0.41c0.356,0.273,0.586,0.646,0.688,1.121h-0.936c-0.174-0.492-0.558-0.738-1.152-0.738
			c-0.299,0-0.541,0.071-0.725,0.212c-0.183,0.141-0.273,0.325-0.273,0.553c0,0.366,0.242,0.606,0.729,0.72l0.963,0.225
			c0.45,0.102,0.801,0.282,1.053,0.54c0.252,0.258,0.379,0.588,0.379,0.99c0,0.51-0.184,0.917-0.549,1.22
			c-0.367,0.303-0.841,0.454-1.423,0.454c-0.588,0-1.078-0.142-1.472-0.427C368.787,204.19,368.543,203.793,368.447,203.283z"/>
	</g>
	<g>
		<line fill="none" stroke="#585A5E" stroke-miterlimit="10" x1="289.671" y1="180.138" x2="289.671" y2="170.458"/>
		<polygon fill="#585A5E" points="292.662,179.263 289.67,184.445 286.68,179.263 		"/>
	</g>
	<line fill="none" stroke="#585A5E" stroke-miterlimit="10" x1="99.904" y1="76.791" x2="163.705" y2="76.791"/>
	<line fill="none" stroke="#585A5E" stroke-miterlimit="10" x1="275.599" y1="76.791" x2="302.479" y2="76.791"/>
	
		<rect x="150.466" y="66.552" fill="#FFFFFF" stroke="#A7A8AB" stroke-width="0.4795" stroke-miterlimit="10" width="134.518" height="20.501"/>
	<g>
		<path fill="#585A5E" d="M166.682,76.593c0.264,0.084,0.48,0.245,0.648,0.481c0.168,0.237,0.252,0.5,0.252,0.788
			c0,0.51-0.166,0.901-0.5,1.174c-0.332,0.273-0.79,0.41-1.372,0.41h-2.115V73.92h1.935c0.588,0,1.047,0.129,1.377,0.387
			c0.33,0.258,0.496,0.63,0.496,1.116c0,0.288-0.068,0.537-0.203,0.747S166.893,76.521,166.682,76.593z M164.504,76.242h1.018
			c0.653,0,0.98-0.255,0.98-0.765c0-0.498-0.327-0.747-0.98-0.747h-1.018V76.242z M164.504,77.016v1.62h1.188
			c0.312,0,0.553-0.072,0.721-0.216s0.252-0.342,0.252-0.594s-0.084-0.45-0.252-0.594s-0.408-0.216-0.721-0.216H164.504z"/>
		<path fill="#585A5E" d="M170.732,73.92h0.899l2.124,5.526h-0.954l-0.567-1.53h-2.115l-0.566,1.53h-0.945L170.732,73.92z
			 M171.173,75.063l-0.757,2.043h1.513L171.173,75.063z"/>
		<path fill="#585A5E" d="M175.178,79.446V73.92h0.936v4.689h2.656v0.837H175.178z"/>
		<path fill="#585A5E" d="M180.353,79.446V73.92h0.937v4.689h2.654v0.837H180.353z"/>
		<path fill="#585A5E" d="M185.527,73.92h3.609v0.828h-2.691v1.458h2.439v0.819h-2.439v1.584h2.691v0.837h-3.609V73.92z"/>
		<path fill="#585A5E" d="M192.385,77.205h-0.666v2.241h-0.936V73.92h2.133c0.582,0,1.041,0.143,1.377,0.427
			c0.336,0.285,0.504,0.695,0.504,1.229c0,0.456-0.124,0.818-0.373,1.084c-0.249,0.267-0.596,0.437-1.039,0.509l1.602,2.277h-1.062
			L192.385,77.205z M191.719,74.73v1.692h1.18c0.307,0,0.545-0.077,0.715-0.229c0.172-0.153,0.258-0.358,0.258-0.617
			c0-0.258-0.086-0.463-0.258-0.616c-0.17-0.153-0.408-0.229-0.715-0.229H191.719z"/>
		<path fill="#585A5E" d="M197.344,73.92v5.526h-0.936V73.92H197.344z"/>
		<path fill="#585A5E" d="M203.645,73.92v5.526h-0.721l-2.825-4.023v4.023h-0.9V73.92h0.882l2.664,3.834V73.92H203.645z"/>
		<path fill="#585A5E" d="M207.19,73.92h0.899l2.125,5.526h-0.955l-0.566-1.53h-2.115l-0.566,1.53h-0.945L207.19,73.92z
			 M207.631,75.063l-0.756,2.043h1.512L207.631,75.063z"/>
		<path fill="#585A5E" d="M214.246,79.446V73.92h0.936v4.689h2.656v0.837H214.246z"/>
		<path fill="#585A5E" d="M221.123,73.92h0.899l2.124,5.526h-0.954l-0.567-1.53h-2.115l-0.566,1.53h-0.945L221.123,73.92z
			 M221.563,75.063l-0.757,2.043h1.513L221.563,75.063z"/>
		<path fill="#585A5E" d="M230.014,73.92v5.526h-0.72l-2.825-4.023v4.023h-0.9V73.92h0.882l2.664,3.834V73.92H230.014z"/>
		<path fill="#585A5E" d="M235.631,77.394h-1.207v-0.801h2.098v0.432c0,0.756-0.221,1.363-0.662,1.822
			c-0.44,0.459-1.003,0.688-1.688,0.688c-0.75,0-1.371-0.265-1.862-0.796c-0.492-0.531-0.738-1.216-0.738-2.057
			c0-0.84,0.245-1.525,0.733-2.056c0.489-0.531,1.1-0.797,1.832-0.797c0.617,0,1.123,0.162,1.516,0.486
			c0.394,0.324,0.645,0.768,0.752,1.332h-0.936c-0.121-0.318-0.283-0.56-0.49-0.725s-0.488-0.248-0.842-0.248
			c-0.486,0-0.878,0.188-1.175,0.562s-0.446,0.856-0.446,1.444c0,0.594,0.15,1.08,0.451,1.458c0.299,0.378,0.701,0.567,1.205,0.567
			c0.408,0,0.738-0.119,0.99-0.355C235.414,78.115,235.57,77.796,235.631,77.394z"/>
		<path fill="#585A5E" d="M240.266,77.916h0.953c0.174,0.552,0.592,0.828,1.251,0.828c0.324,0,0.583-0.073,0.778-0.22
			s0.293-0.347,0.293-0.599c0-0.198-0.062-0.355-0.185-0.473c-0.123-0.117-0.329-0.208-0.616-0.274l-0.936-0.225
			c-0.919-0.216-1.378-0.711-1.378-1.485c0-0.474,0.176-0.865,0.526-1.174c0.352-0.309,0.803-0.464,1.355-0.464
			c0.581,0,1.051,0.137,1.408,0.41c0.356,0.273,0.586,0.646,0.688,1.121h-0.936c-0.174-0.492-0.558-0.738-1.152-0.738
			c-0.299,0-0.541,0.071-0.725,0.212c-0.183,0.141-0.273,0.325-0.273,0.553c0,0.366,0.242,0.606,0.729,0.72l0.963,0.225
			c0.45,0.102,0.801,0.282,1.053,0.54c0.252,0.258,0.379,0.588,0.379,0.99c0,0.51-0.184,0.917-0.549,1.22
			c-0.367,0.303-0.841,0.454-1.423,0.454c-0.588,0-1.078-0.142-1.472-0.427C240.605,78.823,240.361,78.426,240.266,77.916z"/>
		<path fill="#585A5E" d="M245.988,73.92h3.609v0.828h-2.691v1.458h2.439v0.819h-2.439v1.584h2.691v0.837h-3.609V73.92z"/>
		<path fill="#585A5E" d="M252.847,77.205h-0.666v2.241h-0.937V73.92h2.134c0.582,0,1.041,0.143,1.377,0.427
			c0.336,0.285,0.504,0.695,0.504,1.229c0,0.456-0.124,0.818-0.374,1.084c-0.248,0.267-0.596,0.437-1.039,0.509l1.602,2.277h-1.062
			L252.847,77.205z M252.181,74.73v1.692h1.179c0.307,0,0.545-0.077,0.716-0.229c0.171-0.153,0.257-0.358,0.257-0.617
			c0-0.258-0.086-0.463-0.257-0.616c-0.171-0.153-0.409-0.229-0.716-0.229H252.181z"/>
		<path fill="#585A5E" d="M259.318,79.446h-0.892l-2.088-5.526h0.981l1.565,4.311l1.565-4.311h0.955L259.318,79.446z"/>
		<path fill="#585A5E" d="M262.828,73.92h3.609v0.828h-2.691v1.458h2.439v0.819h-2.439v1.584h2.691v0.837h-3.609V73.92z"/>
		<path fill="#585A5E" d="M269.686,77.205h-0.666v2.241h-0.936V73.92h2.133c0.582,0,1.041,0.143,1.377,0.427
			c0.336,0.285,0.504,0.695,0.504,1.229c0,0.456-0.125,0.818-0.373,1.084c-0.25,0.267-0.596,0.437-1.04,0.509l1.603,2.277h-1.062
			L269.686,77.205z M269.02,74.73v1.692h1.18c0.306,0,0.544-0.077,0.715-0.229c0.171-0.153,0.257-0.358,0.257-0.617
			c0-0.258-0.086-0.463-0.257-0.616c-0.171-0.153-0.409-0.229-0.715-0.229H269.02z"/>
	</g>
	
		<rect x="294.359" y="66.552" fill="#FFFFFF" stroke="#A7A8AB" stroke-width="0.5133" stroke-miterlimit="10" width="134.5" height="20.45"/>
	<g>
		<path fill="#585A5E" d="M316.422,76.593c0.264,0.084,0.479,0.245,0.647,0.481c0.168,0.237,0.252,0.5,0.252,0.788
			c0,0.51-0.167,0.901-0.499,1.174c-0.334,0.273-0.791,0.41-1.373,0.41h-2.115V73.92h1.936c0.588,0,1.047,0.129,1.377,0.387
			c0.33,0.258,0.494,0.63,0.494,1.116c0,0.288-0.066,0.537-0.202,0.747C316.804,76.38,316.631,76.521,316.422,76.593z
			 M314.243,76.242h1.017c0.654,0,0.981-0.255,0.981-0.765c0-0.498-0.327-0.747-0.981-0.747h-1.017V76.242z M314.243,77.016v1.62
			h1.188c0.312,0,0.551-0.072,0.72-0.216c0.167-0.144,0.252-0.342,0.252-0.594s-0.085-0.45-0.252-0.594
			c-0.169-0.144-0.408-0.216-0.72-0.216H314.243z"/>
		<path fill="#585A5E" d="M320.471,73.92h0.9l2.124,5.526h-0.954l-0.566-1.53h-2.115l-0.567,1.53h-0.944L320.471,73.92z
			 M320.912,75.063l-0.756,2.043h1.512L320.912,75.063z"/>
		<path fill="#585A5E" d="M324.908,79.446V73.92h0.936v4.689h2.655v0.837H324.908z"/>
		<path fill="#585A5E" d="M330.083,79.446V73.92h0.937v4.689h2.654v0.837H330.083z"/>
		<path fill="#585A5E" d="M335.258,73.92h3.609v0.828h-2.691v1.458h2.439v0.819h-2.439v1.584h2.691v0.837h-3.609V73.92z"/>
		<path fill="#585A5E" d="M342.115,77.205h-0.666v2.241h-0.936V73.92h2.133c0.582,0,1.041,0.143,1.377,0.427
			c0.336,0.285,0.504,0.695,0.504,1.229c0,0.456-0.124,0.818-0.373,1.084c-0.249,0.267-0.596,0.437-1.039,0.509l1.602,2.277h-1.062
			L342.115,77.205z M341.449,74.73v1.692h1.18c0.307,0,0.545-0.077,0.715-0.229c0.172-0.153,0.258-0.358,0.258-0.617
			c0-0.258-0.086-0.463-0.258-0.616c-0.17-0.153-0.408-0.229-0.715-0.229H341.449z"/>
		<path fill="#585A5E" d="M347.074,73.92v5.526h-0.936V73.92H347.074z"/>
		<path fill="#585A5E" d="M353.375,73.92v5.526h-0.721l-2.825-4.023v4.023h-0.9V73.92h0.882l2.664,3.834V73.92H353.375z"/>
		<path fill="#585A5E" d="M356.921,73.92h0.899l2.125,5.526h-0.955l-0.566-1.53h-2.115l-0.566,1.53h-0.945L356.921,73.92z
			 M357.361,75.063l-0.756,2.043h1.512L357.361,75.063z"/>
		<path fill="#585A5E" d="M364.404,78.739c-0.477-0.531-0.716-1.216-0.716-2.057c0-0.84,0.239-1.525,0.716-2.056
			c0.477-0.531,1.075-0.797,1.795-0.797c0.612,0,1.113,0.164,1.504,0.491c0.389,0.327,0.639,0.772,0.746,1.336h-0.918
			c-0.24-0.654-0.684-0.981-1.332-0.981c-0.48,0-0.861,0.188-1.143,0.562c-0.282,0.375-0.424,0.856-0.424,1.444
			c0,0.588,0.142,1.07,0.424,1.445c0.281,0.375,0.662,0.562,1.143,0.562c0.648,0,1.092-0.33,1.332-0.99h0.918
			c-0.107,0.57-0.357,1.019-0.746,1.346c-0.391,0.327-0.892,0.49-1.504,0.49C365.479,79.536,364.881,79.271,364.404,78.739z"/>
		<path fill="#585A5E" d="M374.074,74.635c0.48,0.537,0.721,1.22,0.721,2.047c0,0.828-0.24,1.511-0.721,2.048
			s-1.092,0.805-1.836,0.805s-1.354-0.268-1.832-0.805c-0.477-0.537-0.715-1.22-0.715-2.048c0-0.828,0.238-1.51,0.715-2.047
			c0.478-0.537,1.088-0.806,1.832-0.806S373.594,74.099,374.074,74.635z M373.404,78.132c0.297-0.378,0.445-0.861,0.445-1.449
			c0-0.588-0.148-1.071-0.445-1.449s-0.686-0.567-1.166-0.567s-0.867,0.188-1.16,0.562c-0.295,0.375-0.441,0.859-0.441,1.453
			c0,0.594,0.146,1.079,0.441,1.454c0.293,0.375,0.68,0.562,1.16,0.562S373.107,78.51,373.404,78.132z"/>
		<path fill="#585A5E" d="M379.43,79.446h-0.666l-1.521-3.843v3.843h-0.891V73.92h1.07l1.684,4.248l1.664-4.248h1.045v5.526h-0.9
			v-3.843L379.43,79.446z"/>
		<path fill="#585A5E" d="M385.793,77.385h-1.197v2.061h-0.937V73.92h2.134c0.582,0,1.042,0.15,1.381,0.45
			c0.339,0.3,0.508,0.729,0.508,1.287c0,0.552-0.169,0.978-0.508,1.278C386.835,77.235,386.375,77.385,385.793,77.385z
			 M386.756,75.657c0-0.282-0.084-0.507-0.252-0.675s-0.412-0.252-0.729-0.252h-1.179v1.845h1.179c0.312,0,0.554-0.084,0.725-0.252
			S386.756,75.933,386.756,75.657z"/>
		<path fill="#585A5E" d="M393.281,74.635c0.479,0.537,0.719,1.22,0.719,2.047c0,0.828-0.24,1.511-0.719,2.048
			c-0.48,0.537-1.093,0.805-1.837,0.805c-0.743,0-1.354-0.268-1.831-0.805s-0.716-1.22-0.716-2.048c0-0.828,0.239-1.51,0.716-2.047
			c0.477-0.537,1.088-0.806,1.831-0.806C392.188,73.83,392.801,74.099,393.281,74.635z M392.609,78.132
			c0.298-0.378,0.446-0.861,0.446-1.449c0-0.588-0.148-1.071-0.446-1.449c-0.297-0.378-0.686-0.567-1.165-0.567
			s-0.866,0.188-1.161,0.562c-0.294,0.375-0.441,0.859-0.441,1.453c0,0.594,0.147,1.079,0.441,1.454
			c0.295,0.375,0.682,0.562,1.161,0.562S392.312,78.51,392.609,78.132z"/>
		<path fill="#585A5E" d="M395.125,77.916h0.954c0.175,0.552,0.591,0.828,1.251,0.828c0.324,0,0.584-0.073,0.779-0.22
			c0.194-0.147,0.292-0.347,0.292-0.599c0-0.198-0.062-0.355-0.185-0.473c-0.123-0.117-0.328-0.208-0.617-0.274l-0.936-0.225
			c-0.918-0.216-1.377-0.711-1.377-1.485c0-0.474,0.176-0.865,0.527-1.174c0.351-0.309,0.802-0.464,1.354-0.464
			c0.582,0,1.052,0.137,1.408,0.41c0.357,0.273,0.587,0.646,0.689,1.121h-0.937c-0.174-0.492-0.558-0.738-1.151-0.738
			c-0.301,0-0.542,0.071-0.725,0.212c-0.184,0.141-0.275,0.325-0.275,0.553c0,0.366,0.244,0.606,0.729,0.72l0.963,0.225
			c0.45,0.102,0.802,0.282,1.054,0.54c0.252,0.258,0.377,0.588,0.377,0.99c0,0.51-0.183,0.917-0.549,1.22
			c-0.365,0.303-0.84,0.454-1.422,0.454c-0.588,0-1.078-0.142-1.471-0.427C395.466,78.823,395.221,78.426,395.125,77.916z"/>
		<path fill="#585A5E" d="M400.857,73.92h3.609v0.828h-2.691v1.458h2.439v0.819h-2.439v1.584h2.691v0.837h-3.609V73.92z"/>
		<path fill="#585A5E" d="M407.716,77.205h-0.666v2.241h-0.937V73.92h2.134c0.582,0,1.041,0.143,1.377,0.427
			c0.336,0.285,0.504,0.695,0.504,1.229c0,0.456-0.124,0.818-0.374,1.084c-0.248,0.267-0.596,0.437-1.039,0.509l1.602,2.277h-1.062
			L407.716,77.205z M407.05,74.73v1.692h1.179c0.307,0,0.545-0.077,0.716-0.229c0.171-0.153,0.257-0.358,0.257-0.617
			c0-0.258-0.086-0.463-0.257-0.616c-0.171-0.153-0.409-0.229-0.716-0.229H407.05z"/>
	</g>
	<rect x="150.226" y="107.948" fill="#3AD1CA" width="278.891" height="21.239"/>
	<g>
		<path fill="#FFFFFF" d="M249.055,121.186c-0.117-0.12-0.176-0.267-0.176-0.441c0-0.174,0.059-0.321,0.176-0.441
			s0.262-0.18,0.436-0.18s0.32,0.06,0.438,0.18s0.176,0.267,0.176,0.441c0,0.174-0.059,0.321-0.176,0.441
			c-0.117,0.12-0.264,0.18-0.438,0.18S249.172,121.306,249.055,121.186z"/>
		<path fill="#FFFFFF" d="M254.721,118.45c0.264,0.084,0.479,0.245,0.647,0.481c0.168,0.237,0.252,0.5,0.252,0.788
			c0,0.51-0.167,0.901-0.499,1.174c-0.334,0.273-0.791,0.41-1.373,0.41h-2.115v-5.526h1.936c0.588,0,1.047,0.129,1.377,0.387
			c0.33,0.258,0.494,0.63,0.494,1.116c0,0.288-0.066,0.537-0.202,0.747C255.103,118.237,254.93,118.378,254.721,118.45z
			 M252.542,118.099h1.017c0.654,0,0.981-0.255,0.981-0.765c0-0.498-0.327-0.747-0.981-0.747h-1.017V118.099z M252.542,118.873v1.62
			h1.188c0.312,0,0.551-0.072,0.72-0.216c0.167-0.144,0.252-0.342,0.252-0.594s-0.085-0.45-0.252-0.594
			c-0.169-0.144-0.408-0.216-0.72-0.216H252.542z"/>
		<path fill="#FFFFFF" d="M258.779,115.777h0.899l2.124,5.526h-0.954l-0.567-1.53h-2.115l-0.566,1.53h-0.945L258.779,115.777z
			 M259.22,116.92l-0.757,2.043h1.513L259.22,116.92z"/>
		<path fill="#FFFFFF" d="M263.225,121.303v-5.526h0.936v4.689h2.656v0.837H263.225z"/>
		<path fill="#FFFFFF" d="M270.587,119.773h0.954c0.174,0.552,0.591,0.828,1.25,0.828c0.324,0,0.584-0.073,0.779-0.22
			s0.293-0.347,0.293-0.599c0-0.198-0.062-0.355-0.186-0.473c-0.123-0.117-0.328-0.208-0.616-0.274l-0.936-0.225
			c-0.919-0.216-1.378-0.711-1.378-1.485c0-0.474,0.176-0.865,0.527-1.174s0.803-0.464,1.354-0.464c0.581,0,1.052,0.137,1.408,0.41
			s0.587,0.646,0.688,1.121h-0.936c-0.174-0.492-0.559-0.738-1.152-0.738c-0.3,0-0.541,0.071-0.725,0.212
			c-0.184,0.141-0.274,0.325-0.274,0.553c0,0.366,0.243,0.606,0.729,0.72l0.963,0.225c0.449,0.102,0.801,0.282,1.053,0.54
			c0.252,0.258,0.378,0.588,0.378,0.99c0,0.51-0.183,0.917-0.549,1.22c-0.366,0.303-0.841,0.454-1.423,0.454
			c-0.588,0-1.078-0.142-1.471-0.427S270.683,120.283,270.587,119.773z"/>
		<path fill="#FFFFFF" d="M280.406,116.493c0.479,0.537,0.719,1.22,0.719,2.047c0,0.828-0.24,1.511-0.719,2.048
			c-0.48,0.537-1.093,0.805-1.837,0.805c-0.743,0-1.354-0.268-1.831-0.805s-0.716-1.22-0.716-2.048c0-0.828,0.239-1.51,0.716-2.047
			c0.477-0.537,1.088-0.806,1.831-0.806C279.313,115.687,279.926,115.956,280.406,116.493z M279.734,119.989
			c0.298-0.378,0.446-0.861,0.446-1.449c0-0.588-0.148-1.071-0.446-1.449c-0.297-0.378-0.686-0.567-1.165-0.567
			s-0.866,0.188-1.161,0.562c-0.294,0.375-0.441,0.859-0.441,1.453c0,0.594,0.147,1.079,0.441,1.454
			c0.295,0.375,0.682,0.562,1.161,0.562S279.438,120.367,279.734,119.989z"/>
		<path fill="#FFFFFF" d="M286.413,120.804c-0.399,0.393-0.938,0.589-1.616,0.589c-0.678,0-1.216-0.196-1.615-0.589
			c-0.398-0.393-0.598-0.961-0.598-1.706v-3.321h0.936v3.222c0,1.038,0.426,1.557,1.277,1.557c0.853,0,1.279-0.519,1.279-1.557
			v-3.222h0.936v3.33C287.012,119.845,286.812,120.411,286.413,120.804z"/>
		<path fill="#FFFFFF" d="M290.377,119.062h-0.666v2.241h-0.936v-5.526h2.133c0.582,0,1.041,0.143,1.377,0.427
			c0.336,0.285,0.504,0.695,0.504,1.229c0,0.456-0.124,0.818-0.373,1.084c-0.249,0.267-0.596,0.437-1.039,0.509l1.602,2.277h-1.062
			L290.377,119.062z M289.711,116.587v1.692h1.18c0.307,0,0.545-0.077,0.715-0.229c0.172-0.153,0.258-0.358,0.258-0.617
			c0-0.258-0.086-0.463-0.258-0.616c-0.17-0.153-0.408-0.229-0.715-0.229H289.711z"/>
		<path fill="#FFFFFF" d="M294.818,120.597c-0.477-0.531-0.715-1.216-0.715-2.057c0-0.84,0.238-1.525,0.715-2.056
			c0.477-0.531,1.076-0.797,1.796-0.797c0.612,0,1.112,0.164,1.503,0.491c0.39,0.327,0.639,0.772,0.747,1.336h-0.918
			c-0.24-0.654-0.685-0.981-1.332-0.981c-0.48,0-0.861,0.188-1.144,0.562c-0.281,0.375-0.423,0.856-0.423,1.444
			c0,0.588,0.142,1.07,0.423,1.445c0.282,0.375,0.663,0.562,1.144,0.562c0.647,0,1.092-0.33,1.332-0.99h0.918
			c-0.108,0.57-0.357,1.019-0.747,1.346c-0.391,0.327-0.891,0.49-1.503,0.49C295.895,121.393,295.295,121.128,294.818,120.597z"/>
		<path fill="#FFFFFF" d="M300.402,115.777h3.609v0.828h-2.691v1.458h2.439v0.819h-2.439v1.584h2.691v0.837h-3.609V115.777z"/>
		<path fill="#FFFFFF" d="M308.696,120.597c-0.477-0.531-0.716-1.216-0.716-2.057c0-0.84,0.239-1.525,0.716-2.056
			c0.478-0.531,1.075-0.797,1.796-0.797c0.611,0,1.113,0.164,1.503,0.491s0.639,0.772,0.747,1.336h-0.918
			c-0.24-0.654-0.684-0.981-1.332-0.981c-0.48,0-0.861,0.188-1.143,0.562c-0.283,0.375-0.424,0.856-0.424,1.444
			c0,0.588,0.141,1.07,0.424,1.445c0.281,0.375,0.662,0.562,1.143,0.562c0.648,0,1.092-0.33,1.332-0.99h0.918
			c-0.108,0.57-0.357,1.019-0.747,1.346s-0.892,0.49-1.503,0.49C309.771,121.393,309.174,121.128,308.696,120.597z"/>
		<path fill="#FFFFFF" d="M318.367,116.493c0.479,0.537,0.72,1.22,0.72,2.047c0,0.828-0.24,1.511-0.72,2.048
			c-0.48,0.537-1.092,0.805-1.836,0.805s-1.355-0.268-1.832-0.805s-0.715-1.22-0.715-2.048c0-0.828,0.238-1.51,0.715-2.047
			c0.477-0.537,1.088-0.806,1.832-0.806S317.887,115.956,318.367,116.493z M317.696,119.989c0.298-0.378,0.446-0.861,0.446-1.449
			c0-0.588-0.148-1.071-0.446-1.449c-0.297-0.378-0.686-0.567-1.165-0.567c-0.48,0-0.867,0.188-1.161,0.562
			s-0.441,0.859-0.441,1.453c0,0.594,0.147,1.079,0.441,1.454s0.681,0.562,1.161,0.562
			C317.011,120.556,317.399,120.367,317.696,119.989z"/>
		<path fill="#FFFFFF" d="M320.635,121.303v-5.526h1.863c0.816,0,1.467,0.25,1.953,0.751s0.729,1.171,0.729,2.011
			c0,0.84-0.242,1.511-0.729,2.012s-1.137,0.751-1.953,0.751H320.635z M321.57,120.466h0.892c0.569,0,1.009-0.171,1.318-0.513
			c0.31-0.342,0.464-0.813,0.464-1.413c0-0.6-0.154-1.072-0.464-1.417c-0.31-0.345-0.749-0.518-1.318-0.518h-0.892V120.466z"/>
		<path fill="#FFFFFF" d="M326.736,115.777h3.609v0.828h-2.691v1.458h2.439v0.819h-2.439v1.584h2.691v0.837h-3.609V115.777z"/>
	</g>
	<g>
		<line fill="none" stroke="#585A5E" stroke-miterlimit="10" x1="289.957" y1="96.709" x2="289.957" y2="87.03"/>
		<polygon fill="#585A5E" points="292.948,95.833 289.956,101.015 286.966,95.833 		"/>
	</g>
	<line fill="none" stroke="#585A5E" stroke-miterlimit="10" x1="100.536" y1="243.923" x2="164.337" y2="243.923"/>
	
		<rect x="150.476" y="233.684" fill="#FFFFFF" stroke="#A7A8AB" stroke-width="0.4995" stroke-miterlimit="10" width="278.391" height="20.479"/>
	<g>
		<path fill="#585A5E" d="M266.479,241.878v-0.828h4.607v0.828h-1.836v4.698h-0.936v-4.698H266.479z"/>
		<path fill="#585A5E" d="M272.453,241.051h3.609v0.828h-2.691v1.458h2.439v0.819h-2.439v1.584h2.691v0.837h-3.609V241.051z"/>
		<path fill="#585A5E" d="M277.135,245.047h0.953c0.174,0.552,0.592,0.828,1.251,0.828c0.324,0,0.583-0.073,0.778-0.22
			s0.293-0.347,0.293-0.599c0-0.198-0.062-0.355-0.185-0.473c-0.123-0.117-0.329-0.208-0.616-0.274l-0.936-0.225
			c-0.919-0.216-1.378-0.711-1.378-1.485c0-0.474,0.176-0.865,0.526-1.174c0.352-0.309,0.803-0.464,1.355-0.464
			c0.581,0,1.051,0.137,1.408,0.41c0.356,0.273,0.586,0.646,0.688,1.121h-0.936c-0.174-0.492-0.558-0.738-1.152-0.738
			c-0.299,0-0.541,0.071-0.725,0.212c-0.183,0.141-0.273,0.325-0.273,0.553c0,0.366,0.242,0.606,0.729,0.72l0.963,0.225
			c0.45,0.102,0.801,0.282,1.053,0.54c0.252,0.258,0.379,0.588,0.379,0.99c0,0.51-0.184,0.917-0.549,1.22
			c-0.367,0.303-0.841,0.454-1.423,0.454c-0.588,0-1.078-0.142-1.472-0.427C277.475,245.954,277.23,245.557,277.135,245.047z"/>
		<path fill="#585A5E" d="M282.381,241.878v-0.828h4.607v0.828h-1.836v4.698h-0.936v-4.698H282.381z"/>
		<path fill="#585A5E" d="M288.356,241.051h3.609v0.828h-2.691v1.458h2.439v0.819h-2.439v1.584h2.691v0.837h-3.609V241.051z"/>
		<path fill="#585A5E" d="M295.07,244.335h-0.666v2.241h-0.936v-5.526h2.133c0.582,0,1.041,0.143,1.377,0.427
			c0.336,0.285,0.504,0.695,0.504,1.229c0,0.456-0.125,0.818-0.373,1.084c-0.25,0.267-0.596,0.437-1.04,0.509l1.603,2.277h-1.062
			L295.07,244.335z M294.404,241.861v1.692h1.18c0.306,0,0.544-0.077,0.715-0.229c0.171-0.153,0.257-0.358,0.257-0.617
			c0-0.258-0.086-0.463-0.257-0.616c-0.171-0.153-0.409-0.229-0.715-0.229H294.404z"/>
		<path fill="#585A5E" d="M299.885,241.051v5.526h-0.936v-5.526H299.885z"/>
		<path fill="#585A5E" d="M306.041,241.051v5.526h-0.72l-2.825-4.023v4.023h-0.9v-5.526h0.882l2.664,3.834v-3.834H306.041z"/>
		<path fill="#585A5E" d="M309.443,241.051h0.9l2.124,5.526h-0.954l-0.566-1.53h-2.115l-0.567,1.53h-0.944L309.443,241.051z
			 M309.885,242.194l-0.756,2.043h1.512L309.885,242.194z"/>
	</g>
	
		<rect x="150.476" y="275.187" fill="#FFFFFF" stroke="#A7A8AB" stroke-width="0.4995" stroke-miterlimit="10" width="278.391" height="20.479"/>
	<g>
		<path fill="#585A5E" d="M255.49,285.228c0.264,0.084,0.479,0.244,0.647,0.48c0.168,0.238,0.252,0.5,0.252,0.788
			c0,0.511-0.167,0.901-0.499,1.175c-0.334,0.273-0.791,0.409-1.373,0.409h-2.115v-5.526h1.936c0.588,0,1.047,0.129,1.377,0.387
			c0.33,0.259,0.494,0.631,0.494,1.117c0,0.287-0.066,0.537-0.202,0.746C255.872,285.015,255.699,285.156,255.49,285.228z
			 M253.312,284.876h1.017c0.654,0,0.981-0.255,0.981-0.766c0-0.497-0.327-0.746-0.981-0.746h-1.017V284.876z M253.312,285.65v1.621
			h1.188c0.312,0,0.551-0.072,0.72-0.217c0.167-0.144,0.252-0.342,0.252-0.594s-0.085-0.449-0.252-0.594
			c-0.169-0.145-0.408-0.217-0.72-0.217H253.312z"/>
		<path fill="#585A5E" d="M259.539,282.554h0.9l2.124,5.526h-0.954l-0.566-1.53h-2.115l-0.567,1.53h-0.944L259.539,282.554z
			 M259.98,283.698l-0.756,2.043h1.512L259.98,283.698z"/>
		<path fill="#585A5E" d="M263.977,288.081v-5.526h0.936v4.689h2.655v0.837H263.977z"/>
		<path fill="#585A5E" d="M269.151,288.081v-5.526h0.937v4.689h2.654v0.837H269.151z"/>
		<path fill="#585A5E" d="M274.326,282.554h3.609v0.828h-2.691v1.458h2.439v0.819h-2.439v1.584h2.691v0.837h-3.609V282.554z"/>
		<path fill="#585A5E" d="M281.184,285.839h-0.666v2.241h-0.936v-5.526h2.133c0.582,0,1.041,0.143,1.377,0.428
			s0.504,0.695,0.504,1.229c0,0.456-0.124,0.818-0.373,1.084c-0.249,0.268-0.596,0.438-1.039,0.51l1.602,2.276h-1.062
			L281.184,285.839z M280.518,283.365v1.691h1.18c0.307,0,0.545-0.076,0.715-0.229c0.172-0.154,0.258-0.359,0.258-0.617
			s-0.086-0.463-0.258-0.616c-0.17-0.153-0.408-0.229-0.715-0.229H280.518z"/>
		<path fill="#585A5E" d="M286.143,282.554v5.526h-0.936v-5.526H286.143z"/>
		<path fill="#585A5E" d="M292.443,282.554v5.526h-0.721l-2.825-4.022v4.022h-0.9v-5.526h0.882l2.664,3.834v-3.834H292.443z"/>
		<path fill="#585A5E" d="M295.989,282.554h0.899l2.125,5.526h-0.955l-0.566-1.53h-2.115l-0.566,1.53h-0.945L295.989,282.554z
			 M296.43,283.698l-0.756,2.043h1.512L296.43,283.698z"/>
		<path fill="#585A5E" d="M306.141,285.228c0.264,0.084,0.48,0.244,0.648,0.48c0.168,0.238,0.252,0.5,0.252,0.788
			c0,0.511-0.166,0.901-0.5,1.175c-0.332,0.273-0.79,0.409-1.372,0.409h-2.115v-5.526h1.935c0.588,0,1.047,0.129,1.377,0.387
			c0.33,0.259,0.496,0.631,0.496,1.117c0,0.287-0.068,0.537-0.203,0.746C306.523,285.015,306.352,285.156,306.141,285.228z
			 M303.963,284.876h1.018c0.653,0,0.98-0.255,0.98-0.766c0-0.497-0.327-0.746-0.98-0.746h-1.018V284.876z M303.963,285.65v1.621
			h1.188c0.312,0,0.553-0.072,0.721-0.217c0.168-0.144,0.252-0.342,0.252-0.594s-0.084-0.449-0.252-0.594s-0.408-0.217-0.721-0.217
			H303.963z"/>
		<path fill="#585A5E" d="M312.364,287.582c-0.399,0.393-0.938,0.589-1.616,0.589c-0.678,0-1.216-0.196-1.615-0.589
			c-0.398-0.394-0.598-0.962-0.598-1.706v-3.321h0.936v3.223c0,1.037,0.426,1.557,1.277,1.557c0.853,0,1.279-0.52,1.279-1.557
			v-3.223h0.936v3.33C312.963,286.623,312.764,287.188,312.364,287.582z"/>
		<path fill="#585A5E" d="M315.662,282.554v5.526h-0.936v-5.526H315.662z"/>
		<path fill="#585A5E" d="M317.517,288.081v-5.526h0.937v4.689h2.654v0.837H317.517z"/>
		<path fill="#585A5E" d="M322.691,288.081v-5.526h1.863c0.816,0,1.467,0.251,1.953,0.752s0.729,1.172,0.729,2.012
			s-0.242,1.51-0.729,2.012c-0.486,0.5-1.137,0.751-1.953,0.751H322.691z M323.627,287.244h0.892c0.569,0,1.009-0.171,1.318-0.514
			c0.31-0.342,0.464-0.812,0.464-1.412s-0.154-1.072-0.464-1.418c-0.31-0.345-0.749-0.518-1.318-0.518h-0.892V287.244z"/>
	</g>
	<rect x="150.226" y="316.41" fill="#3AD1CA" width="278.891" height="32.539"/>
	<g>
		<path fill="#FFFFFF" d="M195.996,329.764v-5.526h1.863c0.816,0,1.467,0.251,1.953,0.752s0.729,1.172,0.729,2.012
			s-0.242,1.51-0.729,2.012c-0.486,0.5-1.137,0.751-1.953,0.751H195.996z M196.932,328.927h0.892c0.569,0,1.009-0.171,1.318-0.514
			c0.31-0.342,0.464-0.812,0.464-1.412s-0.154-1.072-0.464-1.418c-0.31-0.345-0.749-0.518-1.318-0.518h-0.892V328.927z"/>
		<path fill="#FFFFFF" d="M206.221,324.954c0.479,0.537,0.719,1.22,0.719,2.048s-0.24,1.51-0.719,2.047
			c-0.48,0.537-1.093,0.806-1.837,0.806c-0.743,0-1.354-0.269-1.831-0.806s-0.716-1.219-0.716-2.047s0.239-1.511,0.716-2.048
			c0.477-0.536,1.088-0.806,1.831-0.806C205.128,324.148,205.74,324.417,206.221,324.954z M205.549,328.451
			c0.298-0.379,0.446-0.861,0.446-1.449s-0.148-1.071-0.446-1.449c-0.297-0.378-0.686-0.566-1.165-0.566s-0.866,0.188-1.161,0.562
			c-0.294,0.375-0.441,0.859-0.441,1.453s0.147,1.078,0.441,1.453c0.295,0.375,0.682,0.562,1.161,0.562
			S205.252,328.828,205.549,328.451z"/>
		<path fill="#FFFFFF" d="M208.961,329.058c-0.477-0.531-0.716-1.217-0.716-2.057s0.239-1.525,0.716-2.057s1.075-0.797,1.795-0.797
			c0.612,0,1.113,0.164,1.504,0.49c0.389,0.328,0.639,0.773,0.746,1.337h-0.918c-0.24-0.653-0.684-0.981-1.332-0.981
			c-0.48,0-0.861,0.188-1.143,0.562c-0.282,0.375-0.424,0.857-0.424,1.445s0.142,1.069,0.424,1.444
			c0.281,0.375,0.662,0.562,1.143,0.562c0.648,0,1.092-0.33,1.332-0.99h0.918c-0.107,0.57-0.357,1.019-0.746,1.346
			c-0.391,0.327-0.892,0.49-1.504,0.49C210.036,329.854,209.438,329.589,208.961,329.058z"/>
		<path fill="#FFFFFF" d="M215.48,324.238v2.646l2.295-2.646h1.18l-2.232,2.512l2.313,3.015h-1.17l-1.817-2.367l-0.568,0.647v1.72
			h-0.936v-5.526H215.48z"/>
		<path fill="#FFFFFF" d="M220.412,324.238h3.609v0.828h-2.691v1.458h2.439v0.819h-2.439v1.584h2.691v0.837h-3.609V324.238z"/>
		<path fill="#FFFFFF" d="M227.271,327.523h-0.666v2.241h-0.937v-5.526h2.134c0.582,0,1.041,0.143,1.377,0.428
			s0.504,0.695,0.504,1.229c0,0.456-0.124,0.818-0.374,1.084c-0.248,0.268-0.596,0.438-1.039,0.51l1.602,2.276h-1.062
			L227.271,327.523z M226.604,325.048v1.691h1.179c0.307,0,0.545-0.076,0.716-0.229c0.171-0.154,0.257-0.359,0.257-0.617
			s-0.086-0.463-0.257-0.616s-0.409-0.229-0.716-0.229H226.604z"/>
		<path fill="#FFFFFF" d="M230.826,330.781l0.647-0.998c-0.149-0.024-0.271-0.088-0.364-0.189c-0.094-0.102-0.14-0.23-0.14-0.387
			c0-0.174,0.059-0.318,0.175-0.433c0.117-0.114,0.264-0.171,0.438-0.171c0.18,0,0.326,0.059,0.44,0.176s0.171,0.283,0.171,0.5
			c0,0.221-0.087,0.461-0.261,0.719l-0.522,0.783H230.826z"/>
		<path fill="#FFFFFF" d="M237.278,324.238v2.646l2.295-2.646h1.179l-2.231,2.512l2.313,3.015h-1.17l-1.818-2.367l-0.567,0.647v1.72
			h-0.937v-5.526H237.278z"/>
		<path fill="#FFFFFF" d="M245.814,329.265c-0.398,0.393-0.938,0.589-1.615,0.589s-1.217-0.196-1.615-0.589
			c-0.399-0.394-0.599-0.962-0.599-1.706v-3.321h0.937v3.223c0,1.037,0.426,1.557,1.277,1.557s1.278-0.52,1.278-1.557v-3.223h0.937
			v3.33C246.414,328.306,246.214,328.872,245.814,329.265z"/>
		<path fill="#FFFFFF" d="M251.265,326.912c0.264,0.084,0.479,0.244,0.647,0.48c0.168,0.238,0.252,0.5,0.252,0.788
			c0,0.511-0.166,0.901-0.499,1.175s-0.79,0.409-1.372,0.409h-2.115v-5.526h1.935c0.588,0,1.047,0.129,1.377,0.387
			c0.33,0.259,0.495,0.631,0.495,1.117c0,0.287-0.067,0.537-0.203,0.746C251.646,326.699,251.475,326.839,251.265,326.912z
			 M249.086,326.56h1.018c0.654,0,0.98-0.255,0.98-0.766c0-0.497-0.326-0.746-0.98-0.746h-1.018V326.56z M249.086,327.333v1.621
			h1.188c0.312,0,0.552-0.072,0.72-0.217c0.168-0.144,0.252-0.342,0.252-0.594s-0.084-0.449-0.252-0.594s-0.408-0.217-0.72-0.217
			H249.086z"/>
		<path fill="#FFFFFF" d="M253.766,324.238h3.609v0.828h-2.691v1.458h2.439v0.819h-2.439v1.584h2.691v0.837h-3.609V324.238z"/>
		<path fill="#FFFFFF" d="M260.624,327.523h-0.666v2.241h-0.937v-5.526h2.134c0.582,0,1.041,0.143,1.377,0.428
			s0.504,0.695,0.504,1.229c0,0.456-0.124,0.818-0.374,1.084c-0.248,0.268-0.596,0.438-1.039,0.51l1.602,2.276h-1.062
			L260.624,327.523z M259.958,325.048v1.691h1.179c0.307,0,0.545-0.076,0.716-0.229c0.171-0.154,0.257-0.359,0.257-0.617
			s-0.086-0.463-0.257-0.616s-0.409-0.229-0.716-0.229H259.958z"/>
		<path fill="#FFFFFF" d="M269.094,324.238v5.526h-0.721l-2.826-4.022v4.022h-0.9v-5.526h0.883l2.664,3.834v-3.834H269.094z"/>
		<path fill="#FFFFFF" d="M270.947,324.238h3.609v0.828h-2.691v1.458h2.439v0.819h-2.439v1.584h2.691v0.837h-3.609V324.238z"/>
		<path fill="#FFFFFF" d="M275.861,325.066v-0.828h4.607v0.828h-1.836v4.698h-0.936v-4.698H275.861z"/>
		<path fill="#FFFFFF" d="M281.972,324.238h3.609v0.828h-2.691v1.458h2.439v0.819h-2.439v1.584h2.691v0.837h-3.609V324.238z"/>
		<path fill="#FFFFFF" d="M286.796,328.234h0.954c0.174,0.553,0.591,0.828,1.25,0.828c0.324,0,0.584-0.073,0.779-0.221
			c0.195-0.146,0.293-0.346,0.293-0.598c0-0.199-0.062-0.355-0.186-0.473s-0.328-0.209-0.616-0.275l-0.936-0.225
			c-0.919-0.216-1.378-0.711-1.378-1.484c0-0.475,0.176-0.865,0.527-1.175s0.803-0.464,1.354-0.464c0.581,0,1.052,0.137,1.408,0.41
			c0.356,0.272,0.587,0.646,0.688,1.12H290c-0.174-0.492-0.559-0.738-1.152-0.738c-0.3,0-0.541,0.071-0.725,0.212
			s-0.274,0.325-0.274,0.553c0,0.367,0.243,0.606,0.729,0.721l0.963,0.225c0.449,0.103,0.801,0.282,1.053,0.54
			c0.252,0.259,0.378,0.589,0.378,0.99c0,0.511-0.183,0.917-0.549,1.22s-0.841,0.454-1.423,0.454c-0.588,0-1.078-0.142-1.471-0.427
			S286.892,328.744,286.796,328.234z"/>
		<path fill="#FFFFFF" d="M292.061,330.781l0.648-0.998c-0.15-0.024-0.271-0.088-0.364-0.189s-0.14-0.23-0.14-0.387
			c0-0.174,0.059-0.318,0.176-0.433s0.262-0.171,0.436-0.171c0.181,0,0.328,0.059,0.441,0.176c0.114,0.117,0.172,0.283,0.172,0.5
			c0,0.221-0.088,0.461-0.262,0.719l-0.521,0.783H292.061z"/>
		<path fill="#FFFFFF" d="M299.27,324.238h0.9l2.124,5.526h-0.954l-0.566-1.53h-2.115l-0.567,1.53h-0.944L299.27,324.238z
			 M299.711,325.381l-0.756,2.043h1.512L299.711,325.381z"/>
		<path fill="#FFFFFF" d="M308.162,324.238v5.526h-0.721l-2.826-4.022v4.022h-0.9v-5.526h0.883l2.664,3.834v-3.834H308.162z"/>
		<path fill="#FFFFFF" d="M310.016,329.764v-5.526h1.863c0.816,0,1.467,0.251,1.953,0.752s0.729,1.172,0.729,2.012
			s-0.242,1.51-0.729,2.012c-0.486,0.5-1.137,0.751-1.953,0.751H310.016z M310.951,328.927h0.892c0.569,0,1.009-0.171,1.318-0.514
			c0.31-0.342,0.464-0.812,0.464-1.412s-0.154-1.072-0.464-1.418c-0.31-0.345-0.749-0.518-1.318-0.518h-0.892V328.927z"/>
		<path fill="#FFFFFF" d="M319.146,329.058c-0.477-0.531-0.716-1.217-0.716-2.057s0.239-1.525,0.716-2.057
			c0.478-0.531,1.075-0.797,1.796-0.797c0.611,0,1.113,0.164,1.503,0.49c0.39,0.328,0.639,0.773,0.747,1.337h-0.918
			c-0.24-0.653-0.684-0.981-1.332-0.981c-0.48,0-0.861,0.188-1.143,0.562c-0.283,0.375-0.424,0.857-0.424,1.445
			s0.141,1.069,0.424,1.444c0.281,0.375,0.662,0.562,1.143,0.562c0.648,0,1.092-0.33,1.332-0.99h0.918
			c-0.108,0.57-0.357,1.019-0.747,1.346s-0.892,0.49-1.503,0.49C320.221,329.854,319.623,329.589,319.146,329.058z"/>
		<path fill="#FFFFFF" d="M324.73,329.764v-5.526h0.936v4.689h2.655v0.837H324.73z"/>
		<path fill="#FFFFFF" d="M333.758,324.954c0.479,0.537,0.719,1.22,0.719,2.048s-0.24,1.51-0.719,2.047
			c-0.48,0.537-1.093,0.806-1.837,0.806c-0.743,0-1.354-0.269-1.831-0.806s-0.716-1.219-0.716-2.047s0.239-1.511,0.716-2.048
			c0.477-0.536,1.088-0.806,1.831-0.806C332.665,324.148,333.277,324.417,333.758,324.954z M333.086,328.451
			c0.298-0.379,0.446-0.861,0.446-1.449s-0.148-1.071-0.446-1.449c-0.297-0.378-0.686-0.566-1.165-0.566s-0.866,0.188-1.161,0.562
			c-0.294,0.375-0.441,0.859-0.441,1.453s0.147,1.078,0.441,1.453c0.295,0.375,0.682,0.562,1.161,0.562
			S332.789,328.828,333.086,328.451z"/>
		<path fill="#FFFFFF" d="M339.765,329.265c-0.399,0.393-0.938,0.589-1.616,0.589c-0.678,0-1.216-0.196-1.615-0.589
			c-0.398-0.394-0.598-0.962-0.598-1.706v-3.321h0.936v3.223c0,1.037,0.426,1.557,1.277,1.557c0.853,0,1.279-0.52,1.279-1.557
			v-3.223h0.936v3.33C340.363,328.306,340.164,328.872,339.765,329.265z"/>
		<path fill="#FFFFFF" d="M342.127,329.764v-5.526h1.863c0.816,0,1.467,0.251,1.953,0.752s0.729,1.172,0.729,2.012
			s-0.242,1.51-0.729,2.012c-0.486,0.5-1.137,0.751-1.953,0.751H342.127z M343.062,328.927h0.892c0.569,0,1.009-0.171,1.318-0.514
			c0.31-0.342,0.464-0.812,0.464-1.412s-0.154-1.072-0.464-1.418c-0.31-0.345-0.749-0.518-1.318-0.518h-0.892V328.927z"/>
		<path fill="#FFFFFF" d="M355.294,324.238v5.526h-0.72l-2.826-4.022v4.022h-0.9v-5.526h0.883l2.664,3.834v-3.834H355.294z"/>
		<path fill="#FFFFFF" d="M358.84,324.238h0.9l2.123,5.526h-0.953l-0.567-1.53h-2.115l-0.567,1.53h-0.944L358.84,324.238z
			 M359.281,325.381l-0.757,2.043h1.513L359.281,325.381z"/>
		<path fill="#FFFFFF" d="M362.367,325.066v-0.828h4.608v0.828h-1.836v4.698h-0.937v-4.698H362.367z"/>
		<path fill="#FFFFFF" d="M369.424,324.238v5.526h-0.937v-5.526H369.424z"/>
		<path fill="#FFFFFF" d="M373.824,329.764h-0.891l-2.088-5.526h0.98l1.566,4.312l1.566-4.312h0.953L373.824,329.764z"/>
		<path fill="#FFFFFF" d="M377.325,324.238h3.609v0.828h-2.691v1.458h2.439v0.819h-2.439v1.584h2.691v0.837h-3.609V324.238z"/>
	</g>
	<g>
		<path fill="#FFFFFF" d="M236.283,340.564v-5.525h1.863c0.816,0,1.467,0.25,1.953,0.751s0.729,1.171,0.729,2.011
			c0,0.841-0.243,1.512-0.729,2.012c-0.486,0.502-1.137,0.752-1.953,0.752H236.283z M237.22,339.727h0.892
			c0.569,0,1.009-0.171,1.318-0.513c0.309-0.342,0.463-0.813,0.463-1.414c0-0.6-0.154-1.072-0.463-1.417
			c-0.31-0.345-0.749-0.518-1.318-0.518h-0.892V339.727z"/>
		<path fill="#FFFFFF" d="M242.386,335.039h3.609v0.827h-2.691v1.458h2.439v0.819h-2.439v1.584h2.691v0.837h-3.609V335.039z"/>
		<path fill="#FFFFFF" d="M249.775,338.503h-1.197v2.061h-0.937v-5.525h2.134c0.582,0,1.042,0.149,1.381,0.449
			c0.339,0.301,0.508,0.729,0.508,1.287c0,0.553-0.169,0.979-0.508,1.277C250.817,338.353,250.357,338.503,249.775,338.503z
			 M250.738,336.775c0-0.281-0.084-0.507-0.252-0.675s-0.412-0.252-0.729-0.252h-1.179v1.845h1.179c0.312,0,0.554-0.084,0.725-0.252
			S250.738,337.05,250.738,336.775z"/>
		<path fill="#FFFFFF" d="M253.176,340.564v-5.525h0.937v4.688h2.655v0.837H253.176z"/>
		<path fill="#FFFFFF" d="M262.203,335.753c0.48,0.537,0.721,1.22,0.721,2.047c0,0.828-0.24,1.512-0.721,2.049
			s-1.092,0.805-1.836,0.805s-1.354-0.268-1.832-0.805c-0.477-0.537-0.715-1.221-0.715-2.049c0-0.827,0.238-1.51,0.715-2.047
			c0.478-0.537,1.088-0.806,1.832-0.806S261.723,335.216,262.203,335.753z M261.533,339.25c0.297-0.377,0.445-0.86,0.445-1.449
			c0-0.588-0.148-1.07-0.445-1.448s-0.686-0.567-1.166-0.567s-0.867,0.188-1.16,0.562c-0.295,0.375-0.441,0.859-0.441,1.453
			c0,0.595,0.146,1.079,0.441,1.454c0.293,0.375,0.68,0.562,1.16,0.562S261.236,339.628,261.533,339.25z"/>
		<path fill="#FFFFFF" d="M266.092,337.513l1.458-2.475h0.989l-2.006,3.32v2.205h-0.928v-2.205l-1.998-3.32h1.018L266.092,337.513z"
			/>
		<path fill="#FFFFFF" d="M272.994,340.564h-0.666l-1.521-3.843v3.843h-0.891v-5.525h1.071l1.683,4.248l1.665-4.248h1.044v5.525
			h-0.9v-3.843L272.994,340.564z"/>
		<path fill="#FFFFFF" d="M277.233,335.039h3.609v0.827h-2.691v1.458h2.439v0.819h-2.439v1.584h2.691v0.837h-3.609V335.039z"/>
		<path fill="#FFFFFF" d="M286.936,335.039v5.525h-0.721l-2.825-4.023v4.023h-0.9v-5.525h0.882l2.664,3.834v-3.834H286.936z"/>
		<path fill="#FFFFFF" d="M288.447,335.866v-0.827h4.607v0.827h-1.836v4.698h-0.936v-4.698H288.447z"/>
		<path fill="#FFFFFF" d="M298.869,335.039h0.9l2.123,5.525h-0.953l-0.567-1.529h-2.115l-0.567,1.529h-0.944L298.869,335.039z
			 M299.311,336.181l-0.757,2.043h1.513L299.311,336.181z"/>
		<path fill="#FFFFFF" d="M304.917,338.323h-0.666v2.241h-0.937v-5.525h2.134c0.582,0,1.041,0.143,1.377,0.427
			c0.336,0.285,0.504,0.694,0.504,1.229c0,0.456-0.124,0.817-0.374,1.085c-0.248,0.267-0.596,0.436-1.039,0.508l1.602,2.277h-1.062
			L304.917,338.323z M304.251,335.848v1.692h1.179c0.307,0,0.545-0.077,0.716-0.23c0.171-0.152,0.257-0.357,0.257-0.616
			c0-0.258-0.086-0.464-0.257-0.616c-0.171-0.153-0.409-0.229-0.716-0.229H304.251z"/>
		<path fill="#FFFFFF" d="M308.518,335.866v-0.827h4.607v0.827h-1.836v4.698h-0.936v-4.698H308.518z"/>
		<path fill="#FFFFFF" d="M315.572,335.039v5.525h-0.936v-5.525H315.572z"/>
		<path fill="#FFFFFF" d="M318.363,340.564h-0.937v-5.525h3.528v0.827h-2.592v1.638h2.421v0.819h-2.421V340.564z"/>
		<path fill="#FFFFFF" d="M323.854,335.039h0.899l2.124,5.525h-0.954l-0.567-1.529h-2.115l-0.566,1.529h-0.945L323.854,335.039z
			 M324.294,336.181l-0.757,2.043h1.513L324.294,336.181z"/>
		<path fill="#FFFFFF" d="M328.447,339.857c-0.477-0.53-0.715-1.216-0.715-2.057c0-0.84,0.238-1.525,0.715-2.056
			c0.477-0.531,1.076-0.797,1.796-0.797c0.612,0,1.112,0.163,1.503,0.491c0.39,0.326,0.639,0.771,0.747,1.336h-0.918
			c-0.24-0.654-0.685-0.98-1.332-0.98c-0.48,0-0.861,0.188-1.144,0.562c-0.281,0.375-0.423,0.855-0.423,1.443
			c0,0.589,0.142,1.07,0.423,1.445c0.282,0.375,0.663,0.562,1.144,0.562c0.647,0,1.092-0.33,1.332-0.99h0.918
			c-0.108,0.57-0.357,1.019-0.747,1.346c-0.391,0.327-0.891,0.49-1.503,0.49C329.523,340.654,328.924,340.388,328.447,339.857z"/>
		<path fill="#FFFFFF" d="M333.537,335.866v-0.827h4.607v0.827h-1.836v4.698h-0.936v-4.698H333.537z"/>
		<path fill="#FFFFFF" d="M339.18,339.035h0.953c0.175,0.551,0.592,0.827,1.252,0.827c0.324,0,0.583-0.073,0.778-0.22
			c0.194-0.147,0.292-0.348,0.292-0.6c0-0.197-0.061-0.355-0.184-0.473c-0.123-0.116-0.329-0.208-0.617-0.273l-0.936-0.226
			c-0.918-0.216-1.377-0.711-1.377-1.485c0-0.474,0.176-0.865,0.526-1.174s0.802-0.464,1.354-0.464c0.582,0,1.051,0.137,1.408,0.409
			c0.357,0.273,0.586,0.646,0.688,1.121h-0.937c-0.174-0.492-0.557-0.738-1.151-0.738c-0.3,0-0.542,0.07-0.725,0.212
			c-0.183,0.141-0.274,0.325-0.274,0.554c0,0.365,0.243,0.605,0.729,0.72l0.963,0.226c0.451,0.102,0.802,0.281,1.054,0.539
			s0.378,0.588,0.378,0.99c0,0.51-0.184,0.916-0.549,1.22c-0.366,0.303-0.84,0.454-1.422,0.454c-0.588,0-1.078-0.143-1.472-0.428
			S339.275,339.544,339.18,339.035z"/>
	</g>
	<g>
		<line fill="none" stroke="#585A5E" stroke-miterlimit="10" x1="289.957" y1="305.104" x2="289.957" y2="295.424"/>
		<polygon fill="#585A5E" points="292.948,304.228 289.956,309.41 286.966,304.228 		"/>
	</g>
	<g>
		<line fill="none" stroke="#585A5E" stroke-miterlimit="10" x1="289.957" y1="263.842" x2="289.957" y2="254.163"/>
		<polygon fill="#585A5E" points="292.948,262.966 289.956,268.148 286.966,262.966 		"/>
	</g>
	
		<rect x="32.873" y="150.265" fill="#FFFFFF" stroke="#A7A8AB" stroke-width="0.6446" stroke-miterlimit="10" width="97.943" height="41.781"/>
	<g>
		<g>
			<path fill="#585A5E" d="M63.572,169.14l-2.209-6.767h0.943l1.055,3.333c0.291,0.914,0.542,1.737,0.723,2.53h0.02
				c0.191-0.783,0.473-1.636,0.773-2.52l1.145-3.343h0.934l-2.42,6.767H63.572z"/>
			<path fill="#585A5E" d="M71.893,165.967h-2.631v2.44h2.932v0.733h-3.805v-6.767h3.654v0.733h-2.781v2.139h2.631V165.967z"/>
			<path fill="#585A5E" d="M74.027,162.463c0.441-0.09,1.074-0.141,1.678-0.141c0.934,0,1.535,0.171,1.957,0.552
				c0.342,0.301,0.532,0.763,0.532,1.285c0,0.894-0.562,1.486-1.274,1.727v0.03c0.521,0.181,0.832,0.663,0.993,1.366
				c0.222,0.944,0.382,1.596,0.522,1.857h-0.904c-0.109-0.191-0.261-0.773-0.451-1.617c-0.201-0.934-0.562-1.285-1.355-1.315h-0.823
				v2.932h-0.874V162.463z M74.901,165.545h0.894c0.934,0,1.525-0.512,1.525-1.285c0-0.874-0.632-1.255-1.556-1.265
				c-0.422,0-0.723,0.04-0.863,0.08V165.545z"/>
			<path fill="#585A5E" d="M80.049,168.075c0.392,0.241,0.964,0.442,1.566,0.442c0.894,0,1.416-0.472,1.416-1.155
				c0-0.632-0.361-0.994-1.275-1.345c-1.104-0.392-1.787-0.964-1.787-1.917c0-1.054,0.873-1.837,2.188-1.837
				c0.692,0,1.194,0.161,1.496,0.331l-0.241,0.713c-0.221-0.121-0.672-0.321-1.285-0.321c-0.924,0-1.275,0.552-1.275,1.014
				c0,0.632,0.412,0.944,1.346,1.305c1.145,0.442,1.727,0.994,1.727,1.988c0,1.044-0.772,1.948-2.369,1.948
				c-0.652,0-1.365-0.191-1.727-0.432L80.049,168.075z"/>
			<path fill="#585A5E" d="M86.693,162.373v6.767h-0.874v-6.767H86.693z"/>
			<path fill="#585A5E" d="M94.693,165.686c0,2.33-1.416,3.564-3.143,3.564c-1.787,0-3.043-1.385-3.043-3.434
				c0-2.149,1.336-3.554,3.143-3.554C93.498,162.262,94.693,163.678,94.693,165.686z M89.442,165.796
				c0,1.446,0.782,2.741,2.159,2.741c1.385,0,2.168-1.275,2.168-2.811c0-1.346-0.703-2.751-2.158-2.751
				C90.165,162.975,89.442,164.31,89.442,165.796z"/>
			<path fill="#585A5E" d="M96.527,169.14v-6.767h0.953l2.17,3.424c0.502,0.793,0.893,1.506,1.215,2.199l0.02-0.01
				c-0.08-0.903-0.101-1.727-0.101-2.781v-2.832h0.823v6.767h-0.883l-2.148-3.434c-0.473-0.753-0.924-1.526-1.266-2.259l-0.03,0.01
				c0.05,0.853,0.07,1.667,0.07,2.791v2.892H96.527z"/>
		</g>
		<g>
			<path fill="#585A5E" d="M60.164,179.351c-0.532-0.592-0.799-1.356-0.799-2.293c0-0.937,0.267-1.701,0.799-2.293
				c0.531-0.592,1.199-0.888,2.002-0.888c0.682,0,1.24,0.183,1.676,0.547c0.435,0.365,0.713,0.862,0.833,1.49H63.65
				c-0.268-0.729-0.762-1.094-1.484-1.094c-0.535,0-0.961,0.209-1.275,0.627s-0.471,0.955-0.471,1.61
				c0,0.656,0.156,1.193,0.471,1.611c0.314,0.418,0.74,0.627,1.275,0.627c0.723,0,1.217-0.368,1.484-1.104h1.024
				c-0.12,0.636-0.398,1.136-0.833,1.5c-0.436,0.365-0.994,0.547-1.676,0.547C61.363,180.239,60.695,179.943,60.164,179.351z"/>
			<path fill="#585A5E" d="M70.937,174.775c0.535,0.599,0.804,1.36,0.804,2.283c0,0.923-0.269,1.685-0.804,2.283
				s-1.218,0.898-2.047,0.898s-1.511-0.3-2.042-0.898c-0.532-0.599-0.799-1.36-0.799-2.283c0-0.923,0.267-1.684,0.799-2.283
				c0.531-0.599,1.213-0.898,2.042-0.898S70.401,174.176,70.937,174.775z M70.189,178.673c0.33-0.421,0.496-0.96,0.496-1.616
				c0-0.655-0.166-1.194-0.496-1.616c-0.332-0.421-0.765-0.632-1.3-0.632c-0.536,0-0.967,0.209-1.295,0.627
				c-0.327,0.418-0.491,0.958-0.491,1.621c0,0.663,0.164,1.203,0.491,1.621c0.328,0.418,0.759,0.627,1.295,0.627
				C69.425,179.306,69.857,179.095,70.189,178.673z"/>
			<path fill="#585A5E" d="M78.434,173.977v6.162H77.63l-3.151-4.486v4.486h-1.003v-6.162h0.983l2.971,4.275v-4.275H78.434z"/>
			<path fill="#585A5E" d="M80.119,174.9v-0.923h5.138v0.923H83.21v5.238h-1.044V174.9H80.119z"/>
			<path fill="#585A5E" d="M88.719,177.64h-0.742v2.499h-1.043v-6.162h2.378c0.648,0,1.161,0.159,1.535,0.477
				s0.562,0.774,0.562,1.37c0,0.509-0.139,0.912-0.416,1.209s-0.664,0.487-1.159,0.567l1.786,2.539h-1.184L88.719,177.64z
				 M87.977,174.88v1.887h1.314c0.342,0,0.607-0.085,0.798-0.256c0.19-0.17,0.286-0.399,0.286-0.688
				c0-0.288-0.096-0.517-0.286-0.687c-0.19-0.171-0.456-0.256-0.798-0.256H87.977z"/>
			<path fill="#585A5E" d="M97.761,174.775c0.535,0.599,0.804,1.36,0.804,2.283c0,0.923-0.269,1.685-0.804,2.283
				s-1.218,0.898-2.047,0.898s-1.511-0.3-2.042-0.898c-0.532-0.599-0.799-1.36-0.799-2.283c0-0.923,0.267-1.684,0.799-2.283
				c0.531-0.599,1.213-0.898,2.042-0.898S97.226,174.176,97.761,174.775z M97.014,178.673c0.33-0.421,0.496-0.96,0.496-1.616
				c0-0.655-0.166-1.194-0.496-1.616c-0.332-0.421-0.765-0.632-1.3-0.632c-0.536,0-0.967,0.209-1.295,0.627
				c-0.327,0.418-0.491,0.958-0.491,1.621c0,0.663,0.164,1.203,0.491,1.621c0.328,0.418,0.759,0.627,1.295,0.627
				C96.249,179.306,96.682,179.095,97.014,178.673z"/>
			<path fill="#585A5E" d="M100.29,180.139v-6.162h1.044v5.229h2.96v0.933H100.29z"/>
		</g>
	</g>
	
		<rect x="32.873" y="233.685" fill="#FFFFFF" stroke="#A7A8AB" stroke-width="0.5594" stroke-miterlimit="10" width="97.943" height="31.465"/>
	<g>
		<path fill="#585A5E" d="M69.702,251.589c-0.532-0.592-0.798-1.356-0.798-2.293c0-0.937,0.266-1.701,0.798-2.293
			c0.532-0.592,1.199-0.888,2.002-0.888c0.683,0,1.241,0.183,1.677,0.547c0.434,0.365,0.712,0.862,0.832,1.49h-1.023
			c-0.268-0.729-0.763-1.094-1.485-1.094c-0.535,0-0.96,0.209-1.274,0.627s-0.472,0.955-0.472,1.61c0,0.656,0.157,1.193,0.472,1.611
			s0.739,0.627,1.274,0.627c0.723,0,1.218-0.368,1.485-1.104h1.023c-0.12,0.635-0.398,1.135-0.832,1.5
			c-0.436,0.364-0.994,0.547-1.677,0.547C70.901,252.478,70.234,252.181,69.702,251.589z"/>
		<path fill="#585A5E" d="M76.963,246.216v6.162H75.92v-6.162H76.963z"/>
		<path fill="#585A5E" d="M78.398,253.22l2.488-7.366h0.993l-2.489,7.366H78.398z"/>
		<path fill="#585A5E" d="M83.49,251.589c-0.531-0.592-0.798-1.356-0.798-2.293c0-0.937,0.267-1.701,0.798-2.293
			c0.532-0.592,1.199-0.888,2.002-0.888c0.683,0,1.241,0.183,1.676,0.547c0.436,0.365,0.713,0.862,0.834,1.49h-1.024
			c-0.268-0.729-0.763-1.094-1.485-1.094c-0.535,0-0.96,0.209-1.274,0.627s-0.472,0.955-0.472,1.61c0,0.656,0.157,1.193,0.472,1.611
			s0.739,0.627,1.274,0.627c0.723,0,1.218-0.368,1.485-1.104h1.024c-0.121,0.635-0.398,1.135-0.834,1.5
			c-0.435,0.364-0.993,0.547-1.676,0.547C84.689,252.478,84.022,252.181,83.49,251.589z"/>
		<path fill="#585A5E" d="M89.718,252.377v-6.162h2.077c0.91,0,1.636,0.279,2.178,0.838s0.812,1.306,0.812,2.243
			c0,0.937-0.271,1.685-0.812,2.243s-1.268,0.838-2.178,0.838H89.718z M90.762,251.445h0.993c0.636,0,1.126-0.191,1.47-0.572
			c0.345-0.382,0.518-0.907,0.518-1.576c0-0.669-0.173-1.196-0.518-1.581c-0.344-0.384-0.834-0.577-1.47-0.577h-0.993V251.445z"/>
	</g>
	
		<rect x="32.873" y="66.798" fill="#FFFFFF" stroke="#A7A8AB" stroke-width="0.7458" stroke-miterlimit="10" width="97.943" height="55.924"/>
	<g>
		<path fill="#585A5E" d="M73.546,79.094v6.162h-1.044v-6.162H73.546z"/>
		<path fill="#585A5E" d="M75.613,85.255v-6.162h2.077c0.909,0,1.636,0.279,2.178,0.838s0.813,1.306,0.813,2.243
			c0,0.937-0.271,1.685-0.813,2.243s-1.269,0.838-2.178,0.838H75.613z M76.656,84.322h0.994c0.635,0,1.125-0.191,1.471-0.572
			c0.344-0.381,0.516-0.906,0.516-1.576c0-0.669-0.172-1.196-0.516-1.581c-0.346-0.384-0.836-0.577-1.471-0.577h-0.994V84.322z"/>
		<path fill="#585A5E" d="M82.407,79.094h4.024v0.923h-3.001v1.625h2.72v0.913h-2.72v1.767h3.001v0.933h-4.024V79.094z"/>
		<path fill="#585A5E" d="M87.876,83.971h1.023c0.114,0.375,0.408,0.562,0.884,0.562c0.234,0,0.42-0.045,0.557-0.135
			s0.205-0.223,0.205-0.396c0-0.121-0.039-0.216-0.12-0.286c-0.08-0.07-0.214-0.128-0.401-0.175l-0.923-0.221
			c-0.736-0.174-1.104-0.582-1.104-1.224c0-0.401,0.159-0.734,0.477-0.999c0.318-0.264,0.721-0.396,1.21-0.396
			c0.509,0,0.913,0.116,1.214,0.346c0.301,0.231,0.492,0.554,0.572,0.969h-0.983c-0.101-0.328-0.372-0.492-0.813-0.492
			c-0.193,0-0.361,0.044-0.502,0.131c-0.14,0.087-0.21,0.214-0.21,0.381c0,0.194,0.153,0.331,0.462,0.411l0.943,0.221
			c0.762,0.181,1.144,0.603,1.144,1.265c0,0.435-0.162,0.781-0.487,1.039c-0.324,0.258-0.74,0.387-1.248,0.387
			c-0.522,0-0.953-0.124-1.29-0.372C88.146,84.737,87.943,84.399,87.876,83.971z"/>
	</g>
	<g>
		<line fill="none" stroke="#585A5E" stroke-miterlimit="10" x1="289.957" y1="358.628" x2="289.957" y2="348.949"/>
		<polygon fill="#585A5E" points="292.948,357.752 289.956,362.934 286.966,357.752 		"/>
	</g>
	<g>
		<line fill="none" stroke="#585A5E" stroke-miterlimit="10" x1="289.957" y1="222.378" x2="289.957" y2="212.699"/>
		<polygon fill="#585A5E" points="292.948,221.502 289.956,226.684 286.966,221.502 		"/>
	</g>
	<g>
		<line fill="none" stroke="#585A5E" stroke-miterlimit="10" x1="289.957" y1="138.867" x2="289.957" y2="129.187"/>
		<polygon fill="#585A5E" points="292.948,137.991 289.956,143.172 286.966,137.991 		"/>
	</g>
	<g>
		<g>
			<g>
				<g>
					<g>
						<path fill="#464646" d="M45.945,404.54h-3.684v-7.838h3.484c1.977,0,2.824,0.847,2.824,2.128c0,0.884-0.598,1.505-1.443,1.643
							c0.945,0.175,1.68,0.796,1.68,1.915C48.807,403.744,47.773,404.54,45.945,404.54z M43.779,399.962h1.867
							c0.934,0,1.332-0.41,1.332-0.996c0-0.584-0.398-1.008-1.332-1.008h-1.867V399.962z M43.779,401.143v2.141h1.99
							c0.972,0,1.444-0.41,1.444-1.058c0-0.659-0.473-1.083-1.444-1.083H43.779z"/>
						<path fill="#464646" d="M54.383,403.209c0,0.286,0.148,0.422,0.385,0.422c0.148,0,0.299-0.036,0.461-0.111v0.796
							c-0.236,0.188-0.535,0.349-1.032,0.349c-0.623,0-1.096-0.398-1.206-1.058c-0.312,0.647-1.008,1.07-1.917,1.07
							c-1.046,0-1.742-0.56-1.742-1.505c0-1.046,0.821-1.481,2.09-1.718l1.506-0.285v-0.162c0-0.609-0.323-0.983-0.958-0.983
							c-0.622,0-0.958,0.374-1.082,0.908l-1.356-0.124c0.187-1.12,1.046-1.904,2.501-1.904c1.418,0,2.352,0.673,2.352,2.115V403.209
							z M52.927,401.977l-1.032,0.212c-0.684,0.137-1.107,0.312-1.107,0.82c0,0.386,0.273,0.673,0.759,0.673
							c0.784,0,1.381-0.585,1.381-1.518V401.977z"/>
						<path fill="#464646" d="M66.613,402.711c-0.274,1.244-1.246,1.979-2.651,1.979c-1.69,0-2.91-1.083-2.91-2.812
							c0-1.73,1.231-2.975,2.873-2.975c1.792,0,2.712,1.244,2.712,2.737v0.473H62.52c0.05,0.896,0.684,1.443,1.492,1.443
							c0.734,0,1.183-0.324,1.395-0.97L66.613,402.711z M65.182,401.331c-0.025-0.709-0.436-1.331-1.269-1.331
							c-0.821,0-1.281,0.597-1.369,1.331H65.182z"/>
						<path fill="#464646" d="M71.293,400.521c-0.287-0.161-0.534-0.236-0.896-0.236c-0.77,0-1.293,0.548-1.293,1.543v2.712h-1.492
							v-5.486h1.492v1.046c0.198-0.622,0.771-1.195,1.531-1.195c0.335,0,0.609,0.087,0.77,0.224L71.293,400.521z"/>
						<path fill="#464646" d="M72.034,396.702h1.53v1.457h-1.53V396.702z M73.551,399.053v5.486h-1.492v-5.486H73.551z"/>
						<path fill="#464646" d="M76.273,404.54H74.78v-5.486h1.493v0.896c0.273-0.623,0.971-1.046,1.791-1.046
							c1.469,0,2.004,0.995,2.004,2.215v3.421h-1.493v-3.122c0-0.846-0.335-1.331-1.069-1.331c-0.76,0-1.232,0.597-1.232,1.518
							V404.54z"/>
						<path fill="#464646" d="M86.002,403.209c0,0.286,0.148,0.422,0.386,0.422c0.148,0,0.299-0.036,0.46-0.111v0.796
							c-0.236,0.188-0.535,0.349-1.032,0.349c-0.622,0-1.095-0.398-1.207-1.058c-0.312,0.647-1.008,1.07-1.915,1.07
							c-1.046,0-1.742-0.56-1.742-1.505c0-1.046,0.82-1.481,2.09-1.718l1.505-0.285v-0.162c0-0.609-0.324-0.983-0.958-0.983
							c-0.622,0-0.957,0.374-1.082,0.908l-1.355-0.124c0.186-1.12,1.044-1.904,2.5-1.904c1.418,0,2.352,0.673,2.352,2.115V403.209z
							 M84.546,401.977l-1.032,0.212c-0.685,0.137-1.107,0.312-1.107,0.82c0,0.386,0.273,0.673,0.76,0.673
							c0.783,0,1.38-0.585,1.38-1.518V401.977z"/>
					</g>
					<g>
						<polygon fill="#464646" points="55.878,398.74 55.878,396.477 57.773,396.477 57.773,399.464 						"/>
						<polygon fill="#464646" points="55.878,399.449 57.176,399.945 55.878,400.44 						"/>
						<polygon fill="#464646" points="57.773,400.424 57.773,401.521 56.852,404.54 55.878,404.54 55.878,401.149 						"/>
					</g>
					<g>
						<polygon fill="#464646" points="60.324,398.74 60.324,396.477 58.431,396.477 58.431,399.464 						"/>
						<polygon fill="#464646" points="60.324,399.449 59.027,399.945 60.324,400.44 						"/>
						<polygon fill="#464646" points="58.431,400.424 58.431,401.521 59.352,404.54 60.324,404.54 60.324,401.149 						"/>
					</g>
				</g>
			</g>
			<g>
				<path fill="#41C4BF" d="M99.16,402.669c-0.264,1.251-1.175,2.022-2.516,2.022c-1.593,0-2.781-1.125-2.781-2.819
					c0-1.733,1.177-2.972,2.731-2.972c1.719,0,2.579,1.238,2.579,2.731v0.354H94.66c0.05,1.214,0.898,2.074,1.984,2.074
					c1.013,0,1.632-0.507,1.859-1.48L99.16,402.669z M98.353,401.442c-0.026-1.012-0.595-1.935-1.758-1.935
					c-1.087,0-1.795,0.91-1.923,1.935H98.353z"/>
				<path fill="#41C4BF" d="M101.222,404.54h-0.771v-5.487h0.771v1.011c0.266-0.669,1.024-1.162,1.848-1.162
					c1.416,0,2.01,0.923,2.01,2.237v3.401h-0.771v-3.426c0-0.975-0.507-1.606-1.442-1.606c-0.872,0-1.644,0.683-1.644,1.746V404.54z
					"/>
				<path fill="#41C4BF" d="M106.85,399.622h-0.848v-0.38l0.328-0.062c0.506-0.102,0.607-0.343,0.721-0.872l0.164-0.785h0.393v1.53
					h1.594v0.569h-1.594v3.718c0,0.492,0.202,0.732,0.709,0.732c0.379,0,0.758-0.188,1.074-0.379v0.543
					c-0.393,0.304-0.785,0.456-1.341,0.456c-0.733,0-1.2-0.367-1.2-1.365V399.622z"/>
				<path fill="#41C4BF" d="M113.513,399.824c-0.315-0.164-0.506-0.214-0.834-0.214c-0.798,0-1.442,0.82-1.442,1.921v3.009h-0.771
					v-5.487h0.771v1.15c0.214-0.632,0.771-1.302,1.581-1.302c0.341,0,0.581,0.074,0.783,0.253L113.513,399.824z"/>
				<path fill="#41C4BF" d="M118.71,403.618c0,0.29,0.177,0.43,0.454,0.43c0.127,0,0.341-0.052,0.493-0.14v0.417
					c-0.164,0.189-0.341,0.329-0.72,0.329c-0.544,0-0.936-0.468-0.962-1.163c-0.29,0.645-1.101,1.201-2.036,1.201
					c-1.023,0-1.706-0.568-1.706-1.517c0-1.038,0.91-1.455,2.276-1.733l1.466-0.304v-0.277c0-0.835-0.492-1.354-1.353-1.354
					c-0.887,0-1.379,0.519-1.568,1.227l-0.657-0.127c0.216-0.985,1.023-1.706,2.214-1.706c1.364,0,2.099,0.721,2.099,2.073V403.618z
					 M117.976,401.708l-1.341,0.29c-0.998,0.215-1.618,0.417-1.618,1.15c0,0.519,0.343,0.948,1.062,0.948
					c1.074,0,1.896-0.821,1.896-2.048V401.708z"/>
				<path fill="#41C4BF" d="M121.428,396.574v7.966h-0.771v-7.966H121.428z"/>
			</g>
		</g>
		<path fill="#41C4BF" d="M92.201,402.266c-0.094,1.022-0.734,1.781-1.865,1.781c-1.151,0-1.935-0.898-1.935-2.251
			c0-1.354,0.783-2.251,1.935-2.251c1.122,0,1.762,0.723,1.863,1.731l0.707-0.052c-0.128-1.29-0.983-2.324-2.545-2.324
			c-1.631,0-2.77,1.15-2.77,2.896s1.139,2.896,2.77,2.896c1.571,0,2.428-1.046,2.549-2.349L92.201,402.266z"/>
	</g>
	<g>
		<g>
			<g>
				<path fill-rule="evenodd" clip-rule="evenodd" fill="#B3B3B3" d="M77.289,101.252c0,2.354-0.002,4.708,0.002,7.062
					c0,0.109-0.033,0.161-0.137,0.202c-1.408,0.569-2.814,1.142-4.221,1.718c-0.105,0.043-0.166,0.03-0.246-0.05
					c-2.32-2.324-4.645-4.645-6.967-6.967c-0.104-0.102-0.104-0.102-0.215-0.016c-1.268,0.988-2.533,1.976-3.801,2.963
					c-0.197,0.153-0.396,0.305-0.592,0.46c-0.051,0.04-0.09,0.041-0.146,0.012c-0.541-0.272-1.082-0.543-1.623-0.812
					c-0.064-0.032-0.09-0.069-0.09-0.141c0.002-2.943,0.002-5.885,0-8.828c0-0.071,0.021-0.11,0.088-0.143
					c0.539-0.268,1.08-0.538,1.619-0.809c0.059-0.029,0.098-0.032,0.154,0.012c1.023,0.81,2.051,1.618,3.076,2.425
					c0.434,0.34,0.867,0.679,1.295,1.024c0.084,0.067,0.129,0.067,0.207-0.011c2.328-2.332,4.66-4.661,6.986-6.993
					c0.084-0.084,0.148-0.1,0.262-0.054c1.404,0.566,2.809,1.125,4.215,1.682c0.107,0.042,0.133,0.096,0.133,0.202
					C77.287,96.544,77.289,98.898,77.289,101.252z M72.77,104.942c0.008-0.005,0.018-0.011,0.025-0.017c0-2.438,0-4.876,0-7.349
					c-1.6,1.238-3.176,2.46-4.77,3.693C69.617,102.502,71.193,103.722,72.77,104.942z M61.043,104.073
					c0.047-0.044,0.074-0.067,0.1-0.093c0.334-0.347,0.67-0.694,1.006-1.04c0.516-0.533,1.033-1.064,1.553-1.594
					c0.061-0.062,0.059-0.097-0.002-0.156c-0.854-0.852-1.709-1.707-2.562-2.56c-0.025-0.024-0.055-0.043-0.094-0.075
					C61.043,100.4,61.043,102.223,61.043,104.073z"/>
			</g>
		</g>
		<g>
			<g>
				<path fill-rule="evenodd" clip-rule="evenodd" fill="#B3B3B3" d="M104.436,92.574c0,5.896,0,11.787,0,17.684
					c-5.896,0-11.791,0-17.688,0c0-5.894,0-11.787,0-17.684C92.643,92.574,98.535,92.574,104.436,92.574z M91.836,100.862
					c0-1.59,0-3.169,0-4.755c0.369,0,0.734,0,1.096,0c0-0.481,0-0.956,0-1.43c-1.252,0-2.5,0-3.75,0c0,0.479,0,0.953,0,1.434
					c0.367,0,0.732,0,1.098,0c0,1.586,0,3.166,0,4.753c-0.369,0-0.732,0-1.098,0c0,0.482,0,0.957,0,1.435c1.254,0,2.5,0,3.75,0
					c0-0.479,0-0.955,0-1.437C92.564,100.862,92.203,100.862,91.836,100.862z M94.156,101.286c0.004,0.009,0.008,0.015,0.012,0.02
					c0.346,0.415,0.762,0.735,1.271,0.924c0.576,0.216,1.17,0.229,1.768,0.115c0.863-0.165,1.451-0.655,1.734-1.494
					c0.145-0.427,0.188-0.87,0.188-1.318c0.002-1.595,0.002-3.188,0.002-4.783c0-0.023,0-0.047,0-0.073c-0.559,0-1.105,0-1.662,0
					c0,0.034,0,0.064,0,0.095c0,1.588,0.002,3.176,0,4.763c0,0.163-0.014,0.327-0.037,0.488c-0.031,0.213-0.107,0.412-0.258,0.572
					c-0.234,0.25-0.539,0.296-0.861,0.258c-0.332-0.04-0.604-0.21-0.848-0.431c-0.102-0.093-0.197-0.191-0.301-0.29
					C94.828,100.515,94.492,100.899,94.156,101.286z M88.518,107.825c2.211,0,4.42,0,6.625,0c0-0.369,0-0.733,0-1.095
					c-2.211,0-4.418,0-6.625,0C88.518,107.097,88.518,107.459,88.518,107.825z"/>
			</g>
		</g>
	</g>
</g>
</svg>
