<?xml version="1.0" encoding="utf-8"?>
<!-- Generator: Adobe Illustrator 16.0.4, SVG Export Plug-In . SVG Version: 6.00 Build 0)  -->
<!DOCTYPE svg PUBLIC "-//W3C//DTD SVG 1.1//EN" "http://www.w3.org/Graphics/SVG/1.1/DTD/svg11.dtd">
<svg version="1.1" id="Layer_1" xmlns="http://www.w3.org/2000/svg" xmlns:xlink="http://www.w3.org/1999/xlink" x="0px" y="0px"
	 width="452.664px" height="497.436px" viewBox="0 0 452.664 497.436" enable-background="new 0 0 452.664 497.436"
	 xml:space="preserve">
<rect x="0.001" y="0" fill="#FFFFFF" width="452.664" height="497.436"/>
<g>
	<rect x="155.838" y="413.654" fill="#F5F6F6" width="281.775" height="25"/>
	<g>
		<g>
			<path fill="#595B5F" d="M252.539,425.868c0.383,0.121,0.693,0.354,0.938,0.695c0.242,0.342,0.363,0.721,0.363,1.137
				c0,0.738-0.24,1.303-0.721,1.697c-0.482,0.395-1.143,0.592-1.982,0.592h-3.057v-7.982h2.795c0.85,0,1.514,0.186,1.99,0.559
				s0.715,0.91,0.715,1.613c0,0.416-0.098,0.775-0.293,1.078S252.844,425.765,252.539,425.868z M249.395,425.36h1.469
				c0.943,0,1.416-0.367,1.416-1.105c0-0.719-0.473-1.078-1.416-1.078h-1.469V425.36z M249.395,426.479v2.34h1.715
				c0.451,0,0.797-0.105,1.041-0.312c0.242-0.209,0.363-0.494,0.363-0.857c0-0.365-0.121-0.65-0.363-0.859
				c-0.244-0.207-0.59-0.311-1.041-0.311H249.395z"/>
			<path fill="#595B5F" d="M258.014,422.007h1.299l3.068,7.982h-1.377l-0.82-2.211h-3.055l-0.818,2.211h-1.365L258.014,422.007z
				 M258.65,423.657l-1.092,2.951h2.184L258.65,423.657z"/>
			<path fill="#595B5F" d="M263.85,429.989v-7.982h1.352v6.773h3.836v1.209H263.85z"/>
			<path fill="#595B5F" d="M270.74,429.989v-7.982h1.352v6.773h3.836v1.209H270.74z"/>
			<path fill="#595B5F" d="M277.629,422.007h5.213v1.195h-3.887v2.107h3.523v1.182h-3.523v2.289h3.887v1.209h-5.213V422.007z"/>
			<path fill="#595B5F" d="M286.951,426.751h-0.963v3.238h-1.352v-7.982h3.08c0.842,0,1.504,0.205,1.99,0.617
				c0.484,0.412,0.727,1.004,0.727,1.775c0,0.658-0.18,1.18-0.539,1.566c-0.359,0.385-0.859,0.631-1.502,0.734l2.314,3.289h-1.533
				L286.951,426.751z M285.988,423.177v2.443h1.703c0.441,0,0.787-0.109,1.033-0.33c0.248-0.223,0.371-0.518,0.371-0.891
				s-0.123-0.67-0.371-0.891c-0.246-0.221-0.592-0.332-1.033-0.332H285.988z"/>
			<path fill="#595B5F" d="M293.529,422.007v7.982h-1.354v-7.982H293.529z"/>
			<path fill="#595B5F" d="M302.043,422.007v7.982h-1.041l-4.082-5.811v5.811h-1.299v-7.982h1.273l3.848,5.537v-5.537H302.043z"/>
			<path fill="#595B5F" d="M306.58,422.007h1.301l3.068,7.982h-1.379l-0.818-2.211h-3.055l-0.82,2.211h-1.365L306.58,422.007z
				 M307.217,423.657l-1.092,2.951h2.184L307.217,423.657z"/>
			<path fill="#595B5F" d="M318.695,427.013h-1.729v2.977h-1.352v-7.982h3.08c0.842,0,1.506,0.217,1.996,0.65
				s0.734,1.053,0.734,1.859c0,0.797-0.244,1.412-0.734,1.846S319.537,427.013,318.695,427.013z M320.088,424.517
				c0-0.408-0.123-0.732-0.365-0.977c-0.242-0.242-0.594-0.363-1.053-0.363h-1.703v2.664h1.703c0.451,0,0.799-0.121,1.047-0.363
				C319.963,425.235,320.088,424.915,320.088,424.517z"/>
			<path fill="#595B5F" d="M328.426,429.267c-0.576,0.568-1.354,0.852-2.332,0.852c-0.98,0-1.758-0.283-2.334-0.852
				c-0.576-0.566-0.865-1.389-0.865-2.463v-4.797h1.354v4.654c0,1.5,0.615,2.248,1.846,2.248s1.846-0.748,1.846-2.248v-4.654h1.352
				v4.811C329.291,427.882,329.002,428.7,328.426,429.267z"/>
			<path fill="#595B5F" d="M330.629,427.778h1.379c0.252,0.799,0.854,1.197,1.807,1.197c0.469,0,0.844-0.107,1.125-0.318
				c0.281-0.213,0.422-0.502,0.422-0.865c0-0.287-0.088-0.514-0.266-0.684c-0.178-0.168-0.475-0.301-0.891-0.396l-1.352-0.324
				c-1.326-0.312-1.99-1.027-1.99-2.145c0-0.686,0.254-1.25,0.762-1.697c0.506-0.445,1.158-0.67,1.955-0.67
				c0.842,0,1.52,0.197,2.035,0.592s0.848,0.934,0.994,1.619h-1.352c-0.252-0.711-0.807-1.066-1.664-1.066
				c-0.434,0-0.783,0.102-1.047,0.307c-0.264,0.203-0.396,0.469-0.396,0.799c0,0.529,0.352,0.875,1.053,1.039l1.391,0.326
				c0.65,0.146,1.158,0.406,1.521,0.779c0.365,0.373,0.547,0.85,0.547,1.43c0,0.738-0.266,1.324-0.793,1.762
				c-0.529,0.438-1.215,0.656-2.055,0.656c-0.85,0-1.559-0.205-2.125-0.617C331.121,429.089,330.768,428.515,330.629,427.778z"/>
			<path fill="#595B5F" d="M343.695,422.007h1.352v7.982h-1.352v-3.498h-4.018v3.498h-1.352v-7.982h1.352v3.289h4.018V422.007z"/>
		</g>
	</g>
</g>
<rect x="14.751" y="15.342" fill="#F5F6F6" width="126.793" height="467"/>
<g>
	<g>
		<path fill="#595B5F" d="M65.824,30.584l2.105-3.575h1.431l-2.899,4.797v3.185h-1.339v-3.185l-2.886-4.797h1.469L65.824,30.584z"/>
		<path fill="#595B5F" d="M76.666,28.042c0.693,0.776,1.04,1.762,1.04,2.958c0,1.196-0.347,2.182-1.04,2.958
			c-0.693,0.776-1.577,1.164-2.652,1.164c-1.074,0-1.956-0.388-2.646-1.164c-0.688-0.775-1.033-1.761-1.033-2.958
			c0-1.196,0.345-2.182,1.033-2.958c0.689-0.775,1.571-1.163,2.646-1.163C75.088,26.879,75.972,27.267,76.666,28.042z
			 M75.697,33.093C76.125,32.547,76.34,31.85,76.34,31c0-0.849-0.215-1.547-0.644-2.093s-0.99-0.819-1.684-0.819
			s-1.252,0.271-1.677,0.812S71.7,30.142,71.7,31c0,0.858,0.212,1.558,0.637,2.1c0.425,0.542,0.983,0.812,1.677,0.812
			S75.268,33.639,75.697,33.093z"/>
		<path fill="#595B5F" d="M84.77,34.27c-0.576,0.568-1.354,0.852-2.333,0.852s-1.758-0.284-2.334-0.852
			c-0.576-0.567-0.864-1.389-0.864-2.463v-4.797h1.353v4.654c0,1.5,0.615,2.249,1.846,2.249s1.846-0.75,1.846-2.249v-4.654h1.353
			v4.81C85.635,32.885,85.346,33.702,84.77,34.27z"/>
		<path fill="#595B5F" d="M89.913,31.754h-0.962v3.237h-1.353v-7.982h3.081c0.841,0,1.504,0.206,1.989,0.618
			s0.728,1.003,0.728,1.774c0,0.659-0.18,1.181-0.539,1.566s-0.86,0.63-1.502,0.734l2.314,3.289h-1.534L89.913,31.754z
			 M88.951,28.179v2.444h1.703c0.441,0,0.786-0.11,1.033-0.332c0.247-0.221,0.37-0.518,0.37-0.89s-0.123-0.669-0.37-0.891
			s-0.592-0.332-1.033-0.332H88.951z"/>
		<path fill="#595B5F" d="M31.263,42.009h5.213v1.196h-3.887v2.106h3.523v1.183h-3.523v2.288h3.887v1.209h-5.213V42.009z"/>
		<path fill="#595B5F" d="M44.576,42.009l-2.704,3.887l2.834,4.095h-1.547l-2.067-3.003l-2.067,3.003h-1.508l2.821-4.069
			l-2.691-3.913h1.547l1.925,2.821l1.963-2.821H44.576z"/>
		<path fill="#595B5F" d="M47.397,42.009v7.982h-1.353v-7.982H47.397z"/>
		<path fill="#595B5F" d="M48.865,47.781h1.378c0.252,0.797,0.854,1.196,1.808,1.196c0.468,0,0.843-0.106,1.124-0.318
			s0.423-0.5,0.423-0.864c0-0.286-0.089-0.514-0.267-0.683s-0.475-0.301-0.891-0.396l-1.352-0.325
			c-1.326-0.312-1.989-1.027-1.989-2.145c0-0.685,0.253-1.25,0.761-1.696c0.507-0.446,1.158-0.669,1.956-0.669
			c0.841,0,1.519,0.197,2.034,0.591c0.516,0.395,0.848,0.934,0.995,1.619h-1.353c-0.251-0.71-0.806-1.066-1.664-1.066
			c-0.433,0-0.782,0.102-1.046,0.305c-0.265,0.204-0.396,0.47-0.396,0.8c0,0.528,0.351,0.875,1.053,1.04l1.391,0.325
			c0.65,0.147,1.157,0.408,1.521,0.78s0.546,0.849,0.546,1.43c0,0.737-0.265,1.324-0.793,1.762s-1.214,0.656-2.054,0.656
			c-0.85,0-1.559-0.206-2.126-0.617S49.003,48.518,48.865,47.781z"/>
		<path fill="#595B5F" d="M56.067,43.205v-1.196h6.656v1.196h-2.652v6.786h-1.352v-6.786H56.067z"/>
		<path fill="#595B5F" d="M65.674,42.009v7.982h-1.353v-7.982H65.674z"/>
		<path fill="#595B5F" d="M74.189,42.009v7.982h-1.04l-4.082-5.811v5.811h-1.3v-7.982h1.274l3.848,5.538v-5.538H74.189z"/>
		<path fill="#595B5F" d="M81.716,47.027h-1.742V45.87h3.029v0.624c0,1.092-0.319,1.97-0.956,2.633
			c-0.637,0.663-1.449,0.994-2.438,0.994c-1.083,0-1.98-0.383-2.69-1.15c-0.711-0.767-1.066-1.757-1.066-2.971
			c0-1.213,0.353-2.203,1.06-2.97c0.706-0.767,1.588-1.15,2.646-1.15c0.893,0,1.623,0.234,2.19,0.702
			c0.567,0.468,0.93,1.11,1.085,1.924h-1.352c-0.174-0.459-0.409-0.808-0.708-1.047c-0.3-0.238-0.705-0.357-1.216-0.357
			c-0.702,0-1.268,0.271-1.696,0.812c-0.43,0.542-0.644,1.237-0.644,2.086c0,0.858,0.216,1.56,0.649,2.106
			c0.434,0.546,1.015,0.819,1.742,0.819c0.589,0,1.066-0.171,1.43-0.514C81.404,48.069,81.629,47.608,81.716,47.027z"/>
		<path fill="#595B5F" d="M87.371,43.205v-1.196h6.656v1.196h-2.652v6.786h-1.352v-6.786H87.371z"/>
		<path fill="#595B5F" d="M101.528,43.042c0.693,0.776,1.04,1.762,1.04,2.958c0,1.196-0.347,2.182-1.04,2.958
			c-0.693,0.776-1.577,1.164-2.652,1.164c-1.074,0-1.956-0.388-2.646-1.164c-0.688-0.775-1.033-1.761-1.033-2.958
			c0-1.196,0.345-2.182,1.033-2.958c0.689-0.775,1.571-1.163,2.646-1.163C99.951,41.879,100.834,42.267,101.528,43.042z
			 M100.559,48.093c0.429-0.546,0.644-1.244,0.644-2.093c0-0.849-0.215-1.547-0.644-2.093s-0.99-0.819-1.684-0.819
			s-1.252,0.271-1.677,0.812S96.562,45.142,96.562,46c0,0.858,0.212,1.558,0.637,2.1c0.425,0.542,0.983,0.812,1.677,0.812
			S100.13,48.639,100.559,48.093z"/>
		<path fill="#595B5F" d="M110.133,43.042c0.693,0.776,1.04,1.762,1.04,2.958c0,1.196-0.347,2.182-1.04,2.958
			c-0.693,0.776-1.577,1.164-2.652,1.164c-1.074,0-1.956-0.388-2.646-1.164c-0.688-0.775-1.033-1.761-1.033-2.958
			c0-1.196,0.345-2.182,1.033-2.958c0.689-0.775,1.571-1.163,2.646-1.163C108.556,41.879,109.44,42.267,110.133,43.042z
			 M109.165,48.093c0.429-0.546,0.644-1.244,0.644-2.093c0-0.849-0.215-1.547-0.644-2.093s-0.99-0.819-1.684-0.819
			s-1.252,0.271-1.677,0.812s-0.637,1.241-0.637,2.099c0,0.858,0.212,1.558,0.637,2.1c0.425,0.542,0.983,0.812,1.677,0.812
			S108.736,48.639,109.165,48.093z"/>
		<path fill="#595B5F" d="M112.837,49.991v-7.982h1.353v6.773h3.835v1.209H112.837z"/>
		<path fill="#595B5F" d="M119.103,47.781h1.378c0.252,0.797,0.854,1.196,1.808,1.196c0.468,0,0.843-0.106,1.124-0.318
			s0.423-0.5,0.423-0.864c0-0.286-0.089-0.514-0.267-0.683s-0.475-0.301-0.891-0.396l-1.352-0.325
			c-1.326-0.312-1.989-1.027-1.989-2.145c0-0.685,0.253-1.25,0.761-1.696c0.507-0.446,1.158-0.669,1.956-0.669
			c0.841,0,1.519,0.197,2.034,0.591c0.516,0.395,0.848,0.934,0.995,1.619h-1.353c-0.251-0.71-0.806-1.066-1.664-1.066
			c-0.433,0-0.782,0.102-1.046,0.305c-0.265,0.204-0.396,0.47-0.396,0.8c0,0.528,0.351,0.875,1.053,1.04l1.391,0.325
			c0.65,0.147,1.157,0.408,1.521,0.78s0.546,0.849,0.546,1.43c0,0.737-0.265,1.324-0.793,1.762s-1.214,0.656-2.054,0.656
			c-0.85,0-1.559-0.206-2.126-0.617S119.242,48.518,119.103,47.781z"/>
	</g>
</g>
<g>
	<g>
		<path fill="#595B5F" d="M236.356,27.042c0.382,0.122,0.693,0.354,0.937,0.696c0.242,0.342,0.363,0.721,0.363,1.137
			c0,0.737-0.24,1.302-0.721,1.697c-0.481,0.394-1.143,0.591-1.982,0.591h-3.056v-7.982h2.795c0.85,0,1.513,0.187,1.989,0.559
			s0.715,0.91,0.715,1.612c0,0.416-0.098,0.776-0.292,1.079C236.909,26.734,236.66,26.938,236.356,27.042z M233.211,26.535h1.469
			c0.944,0,1.417-0.368,1.417-1.105c0-0.719-0.473-1.079-1.417-1.079h-1.469V26.535z M233.211,27.653v2.34h1.716
			c0.45,0,0.797-0.104,1.04-0.312c0.242-0.208,0.364-0.494,0.364-0.858c0-0.364-0.122-0.65-0.364-0.858
			c-0.243-0.208-0.59-0.312-1.04-0.312H233.211z"/>
		<path fill="#595B5F" d="M241.83,23.181h1.3l3.068,7.982h-1.378l-0.819-2.21h-3.055l-0.819,2.21h-1.365L241.83,23.181z
			 M242.467,24.832l-1.092,2.951h2.184L242.467,24.832z"/>
		<path fill="#595B5F" d="M247.666,31.163v-7.982h1.353v6.773h3.835v1.209H247.666z"/>
		<path fill="#595B5F" d="M254.557,31.163v-7.982h1.353v6.773h3.835v1.209H254.557z"/>
		<path fill="#595B5F" d="M261.446,23.181h5.213v1.196h-3.887v2.106h3.523v1.183h-3.523v2.288h3.887v1.209h-5.213V23.181z"/>
		<path fill="#595B5F" d="M270.768,27.926h-0.962v3.237h-1.353v-7.982h3.081c0.841,0,1.504,0.206,1.989,0.618
			s0.728,1.003,0.728,1.774c0,0.659-0.18,1.181-0.539,1.566s-0.86,0.63-1.502,0.734l2.314,3.289h-1.534L270.768,27.926z
			 M269.806,24.351v2.444h1.703c0.441,0,0.786-0.11,1.033-0.332c0.247-0.221,0.37-0.518,0.37-0.89s-0.123-0.669-0.37-0.891
			s-0.592-0.332-1.033-0.332H269.806z"/>
		<path fill="#595B5F" d="M277.346,23.181v7.982h-1.353v-7.982H277.346z"/>
		<path fill="#595B5F" d="M285.859,23.181v7.982h-1.04l-4.082-5.811v5.811h-1.3v-7.982h1.274l3.848,5.538v-5.538H285.859z"/>
		<path fill="#595B5F" d="M290.397,23.181h1.3l3.068,7.982h-1.378l-0.819-2.21h-3.055l-0.819,2.21h-1.365L290.397,23.181z
			 M291.034,24.832l-1.092,2.951h2.184L291.034,24.832z"/>
		<path fill="#595B5F" d="M298.938,24.377v-1.196h6.656v1.196h-2.652v6.786h-1.352v-6.786H298.938z"/>
		<path fill="#595B5F" d="M313.095,24.214c0.693,0.776,1.04,1.762,1.04,2.958c0,1.196-0.347,2.182-1.04,2.958
			c-0.693,0.776-1.577,1.164-2.652,1.164c-1.074,0-1.956-0.388-2.646-1.164c-0.688-0.775-1.033-1.761-1.033-2.958
			c0-1.196,0.345-2.182,1.033-2.958c0.689-0.775,1.571-1.163,2.646-1.163C311.518,23.051,312.401,23.439,313.095,24.214z
			 M312.126,29.265c0.429-0.546,0.644-1.244,0.644-2.093c0-0.849-0.215-1.547-0.644-2.093s-0.99-0.819-1.684-0.819
			s-1.252,0.271-1.677,0.812s-0.637,1.241-0.637,2.099c0,0.858,0.212,1.558,0.637,2.1c0.425,0.542,0.983,0.812,1.677,0.812
			S311.697,29.811,312.126,29.265z"/>
		<path fill="#595B5F" d="M321.701,24.214c0.693,0.776,1.04,1.762,1.04,2.958c0,1.196-0.347,2.182-1.04,2.958
			c-0.693,0.776-1.577,1.164-2.652,1.164c-1.074,0-1.956-0.388-2.646-1.164c-0.688-0.775-1.033-1.761-1.033-2.958
			c0-1.196,0.345-2.182,1.033-2.958c0.689-0.775,1.571-1.163,2.646-1.163C320.124,23.051,321.008,23.439,321.701,24.214z
			 M320.732,29.265c0.429-0.546,0.644-1.244,0.644-2.093c0-0.849-0.215-1.547-0.644-2.093s-0.99-0.819-1.684-0.819
			s-1.252,0.271-1.677,0.812s-0.637,1.241-0.637,2.099c0,0.858,0.212,1.558,0.637,2.1c0.425,0.542,0.983,0.812,1.677,0.812
			S320.304,29.811,320.732,29.265z"/>
		<path fill="#595B5F" d="M324.404,31.163v-7.982h1.353v6.773h3.835v1.209H324.404z"/>
		<path fill="#595B5F" d="M330.67,28.953h1.378c0.252,0.797,0.854,1.196,1.808,1.196c0.468,0,0.843-0.106,1.124-0.318
			s0.423-0.5,0.423-0.864c0-0.286-0.089-0.514-0.267-0.683s-0.475-0.301-0.891-0.396l-1.352-0.325
			c-1.326-0.312-1.989-1.027-1.989-2.145c0-0.685,0.253-1.25,0.761-1.696c0.507-0.446,1.158-0.669,1.956-0.669
			c0.841,0,1.519,0.197,2.034,0.591c0.516,0.395,0.848,0.934,0.995,1.619h-1.353c-0.251-0.71-0.806-1.066-1.664-1.066
			c-0.433,0-0.782,0.102-1.046,0.305c-0.265,0.204-0.396,0.47-0.396,0.8c0,0.528,0.351,0.875,1.053,1.04l1.391,0.325
			c0.65,0.147,1.157,0.408,1.521,0.78s0.546,0.849,0.546,1.43c0,0.737-0.265,1.324-0.793,1.762s-1.214,0.656-2.054,0.656
			c-0.85,0-1.559-0.206-2.126-0.617S330.809,29.69,330.67,28.953z"/>
	</g>
</g>
<line fill="none" stroke="#A6A8AB" stroke-width="0.651" stroke-miterlimit="10" stroke-dasharray="2.7658,2.7658" x1="437.894" y1="163.842" x2="28.835" y2="163.842"/>
<line fill="none" stroke="#A6A8AB" stroke-width="0.651" stroke-miterlimit="10" stroke-dasharray="2.7658,2.7658" x1="437.894" y1="251.842" x2="28.835" y2="251.842"/>
<line fill="none" stroke="#A6A8AB" stroke-width="0.651" stroke-miterlimit="10" stroke-dasharray="2.7658,2.7658" x1="437.894" y1="403.842" x2="28.835" y2="403.842"/>
<line fill="none" stroke="#696C71" stroke-width="0.7445" stroke-miterlimit="10" x1="128.278" y1="426.154" x2="156.349" y2="426.154"/>
<g>
	<rect x="156.104" y="457.342" fill="#3FBFBB" width="281.776" height="25"/>
	<g>
		<path fill="#FFFFFF" d="M195.781,469.556c0.382,0.121,0.693,0.354,0.937,0.695c0.242,0.342,0.363,0.721,0.363,1.137
			c0,0.738-0.24,1.303-0.721,1.697c-0.481,0.395-1.143,0.592-1.982,0.592h-3.056v-7.982h2.795c0.85,0,1.513,0.186,1.989,0.559
			s0.715,0.91,0.715,1.613c0,0.416-0.098,0.775-0.292,1.078C196.334,469.247,196.085,469.452,195.781,469.556z M192.636,469.048
			h1.469c0.944,0,1.417-0.367,1.417-1.105c0-0.719-0.473-1.078-1.417-1.078h-1.469V469.048z M192.636,470.167v2.34h1.716
			c0.45,0,0.797-0.105,1.04-0.312c0.242-0.209,0.364-0.494,0.364-0.857c0-0.365-0.122-0.65-0.364-0.859
			c-0.243-0.207-0.59-0.311-1.04-0.311H192.636z"/>
		<path fill="#FFFFFF" d="M204.212,472.954c-0.576,0.568-1.354,0.852-2.333,0.852s-1.758-0.283-2.334-0.852
			c-0.576-0.566-0.864-1.389-0.864-2.463v-4.797h1.353v4.654c0,1.5,0.615,2.248,1.846,2.248s1.846-0.748,1.846-2.248v-4.654h1.353
			v4.811C205.077,471.569,204.788,472.388,204.212,472.954z"/>
		<path fill="#FFFFFF" d="M208.392,465.694v7.982h-1.353v-7.982H208.392z"/>
		<path fill="#FFFFFF" d="M210.484,473.677v-7.982h1.353v6.773h3.835v1.209H210.484z"/>
		<path fill="#FFFFFF" d="M217.374,473.677v-7.982h2.691c1.179,0,2.119,0.361,2.821,1.086c0.701,0.723,1.053,1.691,1.053,2.904
			c0,1.215-0.352,2.184-1.053,2.906c-0.702,0.725-1.643,1.086-2.821,1.086H217.374z M218.727,472.468h1.287
			c0.823,0,1.458-0.248,1.904-0.742s0.669-1.174,0.669-2.041c0-0.865-0.223-1.549-0.669-2.047s-1.081-0.748-1.904-0.748h-1.287
			V472.468z"/>
		<path fill="#FFFFFF" d="M228.801,473.677v-7.982h1.353v6.773h3.835v1.209H228.801z"/>
		<path fill="#FFFFFF" d="M241.593,466.728c0.693,0.775,1.04,1.762,1.04,2.957c0,1.197-0.347,2.184-1.04,2.959
			s-1.577,1.162-2.652,1.162c-1.074,0-1.956-0.387-2.646-1.162c-0.688-0.775-1.033-1.762-1.033-2.959
			c0-1.195,0.345-2.182,1.033-2.957c0.689-0.775,1.571-1.164,2.646-1.164C240.016,465.563,240.899,465.952,241.593,466.728z
			 M240.624,471.778c0.429-0.547,0.644-1.244,0.644-2.094c0-0.848-0.215-1.547-0.644-2.092c-0.429-0.547-0.99-0.82-1.684-0.82
			s-1.252,0.271-1.677,0.812c-0.425,0.543-0.637,1.242-0.637,2.1c0,0.859,0.212,1.559,0.637,2.1
			c0.425,0.543,0.983,0.812,1.677,0.812S240.195,472.325,240.624,471.778z"/>
		<path fill="#FFFFFF" d="M244.9,472.655c-0.688-0.766-1.033-1.756-1.033-2.971c0-1.213,0.345-2.203,1.033-2.971
			c0.689-0.766,1.554-1.15,2.594-1.15c0.884,0,1.607,0.236,2.171,0.709s0.923,1.117,1.079,1.932h-1.326
			c-0.347-0.945-0.988-1.418-1.924-1.418c-0.693,0-1.244,0.271-1.651,0.812s-0.61,1.238-0.61,2.086c0,0.85,0.203,1.545,0.61,2.088
			c0.407,0.541,0.958,0.812,1.651,0.812c0.936,0,1.577-0.477,1.924-1.432h1.326c-0.156,0.824-0.516,1.473-1.079,1.945
			c-0.563,0.471-1.287,0.707-2.171,0.707C246.454,473.806,245.59,473.423,244.9,472.655z"/>
		<path fill="#FFFFFF" d="M253.734,465.694v3.822l3.314-3.822h1.703l-3.224,3.627l3.341,4.355h-1.69l-2.626-3.42l-0.818,0.936v2.484
			h-1.353v-7.982H253.734z"/>
		<path fill="#FFFFFF" d="M265.915,465.694h1.3l3.068,7.982h-1.378l-0.819-2.211h-3.055l-0.819,2.211h-1.365L265.915,465.694z
			 M266.552,467.345l-1.092,2.951h2.184L266.552,467.345z"/>
		<path fill="#FFFFFF" d="M278.174,465.694v7.982h-1.04l-4.082-5.811v5.811h-1.3v-7.982h1.274l3.848,5.537v-5.537H278.174z"/>
		<path fill="#FFFFFF" d="M280.267,473.677v-7.982h2.691c1.179,0,2.119,0.361,2.821,1.086c0.701,0.723,1.053,1.691,1.053,2.904
			c0,1.215-0.352,2.184-1.053,2.906c-0.702,0.725-1.643,1.086-2.821,1.086H280.267z M281.619,472.468h1.287
			c0.823,0,1.458-0.248,1.904-0.742s0.669-1.174,0.669-2.041c0-0.865-0.223-1.549-0.669-2.047s-1.081-0.748-1.904-0.748h-1.287
			V472.468z"/>
		<path fill="#FFFFFF" d="M296.152,469.556c0.382,0.121,0.693,0.354,0.937,0.695c0.242,0.342,0.363,0.721,0.363,1.137
			c0,0.738-0.24,1.303-0.721,1.697c-0.481,0.395-1.143,0.592-1.982,0.592h-3.056v-7.982h2.795c0.85,0,1.513,0.186,1.989,0.559
			s0.715,0.91,0.715,1.613c0,0.416-0.098,0.775-0.292,1.078C296.705,469.247,296.456,469.452,296.152,469.556z M293.007,469.048
			h1.469c0.944,0,1.417-0.367,1.417-1.105c0-0.719-0.473-1.078-1.417-1.078h-1.469V469.048z M293.007,470.167v2.34h1.716
			c0.45,0,0.797-0.105,1.04-0.312c0.242-0.209,0.364-0.494,0.364-0.857c0-0.365-0.122-0.65-0.364-0.859
			c-0.243-0.207-0.59-0.311-1.04-0.311H293.007z"/>
		<path fill="#FFFFFF" d="M300.534,465.694v7.982h-1.353v-7.982H300.534z"/>
		<path fill="#FFFFFF" d="M302.626,473.677v-7.982h1.353v6.773h3.835v1.209H302.626z"/>
		<path fill="#FFFFFF" d="M309.516,473.677v-7.982h1.353v6.773h3.835v1.209H309.516z"/>
		<path fill="#FFFFFF" d="M325.506,466.728c0.693,0.775,1.04,1.762,1.04,2.957c0,1.197-0.347,2.184-1.04,2.959
			s-1.577,1.162-2.652,1.162c-1.074,0-1.956-0.387-2.646-1.162c-0.688-0.775-1.033-1.762-1.033-2.959
			c0-1.195,0.345-2.182,1.033-2.957c0.689-0.775,1.571-1.164,2.646-1.164C323.929,465.563,324.812,465.952,325.506,466.728z
			 M324.537,471.778c0.429-0.547,0.644-1.244,0.644-2.094c0-0.848-0.215-1.547-0.644-2.092c-0.429-0.547-0.99-0.82-1.684-0.82
			s-1.252,0.271-1.677,0.812c-0.425,0.543-0.637,1.242-0.637,2.1c0,0.859,0.212,1.559,0.637,2.1
			c0.425,0.543,0.983,0.812,1.677,0.812S324.108,472.325,324.537,471.778z"/>
		<path fill="#FFFFFF" d="M329.562,473.677h-1.353v-7.982h5.097v1.195h-3.744v2.367h3.497v1.182h-3.497V473.677z"/>
		<path fill="#FFFFFF" d="M342.614,473.677h-0.962l-2.197-5.551v5.551h-1.287v-7.982h1.547l2.432,6.137l2.404-6.137h1.509v7.982
			h-1.301v-5.551L342.614,473.677z"/>
		<path fill="#FFFFFF" d="M350.596,465.694h1.3l3.068,7.982h-1.378l-0.819-2.211h-3.055l-0.819,2.211h-1.365L350.596,465.694z
			 M351.232,467.345l-1.092,2.951h2.184L351.232,467.345z"/>
		<path fill="#FFFFFF" d="M355.938,466.89v-1.195h6.656v1.195h-2.652v6.787h-1.352v-6.787H355.938z"/>
		<path fill="#FFFFFF" d="M364.193,465.694h5.213v1.195h-3.887v2.107h3.523v1.182h-3.523v2.289h3.887v1.209h-5.213V465.694z"/>
		<path fill="#FFFFFF" d="M373.515,470.438h-0.962v3.238H371.2v-7.982h3.081c0.841,0,1.504,0.205,1.989,0.617
			s0.728,1.004,0.728,1.775c0,0.658-0.18,1.18-0.539,1.566c-0.359,0.385-0.86,0.631-1.502,0.734l2.314,3.289h-1.534L373.515,470.438
			z M372.553,466.864v2.443h1.703c0.441,0,0.786-0.109,1.033-0.33c0.247-0.223,0.37-0.518,0.37-0.891s-0.123-0.67-0.37-0.891
			s-0.592-0.332-1.033-0.332H372.553z"/>
		<path fill="#FFFFFF" d="M380.093,465.694v7.982h-1.353v-7.982H380.093z"/>
		<path fill="#FFFFFF" d="M384.63,465.694h1.3l3.068,7.982h-1.378l-0.819-2.211h-3.055l-0.819,2.211h-1.365L384.63,465.694z
			 M385.267,467.345l-1.092,2.951h2.184L385.267,467.345z"/>
		<path fill="#FFFFFF" d="M390.466,473.677v-7.982h1.353v6.773h3.835v1.209H390.466z"/>
		<path fill="#FFFFFF" d="M396.731,471.466h1.378c0.252,0.799,0.854,1.197,1.808,1.197c0.468,0,0.843-0.107,1.124-0.318
			c0.281-0.213,0.423-0.502,0.423-0.865c0-0.287-0.089-0.514-0.267-0.684c-0.178-0.168-0.475-0.301-0.891-0.396l-1.352-0.324
			c-1.326-0.312-1.989-1.027-1.989-2.145c0-0.686,0.253-1.25,0.761-1.697c0.507-0.445,1.158-0.67,1.956-0.67
			c0.841,0,1.519,0.197,2.034,0.592s0.848,0.934,0.995,1.619h-1.353c-0.251-0.711-0.806-1.066-1.664-1.066
			c-0.433,0-0.782,0.102-1.046,0.307c-0.265,0.203-0.396,0.469-0.396,0.799c0,0.529,0.351,0.875,1.053,1.039l1.391,0.326
			c0.65,0.146,1.157,0.406,1.521,0.779s0.546,0.85,0.546,1.43c0,0.738-0.265,1.324-0.793,1.762s-1.214,0.656-2.054,0.656
			c-0.85,0-1.559-0.205-2.126-0.617S396.87,472.202,396.731,471.466z"/>
	</g>
</g>
<line fill="none" stroke="#696C71" stroke-width="0.7445" stroke-miterlimit="10" x1="128.278" y1="185.842" x2="155.826" y2="185.842"/>
<g>
	<rect x="156.104" y="173.342" fill="#F5F6F6" width="281.47" height="25"/>
	<g>
		<g>
			<path fill="#696C71" d="M251.273,185.556c0.383,0.122,0.693,0.354,0.938,0.696c0.242,0.342,0.363,0.721,0.363,1.137
				c0,0.737-0.24,1.302-0.721,1.697c-0.482,0.394-1.143,0.591-1.982,0.591h-3.057v-7.982h2.795c0.85,0,1.514,0.187,1.99,0.559
				s0.715,0.91,0.715,1.612c0,0.416-0.098,0.776-0.293,1.079S251.578,185.452,251.273,185.556z M248.129,185.049h1.469
				c0.943,0,1.416-0.368,1.416-1.105c0-0.719-0.473-1.079-1.416-1.079h-1.469V185.049z M248.129,186.167v2.34h1.715
				c0.451,0,0.797-0.104,1.041-0.312c0.242-0.208,0.363-0.494,0.363-0.858c0-0.364-0.121-0.65-0.363-0.858
				c-0.244-0.208-0.59-0.312-1.041-0.312H248.129z"/>
			<path fill="#696C71" d="M256.748,181.695h1.299l3.068,7.982h-1.377l-0.82-2.21h-3.055l-0.818,2.21h-1.365L256.748,181.695z
				 M257.385,183.346l-1.092,2.951h2.184L257.385,183.346z"/>
			<path fill="#696C71" d="M262.584,189.677v-7.982h1.352v6.773h3.836v1.209H262.584z"/>
			<path fill="#696C71" d="M269.475,189.677v-7.982h1.352v6.773h3.836v1.209H269.475z"/>
			<path fill="#696C71" d="M276.363,181.695h5.213v1.196h-3.887v2.106h3.523v1.183h-3.523v2.288h3.887v1.209h-5.213V181.695z"/>
			<path fill="#696C71" d="M285.686,186.44h-0.963v3.237h-1.352v-7.982h3.08c0.842,0,1.504,0.206,1.99,0.618
				c0.484,0.412,0.727,1.003,0.727,1.774c0,0.659-0.18,1.181-0.539,1.566s-0.859,0.63-1.502,0.734l2.314,3.289h-1.533
				L285.686,186.44z M284.723,182.865v2.444h1.703c0.441,0,0.787-0.11,1.033-0.332c0.248-0.221,0.371-0.518,0.371-0.89
				s-0.123-0.669-0.371-0.891c-0.246-0.221-0.592-0.332-1.033-0.332H284.723z"/>
			<path fill="#696C71" d="M292.264,181.695v7.982h-1.354v-7.982H292.264z"/>
			<path fill="#696C71" d="M300.777,181.695v7.982h-1.041l-4.082-5.811v5.811h-1.299v-7.982h1.273l3.848,5.538v-5.538H300.777z"/>
			<path fill="#696C71" d="M305.314,181.695h1.301l3.068,7.982h-1.379l-0.818-2.21h-3.055l-0.82,2.21h-1.365L305.314,181.695z
				 M305.951,183.346l-1.092,2.951h2.184L305.951,183.346z"/>
			<path fill="#696C71" d="M318.809,185.556c0.381,0.122,0.693,0.354,0.936,0.696s0.363,0.721,0.363,1.137
				c0,0.737-0.24,1.302-0.721,1.697c-0.48,0.394-1.143,0.591-1.982,0.591h-3.055v-7.982h2.795c0.85,0,1.512,0.187,1.988,0.559
				s0.715,0.91,0.715,1.612c0,0.416-0.098,0.776-0.291,1.079C319.361,185.248,319.111,185.452,318.809,185.556z M315.662,185.049
				h1.469c0.945,0,1.418-0.368,1.418-1.105c0-0.719-0.473-1.079-1.418-1.079h-1.469V185.049z M315.662,186.167v2.34h1.717
				c0.449,0,0.797-0.104,1.039-0.312s0.365-0.494,0.365-0.858c0-0.364-0.123-0.65-0.365-0.858c-0.242-0.208-0.59-0.312-1.039-0.312
				H315.662z"/>
			<path fill="#696C71" d="M327.238,188.955c-0.576,0.568-1.354,0.852-2.332,0.852c-0.98,0-1.758-0.284-2.334-0.852
				c-0.576-0.567-0.865-1.389-0.865-2.463v-4.797h1.354v4.654c0,1.5,0.615,2.249,1.846,2.249s1.846-0.75,1.846-2.249v-4.654h1.352
				v4.81C328.104,187.571,327.814,188.388,327.238,188.955z"/>
			<path fill="#696C71" d="M331.418,181.695v7.982h-1.352v-7.982H331.418z"/>
			<path fill="#696C71" d="M333.51,189.677v-7.982h1.354v6.773h3.834v1.209H333.51z"/>
			<path fill="#696C71" d="M340.4,189.677v-7.982h2.691c1.18,0,2.119,0.362,2.822,1.085c0.701,0.724,1.053,1.692,1.053,2.905
				c0,1.214-0.352,2.182-1.053,2.906c-0.703,0.724-1.643,1.085-2.822,1.085H340.4z M341.754,188.468h1.287
				c0.822,0,1.457-0.247,1.904-0.741c0.445-0.494,0.668-1.174,0.668-2.041c0-0.866-0.223-1.549-0.668-2.047
				c-0.447-0.498-1.082-0.748-1.904-0.748h-1.287V188.468z"/>
		</g>
	</g>
</g>
<g>
	<rect x="156.104" y="217.342" fill="#3FBFBB" width="281.776" height="25"/>
	<g>
		<path fill="#FFFFFF" d="M186.11,233.508c-0.169-0.173-0.254-0.386-0.254-0.637c0-0.251,0.085-0.463,0.254-0.637
			s0.379-0.26,0.63-0.26s0.462,0.087,0.631,0.26s0.253,0.386,0.253,0.637c0,0.251-0.084,0.464-0.253,0.637s-0.38,0.26-0.631,0.26
			S186.279,233.681,186.11,233.508z"/>
		<path fill="#FFFFFF" d="M193.708,229.556c0.382,0.122,0.693,0.354,0.937,0.696c0.242,0.342,0.363,0.721,0.363,1.137
			c0,0.737-0.24,1.302-0.721,1.697c-0.481,0.394-1.143,0.591-1.982,0.591h-3.056v-7.982h2.795c0.85,0,1.513,0.187,1.989,0.559
			s0.715,0.91,0.715,1.612c0,0.416-0.098,0.776-0.292,1.079C194.261,229.248,194.012,229.452,193.708,229.556z M190.562,229.049
			h1.469c0.944,0,1.417-0.368,1.417-1.105c0-0.719-0.473-1.079-1.417-1.079h-1.469V229.049z M190.562,230.167v2.34h1.716
			c0.45,0,0.797-0.104,1.04-0.312c0.242-0.208,0.364-0.494,0.364-0.858c0-0.364-0.122-0.65-0.364-0.858
			c-0.243-0.208-0.59-0.312-1.04-0.312H190.562z"/>
		<path fill="#FFFFFF" d="M199.182,225.695h1.3l3.068,7.982h-1.378l-0.819-2.21h-3.055l-0.819,2.21h-1.365L199.182,225.695z
			 M199.818,227.346l-1.092,2.951h2.184L199.818,227.346z"/>
		<path fill="#FFFFFF" d="M205.019,233.677v-7.982h1.353v6.773h3.835v1.209H205.019z"/>
		<path fill="#FFFFFF" d="M217.811,226.728c0.693,0.776,1.04,1.762,1.04,2.958c0,1.196-0.347,2.182-1.04,2.958
			c-0.693,0.776-1.577,1.164-2.652,1.164c-1.074,0-1.956-0.388-2.646-1.164c-0.688-0.775-1.033-1.761-1.033-2.958
			c0-1.196,0.345-2.182,1.033-2.958c0.689-0.775,1.571-1.163,2.646-1.163C216.233,225.565,217.117,225.953,217.811,226.728z
			 M216.842,231.779c0.429-0.546,0.644-1.244,0.644-2.093c0-0.849-0.215-1.547-0.644-2.093s-0.99-0.819-1.684-0.819
			s-1.252,0.271-1.677,0.812s-0.637,1.241-0.637,2.099c0,0.858,0.212,1.558,0.637,2.1c0.425,0.542,0.983,0.812,1.677,0.812
			S216.413,232.325,216.842,231.779z"/>
		<path fill="#FFFFFF" d="M219.838,235.146l0.936-1.443c-0.216-0.034-0.392-0.125-0.526-0.273c-0.134-0.147-0.201-0.333-0.201-0.559
			c0-0.251,0.085-0.459,0.254-0.624c0.169-0.165,0.379-0.247,0.63-0.247c0.26,0,0.473,0.084,0.637,0.253
			c0.165,0.169,0.247,0.409,0.247,0.721c0,0.321-0.125,0.667-0.377,1.04l-0.754,1.131H219.838z"/>
		<path fill="#FFFFFF" d="M226.423,233.508c-0.169-0.173-0.254-0.386-0.254-0.637c0-0.251,0.085-0.463,0.254-0.637
			s0.379-0.26,0.63-0.26s0.462,0.087,0.631,0.26s0.253,0.386,0.253,0.637c0,0.251-0.084,0.464-0.253,0.637s-0.38,0.26-0.631,0.26
			S226.592,233.681,226.423,233.508z"/>
		<path fill="#FFFFFF" d="M234.021,229.556c0.382,0.122,0.693,0.354,0.937,0.696c0.242,0.342,0.363,0.721,0.363,1.137
			c0,0.737-0.24,1.302-0.721,1.697c-0.481,0.394-1.143,0.591-1.982,0.591h-3.056v-7.982h2.795c0.85,0,1.513,0.187,1.989,0.559
			s0.715,0.91,0.715,1.612c0,0.416-0.098,0.776-0.292,1.079C234.573,229.248,234.324,229.452,234.021,229.556z M230.875,229.049
			h1.469c0.944,0,1.417-0.368,1.417-1.105c0-0.719-0.473-1.079-1.417-1.079h-1.469V229.049z M230.875,230.167v2.34h1.716
			c0.45,0,0.797-0.104,1.04-0.312c0.242-0.208,0.364-0.494,0.364-0.858c0-0.364-0.122-0.65-0.364-0.858
			c-0.243-0.208-0.59-0.312-1.04-0.312H230.875z"/>
		<path fill="#FFFFFF" d="M239.494,225.695h1.3l3.068,7.982h-1.378l-0.819-2.21h-3.055l-0.819,2.21h-1.365L239.494,225.695z
			 M240.131,227.346l-1.092,2.951h2.184L240.131,227.346z"/>
		<path fill="#FFFFFF" d="M245.331,233.677v-7.982h1.353v6.773h3.835v1.209H245.331z"/>
		<path fill="#FFFFFF" d="M258.526,225.695l-2.704,3.887l2.834,4.095h-1.547l-2.067-3.003l-2.067,3.003h-1.508l2.821-4.069
			l-2.691-3.913h1.547l1.925,2.821l1.963-2.821H258.526z"/>
		<path fill="#FFFFFF" d="M267.651,229.556c0.382,0.122,0.693,0.354,0.937,0.696c0.242,0.342,0.363,0.721,0.363,1.137
			c0,0.737-0.24,1.302-0.721,1.697c-0.481,0.394-1.143,0.591-1.982,0.591h-3.056v-7.982h2.795c0.85,0,1.513,0.187,1.989,0.559
			s0.715,0.91,0.715,1.612c0,0.416-0.098,0.776-0.292,1.079C268.204,229.248,267.955,229.452,267.651,229.556z M264.506,229.049
			h1.469c0.944,0,1.417-0.368,1.417-1.105c0-0.719-0.473-1.079-1.417-1.079h-1.469V229.049z M264.506,230.167v2.34h1.716
			c0.45,0,0.797-0.104,1.04-0.312c0.242-0.208,0.364-0.494,0.364-0.858c0-0.364-0.122-0.65-0.364-0.858
			c-0.243-0.208-0.59-0.312-1.04-0.312H264.506z"/>
		<path fill="#FFFFFF" d="M273.58,229.27l2.105-3.575h1.431l-2.899,4.797v3.185h-1.339v-3.185l-2.886-4.797h1.469L273.58,229.27z"/>
		<path fill="#FFFFFF" d="M278.025,226.891v-1.196h6.656v1.196h-2.652v6.786h-1.352v-6.786H278.025z"/>
		<path fill="#FFFFFF" d="M286.28,225.695h5.213v1.196h-3.887v2.106h3.523v1.183h-3.523v2.288h3.887v1.209h-5.213V225.695z"/>
		<path fill="#FFFFFF" d="M293.892,232.656c-0.688-0.767-1.033-1.757-1.033-2.971c0-1.213,0.345-2.203,1.033-2.97
			c0.689-0.767,1.554-1.15,2.594-1.15c0.884,0,1.607,0.236,2.171,0.708c0.563,0.472,0.923,1.116,1.079,1.93h-1.326
			c-0.347-0.944-0.988-1.417-1.924-1.417c-0.693,0-1.244,0.271-1.651,0.812c-0.407,0.542-0.61,1.237-0.61,2.086
			c0,0.85,0.203,1.545,0.61,2.087s0.958,0.812,1.651,0.812c0.936,0,1.577-0.477,1.924-1.43h1.326
			c-0.156,0.823-0.516,1.471-1.079,1.943c-0.563,0.473-1.287,0.708-2.171,0.708C295.445,233.807,294.581,233.423,293.892,232.656z"
			/>
		<path fill="#FFFFFF" d="M307.275,226.728c0.693,0.776,1.04,1.762,1.04,2.958c0,1.196-0.347,2.182-1.04,2.958
			c-0.693,0.776-1.577,1.164-2.652,1.164c-1.074,0-1.956-0.388-2.646-1.164c-0.688-0.775-1.033-1.761-1.033-2.958
			c0-1.196,0.345-2.182,1.033-2.958c0.689-0.775,1.571-1.163,2.646-1.163C305.698,225.565,306.582,225.953,307.275,226.728z
			 M306.307,231.779c0.429-0.546,0.644-1.244,0.644-2.093c0-0.849-0.215-1.547-0.644-2.093s-0.99-0.819-1.684-0.819
			s-1.252,0.271-1.677,0.812s-0.637,1.241-0.637,2.099c0,0.858,0.212,1.558,0.637,2.1c0.425,0.542,0.983,0.812,1.677,0.812
			S305.878,232.325,306.307,231.779z"/>
		<path fill="#FFFFFF" d="M309.979,233.677v-7.982h2.691c1.179,0,2.119,0.362,2.821,1.085c0.701,0.724,1.053,1.692,1.053,2.905
			c0,1.214-0.352,2.182-1.053,2.906c-0.702,0.724-1.643,1.085-2.821,1.085H309.979z M311.331,232.468h1.287
			c0.823,0,1.458-0.247,1.904-0.741c0.446-0.494,0.669-1.174,0.669-2.041c0-0.866-0.223-1.549-0.669-2.047
			c-0.446-0.498-1.081-0.748-1.904-0.748h-1.287V232.468z"/>
		<path fill="#FFFFFF" d="M318.207,225.695h5.213v1.196h-3.887v2.106h3.523v1.183h-3.523v2.288h3.887v1.209h-5.213V225.695z"/>
		<path fill="#FFFFFF" d="M330.856,225.695h1.3l3.068,7.982h-1.378l-0.819-2.21h-3.055l-0.819,2.21h-1.365L330.856,225.695z
			 M331.493,227.346l-1.092,2.951h2.184L331.493,227.346z"/>
		<path fill="#FFFFFF" d="M343.115,225.695v7.982h-1.04l-4.082-5.811v5.811h-1.3v-7.982h1.274l3.848,5.538v-5.538H343.115z"/>
		<path fill="#FFFFFF" d="M345.208,233.677v-7.982h2.691c1.179,0,2.119,0.362,2.821,1.085c0.701,0.724,1.053,1.692,1.053,2.905
			c0,1.214-0.352,2.182-1.053,2.906c-0.702,0.724-1.643,1.085-2.821,1.085H345.208z M346.561,232.468h1.287
			c0.823,0,1.458-0.247,1.904-0.741c0.446-0.494,0.669-1.174,0.669-2.041c0-0.866-0.223-1.549-0.669-2.047
			c-0.446-0.498-1.081-0.748-1.904-0.748h-1.287V232.468z"/>
		<path fill="#FFFFFF" d="M361.094,229.556c0.382,0.122,0.693,0.354,0.937,0.696c0.242,0.342,0.363,0.721,0.363,1.137
			c0,0.737-0.24,1.302-0.721,1.697c-0.481,0.394-1.143,0.591-1.982,0.591h-3.056v-7.982h2.795c0.85,0,1.513,0.187,1.989,0.559
			s0.715,0.91,0.715,1.612c0,0.416-0.098,0.776-0.292,1.079C361.646,229.248,361.397,229.452,361.094,229.556z M357.948,229.049
			h1.469c0.944,0,1.417-0.368,1.417-1.105c0-0.719-0.473-1.079-1.417-1.079h-1.469V229.049z M357.948,230.167v2.34h1.716
			c0.45,0,0.797-0.104,1.04-0.312c0.242-0.208,0.364-0.494,0.364-0.858c0-0.364-0.122-0.65-0.364-0.858
			c-0.243-0.208-0.59-0.312-1.04-0.312H357.948z"/>
		<path fill="#FFFFFF" d="M365.476,225.695v7.982h-1.353v-7.982H365.476z"/>
		<path fill="#FFFFFF" d="M373.989,225.695v7.982h-1.04l-4.082-5.811v5.811h-1.3v-7.982h1.274l3.848,5.538v-5.538H373.989z"/>
		<path fill="#FFFFFF" d="M378.527,225.695h1.3l3.068,7.982h-1.378l-0.819-2.21h-3.055l-0.819,2.21h-1.365L378.527,225.695z
			 M379.164,227.346l-1.092,2.951h2.184L379.164,227.346z"/>
		<path fill="#FFFFFF" d="M386.678,230.44h-0.962v3.237h-1.353v-7.982h3.081c0.841,0,1.504,0.206,1.989,0.618
			s0.728,1.003,0.728,1.774c0,0.659-0.18,1.181-0.539,1.566s-0.86,0.63-1.502,0.734l2.314,3.289H388.9L386.678,230.44z
			 M385.716,226.865v2.444h1.703c0.441,0,0.786-0.11,1.033-0.332c0.247-0.221,0.37-0.518,0.37-0.89s-0.123-0.669-0.37-0.891
			s-0.592-0.332-1.033-0.332H385.716z"/>
		<path fill="#FFFFFF" d="M393.256,225.695v7.982h-1.353v-7.982H393.256z"/>
		<path fill="#FFFFFF" d="M395.349,225.695h5.213v1.196h-3.887v2.106h3.523v1.183h-3.523v2.288h3.887v1.209h-5.213V225.695z"/>
		<path fill="#FFFFFF" d="M401.731,231.467h1.378c0.252,0.797,0.854,1.196,1.808,1.196c0.468,0,0.843-0.106,1.124-0.318
			s0.423-0.5,0.423-0.864c0-0.286-0.089-0.514-0.267-0.683s-0.475-0.301-0.891-0.396l-1.352-0.325
			c-1.326-0.312-1.989-1.027-1.989-2.145c0-0.685,0.253-1.25,0.761-1.696c0.507-0.446,1.158-0.669,1.956-0.669
			c0.841,0,1.519,0.197,2.034,0.591c0.516,0.395,0.848,0.934,0.995,1.619h-1.353c-0.251-0.71-0.806-1.066-1.664-1.066
			c-0.433,0-0.782,0.102-1.046,0.305c-0.265,0.204-0.396,0.47-0.396,0.8c0,0.528,0.351,0.875,1.053,1.04l1.391,0.325
			c0.65,0.147,1.157,0.408,1.521,0.78s0.546,0.849,0.546,1.43c0,0.737-0.265,1.324-0.793,1.762s-1.214,0.656-2.054,0.656
			c-0.85,0-1.559-0.206-2.126-0.617S401.87,232.204,401.731,231.467z"/>
	</g>
</g>
<line fill="none" stroke="#696C71" stroke-width="0.7445" stroke-miterlimit="10" x1="128.278" y1="87.994" x2="156.121" y2="87.994"/>
<line fill="none" stroke="#696C71" stroke-width="0.6273" stroke-miterlimit="10" x1="284.508" y1="92.388" x2="309.477" y2="92.388"/>
<g>
	<rect x="156.104" y="65.494" fill="#F5F6F6" width="130" height="45"/>
	<g>
		<g>
			<path fill="#696C71" d="M190.001,84.329v-7.982h1.353v6.773h3.835v1.209H190.001z"/>
			<path fill="#696C71" d="M199.335,76.347h1.3l3.068,7.982h-1.378l-0.819-2.21h-3.055l-0.819,2.21h-1.365L199.335,76.347z
				 M199.972,77.998l-1.092,2.951h2.184L199.972,77.998z"/>
			<path fill="#696C71" d="M211.594,76.347v7.982h-1.04l-4.082-5.811v5.811h-1.3v-7.982h1.274l3.848,5.538v-5.538H211.594z"/>
			<path fill="#696C71" d="M219.122,81.365h-1.742v-1.157h3.029v0.624c0,1.092-0.319,1.97-0.956,2.633
				c-0.637,0.663-1.449,0.994-2.438,0.994c-1.083,0-1.98-0.383-2.69-1.15c-0.711-0.767-1.066-1.757-1.066-2.971
				c0-1.213,0.353-2.203,1.06-2.97c0.706-0.767,1.588-1.15,2.646-1.15c0.893,0,1.623,0.234,2.19,0.702
				c0.567,0.468,0.93,1.11,1.085,1.924h-1.352c-0.174-0.459-0.409-0.808-0.708-1.047c-0.3-0.238-0.705-0.357-1.216-0.357
				c-0.702,0-1.268,0.271-1.696,0.812c-0.43,0.542-0.644,1.237-0.644,2.086c0,0.858,0.216,1.56,0.649,2.106
				c0.434,0.546,1.015,0.819,1.742,0.819c0.589,0,1.066-0.171,1.43-0.514C218.809,82.407,219.035,81.945,219.122,81.365z"/>
			<path fill="#696C71" d="M227.473,83.607c-0.576,0.568-1.353,0.852-2.333,0.852s-1.758-0.284-2.334-0.852
				c-0.576-0.567-0.864-1.389-0.864-2.463v-4.797h1.353V81c0,1.5,0.615,2.249,1.846,2.249s1.846-0.75,1.846-2.249v-4.654h1.352v4.81
				C228.338,82.223,228.049,83.04,227.473,83.607z"/>
			<path fill="#696C71" d="M232.746,76.347h1.299l3.068,7.982h-1.377l-0.82-2.21h-3.055l-0.818,2.21h-1.365L232.746,76.347z
				 M233.383,77.998l-1.092,2.951h2.184L233.383,77.998z"/>
			<path fill="#696C71" d="M244.016,81.365h-1.742v-1.157h3.029v0.624c0,1.092-0.318,1.97-0.955,2.633
				c-0.637,0.663-1.449,0.994-2.438,0.994c-1.084,0-1.98-0.383-2.691-1.15s-1.066-1.757-1.066-2.971c0-1.213,0.354-2.203,1.061-2.97
				c0.705-0.767,1.588-1.15,2.645-1.15c0.893,0,1.623,0.234,2.191,0.702c0.566,0.468,0.93,1.11,1.084,1.924h-1.352
				c-0.174-0.459-0.408-0.808-0.707-1.047c-0.301-0.238-0.705-0.357-1.217-0.357c-0.701,0-1.268,0.271-1.695,0.812
				c-0.43,0.542-0.645,1.237-0.645,2.086c0,0.858,0.217,1.56,0.65,2.106c0.434,0.546,1.014,0.819,1.742,0.819
				c0.588,0,1.066-0.171,1.43-0.514C243.703,82.407,243.93,81.945,244.016,81.365z"/>
			<path fill="#696C71" d="M246.967,76.347h5.213v1.196h-3.887v2.106h3.523v1.183h-3.523v2.288h3.887v1.209h-5.213V76.347z"/>
			<path fill="#696C71" d="M199.199,97.119h1.378c0.252,0.797,0.854,1.196,1.808,1.196c0.468,0,0.843-0.106,1.124-0.318
				s0.423-0.5,0.423-0.864c0-0.286-0.089-0.514-0.267-0.683s-0.475-0.301-0.891-0.396l-1.352-0.325
				c-1.326-0.312-1.989-1.027-1.989-2.145c0-0.685,0.253-1.25,0.761-1.696c0.507-0.446,1.158-0.669,1.956-0.669
				c0.841,0,1.519,0.197,2.034,0.591c0.516,0.395,0.848,0.934,0.995,1.619h-1.353c-0.251-0.71-0.806-1.066-1.664-1.066
				c-0.433,0-0.782,0.102-1.046,0.305c-0.265,0.204-0.396,0.47-0.396,0.8c0,0.528,0.351,0.875,1.053,1.04l1.391,0.325
				c0.65,0.147,1.157,0.408,1.521,0.78s0.546,0.849,0.546,1.43c0,0.737-0.265,1.324-0.793,1.762s-1.214,0.656-2.054,0.656
				c-0.85,0-1.559-0.206-2.126-0.617S199.337,97.855,199.199,97.119z"/>
			<path fill="#696C71" d="M206.895,91.347h5.213v1.196h-3.887v2.106h3.523v1.183h-3.523v2.288h3.887v1.209h-5.213V91.347z"/>
			<path fill="#696C71" d="M216.216,96.092h-0.962v3.237h-1.353v-7.982h3.081c0.841,0,1.504,0.206,1.989,0.618
				s0.728,1.003,0.728,1.774c0,0.659-0.18,1.181-0.539,1.566s-0.86,0.63-1.502,0.734l2.314,3.289h-1.534L216.216,96.092z
				 M215.254,92.517v2.444h1.703c0.441,0,0.786-0.11,1.033-0.332c0.247-0.221,0.37-0.518,0.37-0.89s-0.123-0.669-0.37-0.891
				s-0.592-0.332-1.033-0.332H215.254z"/>
			<path fill="#696C71" d="M225.122,99.329h-1.287l-3.017-7.982h1.417l2.263,6.227l2.262-6.227h1.377L225.122,99.329z"/>
			<path fill="#696C71" d="M229.605,91.347h5.213v1.196h-3.887v2.106h3.523v1.183h-3.523v2.288h3.887v1.209h-5.213V91.347z"/>
			<path fill="#696C71" d="M238.928,96.092h-0.963v3.237h-1.352v-7.982h3.08c0.842,0,1.504,0.206,1.99,0.618
				c0.484,0.412,0.727,1.003,0.727,1.774c0,0.659-0.18,1.181-0.539,1.566s-0.859,0.63-1.502,0.734l2.314,3.289h-1.533
				L238.928,96.092z M237.965,92.517v2.444h1.703c0.441,0,0.787-0.11,1.033-0.332c0.248-0.221,0.371-0.518,0.371-0.89
				s-0.123-0.669-0.371-0.891c-0.246-0.221-0.592-0.332-1.033-0.332H237.965z"/>
		</g>
	</g>
</g>
<g>
	<rect x="307.88" y="65.701" fill="#F5F6F6" width="130" height="44.586"/>
	<g>
		<g>
			<path fill="#696C71" d="M346.055,80.208c0.382,0.122,0.693,0.354,0.937,0.696c0.242,0.342,0.363,0.721,0.363,1.137
				c0,0.737-0.24,1.302-0.721,1.697c-0.481,0.394-1.143,0.591-1.982,0.591h-3.056v-7.982h2.795c0.85,0,1.513,0.187,1.989,0.559
				s0.715,0.91,0.715,1.612c0,0.416-0.098,0.776-0.292,1.079C346.607,79.9,346.358,80.104,346.055,80.208z M342.909,79.701h1.469
				c0.944,0,1.417-0.368,1.417-1.105c0-0.719-0.473-1.079-1.417-1.079h-1.469V79.701z M342.909,80.819v2.34h1.716
				c0.45,0,0.797-0.104,1.04-0.312c0.242-0.208,0.364-0.494,0.364-0.858c0-0.364-0.122-0.65-0.364-0.858
				c-0.243-0.208-0.59-0.312-1.04-0.312H342.909z"/>
			<path fill="#696C71" d="M351.528,76.347h1.3l3.068,7.982h-1.378l-0.819-2.21h-3.055l-0.819,2.21h-1.365L351.528,76.347z
				 M352.165,77.998l-1.092,2.951h2.184L352.165,77.998z"/>
			<path fill="#696C71" d="M357.364,84.329v-7.982h1.353v6.773h3.835v1.209H357.364z"/>
			<path fill="#696C71" d="M364.255,84.329v-7.982h1.353v6.773h3.835v1.209H364.255z"/>
			<path fill="#696C71" d="M371.145,76.347h5.213v1.196h-3.887v2.106h3.523v1.183h-3.523v2.288h3.887v1.209h-5.213V76.347z"/>
			<path fill="#696C71" d="M380.466,81.092h-0.962v3.237h-1.353v-7.982h3.081c0.841,0,1.504,0.206,1.989,0.618
				s0.728,1.003,0.728,1.774c0,0.659-0.18,1.181-0.539,1.566s-0.86,0.63-1.502,0.734l2.314,3.289h-1.534L380.466,81.092z
				 M379.504,77.517v2.444h1.703c0.441,0,0.786-0.11,1.033-0.332c0.247-0.221,0.37-0.518,0.37-0.89s-0.123-0.669-0.37-0.891
				s-0.592-0.332-1.033-0.332H379.504z"/>
			<path fill="#696C71" d="M387.044,76.347v7.982h-1.353v-7.982H387.044z"/>
			<path fill="#696C71" d="M395.558,76.347v7.982h-1.04l-4.082-5.811v5.811h-1.3v-7.982h1.274l3.848,5.538v-5.538H395.558z"/>
			<path fill="#696C71" d="M400.096,76.347h1.3l3.068,7.982h-1.378l-0.819-2.21h-3.055l-0.819,2.21h-1.365L400.096,76.347z
				 M400.732,77.998l-1.092,2.951h2.184L400.732,77.998z"/>
			<path fill="#696C71" d="M342.214,98.309c-0.688-0.767-1.033-1.757-1.033-2.971c0-1.213,0.345-2.203,1.033-2.97
				c0.689-0.767,1.554-1.15,2.594-1.15c0.884,0,1.607,0.236,2.171,0.708c0.563,0.472,0.923,1.116,1.079,1.93h-1.326
				c-0.347-0.944-0.988-1.417-1.924-1.417c-0.693,0-1.244,0.271-1.651,0.812c-0.407,0.542-0.61,1.237-0.61,2.086
				c0,0.85,0.203,1.545,0.61,2.087s0.958,0.812,1.651,0.812c0.936,0,1.577-0.477,1.924-1.43h1.326
				c-0.156,0.823-0.516,1.471-1.079,1.943c-0.563,0.473-1.287,0.708-2.171,0.708C343.768,99.459,342.903,99.076,342.214,98.309z"/>
			<path fill="#696C71" d="M355.598,92.38c0.693,0.776,1.04,1.762,1.04,2.958c0,1.196-0.347,2.182-1.04,2.958
				c-0.693,0.776-1.577,1.164-2.652,1.164c-1.074,0-1.956-0.388-2.646-1.164c-0.688-0.775-1.033-1.761-1.033-2.958
				c0-1.196,0.345-2.182,1.033-2.958c0.689-0.775,1.571-1.163,2.646-1.163C354.021,91.217,354.904,91.605,355.598,92.38z
				 M354.629,97.431c0.429-0.546,0.644-1.244,0.644-2.093c0-0.849-0.215-1.547-0.644-2.093s-0.99-0.819-1.684-0.819
				s-1.252,0.271-1.677,0.812s-0.637,1.241-0.637,2.099c0,0.858,0.212,1.558,0.637,2.1c0.425,0.542,0.983,0.812,1.677,0.812
				S354.2,97.977,354.629,97.431z"/>
			<path fill="#696C71" d="M362.747,99.329h-0.962l-2.197-5.551v5.551h-1.287v-7.982h1.547l2.432,6.136l2.404-6.136h1.509v7.982
				h-1.301v-5.551L362.747,99.329z"/>
			<path fill="#696C71" d="M371.366,96.352h-1.729v2.977h-1.353v-7.982h3.081c0.841,0,1.506,0.217,1.996,0.65
				c0.489,0.434,0.734,1.053,0.734,1.859c0,0.798-0.245,1.413-0.734,1.846C372.872,96.136,372.207,96.352,371.366,96.352z
				 M372.758,93.856c0-0.407-0.122-0.732-0.364-0.975c-0.243-0.242-0.594-0.364-1.053-0.364h-1.703v2.665h1.703
				c0.45,0,0.799-0.121,1.046-0.364C372.634,94.576,372.758,94.255,372.758,93.856z"/>
			<path fill="#696C71" d="M381.598,92.38c0.693,0.776,1.04,1.762,1.04,2.958c0,1.196-0.347,2.182-1.04,2.958
				c-0.693,0.776-1.577,1.164-2.652,1.164c-1.074,0-1.956-0.388-2.646-1.164c-0.688-0.775-1.033-1.761-1.033-2.958
				c0-1.196,0.345-2.182,1.033-2.958c0.689-0.775,1.571-1.163,2.646-1.163C380.021,91.217,380.904,91.605,381.598,92.38z
				 M380.629,97.431c0.429-0.546,0.644-1.244,0.644-2.093c0-0.849-0.215-1.547-0.644-2.093s-0.99-0.819-1.684-0.819
				s-1.252,0.271-1.677,0.812s-0.637,1.241-0.637,2.099c0,0.858,0.212,1.558,0.637,2.1c0.425,0.542,0.983,0.812,1.677,0.812
				S380.2,97.977,380.629,97.431z"/>
			<path fill="#696C71" d="M383.677,97.119h1.378c0.252,0.797,0.854,1.196,1.808,1.196c0.468,0,0.843-0.106,1.124-0.318
				s0.423-0.5,0.423-0.864c0-0.286-0.089-0.514-0.267-0.683s-0.475-0.301-0.891-0.396l-1.352-0.325
				c-1.326-0.312-1.989-1.027-1.989-2.145c0-0.685,0.253-1.25,0.761-1.696c0.507-0.446,1.158-0.669,1.956-0.669
				c0.841,0,1.519,0.197,2.034,0.591c0.516,0.395,0.848,0.934,0.995,1.619h-1.353c-0.251-0.71-0.806-1.066-1.664-1.066
				c-0.433,0-0.782,0.102-1.046,0.305c-0.265,0.204-0.396,0.47-0.396,0.8c0,0.528,0.351,0.875,1.053,1.04l1.391,0.325
				c0.65,0.147,1.157,0.408,1.521,0.78s0.546,0.849,0.546,1.43c0,0.737-0.265,1.324-0.793,1.762s-1.214,0.656-2.054,0.656
				c-0.85,0-1.559-0.206-2.126-0.617S383.815,97.856,383.677,97.119z"/>
			<path fill="#696C71" d="M391.373,91.347h5.213v1.196h-3.887v2.106h3.523v1.183h-3.523v2.288h3.887v1.209h-5.213V91.347z"/>
			<path fill="#696C71" d="M400.694,96.092h-0.962v3.237h-1.353v-7.982h3.081c0.841,0,1.504,0.206,1.989,0.618
				s0.728,1.003,0.728,1.774c0,0.659-0.18,1.181-0.539,1.566s-0.86,0.63-1.502,0.734l2.314,3.289h-1.534L400.694,96.092z
				 M399.732,92.517v2.444h1.703c0.441,0,0.786-0.11,1.033-0.332c0.247-0.221,0.37-0.518,0.37-0.89s-0.123-0.669-0.37-0.891
				s-0.592-0.332-1.033-0.332H399.732z"/>
		</g>
	</g>
</g>
<g>
	<rect x="156.104" y="129.342" fill="#3FBFBB" width="281.776" height="25"/>
	<g>
		<path fill="#FFFFFF" d="M242.438,145.508c-0.169-0.173-0.254-0.386-0.254-0.637c0-0.251,0.085-0.463,0.254-0.637
			s0.379-0.26,0.63-0.26s0.462,0.087,0.631,0.26s0.253,0.386,0.253,0.637c0,0.251-0.084,0.464-0.253,0.637s-0.38,0.26-0.631,0.26
			S242.607,145.681,242.438,145.508z"/>
		<path fill="#FFFFFF" d="M250.036,141.556c0.382,0.122,0.693,0.354,0.937,0.696c0.242,0.342,0.363,0.721,0.363,1.137
			c0,0.737-0.24,1.302-0.721,1.697c-0.481,0.394-1.143,0.591-1.982,0.591h-3.056v-7.982h2.795c0.85,0,1.513,0.187,1.989,0.559
			s0.715,0.91,0.715,1.612c0,0.416-0.098,0.776-0.292,1.079C250.589,141.248,250.34,141.452,250.036,141.556z M246.891,141.049
			h1.469c0.944,0,1.417-0.368,1.417-1.105c0-0.719-0.473-1.079-1.417-1.079h-1.469V141.049z M246.891,142.167v2.34h1.716
			c0.45,0,0.797-0.104,1.04-0.312c0.242-0.208,0.364-0.494,0.364-0.858c0-0.364-0.122-0.65-0.364-0.858
			c-0.243-0.208-0.59-0.312-1.04-0.312H246.891z"/>
		<path fill="#FFFFFF" d="M255.51,137.695h1.3l3.068,7.982H258.5l-0.819-2.21h-3.055l-0.819,2.21h-1.365L255.51,137.695z
			 M256.146,139.346l-1.092,2.951h2.184L256.146,139.346z"/>
		<path fill="#FFFFFF" d="M261.347,145.677v-7.982h1.353v6.773h3.835v1.209H261.347z"/>
		<path fill="#FFFFFF" d="M270.81,143.467h1.378c0.252,0.797,0.854,1.196,1.808,1.196c0.468,0,0.843-0.106,1.124-0.318
			s0.423-0.5,0.423-0.864c0-0.286-0.089-0.514-0.267-0.683s-0.475-0.301-0.891-0.396l-1.352-0.325
			c-1.326-0.312-1.989-1.027-1.989-2.145c0-0.685,0.253-1.25,0.761-1.696c0.507-0.446,1.158-0.669,1.956-0.669
			c0.841,0,1.519,0.197,2.034,0.591c0.516,0.395,0.848,0.934,0.995,1.619h-1.353c-0.251-0.71-0.806-1.066-1.664-1.066
			c-0.433,0-0.782,0.102-1.046,0.305c-0.265,0.204-0.396,0.47-0.396,0.8c0,0.528,0.351,0.875,1.053,1.04l1.391,0.325
			c0.65,0.147,1.157,0.408,1.521,0.78s0.546,0.849,0.546,1.43c0,0.737-0.265,1.324-0.793,1.762s-1.214,0.656-2.054,0.656
			c-0.85,0-1.559-0.206-2.126-0.617S270.948,144.204,270.81,143.467z"/>
		<path fill="#FFFFFF" d="M284.408,138.728c0.693,0.776,1.04,1.762,1.04,2.958c0,1.196-0.347,2.182-1.04,2.958
			c-0.693,0.776-1.577,1.164-2.652,1.164c-1.074,0-1.956-0.388-2.646-1.164c-0.688-0.775-1.033-1.761-1.033-2.958
			c0-1.196,0.345-2.182,1.033-2.958c0.689-0.775,1.571-1.163,2.646-1.163C282.831,137.565,283.715,137.953,284.408,138.728z
			 M283.439,143.779c0.429-0.546,0.644-1.244,0.644-2.093c0-0.849-0.215-1.547-0.644-2.093s-0.99-0.819-1.684-0.819
			s-1.252,0.271-1.677,0.812s-0.637,1.241-0.637,2.099c0,0.858,0.212,1.558,0.637,2.1c0.425,0.542,0.983,0.812,1.677,0.812
			S283.011,144.325,283.439,143.779z"/>
		<path fill="#FFFFFF" d="M292.514,144.955c-0.576,0.568-1.354,0.852-2.333,0.852s-1.758-0.284-2.334-0.852
			c-0.576-0.567-0.864-1.389-0.864-2.463v-4.797h1.353v4.654c0,1.5,0.615,2.249,1.846,2.249s1.846-0.75,1.846-2.249v-4.654h1.353
			v4.81C293.379,143.571,293.09,144.388,292.514,144.955z"/>
		<path fill="#FFFFFF" d="M297.655,142.44h-0.962v3.237h-1.353v-7.982h3.081c0.841,0,1.504,0.206,1.989,0.618
			s0.728,1.003,0.728,1.774c0,0.659-0.18,1.181-0.539,1.566s-0.86,0.63-1.502,0.734l2.314,3.289h-1.534L297.655,142.44z
			 M296.693,138.865v2.444h1.703c0.441,0,0.786-0.11,1.033-0.332c0.247-0.221,0.37-0.518,0.37-0.89s-0.123-0.669-0.37-0.891
			s-0.592-0.332-1.033-0.332H296.693z"/>
		<path fill="#FFFFFF" d="M303.485,144.656c-0.688-0.767-1.033-1.757-1.033-2.971c0-1.213,0.345-2.203,1.033-2.97
			c0.689-0.767,1.554-1.15,2.594-1.15c0.884,0,1.607,0.236,2.171,0.708c0.563,0.472,0.923,1.116,1.079,1.93h-1.326
			c-0.347-0.944-0.988-1.417-1.924-1.417c-0.693,0-1.244,0.271-1.651,0.812c-0.407,0.542-0.61,1.237-0.61,2.086
			c0,0.85,0.203,1.545,0.61,2.087s0.958,0.812,1.651,0.812c0.936,0,1.577-0.477,1.924-1.43h1.326
			c-0.156,0.823-0.516,1.471-1.079,1.943c-0.563,0.473-1.287,0.708-2.171,0.708C305.039,145.807,304.175,145.423,303.485,144.656z"
			/>
		<path fill="#FFFFFF" d="M310.967,137.695h5.213v1.196h-3.887v2.106h3.523v1.183h-3.523v2.288h3.887v1.209h-5.213V137.695z"/>
		<path fill="#FFFFFF" d="M321.775,144.656c-0.688-0.767-1.033-1.757-1.033-2.971c0-1.213,0.345-2.203,1.033-2.97
			c0.689-0.767,1.554-1.15,2.594-1.15c0.884,0,1.607,0.236,2.171,0.708c0.563,0.472,0.923,1.116,1.079,1.93h-1.326
			c-0.347-0.944-0.988-1.417-1.924-1.417c-0.693,0-1.244,0.271-1.651,0.812c-0.407,0.542-0.61,1.237-0.61,2.086
			c0,0.85,0.203,1.545,0.61,2.087s0.958,0.812,1.651,0.812c0.936,0,1.577-0.477,1.924-1.43h1.326
			c-0.156,0.823-0.516,1.471-1.079,1.943c-0.563,0.473-1.287,0.708-2.171,0.708C323.329,145.807,322.465,145.423,321.775,144.656z"
			/>
		<path fill="#FFFFFF" d="M335.159,138.728c0.693,0.776,1.04,1.762,1.04,2.958c0,1.196-0.347,2.182-1.04,2.958
			c-0.693,0.776-1.577,1.164-2.652,1.164c-1.074,0-1.956-0.388-2.646-1.164c-0.688-0.775-1.033-1.761-1.033-2.958
			c0-1.196,0.345-2.182,1.033-2.958c0.689-0.775,1.571-1.163,2.646-1.163C333.582,137.565,334.466,137.953,335.159,138.728z
			 M334.19,143.779c0.429-0.546,0.644-1.244,0.644-2.093c0-0.849-0.215-1.547-0.644-2.093s-0.99-0.819-1.684-0.819
			s-1.252,0.271-1.677,0.812s-0.637,1.241-0.637,2.099c0,0.858,0.212,1.558,0.637,2.1c0.425,0.542,0.983,0.812,1.677,0.812
			S333.762,144.325,334.19,143.779z"/>
		<path fill="#FFFFFF" d="M337.863,145.677v-7.982h2.691c1.179,0,2.119,0.362,2.821,1.085c0.701,0.724,1.053,1.692,1.053,2.905
			c0,1.214-0.352,2.182-1.053,2.906c-0.702,0.724-1.643,1.085-2.821,1.085H337.863z M339.216,144.468h1.287
			c0.823,0,1.458-0.247,1.904-0.741c0.446-0.494,0.669-1.174,0.669-2.041c0-0.866-0.223-1.549-0.669-2.047
			c-0.446-0.498-1.081-0.748-1.904-0.748h-1.287V144.468z"/>
		<path fill="#FFFFFF" d="M346.092,137.695h5.213v1.196h-3.887v2.106h3.523v1.183h-3.523v2.288h3.887v1.209h-5.213V137.695z"/>
	</g>
</g>
<line fill="none" stroke="#696C71" stroke-width="0.7445" stroke-miterlimit="10" x1="128.278" y1="273.842" x2="158.027" y2="273.842"/>
<g>
	<rect x="155.76" y="261.342" fill="#F5F6F6" width="281.775" height="25"/>
	<g>
		<g>
			<path fill="#696C71" d="M253.422,273.556c0.383,0.121,0.693,0.354,0.938,0.695c0.242,0.343,0.363,0.722,0.363,1.138
				c0,0.737-0.24,1.302-0.721,1.696c-0.482,0.395-1.143,0.592-1.982,0.592h-3.057v-7.982h2.795c0.85,0,1.514,0.188,1.99,0.56
				s0.715,0.909,0.715,1.612c0,0.416-0.098,0.775-0.293,1.078C253.975,273.248,253.727,273.452,253.422,273.556z M250.277,273.049
				h1.469c0.943,0,1.416-0.368,1.416-1.104c0-0.72-0.473-1.08-1.416-1.08h-1.469V273.049z M250.277,274.167v2.34h1.715
				c0.451,0,0.797-0.104,1.041-0.312c0.242-0.207,0.363-0.494,0.363-0.857c0-0.364-0.121-0.65-0.363-0.858
				c-0.244-0.208-0.59-0.312-1.041-0.312H250.277z"/>
			<path fill="#696C71" d="M258.896,269.694h1.299l3.068,7.982h-1.377l-0.82-2.21h-3.055l-0.818,2.21h-1.365L258.896,269.694z
				 M259.533,271.346l-1.092,2.951h2.184L259.533,271.346z"/>
			<path fill="#696C71" d="M264.732,277.677v-7.982h1.352v6.773h3.836v1.209H264.732z"/>
			<path fill="#696C71" d="M271.623,277.677v-7.982h1.352v6.773h3.836v1.209H271.623z"/>
			<path fill="#696C71" d="M278.512,269.694h5.213v1.196h-3.887v2.106h3.523v1.183h-3.523v2.288h3.887v1.209h-5.213V269.694z"/>
			<path fill="#696C71" d="M287.834,274.44h-0.963v3.236h-1.352v-7.982h3.08c0.842,0,1.504,0.207,1.99,0.618
				c0.484,0.411,0.727,1.003,0.727,1.774c0,0.658-0.18,1.181-0.539,1.566s-0.859,0.631-1.502,0.734l2.314,3.289h-1.533
				L287.834,274.44z M286.871,270.864v2.444h1.703c0.441,0,0.787-0.11,1.033-0.331c0.248-0.221,0.371-0.518,0.371-0.891
				s-0.123-0.67-0.371-0.891c-0.246-0.221-0.592-0.332-1.033-0.332H286.871z"/>
			<path fill="#696C71" d="M294.412,269.694v7.982h-1.354v-7.982H294.412z"/>
			<path fill="#696C71" d="M302.926,269.694v7.982h-1.041l-4.082-5.811v5.811h-1.299v-7.982h1.273l3.848,5.539v-5.539H302.926z"/>
			<path fill="#696C71" d="M307.463,269.694h1.301l3.068,7.982h-1.379l-0.818-2.21h-3.055l-0.82,2.21h-1.365L307.463,269.694z
				 M308.1,271.346l-1.092,2.951h2.184L308.1,271.346z"/>
			<path fill="#696C71" d="M316.004,270.891v-1.196h6.656v1.196h-2.652v6.786h-1.352v-6.786H316.004z"/>
			<path fill="#696C71" d="M324.258,269.694h5.213v1.196h-3.887v2.106h3.523v1.183h-3.523v2.288h3.887v1.209h-5.213V269.694z"/>
			<path fill="#696C71" d="M330.641,275.467h1.379c0.252,0.798,0.854,1.196,1.807,1.196c0.469,0,0.844-0.106,1.125-0.318
				c0.281-0.213,0.422-0.501,0.422-0.865c0-0.285-0.088-0.514-0.266-0.682c-0.178-0.17-0.475-0.302-0.891-0.396l-1.352-0.326
				c-1.326-0.312-1.99-1.026-1.99-2.145c0-0.685,0.254-1.25,0.762-1.696c0.506-0.446,1.158-0.669,1.955-0.669
				c0.842,0,1.52,0.197,2.035,0.591c0.516,0.395,0.848,0.935,0.994,1.618h-1.352c-0.252-0.71-0.807-1.065-1.664-1.065
				c-0.434,0-0.783,0.102-1.047,0.306c-0.264,0.203-0.396,0.47-0.396,0.799c0,0.529,0.352,0.876,1.053,1.04l1.391,0.325
				c0.65,0.147,1.158,0.408,1.521,0.78c0.365,0.372,0.547,0.849,0.547,1.43c0,0.737-0.266,1.324-0.793,1.762
				c-0.529,0.438-1.215,0.656-2.055,0.656c-0.85,0-1.559-0.206-2.125-0.617C331.133,276.778,330.779,276.204,330.641,275.467z"/>
			<path fill="#696C71" d="M337.844,270.891v-1.196h6.656v1.196h-2.652v6.786h-1.352v-6.786H337.844z"/>
		</g>
	</g>
</g>
<g>
	<rect x="156.104" y="305.342" fill="#F5F6F6" width="281.776" height="25"/>
	<g>
		<path fill="#595B5F" d="M251.428,317.556c0.381,0.121,0.693,0.354,0.936,0.695c0.242,0.344,0.363,0.723,0.363,1.139
			c0,0.736-0.24,1.303-0.721,1.695c-0.48,0.395-1.143,0.592-1.982,0.592h-3.055v-7.982h2.795c0.85,0,1.512,0.188,1.988,0.561
			s0.715,0.91,0.715,1.611c0,0.416-0.098,0.775-0.291,1.078C251.98,317.249,251.73,317.452,251.428,317.556z M248.281,317.05h1.469
			c0.945,0,1.418-0.369,1.418-1.105c0-0.719-0.473-1.078-1.418-1.078h-1.469V317.05z M248.281,318.167v2.34h1.717
			c0.449,0,0.797-0.104,1.039-0.312c0.242-0.207,0.365-0.492,0.365-0.857c0-0.363-0.123-0.65-0.365-0.857
			c-0.242-0.209-0.59-0.312-1.039-0.312H248.281z"/>
		<path fill="#595B5F" d="M256.9,313.694h1.301l3.068,7.982h-1.379l-0.818-2.209h-3.055l-0.82,2.209h-1.365L256.9,313.694z
			 M257.537,315.347l-1.092,2.951h2.184L257.537,315.347z"/>
		<path fill="#595B5F" d="M262.736,321.677v-7.982h1.354v6.773h3.834v1.209H262.736z"/>
		<path fill="#595B5F" d="M269.627,321.677v-7.982h1.354v6.773h3.834v1.209H269.627z"/>
		<path fill="#595B5F" d="M276.518,313.694h5.213v1.197h-3.887v2.105h3.523v1.184h-3.523v2.287h3.887v1.209h-5.213V313.694z"/>
		<path fill="#595B5F" d="M285.838,318.44h-0.961v3.236h-1.354v-7.982h3.082c0.84,0,1.504,0.207,1.988,0.619
			c0.486,0.41,0.729,1.002,0.729,1.773c0,0.658-0.18,1.182-0.539,1.566c-0.359,0.387-0.861,0.631-1.502,0.734l2.314,3.289h-1.535
			L285.838,318.44z M284.877,314.866v2.443h1.703c0.441,0,0.785-0.111,1.033-0.332c0.246-0.221,0.369-0.518,0.369-0.891
			s-0.123-0.67-0.369-0.891c-0.248-0.221-0.592-0.33-1.033-0.33H284.877z"/>
		<path fill="#595B5F" d="M292.416,313.694v7.982h-1.352v-7.982H292.416z"/>
		<path fill="#595B5F" d="M300.93,313.694v7.982h-1.039l-4.082-5.811v5.811h-1.301v-7.982h1.275l3.848,5.539v-5.539H300.93z"/>
		<path fill="#595B5F" d="M305.469,313.694h1.299l3.068,7.982h-1.377l-0.82-2.209h-3.055l-0.818,2.209H302.4L305.469,313.694z
			 M306.105,315.347l-1.092,2.951h2.184L306.105,315.347z"/>
		<path fill="#595B5F" d="M318.961,317.556c0.383,0.121,0.693,0.354,0.938,0.695c0.242,0.344,0.363,0.723,0.363,1.139
			c0,0.736-0.24,1.303-0.721,1.695c-0.482,0.395-1.143,0.592-1.982,0.592h-3.057v-7.982h2.795c0.85,0,1.514,0.188,1.99,0.561
			s0.715,0.91,0.715,1.611c0,0.416-0.098,0.775-0.293,1.078C319.514,317.249,319.266,317.452,318.961,317.556z M315.816,317.05
			h1.469c0.943,0,1.416-0.369,1.416-1.105c0-0.719-0.473-1.078-1.416-1.078h-1.469V317.05z M315.816,318.167v2.34h1.715
			c0.451,0,0.797-0.104,1.041-0.312c0.242-0.207,0.363-0.492,0.363-0.857c0-0.363-0.121-0.65-0.363-0.857
			c-0.244-0.209-0.59-0.312-1.041-0.312H315.816z"/>
		<path fill="#595B5F" d="M327.393,320.956c-0.576,0.568-1.354,0.852-2.334,0.852c-0.979,0-1.758-0.283-2.334-0.852
			s-0.863-1.389-0.863-2.463v-4.799h1.352v4.654c0,1.5,0.615,2.25,1.846,2.25s1.846-0.75,1.846-2.25v-4.654h1.354v4.811
			C328.258,319.571,327.969,320.388,327.393,320.956z"/>
		<path fill="#595B5F" d="M331.572,313.694v7.982h-1.354v-7.982H331.572z"/>
		<path fill="#595B5F" d="M333.664,321.677v-7.982h1.352v6.773h3.836v1.209H333.664z"/>
		<path fill="#595B5F" d="M340.555,321.677v-7.982h2.691c1.178,0,2.119,0.363,2.82,1.086c0.701,0.725,1.053,1.693,1.053,2.906
			s-0.352,2.182-1.053,2.904c-0.701,0.725-1.643,1.086-2.82,1.086H340.555z M341.906,320.468h1.287c0.824,0,1.459-0.246,1.904-0.74
			c0.447-0.494,0.67-1.174,0.67-2.041s-0.223-1.549-0.67-2.047c-0.445-0.5-1.08-0.748-1.904-0.748h-1.287V320.468z"/>
	</g>
</g>
<g>
	<rect x="156.104" y="349.342" fill="#3FBFBB" width="281.776" height="45"/>
	<g>
		<g>
			<path fill="#FFFFFF" d="M173,368.177v-7.982h2.691c1.179,0,2.119,0.363,2.821,1.086c0.701,0.725,1.053,1.693,1.053,2.906
				s-0.352,2.182-1.053,2.904c-0.702,0.725-1.643,1.086-2.821,1.086H173z M174.352,366.968h1.287c0.823,0,1.458-0.246,1.904-0.74
				s0.669-1.174,0.669-2.041s-0.223-1.549-0.669-2.047c-0.446-0.5-1.081-0.748-1.904-0.748h-1.287V366.968z"/>
			<path fill="#FFFFFF" d="M187.13,361.229c0.693,0.775,1.04,1.762,1.04,2.957s-0.347,2.182-1.04,2.957s-1.577,1.164-2.652,1.164
				c-1.074,0-1.956-0.389-2.646-1.164c-0.688-0.775-1.033-1.762-1.033-2.957s0.345-2.182,1.033-2.957
				c0.689-0.775,1.571-1.164,2.646-1.164C185.553,360.065,186.437,360.454,187.13,361.229z M186.162,366.278
				c0.429-0.545,0.644-1.242,0.644-2.092s-0.215-1.547-0.644-2.094c-0.429-0.545-0.99-0.818-1.684-0.818s-1.252,0.271-1.677,0.812
				s-0.637,1.242-0.637,2.1s0.212,1.559,0.637,2.1s0.983,0.812,1.677,0.812S185.733,366.825,186.162,366.278z"/>
			<path fill="#FFFFFF" d="M190.439,367.157c-0.688-0.768-1.033-1.758-1.033-2.971s0.345-2.203,1.033-2.971
				c0.689-0.768,1.554-1.15,2.594-1.15c0.884,0,1.607,0.236,2.171,0.709s0.923,1.115,1.079,1.93h-1.326
				c-0.347-0.945-0.988-1.416-1.924-1.416c-0.693,0-1.244,0.27-1.651,0.812c-0.407,0.541-0.61,1.236-0.61,2.086
				s0.203,1.545,0.61,2.086c0.407,0.543,0.958,0.812,1.651,0.812c0.936,0,1.577-0.477,1.924-1.43h1.326
				c-0.156,0.824-0.516,1.471-1.079,1.943s-1.287,0.709-2.171,0.709C191.993,368.308,191.128,367.923,190.439,367.157z"/>
			<path fill="#FFFFFF" d="M199.273,360.194v3.822l3.314-3.822h1.703l-3.224,3.627l3.341,4.355h-1.69l-2.626-3.418l-0.818,0.936
				v2.482h-1.353v-7.982H199.273z"/>
			<path fill="#FFFFFF" d="M205.811,360.194h5.213v1.197h-3.887v2.105h3.523v1.184h-3.523v2.287h3.887v1.209h-5.213V360.194z"/>
			<path fill="#FFFFFF" d="M215.132,364.94h-0.962v3.236h-1.353v-7.982h3.081c0.841,0,1.504,0.207,1.989,0.619
				c0.485,0.41,0.728,1.002,0.728,1.773c0,0.658-0.18,1.182-0.539,1.566c-0.359,0.387-0.86,0.631-1.502,0.734l2.314,3.289h-1.534
				L215.132,364.94z M214.17,361.366v2.443h1.703c0.441,0,0.786-0.111,1.033-0.332s0.37-0.518,0.37-0.891s-0.123-0.67-0.37-0.891
				s-0.592-0.33-1.033-0.33H214.17z"/>
			<path fill="#FFFFFF" d="M219.682,369.646l0.936-1.441c-0.216-0.035-0.392-0.127-0.526-0.273
				c-0.134-0.148-0.201-0.334-0.201-0.559c0-0.252,0.085-0.461,0.254-0.625s0.379-0.246,0.63-0.246c0.26,0,0.473,0.084,0.637,0.252
				c0.165,0.17,0.247,0.41,0.247,0.723c0,0.32-0.125,0.668-0.377,1.039l-0.754,1.131H219.682z"/>
			<path fill="#FFFFFF" d="M227.834,360.194v3.822l3.314-3.822h1.703l-3.225,3.627l3.342,4.355h-1.691l-2.625-3.418l-0.818,0.936
				v2.482h-1.353v-7.982H227.834z"/>
			<path fill="#FFFFFF" d="M239.773,367.456c-0.576,0.568-1.354,0.852-2.334,0.852c-0.979,0-1.758-0.283-2.334-0.852
				s-0.863-1.389-0.863-2.463v-4.799h1.352v4.654c0,1.5,0.615,2.25,1.846,2.25s1.846-0.75,1.846-2.25v-4.654h1.354v4.811
				C240.639,366.071,240.35,366.888,239.773,367.456z"/>
			<path fill="#FFFFFF" d="M247.059,364.056c0.383,0.121,0.693,0.354,0.938,0.695c0.242,0.344,0.363,0.723,0.363,1.139
				c0,0.736-0.24,1.303-0.721,1.695c-0.482,0.395-1.143,0.592-1.982,0.592H242.6v-7.982h2.795c0.85,0,1.514,0.188,1.99,0.561
				s0.715,0.91,0.715,1.611c0,0.416-0.098,0.775-0.293,1.078C247.611,363.749,247.363,363.952,247.059,364.056z M243.914,363.55
				h1.469c0.943,0,1.416-0.369,1.416-1.105c0-0.719-0.473-1.078-1.416-1.078h-1.469V363.55z M243.914,364.667v2.34h1.715
				c0.451,0,0.797-0.104,1.041-0.312c0.242-0.207,0.363-0.492,0.363-0.857c0-0.363-0.121-0.65-0.363-0.857
				c-0.244-0.209-0.59-0.312-1.041-0.312H243.914z"/>
			<path fill="#FFFFFF" d="M250.088,360.194h5.213v1.197h-3.887v2.105h3.523v1.184h-3.523v2.287h3.887v1.209h-5.213V360.194z"/>
			<path fill="#FFFFFF" d="M259.41,364.94h-0.963v3.236h-1.352v-7.982h3.08c0.842,0,1.504,0.207,1.99,0.619
				c0.484,0.41,0.727,1.002,0.727,1.773c0,0.658-0.18,1.182-0.539,1.566c-0.359,0.387-0.859,0.631-1.502,0.734l2.314,3.289h-1.533
				L259.41,364.94z M258.447,361.366v2.443h1.703c0.441,0,0.787-0.111,1.033-0.332c0.248-0.221,0.371-0.518,0.371-0.891
				s-0.123-0.67-0.371-0.891c-0.246-0.221-0.592-0.33-1.033-0.33H258.447z"/>
			<path fill="#FFFFFF" d="M271.057,360.194v7.982h-1.039l-4.082-5.811v5.811h-1.301v-7.982h1.275l3.848,5.539v-5.539H271.057z"/>
			<path fill="#FFFFFF" d="M273.15,360.194h5.213v1.197h-3.887v2.105H278v1.184h-3.523v2.287h3.887v1.209h-5.213V360.194z"/>
			<path fill="#FFFFFF" d="M279.662,361.392v-1.197h6.656v1.197h-2.652v6.785h-1.352v-6.785H279.662z"/>
			<path fill="#FFFFFF" d="M287.918,360.194h5.213v1.197h-3.887v2.105h3.523v1.184h-3.523v2.287h3.887v1.209h-5.213V360.194z"/>
			<path fill="#FFFFFF" d="M294.301,365.968h1.377c0.252,0.797,0.854,1.195,1.809,1.195c0.467,0,0.842-0.105,1.123-0.318
				s0.424-0.5,0.424-0.865c0-0.285-0.09-0.514-0.268-0.682c-0.178-0.17-0.475-0.301-0.891-0.396l-1.352-0.324
				c-1.326-0.312-1.988-1.027-1.988-2.146c0-0.684,0.252-1.25,0.76-1.695c0.508-0.447,1.158-0.67,1.957-0.67
				c0.84,0,1.518,0.197,2.033,0.592s0.848,0.934,0.996,1.617h-1.354c-0.25-0.709-0.805-1.064-1.664-1.064
				c-0.432,0-0.781,0.102-1.045,0.305c-0.266,0.203-0.396,0.471-0.396,0.799c0,0.529,0.35,0.877,1.053,1.041l1.391,0.324
				c0.65,0.148,1.156,0.408,1.521,0.781c0.363,0.371,0.545,0.85,0.545,1.43c0,0.736-0.264,1.324-0.793,1.762
				c-0.527,0.438-1.213,0.656-2.053,0.656c-0.85,0-1.559-0.207-2.127-0.617C294.793,367.278,294.439,366.704,294.301,365.968z"/>
			<path fill="#FFFFFF" d="M301.32,369.646l0.936-1.441c-0.215-0.035-0.391-0.127-0.525-0.273c-0.135-0.148-0.201-0.334-0.201-0.559
				c0-0.252,0.084-0.461,0.254-0.625c0.168-0.164,0.379-0.246,0.629-0.246c0.26,0,0.473,0.084,0.637,0.252
				c0.166,0.17,0.248,0.41,0.248,0.723c0,0.32-0.125,0.668-0.377,1.039l-0.754,1.131H301.32z"/>
			<path fill="#FFFFFF" d="M310.564,360.194h1.299l3.068,7.982h-1.377l-0.82-2.209h-3.055l-0.818,2.209h-1.365L310.564,360.194z
				 M311.201,361.847l-1.092,2.951h2.184L311.201,361.847z"/>
			<path fill="#FFFFFF" d="M322.822,360.194v7.982h-1.041l-4.082-5.811v5.811H316.4v-7.982h1.273l3.848,5.539v-5.539H322.822z"/>
			<path fill="#FFFFFF" d="M324.916,368.177v-7.982h2.691c1.178,0,2.119,0.363,2.82,1.086c0.701,0.725,1.053,1.693,1.053,2.906
				s-0.352,2.182-1.053,2.904c-0.701,0.725-1.643,1.086-2.82,1.086H324.916z M326.268,366.968h1.287c0.824,0,1.459-0.246,1.904-0.74
				c0.447-0.494,0.67-1.174,0.67-2.041s-0.223-1.549-0.67-2.047c-0.445-0.5-1.08-0.748-1.904-0.748h-1.287V366.968z"/>
			<path fill="#FFFFFF" d="M336.947,367.157c-0.689-0.768-1.033-1.758-1.033-2.971s0.344-2.203,1.033-2.971s1.553-1.15,2.594-1.15
				c0.883,0,1.607,0.236,2.17,0.709c0.564,0.473,0.924,1.115,1.08,1.93h-1.326c-0.348-0.945-0.988-1.416-1.924-1.416
				c-0.693,0-1.244,0.27-1.652,0.812c-0.406,0.541-0.609,1.236-0.609,2.086s0.203,1.545,0.609,2.086
				c0.408,0.543,0.959,0.812,1.652,0.812c0.936,0,1.576-0.477,1.924-1.43h1.326c-0.156,0.824-0.516,1.471-1.08,1.943
				c-0.562,0.473-1.287,0.709-2.17,0.709C338.5,368.308,337.637,367.923,336.947,367.157z"/>
			<path fill="#FFFFFF" d="M344.428,368.177v-7.982h1.352v6.773h3.836v1.209H344.428z"/>
			<path fill="#FFFFFF" d="M357.221,361.229c0.693,0.775,1.039,1.762,1.039,2.957s-0.346,2.182-1.039,2.957
				s-1.578,1.164-2.652,1.164s-1.957-0.389-2.646-1.164c-0.688-0.775-1.033-1.762-1.033-2.957s0.346-2.182,1.033-2.957
				c0.689-0.775,1.572-1.164,2.646-1.164S356.527,360.454,357.221,361.229z M356.252,366.278c0.428-0.545,0.643-1.242,0.643-2.092
				s-0.215-1.547-0.643-2.094c-0.43-0.545-0.99-0.818-1.684-0.818s-1.252,0.271-1.678,0.812c-0.424,0.541-0.637,1.242-0.637,2.1
				s0.213,1.559,0.637,2.1c0.426,0.541,0.984,0.812,1.678,0.812S355.822,366.825,356.252,366.278z"/>
			<path fill="#FFFFFF" d="M365.324,367.456c-0.576,0.568-1.354,0.852-2.332,0.852c-0.98,0-1.758-0.283-2.334-0.852
				s-0.865-1.389-0.865-2.463v-4.799h1.354v4.654c0,1.5,0.615,2.25,1.846,2.25s1.846-0.75,1.846-2.25v-4.654h1.352v4.811
				C366.189,366.071,365.9,366.888,365.324,367.456z"/>
			<path fill="#FFFFFF" d="M368.152,368.177v-7.982h2.691c1.178,0,2.119,0.363,2.82,1.086c0.701,0.725,1.053,1.693,1.053,2.906
				s-0.352,2.182-1.053,2.904c-0.701,0.725-1.643,1.086-2.82,1.086H368.152z M369.504,366.968h1.287c0.824,0,1.459-0.246,1.904-0.74
				c0.447-0.494,0.67-1.174,0.67-2.041s-0.223-1.549-0.67-2.047c-0.445-0.5-1.08-0.748-1.904-0.748h-1.287V366.968z"/>
			<path fill="#FFFFFF" d="M386,360.194v7.982h-1.039l-4.082-5.811v5.811h-1.301v-7.982h1.275l3.848,5.539v-5.539H386z"/>
			<path fill="#FFFFFF" d="M390.539,360.194h1.299l3.068,7.982h-1.377l-0.82-2.209h-3.055l-0.818,2.209h-1.365L390.539,360.194z
				 M391.176,361.847l-1.092,2.951h2.184L391.176,361.847z"/>
			<path fill="#FFFFFF" d="M395.881,361.392v-1.197h6.656v1.197h-2.652v6.785h-1.352v-6.785H395.881z"/>
			<path fill="#FFFFFF" d="M405.488,360.194v7.982h-1.352v-7.982H405.488z"/>
			<path fill="#FFFFFF" d="M411.26,368.177h-1.287l-3.016-7.982h1.416l2.264,6.229l2.262-6.229h1.377L411.26,368.177z"/>
			<path fill="#FFFFFF" d="M415.744,360.194h5.213v1.197h-3.887v2.105h3.523v1.184h-3.523v2.287h3.887v1.209h-5.213V360.194z"/>
			<path fill="#FFFFFF" d="M222.561,383.177v-7.982h2.691c1.179,0,2.119,0.363,2.822,1.086c0.701,0.725,1.053,1.693,1.053,2.906
				s-0.352,2.182-1.053,2.904c-0.703,0.725-1.643,1.086-2.822,1.086H222.561z M223.914,381.968h1.287
				c0.823,0,1.458-0.246,1.905-0.74c0.445-0.494,0.668-1.174,0.668-2.041s-0.223-1.549-0.668-2.047
				c-0.447-0.5-1.082-0.748-1.905-0.748h-1.287V381.968z"/>
			<path fill="#FFFFFF" d="M230.789,375.194h5.213v1.197h-3.887v2.105h3.523v1.184h-3.523v2.287h3.887v1.209h-5.213V375.194z"/>
			<path fill="#FFFFFF" d="M240.877,380.2h-1.729v2.977h-1.352v-7.982h3.08c0.842,0,1.506,0.217,1.996,0.65s0.734,1.053,0.734,1.859
				c0,0.797-0.244,1.412-0.734,1.846S241.719,380.2,240.877,380.2z M242.27,377.704c0-0.406-0.123-0.732-0.365-0.975
				s-0.594-0.363-1.053-0.363h-1.703v2.664h1.703c0.451,0,0.799-0.121,1.047-0.363C242.145,378.423,242.27,378.103,242.27,377.704z"
				/>
			<path fill="#FFFFFF" d="M245.207,383.177v-7.982h1.352v6.773h3.836v1.209H245.207z"/>
			<path fill="#FFFFFF" d="M257.998,376.229c0.693,0.775,1.041,1.762,1.041,2.957s-0.348,2.182-1.041,2.957
				s-1.576,1.164-2.652,1.164c-1.074,0-1.955-0.389-2.645-1.164s-1.033-1.762-1.033-2.957s0.344-2.182,1.033-2.957
				s1.57-1.164,2.645-1.164C256.422,375.065,257.305,375.454,257.998,376.229z M257.029,381.278c0.43-0.545,0.645-1.242,0.645-2.092
				s-0.215-1.547-0.645-2.094c-0.428-0.545-0.99-0.818-1.684-0.818s-1.252,0.271-1.676,0.812c-0.426,0.541-0.637,1.242-0.637,2.1
				s0.211,1.559,0.637,2.1c0.424,0.541,0.982,0.812,1.676,0.812S256.602,381.825,257.029,381.278z"/>
			<path fill="#FFFFFF" d="M263.602,378.771l2.105-3.576h1.432l-2.9,4.799v3.184H262.9v-3.184l-2.887-4.799h1.469L263.602,378.771z"
				/>
			<path fill="#FFFFFF" d="M272.988,383.177h-0.963l-2.197-5.551v5.551h-1.287v-7.982h1.547l2.432,6.137l2.404-6.137h1.51v7.982
				h-1.301v-5.551L272.988,383.177z"/>
			<path fill="#FFFFFF" d="M278.525,375.194h5.213v1.197h-3.887v2.105h3.523v1.184h-3.523v2.287h3.887v1.209h-5.213V375.194z"/>
			<path fill="#FFFFFF" d="M291.953,375.194v7.982h-1.039l-4.082-5.811v5.811h-1.301v-7.982h1.275l3.848,5.539v-5.539H291.953z"/>
			<path fill="#FFFFFF" d="M293.553,376.392v-1.197h6.656v1.197h-2.652v6.785h-1.352v-6.785H293.553z"/>
			<path fill="#FFFFFF" d="M307.451,375.194h1.299l3.068,7.982h-1.377l-0.82-2.209h-3.055l-0.818,2.209h-1.365L307.451,375.194z
				 M308.088,376.847l-1.092,2.951h2.184L308.088,376.847z"/>
			<path fill="#FFFFFF" d="M315.602,379.94h-0.963v3.236h-1.352v-7.982h3.08c0.842,0,1.504,0.207,1.99,0.619
				c0.484,0.41,0.727,1.002,0.727,1.773c0,0.658-0.18,1.182-0.539,1.566c-0.359,0.387-0.859,0.631-1.502,0.734l2.314,3.289h-1.533
				L315.602,379.94z M314.639,376.366v2.443h1.703c0.441,0,0.787-0.111,1.033-0.332c0.248-0.221,0.371-0.518,0.371-0.891
				s-0.123-0.67-0.371-0.891c-0.246-0.221-0.592-0.33-1.033-0.33H314.639z"/>
			<path fill="#FFFFFF" d="M320.332,376.392v-1.197h6.656v1.197h-2.652v6.785h-1.352v-6.785H320.332z"/>
			<path fill="#FFFFFF" d="M329.939,375.194v7.982h-1.352v-7.982H329.939z"/>
			<path fill="#FFFFFF" d="M333.385,383.177h-1.352v-7.982h5.096v1.197h-3.744v2.365h3.498v1.184h-3.498V383.177z"/>
			<path fill="#FFFFFF" d="M341.236,375.194h1.301l3.068,7.982h-1.379l-0.818-2.209h-3.055l-0.82,2.209h-1.365L341.236,375.194z
				 M341.873,376.847l-1.092,2.951h2.184L341.873,376.847z"/>
			<path fill="#FFFFFF" d="M347.678,382.157c-0.688-0.768-1.033-1.758-1.033-2.971s0.346-2.203,1.033-2.971
				c0.689-0.768,1.555-1.15,2.594-1.15c0.885,0,1.607,0.236,2.172,0.709c0.562,0.473,0.922,1.115,1.078,1.93h-1.326
				c-0.346-0.945-0.988-1.416-1.924-1.416c-0.693,0-1.244,0.27-1.65,0.812c-0.408,0.541-0.611,1.236-0.611,2.086
				s0.203,1.545,0.611,2.086c0.406,0.543,0.957,0.812,1.65,0.812c0.936,0,1.578-0.477,1.924-1.43h1.326
				c-0.156,0.824-0.516,1.471-1.078,1.943c-0.564,0.473-1.287,0.709-2.172,0.709C349.232,383.308,348.367,382.923,347.678,382.157z"
				/>
			<path fill="#FFFFFF" d="M354.666,376.392v-1.197h6.656v1.197h-2.652v6.785h-1.352v-6.785H354.666z"/>
			<path fill="#FFFFFF" d="M362.297,380.968h1.377c0.252,0.797,0.854,1.195,1.809,1.195c0.467,0,0.842-0.105,1.123-0.318
				s0.424-0.5,0.424-0.865c0-0.285-0.09-0.514-0.268-0.682c-0.178-0.17-0.475-0.301-0.891-0.396l-1.352-0.324
				c-1.326-0.312-1.988-1.027-1.988-2.146c0-0.684,0.252-1.25,0.76-1.695c0.508-0.447,1.158-0.67,1.957-0.67
				c0.84,0,1.518,0.197,2.033,0.592s0.848,0.934,0.996,1.617h-1.354c-0.25-0.709-0.805-1.064-1.664-1.064
				c-0.432,0-0.781,0.102-1.045,0.305c-0.266,0.203-0.396,0.471-0.396,0.799c0,0.529,0.35,0.877,1.053,1.041l1.391,0.324
				c0.65,0.148,1.156,0.408,1.521,0.781c0.363,0.371,0.545,0.85,0.545,1.43c0,0.736-0.264,1.324-0.793,1.762
				c-0.527,0.438-1.213,0.656-2.053,0.656c-0.85,0-1.559-0.207-2.127-0.617C362.789,382.278,362.436,381.704,362.297,380.968z"/>
		</g>
	</g>
</g>
<g>
	<rect x="28.722" y="173.342" fill="#FFFFFF" width="98.852" height="42.351"/>
	<g>
		<g>
			<path fill="#696C71" d="M57.537,190.852H56.25l-3.017-7.982h1.417l2.263,6.227l2.262-6.227h1.378L57.537,190.852z"/>
			<path fill="#696C71" d="M62.021,182.87h5.213v1.196h-3.887v2.106h3.523v1.183h-3.523v2.288h3.887v1.209h-5.213V182.87z"/>
			<path fill="#696C71" d="M71.342,187.615H70.38v3.237h-1.353v-7.982h3.081c0.841,0,1.504,0.206,1.989,0.618
				s0.728,1.003,0.728,1.774c0,0.659-0.18,1.181-0.539,1.566s-0.86,0.63-1.502,0.734l2.314,3.289h-1.534L71.342,187.615z
				 M70.38,184.04v2.444h1.703c0.441,0,0.786-0.11,1.033-0.332c0.247-0.221,0.37-0.518,0.37-0.89s-0.123-0.669-0.37-0.891
				s-0.592-0.332-1.033-0.332H70.38z"/>
			<path fill="#696C71" d="M75.944,188.642h1.378c0.252,0.797,0.854,1.196,1.808,1.196c0.468,0,0.843-0.106,1.124-0.318
				s0.423-0.5,0.423-0.864c0-0.286-0.089-0.514-0.267-0.683s-0.475-0.301-0.891-0.396l-1.352-0.325
				c-1.326-0.312-1.989-1.027-1.989-2.145c0-0.685,0.253-1.25,0.761-1.696c0.507-0.446,1.158-0.669,1.956-0.669
				c0.841,0,1.519,0.197,2.034,0.591c0.516,0.395,0.848,0.934,0.995,1.619h-1.353c-0.251-0.71-0.806-1.066-1.664-1.066
				c-0.433,0-0.782,0.102-1.046,0.305c-0.265,0.204-0.396,0.47-0.396,0.8c0,0.528,0.351,0.875,1.053,1.04l1.391,0.325
				c0.65,0.147,1.157,0.408,1.521,0.78s0.546,0.849,0.546,1.43c0,0.737-0.265,1.324-0.793,1.762s-1.214,0.656-2.054,0.656
				c-0.85,0-1.559-0.206-2.126-0.617S76.083,189.379,75.944,188.642z"/>
			<path fill="#696C71" d="M84.993,182.87v7.982H83.64v-7.982H84.993z"/>
			<path fill="#696C71" d="M92.987,183.903c0.693,0.776,1.04,1.762,1.04,2.958c0,1.196-0.347,2.182-1.04,2.958
				c-0.693,0.776-1.577,1.164-2.652,1.164c-1.074,0-1.956-0.388-2.646-1.164c-0.688-0.775-1.033-1.761-1.033-2.958
				c0-1.196,0.345-2.182,1.033-2.958c0.689-0.775,1.571-1.163,2.646-1.163C91.41,182.74,92.293,183.128,92.987,183.903z
				 M92.018,188.954c0.429-0.546,0.644-1.244,0.644-2.093c0-0.849-0.215-1.547-0.644-2.093s-0.99-0.819-1.684-0.819
				s-1.252,0.271-1.677,0.812s-0.637,1.241-0.637,2.099c0,0.858,0.212,1.558,0.637,2.1c0.425,0.542,0.983,0.812,1.677,0.812
				S91.589,189.5,92.018,188.954z"/>
			<path fill="#696C71" d="M102.113,182.87v7.982h-1.04l-4.082-5.811v5.811h-1.3v-7.982h1.274l3.848,5.538v-5.538H102.113z"/>
			<path fill="#696C71" d="M51.634,204.832c-0.688-0.767-1.033-1.757-1.033-2.971c0-1.213,0.345-2.203,1.033-2.97
				c0.689-0.767,1.554-1.15,2.594-1.15c0.884,0,1.607,0.236,2.171,0.708c0.563,0.472,0.923,1.116,1.079,1.93h-1.326
				c-0.347-0.944-0.988-1.417-1.924-1.417c-0.693,0-1.244,0.271-1.651,0.812c-0.407,0.542-0.61,1.237-0.61,2.086
				c0,0.85,0.203,1.545,0.61,2.087s0.958,0.812,1.651,0.812c0.936,0,1.577-0.477,1.924-1.43h1.326
				c-0.156,0.823-0.516,1.471-1.079,1.943c-0.563,0.473-1.287,0.708-2.171,0.708C53.188,205.982,52.324,205.599,51.634,204.832z"/>
			<path fill="#696C71" d="M65.018,198.903c0.693,0.776,1.04,1.762,1.04,2.958c0,1.196-0.347,2.182-1.04,2.958
				c-0.693,0.776-1.577,1.164-2.652,1.164c-1.074,0-1.956-0.388-2.646-1.164c-0.688-0.775-1.033-1.761-1.033-2.958
				c0-1.196,0.345-2.182,1.033-2.958c0.689-0.775,1.571-1.163,2.646-1.163C63.441,197.74,64.325,198.128,65.018,198.903z
				 M64.049,203.954c0.429-0.546,0.644-1.244,0.644-2.093c0-0.849-0.215-1.547-0.644-2.093s-0.99-0.819-1.684-0.819
				s-1.252,0.271-1.677,0.812s-0.637,1.241-0.637,2.099c0,0.858,0.212,1.558,0.637,2.1c0.425,0.542,0.983,0.812,1.677,0.812
				S63.621,204.5,64.049,203.954z"/>
			<path fill="#696C71" d="M74.143,197.87v7.982h-1.04l-4.082-5.811v5.811h-1.3v-7.982h1.274l3.848,5.538v-5.538H74.143z"/>
			<path fill="#696C71" d="M75.743,199.066v-1.196h6.656v1.196h-2.652v6.786h-1.352v-6.786H75.743z"/>
			<path fill="#696C71" d="M86.312,202.615H85.35v3.237h-1.353v-7.982h3.081c0.841,0,1.504,0.206,1.989,0.618
				s0.728,1.003,0.728,1.774c0,0.659-0.18,1.181-0.539,1.566s-0.86,0.63-1.502,0.734l2.314,3.289h-1.534L86.312,202.615z
				 M85.35,199.04v2.444h1.703c0.441,0,0.786-0.11,1.033-0.332c0.247-0.221,0.37-0.518,0.37-0.89s-0.123-0.669-0.37-0.891
				s-0.592-0.332-1.033-0.332H85.35z"/>
			<path fill="#696C71" d="M97.44,198.903c0.693,0.776,1.04,1.762,1.04,2.958c0,1.196-0.347,2.182-1.04,2.958
				c-0.693,0.776-1.577,1.164-2.652,1.164c-1.074,0-1.956-0.388-2.646-1.164c-0.688-0.775-1.033-1.761-1.033-2.958
				c0-1.196,0.345-2.182,1.033-2.958c0.689-0.775,1.571-1.163,2.646-1.163C95.863,197.74,96.747,198.128,97.44,198.903z
				 M96.471,203.954c0.429-0.546,0.644-1.244,0.644-2.093c0-0.849-0.215-1.547-0.644-2.093s-0.99-0.819-1.684-0.819
				s-1.252,0.271-1.677,0.812s-0.637,1.241-0.637,2.099c0,0.858,0.212,1.558,0.637,2.1c0.425,0.542,0.983,0.812,1.677,0.812
				S96.042,204.5,96.471,203.954z"/>
			<path fill="#696C71" d="M100.143,205.852v-7.982h1.353v6.773h3.835v1.209H100.143z"/>
		</g>
	</g>
</g>
<g>
	<rect x="28.817" y="261.342" fill="#FFFFFF" width="98.66" height="29.229"/>
	<g>
		<path fill="#595B5F" d="M63.23,278.771c-0.688-0.767-1.033-1.757-1.033-2.971c0-1.213,0.345-2.203,1.033-2.971
			c0.689-0.767,1.554-1.15,2.594-1.15c0.884,0,1.607,0.236,2.171,0.709s0.923,1.115,1.079,1.93h-1.326
			c-0.347-0.943-0.988-1.416-1.924-1.416c-0.693,0-1.244,0.271-1.651,0.812c-0.407,0.541-0.61,1.236-0.61,2.086
			s0.203,1.545,0.61,2.087s0.958,0.812,1.651,0.812c0.936,0,1.577-0.477,1.924-1.431h1.326c-0.156,0.824-0.516,1.472-1.079,1.944
			c-0.563,0.472-1.287,0.708-2.171,0.708C64.784,279.921,63.919,279.537,63.23,278.771z"/>
		<path fill="#595B5F" d="M72.064,271.81v7.981h-1.353v-7.981H72.064z"/>
		<path fill="#595B5F" d="M73.337,280.883l3.224-9.542h1.287l-3.225,9.542H73.337z"/>
		<path fill="#595B5F" d="M79.727,278.771c-0.688-0.767-1.033-1.757-1.033-2.971c0-1.213,0.345-2.203,1.033-2.971
			c0.689-0.767,1.554-1.15,2.594-1.15c0.884,0,1.607,0.236,2.171,0.709s0.923,1.115,1.079,1.93h-1.326
			c-0.347-0.943-0.988-1.416-1.924-1.416c-0.693,0-1.244,0.271-1.651,0.812c-0.407,0.541-0.61,1.236-0.61,2.086
			s0.203,1.545,0.61,2.087s0.958,0.812,1.651,0.812c0.936,0,1.577-0.477,1.924-1.431h1.326c-0.156,0.824-0.516,1.472-1.079,1.944
			c-0.563,0.472-1.287,0.708-2.171,0.708C81.281,279.921,80.417,279.537,79.727,278.771z"/>
		<path fill="#595B5F" d="M87.208,279.791v-7.981h2.691c1.179,0,2.119,0.361,2.821,1.085c0.701,0.724,1.053,1.692,1.053,2.905
			c0,1.214-0.352,2.183-1.053,2.905c-0.702,0.725-1.643,1.086-2.821,1.086H87.208z M88.56,278.582h1.287
			c0.823,0,1.458-0.247,1.904-0.741s0.669-1.174,0.669-2.041c0-0.866-0.223-1.549-0.669-2.047s-1.081-0.748-1.904-0.748H88.56
			V278.582z"/>
	</g>
</g>
<g>
	<rect x="28.821" y="413.654" fill="#FFFFFF" width="98.652" height="43.654"/>
	<g>
		<g>
			<path fill="#696C71" d="M48.208,428.933h-0.962v3.238h-1.353v-7.982h3.081c0.841,0,1.504,0.205,1.989,0.617
				s0.728,1.004,0.728,1.775c0,0.658-0.18,1.18-0.539,1.566c-0.359,0.385-0.86,0.631-1.502,0.734l2.314,3.289h-1.534L48.208,428.933
				z M47.247,425.358v2.443h1.703c0.441,0,0.786-0.109,1.033-0.33c0.247-0.223,0.37-0.518,0.37-0.891s-0.123-0.67-0.37-0.891
				s-0.592-0.332-1.033-0.332H47.247z"/>
			<path fill="#696C71" d="M53.434,424.188h5.213v1.195H54.76v2.107h3.523v1.182H54.76v2.289h3.887v1.209h-5.213V424.188z"/>
			<path fill="#696C71" d="M65.875,429.206h-1.742v-1.156h3.029v0.623c0,1.092-0.319,1.971-0.956,2.633
				c-0.637,0.664-1.449,0.994-2.438,0.994c-1.083,0-1.98-0.383-2.69-1.15c-0.711-0.766-1.066-1.756-1.066-2.971
				c0-1.213,0.353-2.203,1.06-2.971c0.706-0.766,1.588-1.15,2.646-1.15c0.893,0,1.623,0.234,2.19,0.703
				c0.567,0.467,0.93,1.109,1.085,1.924h-1.352c-0.174-0.459-0.409-0.809-0.708-1.047c-0.3-0.238-0.705-0.357-1.216-0.357
				c-0.702,0-1.268,0.271-1.696,0.812c-0.43,0.541-0.644,1.238-0.644,2.086c0,0.859,0.216,1.561,0.649,2.107
				c0.434,0.545,1.015,0.818,1.742,0.818c0.589,0,1.066-0.172,1.43-0.514C65.563,430.249,65.789,429.788,65.875,429.206z"/>
			<path fill="#696C71" d="M70.178,424.188v7.982h-1.353v-7.982H70.178z"/>
			<path fill="#696C71" d="M71.647,429.96h1.378c0.252,0.799,0.854,1.197,1.808,1.197c0.468,0,0.843-0.107,1.124-0.318
				c0.281-0.213,0.423-0.502,0.423-0.865c0-0.287-0.089-0.514-0.267-0.684c-0.178-0.168-0.475-0.301-0.891-0.396l-1.352-0.324
				c-1.326-0.312-1.989-1.027-1.989-2.145c0-0.686,0.253-1.25,0.761-1.697c0.507-0.445,1.158-0.67,1.956-0.67
				c0.841,0,1.519,0.197,2.034,0.592s0.848,0.934,0.995,1.619h-1.353c-0.251-0.711-0.806-1.066-1.664-1.066
				c-0.433,0-0.782,0.102-1.046,0.307c-0.265,0.203-0.396,0.469-0.396,0.799c0,0.529,0.351,0.875,1.053,1.039l1.391,0.326
				c0.65,0.146,1.157,0.406,1.521,0.779s0.546,0.85,0.546,1.43c0,0.738-0.265,1.324-0.793,1.762s-1.214,0.656-2.054,0.656
				c-0.85,0-1.559-0.205-2.126-0.617S71.786,430.696,71.647,429.96z"/>
			<path fill="#696C71" d="M78.848,425.384v-1.195h6.656v1.195h-2.652v6.787H81.5v-6.787H78.848z"/>
			<path fill="#696C71" d="M89.417,428.933h-0.962v3.238h-1.353v-7.982h3.081c0.841,0,1.504,0.205,1.989,0.617
				s0.728,1.004,0.728,1.775c0,0.658-0.18,1.18-0.539,1.566c-0.359,0.385-0.86,0.631-1.502,0.734l2.314,3.289H91.64L89.417,428.933z
				 M88.456,425.358v2.443h1.703c0.441,0,0.786-0.109,1.033-0.33c0.247-0.223,0.37-0.518,0.37-0.891s-0.123-0.67-0.37-0.891
				s-0.592-0.332-1.033-0.332H88.456z"/>
			<path fill="#696C71" d="M95.996,424.188v7.982h-1.353v-7.982H95.996z"/>
			<path fill="#696C71" d="M98.088,424.188h5.213v1.195h-3.887v2.107h3.523v1.182h-3.523v2.289h3.887v1.209h-5.213V424.188z"/>
			<path fill="#696C71" d="M104.471,429.96h1.378c0.252,0.799,0.854,1.197,1.808,1.197c0.468,0,0.843-0.107,1.124-0.318
				c0.281-0.213,0.423-0.502,0.423-0.865c0-0.287-0.089-0.514-0.267-0.684c-0.178-0.168-0.475-0.301-0.891-0.396l-1.352-0.324
				c-1.326-0.312-1.989-1.027-1.989-2.145c0-0.686,0.253-1.25,0.761-1.697c0.507-0.445,1.158-0.67,1.956-0.67
				c0.841,0,1.519,0.197,2.034,0.592s0.848,0.934,0.995,1.619h-1.353c-0.251-0.711-0.806-1.066-1.664-1.066
				c-0.433,0-0.782,0.102-1.046,0.307c-0.265,0.203-0.396,0.469-0.396,0.799c0,0.529,0.351,0.875,1.053,1.039l1.391,0.326
				c0.65,0.146,1.157,0.406,1.521,0.779s0.546,0.85,0.546,1.43c0,0.738-0.265,1.324-0.793,1.762s-1.214,0.656-2.054,0.656
				c-0.85,0-1.559-0.205-2.126-0.617S104.61,430.696,104.471,429.96z"/>
		</g>
	</g>
	<g>
		<g>
			<g>
				<g>
					<g>
						<path fill="#464647" d="M44.798,446.947h-3.42v-7.281h3.234c1.838,0,2.621,0.787,2.621,1.979c0,0.822-0.553,1.396-1.34,1.525
							c0.879,0.16,1.561,0.738,1.561,1.777C47.454,446.209,46.495,446.947,44.798,446.947z M42.784,442.697h1.732
							c0.873,0,1.24-0.381,1.24-0.924c0-0.547-0.367-0.938-1.24-0.938h-1.732V442.697z M42.784,443.793v1.988h1.848
							c0.904,0,1.342-0.381,1.342-0.98c0-0.615-0.438-1.008-1.342-1.008H42.784z"/>
						<path fill="#464647" d="M52.634,445.715c0,0.264,0.139,0.389,0.357,0.389c0.141,0,0.281-0.031,0.432-0.102v0.738
							c-0.221,0.172-0.502,0.322-0.959,0.322c-0.582,0-1.02-0.367-1.125-0.98c-0.289,0.6-0.934,0.994-1.777,0.994
							c-0.973,0-1.621-0.521-1.621-1.4c0-0.969,0.764-1.375,1.943-1.592l1.396-0.268v-0.148c0-0.568-0.297-0.914-0.885-0.914
							c-0.582,0-0.893,0.346-1.01,0.844l-1.26-0.117c0.176-1.039,0.973-1.766,2.324-1.766c1.316,0,2.184,0.621,2.184,1.963V445.715z
							 M51.28,444.57l-0.955,0.193c-0.637,0.129-1.029,0.289-1.029,0.762c0,0.361,0.256,0.627,0.703,0.627
							c0.729,0,1.281-0.545,1.281-1.41V444.57z"/>
						<path fill="#464647" d="M63.999,445.25c-0.256,1.154-1.16,1.838-2.465,1.838c-1.568,0-2.703-1.006-2.703-2.611
							c0-1.607,1.145-2.762,2.668-2.762c1.666,0,2.52,1.154,2.52,2.541v0.439h-3.826c0.049,0.83,0.639,1.342,1.387,1.342
							c0.684,0,1.1-0.301,1.295-0.902L63.999,445.25z M62.667,443.969c-0.023-0.658-0.404-1.24-1.18-1.24
							c-0.762,0-1.189,0.557-1.27,1.24H62.667z"/>
						<path fill="#464647" d="M68.345,443.215c-0.27-0.15-0.496-0.221-0.832-0.221c-0.717,0-1.201,0.508-1.201,1.436v2.518h-1.391
							v-5.094h1.391v0.971c0.182-0.578,0.715-1.109,1.422-1.109c0.312,0,0.566,0.078,0.713,0.205L68.345,443.215z"/>
						<path fill="#464647" d="M69.032,439.666h1.42v1.354h-1.42V439.666z M70.442,441.854v5.094h-1.387v-5.094H70.442z"/>
						<path fill="#464647" d="M72.972,446.947h-1.389v-5.094h1.389v0.83c0.254-0.578,0.9-0.969,1.66-0.969
							c1.369,0,1.863,0.922,1.863,2.059v3.174h-1.387v-2.898c0-0.787-0.311-1.238-0.99-1.238c-0.707,0-1.146,0.555-1.146,1.41
							V446.947z"/>
						<path fill="#464647" d="M82.009,445.715c0,0.264,0.139,0.389,0.355,0.389c0.141,0,0.281-0.031,0.428-0.102v0.738
							c-0.217,0.172-0.494,0.322-0.959,0.322c-0.574,0-1.016-0.367-1.119-0.98c-0.289,0.6-0.936,0.994-1.779,0.994
							c-0.973,0-1.617-0.521-1.617-1.4c0-0.969,0.76-1.375,1.939-1.592l1.4-0.268v-0.148c0-0.568-0.303-0.914-0.893-0.914
							c-0.574,0-0.891,0.346-1.006,0.844l-1.26-0.117c0.176-1.039,0.973-1.766,2.324-1.766c1.316,0,2.186,0.621,2.186,1.963V445.715
							z M80.657,444.57l-0.959,0.193c-0.637,0.129-1.029,0.289-1.029,0.762c0,0.361,0.252,0.627,0.703,0.627
							c0.729,0,1.285-0.545,1.285-1.41V444.57z"/>
					</g>
					<g>
						<polygon fill="#464647" points="54.024,441.561 54.024,439.459 55.786,439.459 55.786,442.234 						"/>
						<polygon fill="#464647" points="54.024,442.221 55.229,442.68 54.024,443.143 						"/>
						<polygon fill="#464647" points="55.786,443.125 55.786,444.143 54.929,446.947 54.024,446.947 54.024,443.797 						"/>
					</g>
					<g>
						<polygon fill="#464647" points="58.155,441.561 58.155,439.459 56.394,439.459 56.394,442.234 						"/>
						<polygon fill="#464647" points="58.155,442.221 56.946,442.68 58.155,443.143 						"/>
						<polygon fill="#464647" points="56.394,443.125 56.394,444.143 57.253,446.947 58.155,446.947 58.155,443.797 						"/>
					</g>
				</g>
			</g>
			<g>
				<path fill="#00A9A2" d="M94.231,445.211c-0.244,1.162-1.092,1.879-2.338,1.879c-1.479,0-2.582-1.047-2.582-2.621
					c0-1.607,1.096-2.76,2.537-2.76c1.596,0,2.395,1.152,2.395,2.539v0.328h-4.191c0.047,1.129,0.834,1.926,1.842,1.926
					c0.941,0,1.516-0.469,1.73-1.375L94.231,445.211z M93.483,444.068c-0.025-0.938-0.553-1.795-1.635-1.795
					c-1.008,0-1.666,0.844-1.785,1.795H93.483z"/>
				<path fill="#00A9A2" d="M96.147,446.947h-0.715v-5.098h0.715v0.939c0.248-0.619,0.951-1.08,1.715-1.08
					c1.316,0,1.869,0.859,1.869,2.08v3.158h-0.717v-3.182c0-0.904-0.471-1.492-1.342-1.492c-0.809,0-1.525,0.635-1.525,1.621
					V446.947z"/>
				<path fill="#00A9A2" d="M101.372,442.379h-0.783v-0.354l0.305-0.057c0.469-0.094,0.564-0.318,0.668-0.809l0.154-0.73h0.361v1.42
					h1.482v0.529h-1.482v3.455c0,0.455,0.189,0.68,0.66,0.68c0.352,0,0.703-0.176,0.998-0.352v0.506
					c-0.363,0.279-0.729,0.422-1.246,0.422c-0.682,0-1.117-0.342-1.117-1.27V442.379z"/>
				<path fill="#00A9A2" d="M107.565,442.568c-0.295-0.154-0.471-0.199-0.773-0.199c-0.742,0-1.342,0.762-1.342,1.785v2.793h-0.717
					v-5.098h0.717v1.072c0.201-0.588,0.715-1.213,1.467-1.213c0.318,0,0.541,0.07,0.729,0.236L107.565,442.568z"/>
				<path fill="#00A9A2" d="M112.392,446.092c0,0.271,0.166,0.4,0.424,0.4c0.117,0,0.316-0.049,0.455-0.129v0.385
					c-0.15,0.178-0.314,0.305-0.668,0.305c-0.504,0-0.869-0.432-0.893-1.08c-0.27,0.6-1.021,1.117-1.891,1.117
					c-0.951,0-1.586-0.527-1.586-1.41c0-0.963,0.848-1.352,2.115-1.611l1.361-0.279v-0.258c0-0.775-0.455-1.258-1.258-1.258
					c-0.822,0-1.279,0.482-1.455,1.139l-0.609-0.117c0.199-0.916,0.949-1.586,2.055-1.586c1.268,0,1.949,0.67,1.949,1.926V446.092z
					 M111.71,444.318l-1.246,0.27c-0.928,0.199-1.502,0.389-1.502,1.068c0,0.482,0.318,0.881,0.986,0.881
					c0.998,0,1.762-0.762,1.762-1.904V444.318z"/>
				<path fill="#00A9A2" d="M114.917,439.547v7.4h-0.719v-7.4H114.917z"/>
			</g>
		</g>
		<path fill="#00A9A2" d="M87.767,444.836c-0.088,0.953-0.682,1.656-1.732,1.656c-1.068,0-1.795-0.836-1.795-2.094
			c0-1.256,0.727-2.09,1.795-2.09c1.043,0,1.639,0.672,1.732,1.611l0.654-0.049c-0.119-1.201-0.914-2.162-2.363-2.162
			c-1.516,0-2.572,1.068-2.572,2.689c0,1.623,1.057,2.691,2.572,2.691c1.461,0,2.256-0.973,2.367-2.184L87.767,444.836z"/>
	</g>
</g>
<g>
	<rect x="28.835" y="65.494" fill="#FFFFFF" width="98.625" height="51.953"/>
	<g>
		<path fill="#595B5F" d="M68.092,74.66v7.982H66.74V74.66H68.092z"/>
		<path fill="#595B5F" d="M70.185,82.642V74.66h2.691c1.179,0,2.119,0.362,2.821,1.085c0.701,0.724,1.053,1.692,1.053,2.905
			c0,1.214-0.352,2.182-1.053,2.906c-0.702,0.724-1.643,1.085-2.821,1.085H70.185z M71.538,81.433h1.287
			c0.823,0,1.458-0.247,1.904-0.741c0.446-0.494,0.669-1.174,0.669-2.041c0-0.866-0.223-1.549-0.669-2.047
			c-0.446-0.498-1.081-0.748-1.904-0.748h-1.287V81.433z"/>
		<path fill="#595B5F" d="M78.414,74.66h5.213v1.196H79.74v2.106h3.523v1.183H79.74v2.288h3.887v1.209h-5.213V74.66z"/>
		<path fill="#595B5F" d="M84.94,80.978h1.325c0.147,0.485,0.529,0.728,1.145,0.728c0.303,0,0.544-0.059,0.722-0.175
			c0.178-0.117,0.267-0.288,0.267-0.514c0-0.156-0.053-0.279-0.156-0.371c-0.104-0.091-0.277-0.167-0.521-0.228l-1.195-0.286
			c-0.954-0.226-1.431-0.754-1.431-1.586c0-0.52,0.206-0.951,0.618-1.293c0.411-0.342,0.934-0.513,1.566-0.513
			c0.658,0,1.183,0.149,1.573,0.448c0.39,0.299,0.637,0.717,0.74,1.254H88.32c-0.13-0.424-0.481-0.637-1.053-0.637
			c-0.252,0-0.469,0.057-0.65,0.169c-0.182,0.113-0.273,0.277-0.273,0.494c0,0.251,0.199,0.429,0.599,0.533l1.222,0.286
			c0.988,0.234,1.482,0.78,1.482,1.638c0,0.563-0.211,1.012-0.631,1.345c-0.421,0.334-0.96,0.5-1.618,0.5
			c-0.677,0-1.233-0.16-1.671-0.481C85.289,81.97,85.026,81.532,84.94,80.978z"/>
	</g>
	<g>
		<g>
			<g>
				<path fill-rule="evenodd" clip-rule="evenodd" fill="#B3B3B3" d="M73.915,97.501c0,2.186-0.004,4.374,0,6.559
					c0,0.103-0.029,0.15-0.127,0.188c-1.309,0.529-2.615,1.061-3.92,1.596c-0.098,0.04-0.154,0.027-0.227-0.046
					c-2.158-2.159-4.316-4.316-6.473-6.473c-0.098-0.095-0.098-0.095-0.201-0.014c-1.18,0.917-2.352,1.835-3.531,2.752
					c-0.182,0.143-0.367,0.282-0.551,0.428c-0.043,0.037-0.078,0.037-0.135,0.01c-0.5-0.252-1.004-0.503-1.51-0.754
					c-0.059-0.028-0.08-0.062-0.08-0.13c0-2.734,0-5.466,0-8.2c0-0.067,0.018-0.103,0.08-0.133c0.5-0.249,1.006-0.5,1.506-0.751
					c0.057-0.028,0.09-0.03,0.145,0.012c0.947,0.751,1.904,1.502,2.855,2.251c0.402,0.316,0.805,0.632,1.205,0.951
					c0.076,0.063,0.119,0.063,0.191-0.008c2.16-2.168,4.326-4.331,6.49-6.498c0.076-0.079,0.137-0.092,0.242-0.052
					c1.305,0.527,2.607,1.047,3.912,1.562c0.104,0.039,0.127,0.09,0.127,0.188C73.911,93.128,73.915,95.314,73.915,97.501z
					 M69.718,100.929c0.008-0.005,0.014-0.01,0.021-0.016c0-2.265,0-4.529,0-6.827c-1.484,1.151-2.951,2.285-4.432,3.432
					C66.788,98.663,68.251,99.794,69.718,100.929z M58.823,100.121c0.043-0.04,0.068-0.061,0.092-0.086
					c0.309-0.322,0.623-0.645,0.936-0.965c0.479-0.495,0.959-0.989,1.441-1.482c0.057-0.058,0.053-0.09-0.004-0.145
					c-0.791-0.792-1.586-1.586-2.381-2.378c-0.021-0.024-0.049-0.039-0.084-0.07C58.823,96.709,58.823,98.402,58.823,100.121z"/>
			</g>
		</g>
		<g>
			<g>
				<path fill-rule="evenodd" clip-rule="evenodd" fill="#B3B3B3" d="M99.134,89.439c0,5.479,0,10.951,0,16.427
					c-5.479,0-10.953,0-16.432,0c0-5.475,0-10.949,0-16.427C88.175,89.439,93.651,89.439,99.134,89.439z M87.427,97.14
					c0-1.478,0-2.946,0-4.418c0.344,0,0.684,0,1.02,0c0-0.446,0-0.889,0-1.328c-1.164,0-2.322,0-3.482,0c0,0.444,0,0.885,0,1.331
					c0.338,0,0.678,0,1.018,0c0,1.475,0,2.942,0,4.417c-0.344,0-0.68,0-1.018,0c0,0.448,0,0.888,0,1.331c1.164,0,2.318,0,3.482,0
					c0-0.444,0-0.886,0-1.333C88.104,97.14,87.771,97.14,87.427,97.14z M89.583,97.532c0.004,0.008,0.008,0.015,0.01,0.018
					c0.324,0.385,0.709,0.685,1.182,0.859c0.535,0.2,1.088,0.212,1.645,0.106c0.801-0.152,1.348-0.609,1.609-1.386
					c0.133-0.398,0.176-0.809,0.176-1.226c0-1.481,0-2.961,0-4.443c0-0.022,0-0.043,0-0.068c-0.518,0-1.027,0-1.543,0
					c0,0.033,0,0.062,0,0.087c0,1.477,0.002,2.951,0,4.425c0,0.153-0.016,0.303-0.035,0.454c-0.029,0.197-0.1,0.381-0.238,0.53
					c-0.217,0.232-0.502,0.275-0.801,0.24c-0.309-0.036-0.561-0.196-0.789-0.401c-0.094-0.086-0.182-0.178-0.277-0.269
					C90.206,96.814,89.896,97.174,89.583,97.532z M84.347,103.606c2.055,0,4.105,0,6.154,0c0-0.342,0-0.681,0-1.017
					c-2.055,0-4.104,0-6.154,0C84.347,102.931,84.347,103.266,84.347,103.606z"/>
			</g>
		</g>
	</g>
</g>
<g>
	
		<line fill="none" stroke="#696C71" stroke-width="0.6273" stroke-miterlimit="10" x1="296.99" y1="438.654" x2="296.99" y2="448.529"/>
	<polygon fill="#696C71" points="294.588,446.416 296.99,450.574 299.395,446.416 	"/>
</g>
<g>
	
		<line fill="none" stroke="#696C71" stroke-width="0.6273" stroke-miterlimit="10" x1="296.99" y1="394.342" x2="296.99" y2="404.219"/>
	<polygon fill="#696C71" points="294.588,402.105 296.99,406.262 299.395,402.105 	"/>
</g>
<g>
	
		<line fill="none" stroke="#696C71" stroke-width="0.6273" stroke-miterlimit="10" x1="296.99" y1="330.342" x2="296.99" y2="340.219"/>
	<polygon fill="#696C71" points="294.588,338.105 296.99,342.264 299.395,338.105 	"/>
</g>
<g>
	
		<line fill="none" stroke="#696C71" stroke-width="0.6273" stroke-miterlimit="10" x1="296.99" y1="286.342" x2="296.99" y2="296.221"/>
	<polygon fill="#696C71" points="294.588,294.105 296.99,298.264 299.395,294.105 	"/>
</g>
<g>
	
		<line fill="none" stroke="#696C71" stroke-width="0.6273" stroke-miterlimit="10" x1="296.99" y1="242.533" x2="296.99" y2="252.408"/>
	<polygon fill="#696C71" points="294.588,250.293 296.99,254.453 299.395,250.293 	"/>
</g>
<g>
	
		<line fill="none" stroke="#696C71" stroke-width="0.6273" stroke-miterlimit="10" x1="296.99" y1="197.936" x2="296.99" y2="207.812"/>
	<polygon fill="#696C71" points="294.588,205.698 296.99,209.856 299.395,205.698 	"/>
</g>
<g>
	
		<line fill="none" stroke="#696C71" stroke-width="0.6273" stroke-miterlimit="10" x1="296.99" y1="154.342" x2="296.99" y2="164.218"/>
	<polygon fill="#696C71" points="294.588,162.104 296.99,166.262 299.395,162.104 	"/>
</g>
<g>
	
		<line fill="none" stroke="#696C71" stroke-width="0.6273" stroke-miterlimit="10" x1="296.99" y1="110.494" x2="296.99" y2="120.371"/>
	<polygon fill="#696C71" points="294.588,118.256 296.99,122.415 299.395,118.256 	"/>
</g>
</svg>
