<?xml version="1.0" encoding="utf-8"?>
<!-- Generator: Adobe Illustrator 16.0.4, SVG Export Plug-In . SVG Version: 6.00 Build 0)  -->
<!DOCTYPE svg PUBLIC "-//W3C//DTD SVG 1.0//EN" "http://www.w3.org/TR/2001/REC-SVG-20010904/DTD/svg10.dtd">
<svg version="1.0" id="Layer_1" xmlns="http://www.w3.org/2000/svg" xmlns:xlink="http://www.w3.org/1999/xlink" x="0px" y="0px"
	 width="452.664px" height="456px" viewBox="0 0 452.664 456" enable-background="new 0 0 452.664 456" xml:space="preserve">
<rect y="56.712" fill="#F5F6F6" width="452.664" height="398.894"/>
<rect x="35.215" y="353.895" fill="#FFFFFF" width="382" height="66.711"/>
<g>
	<path fill="#585A5E" d="M217.006,366.503v6.141h-1.041v-6.141H217.006z"/>
	<path fill="#585A5E" d="M220.945,366.503h1l2.359,6.141h-1.06l-0.63-1.701h-2.35l-0.631,1.701h-1.049L220.945,366.503z
		 M221.436,367.773l-0.84,2.271h1.68L221.436,367.773z"/>
	<path fill="#585A5E" d="M227.755,366.503h1l2.36,6.141h-1.061l-0.63-1.701h-2.351l-0.629,1.701h-1.051L227.755,366.503z
		 M228.244,367.773l-0.84,2.271h1.681L228.244,367.773z"/>
	<path fill="#585A5E" d="M232.155,370.943h1.06c0.193,0.613,0.656,0.92,1.391,0.92c0.359,0,0.648-0.08,0.865-0.244
		c0.216-0.164,0.324-0.385,0.324-0.666c0-0.219-0.068-0.395-0.205-0.523c-0.137-0.131-0.365-0.232-0.685-0.305l-1.04-0.25
		c-1.02-0.24-1.53-0.791-1.53-1.65c0-0.527,0.195-0.963,0.585-1.305c0.391-0.344,0.892-0.516,1.506-0.516
		c0.646,0,1.168,0.152,1.564,0.455s0.651,0.719,0.765,1.244h-1.04c-0.193-0.547-0.619-0.82-1.279-0.82
		c-0.334,0-0.602,0.08-0.806,0.236c-0.203,0.156-0.305,0.361-0.305,0.615c0,0.406,0.271,0.672,0.81,0.799l1.07,0.25
		c0.5,0.113,0.891,0.314,1.17,0.6c0.28,0.287,0.42,0.654,0.42,1.102c0,0.566-0.203,1.018-0.609,1.354
		c-0.407,0.338-0.934,0.506-1.58,0.506c-0.654,0-1.199-0.158-1.635-0.475C232.533,371.953,232.262,371.511,232.155,370.943z"/>
</g>
<line fill="none" stroke="#585A5E" stroke-miterlimit="10" x1="226.332" y1="116.476" x2="226.332" y2="19.809"/>
<path fill="#FFFFFF" d="M194.978,323.913L194.978,323.913C194.964,323.913,194.964,323.913,194.978,323.913h-0.014
	c-0.014,0-0.027,0-0.027-0.014c-0.027,0-0.054-0.014-0.08-0.014c-0.095-0.014-0.176-0.027-0.257-0.027c-0.04,0-0.08,0-0.135-0.014
	h-0.013c-0.283-0.025-0.513-0.053-0.728-0.121c-0.095-0.039-0.122-0.092-0.149-0.148c0-0.012-0.013-0.012-0.013-0.025l-0.175-0.055
	c0.08-0.619,0.054-1.266-0.096-1.9c-0.147-0.631-0.403-1.225-0.754-1.764l0.135-0.121v-0.027c0-0.068,0.014-0.135,0.066-0.203
	c0.164-0.148,0.365-0.268,0.607-0.418c0.041-0.025,0.081-0.039,0.121-0.066c0.081-0.041,0.148-0.08,0.229-0.135
	c0.014-0.014,0.041-0.027,0.068-0.055c0.014-0.012,0.027-0.012,0.027-0.025c0.188-0.162,0.229-0.432,0.094-0.605
	c-0.066-0.096-0.189-0.15-0.311-0.15c-0.107,0-0.201,0.041-0.297,0.109c-0.013,0.012-0.013,0.012-0.025,0.025
	c-0.027,0.016-0.041,0.041-0.067,0.055c-0.067,0.066-0.121,0.121-0.176,0.188c-0.026,0.027-0.054,0.068-0.095,0.096
	c-0.188,0.201-0.363,0.363-0.539,0.484c-0.041,0.027-0.08,0.041-0.12,0.041c-0.027,0-0.054,0-0.081-0.014h-0.027l-0.16,0.107
	c-0.177-0.189-0.365-0.35-0.554-0.512c-0.81-0.633-1.792-1.023-2.815-1.119l-0.014-0.174l-0.027-0.027
	c-0.041-0.041-0.094-0.082-0.107-0.176c-0.014-0.215,0.014-0.457,0.04-0.727v-0.014c0-0.041,0.014-0.096,0.026-0.135
	c0.015-0.082,0.027-0.162,0.041-0.256v-0.082v-0.039c0-0.244-0.188-0.445-0.418-0.445c-0.107,0-0.215,0.055-0.297,0.135
	c-0.08,0.082-0.121,0.189-0.121,0.311v0.027v0.08c0,0.094,0.015,0.174,0.041,0.256c0.014,0.041,0.014,0.082,0.027,0.135v0.014
	c0.025,0.27,0.066,0.512,0.04,0.727c-0.015,0.096-0.067,0.135-0.108,0.176l-0.026,0.027l-0.015,0.174
	c-0.242,0.027-0.483,0.055-0.727,0.109c-1.037,0.229-1.953,0.754-2.667,1.51l-0.135-0.096h-0.027c-0.028,0-0.054,0.014-0.081,0.014
	c-0.04,0-0.081-0.014-0.121-0.039c-0.175-0.123-0.351-0.297-0.539-0.5c-0.027-0.027-0.054-0.068-0.094-0.094
	c-0.055-0.068-0.109-0.121-0.176-0.189c-0.014-0.012-0.04-0.027-0.067-0.053c-0.014-0.014-0.026-0.014-0.026-0.027
	c-0.082-0.068-0.189-0.109-0.297-0.109c-0.121,0-0.242,0.055-0.31,0.148c-0.135,0.176-0.095,0.445,0.095,0.607
	c0.012,0,0.012,0.014,0.026,0.014c0.026,0.014,0.04,0.039,0.067,0.053c0.08,0.055,0.148,0.096,0.229,0.135
	c0.041,0.016,0.081,0.041,0.122,0.068c0.242,0.148,0.444,0.27,0.604,0.418c0.068,0.068,0.068,0.135,0.068,0.201v0.027l0.135,0.121
	c-0.026,0.041-0.054,0.066-0.067,0.107c-0.673,1.066-0.931,2.318-0.755,3.557l-0.176,0.055c0,0.014-0.012,0.014-0.012,0.027
	c-0.027,0.055-0.068,0.107-0.148,0.148c-0.203,0.068-0.444,0.094-0.728,0.121h-0.014c-0.04,0-0.095,0-0.136,0.014
	c-0.08,0-0.16,0.014-0.256,0.025c-0.026,0-0.053,0.014-0.08,0.014c-0.014,0-0.026,0-0.041,0.014c-0.242,0.055-0.39,0.283-0.35,0.498
	c0.04,0.189,0.217,0.311,0.432,0.311c0.039,0,0.067,0,0.107-0.012c0.014,0,0.027,0,0.027-0.016c0.027,0,0.054-0.014,0.08-0.014
	c0.095-0.025,0.162-0.053,0.242-0.092c0.041-0.016,0.08-0.041,0.121-0.055h0.014c0.257-0.096,0.486-0.176,0.701-0.203h0.027
	c0.08,0,0.135,0.041,0.176,0.068c0.012,0,0.012,0.012,0.026,0.012l0.188-0.025c0.324,0.998,0.943,1.885,1.765,2.533
	c0.188,0.146,0.377,0.27,0.579,0.391l-0.08,0.174c0,0.014,0.013,0.014,0.013,0.027c0.027,0.055,0.054,0.123,0.027,0.215
	c-0.081,0.203-0.202,0.406-0.351,0.635v0.014c-0.026,0.039-0.054,0.066-0.08,0.107c-0.055,0.068-0.095,0.135-0.148,0.215
	c-0.014,0.016-0.027,0.041-0.041,0.068c0,0.014-0.014,0.025-0.014,0.025c-0.107,0.23-0.026,0.486,0.176,0.58
	c0.054,0.027,0.107,0.041,0.162,0.041c0.16,0,0.322-0.107,0.402-0.256c0-0.014,0.014-0.027,0.014-0.027
	c0.015-0.027,0.027-0.055,0.041-0.068c0.041-0.092,0.055-0.16,0.08-0.242c0.015-0.039,0.029-0.08,0.041-0.121
	c0.095-0.27,0.162-0.484,0.283-0.674c0.055-0.08,0.123-0.094,0.176-0.121c0.014,0,0.014,0,0.026-0.014l0.095-0.174
	c0.592,0.229,1.239,0.35,1.887,0.35c0.391,0,0.795-0.041,1.172-0.135c0.242-0.055,0.472-0.121,0.699-0.203l0.082,0.148
	c0.014,0,0.014,0,0.027,0.014c0.067,0.014,0.121,0.041,0.174,0.123c0.109,0.188,0.189,0.416,0.285,0.672v0.014
	c0.012,0.041,0.025,0.082,0.039,0.121c0.027,0.082,0.041,0.162,0.081,0.242c0.013,0.029,0.027,0.041,0.04,0.068
	c0,0.014,0.014,0.027,0.014,0.027c0.08,0.16,0.244,0.256,0.404,0.256c0.053,0,0.108-0.014,0.162-0.041
	c0.094-0.055,0.176-0.135,0.202-0.242s0.026-0.229-0.026-0.338c0-0.012-0.015-0.012-0.015-0.025
	c-0.015-0.027-0.026-0.053-0.04-0.068c-0.041-0.08-0.096-0.146-0.148-0.215c-0.026-0.041-0.054-0.068-0.082-0.107v-0.014
	c-0.146-0.229-0.281-0.432-0.349-0.635c-0.028-0.092,0-0.146,0.013-0.215c0-0.014,0.014-0.014,0.014-0.027l-0.067-0.16
	c0.714-0.418,1.32-1.012,1.778-1.738c0.242-0.379,0.432-0.795,0.566-1.213l0.162,0.027c0.012,0,0.012-0.014,0.026-0.014
	c0.054-0.027,0.095-0.068,0.175-0.068h0.027c0.216,0.027,0.443,0.109,0.699,0.203h0.015c0.041,0.014,0.081,0.039,0.121,0.053
	c0.081,0.041,0.147,0.068,0.243,0.096c0.027,0,0.054,0.012,0.08,0.012c0.014,0,0.027,0,0.041,0.014
	c0.039,0.016,0.067,0.016,0.107,0.016c0.202,0,0.378-0.137,0.432-0.311C195.368,324.196,195.22,323.979,194.978,323.913
	 M188.739,323.252l-0.593,0.283l-0.593-0.283l-0.148-0.633l0.404-0.514h0.66l0.404,0.514L188.739,323.252z M192.256,321.85
	c0.106,0.459,0.135,0.918,0.094,1.363l-2.062-0.594c-0.188-0.055-0.297-0.242-0.256-0.432c0.014-0.053,0.041-0.107,0.08-0.148
	l1.631-1.469C191.973,320.948,192.147,321.379,192.256,321.85 M191.097,319.762l-1.766,1.254c-0.147,0.094-0.35,0.066-0.471-0.082
	c-0.041-0.039-0.054-0.092-0.068-0.148l-0.12-2.195C189.602,318.698,190.45,319.116,191.097,319.762 M187.189,318.657
	c0.148-0.025,0.283-0.053,0.431-0.08l-0.121,2.156c-0.012,0.189-0.161,0.35-0.363,0.35c-0.055,0-0.121-0.014-0.162-0.039
	l-1.792-1.281C185.735,319.211,186.422,318.833,187.189,318.657 M184.534,320.571l1.604,1.428c0.147,0.121,0.161,0.352,0.04,0.5
	c-0.04,0.053-0.094,0.094-0.161,0.107l-2.089,0.607C183.848,322.297,184.05,321.366,184.534,320.571 M184.172,324.223l2.142-0.365
	c0.176-0.014,0.338,0.109,0.378,0.283c0.013,0.082,0.013,0.148-0.014,0.217l-0.822,1.98
	C185.102,325.852,184.495,325.112,184.172,324.223 M189.089,326.903c-0.311,0.068-0.619,0.109-0.942,0.109
	c-0.472,0-0.93-0.082-1.362-0.215l1.065-1.928c0.106-0.121,0.283-0.176,0.431-0.096c0.068,0.041,0.123,0.096,0.162,0.15l1.038,1.873
	C189.358,326.836,189.224,326.864,189.089,326.903 M191.717,325.03c-0.337,0.539-0.781,0.973-1.294,1.309l-0.85-2.035
	c-0.039-0.162,0.028-0.336,0.189-0.418c0.054-0.027,0.121-0.041,0.188-0.041l2.157,0.365
	C192.026,324.506,191.892,324.774,191.717,325.03"/>
<line fill="none" stroke="#585A5E" stroke-miterlimit="10" x1="226.215" y1="113.213" x2="226.215" y2="287.028"/>
<rect x="163.567" y="200.192" fill="#3AD1CA" width="125.294" height="66.713"/>
<g>
	<g>
		<path fill="#FFFFFF" d="M206.208,227.951c0.264,0.084,0.479,0.244,0.647,0.481c0.168,0.236,0.252,0.499,0.252,0.787
			c0,0.51-0.166,0.901-0.499,1.175c-0.333,0.272-0.79,0.409-1.372,0.409h-2.115v-5.526h1.935c0.588,0,1.047,0.13,1.377,0.388
			s0.495,0.63,0.495,1.115c0,0.288-0.067,0.537-0.203,0.747C206.59,227.738,206.418,227.879,206.208,227.951z M204.029,227.6h1.018
			c0.654,0,0.98-0.255,0.98-0.765c0-0.498-0.326-0.747-0.98-0.747h-1.018V227.6z M204.029,228.374v1.62h1.188
			c0.312,0,0.552-0.072,0.72-0.217c0.168-0.144,0.252-0.342,0.252-0.594s-0.084-0.45-0.252-0.594
			c-0.168-0.145-0.408-0.216-0.72-0.216H204.029z"/>
		<path fill="#FFFFFF" d="M210.258,225.277h0.9l2.123,5.526h-0.953l-0.567-1.53h-2.115l-0.567,1.53h-0.944L210.258,225.277z
			 M210.699,226.421l-0.757,2.043h1.513L210.699,226.421z"/>
		<path fill="#FFFFFF" d="M214.703,230.804v-5.526h0.937v4.689h2.655v0.837H214.703z"/>
		<path fill="#FFFFFF" d="M219.879,230.804v-5.526h0.936v4.689h2.655v0.837H219.879z"/>
		<path fill="#FFFFFF" d="M225.053,225.277h3.609v0.828h-2.691v1.458h2.439v0.819h-2.439v1.584h2.691v0.837h-3.609V225.277z"/>
		<path fill="#FFFFFF" d="M231.911,228.562h-0.666v2.241h-0.937v-5.526h2.134c0.582,0,1.041,0.143,1.377,0.428
			s0.504,0.694,0.504,1.229c0,0.456-0.124,0.817-0.374,1.085c-0.248,0.267-0.596,0.437-1.039,0.508l1.602,2.277h-1.062
			L231.911,228.562z M231.245,226.088v1.691h1.179c0.307,0,0.545-0.076,0.716-0.229c0.171-0.152,0.257-0.358,0.257-0.616
			s-0.086-0.464-0.257-0.616c-0.171-0.153-0.409-0.229-0.716-0.229H231.245z"/>
		<path fill="#FFFFFF" d="M236.87,225.277v5.526h-0.937v-5.526H236.87z"/>
		<path fill="#FFFFFF" d="M243.17,225.277v5.526h-0.72l-2.825-4.023v4.023h-0.9v-5.526h0.882l2.664,3.834v-3.834H243.17z"/>
		<path fill="#FFFFFF" d="M246.717,225.277h0.899l2.124,5.526h-0.954l-0.567-1.53h-2.115l-0.566,1.53h-0.945L246.717,225.277z
			 M247.157,226.421l-0.757,2.043h1.513L247.157,226.421z"/>
	</g>
	<g>
		<path fill="#FFFFFF" d="M205.965,240.074h0.953c0.174,0.553,0.592,0.828,1.251,0.828c0.324,0,0.583-0.073,0.778-0.221
			c0.195-0.146,0.293-0.346,0.293-0.599c0-0.197-0.062-0.355-0.185-0.472c-0.123-0.117-0.329-0.209-0.616-0.274l-0.936-0.226
			c-0.919-0.216-1.378-0.711-1.378-1.484c0-0.475,0.176-0.866,0.526-1.175c0.352-0.31,0.803-0.464,1.355-0.464
			c0.581,0,1.051,0.137,1.408,0.41c0.356,0.272,0.586,0.646,0.688,1.12h-0.936c-0.174-0.492-0.558-0.738-1.152-0.738
			c-0.299,0-0.541,0.071-0.725,0.212c-0.183,0.141-0.273,0.325-0.273,0.554c0,0.365,0.242,0.605,0.729,0.72l0.963,0.225
			c0.45,0.103,0.801,0.282,1.053,0.54s0.379,0.588,0.379,0.99c0,0.51-0.184,0.917-0.549,1.22c-0.367,0.303-0.841,0.454-1.423,0.454
			c-0.588,0-1.078-0.143-1.472-0.428C206.305,240.982,206.061,240.585,205.965,240.074z"/>
		<path fill="#FFFFFF" d="M211.697,236.078h3.609v0.828h-2.691v1.458h2.439v0.819h-2.439v1.584h2.691v0.837h-3.609V236.078z"/>
		<path fill="#FFFFFF" d="M218.555,239.363h-0.666v2.241h-0.936v-5.526h2.133c0.582,0,1.041,0.143,1.377,0.428
			s0.504,0.694,0.504,1.229c0,0.456-0.124,0.817-0.373,1.085c-0.249,0.267-0.596,0.437-1.039,0.508l1.602,2.277h-1.062
			L218.555,239.363z M217.889,236.889v1.691h1.18c0.307,0,0.545-0.076,0.715-0.229c0.172-0.152,0.258-0.358,0.258-0.616
			s-0.086-0.464-0.258-0.616c-0.17-0.153-0.408-0.229-0.715-0.229H217.889z"/>
		<path fill="#FFFFFF" d="M225.035,241.604h-0.891l-2.088-5.526h0.98l1.566,4.312l1.565-4.312h0.954L225.035,241.604z"/>
		<path fill="#FFFFFF" d="M229.48,236.078v5.526h-0.936v-5.526H229.48z"/>
		<path fill="#FFFFFF" d="M231.754,240.898c-0.477-0.531-0.716-1.217-0.716-2.057s0.239-1.525,0.716-2.057s1.075-0.797,1.795-0.797
			c0.612,0,1.113,0.164,1.504,0.49c0.389,0.327,0.639,0.773,0.746,1.337h-0.918c-0.24-0.654-0.684-0.98-1.332-0.98
			c-0.48,0-0.861,0.188-1.143,0.562c-0.282,0.375-0.424,0.856-0.424,1.444s0.142,1.069,0.424,1.444
			c0.281,0.375,0.662,0.562,1.143,0.562c0.648,0,1.092-0.33,1.332-0.99h0.918c-0.107,0.57-0.357,1.019-0.746,1.346
			c-0.391,0.327-0.892,0.49-1.504,0.49C232.829,241.694,232.23,241.429,231.754,240.898z"/>
		<path fill="#FFFFFF" d="M237.328,236.078h3.609v0.828h-2.691v1.458h2.439v0.819h-2.439v1.584h2.691v0.837h-3.609V236.078z"/>
		<path fill="#FFFFFF" d="M242.152,240.074h0.954c0.175,0.553,0.591,0.828,1.251,0.828c0.324,0,0.584-0.073,0.779-0.221
			c0.194-0.146,0.292-0.346,0.292-0.599c0-0.197-0.062-0.355-0.185-0.472c-0.123-0.117-0.328-0.209-0.617-0.274l-0.936-0.226
			c-0.918-0.216-1.377-0.711-1.377-1.484c0-0.475,0.176-0.866,0.527-1.175c0.351-0.31,0.802-0.464,1.354-0.464
			c0.582,0,1.052,0.137,1.408,0.41c0.357,0.272,0.587,0.646,0.689,1.12h-0.937c-0.174-0.492-0.558-0.738-1.151-0.738
			c-0.301,0-0.542,0.071-0.725,0.212c-0.184,0.141-0.275,0.325-0.275,0.554c0,0.365,0.244,0.605,0.729,0.72l0.963,0.225
			c0.45,0.103,0.802,0.282,1.054,0.54s0.377,0.588,0.377,0.99c0,0.51-0.183,0.917-0.549,1.22c-0.365,0.303-0.84,0.454-1.422,0.454
			c-0.588,0-1.078-0.143-1.471-0.428C242.493,240.982,242.248,240.585,242.152,240.074z"/>
	</g>
</g>
<rect x="163.567" y="276.967" fill="#FFFFFF" width="125.294" height="66.711"/>
<g>
	<path fill="#585A5E" d="M196.533,290.41c0.479,0.537,0.719,1.219,0.719,2.047s-0.24,1.512-0.719,2.047
		c-0.48,0.537-1.093,0.807-1.837,0.807c-0.743,0-1.354-0.27-1.831-0.807c-0.477-0.535-0.716-1.219-0.716-2.047
		s0.239-1.51,0.716-2.047s1.088-0.807,1.831-0.807C195.44,289.603,196.053,289.873,196.533,290.41z M195.861,293.906
		c0.298-0.379,0.446-0.861,0.446-1.449s-0.148-1.07-0.446-1.449c-0.297-0.377-0.686-0.566-1.165-0.566s-0.866,0.188-1.161,0.562
		c-0.294,0.375-0.441,0.859-0.441,1.453s0.147,1.078,0.441,1.453c0.295,0.375,0.682,0.562,1.161,0.562
		S195.564,294.285,195.861,293.906z"/>
	<path fill="#585A5E" d="M200.402,292.978h-0.666v2.242h-0.936v-5.527h2.133c0.582,0,1.041,0.143,1.377,0.428
		s0.504,0.695,0.504,1.229c0,0.457-0.125,0.818-0.373,1.086c-0.25,0.266-0.596,0.436-1.04,0.508l1.603,2.277h-1.062L200.402,292.978
		z M199.736,290.503v1.691h1.18c0.306,0,0.544-0.076,0.715-0.229s0.257-0.359,0.257-0.617s-0.086-0.463-0.257-0.615
		c-0.171-0.154-0.409-0.23-0.715-0.23H199.736z"/>
	<path fill="#585A5E" d="M204.844,294.513c-0.477-0.531-0.715-1.217-0.715-2.057s0.238-1.525,0.715-2.057s1.076-0.797,1.796-0.797
		c0.612,0,1.112,0.164,1.503,0.49c0.39,0.328,0.639,0.773,0.747,1.338h-0.918c-0.24-0.654-0.685-0.98-1.332-0.98
		c-0.48,0-0.861,0.188-1.144,0.562c-0.281,0.375-0.423,0.855-0.423,1.443s0.142,1.07,0.423,1.445
		c0.282,0.375,0.663,0.562,1.144,0.562c0.647,0,1.092-0.33,1.332-0.99h0.918c-0.108,0.57-0.357,1.018-0.747,1.346
		c-0.391,0.326-0.891,0.49-1.503,0.49C205.92,295.31,205.32,295.044,204.844,294.513z"/>
	<path fill="#585A5E" d="M214.146,289.693h0.937v5.527h-0.937v-2.422h-2.781v2.422h-0.937v-5.527h0.937v2.277h2.781V289.693z"/>
	<path fill="#585A5E" d="M216.936,289.693h3.609v0.828h-2.691v1.459h2.439v0.818h-2.439v1.584h2.691v0.838h-3.609V289.693z"/>
	<path fill="#585A5E" d="M221.76,293.689h0.953c0.174,0.553,0.592,0.828,1.251,0.828c0.324,0,0.583-0.072,0.778-0.221
		c0.195-0.146,0.293-0.346,0.293-0.598c0-0.197-0.062-0.355-0.185-0.473s-0.329-0.209-0.616-0.273l-0.936-0.227
		c-0.919-0.215-1.378-0.711-1.378-1.484c0-0.475,0.176-0.865,0.526-1.174c0.352-0.311,0.803-0.465,1.355-0.465
		c0.581,0,1.051,0.137,1.408,0.41c0.356,0.273,0.586,0.646,0.688,1.121h-0.936c-0.174-0.492-0.558-0.738-1.152-0.738
		c-0.299,0-0.541,0.07-0.725,0.211c-0.183,0.141-0.273,0.326-0.273,0.555c0,0.365,0.242,0.605,0.729,0.719l0.963,0.225
		c0.45,0.104,0.801,0.283,1.053,0.541s0.379,0.588,0.379,0.99c0,0.51-0.184,0.916-0.549,1.219c-0.367,0.303-0.841,0.455-1.423,0.455
		c-0.588,0-1.078-0.143-1.472-0.428C222.1,294.597,221.855,294.201,221.76,293.689z"/>
	<path fill="#585A5E" d="M227.051,290.521v-0.828h4.608v0.828h-1.836v4.699h-0.937v-4.699H227.051z"/>
	<path fill="#585A5E" d="M234.773,292.978h-0.666v2.242h-0.937v-5.527h2.134c0.582,0,1.041,0.143,1.377,0.428
		s0.504,0.695,0.504,1.229c0,0.457-0.125,0.818-0.374,1.086c-0.249,0.266-0.596,0.436-1.04,0.508l1.603,2.277h-1.062
		L234.773,292.978z M234.107,290.503v1.691h1.179c0.306,0,0.544-0.076,0.716-0.229c0.17-0.152,0.256-0.359,0.256-0.617
		s-0.086-0.463-0.256-0.615c-0.172-0.154-0.41-0.23-0.716-0.23H234.107z"/>
	<path fill="#585A5E" d="M240.488,289.693h0.9l2.123,5.527h-0.953l-0.567-1.531h-2.115l-0.567,1.531h-0.944L240.488,289.693z
		 M240.93,290.837l-0.757,2.043h1.513L240.93,290.837z"/>
	<path fill="#585A5E" d="M244.016,290.521v-0.828h4.608v0.828h-1.836v4.699h-0.937v-4.699H244.016z"/>
	<path fill="#585A5E" d="M253.934,290.41c0.48,0.537,0.721,1.219,0.721,2.047s-0.24,1.512-0.721,2.047
		c-0.48,0.537-1.092,0.807-1.836,0.807s-1.354-0.27-1.832-0.807c-0.477-0.535-0.715-1.219-0.715-2.047s0.238-1.51,0.715-2.047
		c0.478-0.537,1.088-0.807,1.832-0.807S253.453,289.873,253.934,290.41z M253.264,293.906c0.297-0.379,0.445-0.861,0.445-1.449
		s-0.148-1.07-0.445-1.449c-0.297-0.377-0.686-0.566-1.166-0.566s-0.867,0.188-1.16,0.562c-0.295,0.375-0.441,0.859-0.441,1.453
		s0.146,1.078,0.441,1.453c0.293,0.375,0.68,0.562,1.16,0.562S252.967,294.285,253.264,293.906z"/>
	<path fill="#585A5E" d="M257.812,292.978h-0.666v2.242h-0.936v-5.527h2.133c0.582,0,1.041,0.143,1.377,0.428
		s0.504,0.695,0.504,1.229c0,0.457-0.125,0.818-0.373,1.086c-0.25,0.266-0.596,0.436-1.04,0.508l1.603,2.277h-1.062L257.812,292.978
		z M257.146,290.503v1.691h1.18c0.306,0,0.544-0.076,0.715-0.229s0.257-0.359,0.257-0.617s-0.086-0.463-0.257-0.615
		c-0.171-0.154-0.409-0.23-0.715-0.23H257.146z"/>
</g>
<g>
	<g>
		<path fill="#B3B3B3" d="M195.15,315.961c0.203,0,0.352-0.162,0.365-0.352l0.121-2.154c-0.15,0.025-0.283,0.055-0.432,0.08
			c-0.768,0.176-1.455,0.553-2.008,1.105l1.791,1.281C195.029,315.948,195.098,315.961,195.15,315.961z"/>
		<path fill="#B3B3B3" d="M194.193,317.375c0.121-0.148,0.109-0.377-0.039-0.498l-1.604-1.428c-0.486,0.795-0.688,1.725-0.607,2.641
			l2.088-0.607C194.1,317.471,194.154,317.43,194.193,317.375z"/>
		<polygon fill="#B3B3B3" points="195.568,318.131 196.16,318.413 196.754,318.131 196.889,317.497 196.484,316.985 
			195.824,316.985 195.42,317.497 		"/>
		<path fill="#B3B3B3" d="M194.328,318.737l-2.141,0.363c0.322,0.889,0.928,1.631,1.684,2.117l0.82-1.982
			c0.029-0.066,0.029-0.135,0.014-0.215C194.666,318.844,194.504,318.723,194.328,318.737z"/>
		<path fill="#B3B3B3" d="M196.877,315.813c0.119,0.148,0.322,0.176,0.471,0.08l1.764-1.252c-0.646-0.646-1.496-1.064-2.424-1.172
			l0.121,2.195C196.82,315.719,196.836,315.772,196.877,315.813z"/>
		<path fill="#B3B3B3" d="M197.777,318.764c-0.162,0.08-0.229,0.256-0.188,0.416l0.85,2.037c0.51-0.338,0.955-0.77,1.293-1.309
			c0.174-0.256,0.311-0.525,0.391-0.82l-2.156-0.365C197.898,318.723,197.832,318.737,197.777,318.764z"/>
		<path fill="#B3B3B3" d="M206.254,319.29l-1.686-7.316c-0.107-0.484-0.43-0.877-0.875-1.092l-6.818-3.248
			c-0.215-0.107-0.457-0.16-0.699-0.16c-0.244,0-0.486,0.053-0.701,0.16l-6.818,3.262c-0.443,0.215-0.768,0.605-0.875,1.092
			l-1.684,7.316c-0.123,0.484,0,0.984,0.309,1.373l4.717,5.863c0.309,0.389,0.768,0.604,1.252,0.604l7.6-0.012
			c0.484,0,0.943-0.23,1.252-0.607l4.717-5.859C206.254,320.272,206.361,319.774,206.254,319.29z M202.951,319.545
			c-0.039,0-0.066,0-0.107-0.014c-0.014-0.014-0.027-0.014-0.039-0.014c-0.027,0-0.055-0.012-0.082-0.012
			c-0.094-0.029-0.162,0.153-0.242,0.114c-0.041-0.014-0.082,0.152-0.121,0.152h-0.014c-0.256-1-0.486-1-0.701-1h-0.027
			c-0.08,0-0.121,0.23-0.174,0.258c-0.014,0-0.014,0.109-0.027,0.109l-0.162,0.02c-0.135,0.418-0.322,0.861-0.564,1.24
			c-0.459,0.727-1.066,1.329-1.779,1.747l0.066,0.169c0,0.014-0.012,0.016-0.012,0.029c-0.016,0.066-0.084,0.124-0.059,0.218
			c0.068,0.201,0.309,0.404,0.309,0.633v0.014c0,0.041,0.098,0.068,0.123,0.107c0.055,0.068,0.129,0.135,0.17,0.217
			c0.014,0.014,0.038,0.039,0.052,0.066c0,0.014,0.019,0.014,0.019,0.027c0.053,0.107,0.056,0.229,0.028,0.338
			c-0.025,0.107-0.103,0.188-0.198,0.242c-0.053,0.025-0.108,0.039-0.163,0.039c-0.16,0-0.321-0.094-0.403-0.256
			c0,0-0.014-0.014-0.014-0.025c-0.014-0.027-0.025-0.041-0.039-0.068c-0.041-0.08-0.281-0.162-0.307-0.242
			c-0.016-0.041-0.268-0.082-0.268-0.121v-0.014c0-0.256,0.051-0.486-0.057-0.674c-0.055-0.082,0.004-0.107-0.062-0.121
			c-0.014-0.014,0.043-0.014,0.029-0.014l-0.052-0.148c-0.229,0.08-0.444,0.148-0.687,0.201c-0.377,0.096-0.773,0.135-1.164,0.135
			c-0.646,0-1.291-0.121-1.885-0.348l-0.092,0.174c-0.014,0.014-0.013,0.014-0.026,0.014c-0.053,0.025-0.12,0.039-0.173,0.121
			c-0.121,0.189-0.189,0.404-0.283,0.674c-0.014,0.039-0.027,0.08-0.041,0.121c-0.027,0.08-0.041,0.148-0.08,0.242
			c-0.014,0.014-0.027,0.041-0.041,0.068c0,0-0.014,0.012-0.014,0.025c-0.08,0.148-0.242,0.256-0.404,0.256
			c-0.053,0-0.107-0.014-0.162-0.039c-0.201-0.096-0.283-0.352-0.174-0.58c0,0,0.012-0.014,0.012-0.027
			c0.014-0.027,0.027-0.053,0.041-0.066c0.055-0.082,0.136-0.148,0.19-0.217c0.027-0.039,0.124-0.066,0.124-0.107v-0.014
			c0-0.229,0.226-0.432,0.308-0.633c0.027-0.094-0.021-0.162-0.048-0.215c0-0.014-0.024-0.014-0.024-0.027l0.076-0.176
			c-0.203-0.121-0.393-0.242-0.582-0.389c-0.822-0.648-1.442-1.537-1.767-2.535l-0.19,0.027c-0.012,0-0.013-0.21-0.026-0.21
			c-0.041-0.027-0.096-0.266-0.176-0.266h-0.027c-0.215,0-0.443,0-0.699,1h-0.014c-0.041,0-0.082-0.16-0.121-0.146
			c-0.082,0.041-0.148,0.071-0.242,0.099c-0.029,0-0.055,0.048-0.082,0.048c0,0-0.014,0-0.027,0c-0.041,0-0.066-0.1-0.107-0.1
			c-0.215,0-0.391-0.179-0.432-0.368c-0.041-0.215,0.109-0.471,0.352-0.525c0.014-0.014,0.025-0.028,0.039-0.028
			c0.027,0,0.055-0.021,0.082-0.021c0.094-0.014,0.176,0.014,0.256,0.014c0.041-0.014,0.094,0.028,0.135,0.028h0.014
			c0.281,0,0.525-0.098,0.727-0.166c0.082-0.041,0.121-0.117,0.148-0.172c0-0.014,0.014-0.023,0.014-0.035l0.176-0.061
			c-0.176-1.238,0.08-2.495,0.754-3.56c0.014-0.041-0.182-0.071-0.154-0.112l-0.359-0.12v-0.027c0-0.068,0.223-0.135,0.156-0.203
			c-0.162-0.148-0.252-0.268-0.496-0.418c-0.039-0.027-0.024-0.053-0.065-0.066c-0.08-0.041-0.118-0.082-0.2-0.135
			c-0.027-0.014-0.025-0.041-0.053-0.055c-0.014,0-0.006-0.012-0.02-0.012c-0.189-0.162-0.227-0.432-0.094-0.607
			c0.068-0.094,0.191-0.148,0.312-0.148c0.107,0,0.218,0.041,0.298,0.107c0,0.014,0.015,0.014,0.028,0.027
			c0.025,0.027,0.055,0.041,0.066,0.055c0.068,0.068,0.123,0.121,0.176,0.189c0.041,0.025,0.068,0.066,0.096,0.092
			c0.188,0.203,0.361,0.379,0.539,0.5c0.039,0.025,0.078-0.007,0.119-0.007c0.027,0,0.055-0.066,0.082-0.066h0.027l0.133,0.146
			c0.715-0.754,1.631-1.258,2.668-1.486c0.244-0.053,0.486-0.066,0.729-0.094l0.014-0.168c0.014-0.016,0.014-0.013,0.027-0.026
			c0.039-0.039,0.289-0.079,0.303-0.173c0.027-0.215,0.154-0.458,0.154-0.728v-0.014c0-0.053,0.02-0.094,0.006-0.135
			c-0.025-0.08-0.006-0.16-0.006-0.254v-0.082v-0.027c0-0.121-0.189-0.229-0.107-0.309c0.08-0.08-0.115-0.137-0.006-0.137
			c0.229,0,0.113,0.203,0.113,0.445v0.041v0.08c0,0.094,0.006,0.176-0.006,0.256c-0.014,0.041,0.006,0.096,0.006,0.135v0.016
			c0,0.268,0.101,0.51,0.114,0.727c0.014,0.094,0.146,0.135,0.185,0.174c0.014,0.016,0.053,0.016,0.066,0.027l0.033,0.176
			c1.023,0.094,2.018,0.484,2.826,1.117c0.188,0.162,0.383,0.269,0.559,0.458l0.164-0.166h0.027c0.027,0,0.055,0.07,0.082,0.07
			c0.039,0,0.08,0.016,0.121-0.012c0.174-0.123,0.35-0.268,0.539-0.471c0.039-0.027,0.066-0.061,0.094-0.088
			c0.053-0.066,0.107-0.118,0.174-0.185c0.027-0.016,0.041-0.038,0.068-0.052c0.014-0.014,0.014-0.014,0.027-0.027
			c0.094-0.068,0.188-0.106,0.297-0.106c0.121,0,0.242,0.053,0.309,0.148c0.135,0.174,0.094,0.443-0.094,0.605
			c0,0.014-0.014,0.014-0.027,0.027c-0.025,0.027-0.053,0.041-0.066,0.053c-0.082,0.055-0.148,0.096-0.23,0.135
			c-0.039,0.027-0.08,0.041-0.121,0.068c-0.242,0.148-0.681,0.27-0.843,0.418c-0.055,0.068-0.304,0.135-0.304,0.201v0.029
			l0.103,0.119c0.35,0.539,0.724,1.133,0.872,1.766s0.233,1.281,0.153,1.9l0.206,0.055c0,0.012,0.028,0.012,0.028,0.025
			c0.025,0.055,0.06,0.134,0.153,0.175c0.217,0.066,0.453,0.145,0.736,0.145h0.014c0.053,0,0.094-0.01,0.135-0.01
			c0.08,0,0.162,0,0.256,0.014c0.027,0,0.055-0.002,0.08-0.002c0,0.014,0.014-0.002,0.027-0.002h0.014
			c0.242,0,0.391,0.293,0.391,0.455C203.328,319.404,203.154,319.545,202.951,319.545z"/>
		<path fill="#B3B3B3" d="M196.297,319.653c-0.148-0.08-0.324-0.027-0.432,0.094l-1.064,1.928c0.432,0.135,0.889,0.215,1.359,0.215
			c0.324,0,0.635-0.041,0.945-0.107c0.133-0.041,0.268-0.066,0.389-0.107l-1.035-1.873
			C196.418,319.747,196.363,319.694,196.297,319.653z"/>
		<path fill="#B3B3B3" d="M199.76,315.45l-1.631,1.469c-0.041,0.039-0.068,0.094-0.082,0.146c-0.039,0.189,0.068,0.379,0.258,0.432
			l2.061,0.594c0.039-0.445,0.014-0.904-0.094-1.361C200.162,316.258,199.988,315.827,199.76,315.45z"/>
	</g>
	<path fill-rule="evenodd" clip-rule="evenodd" fill="#B3B3B3" d="M241.723,315.19c-0.576-0.387-1.9-0.527-2.92-0.334
		c-0.131-0.961-0.666-1.793-1.639-2.545l-0.561-0.373l-0.373,0.559c-0.479,0.721-0.717,1.721-0.637,2.678
		c0.033,0.336,0.145,0.939,0.49,1.469c-0.346,0.188-1.029,0.443-1.932,0.426h-17.357l-0.033,0.199
		c-0.164,0.963-0.16,3.965,1.789,6.273c1.482,1.754,3.705,2.645,6.604,2.645c6.287,0,10.939-2.895,13.115-8.154
		c0.857,0.018,2.701,0.006,3.648-1.805c0.025-0.043,0.082-0.15,0.246-0.494l0.092-0.188L241.723,315.19z M228.033,310.831h2.641
		v-2.398h-2.641V310.831z M228.033,313.709h2.641v-2.398h-2.641V313.709z M224.914,313.709h2.641v-2.398h-2.641V313.709z
		 M221.795,313.709h2.641v-2.398h-2.641V313.709z M218.678,316.588h2.639v-2.398h-2.639V316.588z M221.795,316.588h2.641v-2.398
		h-2.641V316.588z M224.914,316.588h2.641v-2.398h-2.641V316.588z M228.033,316.588h2.641v-2.398h-2.641V316.588z M231.152,316.588
		h2.639v-2.398h-2.639V316.588z"/>
	<g>
		<path fill="#B3B3B3" d="M256.426,319.475c0,0,0.398-1.506-1.328-3.447l-0.059-0.061c-0.727-0.863-1.129-1.957-1.129-3.082
			c0-2.639,2.15-4.787,4.795-4.787h0.111c2.643,0,4.795,2.148,4.795,4.787c0,1.125-0.402,2.219-1.129,3.08
			c-0.01,0.01-0.029,0.031-0.059,0.061c-1.531,1.535-1.33,3.449-1.33,3.449c2.801-0.965,4.691-3.598,4.707-6.551
			c0.021-3.691-2.959-6.84-6.643-7.016c-0.045-0.002-0.09-0.002-0.137-0.002c-0.055,0-0.262,0.004-0.262,0.004
			c-0.006,0-0.205-0.004-0.26-0.004c-0.047,0-0.092,0-0.137,0.002c-3.686,0.176-6.664,3.324-6.645,7.016
			C251.736,315.877,253.627,318.51,256.426,319.475"/>
		<path fill="#B3B3B3" d="M265.473,325.032c0.121-0.051,0.264-0.092,0.42-0.123c0.145-0.031,0.307-0.053,0.484-0.059
			c0,0-0.008-0.053-0.018-0.135c-0.006-0.08-0.043-0.188-0.08-0.291c-0.018-0.053-0.035-0.105-0.055-0.152
			c-0.02-0.049-0.049-0.092-0.068-0.131c-0.041-0.074-0.068-0.123-0.068-0.123c-0.174-0.029-0.34-0.068-0.5-0.113
			c-0.162-0.047-0.316-0.1-0.451-0.156c-0.256-0.111-0.496-0.238-0.623-0.379c-0.152-0.133-0.182-0.268-0.176-0.389
			c0.008-0.059,0.035-0.117,0.082-0.172c0.043-0.051,0.1-0.1,0.182-0.141c0,0-0.061-0.033-0.15-0.086
			c-0.047-0.023-0.096-0.053-0.154-0.084c-0.062-0.029-0.127-0.061-0.191-0.09c-0.127-0.061-0.254-0.121-0.359-0.162
			c-0.102-0.041-0.168-0.068-0.168-0.068c-0.125,0.018-0.26,0.025-0.395,0.027c-0.141,0.004-0.285,0-0.424-0.012
			c-0.275-0.021-0.555-0.061-0.795-0.133c-0.125-0.031-0.232-0.07-0.324-0.111c-0.094-0.041-0.176-0.082-0.242-0.129
			c-0.127-0.092-0.215-0.186-0.213-0.281c0,0-0.078-0.012-0.191-0.031c-0.121-0.02-0.375-0.053-0.537-0.074
			c-0.002,0.027-0.02,0.053-0.025,0.098l-0.041,0.197c-0.084,0.395,0.145,0.795,0.533,0.906c0.949,0.277,1.666,0.732,1.873,1.293
			c0.42,1.129-1.34,2.234-4.018,2.234s-4.438-1.105-4.02-2.234c0.203-0.545,0.893-0.994,1.807-1.271
			c0.406-0.123,0.646-0.541,0.559-0.955l-0.057-0.268c-0.105,0.012-0.23,0.029-0.357,0.043c-0.158,0.018-0.311,0.047-0.426,0.064
			c-0.117,0.02-0.195,0.033-0.195,0.033c0.008,0.092-0.057,0.195-0.182,0.283c-0.066,0.045-0.139,0.092-0.227,0.135
			c-0.09,0.043-0.199,0.078-0.312,0.117c-0.119,0.037-0.25,0.064-0.383,0.088c-0.131,0.025-0.27,0.043-0.412,0.057
			c-0.283,0.021-0.568,0.027-0.828-0.006c0,0-0.018,0.008-0.047,0.02c-0.027,0.012-0.074,0.029-0.119,0.051
			c-0.096,0.045-0.223,0.107-0.352,0.168c-0.127,0.064-0.24,0.133-0.332,0.184c-0.047,0.025-0.086,0.047-0.111,0.061
			c-0.023,0.018-0.037,0.027-0.037,0.027c0.178,0.082,0.277,0.193,0.297,0.314c0.045,0.125-0.016,0.256-0.133,0.398
			c-0.066,0.074-0.158,0.141-0.25,0.207c-0.1,0.068-0.223,0.131-0.359,0.191c-0.258,0.123-0.592,0.23-0.951,0.295
			c0,0-0.031,0.051-0.055,0.127c-0.027,0.076-0.064,0.182-0.102,0.287c-0.016,0.105-0.029,0.215-0.041,0.299
			c-0.016,0.084-0.008,0.137-0.008,0.137c0.369,0.004,0.699,0.066,0.945,0.166c0.287,0.094,0.459,0.236,0.594,0.41
			c0.105,0.186,0.146,0.381,0.053,0.607c-0.064,0.219-0.244,0.465-0.539,0.688c0,0,0.018,0.014,0.047,0.039
			c0.031,0.023,0.078,0.057,0.135,0.096c0.117,0.08,0.262,0.195,0.436,0.297c0.182,0.1,0.365,0.199,0.506,0.277
			c0.068,0.039,0.139,0.062,0.184,0.084c0.045,0.02,0.072,0.031,0.072,0.031c0.412-0.178,0.855-0.268,1.301-0.314
			c0.221-0.023,0.439-0.029,0.646-0.016c0.213,0.01,0.428,0.027,0.631,0.074c0.199,0.055,0.395,0.104,0.566,0.18
			c0.174,0.074,0.328,0.174,0.475,0.268c0.291,0.199,0.516,0.482,0.613,0.777c0,0,0.15,0.006,0.377,0.016
			c0.227,0.006,0.527,0.025,0.828,0.01c0.301-0.01,0.604-0.014,0.826-0.029c0.221-0.021,0.369-0.035,0.369-0.035
			c0.031-0.154,0.1-0.299,0.193-0.432c0.045-0.064,0.1-0.127,0.158-0.184c0.057-0.059,0.115-0.121,0.182-0.174
			c0.131-0.107,0.281-0.201,0.449-0.275c0.164-0.076,0.34-0.148,0.543-0.193c0.207-0.041,0.402-0.082,0.613-0.098
			c0.207-0.018,0.434-0.008,0.645,0.002c0.428,0.023,0.904,0.121,1.318,0.277c0,0,0.092-0.051,0.229-0.127
			c0.131-0.078,0.318-0.17,0.463-0.285c0.148-0.109,0.303-0.213,0.396-0.299s0.152-0.143,0.152-0.143
			c-0.309-0.213-0.484-0.439-0.598-0.664c-0.053-0.109-0.068-0.211-0.07-0.312c-0.008-0.1,0.014-0.195,0.07-0.283
			C265.035,325.27,265.24,325.137,265.473,325.032"/>
		<path fill="#B3B3B3" d="M255.211,312.901c-0.008,0.879,0.418,1.674,1.105,2.236c0.854,0.693,1.551,2.096,1.592,3.629
			c0.045,1.701-0.07,3.668-0.141,4.67c-0.91,0.129-1.553,0.436-1.553,0.789c0,0.471,1.135,1.016,2.531,1.016
			c1.4,0,2.531-0.545,2.531-1.016c0-0.354-0.639-0.66-1.549-0.789c-0.072-1.002-0.188-2.969-0.145-4.67
			c0.043-1.533,0.74-2.936,1.592-3.629c0.689-0.562,1.115-1.357,1.107-2.236c-0.014-1.678-1.598-3.025-3.537-3.025
			C256.809,309.875,255.225,311.223,255.211,312.901"/>
	</g>
</g>
<line fill="none" stroke="#585A5E" stroke-miterlimit="10" x1="94.391" y1="112.985" x2="94.391" y2="285.422"/>
<rect x="35.215" y="276.967" fill="#3AD1CA" width="118.353" height="66.711"/>
<g>
	<g>
		<path fill="#FFFFFF" d="M74.385,304.724c0.264,0.084,0.479,0.244,0.647,0.482c0.168,0.236,0.252,0.498,0.252,0.787
			c0,0.51-0.167,0.9-0.499,1.174c-0.334,0.273-0.791,0.41-1.373,0.41h-2.115v-5.527h1.936c0.588,0,1.047,0.131,1.377,0.389
			s0.494,0.629,0.494,1.115c0,0.287-0.066,0.537-0.202,0.746C74.767,304.511,74.594,304.652,74.385,304.724z M72.206,304.373h1.017
			c0.654,0,0.981-0.254,0.981-0.764c0-0.498-0.327-0.748-0.981-0.748h-1.017V304.373z M72.206,305.148v1.619h1.188
			c0.312,0,0.551-0.072,0.72-0.217c0.167-0.143,0.252-0.342,0.252-0.594s-0.085-0.449-0.252-0.594
			c-0.169-0.145-0.408-0.215-0.72-0.215H72.206z"/>
		<path fill="#FFFFFF" d="M78.434,302.05h0.9l2.124,5.527h-0.954l-0.566-1.531h-2.115l-0.567,1.531h-0.944L78.434,302.05z
			 M78.875,303.195l-0.756,2.043h1.512L78.875,303.195z"/>
		<path fill="#FFFFFF" d="M82.88,307.578v-5.527h0.937v4.689h2.654v0.838H82.88z"/>
		<path fill="#FFFFFF" d="M88.055,307.578v-5.527h0.936v4.689h2.656v0.838H88.055z"/>
		<path fill="#FFFFFF" d="M93.229,302.05h3.609v0.828h-2.691v1.459h2.439v0.818h-2.439v1.584h2.691v0.838h-3.609V302.05z"/>
		<path fill="#FFFFFF" d="M100.088,305.335h-0.666v2.242h-0.937v-5.527h2.134c0.582,0,1.041,0.143,1.377,0.428
			s0.504,0.695,0.504,1.229c0,0.457-0.125,0.818-0.374,1.086c-0.249,0.266-0.596,0.436-1.04,0.508l1.603,2.277h-1.062
			L100.088,305.335z M99.422,302.861v1.691h1.179c0.306,0,0.544-0.076,0.716-0.229c0.17-0.152,0.256-0.359,0.256-0.617
			s-0.086-0.463-0.256-0.615c-0.172-0.154-0.41-0.23-0.716-0.23H99.422z"/>
		<path fill="#FFFFFF" d="M105.047,302.05v5.527h-0.937v-5.527H105.047z"/>
		<path fill="#FFFFFF" d="M111.347,302.05v5.527h-0.72l-2.826-4.023v4.023h-0.9v-5.527h0.883l2.664,3.834v-3.834H111.347z"/>
		<path fill="#FFFFFF" d="M114.893,302.05h0.9l2.123,5.527h-0.953l-0.567-1.531h-2.115l-0.567,1.531h-0.944L114.893,302.05z
			 M115.334,303.195l-0.757,2.043h1.513L115.334,303.195z"/>
	</g>
	<g>
		<path fill="#FFFFFF" d="M73.777,316.847h0.953c0.174,0.553,0.592,0.828,1.251,0.828c0.324,0,0.583-0.074,0.778-0.221
			s0.293-0.346,0.293-0.6c0-0.197-0.062-0.355-0.185-0.471c-0.123-0.117-0.329-0.209-0.616-0.275l-0.936-0.225
			c-0.919-0.217-1.378-0.711-1.378-1.484c0-0.475,0.176-0.867,0.526-1.176c0.352-0.309,0.803-0.463,1.355-0.463
			c0.581,0,1.051,0.137,1.408,0.41c0.356,0.271,0.586,0.646,0.688,1.119H76.98c-0.174-0.492-0.558-0.738-1.152-0.738
			c-0.299,0-0.541,0.072-0.725,0.213c-0.183,0.141-0.273,0.324-0.273,0.553c0,0.365,0.242,0.605,0.729,0.721l0.963,0.225
			c0.45,0.102,0.801,0.281,1.053,0.539s0.379,0.588,0.379,0.99c0,0.51-0.184,0.918-0.549,1.221
			c-0.367,0.303-0.841,0.453-1.423,0.453c-0.588,0-1.078-0.143-1.472-0.428C74.117,317.755,73.873,317.357,73.777,316.847z"/>
		<path fill="#FFFFFF" d="M79.51,312.851h3.609v0.828h-2.691v1.457h2.439v0.82h-2.439v1.584h2.691v0.836H79.51V312.851z"/>
		<path fill="#FFFFFF" d="M86.367,316.136h-0.666v2.24h-0.936v-5.525h2.133c0.582,0,1.041,0.143,1.377,0.428
			s0.504,0.693,0.504,1.229c0,0.455-0.124,0.816-0.373,1.084s-0.596,0.438-1.039,0.508l1.602,2.277h-1.062L86.367,316.136z
			 M85.701,313.662v1.691h1.18c0.307,0,0.545-0.076,0.715-0.23c0.172-0.152,0.258-0.357,0.258-0.615s-0.086-0.465-0.258-0.617
			c-0.17-0.152-0.408-0.229-0.715-0.229H85.701z"/>
		<path fill="#FFFFFF" d="M92.938,318.376h-0.891l-2.088-5.525h0.98l1.566,4.311l1.565-4.311h0.954L92.938,318.376z"/>
		<path fill="#FFFFFF" d="M97.383,312.851v5.525h-0.936v-5.525H97.383z"/>
		<path fill="#FFFFFF" d="M99.656,317.671c-0.477-0.531-0.716-1.217-0.716-2.057s0.239-1.525,0.716-2.057s1.075-0.797,1.795-0.797
			c0.612,0,1.113,0.164,1.504,0.49c0.389,0.326,0.639,0.773,0.746,1.336h-0.918c-0.24-0.654-0.684-0.98-1.332-0.98
			c-0.48,0-0.861,0.188-1.143,0.562c-0.282,0.375-0.424,0.857-0.424,1.445s0.142,1.068,0.424,1.443
			c0.281,0.375,0.662,0.562,1.143,0.562c0.648,0,1.092-0.33,1.332-0.99h0.918c-0.107,0.57-0.357,1.02-0.746,1.346
			c-0.391,0.328-0.892,0.49-1.504,0.49C100.731,318.466,100.133,318.201,99.656,317.671z"/>
		<path fill="#FFFFFF" d="M105.24,312.851h3.609v0.828h-2.691v1.457h2.439v0.82h-2.439v1.584h2.691v0.836h-3.609V312.851z"/>
		<path fill="#FFFFFF" d="M110.064,316.847h0.953c0.175,0.553,0.592,0.828,1.252,0.828c0.324,0,0.583-0.074,0.778-0.221
			c0.194-0.146,0.292-0.346,0.292-0.6c0-0.197-0.061-0.355-0.184-0.471c-0.123-0.117-0.329-0.209-0.617-0.275l-0.936-0.225
			c-0.918-0.217-1.377-0.711-1.377-1.484c0-0.475,0.176-0.867,0.526-1.176s0.802-0.463,1.354-0.463c0.582,0,1.051,0.137,1.408,0.41
			c0.357,0.271,0.586,0.646,0.688,1.119h-0.937c-0.174-0.492-0.557-0.738-1.151-0.738c-0.3,0-0.542,0.072-0.725,0.213
			s-0.274,0.324-0.274,0.553c0,0.365,0.243,0.605,0.729,0.721l0.963,0.225c0.451,0.102,0.802,0.281,1.054,0.539
			s0.378,0.588,0.378,0.99c0,0.51-0.184,0.918-0.549,1.221c-0.366,0.303-0.84,0.453-1.422,0.453c-0.588,0-1.078-0.143-1.472-0.428
			C110.404,317.755,110.16,317.357,110.064,316.847z"/>
	</g>
</g>
<line fill="none" stroke="#585A5E" stroke-miterlimit="10" x1="357.984" y1="112.985" x2="357.984" y2="280.333"/>
<rect x="298.753" y="123.051" fill="#3AD1CA" width="118.461" height="66.711"/>
<g>
	<g>
		<path fill="#FFFFFF" d="M337.981,150.81c0.264,0.084,0.479,0.244,0.647,0.481c0.168,0.236,0.252,0.499,0.252,0.787
			c0,0.51-0.166,0.901-0.499,1.175c-0.333,0.272-0.79,0.409-1.372,0.409h-2.115v-5.526h1.935c0.588,0,1.047,0.13,1.377,0.388
			s0.495,0.63,0.495,1.115c0,0.288-0.067,0.537-0.203,0.747C338.363,150.597,338.191,150.737,337.981,150.81z M335.803,150.458
			h1.018c0.654,0,0.98-0.255,0.98-0.765c0-0.498-0.326-0.747-0.98-0.747h-1.018V150.458z M335.803,151.232v1.62h1.188
			c0.312,0,0.552-0.072,0.72-0.217c0.168-0.144,0.252-0.342,0.252-0.594s-0.084-0.45-0.252-0.594
			c-0.168-0.145-0.408-0.216-0.72-0.216H335.803z"/>
		<path fill="#FFFFFF" d="M342.031,148.136h0.9l2.123,5.526h-0.953l-0.567-1.53h-2.115l-0.567,1.53h-0.944L342.031,148.136z
			 M342.473,149.279l-0.757,2.043h1.513L342.473,149.279z"/>
		<path fill="#FFFFFF" d="M346.477,153.662v-5.526h0.937v4.689h2.655v0.837H346.477z"/>
		<path fill="#FFFFFF" d="M351.652,153.662v-5.526h0.936v4.689h2.655v0.837H351.652z"/>
		<path fill="#FFFFFF" d="M356.826,148.136h3.609v0.828h-2.691v1.458h2.439v0.819h-2.439v1.584h2.691v0.837h-3.609V148.136z"/>
		<path fill="#FFFFFF" d="M363.685,151.421h-0.666v2.241h-0.937v-5.526h2.134c0.582,0,1.041,0.143,1.377,0.428
			s0.504,0.694,0.504,1.229c0,0.456-0.124,0.817-0.374,1.085c-0.248,0.267-0.596,0.437-1.039,0.508l1.602,2.277h-1.062
			L363.685,151.421z M363.019,148.946v1.691h1.179c0.307,0,0.545-0.076,0.716-0.229c0.171-0.152,0.257-0.358,0.257-0.616
			s-0.086-0.464-0.257-0.616c-0.171-0.153-0.409-0.229-0.716-0.229H363.019z"/>
		<path fill="#FFFFFF" d="M368.644,148.136v5.526h-0.937v-5.526H368.644z"/>
		<path fill="#FFFFFF" d="M374.936,148.136v5.526h-0.721l-2.826-4.023v4.023h-0.9v-5.526h0.883l2.664,3.834v-3.834H374.936z"/>
		<path fill="#FFFFFF" d="M378.48,148.136h0.9l2.124,5.526h-0.954l-0.566-1.53h-2.115l-0.567,1.53h-0.944L378.48,148.136z
			 M378.922,149.279l-0.756,2.043h1.512L378.922,149.279z"/>
	</g>
	<g>
		<path fill="#FFFFFF" d="M337.734,162.932h0.953c0.175,0.553,0.592,0.828,1.252,0.828c0.324,0,0.583-0.073,0.778-0.221
			c0.194-0.146,0.292-0.346,0.292-0.599c0-0.197-0.061-0.355-0.184-0.472c-0.123-0.117-0.329-0.209-0.617-0.274l-0.936-0.226
			c-0.918-0.216-1.377-0.711-1.377-1.484c0-0.475,0.176-0.866,0.526-1.175c0.351-0.31,0.802-0.464,1.354-0.464
			c0.582,0,1.051,0.137,1.408,0.41c0.357,0.272,0.586,0.646,0.688,1.12h-0.937c-0.174-0.492-0.557-0.738-1.151-0.738
			c-0.3,0-0.542,0.071-0.725,0.212s-0.274,0.325-0.274,0.554c0,0.365,0.243,0.605,0.729,0.72l0.963,0.225
			c0.451,0.103,0.802,0.282,1.054,0.54s0.378,0.588,0.378,0.99c0,0.51-0.184,0.917-0.549,1.22c-0.366,0.303-0.84,0.454-1.422,0.454
			c-0.588,0-1.078-0.143-1.472-0.428C338.074,163.84,337.83,163.442,337.734,162.932z"/>
		<path fill="#FFFFFF" d="M343.467,158.936h3.609v0.828h-2.691v1.458h2.439v0.819h-2.439v1.584h2.691v0.837h-3.609V158.936z"/>
		<path fill="#FFFFFF" d="M350.325,162.221h-0.666v2.241h-0.937v-5.526h2.134c0.582,0,1.041,0.143,1.377,0.428
			s0.504,0.694,0.504,1.229c0,0.456-0.124,0.817-0.374,1.085c-0.248,0.267-0.596,0.437-1.039,0.508l1.602,2.277h-1.062
			L350.325,162.221z M349.659,159.746v1.691h1.179c0.307,0,0.545-0.076,0.716-0.229c0.171-0.152,0.257-0.358,0.257-0.616
			s-0.086-0.464-0.257-0.616c-0.171-0.153-0.409-0.229-0.716-0.229H349.659z"/>
		<path fill="#FFFFFF" d="M356.805,164.462h-0.891l-2.088-5.526h0.98l1.566,4.312l1.566-4.312h0.953L356.805,164.462z"/>
		<path fill="#FFFFFF" d="M361.242,158.936v5.526h-0.937v-5.526H361.242z"/>
		<path fill="#FFFFFF" d="M363.514,163.756c-0.477-0.531-0.715-1.217-0.715-2.057s0.238-1.525,0.715-2.057
			c0.478-0.531,1.076-0.797,1.797-0.797c0.611,0,1.112,0.164,1.502,0.49c0.391,0.327,0.639,0.773,0.748,1.337h-0.918
			c-0.24-0.654-0.685-0.98-1.332-0.98c-0.48,0-0.861,0.188-1.144,0.562s-0.423,0.856-0.423,1.444s0.141,1.069,0.423,1.444
			s0.663,0.562,1.144,0.562c0.647,0,1.092-0.33,1.332-0.99h0.918c-0.109,0.57-0.357,1.019-0.748,1.346
			c-0.39,0.327-0.891,0.49-1.502,0.49C364.59,164.552,363.991,164.286,363.514,163.756z"/>
		<path fill="#FFFFFF" d="M369.099,158.936h3.609v0.828h-2.691v1.458h2.439v0.819h-2.439v1.584h2.691v0.837h-3.609V158.936z"/>
		<path fill="#FFFFFF" d="M373.923,162.932h0.954c0.174,0.553,0.591,0.828,1.25,0.828c0.324,0,0.584-0.073,0.779-0.221
			c0.195-0.146,0.293-0.346,0.293-0.599c0-0.197-0.062-0.355-0.186-0.472c-0.123-0.117-0.328-0.209-0.616-0.274l-0.936-0.226
			c-0.919-0.216-1.378-0.711-1.378-1.484c0-0.475,0.176-0.866,0.527-1.175c0.352-0.31,0.803-0.464,1.354-0.464
			c0.581,0,1.052,0.137,1.408,0.41c0.356,0.272,0.587,0.646,0.688,1.12h-0.936c-0.174-0.492-0.559-0.738-1.152-0.738
			c-0.3,0-0.541,0.071-0.725,0.212s-0.274,0.325-0.274,0.554c0,0.365,0.243,0.605,0.729,0.72l0.963,0.225
			c0.449,0.103,0.801,0.282,1.053,0.54s0.378,0.588,0.378,0.99c0,0.51-0.183,0.917-0.549,1.22s-0.841,0.454-1.423,0.454
			c-0.588,0-1.078-0.143-1.471-0.428C374.264,163.84,374.019,163.442,373.923,162.932z"/>
	</g>
</g>
<rect x="298.861" y="276.967" fill="#FFFFFF" width="118.353" height="66.711"/>
<g>
	<path fill="#585A5E" d="M328.293,290.41c0.48,0.537,0.721,1.219,0.721,2.047s-0.24,1.512-0.721,2.047
		c-0.48,0.537-1.092,0.807-1.836,0.807s-1.354-0.27-1.832-0.807c-0.477-0.535-0.715-1.219-0.715-2.047s0.238-1.51,0.715-2.047
		c0.478-0.537,1.088-0.807,1.832-0.807S327.812,289.873,328.293,290.41z M327.623,293.906c0.297-0.379,0.445-0.861,0.445-1.449
		s-0.148-1.07-0.445-1.449c-0.297-0.377-0.686-0.566-1.166-0.566s-0.867,0.188-1.16,0.562c-0.295,0.375-0.441,0.859-0.441,1.453
		s0.146,1.078,0.441,1.453c0.293,0.375,0.68,0.562,1.16,0.562S327.326,294.285,327.623,293.906z"/>
	<path fill="#585A5E" d="M332.172,292.978h-0.666v2.242h-0.936v-5.527h2.133c0.582,0,1.041,0.143,1.377,0.428
		s0.504,0.695,0.504,1.229c0,0.457-0.125,0.818-0.373,1.086c-0.25,0.266-0.596,0.436-1.04,0.508l1.603,2.277h-1.062L332.172,292.978
		z M331.506,290.503v1.691h1.18c0.306,0,0.544-0.076,0.715-0.229s0.257-0.359,0.257-0.617s-0.086-0.463-0.257-0.615
		c-0.171-0.154-0.409-0.23-0.715-0.23H331.506z"/>
	<path fill="#585A5E" d="M336.613,294.513c-0.477-0.531-0.715-1.217-0.715-2.057s0.238-1.525,0.715-2.057s1.076-0.797,1.796-0.797
		c0.612,0,1.112,0.164,1.503,0.49c0.39,0.328,0.639,0.773,0.747,1.338h-0.918c-0.24-0.654-0.685-0.98-1.332-0.98
		c-0.48,0-0.861,0.188-1.144,0.562c-0.281,0.375-0.423,0.855-0.423,1.443s0.142,1.07,0.423,1.445
		c0.282,0.375,0.663,0.562,1.144,0.562c0.647,0,1.092-0.33,1.332-0.99h0.918c-0.108,0.57-0.357,1.018-0.747,1.346
		c-0.391,0.326-0.891,0.49-1.503,0.49C337.689,295.31,337.09,295.044,336.613,294.513z"/>
	<path fill="#585A5E" d="M345.915,289.693h0.937v5.527h-0.937v-2.422h-2.781v2.422h-0.937v-5.527h0.937v2.277h2.781V289.693z"/>
	<path fill="#585A5E" d="M348.705,289.693h3.609v0.828h-2.691v1.459h2.439v0.818h-2.439v1.584h2.691v0.838h-3.609V289.693z"/>
	<path fill="#585A5E" d="M353.529,293.689h0.953c0.175,0.553,0.592,0.828,1.252,0.828c0.324,0,0.583-0.072,0.778-0.221
		c0.194-0.146,0.292-0.346,0.292-0.598c0-0.197-0.061-0.355-0.184-0.473s-0.329-0.209-0.617-0.273l-0.936-0.227
		c-0.918-0.215-1.377-0.711-1.377-1.484c0-0.475,0.176-0.865,0.526-1.174c0.351-0.311,0.802-0.465,1.354-0.465
		c0.582,0,1.051,0.137,1.408,0.41s0.586,0.646,0.688,1.121h-0.937c-0.174-0.492-0.557-0.738-1.151-0.738
		c-0.3,0-0.542,0.07-0.725,0.211s-0.274,0.326-0.274,0.555c0,0.365,0.243,0.605,0.729,0.719l0.963,0.225
		c0.451,0.104,0.802,0.283,1.054,0.541s0.378,0.588,0.378,0.99c0,0.51-0.184,0.916-0.549,1.219c-0.366,0.303-0.84,0.455-1.422,0.455
		c-0.588,0-1.078-0.143-1.472-0.428S353.625,294.201,353.529,293.689z"/>
	<path fill="#585A5E" d="M358.82,290.521v-0.828h4.608v0.828h-1.836v4.699h-0.937v-4.699H358.82z"/>
	<path fill="#585A5E" d="M366.543,292.978h-0.666v2.242h-0.937v-5.527h2.134c0.582,0,1.041,0.143,1.377,0.428
		s0.504,0.695,0.504,1.229c0,0.457-0.125,0.818-0.374,1.086c-0.249,0.266-0.596,0.436-1.04,0.508l1.603,2.277h-1.062
		L366.543,292.978z M365.877,290.503v1.691h1.179c0.306,0,0.544-0.076,0.716-0.229c0.17-0.152,0.256-0.359,0.256-0.617
		s-0.086-0.463-0.256-0.615c-0.172-0.154-0.41-0.23-0.716-0.23H365.877z"/>
	<path fill="#585A5E" d="M372.258,289.693h0.9l2.123,5.527h-0.953l-0.567-1.531h-2.115l-0.567,1.531h-0.944L372.258,289.693z
		 M372.699,290.837l-0.757,2.043h1.513L372.699,290.837z"/>
	<path fill="#585A5E" d="M375.795,290.521v-0.828h4.607v0.828h-1.836v4.699h-0.936v-4.699H375.795z"/>
	<path fill="#585A5E" d="M385.713,290.41c0.479,0.537,0.72,1.219,0.72,2.047s-0.24,1.512-0.72,2.047
		c-0.48,0.537-1.092,0.807-1.836,0.807s-1.355-0.27-1.832-0.807c-0.477-0.535-0.715-1.219-0.715-2.047s0.238-1.51,0.715-2.047
		s1.088-0.807,1.832-0.807S385.232,289.873,385.713,290.41z M385.042,293.906c0.298-0.379,0.446-0.861,0.446-1.449
		s-0.148-1.07-0.446-1.449c-0.297-0.377-0.686-0.566-1.165-0.566c-0.48,0-0.867,0.188-1.161,0.562s-0.441,0.859-0.441,1.453
		s0.147,1.078,0.441,1.453s0.681,0.562,1.161,0.562C384.356,294.472,384.745,294.285,385.042,293.906z"/>
	<path fill="#585A5E" d="M389.592,292.978h-0.666v2.242h-0.937v-5.527h2.134c0.582,0,1.041,0.143,1.377,0.428
		s0.504,0.695,0.504,1.229c0,0.457-0.125,0.818-0.374,1.086c-0.249,0.266-0.596,0.436-1.04,0.508l1.603,2.277h-1.062
		L389.592,292.978z M388.926,290.503v1.691h1.179c0.306,0,0.544-0.076,0.716-0.229c0.17-0.152,0.256-0.359,0.256-0.617
		s-0.086-0.463-0.256-0.615c-0.172-0.154-0.41-0.23-0.716-0.23H388.926z"/>
</g>
<g>
	<g>
		<path fill="#B3B3B3" d="M326.92,315.963c0.203,0,0.352-0.162,0.365-0.352l0.121-2.154c-0.15,0.025-0.283,0.055-0.432,0.08
			c-0.768,0.176-1.455,0.553-2.008,1.105l1.791,1.281C326.799,315.95,326.867,315.963,326.92,315.963z"/>
		<path fill="#B3B3B3" d="M326.098,318.739l-2.141,0.363c0.322,0.889,0.928,1.631,1.684,2.117l0.82-1.982
			c0.029-0.066,0.029-0.135,0.014-0.215C326.436,318.846,326.273,318.725,326.098,318.739z"/>
		<path fill="#B3B3B3" d="M325.963,317.377c0.121-0.148,0.109-0.377-0.039-0.498l-1.604-1.428c-0.486,0.795-0.688,1.725-0.607,2.641
			l2.088-0.607C325.869,317.473,325.924,317.432,325.963,317.377z"/>
		<path fill="#B3B3B3" d="M328.646,315.815c0.119,0.148,0.322,0.176,0.471,0.08l1.764-1.252c-0.646-0.646-1.496-1.064-2.424-1.172
			l0.121,2.195C328.59,315.721,328.605,315.774,328.646,315.815z"/>
		<polygon fill="#B3B3B3" points="327.338,318.133 327.93,318.415 328.523,318.133 328.658,317.499 328.254,316.987 
			327.594,316.987 327.189,317.499 		"/>
		<path fill="#B3B3B3" d="M338.023,319.292l-1.686-7.316c-0.107-0.484-0.43-0.877-0.875-1.092l-6.818-3.248
			c-0.215-0.107-0.457-0.16-0.699-0.16c-0.244,0-0.486,0.053-0.701,0.16l-6.818,3.262c-0.443,0.215-0.768,0.605-0.875,1.092
			l-1.684,7.316c-0.123,0.484,0,0.984,0.309,1.373l4.717,5.863c0.309,0.389,0.768,0.604,1.252,0.604l7.6-0.012
			c0.484,0,0.943-0.23,1.252-0.607l4.717-5.859C338.023,320.274,338.131,319.776,338.023,319.292z M334.721,319.547
			c-0.039,0-0.066,0-0.107-0.014c-0.014-0.014-0.027-0.014-0.039-0.014c-0.027,0-0.055-0.012-0.082-0.012
			c-0.094-0.029-0.162,0.151-0.242,0.112c-0.041-0.014-0.082,0.152-0.121,0.152h-0.014c-0.256-1-0.486-1-0.701-1h-0.027
			c-0.08,0-0.121,0.23-0.174,0.258c-0.014,0-0.014,0.109-0.027,0.109l-0.162,0.021c-0.135,0.418-0.322,0.859-0.564,1.238
			c-0.459,0.727-1.066,1.331-1.779,1.749l0.066,0.167c0,0.014-0.012,0.016-0.012,0.029c-0.016,0.066,0.031,0.124,0.057,0.218
			c0.068,0.201,0.424,0.406,0.424,0.635v0.014c0,0.041-0.018,0.068,0.008,0.107c0.055,0.068,0.07,0.135,0.111,0.217
			c0.014,0.014,0.01,0.039,0.023,0.066c0,0.014,0.005,0.014,0.005,0.027c0.053,0.107,0.049,0.229,0.021,0.338
			c-0.025,0.107-0.108,0.188-0.204,0.242c-0.053,0.025-0.108,0.039-0.163,0.039c-0.16,0-0.323-0.094-0.405-0.256
			c0,0-0.014-0.014-0.014-0.025c-0.014-0.027-0.025-0.041-0.039-0.068c-0.041-0.08-0.166-0.162-0.191-0.242
			c-0.016-0.041-0.152-0.082-0.152-0.121v-0.014c0-0.256-0.064-0.486-0.172-0.674c-0.055-0.082-0.055-0.107-0.121-0.121
			c-0.014-0.014,0.016-0.014,0.002-0.014l-0.066-0.148c-0.229,0.08-0.452,0.148-0.694,0.201c-0.377,0.096-0.778,0.135-1.169,0.135
			c-0.646,0-1.291-0.121-1.885-0.348l-0.093,0.174c-0.014,0.014-0.013,0.014-0.026,0.014c-0.053,0.025-0.121,0.039-0.174,0.121
			c-0.121,0.189-0.189,0.404-0.283,0.674c-0.014,0.039-0.027,0.08-0.041,0.121c-0.027,0.08-0.041,0.148-0.08,0.242
			c-0.014,0.014-0.027,0.041-0.041,0.068c0,0-0.014,0.012-0.014,0.025c-0.08,0.148-0.242,0.256-0.404,0.256
			c-0.053,0-0.107-0.014-0.162-0.039c-0.201-0.096-0.283-0.352-0.174-0.58c0,0,0.012-0.014,0.012-0.027
			c0.014-0.027,0.027-0.053,0.041-0.066c0.055-0.082,0.251-0.148,0.306-0.217c0.027-0.039,0.239-0.066,0.239-0.107v-0.014
			c0-0.229,0.11-0.432,0.192-0.633c0.027-0.094-0.079-0.162-0.106-0.215c0-0.014-0.053-0.014-0.053-0.027l0.062-0.176
			c-0.203-0.121-0.4-0.242-0.59-0.389c-0.822-0.648-1.445-1.537-1.77-2.535l-0.193,0.027c-0.012,0-0.013-0.212-0.026-0.212
			c-0.041-0.027-0.097-0.266-0.177-0.266h-0.027c-0.215,0-0.443,0-0.699,1h-0.014c-0.041,0-0.082-0.16-0.121-0.146
			c-0.082,0.041-0.148,0.073-0.242,0.101c-0.029,0-0.055,0.046-0.082,0.046c0,0-0.014,0-0.027,0c-0.041,0-0.066-0.1-0.107-0.1
			c-0.215,0-0.391-0.179-0.432-0.368c-0.041-0.215,0.109-0.469,0.352-0.523c0.014-0.014,0.025-0.028,0.039-0.028
			c0.027,0,0.055-0.022,0.082-0.022c0.094-0.014,0.176,0.016,0.256,0.016c0.041-0.014,0.094,0.026,0.135,0.026h0.014
			c0.281,0,0.525-0.098,0.727-0.166c0.082-0.041,0.121-0.115,0.148-0.17c0-0.014,0.014-0.025,0.014-0.037l0.176-0.061
			c-0.176-1.238,0.08-2.495,0.754-3.56c0.014-0.041-0.066-0.069-0.039-0.11l-0.244-0.12v-0.027c0-0.068,0.107-0.135,0.041-0.203
			c-0.162-0.148-0.311-0.268-0.555-0.418c-0.039-0.027-0.053-0.053-0.094-0.066c-0.08-0.041-0.133-0.082-0.215-0.135
			c-0.027-0.014-0.032-0.041-0.06-0.055c-0.014,0-0.011-0.012-0.024-0.012c-0.189-0.162-0.227-0.432-0.094-0.607
			c0.068-0.094,0.19-0.148,0.312-0.148c0.107,0,0.218,0.041,0.298,0.107c0,0.014,0.014,0.014,0.027,0.027
			c0.025,0.027,0.055,0.041,0.066,0.055c0.068,0.068,0.123,0.121,0.176,0.189c0.041,0.025,0.068,0.066,0.096,0.092
			c0.188,0.203,0.361,0.379,0.539,0.5c0.039,0.025,0.078-0.009,0.119-0.009c0.027,0,0.055-0.066,0.082-0.066h0.027l0.133,0.146
			c0.715-0.754,1.631-1.258,2.668-1.486c0.244-0.053,0.486-0.066,0.729-0.094l0.014-0.168c0.014-0.016,0.014-0.013,0.027-0.026
			c0.039-0.039-0.096-0.079-0.082-0.173c0.027-0.215-0.23-0.456-0.23-0.726v-0.014c0-0.053,0.02-0.094,0.006-0.135
			c-0.025-0.08-0.006-0.16-0.006-0.254v-0.082v-0.027c0-0.121,0.195-0.229,0.277-0.309c0.08-0.08,0.193-0.137,0.303-0.137
			c0.229,0,0.42,0.203,0.42,0.445v0.041v0.08c0,0.094,0.006,0.176-0.006,0.256c-0.014,0.041,0.006,0.096,0.006,0.135v0.016
			c0,0.268-0.015,0.51-0.001,0.727c0.014,0.094,0.089,0.135,0.128,0.174c0.014,0.016,0.023,0.016,0.037,0.027l0.019,0.176
			c1.023,0.094,2.011,0.484,2.819,1.117c0.188,0.162,0.379,0.267,0.555,0.456l0.16-0.166h0.027c0.027,0,0.055,0.07,0.082,0.07
			c0.039,0,0.08,0.016,0.121-0.012c0.174-0.123,0.35-0.268,0.539-0.471c0.039-0.027,0.066-0.059,0.094-0.086
			c0.053-0.066,0.107-0.118,0.174-0.185c0.027-0.016,0.041-0.04,0.068-0.054c0.014-0.014,0.014-0.012,0.027-0.025
			c0.094-0.068,0.188-0.106,0.297-0.106c0.121,0,0.242,0.053,0.309,0.148c0.135,0.174,0.094,0.443-0.094,0.605
			c0,0.014-0.014,0.014-0.027,0.027c-0.025,0.027-0.053,0.041-0.066,0.053c-0.082,0.055-0.148,0.096-0.23,0.135
			c-0.039,0.027-0.08,0.041-0.121,0.068c-0.242,0.148-0.565,0.27-0.728,0.418c-0.055,0.068-0.188,0.135-0.188,0.201v0.029
			l-0.013,0.119c0.35,0.539,0.667,1.133,0.815,1.766s0.204,1.281,0.124,1.9l0.19,0.055c0,0.012,0.021,0.012,0.021,0.025
			c0.025,0.055,0.057,0.132,0.15,0.173c0.217,0.066,0.449,0.145,0.732,0.145h0.014c0.053,0,0.094-0.01,0.135-0.01
			c0.08,0,0.162,0,0.256,0.014c0.027,0,0.055-0.002,0.08-0.002c0,0.014,0.014-0.002,0.027-0.002h0.014
			c0.242,0,0.391,0.293,0.391,0.455C335.098,319.404,334.924,319.547,334.721,319.547z"/>
		<path fill="#B3B3B3" d="M331.529,315.452l-1.631,1.469c-0.041,0.039-0.068,0.094-0.082,0.146
			c-0.039,0.189,0.068,0.379,0.258,0.432l2.061,0.594c0.039-0.445,0.014-0.904-0.094-1.361
			C331.932,316.26,331.758,315.829,331.529,315.452z"/>
		<path fill="#B3B3B3" d="M329.547,318.766c-0.162,0.08-0.229,0.256-0.188,0.416l0.85,2.037c0.51-0.338,0.955-0.77,1.293-1.309
			c0.174-0.256,0.311-0.525,0.391-0.82l-2.156-0.365C329.668,318.725,329.602,318.739,329.547,318.766z"/>
		<path fill="#B3B3B3" d="M328.066,319.655c-0.148-0.08-0.324-0.027-0.432,0.094l-1.064,1.928c0.432,0.135,0.889,0.215,1.359,0.215
			c0.324,0,0.635-0.041,0.945-0.107c0.133-0.041,0.268-0.066,0.389-0.107l-1.035-1.873
			C328.188,319.749,328.133,319.696,328.066,319.655z"/>
	</g>
	<path fill-rule="evenodd" clip-rule="evenodd" fill="#B3B3B3" d="M373.492,315.19c-0.576-0.385-1.9-0.525-2.92-0.334
		c-0.131-0.959-0.666-1.793-1.639-2.545l-0.561-0.373L368,312.499c-0.479,0.721-0.717,1.719-0.637,2.676
		c0.033,0.338,0.145,0.941,0.49,1.471c-0.346,0.186-1.029,0.441-1.932,0.424h-17.357l-0.033,0.201
		c-0.164,0.961-0.16,3.965,1.789,6.273c1.482,1.754,3.705,2.643,6.604,2.643c6.287,0,10.939-2.893,13.115-8.152
		c0.857,0.016,2.701,0.004,3.648-1.807c0.025-0.041,0.082-0.148,0.246-0.492l0.092-0.189L373.492,315.19z M359.803,310.833h2.641
		v-2.4h-2.641V310.833z M359.803,313.711h2.641v-2.4h-2.641V313.711z M356.684,313.711h2.641v-2.4h-2.641V313.711z M353.564,313.711
		h2.641v-2.4h-2.641V313.711z M350.447,316.59h2.639v-2.4h-2.639V316.59z M353.564,316.59h2.641v-2.4h-2.641V316.59z
		 M356.684,316.59h2.641v-2.4h-2.641V316.59z M359.803,316.59h2.641v-2.4h-2.641V316.59z M362.922,316.59h2.639v-2.4h-2.639V316.59z
		"/>
	<g>
		<path fill="#B3B3B3" d="M388.195,319.477c0,0,0.398-1.506-1.328-3.447l-0.059-0.061c-0.727-0.863-1.129-1.957-1.129-3.082
			c0-2.639,2.15-4.787,4.795-4.787h0.111c2.643,0,4.795,2.148,4.795,4.787c0,1.125-0.402,2.219-1.129,3.08
			c-0.01,0.01-0.029,0.031-0.059,0.061c-1.531,1.535-1.33,3.449-1.33,3.449c2.801-0.965,4.691-3.598,4.707-6.551
			c0.021-3.691-2.959-6.84-6.643-7.016c-0.045-0.002-0.09-0.002-0.137-0.002c-0.055,0-0.262,0.004-0.262,0.004
			c-0.006,0-0.205-0.004-0.26-0.004c-0.047,0-0.092,0-0.137,0.002c-3.686,0.176-6.664,3.324-6.645,7.016
			C383.506,315.879,385.396,318.512,388.195,319.477"/>
		<path fill="#B3B3B3" d="M397.242,325.034c0.121-0.051,0.264-0.092,0.42-0.123c0.145-0.031,0.307-0.053,0.484-0.059
			c0,0-0.008-0.053-0.018-0.135c-0.006-0.08-0.043-0.188-0.08-0.291c-0.018-0.053-0.035-0.105-0.055-0.152
			c-0.02-0.049-0.049-0.092-0.068-0.131c-0.041-0.074-0.068-0.123-0.068-0.123c-0.174-0.029-0.34-0.068-0.5-0.113
			c-0.162-0.047-0.316-0.1-0.451-0.156c-0.256-0.111-0.496-0.238-0.623-0.379c-0.152-0.133-0.182-0.268-0.176-0.389
			c0.008-0.059,0.035-0.117,0.082-0.172c0.043-0.051,0.1-0.1,0.182-0.141c0,0-0.061-0.033-0.15-0.086
			c-0.047-0.023-0.096-0.053-0.154-0.084c-0.062-0.029-0.127-0.061-0.191-0.09c-0.127-0.061-0.254-0.121-0.359-0.162
			c-0.102-0.041-0.168-0.068-0.168-0.068c-0.125,0.018-0.26,0.025-0.395,0.027c-0.141,0.004-0.285,0-0.424-0.012
			c-0.275-0.021-0.555-0.061-0.795-0.133c-0.125-0.031-0.232-0.07-0.324-0.111c-0.094-0.041-0.176-0.082-0.242-0.129
			c-0.127-0.092-0.215-0.186-0.213-0.281c0,0-0.078-0.012-0.191-0.031c-0.121-0.02-0.375-0.053-0.537-0.074
			c-0.002,0.027-0.02,0.053-0.025,0.098l-0.041,0.197c-0.084,0.395,0.145,0.795,0.533,0.906c0.949,0.277,1.666,0.732,1.873,1.293
			c0.42,1.129-1.34,2.234-4.018,2.234s-4.438-1.105-4.02-2.234c0.203-0.545,0.893-0.994,1.807-1.271
			c0.406-0.123,0.646-0.541,0.559-0.955l-0.057-0.268c-0.105,0.012-0.23,0.029-0.357,0.043c-0.158,0.018-0.311,0.047-0.426,0.064
			c-0.117,0.02-0.195,0.033-0.195,0.033c0.008,0.092-0.057,0.195-0.182,0.283c-0.066,0.045-0.139,0.092-0.227,0.135
			c-0.09,0.043-0.199,0.078-0.312,0.117c-0.119,0.037-0.25,0.064-0.383,0.088c-0.131,0.025-0.27,0.043-0.412,0.057
			c-0.283,0.021-0.568,0.027-0.828-0.006c0,0-0.018,0.008-0.047,0.02c-0.027,0.012-0.074,0.029-0.119,0.051
			c-0.096,0.045-0.223,0.107-0.352,0.168c-0.127,0.064-0.24,0.133-0.332,0.184c-0.047,0.025-0.086,0.047-0.111,0.061
			c-0.023,0.018-0.037,0.027-0.037,0.027c0.178,0.082,0.277,0.193,0.297,0.314c0.045,0.125-0.016,0.256-0.133,0.398
			c-0.066,0.074-0.158,0.141-0.25,0.207c-0.1,0.068-0.223,0.131-0.359,0.191c-0.258,0.123-0.592,0.23-0.951,0.295
			c0,0-0.031,0.051-0.055,0.127c-0.027,0.076-0.064,0.182-0.102,0.287c-0.016,0.105-0.029,0.215-0.041,0.299
			c-0.016,0.084-0.008,0.137-0.008,0.137c0.369,0.004,0.699,0.066,0.945,0.166c0.287,0.094,0.459,0.236,0.594,0.41
			c0.105,0.186,0.146,0.381,0.053,0.607c-0.064,0.219-0.244,0.465-0.539,0.688c0,0,0.018,0.014,0.047,0.039
			c0.031,0.023,0.078,0.057,0.135,0.096c0.117,0.08,0.262,0.195,0.436,0.297c0.182,0.1,0.365,0.199,0.506,0.277
			c0.068,0.039,0.139,0.062,0.184,0.084c0.045,0.02,0.072,0.031,0.072,0.031c0.412-0.178,0.855-0.268,1.301-0.314
			c0.221-0.023,0.439-0.029,0.646-0.016c0.213,0.01,0.428,0.027,0.631,0.074c0.199,0.055,0.395,0.104,0.566,0.18
			c0.174,0.074,0.328,0.174,0.475,0.268c0.291,0.199,0.516,0.482,0.613,0.777c0,0,0.15,0.006,0.377,0.016
			c0.227,0.006,0.527,0.025,0.828,0.01c0.301-0.01,0.604-0.014,0.826-0.029c0.221-0.021,0.369-0.035,0.369-0.035
			c0.031-0.154,0.1-0.299,0.193-0.432c0.045-0.064,0.1-0.127,0.158-0.184c0.057-0.059,0.115-0.121,0.182-0.174
			c0.131-0.107,0.281-0.201,0.449-0.275c0.164-0.076,0.34-0.148,0.543-0.193c0.207-0.041,0.402-0.082,0.613-0.098
			c0.207-0.018,0.434-0.008,0.645,0.002c0.428,0.023,0.904,0.121,1.318,0.277c0,0,0.092-0.051,0.229-0.127
			c0.131-0.078,0.318-0.17,0.463-0.285c0.148-0.109,0.303-0.213,0.396-0.299s0.152-0.143,0.152-0.143
			c-0.309-0.213-0.484-0.439-0.598-0.664c-0.053-0.109-0.068-0.211-0.07-0.312c-0.008-0.1,0.014-0.195,0.07-0.283
			C396.805,325.272,397.01,325.139,397.242,325.034"/>
		<path fill="#B3B3B3" d="M386.98,312.903c-0.008,0.879,0.418,1.674,1.105,2.236c0.854,0.693,1.551,2.096,1.592,3.629
			c0.045,1.701-0.07,3.668-0.141,4.67c-0.91,0.129-1.553,0.436-1.553,0.789c0,0.471,1.135,1.016,2.531,1.016
			c1.4,0,2.531-0.545,2.531-1.016c0-0.354-0.639-0.66-1.549-0.789c-0.072-1.002-0.188-2.969-0.145-4.67
			c0.043-1.533,0.74-2.936,1.592-3.629c0.689-0.562,1.115-1.357,1.107-2.236c-0.014-1.678-1.598-3.025-3.537-3.025
			C388.578,309.877,386.994,311.225,386.98,312.903"/>
	</g>
</g>
<rect x="298.753" y="200.192" fill="#FFFFFF" width="118.462" height="66.713"/>
<g>
	<path fill="#585A5E" d="M326.885,216.705h0.953c0.175,0.553,0.592,0.828,1.252,0.828c0.324,0,0.583-0.073,0.778-0.221
		c0.194-0.146,0.292-0.346,0.292-0.599c0-0.197-0.061-0.355-0.184-0.472c-0.123-0.117-0.329-0.209-0.617-0.274l-0.936-0.226
		c-0.918-0.216-1.377-0.711-1.377-1.484c0-0.475,0.176-0.866,0.526-1.175c0.351-0.31,0.802-0.464,1.354-0.464
		c0.582,0,1.051,0.137,1.408,0.41c0.357,0.272,0.586,0.646,0.688,1.12h-0.937c-0.174-0.492-0.557-0.738-1.151-0.738
		c-0.3,0-0.542,0.071-0.725,0.212s-0.274,0.325-0.274,0.554c0,0.365,0.243,0.605,0.729,0.72l0.963,0.225
		c0.451,0.103,0.802,0.282,1.054,0.54s0.378,0.588,0.378,0.99c0,0.51-0.184,0.917-0.549,1.22c-0.366,0.303-0.84,0.454-1.422,0.454
		c-0.588,0-1.078-0.143-1.472-0.428C327.225,217.613,326.98,217.216,326.885,216.705z"/>
	<path fill="#585A5E" d="M332.617,212.709h3.609v0.828h-2.691v1.458h2.439v0.819h-2.439v1.584h2.691v0.837h-3.609V212.709z"/>
	<path fill="#585A5E" d="M339.476,215.994h-0.666v2.241h-0.937v-5.526h2.134c0.582,0,1.041,0.143,1.377,0.428
		s0.504,0.694,0.504,1.229c0,0.456-0.124,0.817-0.374,1.085c-0.248,0.267-0.596,0.437-1.039,0.508l1.602,2.277h-1.062
		L339.476,215.994z M338.81,213.52v1.691h1.179c0.307,0,0.545-0.076,0.716-0.229c0.171-0.152,0.257-0.358,0.257-0.616
		s-0.086-0.464-0.257-0.616c-0.171-0.153-0.409-0.229-0.716-0.229H338.81z"/>
	<path fill="#585A5E" d="M345.955,218.235h-0.891l-2.088-5.526h0.98l1.566,4.312l1.566-4.312h0.953L345.955,218.235z"/>
	<path fill="#585A5E" d="M350.393,212.709v5.526h-0.937v-5.526H350.393z"/>
	<path fill="#585A5E" d="M352.664,217.529c-0.477-0.531-0.715-1.217-0.715-2.057s0.238-1.525,0.715-2.057
		c0.478-0.531,1.076-0.797,1.797-0.797c0.611,0,1.112,0.164,1.502,0.49c0.391,0.327,0.639,0.773,0.748,1.337h-0.918
		c-0.24-0.654-0.685-0.98-1.332-0.98c-0.48,0-0.861,0.188-1.144,0.562s-0.423,0.856-0.423,1.444s0.141,1.069,0.423,1.444
		s0.663,0.562,1.144,0.562c0.647,0,1.092-0.33,1.332-0.99h0.918c-0.109,0.57-0.357,1.019-0.748,1.346
		c-0.39,0.327-0.891,0.49-1.502,0.49C353.74,218.325,353.142,218.06,352.664,217.529z"/>
	<path fill="#585A5E" d="M358.249,212.709h3.609v0.828h-2.691v1.458h2.439v0.819h-2.439v1.584h2.691v0.837h-3.609V212.709z"/>
	<path fill="#585A5E" d="M369.202,218.235h-0.666l-1.521-3.843v3.843h-0.892v-5.526h1.071l1.684,4.248l1.664-4.248h1.045v5.526h-0.9
		v-3.843L369.202,218.235z"/>
	<path fill="#585A5E" d="M373.441,212.709h3.609v0.828h-2.691v1.458h2.439v0.819h-2.439v1.584h2.691v0.837h-3.609V212.709z"/>
	<path fill="#585A5E" d="M378.266,216.705h0.953c0.174,0.553,0.592,0.828,1.251,0.828c0.324,0,0.583-0.073,0.778-0.221
		c0.195-0.146,0.293-0.346,0.293-0.599c0-0.197-0.062-0.355-0.185-0.472c-0.123-0.117-0.329-0.209-0.616-0.274l-0.936-0.226
		c-0.919-0.216-1.378-0.711-1.378-1.484c0-0.475,0.176-0.866,0.526-1.175c0.352-0.31,0.803-0.464,1.355-0.464
		c0.581,0,1.051,0.137,1.408,0.41c0.356,0.272,0.586,0.646,0.688,1.12h-0.936c-0.174-0.492-0.558-0.738-1.152-0.738
		c-0.299,0-0.541,0.071-0.725,0.212c-0.183,0.141-0.273,0.325-0.273,0.554c0,0.365,0.242,0.605,0.729,0.72l0.963,0.225
		c0.45,0.103,0.801,0.282,1.053,0.54s0.379,0.588,0.379,0.99c0,0.51-0.184,0.917-0.549,1.22c-0.367,0.303-0.841,0.454-1.423,0.454
		c-0.588,0-1.078-0.143-1.472-0.428C378.605,217.613,378.361,217.216,378.266,216.705z"/>
	<path fill="#585A5E" d="M387.715,212.709h0.936v5.526h-0.936v-2.421h-2.781v2.421h-0.936v-5.526h0.936v2.277h2.781V212.709z"/>
</g>
<g>
	<g>
		<path fill="#B3B3B3" d="M339.66,249.383v-19.372c3.342,7.069,6.67,14.112,10.047,21.257
			C346.326,250.633,343.033,250.016,339.66,249.383"/>
		<path fill="#B3B3B3" d="M338.096,249.385c-1.797,0.584-3.572,1.164-5.496,1.789c1.85-4.352,3.641-8.57,5.432-12.791
			c0.021,0.004,0.043,0.008,0.064,0.014V249.385z"/>
		<path fill="#B3B3B3" d="M349,252.485c-3.812,1.023-7.518,2.02-11.232,3.018c-1.496-0.996-2.975-1.977-4.541-3.018H349z"/>
	</g>
	<g>
		<path fill="#B3B3B3" d="M367.004,247.215c-0.006-0.805-0.037-1.607-0.002-2.408c0.008-0.201,0.172-0.455,0.342-0.578
			c0.381-0.277,0.812-0.488,1.223-0.723c0.408-0.238,0.818-0.475,1.32-0.764c-0.645-0.369-1.23-0.721-1.832-1.037
			c-0.092-0.051-0.273,0.014-0.387,0.076c-0.795,0.447-1.592,0.891-2.363,1.375c-0.156,0.098-0.277,0.357-0.295,0.553
			c-0.047,0.58-0.031,1.166-0.041,1.748c-0.525,0-1.051,0-1.576,0c-0.006-0.93-0.027-1.859-0.004-2.785
			c0.004-0.17,0.158-0.398,0.311-0.492c0.82-0.504,1.662-0.973,2.592-1.508c-0.65-0.375-1.232-0.723-1.83-1.039
			c-0.092-0.047-0.275,0.014-0.387,0.076c-0.793,0.445-1.588,0.893-2.361,1.371c-0.146,0.092-0.279,0.32-0.291,0.496
			c-0.043,0.561-0.025,1.129-0.033,1.691c-0.541,0-1.084-0.002-1.625-0.002v-2.957c0.545-0.336,1.094-0.67,1.639-1.006
			c0.41-0.217,0.816-0.434,1.312-0.697c-0.469-0.268-0.852-0.484-1.336-0.762v1.047c-0.539-0.002-1.076-0.004-1.615-0.006v-2.08
			c0.385-0.197,0.791-0.357,1.145-0.598c0.338-0.229,0.594-0.201,0.936-0.006c4.391,2.545,8.775,5.1,13.199,7.582
			c0.809,0.453,1.178,0.922,1.061,1.846c-0.084,0.662-0.027,1.344-0.035,2.016c-0.379,0-0.76,0.012-1.139-0.002
			c-0.277-0.012-0.385,0.098-0.385,0.379c0.004,0.541-0.021,1.082-0.035,1.623c-0.137-0.111-0.262-0.248-0.414-0.336
			c-1.707-0.99-3.418-1.973-5.129-2.957c-0.102-0.057-0.217-0.094-0.373-0.158c-0.02,0.379-0.037,0.699-0.053,1.02
			C368.029,247.213,367.516,247.215,367.004,247.215 M374.504,247.651c0-0.779,0.014-1.428-0.014-2.074
			c-0.006-0.119-0.162-0.268-0.285-0.34c-0.795-0.475-1.598-0.938-2.406-1.391c-0.111-0.062-0.295-0.119-0.387-0.07
			c-0.588,0.312-1.158,0.654-1.826,1.039C371.246,245.772,372.811,246.674,374.504,247.651"/>
		<path fill="#B3B3B3" d="M383.293,240.198v3.18c-0.537-0.004-1.074-0.004-1.609-0.006c-0.008-0.547-0.043-1.094-0.008-1.639
			c0.025-0.387-0.135-0.578-0.449-0.76c-4.439-2.545-8.869-5.1-13.303-7.652c-0.156-0.092-0.316-0.178-0.473-0.271
			c-0.299-0.186-0.32-0.381-0.008-0.576c0.324-0.199,0.646-0.398,0.973-0.596h0.328c0.832,0.486,1.658,0.984,2.504,1.447
			c0.15,0.082,0.426,0.084,0.578,0c0.846-0.461,1.67-0.961,2.502-1.447h0.33c0.307,0.188,0.615,0.381,0.926,0.566
			c0.357,0.213,0.367,0.42-0.002,0.633c-0.771,0.443-1.545,0.889-2.395,1.379c0.629,0.361,1.193,0.707,1.781,1.01
			c0.119,0.061,0.348-0.006,0.49-0.084c0.67-0.365,1.352-0.721,1.984-1.146c0.467-0.312,0.859-0.326,1.279,0.021
			c0.242,0.199,0.484,0.398,0.727,0.6c-0.24,0.182-0.467,0.387-0.721,0.541c-0.621,0.379-1.252,0.734-1.936,1.131
			c0.604,0.352,1.141,0.691,1.707,0.971c0.15,0.076,0.422,0.023,0.586-0.064c0.752-0.406,1.492-0.838,2.227-1.277
			c0.26-0.158,0.461-0.125,0.746-0.02c1.031,0.383,1.467,1.059,1.258,2.152c-0.049,0.264-0.018,0.545-0.023,0.818h-1.6v-1.264
			c-0.482,0.275-0.865,0.494-1.332,0.76c0.492,0.266,0.898,0.484,1.305,0.701C382.209,239.602,382.75,239.901,383.293,240.198"/>
		<path fill="#B3B3B3" d="M359.764,243.266c0.541,0,1.084,0.002,1.625,0.002c0,1.131,0,2.264-0.002,3.395c-0.541,0-1.082,0-1.623,0
			V243.266z"/>
		<path fill="#B3B3B3" d="M359.764,246.661c0.541,0.002,1.082,0.002,1.623,0.002c0.002,0.619,0.004,1.238,0.006,1.857
			c-0.484,0.045-0.969,0.09-1.455,0.133c-0.057-0.043-0.115-0.086-0.174-0.131V246.661z"/>
		<path fill="#B3B3B3" d="M361.402,239.303c-0.545,0.336-1.092,0.67-1.639,1.006v-1.424c0.539,0.002,1.078,0.004,1.617,0.006
			C361.387,239.03,361.395,239.165,361.402,239.303"/>
		<path fill="#B3B3B3" d="M378.104,245.674c-0.01-0.621-0.047-1.24-0.02-1.857c0.02-0.385-0.125-0.58-0.447-0.766
			c-4.426-2.535-8.844-5.082-13.26-7.635c-0.271-0.158-0.504-0.387-0.754-0.582c0.248-0.195,0.5-0.389,0.742-0.59
			c0.432-0.355,0.809-0.273,1.281,0.002c4.52,2.629,9.055,5.234,13.592,7.828c0.346,0.199,0.484,0.408,0.469,0.809
			c-0.037,0.93-0.02,1.859-0.027,2.789C379.154,245.672,378.629,245.672,378.104,245.674"/>
		<path fill="#B3B3B3" d="M374.432,253.575c-0.824-0.449-1.66-0.885-2.469-1.359c-0.307-0.18-0.529-0.195-0.838-0.008
			c-0.824,0.498-1.672,0.955-2.508,1.428c0-0.623-0.002-1.246-0.002-1.871c0.398-0.227,0.797-0.455,1.275-0.729
			c-0.477-0.275-0.871-0.506-1.268-0.734c-0.002-0.625-0.004-1.252-0.004-1.877c1.945,1.113,3.893,2.227,5.838,3.34
			C374.449,252.368,374.439,252.971,374.432,253.575"/>
		<path fill="#B3B3B3" d="M368.617,248.424c0.002,0.625,0.004,1.25,0.006,1.875l-0.088,0.525c-0.508,0-1.02,0-1.529,0
			c0-1.203-0.002-2.406-0.002-3.611c0.512,0,1.025,0,1.537,0C368.566,247.616,368.592,248.02,368.617,248.424"/>
		<path fill="#B3B3B3" d="M381.684,243.372c0.535,0.002,1.072,0.002,1.609,0.004c0,1.098-0.002,2.191-0.002,3.287h-1.598
			C381.689,245.565,381.686,244.469,381.684,243.372"/>
		<path fill="#B3B3B3" d="M363.393,245.456c0.525,0.002,1.051,0.002,1.576,0.002c-0.002,1.021-0.004,2.045-0.006,3.066
			c-0.523,0.002-1.045,0.002-1.568,0.002C363.395,247.502,363.393,246.479,363.393,245.456"/>
		<path fill="#B3B3B3" d="M374.51,249.645c0.014-0.541,0.039-1.082,0.037-1.623c-0.002-0.281,0.105-0.391,0.383-0.379
			c0.379,0.014,0.76,0.002,1.141,0.002c-0.002,1.098-0.002,2.193-0.004,3.289c-0.512,0-1.02,0-1.531,0
			C374.527,250.504,374.518,250.077,374.51,249.645"/>
		<path fill="#B3B3B3" d="M378.104,245.674c0.525-0.002,1.051-0.002,1.576-0.002c0,0.951-0.002,1.902-0.002,2.854
			c-0.523,0-1.047,0-1.568,0C378.107,247.575,378.105,246.624,378.104,245.674"/>
		<path fill="#B3B3B3" d="M363.395,248.526c0.523,0,1.047,0,1.568-0.002c0.002,0.873,0.004,1.746,0.006,2.619
			c-0.168,0.043-0.334,0.086-0.502,0.127c-0.84-0.268-1.266-0.789-1.1-1.721C363.428,249.217,363.389,248.868,363.395,248.526"/>
		<path fill="#B3B3B3" d="M367.006,250.825c0.51,0,1.021,0,1.529,0c0.027,0.312,0.055,0.627,0.08,0.939c0,0.623,0,1.248,0,1.871
			c-0.49-0.266-0.986-0.52-1.465-0.805c-0.094-0.057-0.154-0.238-0.158-0.365C366.982,251.918,367,251.372,367.006,250.825"/>
		<path fill="#B3B3B3" d="M378.109,248.524c0.521,0.002,1.045,0.002,1.568,0.002c0.006,0.539,0.014,1.078,0.018,1.617
			c0.006,0.395-0.129,0.695-0.543,0.812c-0.254-0.488-0.711-0.125-1.053-0.248C378.104,249.979,378.105,249.252,378.109,248.524"/>
		<path fill="#B3B3B3" d="M374.535,250.934c0.51,0,1.021,0,1.531,0c0.006,0.055,0.016,0.107,0.016,0.16
			c0.043,1.742,0.041,1.742-1.57,2.482c-0.027-0.012-0.057-0.014-0.086-0.012l0.006,0.012c0.01-0.605,0.018-1.209,0.025-1.812
			C374.484,251.487,374.51,251.209,374.535,250.934"/>
		<path fill="#B3B3B3" d="M381.695,246.663h1.596c0.006,0.357-0.033,0.725,0.027,1.072c0.113,0.652-0.148,1.037-0.742,1.246
			c-0.295-0.045-0.592-0.088-0.889-0.133C381.689,248.12,381.693,247.391,381.695,246.663"/>
		<path fill="#B3B3B3" d="M381.693,239.108h1.6v1.09c-0.543-0.297-1.084-0.596-1.627-0.893
			C381.674,239.239,381.684,239.174,381.693,239.108"/>
		<path fill="#B3B3B3" d="M359.939,248.653c0.482-0.043,0.969-0.088,1.453-0.133c0.006,0.146,0.02,0.291,0.018,0.438
			c0,0.375-0.209,0.451-0.5,0.297C360.574,249.075,360.262,248.856,359.939,248.653"/>
		<path fill="#B3B3B3" d="M378.1,250.706c0.342,0.125,0.797-0.236,1.053,0.248c-0.115,0.082-0.225,0.186-0.354,0.236
			c-0.189,0.078-0.393,0.117-0.592,0.172C378.172,251.143,378.137,250.926,378.1,250.706"/>
		<path fill="#B3B3B3" d="M381.688,248.848c0.297,0.043,0.592,0.088,0.889,0.133c-0.115,0.078-0.223,0.172-0.346,0.234
			C381.814,249.428,381.707,249.352,381.688,248.848"/>
		<path fill="#B3B3B3" d="M364.467,251.27c0.168-0.041,0.334-0.084,0.502-0.127C364.889,251.526,364.688,251.438,364.467,251.27"/>
		<path fill="#B3B3B3" d="M374.428,253.565c0.027-0.002,0.057,0,0.084,0.012C374.484,253.573,374.455,253.569,374.428,253.565"/>
	</g>
</g>
<line fill="none" stroke="#585A5E" stroke-miterlimit="10" x1="94.215" y1="113.213" x2="358.215" y2="113.213"/>
<g>
	<g>
		<g>
			<path fill-rule="evenodd" clip-rule="evenodd" fill="#B3B3B3" d="M234.303,392.821c-0.936-1.605-1.865-3.213-2.793-4.824
				c-0.076-0.131-0.16-0.17-0.307-0.17c-0.922,0.006-1.846,0.004-2.768,0.004c-0.928,0-1.857,0.002-2.789-0.004
				c-0.139,0-0.219,0.043-0.287,0.166c-0.918,1.613-1.84,3.227-2.764,4.836c-0.064,0.115-0.064,0.199,0,0.312
				c0.926,1.609,1.848,3.223,2.764,4.838c0.07,0.121,0.15,0.164,0.289,0.164c1.852-0.006,3.703-0.006,5.555,0
				c0.148,0,0.232-0.043,0.307-0.174c0.928-1.607,1.859-3.215,2.795-4.82C234.375,393.028,234.373,392.94,234.303,392.821z
				 M228.451,395.321c-1.32,0-2.342-1.025-2.336-2.35c0.004-1.309,1.027-2.324,2.34-2.324c1.32,0.002,2.342,1.025,2.336,2.352
				C230.785,394.307,229.764,395.323,228.451,395.321z"/>
			<path fill-rule="evenodd" clip-rule="evenodd" fill="#B3B3B3" d="M236.076,386.899c-0.129,0-0.219,0-0.311,0
				c-3.506,0-7.012,0.002-10.518-0.006c-0.221,0-0.346,0.055-0.463,0.26c-0.879,1.559-1.773,3.107-2.664,4.658
				c-0.041,0.072-0.086,0.139-0.141,0.229c-0.375-0.658-0.736-1.291-1.098-1.926c-0.285-0.504-0.568-1.008-0.859-1.508
				c-0.066-0.111-0.072-0.193-0.006-0.311c0.758-1.348,1.502-2.699,2.266-4.045c0.408-0.719,1.033-1.1,1.871-1.1
				c2.873,0,5.748,0,8.621,0.002c0.799,0,1.412,0.359,1.811,1.039c0.496,0.848,0.957,1.715,1.434,2.574
				C236.037,386.797,236.049,386.833,236.076,386.899z"/>
			<path fill-rule="evenodd" clip-rule="evenodd" fill="#B3B3B3" d="M219.373,389.442c0.652,1.121,1.287,2.215,1.918,3.309
				c1.186,2.049,2.369,4.098,3.549,6.15c0.074,0.131,0.154,0.174,0.303,0.174c1.814-0.008,3.627-0.004,5.441-0.004
				c0.082,0,0.166,0,0.279,0c-0.039,0.08-0.062,0.141-0.094,0.197c-0.662,1.129-1.326,2.256-1.984,3.389
				c-0.07,0.121-0.148,0.164-0.287,0.164c-1.484-0.006-2.971,0.002-4.455-0.006c-0.773-0.002-1.373-0.34-1.754-1.01
				c-1.471-2.586-2.934-5.178-4.389-7.773c-0.363-0.65-0.375-1.336-0.02-1.99c0.461-0.85,0.953-1.682,1.434-2.521
				C219.326,389.5,219.342,389.485,219.373,389.442z"/>
			<path fill-rule="evenodd" clip-rule="evenodd" fill="#B3B3B3" d="M229.822,402.817c0.045-0.082,0.068-0.129,0.096-0.174
				c1.824-3.174,3.648-6.35,5.479-9.52c0.08-0.139,0.035-0.223-0.029-0.332c-0.898-1.562-1.797-3.127-2.693-4.693
				c-0.043-0.076-0.082-0.154-0.137-0.256c0.1-0.006,0.166-0.012,0.232-0.012c1.219,0,2.438,0.004,3.658-0.004
				c0.168-0.002,0.254,0.059,0.334,0.201c0.717,1.301,1.438,2.598,2.164,3.893c0.414,0.736,0.4,1.469-0.008,2.195
				c-1.096,1.949-2.199,3.898-3.299,5.846c-0.326,0.578-0.648,1.156-0.979,1.73c-0.426,0.742-1.059,1.131-1.926,1.127
				C231.764,402.815,230.812,402.817,229.822,402.817z"/>
		</g>
	</g>
	<g>
		<polygon fill="#B3B3B3" points="186.449,392.999 185.609,396.473 187.279,396.473 186.469,392.999 		"/>
		<path fill="#B3B3B3" d="M202.863,391.249c-0.066-2.09-1.764-3.764-3.869-3.764c-0.816,0-1.567,0.254-2.194,0.684
			c-1.201-2.674-3.876-4.539-6.997-4.539c-4.238,0-7.67,3.434-7.67,7.672c0,0.076-0.012,0.148-0.01,0.223
			c-2.273,0.658-3.908,3.32-3.908,5.256v0.506c0,2.516,2.76,5.487,6.111,5.487h17.873c3.352,0,6.016-2.974,6.016-5.487v-0.506
			C208.215,394.442,205.891,391.506,202.863,391.249z M189.076,398.773h-1.174l-0.436-1h-2.064l-0.453,1h-1.176l2.004-7h1.441
			l1.859,7H189.076z M194.746,398.773h-1.303l-0.908-5h-0.02l-0.9,5h-1.303l-1.363-7h1.137l0.928,6h0.02l0.928-6h1.186h0.002
			l0.945,6h0.021l0.918-6h1.113h0.002L194.746,398.773z M201.21,396.773c0,2-0.671,2.295-2.093,2.295
			c-1.746,0-1.902-0.991-1.902-1.979v-0.002v-0.166v-0.147h1v0.147v0.176c0,0.857,0.196,1.293,0.974,1.293
			c0.713,0,0.978-0.504,0.978-1.029c0-0.369-0.139-0.635-0.311-0.832s-0.446-0.324-0.761-0.418l-0.782-0.268
			c-0.514-0.197-0.887-0.43-1.127-0.738c-0.24-0.311-0.354-0.695-0.354-1.199c0-1.283,0.87-1.991,2.192-1.991
			c1.807,0,2.093,0.859,2.093,1.859h0.099v0.151v-0.151h-1v0.151v-0.146c0-0.643-0.449-1.018-1.148-1.018
			c-0.484,0-1.031,0.268-1.033,1.016c0,0.145-0.02,0.27,0.018,0.383c0.002,0.006-0.02,0.012-0.018,0.018
			c0.121,0.354,0.424,0.578,0.986,0.793l0.762,0.277c0.996,0.355,1.434,0.9,1.434,1.867c0,0.002,0-0.341,0-0.341H201.21z"/>
	</g>
</g>
<g>
	
		<rect x="192.234" y="0.644" fill="#FFFFFF" stroke="#A7A8AB" stroke-width="0.5" stroke-miterlimit="10" width="68.195" height="20.478"/>
	<g>
		<path fill="#585A5E" d="M207.512,13.048c-0.529-0.59-0.795-1.352-0.795-2.285c0-0.933,0.266-1.694,0.795-2.285
			c0.53-0.59,1.195-0.885,1.996-0.885c0.68,0,1.236,0.182,1.67,0.545c0.433,0.363,0.709,0.858,0.83,1.485h-1.021
			c-0.267-0.727-0.761-1.09-1.479-1.09c-0.534,0-0.957,0.208-1.271,0.625s-0.47,0.951-0.47,1.604s0.156,1.188,0.47,1.605
			s0.736,0.625,1.271,0.625c0.719,0,1.213-0.367,1.479-1.101h1.021c-0.121,0.634-0.397,1.132-0.83,1.495
			c-0.434,0.363-0.99,0.545-1.67,0.545C208.707,13.933,208.042,13.638,207.512,13.048z"/>
		<path fill="#585A5E" d="M213.717,13.833v-6.14h1.041v5.21h2.949v0.93H213.717z"/>
		<path fill="#585A5E" d="M220.508,7.693v6.14h-1.041v-6.14H220.508z"/>
		<path fill="#585A5E" d="M222.566,7.693h4.01v0.92h-2.989v1.62h2.71v0.909h-2.71v1.761h2.989v0.93h-4.01V7.693z"/>
		<path fill="#585A5E" d="M233.347,7.693v6.14h-0.8l-3.141-4.47v4.47h-1v-6.14h0.98l2.96,4.26v-4.26H233.347z"/>
		<path fill="#585A5E" d="M235.026,8.613v-0.92h5.12v0.92h-2.04v5.22h-1.04v-5.22H235.026z"/>
		<path fill="#585A5E" d="M241.307,12.133h1.06c0.193,0.613,0.657,0.92,1.39,0.92c0.36,0,0.648-0.081,0.865-0.245
			c0.217-0.163,0.325-0.385,0.325-0.665c0-0.22-0.068-0.395-0.205-0.524s-0.364-0.231-0.685-0.305l-1.04-0.25
			c-1.021-0.24-1.53-0.79-1.53-1.65c0-0.526,0.195-0.962,0.585-1.305c0.39-0.344,0.892-0.516,1.505-0.516
			c0.646,0,1.168,0.152,1.565,0.455c0.396,0.304,0.651,0.719,0.765,1.245h-1.04c-0.193-0.547-0.62-0.82-1.28-0.82
			c-0.333,0-0.602,0.079-0.805,0.235s-0.305,0.361-0.305,0.615c0,0.406,0.27,0.673,0.811,0.8l1.069,0.25
			c0.5,0.113,0.89,0.313,1.17,0.6c0.28,0.287,0.42,0.653,0.42,1.101c0,0.566-0.203,1.019-0.61,1.354
			c-0.406,0.337-0.934,0.505-1.58,0.505c-0.652,0-1.197-0.158-1.635-0.475C241.685,13.142,241.413,12.7,241.307,12.133z"/>
	</g>
</g>
<g>
	<polygon fill="#B3B3B3" points="263.859,383.133 254.334,400.512 248.914,401.055 255.283,390.313 	"/>
	<polygon fill="#B3B3B3" points="264.596,386.104 260.859,393.629 267.439,401.254 255.229,402.639 274.174,402.838 	"/>
</g>
</svg>
