<?xml version="1.0" encoding="utf-8"?>
<!-- Generator: Adobe Illustrator 16.0.4, SVG Export Plug-In . SVG Version: 6.00 Build 0)  -->
<!DOCTYPE svg PUBLIC "-//W3C//DTD SVG 1.0//EN" "http://www.w3.org/TR/2001/REC-SVG-20010904/DTD/svg10.dtd">
<svg version="1.0" id="Layer_1" xmlns="http://www.w3.org/2000/svg" xmlns:xlink="http://www.w3.org/1999/xlink" x="0px" y="0px"
	 width="452.664px" height="497px" viewBox="0 0 452.664 497" enable-background="new 0 0 452.664 497" xml:space="preserve">
<g>
	<rect x="-6" y="-4" fill="#F5F6F6" width="464" height="506"/>
	<g>
		<g>
			<line fill="none" stroke="#585A5E" stroke-miterlimit="10" x1="71.665" y1="163.01" x2="162.068" y2="163.01"/>
			<g>
				<polygon fill="#585A5E" points="161.047,166.5 167.092,163.01 161.047,159.52 				"/>
			</g>
		</g>
	</g>
	<g>
		<g>
			<line fill="none" stroke="#585A5E" stroke-miterlimit="10" x1="361.269" y1="306.5" x2="173.516" y2="306.5"/>
			<g>
				<polygon fill="#585A5E" points="174.537,303.01 168.492,306.5 174.537,309.99 				"/>
			</g>
		</g>
	</g>
	<g>
		<g>
			<g>
				<g>
					<path fill="#585A5E" d="M183.163,224.625h-1.162l6.261-10.442h1.124L183.163,224.625z"/>
					<path fill="#585A5E" d="M190.965,224.625h-1.162l6.261-10.442h1.124L190.965,224.625z"/>
					<path fill="#585A5E" d="M206.19,224.117v-1.207c1.014,0.487,1.934,0.73,2.761,0.73c0.346,0,0.677-0.066,0.994-0.2
						c0.316-0.134,0.556-0.325,0.718-0.575c0.163-0.25,0.244-0.521,0.244-0.813c0-0.344-0.111-0.665-0.335-0.964
						s-0.644-0.628-1.259-0.988l-0.643-0.372l-0.653-0.378c-1.154-0.682-1.731-1.528-1.731-2.541c0-0.742,0.257-1.366,0.771-1.873
						c0.514-0.506,1.316-0.76,2.408-0.76c0.703,0,1.382,0.1,2.038,0.299v1.098c-0.723-0.274-1.426-0.412-2.11-0.412
						c-0.545,0-0.985,0.145-1.321,0.433s-0.504,0.636-0.504,1.043c0,0.403,0.129,0.738,0.386,1.005
						c0.257,0.268,0.585,0.513,0.985,0.738l0.5,0.3l0.618,0.372l0.508,0.306c1.083,0.661,1.624,1.49,1.624,2.489
						c0,0.761-0.277,1.415-0.831,1.96c-0.554,0.546-1.441,0.819-2.663,0.819c-0.389,0-0.76-0.033-1.112-0.099
						C207.229,224.461,206.766,224.324,206.19,224.117z"/>
					<path fill="#585A5E" d="M219.877,223.854c-0.943,0.445-1.837,0.669-2.679,0.669c-0.639,0-1.21-0.159-1.714-0.477
						c-0.504-0.316-0.906-0.771-1.209-1.36s-0.454-1.221-0.454-1.893c0-0.647,0.144-1.269,0.432-1.865
						c0.288-0.596,0.689-1.06,1.206-1.392s1.092-0.498,1.727-0.498c0.842,0,1.519,0.3,2.028,0.9c0.51,0.6,0.765,1.524,0.765,2.775
						v0.254h-4.888c0,0.491,0.103,0.941,0.308,1.349s0.476,0.713,0.81,0.916c0.334,0.204,0.715,0.306,1.143,0.306
						c0.762,0,1.604-0.255,2.526-0.764V223.854z M215.16,220.086h3.536v-0.171c0-0.578-0.142-1.038-0.425-1.38
						c-0.284-0.342-0.663-0.512-1.137-0.512c-0.479,0-0.892,0.174-1.241,0.521C215.545,218.894,215.301,219.406,215.16,220.086z"/>
					<path fill="#585A5E" d="M221.782,224.326v-7.09h1.18v1.549c0.339-0.547,0.747-0.974,1.226-1.283
						c0.479-0.309,0.956-0.463,1.435-0.463c0.419,0,0.8,0.111,1.143,0.333c0.343,0.223,0.583,0.514,0.721,0.873
						s0.206,1.066,0.206,2.12v3.961h-1.181v-4.107c0-0.681-0.033-1.131-0.099-1.349s-0.186-0.396-0.361-0.536
						s-0.367-0.209-0.575-0.209c-0.414,0-0.859,0.196-1.336,0.59c-0.476,0.394-0.868,0.887-1.178,1.479v4.133H221.782z"/>
					<path fill="#585A5E" d="M234.324,222.732c-0.36,0.593-0.794,1.039-1.3,1.34s-0.972,0.451-1.395,0.451
						c-0.594,0-1.127-0.257-1.599-0.769c-0.473-0.512-0.709-1.288-0.709-2.329c0-0.821,0.156-1.555,0.471-2.2
						c0.313-0.646,0.732-1.155,1.258-1.529c0.525-0.375,1.176-0.562,1.951-0.562c0.225,0,0.563,0.022,1.018,0.069
						c0.067,0.009,0.169,0.019,0.305,0.032v-3.155h1.181v10.245h-1.181V222.732z M234.324,221.327v-3.044
						c-0.42-0.11-0.81-0.165-1.17-0.165c-0.729,0-1.336,0.282-1.822,0.846c-0.485,0.563-0.728,1.33-0.728,2.3
						c0,0.704,0.133,1.234,0.397,1.593c0.265,0.357,0.566,0.536,0.906,0.536c0.368,0,0.775-0.186,1.221-0.559
						S233.973,221.959,234.324,221.327z"/>
					<path fill="#585A5E" d="M244.652,224.326v-7.09h1.034v1.625c0.326-0.69,0.63-1.166,0.911-1.429s0.565-0.394,0.854-0.394
						c0.343,0,0.619,0.135,0.828,0.403c0.21,0.269,0.314,0.65,0.314,1.146v0.381c0.14-0.432,0.308-0.782,0.505-1.051
						c0.196-0.269,0.4-0.482,0.612-0.641c0.212-0.159,0.455-0.238,0.73-0.238c0.305,0,0.564,0.129,0.78,0.387
						c0.216,0.259,0.323,0.772,0.323,1.543v5.357h-1.034v-4.844c0-0.397-0.013-0.669-0.038-0.815
						c-0.025-0.146-0.076-0.257-0.152-0.333s-0.158-0.114-0.248-0.114c-0.22,0-0.455,0.168-0.707,0.505
						c-0.252,0.336-0.509,0.894-0.771,1.672v3.93h-0.984v-4.837c0-0.626-0.062-0.994-0.185-1.104s-0.233-0.165-0.331-0.165
						c-0.217,0-0.449,0.188-0.697,0.565c-0.248,0.376-0.485,0.858-0.71,1.447v4.094H244.652z"/>
					<path fill="#585A5E" d="M258.884,223.854c-0.943,0.445-1.837,0.669-2.679,0.669c-0.639,0-1.21-0.159-1.714-0.477
						c-0.504-0.316-0.906-0.771-1.209-1.36s-0.454-1.221-0.454-1.893c0-0.647,0.144-1.269,0.432-1.865
						c0.288-0.596,0.689-1.06,1.206-1.392s1.092-0.498,1.727-0.498c0.842,0,1.519,0.3,2.028,0.9c0.51,0.6,0.765,1.524,0.765,2.775
						v0.254h-4.888c0,0.491,0.103,0.941,0.308,1.349s0.476,0.713,0.81,0.916c0.334,0.204,0.715,0.306,1.143,0.306
						c0.762,0,1.604-0.255,2.526-0.764V223.854z M254.167,220.086h3.536v-0.171c0-0.578-0.142-1.038-0.425-1.38
						c-0.284-0.342-0.663-0.512-1.137-0.512c-0.479,0-0.892,0.174-1.241,0.521C254.552,218.894,254.308,219.406,254.167,220.086z"/>
					<path fill="#585A5E" d="M260.87,223.951v-1.25c0.474,0.309,0.976,0.525,1.504,0.65c0.529,0.125,0.979,0.188,1.346,0.188
						c0.598,0,1.026-0.097,1.289-0.289s0.394-0.433,0.394-0.721c0-0.189-0.062-0.353-0.185-0.488
						c-0.122-0.136-0.427-0.303-0.914-0.502l-0.406-0.164l-0.818-0.324c-0.88-0.343-1.435-0.66-1.663-0.952
						c-0.232-0.288-0.349-0.639-0.349-1.054c0-0.584,0.225-1.064,0.677-1.441c0.451-0.376,1.183-0.564,2.195-0.564
						c0.759,0,1.477,0.11,2.155,0.33v1.072c-0.78-0.279-1.514-0.418-2.2-0.418c-0.501,0-0.892,0.087-1.174,0.263
						c-0.281,0.176-0.423,0.395-0.423,0.657c0,0.254,0.123,0.457,0.369,0.609c0.24,0.152,0.635,0.328,1.182,0.527l0.8,0.291
						c0.733,0.268,1.247,0.557,1.543,0.87c0.295,0.313,0.442,0.704,0.442,1.175c0,0.613-0.236,1.118-0.708,1.514
						s-1.226,0.594-2.263,0.594C262.758,224.523,261.826,224.332,260.87,223.951z"/>
					<path fill="#585A5E" d="M268.671,223.951v-1.25c0.474,0.309,0.976,0.525,1.504,0.65c0.529,0.125,0.979,0.188,1.346,0.188
						c0.598,0,1.026-0.097,1.289-0.289s0.394-0.433,0.394-0.721c0-0.189-0.062-0.353-0.185-0.488
						c-0.122-0.136-0.427-0.303-0.914-0.502l-0.406-0.164l-0.818-0.324c-0.88-0.343-1.435-0.66-1.663-0.952
						c-0.232-0.288-0.349-0.639-0.349-1.054c0-0.584,0.225-1.064,0.677-1.441c0.451-0.376,1.183-0.564,2.195-0.564
						c0.759,0,1.477,0.11,2.155,0.33v1.072c-0.78-0.279-1.514-0.418-2.2-0.418c-0.501,0-0.892,0.087-1.174,0.263
						c-0.281,0.176-0.423,0.395-0.423,0.657c0,0.254,0.123,0.457,0.369,0.609c0.24,0.152,0.635,0.328,1.182,0.527l0.8,0.291
						c0.733,0.268,1.247,0.557,1.543,0.87c0.295,0.313,0.442,0.704,0.442,1.175c0,0.613-0.236,1.118-0.708,1.514
						s-1.226,0.594-2.263,0.594C270.559,224.523,269.627,224.332,268.671,223.951z"/>
					<path fill="#585A5E" d="M281.051,222.74c-0.359,0.59-0.793,1.034-1.299,1.334c-0.506,0.299-0.97,0.449-1.394,0.449
						c-0.593,0-1.125-0.257-1.597-0.769s-0.708-1.288-0.708-2.329c0-0.821,0.156-1.555,0.471-2.2
						c0.313-0.646,0.732-1.155,1.258-1.529c0.525-0.375,1.176-0.562,1.951-0.562c0.225,0,0.562,0.022,1.015,0.069
						c0.067,0.009,0.169,0.019,0.304,0.032h1.185v5.007c0,0.855,0.091,1.55,0.273,2.083h-1.232
						C281.183,223.938,281.107,223.41,281.051,222.74z M281.056,221.327v-3.044c-0.42-0.11-0.81-0.165-1.17-0.165
						c-0.729,0-1.336,0.282-1.822,0.846c-0.485,0.563-0.728,1.33-0.728,2.3c0,0.704,0.133,1.234,0.397,1.593
						c0.265,0.357,0.566,0.536,0.906,0.536c0.368,0,0.775-0.186,1.221-0.559S280.704,221.959,281.056,221.327z"/>
					<path fill="#585A5E" d="M288.934,222.732c-0.36,0.593-0.794,1.039-1.3,1.34s-0.972,0.451-1.395,0.451
						c-0.594,0-1.127-0.257-1.599-0.769c-0.473-0.512-0.709-1.288-0.709-2.329c0-0.821,0.156-1.555,0.471-2.2
						c0.313-0.646,0.732-1.155,1.258-1.529c0.525-0.375,1.176-0.562,1.951-0.562c0.225,0,0.562,0.022,1.015,0.069
						c0.067,0.009,0.169,0.019,0.304,0.032h1.185v5.014c0,1.193-0.016,1.923-0.046,2.188c-0.031,0.265-0.081,0.532-0.151,0.803
						c-0.169,0.631-0.556,1.128-1.159,1.492c-0.604,0.363-1.333,0.545-2.189,0.545c-0.859,0-1.73-0.22-2.611-0.66v-1.193
						c0.335,0.229,0.747,0.431,1.236,0.606s0.963,0.264,1.42,0.264c0.36,0,0.702-0.058,1.023-0.171
						c0.322-0.115,0.583-0.28,0.782-0.496s0.335-0.467,0.406-0.752c0.072-0.286,0.108-0.666,0.108-1.14V222.732z M288.934,221.327
						v-3.044c-0.42-0.11-0.81-0.165-1.17-0.165c-0.729,0-1.336,0.282-1.822,0.846c-0.485,0.563-0.728,1.33-0.728,2.3
						c0,0.704,0.133,1.234,0.397,1.593c0.265,0.357,0.566,0.536,0.906,0.536c0.368,0,0.775-0.186,1.221-0.559
						S288.582,221.959,288.934,221.327z"/>
					<path fill="#585A5E" d="M297.89,223.854c-0.943,0.445-1.837,0.669-2.679,0.669c-0.639,0-1.21-0.159-1.714-0.477
						c-0.504-0.316-0.906-0.771-1.209-1.36s-0.454-1.221-0.454-1.893c0-0.647,0.144-1.269,0.432-1.865
						c0.288-0.596,0.689-1.06,1.206-1.392s1.092-0.498,1.727-0.498c0.842,0,1.519,0.3,2.028,0.9c0.51,0.6,0.765,1.524,0.765,2.775
						v0.254h-4.888c0,0.491,0.103,0.941,0.308,1.349s0.476,0.713,0.81,0.916c0.334,0.204,0.715,0.306,1.143,0.306
						c0.762,0,1.604-0.255,2.526-0.764V223.854z M293.173,220.086h3.536v-0.171c0-0.578-0.142-1.038-0.425-1.38
						c-0.284-0.342-0.663-0.512-1.137-0.512c-0.479,0-0.892,0.174-1.241,0.521C293.558,218.894,293.313,219.406,293.173,220.086z"/>
					<path fill="#585A5E" d="M299.876,223.951v-1.25c0.474,0.309,0.976,0.525,1.504,0.65c0.529,0.125,0.979,0.188,1.346,0.188
						c0.598,0,1.026-0.097,1.289-0.289s0.394-0.433,0.394-0.721c0-0.189-0.062-0.353-0.185-0.488
						c-0.122-0.136-0.427-0.303-0.914-0.502l-0.406-0.164l-0.818-0.324c-0.88-0.343-1.435-0.66-1.663-0.952
						c-0.232-0.288-0.349-0.639-0.349-1.054c0-0.584,0.225-1.064,0.677-1.441c0.451-0.376,1.183-0.564,2.195-0.564
						c0.759,0,1.477,0.11,2.155,0.33v1.072c-0.78-0.279-1.514-0.418-2.2-0.418c-0.501,0-0.892,0.087-1.174,0.263
						c-0.281,0.176-0.423,0.395-0.423,0.657c0,0.254,0.123,0.457,0.369,0.609c0.24,0.152,0.635,0.328,1.182,0.527l0.8,0.291
						c0.733,0.268,1.247,0.557,1.543,0.87c0.295,0.313,0.442,0.704,0.442,1.175c0,0.613-0.236,1.118-0.708,1.514
						s-1.226,0.594-2.263,0.594C301.764,224.523,300.832,224.332,299.876,223.951z"/>
					<path fill="#585A5E" d="M321.325,224.041c-0.554,0.232-0.956,0.371-1.205,0.415c-0.25,0.045-0.491,0.067-0.725,0.067
						c-0.494,0-0.947-0.096-1.357-0.286c-0.411-0.19-0.721-0.472-0.931-0.845c-0.209-0.372-0.313-0.947-0.313-1.727v-2.855h-1.771
						v-0.984h1.771v-2.856h1.18v2.856h3.155v0.984h-3.155v2.837c0,0.571,0.068,0.975,0.203,1.209
						c0.136,0.235,0.316,0.407,0.543,0.518s0.494,0.165,0.803,0.165c0.572,0,1.173-0.18,1.803-0.539V224.041z"/>
					<path fill="#585A5E" d="M326.111,224.625c-0.283,0-0.526-0.102-0.729-0.305s-0.305-0.447-0.305-0.73
						c0-0.288,0.103-0.532,0.308-0.733s0.447-0.302,0.727-0.302s0.521,0.101,0.727,0.302s0.308,0.445,0.308,0.733
						c0,0.283-0.102,0.527-0.305,0.73S326.395,224.625,326.111,224.625z"/>
					<path fill="#585A5E" d="M333.912,224.625c-0.283,0-0.526-0.102-0.729-0.305s-0.305-0.447-0.305-0.73
						c0-0.288,0.103-0.532,0.308-0.733s0.447-0.302,0.727-0.302s0.521,0.101,0.727,0.302s0.308,0.445,0.308,0.733
						c0,0.283-0.102,0.527-0.305,0.73S334.195,224.625,333.912,224.625z"/>
					<path fill="#585A5E" d="M341.714,224.625c-0.283,0-0.526-0.102-0.729-0.305s-0.305-0.447-0.305-0.73
						c0-0.288,0.103-0.532,0.308-0.733s0.447-0.302,0.727-0.302s0.521,0.101,0.727,0.302s0.308,0.445,0.308,0.733
						c0,0.283-0.102,0.527-0.305,0.73S341.997,224.625,341.714,224.625z"/>
				</g>
			</g>
		</g>
	</g>
	<rect x="24.315" y="74.936" fill="#FFFFFF" width="94.699" height="40"/>
	<g>
		<g>
			<path fill="#696C71" d="M49.834,97.75c-0.688-0.767-1.033-1.756-1.033-2.971c0-1.213,0.345-2.203,1.033-2.97
				c0.689-0.767,1.554-1.15,2.594-1.15c0.884,0,1.607,0.235,2.171,0.708s0.923,1.116,1.079,1.931h-1.326
				c-0.347-0.944-0.987-1.417-1.924-1.417c-0.693,0-1.243,0.271-1.65,0.812c-0.408,0.542-0.611,1.237-0.611,2.086
				c0,0.85,0.203,1.546,0.611,2.088c0.407,0.541,0.957,0.812,1.65,0.812c0.937,0,1.577-0.477,1.924-1.431h1.326
				c-0.156,0.823-0.516,1.472-1.079,1.943c-0.563,0.473-1.287,0.708-2.171,0.708C51.388,98.9,50.523,98.518,49.834,97.75z"/>
			<path fill="#696C71" d="M60.085,90.789h1.3l3.067,7.982h-1.378l-0.818-2.211H59.2l-0.818,2.211h-1.365L60.085,90.789z
				 M60.722,92.439l-1.092,2.951h2.184L60.722,92.439z"/>
			<path fill="#696C71" d="M66.246,98.771v-7.982h1.353v6.773h3.835v1.209H66.246z"/>
			<path fill="#696C71" d="M73.461,98.771v-7.982h1.353v6.773h3.835v1.209H73.461z"/>
			<path fill="#696C71" d="M80.676,90.789h5.214v1.195h-3.888v2.106h3.523v1.183h-3.523v2.289h3.888v1.209h-5.214V90.789z"/>
			<path fill="#696C71" d="M90.322,95.534H89.36v3.237h-1.353v-7.982h3.081c0.841,0,1.504,0.206,1.989,0.617
				c0.485,0.412,0.729,1.004,0.729,1.775c0,0.658-0.181,1.18-0.54,1.566c-0.359,0.385-0.86,0.63-1.501,0.734l2.313,3.289h-1.534
				L90.322,95.534z M89.36,91.959v2.443h1.703c0.441,0,0.786-0.109,1.033-0.331c0.247-0.221,0.37-0.518,0.37-0.89
				c0-0.373-0.123-0.67-0.37-0.891c-0.247-0.222-0.592-0.332-1.033-0.332H89.36z"/>
		</g>
	</g>
	<rect x="24.315" y="401.348" fill="#FFFFFF" width="94.699" height="40"/>
	<g>
		<g>
			<path fill="#696C71" d="M49.834,424.162c-0.688-0.768-1.033-1.758-1.033-2.971s0.345-2.203,1.033-2.971
				c0.689-0.768,1.554-1.15,2.594-1.15c0.884,0,1.607,0.236,2.171,0.709s0.923,1.115,1.079,1.93h-1.326
				c-0.347-0.945-0.987-1.416-1.924-1.416c-0.693,0-1.243,0.27-1.65,0.812c-0.408,0.541-0.611,1.236-0.611,2.086
				s0.203,1.545,0.611,2.086c0.407,0.543,0.957,0.812,1.65,0.812c0.937,0,1.577-0.477,1.924-1.43h1.326
				c-0.156,0.824-0.516,1.471-1.079,1.943s-1.287,0.709-2.171,0.709C51.388,425.312,50.523,424.928,49.834,424.162z"/>
			<path fill="#696C71" d="M60.085,417.199h1.3l3.067,7.982h-1.378l-0.818-2.209H59.2l-0.818,2.209h-1.365L60.085,417.199z
				 M60.722,418.852l-1.092,2.951h2.184L60.722,418.852z"/>
			<path fill="#696C71" d="M66.246,425.182v-7.982h1.353v6.773h3.835v1.209H66.246z"/>
			<path fill="#696C71" d="M73.461,425.182v-7.982h1.353v6.773h3.835v1.209H73.461z"/>
			<path fill="#696C71" d="M80.676,417.199h5.214v1.197h-3.888v2.105h3.523v1.184h-3.523v2.287h3.888v1.209h-5.214V417.199z"/>
			<path fill="#696C71" d="M90.322,421.945H89.36v3.236h-1.353v-7.982h3.081c0.841,0,1.504,0.207,1.989,0.619
				c0.485,0.41,0.729,1.002,0.729,1.773c0,0.658-0.181,1.182-0.54,1.566c-0.359,0.387-0.86,0.631-1.501,0.734l2.313,3.289h-1.534
				L90.322,421.945z M89.36,418.371v2.443h1.703c0.441,0,0.786-0.111,1.033-0.332s0.37-0.518,0.37-0.891s-0.123-0.67-0.37-0.891
				s-0.592-0.33-1.033-0.33H89.36z"/>
		</g>
	</g>
	<g>
		<g>
			<path fill="#20B6AF" d="M165.182,417.199h1.092l1.509,5.876l1.442-5.876h1.3l-2.054,7.982h-1.248l-1.508-5.707l-1.534,5.707
				h-1.234l-2.055-7.982h1.326l1.443,5.876L165.182,417.199z"/>
			<path fill="#20B6AF" d="M174.827,417.199v7.982h-1.312v-6.357l-1.872,0.949v-1.365l2.392-1.209H174.827z"/>
		</g>
	</g>
	<line fill="none" stroke="#696C71" stroke-miterlimit="10" x1="71.665" y1="114.936" x2="71.665" y2="401.906"/>
	
		<line fill="none" stroke="#20B6AF" stroke-width="0.7252" stroke-miterlimit="10" x1="207.192" y1="114.436" x2="129.782" y2="114.436"/>
	
		<line fill="none" stroke="#20B6AF" stroke-width="0.7252" stroke-miterlimit="10" x1="129.782" y1="401.848" x2="207.192" y2="401.848"/>
	<line fill="none" stroke="#20B6AF" stroke-miterlimit="10" x1="168.487" y1="114.936" x2="168.487" y2="401.848"/>
	<g>
		<path fill="#FFFFFF" stroke="#585A5E" stroke-miterlimit="10" d="M186.79,196.213c0,2.215-1.795,4.01-4.01,4.01h-28.588
			c-2.215,0-4.008-1.795-4.008-4.01v-8.76c0-2.213,1.793-4.01,4.008-4.01h28.588c2.215,0,4.01,1.797,4.01,4.01V196.213z"/>
		<g>
			<circle fill="#585A5E" cx="160.287" cy="192.285" r="2.05"/>
			<circle fill="#585A5E" cx="168.486" cy="192.285" r="2.05"/>
			<circle fill="#585A5E" cx="176.686" cy="192.285" r="2.05"/>
		</g>
	</g>
	<g>
		<g>
			<path fill="#20B6AF" d="M357.362,417.199h1.092l1.509,5.876l1.442-5.876h1.3l-2.054,7.982h-1.248l-1.508-5.707l-1.534,5.707
				h-1.234l-2.055-7.982h1.326l1.443,5.876L357.362,417.199z"/>
			<path fill="#20B6AF" d="M367.854,419.396c0-0.338-0.111-0.611-0.332-0.818c-0.221-0.208-0.518-0.312-0.891-0.312
				c-0.381,0-0.683,0.123-0.903,0.37s-0.345,0.565-0.37,0.956h-1.392c0.078-0.754,0.357-1.363,0.839-1.826
				c0.481-0.464,1.09-0.696,1.826-0.696c0.798,0,1.419,0.208,1.866,0.624c0.446,0.416,0.669,0.979,0.669,1.69
				c0,0.104-0.009,0.208-0.025,0.312c-0.018,0.104-0.048,0.213-0.092,0.325c-0.043,0.113-0.082,0.21-0.116,0.293
				c-0.035,0.082-0.096,0.184-0.183,0.305c-0.087,0.122-0.151,0.215-0.195,0.28c-0.043,0.064-0.121,0.167-0.233,0.306
				c-0.113,0.139-0.19,0.231-0.234,0.279c-0.043,0.048-0.137,0.149-0.279,0.306c-0.143,0.155-0.231,0.255-0.267,0.299l-1.716,1.911
				h3.471v1.183h-5.316v-0.884l2.365-2.626c0.061-0.061,0.15-0.156,0.267-0.286c0.117-0.13,0.204-0.226,0.261-0.286
				c0.056-0.061,0.132-0.147,0.228-0.26c0.095-0.112,0.166-0.202,0.214-0.267c0.048-0.065,0.106-0.146,0.176-0.24
				c0.069-0.096,0.121-0.178,0.156-0.247c0.034-0.069,0.071-0.146,0.11-0.228c0.039-0.083,0.064-0.16,0.078-0.234
				C367.847,419.551,367.854,419.475,367.854,419.396z"/>
		</g>
	</g>
	
		<line fill="none" stroke="#20B6AF" stroke-width="0.7252" stroke-miterlimit="10" x1="400.302" y1="114.574" x2="322.892" y2="114.574"/>
	
		<line fill="none" stroke="#20B6AF" stroke-width="0.7252" stroke-miterlimit="10" x1="322.892" y1="401.984" x2="400.302" y2="401.984"/>
	<line fill="none" stroke="#20B6AF" stroke-miterlimit="10" x1="361.597" y1="114.936" x2="361.597" y2="401.984"/>
	<g>
		<g>
			<g>
				<path fill="#20B6AF" d="M166.867,90.789h1.092l1.509,5.876l1.442-5.876h1.3l-2.054,7.982h-1.248l-1.508-5.707l-1.534,5.707
					h-1.234l-2.055-7.982h1.326l1.443,5.876L166.867,90.789z"/>
				<path fill="#20B6AF" d="M176.513,90.789v7.982H175.2v-6.357l-1.872,0.949v-1.365l2.392-1.209H176.513z"/>
			</g>
		</g>
		<g id="cXyJnD_9_">
			<g>
				<g>
					<path fill-rule="evenodd" clip-rule="evenodd" fill="#20B5AE" d="M163.155,62.251c-0.193,0.473-0.055,0.843,0.303,1.195
						c1.283,1.262,2.553,2.541,3.824,3.815c0.24,0.24,0.51,0.353,0.848,0.253c0.402-0.119,0.594-0.36,0.596-0.781
						c0.004-0.752,0.002-1.504,0.002-2.255c0-0.073,0.004-0.146,0.006-0.229c1.305,0.054,2.492,0.428,3.541,1.199
						c1.361,1,2.258,2.318,2.602,3.976c0.422,2.046-0.027,3.916-1.365,5.518c-2.207,2.64-5.918,3.158-8.74,1.19
						c-2.014-1.404-2.943-3.398-2.77-5.86c0.049-0.679-0.143-0.801-0.727-0.783c-0.684,0.021-1.369,0.008-2.053,0.012
						c-0.33,0.003-0.473,0.134-0.498,0.466c-0.191,2.51,0.451,4.787,2.002,6.767c2.068,2.645,4.83,3.916,8.176,3.826
						c2.068-0.056,3.938-0.771,5.584-2.035c0.158-0.122,0.318-0.241,0.479-0.361c0.305-0.304,0.611-0.609,0.914-0.915
						c0.164-0.209,0.334-0.415,0.488-0.631c1.398-1.966,2.07-4.146,1.889-6.563c-0.135-1.768-0.699-3.396-1.711-4.859
						c-0.211-0.305-0.441-0.595-0.666-0.891c-0.293-0.295-0.588-0.59-0.883-0.884c-0.17-0.131-0.34-0.261-0.512-0.392
						c-1.23-0.938-2.604-1.57-4.125-1.858c-0.531-0.102-1.068-0.147-1.646-0.224c0.006-0.09,0.021-0.193,0.021-0.296
						c0-0.67,0-1.34-0.01-2.009c-0.006-0.464-0.287-0.776-0.75-0.807c-0.16-0.012-0.328,0.059-0.494,0.092
						C166.038,59.367,164.597,60.809,163.155,62.251z"/>
				</g>
			</g>
		</g>
	</g>
	<g>
		<g>
			<g>
				<path fill="#20B6AF" d="M358.738,90.789h1.092l1.509,5.876l1.442-5.876h1.3l-2.054,7.982h-1.248l-1.508-5.707l-1.534,5.707
					h-1.234l-2.055-7.982h1.326l1.443,5.876L358.738,90.789z"/>
				<path fill="#20B6AF" d="M369.229,92.986c0-0.338-0.111-0.611-0.332-0.819s-0.518-0.312-0.891-0.312
					c-0.381,0-0.683,0.123-0.903,0.37s-0.345,0.565-0.37,0.956h-1.392c0.078-0.755,0.357-1.363,0.839-1.827s1.09-0.695,1.826-0.695
					c0.798,0,1.419,0.208,1.866,0.624c0.446,0.416,0.669,0.979,0.669,1.689c0,0.104-0.009,0.209-0.025,0.312
					c-0.018,0.104-0.048,0.213-0.092,0.324c-0.043,0.113-0.082,0.211-0.116,0.293c-0.035,0.082-0.096,0.185-0.183,0.306
					c-0.087,0.122-0.151,0.214-0.195,0.279c-0.043,0.065-0.121,0.167-0.233,0.306c-0.113,0.139-0.19,0.232-0.234,0.279
					c-0.043,0.048-0.137,0.15-0.279,0.306c-0.143,0.156-0.231,0.256-0.267,0.299l-1.716,1.911h3.471v1.184h-5.316v-0.885
					l2.365-2.625c0.061-0.061,0.15-0.156,0.267-0.287c0.117-0.129,0.204-0.225,0.261-0.285c0.056-0.061,0.132-0.148,0.228-0.26
					c0.095-0.113,0.166-0.202,0.214-0.268c0.048-0.064,0.106-0.145,0.176-0.24s0.121-0.178,0.156-0.247
					c0.034-0.069,0.071-0.146,0.11-0.228s0.064-0.16,0.078-0.234C369.223,93.141,369.229,93.064,369.229,92.986z"/>
			</g>
		</g>
		<g id="cXyJnD_3_">
			<g>
				<g>
					<path fill-rule="evenodd" clip-rule="evenodd" fill="#20B5AE" d="M355.944,62.25c-0.194,0.474-0.057,0.844,0.302,1.196
						c1.284,1.262,2.553,2.541,3.824,3.815c0.24,0.24,0.509,0.353,0.848,0.253c0.401-0.119,0.593-0.36,0.596-0.781
						c0.004-0.753,0.002-1.504,0.002-2.255c0-0.073,0.005-0.146,0.006-0.229c1.305,0.054,2.491,0.428,3.541,1.199
						c1.361,1,2.257,2.318,2.602,3.976c0.422,2.046-0.027,3.916-1.365,5.517c-2.207,2.641-5.919,3.159-8.74,1.191
						c-2.015-1.404-2.942-3.398-2.771-5.86c0.05-0.679-0.142-0.801-0.726-0.783c-0.685,0.021-1.368,0.008-2.054,0.012
						c-0.331,0.003-0.472,0.134-0.498,0.466c-0.19,2.51,0.452,4.787,2.002,6.767c2.069,2.645,4.831,3.916,8.177,3.825
						c2.068-0.055,3.938-0.77,5.584-2.035c0.158-0.121,0.319-0.24,0.478-0.36c0.306-0.305,0.612-0.609,0.916-0.916
						c0.162-0.208,0.333-0.414,0.486-0.631c1.398-1.965,2.07-4.146,1.889-6.562c-0.135-1.768-0.697-3.396-1.71-4.859
						c-0.21-0.305-0.442-0.595-0.665-0.891c-0.293-0.295-0.589-0.59-0.885-0.884c-0.169-0.131-0.34-0.261-0.511-0.392
						c-1.231-0.939-2.603-1.57-4.125-1.858c-0.53-0.102-1.069-0.147-1.646-0.224c0.006-0.09,0.021-0.193,0.021-0.296
						c0-0.67,0-1.34-0.011-2.009c-0.005-0.464-0.286-0.776-0.749-0.807c-0.16-0.012-0.329,0.059-0.494,0.092
						C358.827,59.367,357.385,60.809,355.944,62.25z"/>
				</g>
			</g>
		</g>
	</g>
	<g>
		<g>
			<line fill="none" stroke="#585A5E" stroke-miterlimit="10" x1="168.492" y1="163.01" x2="356.245" y2="163.01"/>
			<g>
				<polygon fill="#585A5E" points="355.224,166.5 361.269,163.01 355.224,159.52 				"/>
			</g>
		</g>
	</g>
	<g>
		<path fill="#FFFFFF" stroke="#585A5E" stroke-miterlimit="10" d="M379.899,196.213c0,2.215-1.795,4.01-4.01,4.01h-28.588
			c-2.215,0-4.008-1.795-4.008-4.01v-8.76c0-2.213,1.793-4.01,4.008-4.01h28.588c2.215,0,4.01,1.797,4.01,4.01V196.213z"/>
		<g>
			<circle fill="#585A5E" cx="353.396" cy="192.285" r="2.05"/>
			<circle fill="#585A5E" cx="361.596" cy="192.285" r="2.05"/>
			<circle fill="#585A5E" cx="369.795" cy="192.285" r="2.05"/>
		</g>
	</g>
	<g>
		<g>
			<line fill="none" stroke="#585A5E" stroke-miterlimit="10" x1="168.492" y1="232.465" x2="356.245" y2="232.465"/>
			<g>
				<polygon fill="#585A5E" points="355.224,235.955 361.269,232.465 355.224,228.975 				"/>
			</g>
		</g>
	</g>
	<g>
		<path fill="#FFFFFF" stroke="#585A5E" stroke-miterlimit="10" d="M186.432,270.359c0,2.215-1.795,4.01-4.01,4.01h-28.588
			c-2.215,0-4.008-1.795-4.008-4.01v-8.76c0-2.213,1.793-4.01,4.008-4.01h28.588c2.215,0,4.01,1.797,4.01,4.01V270.359z"/>
		<g>
			<circle fill="#585A5E" cx="159.929" cy="266.432" r="2.05"/>
			<circle fill="#585A5E" cx="168.128" cy="266.432" r="2.05"/>
			<circle fill="#585A5E" cx="176.327" cy="266.432" r="2.05"/>
		</g>
	</g>
	<g>
		<path fill="#FFFFFF" stroke="#585A5E" stroke-miterlimit="10" d="M186.789,344.505c0,2.215-1.795,4.01-4.01,4.01h-28.588
			c-2.215,0-4.008-1.795-4.008-4.01v-8.76c0-2.213,1.793-4.01,4.008-4.01h28.588c2.215,0,4.01,1.797,4.01,4.01V344.505z"/>
		<g>
			<circle fill="#585A5E" cx="160.286" cy="340.577" r="2.05"/>
			<circle fill="#585A5E" cx="168.485" cy="340.577" r="2.05"/>
			<circle fill="#585A5E" cx="176.685" cy="340.577" r="2.05"/>
		</g>
	</g>
	<g>
		<g>
			<g>
				<g>
					<path fill="#585A5E" d="M182.883,301.227v-1.099c0.66,0.194,1.217,0.292,1.67,0.292c0.393,0,0.727-0.068,1.002-0.206
						s0.49-0.369,0.645-0.695s0.232-0.893,0.232-1.701v-5.472h-3.01v-0.983h4.189v6.229c0,1.201-0.143,2.035-0.426,2.503
						s-0.625,0.803-1.027,1.006c-0.402,0.202-0.953,0.304-1.65,0.304C184.004,301.403,183.463,301.345,182.883,301.227z
						 M186.24,288.801c0-0.266,0.09-0.464,0.27-0.595s0.354-0.195,0.518-0.195c0.166,0,0.338,0.064,0.518,0.195
						s0.27,0.329,0.27,0.595c0,0.261-0.09,0.457-0.27,0.588s-0.352,0.196-0.518,0.196c-0.164,0-0.338-0.065-0.518-0.196
						S186.24,289.062,186.24,288.801z"/>
					<path fill="#585A5E" d="M190.043,295.002l6.893-3.45v1.101l-4.709,2.343l4.709,2.372v1.085L190.043,295.002z"/>
					<path fill="#585A5E" d="M198.834,294.954v-0.983h4.926v0.983H198.834z"/>
					<path fill="#585A5E" d="M206.477,298.452l-1.156-7.09h1.1l0.674,4.316l0.18,1.002l0.17-1.002l1.127-4.316h1.061l1.279,4.316
						l0.223,1.002l0.145-1.002l0.678-4.316h0.906l-1.148,7.09h-1.105l-1.357-4.564l-0.217-1.002h-0.031l-0.197,0.996l-1.18,4.57
						H206.477z"/>
					<path fill="#585A5E" d="M219.902,298.452h-5.961v-1.086c0-0.279,0.057-0.578,0.172-0.897c0.113-0.319,0.332-0.679,0.652-1.076
						c0.322-0.397,0.662-0.78,1.021-1.149l0.672-0.686c0.135-0.139,0.432-0.463,0.887-0.971c0.457-0.508,0.758-0.897,0.902-1.168
						c0.146-0.271,0.219-0.537,0.219-0.8c0-0.423-0.168-0.75-0.506-0.98s-0.719-0.347-1.143-0.347c-0.24,0-0.51,0.028-0.807,0.083
						c-0.299,0.055-0.559,0.119-0.783,0.193s-0.588,0.226-1.09,0.454v-1.047c0.533-0.254,1.066-0.429,1.602-0.524
						c0.535-0.095,0.977-0.143,1.324-0.143c0.512,0,0.982,0.084,1.412,0.251s0.75,0.426,0.959,0.777s0.314,0.726,0.314,1.123
						c0,0.445-0.135,0.899-0.406,1.365c-0.27,0.466-0.777,1.064-1.521,1.797l-0.723,0.717l-0.607,0.597
						c-0.385,0.39-0.697,0.766-0.934,1.13s-0.367,0.798-0.393,1.301h4.736V298.452z"/>
				</g>
			</g>
		</g>
	</g>
	<g>
		<g>
			<g>
				<g>
					<path fill="#585A5E" d="M376.287,232.462l-3.08-7.09h1.295l2.434,5.618l2.475-5.618h1.186l-3.104,7.09H376.287z"/>
					<path fill="#585A5E" d="M382.115,232.462l-1.143-9.852h1.169l0.67,5.999l0.09,0.996h0.032l0.127-0.997l1.04-5.998h1.164
						l1.18,6.24l0.12,0.951h0.032l0.076-0.958l0.742-6.233h1.003l-1.193,9.852h-1.212l-1.27-6.678l-0.134-1.003h-0.031l-0.121,1.003
						l-1.143,6.678H382.115z"/>
					<path fill="#585A5E" d="M392.202,231.478v-7.598c-0.355,0.282-0.7,0.522-1.035,0.72c-0.334,0.198-0.793,0.4-1.377,0.606v-1.066
						c0.927-0.393,1.73-0.903,2.412-1.529h1.181v8.867h2.368v0.984h-5.961v-0.984H392.202z"/>
					<path fill="#585A5E" d="M396.85,229.012l6.893-3.45v1.101l-4.71,2.343l4.71,2.372v1.085L396.85,229.012z"/>
					<path fill="#585A5E" d="M405.641,228.964v-0.983h4.926v0.983H405.641z"/>
					<path fill="#585A5E" d="M413.282,232.462l-1.155-7.09h1.1l0.674,4.316l0.179,1.002l0.171-1.002l1.127-4.316h1.061l1.278,4.316
						l0.223,1.002l0.146-1.002l0.678-4.316h0.906l-1.148,7.09h-1.105l-1.357-4.564l-0.217-1.002h-0.031l-0.197,0.996l-1.18,4.57
						H413.282z"/>
					<path fill="#585A5E" d="M423.407,231.478v-7.598c-0.355,0.282-0.7,0.522-1.035,0.72c-0.334,0.198-0.793,0.4-1.377,0.606v-1.066
						c0.927-0.393,1.73-0.903,2.412-1.529h1.181v8.867h2.368v0.984h-5.961v-0.984H423.407z"/>
				</g>
			</g>
		</g>
	</g>
	<g>
		<g>
			<g>
				<g>
					<path fill="#585A5E" d="M374.086,309.272v-1.099c0.66,0.194,1.217,0.292,1.67,0.292c0.393,0,0.728-0.068,1.002-0.206
						c0.275-0.138,0.49-0.369,0.645-0.695s0.232-0.893,0.232-1.701v-5.472h-3.01v-0.983h4.189v6.229
						c0,1.201-0.142,2.035-0.425,2.503s-0.626,0.803-1.028,1.006c-0.402,0.202-0.952,0.304-1.65,0.304
						C375.207,309.449,374.666,309.391,374.086,309.272z M377.443,296.847c0-0.266,0.091-0.464,0.271-0.595s0.353-0.195,0.517-0.195
						c0.166,0,0.338,0.064,0.518,0.195s0.27,0.329,0.27,0.595c0,0.261-0.09,0.457-0.27,0.588s-0.352,0.196-0.518,0.196
						c-0.164,0-0.337-0.065-0.517-0.196S377.443,297.107,377.443,296.847z"/>
					<path fill="#585A5E" d="M382.077,306.498l-1.155-7.09h1.1l0.674,4.316l0.179,1.002l0.171-1.002l1.127-4.316h1.061l1.278,4.316
						l0.223,1.002l0.146-1.002l0.678-4.316h0.906l-1.148,7.09h-1.105l-1.357-4.564l-0.217-1.002h-0.031l-0.197,0.996l-1.18,4.57
						H382.077z"/>
					<path fill="#585A5E" d="M390.038,303v-0.983h4.926V303H390.038z"/>
					<path fill="#585A5E" d="M403.742,303.048l-6.893,3.45v-1.097l4.711-2.346l-4.711-2.372v-1.086L403.742,303.048z"/>
					<path fill="#585A5E" d="M405.481,306.498l-1.155-7.09h1.1l0.674,4.316l0.179,1.002l0.171-1.002l1.127-4.316h1.061l1.278,4.316
						l0.223,1.002l0.146-1.002l0.678-4.316h0.906l-1.148,7.09h-1.105l-1.357-4.564l-0.217-1.002h-0.031l-0.197,0.996l-1.18,4.57
						H405.481z"/>
					<path fill="#585A5E" d="M415.605,305.514v-7.598c-0.355,0.282-0.7,0.522-1.035,0.72c-0.334,0.198-0.793,0.4-1.377,0.606v-1.066
						c0.927-0.393,1.73-0.903,2.412-1.529h1.181v8.867h2.368v0.984h-5.961v-0.984H415.605z"/>
				</g>
			</g>
		</g>
	</g>
</g>
</svg>
