<?xml version="1.0" encoding="utf-8"?>
<!-- Generator: Adobe Illustrator 16.0.0, SVG Export Plug-In . SVG Version: 6.00 Build 0)  -->
<!DOCTYPE svg PUBLIC "-//W3C//DTD SVG 1.1//EN" "http://www.w3.org/Graphics/SVG/1.1/DTD/svg11.dtd">
<svg version="1.1" id="Layer_1" xmlns="http://www.w3.org/2000/svg" xmlns:xlink="http://www.w3.org/1999/xlink" x="0px" y="0px"
	 width="18.089px" height="15.309px" viewBox="0 0 18.089 15.309" enable-background="new 0 0 18.089 15.309" xml:space="preserve">
<g id="XMLID_2_">
	<path id="XMLID_6_" fill="#3AD1CA" d="M15.51,7.098c0.379,0,0.695,0.124,0.948,0.371c0.253,0.247,0.379,0.556,0.379,0.929
		c0,0.591-0.283,0.987-0.852,1.189l-1.571,0.539l0.512,1.527c0.043,0.128,0.063,0.271,0.063,0.431c0,0.358-0.128,0.671-0.385,0.933
		c-0.256,0.262-0.563,0.394-0.923,0.394c-0.287,0-0.548-0.083-0.783-0.247c-0.232-0.165-0.396-0.385-0.488-0.658l-0.503-1.51
		l-2.836,0.97l0.504,1.499c0.049,0.147,0.072,0.291,0.072,0.43c0,0.361-0.128,0.672-0.384,0.934
		c-0.257,0.263-0.567,0.394-0.934,0.394c-0.287,0-0.545-0.082-0.777-0.248c-0.231-0.164-0.394-0.383-0.484-0.658l-0.503-1.491
		l-1.399,0.485c-0.178,0.055-0.33,0.084-0.458,0.084c-0.372,0-0.681-0.123-0.929-0.367c-0.247-0.244-0.37-0.552-0.37-0.924
		c0-0.286,0.083-0.547,0.251-0.778c0.168-0.23,0.385-0.394,0.654-0.483l1.427-0.485L4.781,7.491L3.354,7.986
		C3.196,8.034,3.051,8.058,2.916,8.058c-0.366,0-0.674-0.123-0.924-0.371c-0.25-0.247-0.375-0.553-0.375-0.919
		c0-0.287,0.084-0.546,0.252-0.777C2.037,5.76,2.254,5.598,2.522,5.507l1.436-0.485L3.474,3.568c-0.048-0.146-0.073-0.29-0.073-0.43
		c0-0.366,0.128-0.679,0.384-0.938c0.256-0.26,0.567-0.389,0.933-0.389c0.287,0,0.546,0.082,0.777,0.248
		C5.727,2.222,5.889,2.442,5.98,2.717L6.474,4.18L9.31,3.22L8.815,1.757c-0.048-0.147-0.072-0.29-0.072-0.43
		c0-0.36,0.129-0.671,0.388-0.933C9.39,0.131,9.7,0,10.059,0c0.288,0,0.548,0.084,0.782,0.251c0.235,0.167,0.398,0.386,0.489,0.654
		l0.485,1.473l1.481-0.503c0.128-0.037,0.259-0.055,0.394-0.055c0.366,0,0.68,0.12,0.938,0.361c0.26,0.241,0.389,0.541,0.389,0.901
		c0,0.274-0.091,0.523-0.274,0.746c-0.184,0.222-0.408,0.38-0.677,0.471L12.63,4.794l0.96,2.89l1.5-0.511
		C15.237,7.123,15.376,7.098,15.51,7.098z M8.248,9.494l2.837-0.96l-0.962-2.882L7.289,6.632L8.248,9.494z"/>
</g>
</svg>
